<?xml version="1.0" encoding="UTF-8"?>
<svg width="184px" height="36px" viewBox="0 0 184 36" version="1.1" xmlns="http://www.w3.org/2000/svg" xmlns:xlink="http://www.w3.org/1999/xlink">
    <!-- Generator: Sketch 55 (78076) - https://sketchapp.com -->
    <title>Patron Button</title>
    <desc>Created with Sketch.</desc>
    <g id="Page-1" stroke="none" stroke-width="1" fill="none" fill-rule="evenodd">
        <g id="Become-a-sponsor" transform="translate(-51.000000, -31.000000)">
            <g id="Patron-Button" transform="translate(51.000000, 31.000000)">
                <rect id="Rectangle" fill="#E85B45" x="0" y="0" width="184" height="36" rx="18"></rect>
                <rect id="Rectangle" fill="#000000" x="21" y="10" width="3" height="16"></rect>
                <circle id="Oval" fill="#FFFFFF" cx="31" cy="16" r="6"></circle>
                <path d="M49.6689453,24 L45.3256836,24 L45.3256836,13.4311523 L49.5737305,13.4311523 C51.5585938,13.4311523 52.7524414,14.4418945 52.7524414,16.0678711 C52.7524414,17.1738281 51.9394531,18.1625977 50.8994141,18.3383789 L50.8994141,18.4628906 C52.3276367,18.609375 53.2797852,19.6274414 53.2797852,21.0043945 C53.2797852,22.8647461 51.9248047,24 49.6689453,24 Z M46.9663086,14.8227539 L46.9663086,17.90625 L48.9145508,17.90625 C50.3647461,17.90625 51.1191406,17.371582 51.1191406,16.3681641 C51.1191406,15.394043 50.4086914,14.8227539 49.1928711,14.8227539 L46.9663086,14.8227539 Z M46.9663086,22.6083984 L49.3393555,22.6083984 C50.8188477,22.6083984 51.6025391,22.0078125 51.6025391,20.887207 C51.6025391,19.78125 50.7895508,19.2026367 49.2441406,19.2026367 L46.9663086,19.2026367 L46.9663086,22.6083984 Z M57.6167742,17.2104492 C56.4522235,17.2104492 55.6392352,18.0307617 55.5513446,19.2758789 L59.5796649,19.2758789 C59.5430438,18.0234375 58.781325,17.2104492 57.6167742,17.2104492 Z M59.5723407,21.8466797 L61.0884539,21.8466797 C60.7295672,23.2749023 59.4551532,24.1538086 57.6314227,24.1538086 C55.3462664,24.1538086 53.9473407,22.5864258 53.9473407,20.0375977 C53.9473407,17.4887695 55.3755633,15.8701172 57.6240985,15.8701172 C59.8433367,15.8701172 61.1836688,17.3862305 61.1836688,19.8911133 L61.1836688,20.4404297 L55.5513446,20.4404297 L55.5513446,20.5283203 C55.6026141,21.9272461 56.4156024,22.8134766 57.675368,22.8134766 C58.6275164,22.8134766 59.2793719,22.4692383 59.5723407,21.8466797 Z M68.9703649,18.6313477 L67.4396032,18.6313477 C67.2564977,17.8549805 66.6119665,17.2763672 65.557279,17.2763672 C64.2389196,17.2763672 63.4332555,18.2871094 63.4332555,19.9863281 C63.4332555,21.7148438 64.2462438,22.7475586 65.557279,22.7475586 C66.5533727,22.7475586 67.2345251,22.293457 67.4396032,21.4365234 L68.9703649,21.4365234 C68.7652868,23.0405273 67.534818,24.1538086 65.5646032,24.1538086 C63.2428258,24.1538086 61.8219274,22.5864258 61.8219274,19.9863281 C61.8219274,17.4301758 63.2355016,15.8701172 65.557279,15.8701172 C67.5567907,15.8701172 68.7652868,17.034668 68.9703649,18.6313477 Z M73.2780571,24.1538086 C70.9416313,24.1538086 69.5134087,22.59375 69.5134087,20.0083008 C69.5134087,17.4375 70.9489556,15.8701172 73.2780571,15.8701172 C75.5998345,15.8701172 77.0353813,17.4375 77.0353813,20.0083008 C77.0353813,22.59375 75.6071587,24.1538086 73.2780571,24.1538086 Z M73.2780571,22.7548828 C74.6403618,22.7548828 75.416729,21.7441406 75.416729,20.0083008 C75.416729,18.2797852 74.6403618,17.269043 73.2780571,17.269043 C71.9084282,17.269043 71.1393853,18.2797852 71.1393853,20.0083008 C71.1393853,21.7514648 71.9084282,22.7548828 73.2780571,22.7548828 Z M78.0691478,24 L78.0691478,16.0239258 L79.5852611,16.0239258 L79.5852611,17.3056641 L79.7024486,17.3056641 C80.0540111,16.4047852 80.8596751,15.8701172 81.9216868,15.8701172 C83.0129954,15.8701172 83.76739,16.434082 84.1189525,17.3056641 L84.2434642,17.3056641 C84.6462962,16.434082 85.5618236,15.8701172 86.6677806,15.8701172 C88.2791087,15.8701172 89.2166087,16.8442383 89.2166087,18.5068359 L89.2166087,24 L87.6419017,24 L87.6419017,18.9169922 C87.6419017,17.840332 87.1292064,17.3129883 86.0964915,17.3129883 C85.0784251,17.3129883 84.4119212,18.0454102 84.4119212,18.9829102 L84.4119212,24 L82.8665111,24 L82.8665111,18.7631836 C82.8665111,17.8623047 82.2659251,17.3129883 81.3284251,17.3129883 C80.3689525,17.3129883 79.6438548,18.0966797 79.6438548,19.1220703 L79.6438548,24 L78.0691478,24 Z M93.8465666,17.2104492 C92.6820158,17.2104492 91.8690275,18.0307617 91.7811369,19.2758789 L95.8094572,19.2758789 C95.7728361,18.0234375 95.0111173,17.2104492 93.8465666,17.2104492 Z M95.802133,21.8466797 L97.3182463,21.8466797 C96.9593595,23.2749023 95.6849455,24.1538086 93.861215,24.1538086 C91.5760588,24.1538086 90.177133,22.5864258 90.177133,20.0375977 C90.177133,17.4887695 91.6053556,15.8701172 93.8538908,15.8701172 C96.0731291,15.8701172 97.4134611,17.3862305 97.4134611,19.8911133 L97.4134611,20.4404297 L91.7811369,20.4404297 L91.7811369,20.5283203 C91.8324064,21.9272461 92.6453947,22.8134766 93.9051603,22.8134766 C94.8573088,22.8134766 95.5091642,22.4692383 95.802133,21.8466797 Z M104.30033,22.8061523 C105.486853,22.8061523 106.36576,22.0517578 106.36576,21.0629883 L106.36576,20.3964844 L104.417517,20.5209961 C103.318885,20.5942383 102.820838,20.9677734 102.820838,21.6708984 C102.820838,22.3886719 103.443396,22.8061523 104.30033,22.8061523 Z M103.897498,24.1318359 C102.359412,24.1318359 101.238806,23.2016602 101.238806,21.7441406 C101.238806,20.3085938 102.308142,19.480957 104.205115,19.3637695 L106.36576,19.2392578 L106.36576,18.5507812 C106.36576,17.7084961 105.809119,17.2324219 104.732459,17.2324219 C103.853553,17.2324219 103.245642,17.5546875 103.069861,18.1186523 L101.546424,18.1186523 C101.707556,16.7490234 102.996619,15.8701172 104.805701,15.8701172 C106.805213,15.8701172 107.933142,16.8662109 107.933142,18.5507812 L107.933142,24 L106.417029,24 L106.417029,22.8793945 L106.292517,22.8793945 C105.816443,23.6777344 104.944861,24.1318359 103.897498,24.1318359 Z M112.381046,18.2797852 C112.381046,16.8662109 113.677433,15.8701172 115.479191,15.8701172 C117.273625,15.8701172 118.4455,16.7050781 118.599308,18.1113281 L117.090519,18.1113281 C116.944035,17.5253906 116.372746,17.1518555 115.479191,17.1518555 C114.600285,17.1518555 113.933781,17.5693359 113.933781,18.1918945 C113.933781,18.6679688 114.336613,18.9682617 115.200871,19.1660156 L116.526554,19.4736328 C118.042667,19.8251953 118.753117,20.4770508 118.753117,21.6489258 C118.753117,23.1503906 117.354191,24.1538086 115.449894,24.1538086 C113.552921,24.1538086 112.315128,23.296875 112.175968,21.8833008 L113.750675,21.8833008 C113.948429,22.4985352 114.534367,22.8793945 115.486515,22.8793945 C116.46796,22.8793945 117.163761,22.4399414 117.163761,21.8027344 C117.163761,21.3266602 116.790226,21.019043 115.991886,20.8286133 L114.600285,20.5063477 C113.084171,20.1474609 112.381046,19.4663086 112.381046,18.2797852 Z M123.932391,15.8920898 C125.9612,15.8920898 127.242938,17.4741211 127.242938,20.0083008 C127.242938,22.5424805 125.9612,24.1318359 123.947039,24.1318359 C122.811785,24.1318359 121.910907,23.6337891 121.493426,22.7915039 L121.368914,22.7915039 L121.368914,26.6513672 L119.794207,26.6513672 L119.794207,16.0239258 L121.310321,16.0239258 L121.310321,17.3422852 L121.427508,17.3422852 C121.910907,16.434082 122.848407,15.8920898 123.932391,15.8920898 Z M123.485614,22.7182617 C124.825946,22.7182617 125.624285,21.7001953 125.624285,20.0083008 C125.624285,18.3237305 124.825946,17.3056641 123.492938,17.3056641 C122.167254,17.3056641 121.339618,18.3457031 121.339618,20.015625 C121.339618,21.6782227 122.167254,22.7182617 123.485614,22.7182617 Z M131.645845,24.1538086 C129.309419,24.1538086 127.881196,22.59375 127.881196,20.0083008 C127.881196,17.4375 129.316743,15.8701172 131.645845,15.8701172 C133.967622,15.8701172 135.403169,17.4375 135.403169,20.0083008 C135.403169,22.59375 133.974946,24.1538086 131.645845,24.1538086 Z M131.645845,22.7548828 C133.00815,22.7548828 133.784517,21.7441406 133.784517,20.0083008 C133.784517,18.2797852 133.00815,17.269043 131.645845,17.269043 C130.276216,17.269043 129.507173,18.2797852 129.507173,20.0083008 C129.507173,21.7514648 130.276216,22.7548828 131.645845,22.7548828 Z M136.436936,24 L136.436936,16.0239258 L137.953049,16.0239258 L137.953049,17.2910156 L138.070236,17.2910156 C138.45842,16.4047852 139.249436,15.8701172 140.450607,15.8701172 C142.230393,15.8701172 143.211838,16.9394531 143.211838,18.8364258 L143.211838,24 L141.637131,24 L141.637131,19.2319336 C141.637131,17.9501953 141.08049,17.3129883 139.915939,17.3129883 C138.751389,17.3129883 138.011643,18.0893555 138.011643,19.3344727 L138.011643,24 L136.436936,24 Z M144.384764,18.2797852 C144.384764,16.8662109 145.681151,15.8701172 147.482909,15.8701172 C149.277343,15.8701172 150.449218,16.7050781 150.603026,18.1113281 L149.094237,18.1113281 C148.947753,17.5253906 148.376464,17.1518555 147.482909,17.1518555 C146.604003,17.1518555 145.937499,17.5693359 145.937499,18.1918945 C145.937499,18.6679688 146.340331,18.9682617 147.204589,19.1660156 L148.530272,19.4736328 C150.046386,19.8251953 150.756835,20.4770508 150.756835,21.6489258 C150.756835,23.1503906 149.357909,24.1538086 147.453612,24.1538086 C145.556639,24.1538086 144.318847,23.296875 144.179686,21.8833008 L145.754393,21.8833008 C145.952147,22.4985352 146.538085,22.8793945 147.490233,22.8793945 C148.471679,22.8793945 149.167479,22.4399414 149.167479,21.8027344 C149.167479,21.3266602 148.793944,21.019043 147.995604,20.8286133 L146.604003,20.5063477 C145.087889,20.1474609 144.384764,19.4663086 144.384764,18.2797852 Z M155.167066,24.1538086 C152.83064,24.1538086 151.402418,22.59375 151.402418,20.0083008 C151.402418,17.4375 152.837965,15.8701172 155.167066,15.8701172 C157.488843,15.8701172 158.92439,17.4375 158.92439,20.0083008 C158.92439,22.59375 157.496168,24.1538086 155.167066,24.1538086 Z M155.167066,22.7548828 C156.529371,22.7548828 157.305738,21.7441406 157.305738,20.0083008 C157.305738,18.2797852 156.529371,17.269043 155.167066,17.269043 C153.797437,17.269043 153.028394,18.2797852 153.028394,20.0083008 C153.028394,21.7514648 153.797437,22.7548828 155.167066,22.7548828 Z M159.958157,24 L159.958157,16.0239258 L161.47427,16.0239258 L161.47427,17.2470703 L161.591458,17.2470703 C161.818508,16.4633789 162.704739,15.8920898 163.744778,15.8920898 C163.979153,15.8920898 164.279446,15.9140625 164.447903,15.9580078 L164.447903,17.5107422 C164.316067,17.4667969 163.847317,17.4155273 163.568997,17.4155273 C162.375149,17.4155273 161.532864,18.1699219 161.532864,19.2905273 L161.532864,24 L159.958157,24 Z" id="Becomeasponsor" fill="#FFFFFF" fill-rule="nonzero"></path>
            </g>
        </g>
    </g>
</svg>