<?xml version="1.0" encoding="UTF-8"?>
<svg width="176px" height="36px" viewBox="0 0 176 36" version="1.1" xmlns="http://www.w3.org/2000/svg" xmlns:xlink="http://www.w3.org/1999/xlink">
    <!-- Generator: Sketch 55 (78076) - https://sketchapp.com -->
    <title>Patron Button</title>
    <desc>Created with Sketch.</desc>
    <g id="Page-1" stroke="none" stroke-width="1" fill="none" fill-rule="evenodd">
        <g id="Artboard" transform="translate(-51.000000, -31.000000)">
            <g id="Patron-Button" transform="translate(51.000000, 31.000000)">
                <rect id="Rectangle" fill="#E85B45" x="0" y="0" width="176" height="36" rx="18"></rect>
                <rect id="Rectangle" fill="#000000" x="21" y="10" width="3" height="16"></rect>
                <circle id="Oval" fill="#FFFFFF" cx="31" cy="16" r="6"></circle>
                <path d="M49.8227539,24 L45.3037109,24 L45.3037109,13.4311523 L49.7202148,13.4311523 C51.7270508,13.4311523 52.9355469,14.4418945 52.9355469,16.0678711 C52.9355469,17.1811523 52.1152344,18.1625977 51.0532227,18.3310547 L51.0532227,18.4628906 C52.4741211,18.5947266 53.4555664,19.6201172 53.4555664,20.9970703 C53.4555664,22.8500977 52.0786133,24 49.8227539,24 Z M47.1933594,14.9326172 L47.1933594,17.8769531 L49.0170898,17.8769531 C50.3574219,17.8769531 51.0678711,17.3569336 51.0678711,16.4047852 C51.0678711,15.4746094 50.4013672,14.9326172 49.2587891,14.9326172 L47.1933594,14.9326172 Z M47.1933594,22.4985352 L49.390625,22.4985352 C50.7822266,22.4985352 51.5219727,21.9272461 51.5219727,20.8505859 C51.5219727,19.7958984 50.7602539,19.2392578 49.3173828,19.2392578 L47.1933594,19.2392578 L47.1933594,22.4985352 Z M57.7255604,17.269043 C56.641576,17.269043 55.8798573,18.0454102 55.7992908,19.2172852 L59.5712635,19.2172852 C59.5346424,18.0307617 58.816869,17.269043 57.7255604,17.269043 Z M59.5859119,21.7954102 L61.3071033,21.7954102 C60.9628651,23.2529297 59.6371815,24.1611328 57.747533,24.1611328 C55.3891346,24.1611328 53.9682362,22.6010742 53.9682362,20.0229492 C53.9682362,17.4448242 55.4111073,15.8261719 57.7328846,15.8261719 C60.0180408,15.8261719 61.3876698,17.3422852 61.3876698,19.8691406 L61.3876698,20.4550781 L55.7919666,20.4550781 L55.7919666,20.550293 C55.8359119,21.8833008 56.6049549,22.7182617 57.7988026,22.7182617 C58.6996815,22.7182617 59.3222401,22.3886719 59.5859119,21.7954102 Z M69.1806129,18.6826172 L67.4520973,18.6826172 C67.2836403,17.90625 66.6830543,17.3496094 65.6869606,17.3496094 C64.4418434,17.3496094 63.7020973,18.309082 63.7020973,19.9716797 C63.7020973,21.65625 64.4491676,22.6376953 65.6869606,22.6376953 C66.6317848,22.6376953 67.2616676,22.190918 67.4520973,21.355957 L69.1806129,21.355957 C68.982859,23.0332031 67.7230934,24.1611328 65.6942848,24.1611328 C63.2846168,24.1611328 61.8637184,22.6083984 61.8637184,19.9716797 C61.8637184,17.371582 63.2772926,15.8261719 65.6869606,15.8261719 C67.7450661,15.8261719 68.9901833,16.9980469 69.1806129,18.6826172 Z M73.42131,24.1611328 C71.0189663,24.1611328 69.568771,22.59375 69.568771,19.9936523 C69.568771,17.4082031 71.0409389,15.8261719 73.42131,15.8261719 C75.8090053,15.8261719 77.2738491,17.4008789 77.2738491,19.9936523 C77.2738491,22.59375 75.8163296,24.1611328 73.42131,24.1611328 Z M73.42131,22.6376953 C74.6883999,22.6376953 75.4061733,21.6708984 75.4061733,19.9936523 C75.4061733,18.3237305 74.6810757,17.3496094 73.42131,17.3496094 C72.1542202,17.3496094 71.4291225,18.3237305 71.4291225,19.9936523 C71.4291225,21.6708984 72.1542202,22.6376953 73.42131,22.6376953 Z M78.1527298,24 L78.1527298,15.9873047 L79.9032181,15.9873047 L79.9032181,17.2836914 L80.0277298,17.2836914 C80.3719681,16.3681641 81.1922806,15.8261719 82.2542923,15.8261719 C83.3602493,15.8261719 84.1292923,16.3828125 84.4662063,17.2836914 L84.5907181,17.2836914 C84.9862259,16.4047852 85.9090774,15.8261719 87.0223587,15.8261719 C88.6263626,15.8261719 89.5931595,16.8295898 89.5931595,18.4921875 L89.5931595,24 L87.7840774,24 L87.7840774,18.9536133 C87.7840774,17.9208984 87.2933548,17.4082031 86.3192337,17.4082031 C85.3744095,17.4082031 84.7518509,18.0966797 84.7518509,19.012207 L84.7518509,24 L82.9867142,24 L82.9867142,18.8217773 C82.9867142,17.9428711 82.4300735,17.4082031 81.5365188,17.4082031 C80.6356399,17.4082031 79.969136,18.1479492 79.969136,19.1293945 L79.969136,24 L78.1527298,24 Z M94.1561222,17.269043 C93.0721378,17.269043 92.3104191,18.0454102 92.2298527,19.2172852 L96.0018253,19.2172852 C95.9652042,18.0307617 95.2474308,17.269043 94.1561222,17.269043 Z M96.0164738,21.7954102 L97.7376652,21.7954102 C97.3934269,23.2529297 96.0677433,24.1611328 94.1780948,24.1611328 C91.8196964,24.1611328 90.398798,22.6010742 90.398798,20.0229492 C90.398798,17.4448242 91.8416691,15.8261719 94.1634464,15.8261719 C96.4486027,15.8261719 97.8182316,17.3422852 97.8182316,19.8691406 L97.8182316,20.4550781 L92.2225284,20.4550781 L92.2225284,20.550293 C92.2664738,21.8833008 93.0355167,22.7182617 94.2293644,22.7182617 C95.1302433,22.7182617 95.7528019,22.3886719 96.0164738,21.7954102 Z M104.475895,22.7036133 C105.574528,22.7036133 106.394841,21.9931641 106.394841,21.0629883 L106.394841,20.4257812 L104.585759,20.5429688 C103.567692,20.6088867 103.091618,20.9750977 103.091618,21.6269531 C103.091618,22.3007812 103.670231,22.7036133 104.475895,22.7036133 Z M103.941227,24.1318359 C102.395817,24.1318359 101.28986,23.1943359 101.28986,21.7294922 C101.28986,20.2792969 102.381169,19.4443359 104.329411,19.3271484 L106.394841,19.2026367 L106.394841,18.5288086 C106.394841,17.7451172 105.867497,17.3056641 104.886052,17.3056641 C104.051091,17.3056641 103.479802,17.5986328 103.311345,18.140625 L101.597477,18.140625 C101.743962,16.7270508 103.069645,15.8261719 104.973942,15.8261719 C107.032048,15.8261719 108.189274,16.8295898 108.189274,18.5288086 L108.189274,24 L106.438786,24 L106.438786,22.9013672 L106.314274,22.9013672 C105.867497,23.6777344 104.988591,24.1318359 103.941227,24.1318359 Z M116.831801,15.8554688 C118.86061,15.8554688 120.135024,17.4228516 120.135024,19.9936523 C120.135024,22.5498047 118.875258,24.1318359 116.853774,24.1318359 C115.703872,24.1318359 114.817641,23.6337891 114.407485,22.7841797 L114.282973,22.7841797 L114.282973,26.6660156 L112.466567,26.6660156 L112.466567,15.9873047 L114.217055,15.9873047 L114.217055,17.3129883 L114.341567,17.3129883 C114.802993,16.4047852 115.733168,15.8554688 116.831801,15.8554688 Z M116.260512,22.5864258 C117.520278,22.5864258 118.267348,21.6123047 118.267348,19.9936523 C118.267348,18.375 117.512954,17.4008789 116.267836,17.4008789 C115.030043,17.4008789 114.253676,18.3969727 114.246352,19.9936523 C114.253676,21.5976562 115.022719,22.5864258 116.260512,22.5864258 Z M123.745838,22.7036133 C124.844471,22.7036133 125.664783,21.9931641 125.664783,21.0629883 L125.664783,20.4257812 L123.855701,20.5429688 C122.837635,20.6088867 122.361561,20.9750977 122.361561,21.6269531 C122.361561,22.3007812 122.940174,22.7036133 123.745838,22.7036133 Z M123.21117,24.1318359 C121.66576,24.1318359 120.559803,23.1943359 120.559803,21.7294922 C120.559803,20.2792969 121.651112,19.4443359 123.599354,19.3271484 L125.664783,19.2026367 L125.664783,18.5288086 C125.664783,17.7451172 125.13744,17.3056641 124.155994,17.3056641 C123.321033,17.3056641 122.749744,17.5986328 122.581287,18.140625 L120.86742,18.140625 C121.013905,16.7270508 122.339588,15.8261719 124.243885,15.8261719 C126.30199,15.8261719 127.459217,16.8295898 127.459217,18.5288086 L127.459217,24 L125.708729,24 L125.708729,22.9013672 L125.584217,22.9013672 C125.13744,23.6777344 124.258533,24.1318359 123.21117,24.1318359 Z M129.268274,14.0244141 L131.077356,14.0244141 L131.077356,16.0385742 L132.791223,16.0385742 L132.791223,17.4887695 L131.077356,17.4887695 L131.077356,21.421875 C131.077356,22.2128906 131.41427,22.5644531 132.175988,22.5644531 C132.432336,22.5644531 132.571496,22.5498047 132.791223,22.527832 L132.791223,23.9487305 C132.527551,24 132.190637,24.0366211 131.839074,24.0366211 C130.000695,24.0366211 129.268274,23.4140625 129.268274,21.8613281 L129.268274,17.4887695 L128.001184,17.4887695 L128.001184,16.0385742 L129.268274,16.0385742 L129.268274,14.0244141 Z M133.655455,24 L133.655455,15.9873047 L135.405943,15.9873047 L135.405943,17.2324219 L135.530455,17.2324219 C135.750182,16.4414062 136.614439,15.8554688 137.647154,15.8554688 C137.910826,15.8554688 138.233092,15.8847656 138.401549,15.9360352 L138.401549,17.6206055 C138.262389,17.5693359 137.77899,17.5180664 137.471373,17.5180664 C136.292174,17.5180664 135.471861,18.2504883 135.471861,19.3710938 L135.471861,24 L133.655455,24 Z M142.195468,24.1611328 C139.793125,24.1611328 138.342929,22.59375 138.342929,19.9936523 C138.342929,17.4082031 139.815097,15.8261719 142.195468,15.8261719 C144.583164,15.8261719 146.048008,17.4008789 146.048008,19.9936523 C146.048008,22.59375 144.590488,24.1611328 142.195468,24.1611328 Z M142.195468,22.6376953 C143.462558,22.6376953 144.180332,21.6708984 144.180332,19.9936523 C144.180332,18.3237305 143.455234,17.3496094 142.195468,17.3496094 C140.928379,17.3496094 140.203281,18.3237305 140.203281,19.9936523 C140.203281,21.6708984 140.928379,22.6376953 142.195468,22.6376953 Z M146.926888,24 L146.926888,15.9873047 L148.677377,15.9873047 L148.677377,17.269043 L148.801888,17.269043 C149.182748,16.3754883 149.988412,15.8261719 151.182259,15.8261719 C152.969369,15.8261719 153.94349,16.902832 153.94349,18.8144531 L153.94349,24 L152.127084,24 L152.127084,19.246582 C152.127084,18.0234375 151.614388,17.4082031 150.508431,17.4082031 C149.424447,17.4082031 148.743294,18.1552734 148.743294,19.3344727 L148.743294,24 L146.926888,24 Z" id="Becomeapatron" fill="#FFFFFF" fill-rule="nonzero"></path>
            </g>
        </g>
    </g>
</svg>