<?xml version="1.0" encoding="UTF-8"?>
<svg width="184px" height="36px" viewBox="0 0 184 36" version="1.1" xmlns="http://www.w3.org/2000/svg" xmlns:xlink="http://www.w3.org/1999/xlink">
    <!-- Generator: Sketch 55 (78076) - https://sketchapp.com -->
    <title>Patron Button</title>
    <desc>Created with Sketch.</desc>
    <g id="Page-1" stroke="none" stroke-width="1" fill="none" fill-rule="evenodd">
        <g id="Become-a-sponsor" transform="translate(-51.000000, -31.000000)">
            <g id="Patron-Button" transform="translate(51.000000, 31.000000)">
                <rect id="Rectangle" fill="#E85B45" x="0" y="0" width="184" height="36" rx="18"></rect>
                <rect id="Rectangle" fill="#000000" x="21" y="10" width="3" height="16"></rect>
                <circle id="Oval" fill="#FFFFFF" cx="31" cy="16" r="6"></circle>
                <path d="M49.8227539,23 L45.3037109,23 L45.3037109,12.4311523 L49.7202148,12.4311523 C51.7270508,12.4311523 52.9355469,13.4418945 52.9355469,15.0678711 C52.9355469,16.1811523 52.1152344,17.1625977 51.0532227,17.3310547 L51.0532227,17.4628906 C52.4741211,17.5947266 53.4555664,18.6201172 53.4555664,19.9970703 C53.4555664,21.8500977 52.0786133,23 49.8227539,23 Z M47.1933594,13.9326172 L47.1933594,16.8769531 L49.0170898,16.8769531 C50.3574219,16.8769531 51.0678711,16.3569336 51.0678711,15.4047852 C51.0678711,14.4746094 50.4013672,13.9326172 49.2587891,13.9326172 L47.1933594,13.9326172 Z M47.1933594,21.4985352 L49.390625,21.4985352 C50.7822266,21.4985352 51.5219727,20.9272461 51.5219727,19.8505859 C51.5219727,18.7958984 50.7602539,18.2392578 49.3173828,18.2392578 L47.1933594,18.2392578 L47.1933594,21.4985352 Z M57.8218524,16.269043 C56.737868,16.269043 55.9761492,17.0454102 55.8955828,18.2172852 L59.6675555,18.2172852 C59.6309344,17.0307617 58.913161,16.269043 57.8218524,16.269043 Z M59.6822039,20.7954102 L61.4033953,20.7954102 C61.0591571,22.2529297 59.7334735,23.1611328 57.843825,23.1611328 C55.4854266,23.1611328 54.0645282,21.6010742 54.0645282,19.0229492 C54.0645282,16.4448242 55.5073992,14.8261719 57.8291766,14.8261719 C60.1143328,14.8261719 61.4839617,16.3422852 61.4839617,18.8691406 L61.4839617,19.4550781 L55.8882586,19.4550781 L55.8882586,19.550293 C55.9322039,20.8833008 56.7012469,21.7182617 57.8950946,21.7182617 C58.7959735,21.7182617 59.4185321,21.3886719 59.6822039,20.7954102 Z M69.3731969,17.6826172 L67.6446813,17.6826172 C67.4762243,16.90625 66.8756383,16.3496094 65.8795446,16.3496094 C64.6344274,16.3496094 63.8946813,17.309082 63.8946813,18.9716797 C63.8946813,20.65625 64.6417516,21.6376953 65.8795446,21.6376953 C66.8243688,21.6376953 67.4542516,21.190918 67.6446813,20.355957 L69.3731969,20.355957 C69.175443,22.0332031 67.9156774,23.1611328 65.8868688,23.1611328 C63.4772008,23.1611328 62.0563024,21.6083984 62.0563024,18.9716797 C62.0563024,16.371582 63.4698766,14.8261719 65.8795446,14.8261719 C67.9376501,14.8261719 69.1827672,15.9980469 69.3731969,17.6826172 Z M73.710186,23.1611328 C71.3078423,23.1611328 69.857647,21.59375 69.857647,18.9936523 C69.857647,16.4082031 71.3298149,14.8261719 73.710186,14.8261719 C76.0978813,14.8261719 77.5627251,16.4008789 77.5627251,18.9936523 C77.5627251,21.59375 76.1052056,23.1611328 73.710186,23.1611328 Z M73.710186,21.6376953 C74.9772759,21.6376953 75.6950493,20.6708984 75.6950493,18.9936523 C75.6950493,17.3237305 74.9699517,16.3496094 73.710186,16.3496094 C72.4430962,16.3496094 71.7179985,17.3237305 71.7179985,18.9936523 C71.7179985,20.6708984 72.4430962,21.6376953 73.710186,21.6376953 Z M78.5378978,23 L78.5378978,14.9873047 L80.2883861,14.9873047 L80.2883861,16.2836914 L80.4128978,16.2836914 C80.7571361,15.3681641 81.5774486,14.8261719 82.6394603,14.8261719 C83.7454173,14.8261719 84.5144603,15.3828125 84.8513743,16.2836914 L84.9758861,16.2836914 C85.3713939,15.4047852 86.2942454,14.8261719 87.4075267,14.8261719 C89.0115306,14.8261719 89.9783275,15.8295898 89.9783275,17.4921875 L89.9783275,23 L88.1692454,23 L88.1692454,17.9536133 C88.1692454,16.9208984 87.6785228,16.4082031 86.7044017,16.4082031 C85.7595775,16.4082031 85.1370189,17.0966797 85.1370189,18.012207 L85.1370189,23 L83.3718822,23 L83.3718822,17.8217773 C83.3718822,16.9428711 82.8152415,16.4082031 81.9216868,16.4082031 C81.0208079,16.4082031 80.354304,17.1479492 80.354304,18.1293945 L80.354304,23 L78.5378978,23 Z M94.6375822,16.269043 C93.5535978,16.269043 92.7918791,17.0454102 92.7113127,18.2172852 L96.4832853,18.2172852 C96.4466642,17.0307617 95.7288908,16.269043 94.6375822,16.269043 Z M96.4979338,20.7954102 L98.2191252,20.7954102 C97.8748869,22.2529297 96.5492033,23.1611328 94.6595548,23.1611328 C92.3011564,23.1611328 90.880258,21.6010742 90.880258,19.0229492 C90.880258,16.4448242 92.3231291,14.8261719 94.6449064,14.8261719 C96.9300627,14.8261719 98.2996916,16.3422852 98.2996916,18.8691406 L98.2996916,19.4550781 L92.7039884,19.4550781 L92.7039884,19.550293 C92.7479338,20.8833008 93.5169767,21.7182617 94.7108244,21.7182617 C95.6117033,21.7182617 96.2342619,21.3886719 96.4979338,20.7954102 Z M105.149939,21.7036133 C106.248572,21.7036133 107.068885,20.9931641 107.068885,20.0629883 L107.068885,19.4257812 L105.259803,19.5429688 C104.241736,19.6088867 103.765662,19.9750977 103.765662,20.6269531 C103.765662,21.3007812 104.344275,21.7036133 105.149939,21.7036133 Z M104.615271,23.1318359 C103.069861,23.1318359 101.963904,22.1943359 101.963904,20.7294922 C101.963904,19.2792969 103.055213,18.4443359 105.003455,18.3271484 L107.068885,18.2026367 L107.068885,17.5288086 C107.068885,16.7451172 106.541541,16.3056641 105.560096,16.3056641 C104.725135,16.3056641 104.153846,16.5986328 103.985388,17.140625 L102.271521,17.140625 C102.418006,15.7270508 103.743689,14.8261719 105.647986,14.8261719 C107.706092,14.8261719 108.863318,15.8295898 108.863318,17.5288086 L108.863318,23 L107.11283,23 L107.11283,21.9013672 L106.988318,21.9013672 C106.541541,22.6777344 105.662635,23.1318359 104.615271,23.1318359 Z M113.150089,17.2797852 C113.150089,15.8295898 114.468449,14.8261719 116.358097,14.8261719 C118.262394,14.8261719 119.456242,15.668457 119.588078,17.1259766 L117.881535,17.1259766 C117.749699,16.5620117 117.215031,16.203125 116.365421,16.203125 C115.537785,16.203125 114.915226,16.5986328 114.915226,17.1772461 C114.915226,17.6313477 115.296085,17.909668 116.10175,18.0927734 L117.515324,18.4150391 C119.046085,18.7592773 119.756535,19.418457 119.756535,20.5976562 C119.756535,22.1357422 118.34296,23.1611328 116.343449,23.1611328 C114.343937,23.1611328 113.084171,22.296875 112.945011,20.8393555 L114.739445,20.8393555 C114.915226,21.4326172 115.479191,21.7841797 116.387394,21.7841797 C117.302921,21.7841797 117.940128,21.3813477 117.940128,20.7880859 C117.940128,20.3339844 117.59589,20.0483398 116.834171,19.8798828 L115.413273,19.550293 C113.875187,19.1987305 113.150089,18.4882812 113.150089,17.2797852 Z M125.104266,14.8554688 C127.133075,14.8554688 128.407489,16.4228516 128.407489,18.9936523 C128.407489,21.5498047 127.147723,23.1318359 125.126239,23.1318359 C123.976336,23.1318359 123.090106,22.6337891 122.67995,21.7841797 L122.555438,21.7841797 L122.555438,25.6660156 L120.739032,25.6660156 L120.739032,14.9873047 L122.48952,14.9873047 L122.48952,16.3129883 L122.614032,16.3129883 C123.075457,15.4047852 124.005633,14.8554688 125.104266,14.8554688 Z M124.532977,21.5864258 C125.792743,21.5864258 126.539813,20.6123047 126.539813,18.9936523 C126.539813,17.375 125.785418,16.4008789 124.540301,16.4008789 C123.302508,16.4008789 122.526141,17.3969727 122.518817,18.9936523 C122.526141,20.5976562 123.295184,21.5864258 124.532977,21.5864258 Z M132.832368,23.1611328 C130.430025,23.1611328 128.979829,21.59375 128.979829,18.9936523 C128.979829,16.4082031 130.451997,14.8261719 132.832368,14.8261719 C135.220064,14.8261719 136.684907,16.4008789 136.684907,18.9936523 C136.684907,21.59375 135.227388,23.1611328 132.832368,23.1611328 Z M132.832368,21.6376953 C134.099458,21.6376953 134.817232,20.6708984 134.817232,18.9936523 C134.817232,17.3237305 134.092134,16.3496094 132.832368,16.3496094 C131.565278,16.3496094 130.840181,17.3237305 130.840181,18.9936523 C130.840181,20.6708984 131.565278,21.6376953 132.832368,21.6376953 Z M137.66008,23 L137.66008,14.9873047 L139.410568,14.9873047 L139.410568,16.269043 L139.53508,16.269043 C139.915939,15.3754883 140.721604,14.8261719 141.915451,14.8261719 C143.702561,14.8261719 144.676682,15.902832 144.676682,17.8144531 L144.676682,23 L142.860275,23 L142.860275,18.246582 C142.860275,17.0234375 142.34758,16.4082031 141.241623,16.4082031 C140.157639,16.4082031 139.476486,17.1552734 139.476486,18.3344727 L139.476486,23 L137.66008,23 Z M145.791014,17.2797852 C145.791014,15.8295898 147.109374,14.8261719 148.999022,14.8261719 C150.903319,14.8261719 152.097167,15.668457 152.229003,17.1259766 L150.52246,17.1259766 C150.390624,16.5620117 149.855956,16.203125 149.006347,16.203125 C148.17871,16.203125 147.556151,16.5986328 147.556151,17.1772461 C147.556151,17.6313477 147.937011,17.909668 148.742675,18.0927734 L150.156249,18.4150391 C151.687011,18.7592773 152.39746,19.418457 152.39746,20.5976562 C152.39746,22.1357422 150.983886,23.1611328 148.984374,23.1611328 C146.984862,23.1611328 145.725097,22.296875 145.585936,20.8393555 L147.38037,20.8393555 C147.556151,21.4326172 148.120116,21.7841797 149.028319,21.7841797 C149.943847,21.7841797 150.581054,21.3813477 150.581054,20.7880859 C150.581054,20.3339844 150.236815,20.0483398 149.475097,19.8798828 L148.054198,19.550293 C146.516112,19.1987305 145.791014,18.4882812 145.791014,17.2797852 Z M156.836988,23.1611328 C154.434644,23.1611328 152.984449,21.59375 152.984449,18.9936523 C152.984449,16.4082031 154.456617,14.8261719 156.836988,14.8261719 C159.224683,14.8261719 160.689527,16.4008789 160.689527,18.9936523 C160.689527,21.59375 159.232007,23.1611328 156.836988,23.1611328 Z M156.836988,21.6376953 C158.104078,21.6376953 158.821851,20.6708984 158.821851,18.9936523 C158.821851,17.3237305 158.096754,16.3496094 156.836988,16.3496094 C155.569898,16.3496094 154.8448,17.3237305 154.8448,18.9936523 C154.8448,20.6708984 155.569898,21.6376953 156.836988,21.6376953 Z M161.6647,23 L161.6647,14.9873047 L163.415188,14.9873047 L163.415188,16.2324219 L163.5397,16.2324219 C163.759426,15.4414062 164.623684,14.8554688 165.656399,14.8554688 C165.920071,14.8554688 166.242336,14.8847656 166.410793,14.9360352 L166.410793,16.6206055 C166.271633,16.5693359 165.788235,16.5180664 165.480618,16.5180664 C164.301418,16.5180664 163.481106,17.2504883 163.481106,18.3710938 L163.481106,23 L161.6647,23 Z" id="Becomeasponsor" fill="#FFFFFF" fill-rule="nonzero"></path>
            </g>
        </g>
    </g>
</svg>