<?xml version="1.0" encoding="UTF-8"?>
<svg width="1600px" height="120px" viewBox="0 0 1600 120" version="1.1" xmlns="http://www.w3.org/2000/svg" xmlns:xlink="http://www.w3.org/1999/xlink" style="background: #FFFFFF;">
    <!-- Generator: Sketch 42 (36781) - http://www.bohemiancoding.com/sketch -->
    <title>powered by sparrow - outlines</title>
    <desc>Created with Sketch.</desc>
    <defs></defs>
    <g id="Page-1" stroke="none" stroke-width="1" fill="none" fill-rule="evenodd">
        <g id="powered-by-sparrow---outlines">
            <g id="Group-2" transform="translate(626.000000, 13.000000)">
                <g id="Group" transform="translate(60.000000, 12.000000)">
                    <path d="M0.892,0.424 L5.644,0.424 C6.48000418,0.424 7.24266322,0.50833249 7.932,0.677 C8.62133678,0.84566751 9.20799758,1.10599824 9.692,1.458 C10.1760024,1.81000176 10.5499987,2.25733062 10.814,2.8 C11.0780013,3.34266938 11.21,3.99532952 11.21,4.758 C11.21,5.53533722 11.0670014,6.20266388 10.781,6.76 C10.4949986,7.31733612 10.0990025,7.77199824 9.593,8.124 C9.08699747,8.47600176 8.48567015,8.73633249 7.789,8.905 C7.09232985,9.07366751 6.3406707,9.158 5.534,9.158 L3.07,9.158 L3.07,16 L0.892,16 L0.892,0.424 Z M3.07,7.31 L5.38,7.31 C5.90800264,7.31 6.39566443,7.26233381 6.843,7.167 C7.29033557,7.07166619 7.67533172,6.92500099 7.998,6.727 C8.32066828,6.52899901 8.56999912,6.26866828 8.746,5.946 C8.92200088,5.62333172 9.01,5.22733568 9.01,4.758 C9.01,4.28866432 8.91833425,3.89633491 8.735,3.581 C8.55166575,3.26566509 8.30233491,3.00900099 7.987,2.811 C7.67166509,2.61299901 7.2940022,2.47366707 6.854,2.393 C6.4139978,2.31233293 5.9373359,2.272 5.424,2.272 L3.07,2.272 L3.07,7.31 Z M30.9471429,8.19 C30.9471429,9.39267268 30.738145,10.4963283 30.3201429,11.501 C29.9021408,12.5056717 29.3264799,13.3709964 28.5931429,14.097 C27.8598059,14.8230036 26.987148,15.3876647 25.9751429,15.791 C24.9631378,16.1943354 23.8631488,16.396 22.6751429,16.396 C21.487137,16.396 20.3908146,16.1943354 19.3861429,15.791 C18.3814712,15.3876647 17.5124799,14.8230036 16.7791429,14.097 C16.0458059,13.3709964 15.4738116,12.5056717 15.0631429,11.501 C14.6524742,10.4963283 14.4471429,9.39267268 14.4471429,8.19 C14.4471429,6.97266058 14.6524742,5.86167169 15.0631429,4.857 C15.4738116,3.85232831 16.0458059,2.99433689 16.7791429,2.283 C17.5124799,1.57166311 18.3814712,1.01800198 19.3861429,0.622 C20.3908146,0.22599802 21.487137,0.028 22.6751429,0.028 C23.8631488,0.028 24.9631378,0.22599802 25.9751429,0.622 C26.987148,1.01800198 27.8598059,1.57166311 28.5931429,2.283 C29.3264799,2.99433689 29.9021408,3.85232831 30.3201429,4.857 C30.738145,5.86167169 30.9471429,6.97266058 30.9471429,8.19 Z M28.5931429,8.19 C28.5931429,7.33932908 28.453811,6.53633711 28.1751429,5.781 C27.8964748,5.02566289 27.5004788,4.36200286 26.9871429,3.79 C26.473807,3.21799714 25.8541465,2.76700165 25.1281429,2.437 C24.4021393,2.10699835 23.5844808,1.942 22.6751429,1.942 C21.7804718,1.942 20.9701465,2.10699835 20.2441429,2.437 C19.5181393,2.76700165 18.9021454,3.21799714 18.3961429,3.79 C17.8901404,4.36200286 17.497811,5.02566289 17.2191429,5.781 C16.9404748,6.53633711 16.8011429,7.33932908 16.8011429,8.19 C16.8011429,9.05533766 16.9404748,9.86932952 17.2191429,10.632 C17.497811,11.3946705 17.893807,12.0583305 18.4071429,12.623 C18.9204788,13.1876695 19.5364726,13.6313317 20.2551429,13.954 C20.9738132,14.2766683 21.7804718,14.438 22.6751429,14.438 C23.569814,14.438 24.3838059,14.2766683 25.1171429,13.954 C25.8504799,13.6313317 26.473807,13.1876695 26.9871429,12.623 C27.5004788,12.0583305 27.8964748,11.3946705 28.1751429,10.632 C28.453811,9.86932952 28.5931429,9.05533766 28.5931429,8.19 Z M39.2882858,12.832 L39.3322858,12.832 L42.9842858,0.424 L45.3822858,0.424 L49.0122858,12.832 L49.0562858,12.832 L52.4882858,0.424 L54.7982858,0.424 L50.2222858,16 L47.9562858,16 L44.1722858,3.482 L44.1282858,3.482 L40.3442858,16 L38.0782858,16 L33.5022858,0.424 L35.8562858,0.424 L39.2882858,12.832 Z M60.3454287,14.064 L68.4854287,14.064 L68.4854287,16 L58.1674287,16 L58.1674287,0.424 L68.1554287,0.424 L68.1554287,2.338 L60.3454287,2.338 L60.3454287,7.002 L67.6934287,7.002 L67.6934287,8.872 L60.3454287,8.872 L60.3454287,14.064 Z M74.8245716,16 L72.6465716,16 L72.6465716,0.424 L77.6405716,0.424 C78.3885753,0.424 79.0999016,0.50099923 79.7745716,0.655 C80.4492416,0.80900077 81.0395691,1.05466498 81.5455716,1.392 C82.0515741,1.72933502 82.4512368,2.17299725 82.7445716,2.723 C83.0379064,3.27300275 83.1845716,3.94399604 83.1845716,4.736 C83.1845716,5.88000572 82.8325751,6.80399648 82.1285716,7.508 C81.4245681,8.21200352 80.5152438,8.65933238 79.4005716,8.85 L83.7565716,16 L81.1165716,16 L77.1565716,9.07 L74.8245716,9.07 L74.8245716,16 Z M74.8245716,7.244 L77.3325716,7.244 C77.8459075,7.244 78.3225694,7.20000044 78.7625716,7.112 C79.2025738,7.02399956 79.58757,6.88100099 79.9175716,6.683 C80.2475733,6.48499901 80.507904,6.22833491 80.6985716,5.913 C80.8892392,5.59766509 80.9845716,5.20533568 80.9845716,4.736 C80.9845716,4.26666432 80.8892392,3.87433491 80.6985716,3.559 C80.507904,3.24366509 80.2549065,2.99066762 79.9395716,2.8 C79.6242367,2.60933238 79.2539071,2.47366707 78.8285716,2.393 C78.4032361,2.31233293 77.9559073,2.272 77.4865716,2.272 L74.8245716,2.272 L74.8245716,7.244 Z M89.5897145,14.064 L97.7297145,14.064 L97.7297145,16 L87.4117145,16 L87.4117145,0.424 L97.3997145,0.424 L97.3997145,2.338 L89.5897145,2.338 L89.5897145,7.002 L96.9377145,7.002 L96.9377145,8.872 L89.5897145,8.872 L89.5897145,14.064 Z M101.890857,0.424 L107.236857,0.424 C108.234196,0.424 109.231519,0.5706652 110.228857,0.864 C111.226196,1.1573348 112.128187,1.61933018 112.934857,2.25 C113.741528,2.88066982 114.394188,3.68732842 114.892857,4.67 C115.391527,5.65267158 115.640857,6.83332644 115.640857,8.212 C115.640857,9.54667334 115.391527,10.7016618 114.892857,11.677 C114.394188,12.6523382 113.741528,13.4589968 112.934857,14.097 C112.128187,14.7350032 111.226196,15.2116651 110.228857,15.527 C109.231519,15.8423349 108.234196,16 107.236857,16 L101.890857,16 L101.890857,0.424 Z M104.068857,14.086 L106.796857,14.086 C107.735529,14.086 108.60452,13.9540013 109.403857,13.69 C110.203195,13.4259987 110.892521,13.0446692 111.471857,12.546 C112.051194,12.0473308 112.502189,11.431337 112.824857,10.698 C113.147526,9.964663 113.308857,9.13600462 113.308857,8.212 C113.308857,7.24399516 113.147526,6.393337 112.824857,5.66 C112.502189,4.926663 112.051194,4.31433579 111.471857,3.823 C110.892521,3.33166421 110.203195,2.95766795 109.403857,2.701 C108.60452,2.44433205 107.735529,2.316 106.796857,2.316 L104.068857,2.316 L104.068857,14.086 Z M126.647143,0.424 L132.015143,0.424 C132.601813,0.424 133.188474,0.48999934 133.775143,0.622 C134.361813,0.75400066 134.886141,0.97399846 135.348143,1.282 C135.810146,1.59000154 136.184142,1.99333084 136.470143,2.492 C136.756145,2.99066916 136.899143,3.61399626 136.899143,4.362 C136.899143,5.22733766 136.649812,5.9533304 136.151143,6.54 C135.652474,7.1266696 134.992481,7.5299989 134.171143,7.75 L134.171143,7.794 C134.669812,7.85266696 135.131808,7.98099901 135.557143,8.179 C135.982479,8.37700099 136.349142,8.63733172 136.657143,8.96 C136.965145,9.28266828 137.203476,9.6639978 137.372143,10.104 C137.540811,10.5440022 137.625143,11.0353306 137.625143,11.578 C137.625143,12.3260037 137.471145,12.9786639 137.163143,13.536 C136.855142,14.0933361 136.437146,14.5516649 135.909143,14.911 C135.381141,15.2703351 134.76148,15.5416658 134.050143,15.725 C133.338806,15.9083343 132.579814,16 131.773143,16 L126.647143,16 L126.647143,0.424 Z M128.825143,7.002 L131.663143,7.002 C132.073812,7.002 132.466141,6.95433381 132.840143,6.859 C133.214145,6.76366619 133.540475,6.61700099 133.819143,6.419 C134.097811,6.22099901 134.317809,5.97166817 134.479143,5.671 C134.640477,5.37033183 134.721143,5.00733546 134.721143,4.582 C134.721143,3.74599582 134.413146,3.14833513 133.797143,2.789 C133.18114,2.42966487 132.352482,2.25 131.311143,2.25 L128.825143,2.25 L128.825143,7.002 Z M128.825143,14.152 L131.553143,14.152 C132.007812,14.152 132.466141,14.1116671 132.928143,14.031 C133.390146,13.9503329 133.808141,13.8073344 134.182143,13.602 C134.556145,13.3966656 134.856809,13.1216684 135.084143,12.777 C135.311478,12.4323316 135.425143,11.9960026 135.425143,11.468 C135.425143,10.5439954 135.109813,9.87666872 134.479143,9.466 C133.848473,9.05533128 132.939149,8.85 131.751143,8.85 L128.825143,8.85 L128.825143,14.152 Z M148.100286,16 L145.900286,16 L145.900286,9.268 L140.070286,0.424 L142.754286,0.424 L147.066286,7.464 L151.400286,0.424 L153.930286,0.424 L148.100286,9.268 L148.100286,16 Z" id="POWERED-BY" fill="#14181A"></path>
                    <path d="M23.145,38.2 C22.411663,37.2466619 21.37584,36.4491699 20.0375,35.8075 C18.69916,35.1658301 17.3516734,34.845 15.995,34.845 C15.1883293,34.845 14.3816707,34.9458323 13.575,35.1475 C12.7683293,35.3491677 12.0350033,35.6608312 11.375,36.0825 C10.7149967,36.5041688 10.1741688,37.0541633 9.7525,37.7325 C9.33083122,38.4108367 9.12,39.2266619 9.12,40.18 C9.12,41.0600044 9.3033315,41.8116636 9.67,42.435 C10.0366685,43.0583365 10.5408301,43.5899978 11.1825,44.03 C11.8241699,44.4700022 12.6033287,44.8549984 13.52,45.185 C14.4366712,45.5150017 15.4449945,45.8449984 16.545,46.175 C17.7916729,46.5783354 19.08416,47.0366641 20.4225,47.55 C21.76084,48.0633359 22.9891611,48.7416625 24.1075,49.585 C25.2258389,50.4283376 26.1424964,51.4916603 26.8575,52.775 C27.5725036,54.0583398 27.93,55.6533238 27.93,57.56 C27.93,59.6500105 27.5450039,61.4741589 26.775,63.0325 C26.0049962,64.5908411 24.9783398,65.8833282 23.695,66.91 C22.4116602,67.9366718 20.908342,68.7066641 19.185,69.22 C17.4616581,69.7333359 15.6466762,69.99 13.74,69.99 C11.2099874,69.99 8.7350121,69.5225047 6.315,68.5875 C3.8949879,67.6524953 1.9150077,66.2683425 0.375,64.435 L5.325,59.815 C6.2783381,61.1350066 7.55249202,62.1799962 9.1475,62.95 C10.742508,63.7200039 12.3099923,64.105 13.85,64.105 C14.6566707,64.105 15.4816625,64.0041677 16.325,63.8025 C17.1683376,63.6008323 17.9291633,63.2616691 18.6075,62.785 C19.2858367,62.308331 19.8358312,61.7125036 20.2575,60.9975 C20.6791688,60.2824964 20.89,59.3933387 20.89,58.33 C20.89,57.3033282 20.6516691,56.4508367 20.175,55.7725 C19.6983309,55.0941633 19.0566707,54.5075025 18.25,54.0125 C17.4433293,53.5174975 16.4900055,53.0866685 15.39,52.72 L11.925,51.565 C10.7516608,51.1983315 9.5783392,50.7583359 8.405,50.245 C7.2316608,49.7316641 6.17750467,49.0533376 5.2425,48.21 C4.30749532,47.3666625 3.5466696,46.3308395 2.96,45.1025 C2.3733304,43.8741605 2.08,42.3433425 2.08,40.51 C2.08,38.5299901 2.49249587,36.8250072 3.3175,35.395 C4.14250413,33.9649929 5.22415998,32.7825047 6.5625,31.8475 C7.90084003,30.9124953 9.42249147,30.2158356 11.1275,29.7575 C12.8325085,29.2991644 14.5649912,29.07 16.325,29.07 C18.3050099,29.07 20.3124898,29.4183299 22.3475,30.115 C24.3825102,30.8116702 26.1516592,31.8566597 27.655,33.25 L23.145,38.2 Z M37.86,30.06 L50.565,30.06 C52.8016778,30.06 54.8183243,30.2616647 56.615,30.665 C58.4116756,31.0683354 59.9516602,31.7283288 61.235,32.645 C62.5183397,33.5616713 63.5083298,34.7349929 64.205,36.165 C64.9016702,37.5950072 65.25,39.3183233 65.25,41.335 C65.25,43.4983442 64.8466707,45.313326 64.04,46.78 C63.2333293,48.246674 62.1425069,49.4291622 60.7675,50.3275 C59.3924931,51.2258378 57.7883425,51.8766647 55.955,52.28 C54.1216575,52.6833354 52.1783436,52.885 50.125,52.885 L44.79,52.885 L44.79,69 L37.86,69 L37.86,30.06 Z M49.63,47.055 C50.7666724,47.055 51.8483282,46.9725008 52.875,46.8075 C53.9016718,46.6424992 54.8183293,46.3491688 55.625,45.9275 C56.4316707,45.5058312 57.073331,44.928337 57.55,44.195 C58.0266691,43.461663 58.265,42.5083392 58.265,41.335 C58.265,40.1983277 58.0266691,39.2725036 57.55,38.5575 C57.073331,37.8424964 56.4408373,37.2833354 55.6525,36.88 C54.8641627,36.4766647 53.9658384,36.210834 52.9575,36.0825 C51.9491616,35.954166 50.9133387,35.89 49.85,35.89 L44.79,35.89 L44.79,47.055 L49.63,47.055 Z M83.32,30.06 L89.315,30.06 L106.09,69 L98.17,69 L94.54,60.09 L77.655,60.09 L74.135,69 L66.38,69 L83.32,30.06 Z M92.12,54.15 L86.125,38.31 L80.02,54.15 L92.12,54.15 Z M112.94,30.06 L126.47,30.06 C128.303343,30.06 130.081658,30.2524981 131.805,30.6375 C133.528342,31.0225019 135.05916,31.6549956 136.3975,32.535 C137.73584,33.4150044 138.808329,34.5699929 139.615,36 C140.421671,37.4300072 140.825,39.1716564 140.825,41.225 C140.825,44.0483475 140.027508,46.3491578 138.4325,48.1275 C136.837492,49.9058422 134.665014,51.1066636 131.915,51.73 L142.31,69 L133.95,69 L124.93,52.5 L119.87,52.5 L119.87,69 L112.94,69 L112.94,30.06 Z M125.535,46.835 C126.525005,46.835 127.514995,46.7616674 128.505,46.615 C129.495005,46.4683326 130.384163,46.1933354 131.1725,45.79 C131.960837,45.3866647 132.611664,44.8091704 133.125,44.0575 C133.638336,43.3058296 133.895,42.3433392 133.895,41.17 C133.895,40.1066614 133.656669,39.2358367 133.18,38.5575 C132.703331,37.8791633 132.098337,37.3383354 131.365,36.935 C130.631663,36.5316647 129.797505,36.2566674 128.8625,36.11 C127.927495,35.9633326 127.020004,35.89 126.14,35.89 L119.87,35.89 L119.87,46.835 L125.535,46.835 Z M150.535,30.06 L164.065,30.06 C165.898342,30.06 167.676658,30.2524981 169.4,30.6375 C171.123342,31.0225019 172.65416,31.6549956 173.9925,32.535 C175.33084,33.4150044 176.403329,34.5699929 177.21,36 C178.016671,37.4300072 178.42,39.1716564 178.42,41.225 C178.42,44.0483475 177.622508,46.3491578 176.0275,48.1275 C174.432492,49.9058422 172.260014,51.1066636 169.51,51.73 L179.905,69 L171.545,69 L162.525,52.5 L157.465,52.5 L157.465,69 L150.535,69 L150.535,30.06 Z M163.13,46.835 C164.120005,46.835 165.109995,46.7616674 166.1,46.615 C167.090005,46.4683326 167.979163,46.1933354 168.7675,45.79 C169.555837,45.3866647 170.206664,44.8091704 170.72,44.0575 C171.233336,43.3058296 171.49,42.3433392 171.49,41.17 C171.49,40.1066614 171.251669,39.2358367 170.775,38.5575 C170.298331,37.8791633 169.693337,37.3383354 168.96,36.935 C168.226663,36.5316647 167.392505,36.2566674 166.4575,36.11 C165.522495,35.9633326 164.615004,35.89 163.735,35.89 L157.465,35.89 L157.465,46.835 L163.13,46.835 Z M186.26,49.42 C186.26,46.3033178 186.782495,43.4891792 187.8275,40.9775 C188.872505,38.4658208 190.320824,36.3300088 192.1725,34.57 C194.024176,32.8099912 196.224154,31.4533381 198.7725,30.5 C201.320846,29.5466619 204.098318,29.07 207.105,29.07 C210.148349,29.07 212.953321,29.5466619 215.52,30.5 C218.08668,31.4533381 220.304991,32.8099912 222.175,34.57 C224.045009,36.3300088 225.502495,38.4658208 226.5475,40.9775 C227.592505,43.4891792 228.115,46.3033178 228.115,49.42 C228.115,52.4633486 227.592505,55.2408208 226.5475,57.7525 C225.502495,60.2641792 224.045009,62.4274909 222.175,64.2425 C220.304991,66.0575091 218.08668,67.4691616 215.52,68.4775 C212.953321,69.4858384 210.148349,69.99 207.105,69.99 C204.098318,69.99 201.320846,69.4858384 198.7725,68.4775 C196.224154,67.4691616 194.024176,66.0575091 192.1725,64.2425 C190.320824,62.4274909 188.872505,60.2641792 187.8275,57.7525 C186.782495,55.2408208 186.26,52.4633486 186.26,49.42 Z M193.795,49.42 C193.795,51.5100105 194.11583,53.4258246 194.7575,55.1675 C195.39917,56.9091754 196.315827,58.4216603 197.5075,59.705 C198.699173,60.9883398 200.110825,61.9874964 201.7425,62.7025 C203.374175,63.4175036 205.17999,63.775 207.16,63.775 C209.14001,63.775 210.954992,63.4175036 212.605,62.7025 C214.255008,61.9874964 215.675827,60.9883398 216.8675,59.705 C218.059173,58.4216603 218.97583,56.9091754 219.6175,55.1675 C220.25917,53.4258246 220.58,51.5100105 220.58,49.42 C220.58,47.4033233 220.25917,45.533342 219.6175,43.81 C218.97583,42.0866581 218.068339,40.5833398 216.895,39.3 C215.721661,38.0166603 214.310008,37.008337 212.66,36.275 C211.009992,35.541663 209.176677,35.175 207.16,35.175 C205.143323,35.175 203.319175,35.541663 201.6875,36.275 C200.055825,37.008337 198.653339,38.0166603 197.48,39.3 C196.306661,40.5833398 195.39917,42.0866581 194.7575,43.81 C194.11583,45.533342 193.795,47.4033233 193.795,49.42 Z M233.865,30.06 L241.455,30.06 L248.99,58.66 L249.1,58.66 L257.68,30.06 L264.83,30.06 L273.245,58.66 L273.355,58.66 L281.055,30.06 L288.425,30.06 L277.04,69 L270.33,69 L261.2,39.795 L261.09,39.795 L251.96,69 L245.25,69 L233.865,30.06 Z" id="SPARROW" fill="#029EE0"></path>
                </g>
                <g id="wings">
                    <path d="M18.192275,3.22350586 L16.0706042,0.921611328 L16.0706042,78.6642676 L18.285399,75.5897559 C19.8612857,73.4021582 21.5180773,71.93875 23.12229,70.521543 C27.0531202,67.056084 30.4481637,64.0632129 30.4481637,51.3814551 C30.4481637,43.4951563 28.4857108,31.0796582 25.564433,20.4873438 C23.2120814,11.9605371 20.5938731,5.82951172 18.192275,3.22350586" id="Fill-1" fill="#029EE1"></path>
                    <path d="M2.43377821,36.9050879 C2.08812731,39.0902734 1.8048676,41.1975293 1.59214511,43.1678516 L1.52919851,43.7510254 L6.66453045,48.8999512 C6.73877042,48.9741699 6.75413679,49.0584082 6.75413679,49.1161133 C6.75413679,49.1617578 6.74450967,49.2241016 6.7032241,49.2851465 L5.60110315,50.0217676 L9.48361256,54.0774512 L10.3233943,52.9717773 C10.3941167,52.9090625 10.4718742,52.8955176 10.5261194,52.8955176 C10.5840673,52.8955176 10.6686749,52.9111035 10.7418041,52.9838379 L15.4589114,57.7119434 L15.4589114,47.2066504 L2.80942132,34.5293457 L2.43377821,36.9050879" id="Fill-2" fill="#029EE1"></path>
                    <path d="M10.3102496,53.4180176 C10.1975011,53.3050195 10.1915767,53.122627 10.2967346,53.0020215 L6.64860867,49.3445215 C6.58140391,49.4089062 6.5029058,49.4226367 6.44903091,49.4226367 C6.39163842,49.4226367 6.3081416,49.4076074 6.23316109,49.3319043 L1.41293243,44.5043457 L1.23334948,47.1979297 C1.13282005,48.705127 1.08190735,50.1130566 1.08190735,51.3820117 C1.08190735,64.063584 4.47676574,67.0564551 8.41000272,70.5239551 C10.0121789,71.9391211 11.6686002,73.4023437 13.2446721,75.5899414 L15.4589114,78.6642676 L15.4589114,58.5803027 L10.3102496,53.4180176" id="Fill-3" fill="#87D3F6"></path>
                    <path d="M15.4589114,0.921611328 L13.3372406,3.22369141 C10.9358277,5.82969727 8.31761932,11.9607227 5.96489748,20.4882715 C4.87240365,24.4554492 3.87266349,28.8430762 3.0730565,33.1765234 L2.95604988,33.8103516 L15.4589114,46.3381055 L15.4589114,0.921611328" id="Fill-4" fill="#87D3F6"></path>
                    <path d="M14.9890672,43.3791895 L14.9890672,4.0553125 C13.2848805,5.90428711 10.6999968,10.6542871 7.8972067,20.8142773 C6.78212615,24.8634668 5.80774977,29.1783594 5.02906327,33.3991797 L14.9890672,43.3791895 Z M29.9781343,51.3816406 C29.9781343,43.5957227 28.0334546,31.3112207 25.1388366,20.8142773 C22.3358614,10.6542871 19.7509777,5.90428711 18.046791,4.0553125 L18.046791,74.8722461 C19.704138,72.5718359 21.4531278,71.0273438 23.0677082,69.6012305 C26.9285566,66.1975586 29.9781343,63.5089844 29.9781343,51.3816406 Z M28.0843673,19.9989844 C31.0463752,30.7350977 33.0358581,43.3465332 33.0358581,51.3816406 C33.0358581,64.8942773 29.1750097,68.2998047 25.0877387,71.9036816 C22.6435592,74.0571387 20.1199558,76.2861133 18.046791,81.1157129 L18.046791,93.4677539 C18.046791,94.3134766 17.3619689,95 16.5179291,95 C15.6740743,95 14.9890672,94.3134766 14.9890672,93.4677539 L14.9890672,81.1157129 C12.9159023,76.2861133 10.3922989,74.0571387 7.9481194,71.9036816 C3.86084838,68.2998047 0,64.8942773 0,51.3816406 C0,49.1508105 0.154959725,46.5663281 0.438219436,43.7673535 C0.442292452,43.7326562 0.444328959,43.697959 0.448401975,43.6632617 C0.77054047,40.5455176 1.25374821,37.1644824 1.86932896,33.7075586 C1.87543848,33.6667383 1.88154801,33.623877 1.89173054,33.5830566 C2.70503768,29.0332617 3.74680395,24.3608203 4.95149084,19.9989844 C8.56166364,6.90327148 12.4001104,0.183876953 16.3588963,0.0081640625 C16.4120307,0.00204101562 16.4649799,0 16.5179291,0 C16.5708783,0 16.6240126,0.00204101562 16.6769618,0.0081640625 C20.6357477,0.183876953 24.4741945,6.90327148 28.0843673,19.9989844 Z M10.1294043,52.1948926 C10.1497694,52.1683594 10.1742075,52.1416406 10.1986456,52.1171484 C10.7958978,51.5206152 11.7621281,51.5206152 12.3593803,52.1171484 L14.9890672,54.7526562 L14.9890672,47.7144922 L4.39496882,37.0969434 C4.05653826,39.2361133 3.77531506,41.3177637 3.56129661,43.2995898 L8.28247694,48.0332617 C8.87972912,48.6318359 8.87972912,49.6002051 8.28247694,50.1987793 C8.2722944,50.2089844 8.26007535,50.2212305 8.24767117,50.2293945 C7.95626543,50.5093848 7.57914122,50.6483594 7.20201702,50.6483594 C6.81063726,50.6483594 6.4192575,50.4991797 6.1215571,50.1987793 L3.20657399,47.2793848 C3.10863648,48.7463184 3.05772379,50.1232617 3.05772379,51.3816406 C3.05772379,63.5089844 6.10730155,66.1975586 9.96833507,69.6012305 C11.5827303,71.0273438 13.3317202,72.5718359 14.9890672,74.8722461 L14.9890672,59.087959 L10.1986456,54.2848926 C9.62583149,53.7108105 9.60342991,52.7975488 10.1294043,52.1948926 L10.1294043,52.1948926 Z" id="Fill-5" fill="#14171A"></path>
                </g>
            </g>
        </g>
    </g>
</svg>