<?xml version="1.0" encoding="UTF-8"?>
<svg width="1600px" height="80px" viewBox="0 0 1600 80" version="1.1" xmlns="http://www.w3.org/2000/svg" xmlns:xlink="http://www.w3.org/1999/xlink">
    <!-- Generator: Sketch 52.3 (67297) - http://www.bohemiancoding.com/sketch -->
    <title>request-permission - donate</title>
    <desc>Created with Sketch.</desc>
    <g id="request-permission---donate" stroke="none" stroke-width="1" fill="none" fill-rule="evenodd">
        <rect fill="#FFFFFF" x="0" y="0" width="1600" height="80"></rect>
        <g id="Group" transform="translate(0.000000, 18.000000)">
            <path d="M1600,22.5 L0,22.5" id="Line-4" stroke="#007AFF" stroke-width="3" stroke-linecap="square" fill-rule="nonzero"></path>
            <rect id="Rectangle" fill="#FFFFFF" fill-rule="nonzero" x="722" y="0" width="157" height="45"></rect>
            <path d="M752,13.4271589 L758.739618,13.4271589 C763.829927,13.4271589 766.772577,16.5121951 766.772577,21.875412 C766.772577,27.4403428 763.865524,30.5609756 758.739618,30.5609756 L752,30.5609756 L752,13.4271589 Z M755.583388,16.4884641 L755.583388,27.4996704 L758.170073,27.4996704 C761.338167,27.4996704 763.117996,25.5537245 763.117996,21.9347396 C763.117996,18.4700066 761.27884,16.4884641 758.170073,16.4884641 L755.583388,16.4884641 Z M776.821253,13 C781.875966,13 785.044061,16.4528675 785.044061,21.9940672 C785.044061,27.5471325 781.887831,31 776.821253,31 C771.742808,31 768.574713,27.5471325 768.574713,21.9940672 C768.574713,16.441002 771.79027,13 776.821253,13 Z M776.821253,16.1443639 C774.04472,16.1443639 772.24116,18.410679 772.24116,21.9940672 C772.24116,25.56559 774.009123,27.8556361 776.821253,27.8556361 C779.609651,27.8556361 781.389479,25.56559 781.389479,21.9940672 C781.389479,18.410679 779.609651,16.1443639 776.821253,16.1443639 Z M791.046592,30.5609756 L787.617456,30.5609756 L787.617456,13.4390244 L790.607568,13.4390244 L798.486276,24.1061305 L798.699855,24.1061305 L798.699855,13.4390244 L802.128992,13.4390244 L802.128992,30.5609756 L799.162611,30.5609756 L791.260172,19.8464074 L791.046592,19.8464074 L791.046592,30.5609756 Z M816.461121,30.5609756 L815.167779,26.4792353 L809.151958,26.4792353 L807.834885,30.5609756 L804.239631,30.5609756 L810.184259,13.4390244 L814.39652,13.4390244 L820.341147,30.5609756 L816.461121,30.5609756 Z M812.070877,16.9986816 L809.923217,23.7145682 L814.408385,23.7145682 L812.284456,16.9986816 L812.070877,16.9986816 Z M828.337087,30.5609756 L824.753698,30.5609756 L824.753698,16.5003296 L819.615926,16.5003296 L819.615926,13.4390244 L833.474859,13.4390244 L833.474859,16.5003296 L828.337087,16.5003296 L828.337087,30.5609756 Z M847.166249,27.4996704 L847.166249,30.5609756 L835.822808,30.5609756 L835.822808,13.4390244 L847.166249,13.4390244 L847.166249,16.5003296 L839.406197,16.5003296 L839.406197,20.4990112 L846.727225,20.4990112 L846.727225,23.3348715 L839.406197,23.3348715 L839.406197,27.4996704 L847.166249,27.4996704 Z" id="DONATE" fill="#007AFF"></path>
        </g>
    </g>
</svg>