<?xml version="1.0" encoding="UTF-8"?>
<svg width="1600px" height="80px" viewBox="0 0 1600 80" version="1.1" xmlns="http://www.w3.org/2000/svg" xmlns:xlink="http://www.w3.org/1999/xlink">
    <!-- Generator: Sketch 52.3 (67297) - http://www.bohemiancoding.com/sketch -->
    <title>request-permission - donate</title>
    <desc>Created with Sketch.</desc>
    <g id="request-permission---donate" stroke="none" stroke-width="1" fill="none" fill-rule="evenodd">
        <rect fill="#FFFFFF" x="0" y="0" width="1600" height="80"></rect>
        <g id="Group" transform="translate(0.000000, 20.000000)">
            <path d="M1600,20.5 L0,20.5" id="Line-3" stroke="#007AFF" stroke-width="3" stroke-linecap="square" fill-rule="nonzero"></path>
            <rect id="Rectangle" fill="#FFFFFF" fill-rule="nonzero" x="739" y="0" width="129" height="41"></rect>
            <path d="M752,11.4271589 L758.739618,11.4271589 C763.829927,11.4271589 766.772577,14.5121951 766.772577,19.875412 C766.772577,25.4403428 763.865524,28.5609756 758.739618,28.5609756 L752,28.5609756 L752,11.4271589 Z M755.583388,14.4884641 L755.583388,25.4996704 L758.170073,25.4996704 C761.338167,25.4996704 763.117996,23.5537245 763.117996,19.9347396 C763.117996,16.4700066 761.27884,14.4884641 758.170073,14.4884641 L755.583388,14.4884641 Z M776.821253,11 C781.875966,11 785.044061,14.4528675 785.044061,19.9940672 C785.044061,25.5471325 781.887831,29 776.821253,29 C771.742808,29 768.574713,25.5471325 768.574713,19.9940672 C768.574713,14.441002 771.79027,11 776.821253,11 Z M776.821253,14.1443639 C774.04472,14.1443639 772.24116,16.410679 772.24116,19.9940672 C772.24116,23.56559 774.009123,25.8556361 776.821253,25.8556361 C779.609651,25.8556361 781.389479,23.56559 781.389479,19.9940672 C781.389479,16.410679 779.609651,14.1443639 776.821253,14.1443639 Z M791.046592,28.5609756 L787.617456,28.5609756 L787.617456,11.4390244 L790.607568,11.4390244 L798.486276,22.1061305 L798.699855,22.1061305 L798.699855,11.4390244 L802.128992,11.4390244 L802.128992,28.5609756 L799.162611,28.5609756 L791.260172,17.8464074 L791.046592,17.8464074 L791.046592,28.5609756 Z M816.461121,28.5609756 L815.167779,24.4792353 L809.151958,24.4792353 L807.834885,28.5609756 L804.239631,28.5609756 L810.184259,11.4390244 L814.39652,11.4390244 L820.341147,28.5609756 L816.461121,28.5609756 Z M812.070877,14.9986816 L809.923217,21.7145682 L814.408385,21.7145682 L812.284456,14.9986816 L812.070877,14.9986816 Z M828.337087,28.5609756 L824.753698,28.5609756 L824.753698,14.5003296 L819.615926,14.5003296 L819.615926,11.4390244 L833.474859,11.4390244 L833.474859,14.5003296 L828.337087,14.5003296 L828.337087,28.5609756 Z M847.166249,25.4996704 L847.166249,28.5609756 L835.822808,28.5609756 L835.822808,11.4390244 L847.166249,11.4390244 L847.166249,14.5003296 L839.406197,14.5003296 L839.406197,18.4990112 L846.727225,18.4990112 L846.727225,21.3348715 L839.406197,21.3348715 L839.406197,25.4996704 L847.166249,25.4996704 Z" id="DONATE" fill="#007AFF"></path>
        </g>
    </g>
</svg>