<?xml version="1.0" encoding="UTF-8"?>
<svg width="1600px" height="300px" viewBox="0 0 1600 300" version="1.1" xmlns="http://www.w3.org/2000/svg" xmlns:xlink="http://www.w3.org/1999/xlink">
    <!-- Generator: Sketch 52.3 (67297) - http://www.bohemiancoding.com/sketch -->
    <title>request-permission - baner</title>
    <desc>Created with Sketch.</desc>
    <defs>
        <path d="M220.867257,57.9296702 L220.867257,74.9208207 L230.113405,74.9208207 C235.865618,74.9208207 239.274336,71.7508299 239.274336,66.467512 C239.274336,61.2687271 235.652573,57.9296702 230.070796,57.9296702 L220.867257,57.9296702 Z M221.384257,85.719366 L221.384257,106.779228 L206,106.779228 L206,46.6022366 L232.618537,46.6022366 C246.745226,46.6022366 255.212855,54.0253166 255.212855,66.4527202 C255.212855,73.8340974 251.523987,80.5899343 244.900792,83.4674204 L256.973451,106.779228 L239.702841,106.779228 L229.348859,85.719366 L221.384257,85.719366 Z M281.920442,69.9650684 C277.041794,69.9650684 273.635153,73.289424 273.256637,78.4606437 L290.247788,78.4606437 C289.995444,73.1252583 286.883203,69.9650684 281.920442,69.9650684 Z M291.271981,93.3516004 L304.821404,93.3516004 C303.185405,102.450617 294.627875,108.195157 282.546656,108.195157 C267.654875,108.195157 259.097345,99.3896573 259.097345,84.0848603 C259.097345,68.6962014 267.864619,59.3455994 282.336912,59.3455994 C296.725309,59.3455994 305.115044,68.0672372 305.115044,82.9527246 L305.115044,87.0619578 L273.695485,87.0619578 L273.695485,87.8167149 C273.821331,93.8967028 277.303071,97.6704883 282.966143,97.6704883 C287.286856,97.6704883 290.265212,96.0771122 291.271981,93.3516004 Z M327.633764,59.3455994 C333.946036,59.3455994 339.164181,62.5479814 341.478681,67.5802958 L342.278235,67.5802958 L342.278235,60.0526188 L356.79646,60.0526188 L356.79646,121.646484 L341.857417,121.646484 L341.857417,99.2298108 L341.057862,99.2298108 C338.785445,104.095768 333.903954,107.048613 327.255028,107.048613 C315.556284,107.048613 308.654867,97.9821295 308.654867,83.093133 C308.654867,68.370494 315.850857,59.3455994 327.633764,59.3455994 Z M333.017761,96.1597587 C338.546156,96.1597587 341.929204,91.5478066 341.929204,83.7913416 C341.929204,76.1187303 338.504899,71.3809976 333.017761,71.3809976 C327.530623,71.3809976 324.230088,76.0768035 324.230088,83.7494148 C324.230088,91.5058797 327.489366,96.1597587 333.017761,96.1597587 Z M409.893805,60.053564 L409.893805,106.404423 L395.38119,106.404423 L395.38119,98.9083272 L394.579621,98.9083272 C392.385854,104.363819 388.335822,107.487192 381.248266,107.487192 C371.291937,107.487192 364.584071,101.032221 364.584071,90.329462 L364.584071,60.053564 L379.476376,60.053564 L379.476376,86.706349 C379.476376,92.3700658 382.302961,95.3685042 387.112375,95.3685042 C392.217103,95.3685042 394.959312,91.9536161 394.959312,86.5397691 L394.959312,60.053564 L409.893805,60.053564 Z M439.088583,69.9650684 C434.209936,69.9650684 430.803294,73.289424 430.424779,78.4606437 L447.415929,78.4606437 C447.163585,73.1252583 444.051345,69.9650684 439.088583,69.9650684 Z M447.732158,93.3516004 L461.28158,93.3516004 C459.645582,102.450617 451.088052,108.195157 439.006833,108.195157 C424.115052,108.195157 415.557522,99.3896573 415.557522,84.0848603 C415.557522,68.6962014 424.324796,59.3455994 438.797089,59.3455994 C453.185486,59.3455994 461.575221,68.0672372 461.575221,82.9527246 L461.575221,87.0619578 L430.155662,87.0619578 L430.155662,87.8167149 C430.281508,93.8967028 433.763248,97.6704883 439.42632,97.6704883 C443.747033,97.6704883 446.725389,96.0771122 447.732158,93.3516004 Z M466.949596,74.4826726 C466.949596,65.2159325 474.835706,59.3455994 487.353341,59.3455994 C500.20478,59.3455994 507.256381,64.3353825 507.798812,73.7279155 L494.363217,73.7279155 C493.945962,71.0024037 491.484161,69.3670966 487.478517,69.3670966 C483.639776,69.3670966 480.969347,71.0443347 480.969347,73.5601917 C480.969347,75.5309464 482.638365,76.705013 486.310205,77.5017011 L495.907058,79.4724557 C505.044932,81.4012795 509.00885,85.216996 509.00885,92.3033266 C509.00885,101.989376 500.538583,108.195157 487.561968,108.195157 C474.25155,108.195157 466.657518,103.121512 465.823009,93.728979 L480.051387,93.728979 C480.802445,96.6222146 483.431149,98.1736597 487.770596,98.1736597 C491.817964,98.1736597 494.446668,96.5383527 494.446668,94.0224956 C494.446668,92.0517409 493.069728,91.0034672 489.356163,90.2067791 L480.718994,88.3618173 C471.49767,86.3910626 466.949596,81.820589 466.949596,74.4826726 Z M518.961999,49.434095 L533.662676,49.434095 L533.662676,60.7356905 L542.99115,60.7356905 L542.99115,71.7442817 L533.662676,71.7442817 L533.662676,90.6221319 C533.662676,94.1381839 535.45341,95.8543521 539.284748,95.8543521 C540.992192,95.8543521 541.908381,95.7706366 542.99115,95.6450633 L542.99115,106.193219 C541.450286,106.528081 538.743363,106.779228 535.953149,106.779228 C523.751171,106.779228 518.961999,103.053887 518.961999,93.9288951 L518.961999,71.7442817 L511.840708,71.7442817 L511.840708,60.7356905 L518.961999,60.7356905 L518.961999,49.434095 Z M569.185841,46.6022366 L595.596853,46.6022366 C608.551622,46.6022366 617.327434,55.0261813 617.327434,67.9540172 C617.327434,80.7567451 608.091937,89.1389871 594.677483,89.1389871 L584.522616,89.1389871 L584.522616,106.779228 L569.185841,106.779228 L569.185841,46.6022366 Z M584.761062,58.6376348 L584.761062,77.7526791 L591.857809,77.7526791 C598.52704,77.7526791 602.460177,74.4355347 602.460177,68.2158891 C602.460177,61.9133149 598.569792,58.6376348 591.943312,58.6376348 L584.761062,58.6376348 Z M644.398318,69.9650684 C639.519671,69.9650684 636.113029,73.289424 635.734513,78.4606437 L652.725664,78.4606437 C652.47332,73.1252583 649.361079,69.9650684 644.398318,69.9650684 Z M653.041892,93.3516004 L666.591315,93.3516004 C664.955317,102.450617 656.397786,108.195157 644.316567,108.195157 C629.424787,108.195157 620.867257,99.3896573 620.867257,84.0848603 C620.867257,68.6962014 629.63453,59.3455994 644.106824,59.3455994 C658.49522,59.3455994 666.884956,68.0672372 666.884956,82.9527246 L666.884956,87.0619578 L635.465396,87.0619578 L635.465396,87.8167149 C635.591242,93.8967028 639.072983,97.6704883 644.736054,97.6704883 C649.056768,97.6704883 652.035124,96.0771122 653.041892,93.3516004 Z M673.256637,106.779228 L673.256637,60.7565165 L687.582509,60.7565165 L687.582509,68.323593 L688.373764,68.323593 C689.498178,63.6923768 693.995836,60.053564 699.784487,60.053564 C701.741801,60.053564 704.032275,60.3016649 705.115044,60.7565165 L705.115044,73.2029101 C703.99063,72.7480585 701.033837,72.3759072 698.785008,72.3759072 C692.288391,72.3759072 687.957314,76.0147199 687.957314,82.4239924 L687.957314,106.779228 L673.256637,106.779228 Z M710.070796,106.779228 L710.070796,60.4283688 L724.447409,60.4283688 L724.447409,68.0910445 L725.241466,68.0910445 C727.038543,62.7188425 731.970056,59.3455994 738.071758,59.3455994 C744.716762,59.3455994 749.23035,62.5106176 750.985634,68.0910445 L751.779691,68.0910445 C753.702145,62.8021325 759.135167,59.3455994 765.696587,59.3455994 C774.84914,59.3455994 780.867257,65.5923459 780.867257,75.0874006 L780.867257,106.779228 L766.114511,106.779228 L766.114511,78.8354485 C766.114511,73.8380513 763.857718,71.3809976 759.385922,71.3809976 C755.164882,71.3809976 752.531956,74.4210809 752.531956,78.9603834 L752.531956,106.779228 L738.406098,106.779228 L738.406098,78.5855786 C738.406098,73.9213412 736.023926,71.3809976 731.761093,71.3809976 C727.623638,71.3809976 724.823542,74.5460159 724.823542,79.2102532 L724.823542,106.779228 L710.070796,106.779228 Z M789.362832,106.779228 L789.362832,60.7615286 L804.230088,60.7615286 L804.230088,106.779228 L789.362832,106.779228 Z M796.421186,55.0978118 C791.140728,55.0978118 787.946903,52.4075463 787.946903,48.3934994 C787.946903,44.3367499 791.140728,41.6464844 796.421186,41.6464844 C801.744228,41.6464844 804.938053,44.3367499 804.938053,48.3934994 C804.938053,52.4075463 801.744228,55.0978118 796.421186,55.0978118 Z M811.728357,74.4826726 C811.728357,65.2159325 819.614467,59.3455994 832.132102,59.3455994 C844.983541,59.3455994 852.035142,64.3353825 852.577573,73.7279155 L839.141978,73.7279155 C838.724723,71.0024037 836.262922,69.3670966 832.257278,69.3670966 C828.418537,69.3670966 825.748108,71.0443347 825.748108,73.5601917 C825.748108,75.5309464 827.417126,76.705013 831.088966,77.5017011 L840.685819,79.4724557 C849.823693,81.4012795 853.787611,85.216996 853.787611,92.3033266 C853.787611,101.989376 845.317344,108.195157 832.340729,108.195157 C819.030311,108.195157 811.436279,103.121512 810.60177,93.728979 L824.830148,93.728979 C825.581206,96.6222146 828.20991,98.1736597 832.549357,98.1736597 C836.596725,98.1736597 839.225429,96.5383527 839.225429,94.0224956 C839.225429,92.0517409 837.848489,91.0034672 834.134924,90.2067791 L825.497756,88.3618173 C816.276431,86.3910626 811.728357,81.820589 811.728357,74.4826726 Z M858.454021,74.4826726 C858.454021,65.2159325 866.340131,59.3455994 878.857766,59.3455994 C891.709204,59.3455994 898.760805,64.3353825 899.303236,73.7279155 L885.867641,73.7279155 C885.450387,71.0024037 882.988585,69.3670966 878.982942,69.3670966 C875.144201,69.3670966 872.473772,71.0443347 872.473772,73.5601917 C872.473772,75.5309464 874.14279,76.705013 877.81463,77.5017011 L887.411483,79.4724557 C896.549357,81.4012795 900.513274,85.216996 900.513274,92.3033266 C900.513274,101.989376 892.043008,108.195157 879.066393,108.195157 C865.755975,108.195157 858.161943,103.121512 857.327434,93.728979 L871.555812,93.728979 C872.30687,96.6222146 874.935574,98.1736597 879.27502,98.1736597 C883.322389,98.1736597 885.951092,96.5383527 885.951092,94.0224956 C885.951092,92.0517409 884.574152,91.0034672 880.860587,90.2067791 L872.223419,88.3618173 C863.002095,86.3910626 858.454021,81.820589 858.454021,74.4826726 Z M906.884956,106.779228 L906.884956,60.7615286 L921.752212,60.7615286 L921.752212,106.779228 L906.884956,106.779228 Z M913.94331,55.0978118 C908.662852,55.0978118 905.469027,52.4075463 905.469027,48.3934994 C905.469027,44.3367499 908.662852,41.6464844 913.94331,41.6464844 C919.266352,41.6464844 922.460177,44.3367499 922.460177,48.3934994 C922.460177,52.4075463 919.266352,55.0978118 913.94331,55.0978118 Z M951.132743,108.195157 C936.241763,108.195157 927.415929,99.0961406 927.415929,83.7494127 C927.415929,68.6542705 936.492735,59.3455994 951.132743,59.3455994 C965.856409,59.3455994 974.849558,68.5704086 974.849558,83.7494127 C974.849558,99.1380716 966.065552,108.195157 951.132743,108.195157 Z M951.486726,96.8677233 C956.900573,96.8677233 959.982301,92.0479003 959.982301,83.7494224 C959.982301,75.6185906 956.817283,70.673033 951.486726,70.673033 C946.156169,70.673033 942.99115,75.6185906 942.99115,83.7494224 C942.99115,92.0898118 946.072879,96.8677233 951.486726,96.8677233 Z M981.221239,106.779228 L981.221239,60.4283688 L995.614305,60.4283688 L995.614305,67.9661096 L996.409271,67.9661096 C998.459446,62.7188425 1003.31292,59.3455994 1010.04921,59.3455994 C1020.42561,59.3455994 1025.82301,65.7172808 1025.82301,76.8364896 L1025.82301,106.779228 L1011.01154,106.779228 L1011.01154,80.1264427 C1011.01154,74.5043709 1008.71032,71.3809976 1003.68949,71.3809976 C998.87785,71.3809976 995.990868,74.9624656 995.990868,80.2930226 L995.990868,106.779228 L981.221239,106.779228 Z M207.640625,22.9042969 L211.332031,22.9042969 C211.566406,24.7939453 213.441406,26.0097656 216.12207,26.0097656 C218.612305,26.0097656 220.414062,24.7353516 220.414062,22.9628906 C220.414062,21.4394531 219.256836,20.5458984 216.546875,19.9160156 L213.807617,19.2861328 C209.969727,18.421875 208.167969,16.5175781 208.167969,13.3681641 C208.167969,9.53027344 211.302734,6.98144531 216.03418,6.98144531 C220.472656,6.98144531 223.680664,9.53027344 223.856445,13.1630859 L220.238281,13.1630859 C219.974609,11.3027344 218.333984,10.1308594 216.019531,10.1308594 C213.587891,10.1308594 211.976562,11.3027344 211.976562,13.1044922 C211.976562,14.5253906 213.045898,15.3603516 215.667969,15.9609375 L218.099609,16.5175781 C222.391602,17.484375 224.193359,19.2714844 224.193359,22.4941406 C224.193359,26.6103516 221.014648,29.1738281 215.887695,29.1738281 C211.039062,29.1738281 207.831055,26.7421875 207.640625,22.9042969 Z M227.034492,28.6464844 L227.034492,12.6210938 L230.652656,12.6210938 L230.652656,28.6464844 L227.034492,28.6464844 Z M228.83625,10.0136719 C227.51789,10.0136719 226.595039,9.1640625 226.595039,8.00683594 C226.595039,6.84960938 227.51789,6 228.83625,6 C230.169258,6 231.077461,6.84960938 231.077461,8.00683594 C231.077461,9.1640625 230.169258,10.0136719 228.83625,10.0136719 Z M234.079726,28.6464844 L234.079726,12.6210938 L237.580703,12.6210938 L237.580703,15.2138672 L237.829726,15.2138672 C238.518203,13.3828125 240.158828,12.2988281 242.282851,12.2988281 C244.494765,12.2988281 246.032851,13.4121094 246.706679,15.2138672 L246.955703,15.2138672 C247.746718,13.4560547 249.592422,12.2988281 251.818984,12.2988281 C255.026992,12.2988281 256.960586,14.3056641 256.960586,17.6308594 L256.960586,28.6464844 L253.342422,28.6464844 L253.342422,18.5537109 C253.342422,16.4882812 252.360976,15.4628906 250.412734,15.4628906 C248.523086,15.4628906 247.277968,16.8398438 247.277968,18.6708984 L247.277968,28.6464844 L243.747695,28.6464844 L243.747695,18.2900391 C243.747695,16.5322266 242.634414,15.4628906 240.847304,15.4628906 C239.045547,15.4628906 237.712539,16.9423828 237.712539,18.9052734 L237.712539,28.6464844 L234.079726,28.6464844 Z M268.927695,12.3574219 C272.985312,12.3574219 275.53414,15.4921875 275.53414,20.6337891 C275.53414,25.7460938 273.014609,28.9101562 268.97164,28.9101562 C266.671835,28.9101562 264.899374,27.9140625 264.079062,26.2148438 L263.830039,26.2148438 L263.830039,33.9785156 L260.197226,33.9785156 L260.197226,12.6210938 L263.698203,12.6210938 L263.698203,15.2724609 L263.947226,15.2724609 C264.870078,13.4560547 266.730429,12.3574219 268.927695,12.3574219 Z M267.785117,25.8193359 C270.304648,25.8193359 271.798789,23.8710938 271.798789,20.6337891 C271.798789,17.3964844 270.289999,15.4482422 267.799765,15.4482422 C265.324179,15.4482422 263.771445,17.4404297 263.756796,20.6337891 C263.771445,23.8417969 265.309531,25.8193359 267.785117,25.8193359 Z M278.258085,28.6464844 L278.258085,6.42480469 L281.890898,6.42480469 L281.890898,28.6464844 L278.258085,28.6464844 Z M292.129491,15.1845703 C289.961523,15.1845703 288.438085,16.7373047 288.276952,19.0810547 L295.820898,19.0810547 C295.747655,16.7080078 294.312109,15.1845703 292.129491,15.1845703 Z M295.850194,24.2373047 L299.292577,24.2373047 C298.604101,27.1523438 295.952734,28.96875 292.173437,28.96875 C287.45664,28.96875 284.614843,25.8486328 284.614843,20.6923828 C284.614843,15.5361328 287.500585,12.2988281 292.14414,12.2988281 C296.714452,12.2988281 299.45371,15.3310547 299.45371,20.3847656 L299.45371,21.5566406 L288.262304,21.5566406 L288.262304,21.7470703 C288.350194,24.4130859 289.88828,26.0830078 292.275976,26.0830078 C294.077734,26.0830078 295.322851,25.4238281 295.850194,24.2373047 Z M317.689686,12.3574219 C321.747303,12.3574219 324.296132,15.4921875 324.296132,20.6337891 C324.296132,25.7460938 321.7766,28.9101562 317.733632,28.9101562 C315.433827,28.9101562 313.661366,27.9140625 312.841053,26.2148438 L312.59203,26.2148438 L312.59203,33.9785156 L308.959218,33.9785156 L308.959218,12.6210938 L312.460194,12.6210938 L312.460194,15.2724609 L312.709218,15.2724609 C313.632069,13.4560547 315.492421,12.3574219 317.689686,12.3574219 Z M316.547108,25.8193359 C319.066639,25.8193359 320.56078,23.8710938 320.56078,20.6337891 C320.56078,17.3964844 319.051991,15.4482422 316.561757,15.4482422 C314.086171,15.4482422 312.533436,17.4404297 312.518788,20.6337891 C312.533436,23.8417969 314.071522,25.8193359 316.547108,25.8193359 Z M333.597225,15.1845703 C331.429256,15.1845703 329.905819,16.7373047 329.744686,19.0810547 L337.288631,19.0810547 C337.215389,16.7080078 335.779842,15.1845703 333.597225,15.1845703 Z M337.317928,24.2373047 L340.760311,24.2373047 C340.071835,27.1523438 337.420467,28.96875 333.641171,28.96875 C328.924374,28.96875 326.082577,25.8486328 326.082577,20.6923828 C326.082577,15.5361328 328.968319,12.2988281 333.611874,12.2988281 C338.182186,12.2988281 340.921444,15.3310547 340.921444,20.3847656 L340.921444,21.5566406 L329.730038,21.5566406 L329.730038,21.7470703 C329.817928,24.4130859 331.356014,26.0830078 333.74371,26.0830078 C335.545467,26.0830078 336.790585,25.4238281 337.317928,24.2373047 Z M343.498905,28.6464844 L343.498905,12.6210938 L346.999881,12.6210938 L346.999881,15.1113281 L347.248905,15.1113281 C347.688358,13.5292969 349.416873,12.3574219 351.482303,12.3574219 C352.009647,12.3574219 352.654178,12.4160156 352.991092,12.5185547 L352.991092,15.8876953 C352.712772,15.7851562 351.745975,15.6826172 351.130741,15.6826172 C348.772342,15.6826172 347.131717,17.1474609 347.131717,19.3886719 L347.131717,28.6464844 L343.498905,28.6464844 Z M355.099803,28.6464844 L355.099803,12.6210938 L358.60078,12.6210938 L358.60078,15.2138672 L358.849803,15.2138672 C359.53828,13.3828125 361.178905,12.2988281 363.302928,12.2988281 C365.514842,12.2988281 367.052928,13.4121094 367.726756,15.2138672 L367.97578,15.2138672 C368.766795,13.4560547 370.612498,12.2988281 372.839061,12.2988281 C376.047069,12.2988281 377.980662,14.3056641 377.980662,17.6308594 L377.980662,28.6464844 L374.362498,28.6464844 L374.362498,18.5537109 C374.362498,16.4882812 373.381053,15.4628906 371.432811,15.4628906 C369.543162,15.4628906 368.298045,16.8398438 368.298045,18.6708984 L368.298045,28.6464844 L364.767772,28.6464844 L364.767772,18.2900391 C364.767772,16.5322266 363.65449,15.4628906 361.867381,15.4628906 C360.065623,15.4628906 358.732615,16.9423828 358.732615,18.9052734 L358.732615,28.6464844 L355.099803,28.6464844 Z M381.261248,28.6464844 L381.261248,12.6210938 L384.879412,12.6210938 L384.879412,28.6464844 L381.261248,28.6464844 Z M383.063006,10.0136719 C381.744647,10.0136719 380.821795,9.1640625 380.821795,8.00683594 C380.821795,6.84960938 381.744647,6 383.063006,6 C384.396014,6 385.304217,6.84960938 385.304217,8.00683594 C385.304217,9.1640625 384.396014,10.0136719 383.063006,10.0136719 Z M387.940271,17.2060547 C387.940271,14.3056641 390.57699,12.2988281 394.356287,12.2988281 C398.164881,12.2988281 400.552576,13.9833984 400.816248,16.8984375 L397.403162,16.8984375 C397.13949,15.7705078 396.070154,15.0527344 394.370935,15.0527344 C392.715662,15.0527344 391.470545,15.84375 391.470545,17.0009766 C391.470545,17.9091797 392.232264,18.4658203 393.843592,18.8320312 L396.67074,19.4765625 C399.732264,20.1650391 401.153162,21.4833984 401.153162,23.8417969 C401.153162,26.9179688 398.326014,28.96875 394.32699,28.96875 C390.327967,28.96875 387.808435,27.2402344 387.530115,24.3251953 L391.118982,24.3251953 C391.470545,25.5117188 392.598475,26.2148438 394.414881,26.2148438 C396.245935,26.2148438 397.52035,25.4091797 397.52035,24.2226562 C397.52035,23.3144531 396.831873,22.7431641 395.308435,22.40625 L392.466639,21.7470703 C389.390467,21.0439453 387.940271,19.6230469 387.940271,17.2060547 Z M403.10074,17.2060547 C403.10074,14.3056641 405.737459,12.2988281 409.516756,12.2988281 C413.325349,12.2988281 415.713045,13.9833984 415.976717,16.8984375 L412.563631,16.8984375 C412.299959,15.7705078 411.230623,15.0527344 409.531404,15.0527344 C407.876131,15.0527344 406.631013,15.84375 406.631013,17.0009766 C406.631013,17.9091797 407.392732,18.4658203 409.00406,18.8320312 L411.831209,19.4765625 C414.892732,20.1650391 416.313631,21.4833984 416.313631,23.8417969 C416.313631,26.9179688 413.486482,28.96875 409.487459,28.96875 C405.488435,28.96875 402.968904,27.2402344 402.690584,24.3251953 L406.279451,24.3251953 C406.631013,25.5117188 407.758943,26.2148438 409.575349,26.2148438 C411.406404,26.2148438 412.680818,25.4091797 412.680818,24.2226562 C412.680818,23.3144531 411.992342,22.7431641 410.468904,22.40625 L407.627107,21.7470703 C404.550935,21.0439453 403.10074,19.6230469 403.10074,17.2060547 Z M418.964334,28.6464844 L418.964334,12.6210938 L422.582498,12.6210938 L422.582498,28.6464844 L418.964334,28.6464844 Z M420.766091,10.0136719 C419.447732,10.0136719 418.52488,9.1640625 418.52488,8.00683594 C418.52488,6.84960938 419.447732,6 420.766091,6 C422.099099,6 423.007302,6.84960938 423.007302,8.00683594 C423.007302,9.1640625 422.099099,10.0136719 420.766091,10.0136719 Z M432.92363,28.96875 C428.118943,28.96875 425.218552,25.8339844 425.218552,20.6337891 C425.218552,15.4628906 428.162888,12.2988281 432.92363,12.2988281 C437.699021,12.2988281 440.628708,15.4482422 440.628708,20.6337891 C440.628708,25.8339844 437.713669,28.96875 432.92363,28.96875 Z M432.92363,25.921875 C435.45781,25.921875 436.893357,23.9882812 436.893357,20.6337891 C436.893357,17.2939453 435.443161,15.3457031 432.92363,15.3457031 C430.389451,15.3457031 428.939255,17.2939453 428.939255,20.6337891 C428.939255,23.9882812 430.389451,25.921875 432.92363,25.921875 Z M443.220818,28.6464844 L443.220818,12.6210938 L446.721794,12.6210938 L446.721794,15.1845703 L446.970818,15.1845703 C447.732536,13.3974609 449.343864,12.2988281 451.73156,12.2988281 C455.305779,12.2988281 457.254021,14.4521484 457.254021,18.2753906 L457.254021,28.6464844 L453.621208,28.6464844 L453.621208,19.1396484 C453.621208,16.6933594 452.595818,15.4628906 450.383904,15.4628906 C448.215935,15.4628906 446.85363,16.9570312 446.85363,19.3154297 L446.85363,28.6464844 L443.220818,28.6464844 Z M460.12445,17.2060547 C460.12445,14.3056641 462.761169,12.2988281 466.540466,12.2988281 C470.34906,12.2988281 472.736755,13.9833984 473.000427,16.8984375 L469.587341,16.8984375 C469.323669,15.7705078 468.254333,15.0527344 466.555114,15.0527344 C464.899841,15.0527344 463.654724,15.84375 463.654724,17.0009766 C463.654724,17.9091797 464.416442,18.4658203 466.027771,18.8320312 L468.854919,19.4765625 C471.916442,20.1650391 473.337341,21.4833984 473.337341,23.8417969 C473.337341,26.9179688 470.510192,28.96875 466.511169,28.96875 C462.512146,28.96875 459.992614,27.2402344 459.714294,24.3251953 L463.303161,24.3251953 C463.654724,25.5117188 464.782653,26.2148438 466.59906,26.2148438 C468.430114,26.2148438 469.704528,25.4091797 469.704528,24.2226562 C469.704528,23.3144531 469.016052,22.7431641 467.492614,22.40625 L464.650817,21.7470703 C461.574646,21.0439453 460.12445,19.6230469 460.12445,17.2060547 Z M482.872145,28.6464844 L482.872145,12.6210938 L486.373122,12.6210938 L486.373122,15.2138672 L486.622145,15.2138672 C487.310622,13.3828125 488.951247,12.2988281 491.07527,12.2988281 C493.287184,12.2988281 494.82527,13.4121094 495.499098,15.2138672 L495.748122,15.2138672 C496.539137,13.4560547 498.38484,12.2988281 500.611403,12.2988281 C503.819411,12.2988281 505.753005,14.3056641 505.753005,17.6308594 L505.753005,28.6464844 L502.13484,28.6464844 L502.13484,18.5537109 C502.13484,16.4882812 501.153395,15.4628906 499.205153,15.4628906 C497.315505,15.4628906 496.070387,16.8398438 496.070387,18.6708984 L496.070387,28.6464844 L492.540114,28.6464844 L492.540114,18.2900391 C492.540114,16.5322266 491.426833,15.4628906 489.639723,15.4628906 C487.837965,15.4628906 486.504958,16.9423828 486.504958,18.9052734 L486.504958,28.6464844 L482.872145,28.6464844 Z M514.468161,26.0537109 C516.665426,26.0537109 518.306051,24.6328125 518.306051,22.7724609 L518.306051,21.4980469 L514.687887,21.7324219 C512.651754,21.8642578 511.699606,22.5966797 511.699606,23.9003906 C511.699606,25.2480469 512.856833,26.0537109 514.468161,26.0537109 Z M513.398825,28.9101562 C510.308004,28.9101562 508.09609,27.0351562 508.09609,24.1054688 C508.09609,21.2050781 510.278708,19.5351562 514.175192,19.3007812 L518.306051,19.0517578 L518.306051,17.7041016 C518.306051,16.1367188 517.251364,15.2578125 515.288473,15.2578125 C513.618551,15.2578125 512.475973,15.84375 512.139059,16.9277344 L508.711325,16.9277344 C509.004293,14.1005859 511.655661,12.2988281 515.464254,12.2988281 C519.580465,12.2988281 521.894918,14.3056641 521.894918,17.7041016 L521.894918,28.6464844 L518.393942,28.6464844 L518.393942,26.4492188 L518.144918,26.4492188 C517.251364,28.0019531 515.493551,28.9101562 513.398825,28.9101562 Z M525.190153,28.6464844 L525.190153,12.6210938 L528.691129,12.6210938 L528.691129,15.1845703 L528.940153,15.1845703 C529.701871,13.3974609 531.3132,12.2988281 533.700895,12.2988281 C537.275114,12.2988281 539.223356,14.4521484 539.223356,18.2753906 L539.223356,28.6464844 L535.590543,28.6464844 L535.590543,19.1396484 C535.590543,16.6933594 534.565153,15.4628906 532.353239,15.4628906 C530.18527,15.4628906 528.822965,16.9570312 528.822965,19.3154297 L528.822965,28.6464844 L525.190153,28.6464844 Z M547.938512,26.0537109 C550.135777,26.0537109 551.776402,24.6328125 551.776402,22.7724609 L551.776402,21.4980469 L548.158238,21.7324219 C546.122106,21.8642578 545.169957,22.5966797 545.169957,23.9003906 C545.169957,25.2480469 546.327184,26.0537109 547.938512,26.0537109 Z M546.869176,28.9101562 C543.778356,28.9101562 541.566442,27.0351562 541.566442,24.1054688 C541.566442,21.2050781 543.749059,19.5351562 547.645543,19.3007812 L551.776402,19.0517578 L551.776402,17.7041016 C551.776402,16.1367188 550.721715,15.2578125 548.758824,15.2578125 C547.088902,15.2578125 545.946324,15.84375 545.60941,16.9277344 L542.181676,16.9277344 C542.474645,14.1005859 545.126012,12.2988281 548.934606,12.2988281 C553.050817,12.2988281 555.36527,14.3056641 555.36527,17.7041016 L555.36527,28.6464844 L551.864293,28.6464844 L551.864293,26.4492188 L551.61527,26.4492188 C550.721715,28.0019531 548.963902,28.9101562 546.869176,28.9101562 Z M565.545269,25.453125 C568.079449,25.453125 569.602887,23.5195312 569.602887,20.4580078 C569.602887,17.3964844 568.064801,15.4482422 565.545269,15.4482422 C563.01109,15.4482422 561.575543,17.3964844 561.575543,20.4580078 C561.575543,23.5195312 563.01109,25.453125 565.545269,25.453125 Z M565.545269,34.7402344 C561.429059,34.7402344 558.733746,32.9238281 558.440777,30.1699219 L562.088238,30.1699219 C562.322613,31.2685547 563.611676,31.9716797 565.603863,31.9716797 C568.094098,31.9716797 569.544293,30.7998047 569.544293,28.7929688 L569.544293,25.7607422 L569.295269,25.7607422 C568.372418,27.4746094 566.629254,28.4121094 564.402691,28.4121094 C560.359723,28.4121094 557.840191,25.2773438 557.840191,20.4580078 C557.840191,15.5507812 560.374371,12.3574219 564.461285,12.3574219 C566.643902,12.3574219 568.548199,13.4414062 569.427105,15.1845703 L569.676129,15.1845703 L569.676129,12.6210938 L573.177105,12.6210938 L573.177105,28.7050781 C573.177105,32.4111328 570.218121,34.7402344 565.545269,34.7402344 Z M583.283863,15.1845703 C581.115894,15.1845703 579.592457,16.7373047 579.431324,19.0810547 L586.975269,19.0810547 C586.902027,16.7080078 585.46648,15.1845703 583.283863,15.1845703 Z M587.004566,24.2373047 L590.446949,24.2373047 C589.758472,27.1523438 587.107105,28.96875 583.327808,28.96875 C578.611012,28.96875 575.769215,25.8486328 575.769215,20.6923828 C575.769215,15.5361328 578.654957,12.2988281 583.298512,12.2988281 C587.868824,12.2988281 590.608082,15.3310547 590.608082,20.3847656 L590.608082,21.5566406 L579.416676,21.5566406 L579.416676,21.7470703 C579.504566,24.4130859 581.042652,26.0830078 583.430347,26.0830078 C585.232105,26.0830078 586.477222,25.4238281 587.004566,24.2373047 Z M593.185543,28.6464844 L593.185543,12.6210938 L596.686519,12.6210938 L596.686519,15.1113281 L596.935543,15.1113281 C597.374996,13.5292969 599.103511,12.3574219 601.168941,12.3574219 C601.696285,12.3574219 602.340816,12.4160156 602.67773,12.5185547 L602.67773,15.8876953 C602.39941,15.7851562 601.432613,15.6826172 600.817379,15.6826172 C598.45898,15.6826172 596.818355,17.1474609 596.818355,19.3886719 L596.818355,28.6464844 L593.185543,28.6464844 Z" id="path-1"></path>
    </defs>
    <g id="request-permission---baner" stroke="none" stroke-width="1" fill="none" fill-rule="evenodd">
        <rect fill="#FFFFFF" x="0" y="0" width="1600" height="300"></rect>
        <g id="Group" transform="translate(287.000000, 86.000000)">
            <mask id="mask-2" fill="white">
                <use xlink:href="#path-1"></use>
            </mask>
            <use id="Request-Permission" fill="#007AFF" xlink:href="#path-1"></use>
            <g id="safebox">
                <polygon id="Fill-1" fill="#7AA9F8" points="6 113 27 113 27 108 6 108"></polygon>
                <polygon id="Fill-2" fill="#7AA9F8" points="125 113 146 113 146 108 125 108"></polygon>
                <polygon id="Fill-3" fill="#B3CFFD" points="1 108 151 108 151 9 1 9"></polygon>
                <polygon id="Fill-4" fill="#7AA9F8" points="26 84 66 84 66 34 26 34"></polygon>
                <polyline id="Fill-5" fill="#7AA9F8" points="66 32 25.347774 32 11 18 66 18 66 32"></polyline>
                <polyline id="Fill-6" fill="#317FB6" points="66 84 25.347774 84 11 98 66 98 66 84"></polyline>
                <polyline id="Fill-7" fill="#7AA9F8" points="25 83.4543524 11 98 11 18 25 32.5453442 25 83.4543524"></polyline>
                <polyline id="Fill-8" fill="#C4D8FB" points="142 18.8300689 82 2 82 115 142 98.170232 142 18.8300689"></polyline>
                <path d="M106,58 C106,64.6282597 102.864818,70 99,70 C95.1351825,70 92,64.6282597 92,58 C92,51.3717403 95.1354745,46 99.000292,46 C102.865109,46 106,51.3720406 106,58" id="Fill-9" fill="#7AA9F8"></path>
                <polygon id="Fill-10" fill="#C4D8FB" points="66 115 82 115 82 2 66 2"></polygon>
                <path d="M123,59 C123,62.3070724 101.037129,65 99.5991423,65 C98.1655917,65 97,62.3070724 97,59 C97,55.68572 98.1655917,53 99.5991423,53 C101.037129,53 123,55.6860203 123,59" id="Fill-11" fill="#7AA9F8"></path>
                <path d="M99.953695,53 C99.6169538,53 99.2966241,53.1558637 99,53.4111317 C105.84302,54.2829471 119.142173,56.453326 119.142173,59 C119.142173,61.5427699 105.842716,63.7158516 99,64.5876671 C99.2966241,64.8453376 99.6166498,65 99.953695,65 C101.431345,65 124,62.3070724 124,59 C124,55.6860203 101.431345,53 99.953695,53" id="Fill-13" fill="#C4D8FB"></path>
                <path d="M78,37.9993995 C78,41.3138854 76.208241,44 73.9988287,44 C71.7894164,44 70,41.3135852 70,37.9993995 C70,34.6864148 71.7894164,32 73.9988287,32 C76.208241,32 78,34.6864148 78,37.9993995" id="Fill-14" fill="#7AA9F8"></path>
                <path d="M78,58.9987992 C78,62.3129534 76.208241,65 73.9988287,65 C71.7894164,65 70,62.3129534 70,58.9987992 C70,55.6858458 71.7894164,53 73.9988287,53 C76.208241,53 78,55.6858458 78,58.9987992" id="Fill-16" fill="#7AA9F8"></path>
                <path d="M78,77.9989491 C78,81.3147504 76.208241,84 73.9988287,84 C71.7894164,84 70,81.3147504 70,77.9989491 C70,74.6855499 71.7894164,72 73.9988287,72 C76.208241,72 78,74.6855499 78,77.9989491" id="Fill-18" fill="#7AA9F8"></path>
                <polygon id="Fill-20" fill="#CCE2ED" points="80 115 82 115 82 2 80 2"></polygon>
                <polygon id="Fill-24" fill="#649BF8" points="66 98 66 18 11 98"></polygon>
                <path d="M67.3750743,113.583554 L81.6249256,113.583554 L81.6249256,2.41644617 L67.3750743,2.41644617 L67.3750743,113.583554 Z M82.8124627,116 L66.1875371,116 C65.5313605,116 65,115.459618 65,114.791626 L65,1.20837428 C65,0.540683988 65.5313605,0 66.1875371,0 L82.8124627,0 C83.4689366,0 83.9999999,0.540381592 83.9999999,1.20837428 L83.9999999,114.791626 C84.0002971,115.459618 83.4689366,116 82.8124627,116 Z" id="Fill-26" fill="#007AFF"></path>
                <path d="M74,54.3331387 C72.8206219,54.3331387 71.4998436,56.3290511 71.4998436,58.999708 C71.4998436,61.670365 72.8209347,63.6662774 74,63.6662774 C75.1790653,63.6662774 76.4998436,61.670365 76.4998436,58.999708 C76.4998436,56.3290511 75.1790653,54.3331387 74,54.3331387 Z M74,66 C71.1970218,66 69,62.9261314 69,59 C69,55.0750365 71.1970218,52 74,52 C76.8026653,52 79,55.0750365 79,59 C79,62.9258394 76.8026653,66 74,66 Z" id="Fill-28" fill="#007AFF"></path>
                <path d="M74,73.3334307 C72.8206219,73.3334307 71.4998436,75.329635 71.4998436,77.9979562 C71.4998436,80.6706569 72.8209347,82.6668613 74,82.6668613 C75.1790653,82.6668613 76.4998436,80.6706569 76.4998436,77.9979562 C76.4998436,75.329635 75.1790653,73.3334307 74,73.3334307 Z M74,85 C71.1970218,85 69,81.9240876 69,77.9979562 C69,74.0741606 71.1970218,71 74,71 C76.8026653,71 79,74.0738686 79,77.9979562 C79,81.9240876 76.8026653,85 74,85 Z" id="Fill-29" fill="#007AFF"></path>
                <path d="M74,33.333382 C72.8206219,33.333382 71.4998436,35.3295447 71.4998436,37.999854 C71.4998436,40.6704553 72.8209347,42.666326 74,42.666326 C75.1790653,42.666326 76.4998436,40.6704553 76.4998436,37.999854 C76.4998436,35.3295447 75.1790653,33.333382 74,33.333382 Z M74,45 C71.1970218,45 69,41.9250276 69,37.999854 C69,34.0749724 71.1970218,31 74,31 C76.8026653,31 79,34.0749724 79,37.999854 C79,41.9250276 76.8026653,45 74,45 Z" id="Fill-30" fill="#007AFF"></path>
                <path d="M83.3849941,2.80152934 L83.3849941,113.198607 L140.615901,96.959358 L140.615901,19.041988 L83.3849941,2.80152934 Z M82.1923479,116 C81.9363332,116 81.6824073,115.915027 81.4729408,115.754455 C81.1748538,115.525541 81,115.169017 81,114.791325 L81,1.20850926 C81,0.830817139 81.1748538,0.474595109 81.4729408,0.245681632 C81.7707294,0.0179777365 82.1598239,-0.0576211663 82.5137089,0.0448909458 L142.129013,16.9615062 C142.643728,17.1078657 143,17.583534 143,18.1251245 L143,97.8753143 C143,98.4181144 142.643728,98.8922707 142.129013,99.0389326 L82.5137089,115.955245 C82.4089756,115.985787 82.2997666,116 82.1923479,116 Z" id="Fill-32" fill="#007AFF"></path>
                <path d="M62.8147764,10 L1.18522363,10 C0.53032529,10 0,9.3292042 0,8.5 C0,7.67117117 0.53032529,7 1.18522363,7 L62.8147764,7 C63.4696747,7 64,7.67117117 64,8.5 C64,9.3292042 63.4696747,10 62.8147764,10" id="Fill-33" fill="#007AFF"></path>
                <path d="M62.8147764,109 L1.18522363,109 C0.53032529,109 0,108.329204 0,107.5 C0,106.670796 0.53032529,106 1.18522363,106 L62.8147764,106 C63.4696747,106 64,106.670796 64,107.5 C64,108.329204 63.4696747,109 62.8147764,109" id="Fill-34" fill="#007AFF"></path>
                <path d="M1.5,109 C0.671171171,109 0,108.456957 0,107.785674 L0,8.21432551 C0,7.54334685 0.671171171,7 1.5,7 C2.3292042,7 3,7.54334685 3,8.21432551 L3,107.785674 C3,108.456957 2.3292042,109 1.5,109" id="Fill-35" fill="#007AFF"></path>
                <path d="M151.785964,10 L120.21434,10 C119.543049,10 119,9.3292042 119,8.5 C119,7.67117117 119.543049,7 120.21434,7 L151.785964,7 C152.456951,7 153,7.67117117 153,8.5 C153,9.3292042 152.456951,10 151.785964,10" id="Fill-37" fill="#007AFF"></path>
                <path d="M151.500188,109 C150.67088,109 150,108.462281 150,107.79758 L150,9.20242036 C150,8.53801992 150.67088,8 151.500188,8 C152.32912,8 153,8.53801992 153,9.20242036 L153,107.79758 C153,108.462281 152.32912,109 151.500188,109" id="Fill-38" fill="#007AFF"></path>
                <path d="M151.785964,109 L120.21434,109 C119.543049,109 119,108.329204 119,107.5 C119,106.670796 119.543049,106 120.21434,106 L151.785964,106 C152.456951,106 153,106.670796 153,107.5 C153,108.329204 152.456951,109 151.785964,109" id="Fill-39" fill="#007AFF"></path>
                <path d="M63.8043088,100 L11.1956912,100 C10.535009,100 10,99.3288288 10,98.5 C10,97.6707958 10.5347098,97 11.1956912,97 L63.8043088,97 C64.464991,97 65,97.6707958 65,98.5 C65,99.3288288 64.464991,100 63.8043088,100" id="Fill-40" fill="#007AFF"></path>
                <path d="M11.5,100 C10.6711712,100 10,99.4604131 10,98.7940777 L10,19.2059223 C10,18.5395869 10.6707958,18 11.5,18 C12.3292042,18 13,18.5395869 13,19.2059223 L13,98.7943795 C13,99.4604131 12.3292042,100 11.5,100" id="Fill-41" fill="#007AFF"></path>
                <path d="M63.8043088,19 L11.1956912,19 C10.535009,19 10,18.3292042 10,17.5 C10,16.6711712 10.5347098,16 11.1956912,16 L63.8043088,16 C64.464991,16 65,16.6707958 65,17.5 C65,18.3292042 64.464991,19 63.8043088,19" id="Fill-42" fill="#007AFF"></path>
                <path d="M99.749648,72 C94.8433618,72 91,66.0695825 91,58.5 C91,50.9304175 94.8433618,45 99.749648,45 C100.440846,45 101,45.5488454 101,46.2273006 C101,46.9054488 100.440846,47.4546013 99.749648,47.4546013 C96.3624957,47.4546013 93.5003911,52.5121488 93.5003911,58.5 C93.5003911,64.4878512 96.3621828,69.5450916 99.749648,69.5450916 C100.440846,69.5450916 101,70.0942441 101,70.7723922 C101,71.4511546 100.440846,72 99.749648,72" id="Fill-43" fill="#007AFF"></path>
                <path d="M99.86582,54.3331387 C99.5307661,54.3810219 98.4167423,55.9305109 98.4167423,58.999708 C98.4167423,62.0575182 99.5283469,63.6140146 99.8682391,63.6662774 C102.561068,63.6639416 120.372144,61.1030657 122.486794,58.9985401 C120.37668,56.8954745 102.55623,54.3343066 99.86582,54.3331387 Z M99.86582,66 C97.3287244,66 96,62.4794161 96,59 C96,55.5214599 97.3290268,52 99.86582,52 C100.115901,52 125,54.0677372 125,59 C125,63.9331387 100.115901,66 99.86582,66 Z" id="Fill-44" fill="#007AFF"></path>
                <path d="M104.667381,50 C104.238066,50 103.816751,49.7952747 103.559095,49.4148352 C102.346814,47.6227473 100.845878,46.6347253 99.3319429,46.6347253 C98.5956411,46.6347253 98,46.0456044 98,45.3173626 C98,44.5891209 98.5956411,44 99.3319429,44 C101.764172,44 104.050741,45.4020879 105.775333,47.9504396 C106.183982,48.5550549 106.019656,49.3732967 105.408349,49.7774725 C105.179692,49.9278022 104.92237,50 104.667381,50" id="Fill-45" fill="#007AFF"></path>
                <path d="M99.3319118,72 C98.5956272,72 98,71.4107817 98,70.6824194 C98,69.9543869 98.5956272,69.3648388 99.3319118,69.3648388 C100.845812,69.3648388 102.346712,68.3766534 103.558965,66.5855879 C103.969938,65.9782347 104.79455,65.8189776 105.40851,66.2228906 C106.019802,66.6268035 106.183792,67.4451807 105.775485,68.0498961 C104.050599,70.5976801 101.764084,72 99.3319118,72" id="Fill-46" fill="#007AFF"></path>
                <path d="M101.501313,61 C100.673209,61 100.003,60.4409685 100.003,59.7511731 L100,57.2513295 C100,56.5602828 100.670209,56.0012513 101.495312,56 L101.498312,56 C102.326791,56 102.997,56.5590315 102.997,57.2488269 L103,59.7486705 C103,60.4397172 102.329791,60.9987487 101.501313,61" id="Fill-47" fill="#007AFF"></path>
                <path d="M6.5,113 C5.67117117,113 5,112.440656 5,111.749922 L5,109.249765 C5,108.559031 5.67117117,108 6.5,108 C7.3292042,108 8,108.559031 8,109.249765 L8,111.749922 C8,112.440343 7.3292042,113 6.5,113" id="Fill-48" fill="#007AFF"></path>
                <path d="M27.79997,114 L6.20003003,114 C5.53695037,114 5,113.328829 5,112.5 C5,111.670796 5.53695037,111 6.20003003,111 L27.79997,111 C28.4630496,111 29,111.670796 29,112.5 C29,113.328453 28.4630496,114 27.79997,114" id="Fill-49" fill="#007AFF"></path>
                <path d="M27.5,113 C26.6707958,113 26,112.440656 26,111.749922 L26,109.249765 C26,108.559031 26.6707958,108 27.5,108 C28.3288288,108 29,108.559031 29,109.249765 L29,111.749922 C29,112.440343 28.3288288,113 27.5,113" id="Fill-50" fill="#007AFF"></path>
                <path d="M125.499812,113 C124.67088,113 124,112.440656 124,111.749922 L124,109.249765 C124,108.559031 124.67088,108 125.499812,108 C126.32912,108 127,108.559031 127,109.249765 L127,111.749922 C127,112.440343 126.32912,113 125.499812,113" id="Fill-51" fill="#007AFF"></path>
                <path d="M146.799955,114 L125.199745,114 C124.536657,114 124,113.328829 124,112.5 C124,111.670796 124.536657,111 125.199745,111 L146.799955,111 C147.463343,111 148,111.670796 148,112.5 C148,113.328453 147.463343,114 146.799955,114" id="Fill-52" fill="#007AFF"></path>
                <path d="M146.5,113 C145.671171,113 145,112.440656 145,111.749922 L145,109.249765 C145,108.559031 145.671171,108 146.5,108 C147.329204,108 148,108.559031 148,109.249765 L148,111.749922 C148,112.440343 147.329204,113 146.5,113" id="Fill-53" fill="#007AFF"></path>
                <path d="M15.1999474,94 C14.8930348,94 14.5861221,93.8828785 14.3515832,93.6486355 C13.8828056,93.1795488 13.8828056,92.4203611 14.3515832,91.9518751 L23.9514631,82.351815 C24.4205409,81.8827283 25.1797143,81.8827283 25.6481916,82.351815 C26.1172695,82.8206014 26.1172695,83.579789 25.6481916,84.0485754 L16.0483117,93.6486355 C15.8140731,93.8828785 15.5068601,94 15.1999474,94" id="Fill-54" fill="#007AFF"></path>
                <path d="M24.7998273,34 C24.4929147,34 24.186002,33.8828734 23.9514631,33.6486201 L14.3515832,24.0484399 C13.8828056,23.5793327 13.8828056,22.8201117 14.3515832,22.3516052 C14.8203607,21.8827983 15.5798345,21.8827983 16.0483117,22.3516052 L25.6481916,31.9517854 C26.1172695,32.4205923 26.1172695,33.1798132 25.6481916,33.6486201 C25.413953,33.8828734 25.10674,34 24.7998273,34" id="Fill-55" fill="#007AFF"></path>
                <path d="M62.8234948,34 L25.1765052,34 C24.5264243,34 24,33.3292042 24,32.5 C24,31.6707958 24.5264243,31 25.1765052,31 L62.8234948,31 C63.4735757,31 64,31.6707958 64,32.5 C64,33.3292042 63.4735757,34 62.8234948,34" id="Fill-56" fill="#007AFF"></path>
                <path d="M62.8234948,85 L25.1765052,85 C24.5264243,85 24,84.3291203 24,83.4998123 C24,82.6708797 24.5264243,82 25.1765052,82 L62.8234948,82 C63.4735757,82 64,82.6708797 64,83.4998123 C64,84.3291203 63.4735757,85 62.8234948,85" id="Fill-57" fill="#007AFF"></path>
                <path d="M24.5,80 C23.6711712,80 23,79.4658292 23,78.805813 L23,38.194486 C23,37.5344697 23.6711712,37 24.5,37 C25.3292042,37 26,37.5341708 26,38.194486 L26,78.805813 C26,79.4658292 25.3292042,80 24.5,80" id="Fill-58" fill="#007AFF"></path>
                <path d="M74.5,24 C73.6707958,24 73,23.4782482 73,22.8332847 L73,11.1667153 C73,10.5217518 73.6707958,10 74.5,10 C75.3288288,10 76,10.5217518 76,11.1667153 L76,22.8332847 C75.9996246,23.4782482 75.3288288,24 74.5,24" id="Fill-59" fill="#007AFF"></path>
                <path d="M74.5,106 C73.6707958,106 73,105.478248 73,104.833285 L73,93.1667153 C73,92.5217518 73.6707958,92 74.5,92 C75.3288288,92 76,92.5217518 76,93.1667153 L76,104.833285 C75.9996246,105.478248 75.3288288,106 74.5,106" id="Fill-60" fill="#007AFF"></path>
            </g>
        </g>
    </g>
</svg>