<?xml version="1.0" encoding="UTF-8"?>
<svg width="1600px" height="300px" viewBox="0 0 1600 300" version="1.1" xmlns="http://www.w3.org/2000/svg" xmlns:xlink="http://www.w3.org/1999/xlink" style="background: #FFFFFF;">
    <!-- Generator: Sketch 42 (36781) - http://www.bohemiancoding.com/sketch -->
    <title>request-permission - baner</title>
    <desc>Created with Sketch.</desc>
    <defs>
        <polygon id="path-1" points="0.0210900184 0.156011041 0.0210900184 77.6537931 99.6749418 77.6537931 99.6749418 0.156011041 0.0210900184 0.156011041"></polygon>
    </defs>
    <g id="Page-1" stroke="none" stroke-width="1" fill="none" fill-rule="evenodd">
        <g id="request-permission---baner">
            <g id="Group-3" transform="translate(288.000000, 64.000000)">
                <g id="Group-2" transform="translate(151.000000, 0.000000)">
                    <g id="Group">
                        <text id="simple-permissions-m" font-family="AvenirNext-Medium, Avenir Next" font-size="37" font-weight="400" letter-spacing="2.11428571" fill="#657786">
                            <tspan x="0" y="149">simple permissions management </tspan>
                        </text>
                        <text id="Request-Permission" font-family="AvenirNext-DemiBold, Avenir Next" font-size="95" font-weight="500" letter-spacing="0.899999976" fill="#00A3E8">
                            <tspan x="0" y="95">Request Permissio</tspan>
                            <tspan x="815.2" y="95">n</tspan>
                        </text>
                    </g>
                </g>
                <g id="padlock" transform="translate(0.000000, 11.000000)">
                    <g id="Group-5" transform="translate(0.000000, 61.842215)">
                        <mask id="mask-2" fill="white">
                            <use xlink:href="#path-1"></use>
                        </mask>
                        <g id="Clip-2"></g>
                        <path d="M99.6749418,64.2603858 C99.6749418,71.5004928 93.8052382,77.6537931 86.5583564,77.6537931 L13.1127189,77.6537931 C5.86970361,77.6537931 0,71.5004928 0,64.2603858 L0,13.5659331 C0,6.32582608 5.86970361,0.156011041 13.1127189,0.156011041 L86.5555444,0.156011041 C93.8052382,0.156011041 99.6749418,6.32582608 99.6749418,13.5659331 L99.6749418,64.2603858 Z" id="Fill-1" fill="#00A3E8" mask="url(#mask-2)"></path>
                        <path d="M99.6749418,35.5256172 L99.6749418,68.8667352 C99.6749418,73.6167766 95.8239856,77.6537931 91.0694994,77.6537931 L43,77.6537931" id="Fill-3" fill="#0D8BC1" mask="url(#mask-2)"></path>
                        <path d="M0,13.4176523 C0,6.1747343 5.86970361,0.156011041 13.1127189,0.156011041 L86.5555444,0.156011041 C93.8052382,0.156011041 99.6749418,6.10199943 99.6749418,13.3421064" id="Fill-4" fill="#32C2FF" mask="url(#mask-2)"></path>
                    </g>
                    <path d="M61.1884703,92.5925531 C61.1884703,86.1774774 56.1191329,80.9834342 49.7084703,80.9834342 C43.2964017,80.9834342 38.4232015,86.1774774 38.4232015,92.5925531 C38.4232015,96.7735787 39.8706797,100.410674 44.2999351,102.454629 L44.2999351,119.195598 C44.2999351,122.539294 46.494,125.245945 49.8374709,125.245945 C53.1795358,125.245945 55.3750067,122.537889 55.3750067,119.195598 L55.3750067,102.454629 C59.8046136,100.410674 61.1884703,96.7749842 61.1884703,92.5925531 Z" id="Fill-6" fill="#0B8DC5"></path>
                    <path d="M61.1884703,90.2320076 C61.1884703,83.8193916 56.1191329,78.6228887 49.7084703,78.6228887 C43.2964017,78.6228887 38.4232015,83.8193916 38.4232015,90.2320076 C38.4232015,94.4140874 39.8706797,98.0525881 44.2999351,100.093733 L44.2999351,116.836107 C44.2999351,120.178397 46.494,122.885048 49.8374709,122.885048 C53.1795358,122.885048 55.3750067,120.176992 55.3750067,116.836107 L55.3750067,100.093733 C59.8046136,98.0525881 61.1884703,94.4154929 61.1884703,90.2320076 Z" id="Fill-7" fill="#0F2D3A"></path>
                    <path d="M22.2475089,30.0380989 C22.2475089,30.1452686 22.1582278,30.2359237 22.0524262,30.2359237 L21.6612064,30.2359237 C21.5501323,30.2359237 21.4633117,30.1452686 21.4633117,30.0380989 C21.4633117,29.9284695 21.5501323,29.8416796 21.6612064,29.8416796 L22.0524262,29.8416796 C22.1582278,29.8416796 22.2475089,29.9284695 22.2475089,30.0380989 Z" id="Fill-8" fill="#0CC4A1"></path>
                    <path d="M86.3854182,55.3565124 L75.3103466,55.3565124 L75.3103466,37.8151087 C75.3103466,23.6282939 64.0307018,12.0876933 49.8402829,12.0876933 C35.6484581,12.0876933 24.3645952,23.6282939 24.3645952,37.8151087 L24.3645952,55.3565124 L13.2898751,55.3565124 L13.2898751,37.8151087 C13.2898751,17.1208063 29.1362119,0.286371619 49.8402829,0.286371619 C70.5390814,0.286371619 86.3854182,17.1208063 86.3854182,37.8151087 L86.3854182,55.3565124 Z" id="Fill-9" fill="#6F8087"></path>
                    <path d="M13.2898751,49.6192414 L13.2898751,55.3565124 L24.3645952,55.3565124 L24.3645952,37.8151087 C24.3645952,23.6282939 36.2772921,12.0876933 50.470523,12.0876933 C29.7678579,12.0876933 13.2898751,28.924939 13.2898751,49.6192414 Z" id="Fill-10" fill="#4E5B61"></path>
                    <path d="M49.2100429,12.0876933 C63.4004617,12.0876933 75.3103466,23.6282939 75.3103466,37.8151087 L75.3103466,55.3565124 L86.3854182,55.3565124 L86.3854182,49.6192414 C86.3854182,28.924939 69.9102474,12.0876933 49.2100429,12.0876933 Z" id="Fill-11" fill="#4E5B61"></path>
                </g>
            </g>
        </g>
    </g>
</svg>