<?xml version="1.0" encoding="UTF-8"?>
<svg width="1600px" height="300px" viewBox="0 0 1600 300" version="1.1" xmlns="http://www.w3.org/2000/svg" xmlns:xlink="http://www.w3.org/1999/xlink" style="background: #FFFFFF;">
    <!-- Generator: Sketch 42 (36781) - http://www.bohemiancoding.com/sketch -->
    <title>request-permission - baner</title>
    <desc>Created with Sketch.</desc>
    <defs>
        <polygon id="path-1" points="0.0208791182 0.154896677 0.0208791182 77.0991232 98.6781924 77.0991232 98.6781924 0.154896677 0.0208791182 0.154896677"></polygon>
    </defs>
    <g id="Page-1" stroke="none" stroke-width="1" fill="none" fill-rule="evenodd">
        <g id="request-permission---baner">
            <g id="Group-3" transform="translate(399.000000, 80.000000)">
                <g id="Group-2" transform="translate(150.000000, 2.000000)">
                    <g id="Group">
                        <text id="simple-permissions-m" font-family="AvenirNext-Medium, Avenir Next" font-size="34" font-weight="400" letter-spacing="1.94285715" fill="#657786">
                            <tspan x="0" y="125">simple permissions management </tspan>
                        </text>
                        <text id="Request-Permission" font-family="AvenirNext-DemiBold, Avenir Next" font-size="71" font-weight="500" letter-spacing="0.699999988" fill="#00A3E8">
                            <tspan x="0" y="71">Request Permissio</tspan>
                            <tspan x="609.72" y="71">n</tspan>
                        </text>
                    </g>
                </g>
                <g id="padlock">
                    <g id="Group-5" transform="translate(0.000000, 61.400485)">
                        <mask id="mask-2" fill="white">
                            <use xlink:href="#path-1"></use>
                        </mask>
                        <g id="Clip-2"></g>
                        <path d="M98.6781924,63.801383 C98.6781924,70.9897749 92.8671858,77.0991232 85.6927728,77.0991232 L12.9815917,77.0991232 C5.81100658,77.0991232 0,70.9897749 0,63.801383 L0,13.4690336 C0,6.28064161 5.81100658,0.154896677 12.9815917,0.154896677 L85.689989,0.154896677 C92.8671858,0.154896677 98.6781924,6.28064161 98.6781924,13.4690336 L98.6781924,63.801383 Z" id="Fill-1" fill="#00A3E8" mask="url(#mask-2)"></path>
                        <path d="M98.6781924,35.2718628 L98.6781924,68.37483 C98.6781924,73.0909425 94.8657457,77.0991232 90.1588044,77.0991232 L42.57,77.0991232" id="Fill-3" fill="#0D8BC1" mask="url(#mask-2)"></path>
                        <path d="M0,13.3218119 C0,6.13062906 5.81100658,0.154896677 12.9815917,0.154896677 L85.689989,0.154896677 C92.8671858,0.154896677 98.6781924,6.05841372 98.6781924,13.2468057" id="Fill-4" fill="#32C2FF" mask="url(#mask-2)"></path>
                    </g>
                    <path d="M60.5765856,91.9311777 C60.5765856,85.561924 55.5579416,80.4049811 49.2113856,80.4049811 C42.8634377,80.4049811 38.0389695,85.561924 38.0389695,91.9311777 C38.0389695,96.0823389 39.4719729,99.6934549 43.8569357,101.722811 L43.8569357,118.344201 C43.8569357,121.664013 46.02906,124.351331 49.3390962,124.351331 C52.6477405,124.351331 54.8212567,121.662618 54.8212567,118.344201 L54.8212567,101.722811 C59.2065675,99.6934549 60.5765856,96.0837343 60.5765856,91.9311777 Z" id="Fill-6" fill="#0B8DC5"></path>
                    <path d="M60.5765856,89.5874933 C60.5765856,83.2206817 55.5579416,78.0612967 49.2113856,78.0612967 C42.8634377,78.0612967 38.0389695,83.2206817 38.0389695,89.5874933 C38.0389695,93.7397011 39.4719729,97.3522125 43.8569357,99.3787774 L43.8569357,116.001563 C43.8569357,119.31998 46.02906,122.007298 49.3390962,122.007298 C52.6477405,122.007298 54.8212567,119.318585 54.8212567,116.001563 L54.8212567,99.3787774 C59.2065675,97.3522125 60.5765856,93.7410965 60.5765856,89.5874933 Z" id="Fill-7" fill="#0F2D3A"></path>
                    <path d="M22.0250338,29.823541 C22.0250338,29.9299453 21.9366455,30.0199528 21.8319019,30.0199528 L21.4445943,30.0199528 C21.3346309,30.0199528 21.2486786,29.9299453 21.2486786,29.823541 C21.2486786,29.7146947 21.3346309,29.6285247 21.4445943,29.6285247 L21.8319019,29.6285247 C21.9366455,29.6285247 22.0250338,29.7146947 22.0250338,29.823541 Z" id="Fill-8" fill="#0CC4A1"></path>
                    <path d="M85.5215641,54.9611087 L74.5572431,54.9611087 L74.5572431,37.5450008 C74.5572431,23.4595203 63.3903948,12.0013527 49.3418801,12.0013527 C35.2919735,12.0013527 24.1209493,23.4595203 24.1209493,37.5450008 L24.1209493,54.9611087 L13.1569763,54.9611087 L13.1569763,37.5450008 C13.1569763,16.9985148 28.8448498,0.284326107 49.3418801,0.284326107 C69.8336906,0.284326107 85.5215641,16.9985148 85.5215641,37.5450008 L85.5215641,54.9611087 Z" id="Fill-9" fill="#6F8087"></path>
                    <path d="M13.1569763,49.2648183 L13.1569763,54.9611087 L24.1209493,54.9611087 L24.1209493,37.5450008 C24.1209493,23.4595203 35.9145192,12.0013527 49.9658177,12.0013527 C29.4701794,12.0013527 13.1569763,28.7183323 13.1569763,49.2648183 Z" id="Fill-10" fill="#4E5B61"></path>
                    <path d="M48.7179424,12.0013527 C62.7664571,12.0013527 74.5572431,23.4595203 74.5572431,37.5450008 L74.5572431,54.9611087 L85.5215641,54.9611087 L85.5215641,49.2648183 C85.5215641,28.7183323 69.2111449,12.0013527 48.7179424,12.0013527 Z" id="Fill-11" fill="#4E5B61"></path>
                </g>
            </g>
        </g>
    </g>
</svg>