<?xml version="1.0" encoding="UTF-8"?>
<svg width="1600px" height="131px" viewBox="0 0 1600 131" version="1.1" xmlns="http://www.w3.org/2000/svg" xmlns:xlink="http://www.w3.org/1999/xlink">
    <!-- Generator: Sketch 52.3 (67297) - http://www.bohemiancoding.com/sketch -->
    <title>request-permission - donate - close</title>
    <desc>Created with Sketch.</desc>
    <g id="request-permission---donate---close" stroke="none" stroke-width="1" fill="none" fill-rule="evenodd">
        <rect fill="#FFFFFF" x="0" y="0" width="1600" height="131"></rect>
        <path d="M1578,32.5 L22,32.5" id="Line-3" stroke="#007AFF" stroke-width="2" stroke-linecap="square" fill-rule="nonzero"></path>
        <path d="M749.310156,98 L744.900977,98 L744.900977,77.1503906 L737.313086,77.1503906 L737.313086,73.3393555 L756.915137,73.3393555 L756.915137,77.1503906 L749.310156,77.1503906 L749.310156,98 Z M760.074707,98 L760.074707,72.074707 L764.244629,72.074707 L764.244629,82.3286133 L764.552246,82.3286133 C765.440918,80.2265625 767.44043,78.9619141 770.226074,78.9619141 C774.225098,78.9619141 776.651855,81.4912109 776.651855,85.9345703 L776.651855,98 L772.413574,98 L772.413574,86.9428711 C772.413574,84.105957 771.114746,82.6533203 768.653809,82.6533203 C765.868164,82.6533203 764.312988,84.4648438 764.312988,87.1479492 L764.312988,98 L760.074707,98 Z M786.886621,94.9750977 C789.450098,94.9750977 791.36416,93.3173828 791.36416,91.1469727 L791.36416,89.6601562 L787.142969,89.9335938 C784.76748,90.0874023 783.656641,90.9418945 783.656641,92.4628906 C783.656641,94.0351562 785.006738,94.9750977 786.886621,94.9750977 Z M785.639063,98.3076172 C782.033105,98.3076172 779.452539,96.1201172 779.452539,92.7021484 C779.452539,89.3183594 781.998926,87.3701172 786.544824,87.0966797 L791.36416,86.8061523 L791.36416,85.2338867 C791.36416,83.4052734 790.133691,82.3798828 787.843652,82.3798828 C785.89541,82.3798828 784.562402,83.0634766 784.169336,84.328125 L780.170313,84.328125 C780.512109,81.0297852 783.605371,78.9277344 788.04873,78.9277344 C792.850977,78.9277344 795.551172,81.269043 795.551172,85.2338867 L795.551172,98 L791.466699,98 L791.466699,95.4365234 L791.176172,95.4365234 C790.133691,97.2480469 788.08291,98.3076172 785.639063,98.3076172 Z M799.462695,98 L799.462695,79.3037109 L803.547168,79.3037109 L803.547168,82.2944336 L803.837695,82.2944336 C804.726367,80.2094727 806.60625,78.9277344 809.391895,78.9277344 C813.561816,78.9277344 815.834766,81.4399414 815.834766,85.9003906 L815.834766,98 L811.596484,98 L811.596484,86.9086914 C811.596484,84.0546875 810.400195,82.6191406 807.819629,82.6191406 C805.290332,82.6191406 803.700977,84.3623047 803.700977,87.1137695 L803.700977,98 L799.462695,98 Z M824.377637,86.9257812 L831.281934,79.3037109 L836.203809,79.3037109 L828.752637,87.3188477 L836.716504,98 L831.589551,98 L825.591016,89.9848633 L824.087109,91.4887695 L824.087109,98 L819.848828,98 L819.848828,72.074707 L824.087109,72.074707 L824.087109,86.9257812 L824.377637,86.9257812 Z M837.637305,84.652832 C837.637305,81.269043 840.713477,78.9277344 845.122656,78.9277344 C849.566016,78.9277344 852.35166,80.8930664 852.659277,84.2939453 L848.677344,84.2939453 C848.369727,82.9780273 847.122168,82.140625 845.139746,82.140625 C843.208594,82.140625 841.755957,83.0634766 841.755957,84.4135742 C841.755957,85.4731445 842.644629,86.1225586 844.524512,86.5498047 L847.822852,87.3017578 C851.394629,88.1049805 853.052344,89.6430664 853.052344,92.3945312 C853.052344,95.9833984 849.754004,98.3759766 845.088477,98.3759766 C840.422949,98.3759766 837.483496,96.359375 837.158789,92.9584961 L841.345801,92.9584961 C841.755957,94.3427734 843.071875,95.1630859 845.191016,95.1630859 C847.327246,95.1630859 848.814062,94.2231445 848.814062,92.8388672 C848.814062,91.7792969 848.01084,91.112793 846.233496,90.7197266 L842.918066,89.9506836 C839.329199,89.1303711 837.637305,87.4726562 837.637305,84.652832 Z M857.134766,73.3222656 L861.868652,73.3222656 L861.475586,89.8481445 L857.527832,89.8481445 L857.134766,73.3222656 Z M859.510254,98.4443359 C857.78418,98.4443359 856.67334,97.3676758 856.67334,95.7270508 C856.67334,94.0693359 857.78418,92.9926758 859.510254,92.9926758 C861.236328,92.9926758 862.347168,94.0693359 862.347168,95.7270508 C862.347168,97.3676758 861.236328,98.4443359 859.510254,98.4443359 Z" id="Thanks!" fill="#007AFF"></path>
    </g>
</svg>