<?xml version="1.0" encoding="UTF-8"?>
<svg width="1600px" height="131px" viewBox="0 0 1600 131" version="1.1" xmlns="http://www.w3.org/2000/svg" xmlns:xlink="http://www.w3.org/1999/xlink">
    <!-- Generator: Sketch 52.3 (67297) - http://www.bohemiancoding.com/sketch -->
    <title>request-permission - donate</title>
    <desc>Created with Sketch.</desc>
    <g id="request-permission---donate" stroke="none" stroke-width="1" fill="none" fill-rule="evenodd">
        <rect fill="#FFFFFF" x="0" y="0" width="1600" height="131"></rect>
        <g id="Group" transform="translate(0.000000, 31.000000)">
            <path d="M752,14.4271589 L758.739618,14.4271589 C763.829927,14.4271589 766.772577,17.5121951 766.772577,22.875412 C766.772577,28.4403428 763.865524,31.5609756 758.739618,31.5609756 L752,31.5609756 L752,14.4271589 Z M755.583388,17.4884641 L755.583388,28.4996704 L758.170073,28.4996704 C761.338167,28.4996704 763.117996,26.5537245 763.117996,22.9347396 C763.117996,19.4700066 761.27884,17.4884641 758.170073,17.4884641 L755.583388,17.4884641 Z M776.821253,14 C781.875966,14 785.044061,17.4528675 785.044061,22.9940672 C785.044061,28.5471325 781.887831,32 776.821253,32 C771.742808,32 768.574713,28.5471325 768.574713,22.9940672 C768.574713,17.441002 771.79027,14 776.821253,14 Z M776.821253,17.1443639 C774.04472,17.1443639 772.24116,19.410679 772.24116,22.9940672 C772.24116,26.56559 774.009123,28.8556361 776.821253,28.8556361 C779.609651,28.8556361 781.389479,26.56559 781.389479,22.9940672 C781.389479,19.410679 779.609651,17.1443639 776.821253,17.1443639 Z M791.046592,31.5609756 L787.617456,31.5609756 L787.617456,14.4390244 L790.607568,14.4390244 L798.486276,25.1061305 L798.699855,25.1061305 L798.699855,14.4390244 L802.128992,14.4390244 L802.128992,31.5609756 L799.162611,31.5609756 L791.260172,20.8464074 L791.046592,20.8464074 L791.046592,31.5609756 Z M816.461121,31.5609756 L815.167779,27.4792353 L809.151958,27.4792353 L807.834885,31.5609756 L804.239631,31.5609756 L810.184259,14.4390244 L814.39652,14.4390244 L820.341147,31.5609756 L816.461121,31.5609756 Z M812.070877,17.9986816 L809.923217,24.7145682 L814.408385,24.7145682 L812.284456,17.9986816 L812.070877,17.9986816 Z M828.337087,31.5609756 L824.753698,31.5609756 L824.753698,17.5003296 L819.615926,17.5003296 L819.615926,14.4390244 L833.474859,14.4390244 L833.474859,17.5003296 L828.337087,17.5003296 L828.337087,31.5609756 Z M847.166249,28.4996704 L847.166249,31.5609756 L835.822808,31.5609756 L835.822808,14.4390244 L847.166249,14.4390244 L847.166249,17.5003296 L839.406197,17.5003296 L839.406197,21.4990112 L846.727225,21.4990112 L846.727225,24.3348715 L839.406197,24.3348715 L839.406197,28.4996704 L847.166249,28.4996704 Z" id="DONATE" fill="#007AFF"></path>
            <path d="M1600,67.5 L0,67.5" id="Line-3" stroke="#007AFF" stroke-width="3" stroke-linecap="square" fill-rule="nonzero"></path>
        </g>
    </g>
</svg>