<?xml version="1.0" encoding="UTF-8"?>
<svg width="1432px" height="450px" viewBox="0 0 1432 450" version="1.1" xmlns="http://www.w3.org/2000/svg" xmlns:xlink="http://www.w3.org/1999/xlink" style="background: #FFFFFF;">
    <!-- Generator: Sketch 42 (36781) - http://www.bohemiancoding.com/sketch -->
    <title>request-permission_permissions</title>
    <desc>Created with Sketch.</desc>
    <defs>
        <path d="M55.5881255,10.1454167 C57.0941637,11.63945 57.8471746,13.4440333 57.8471746,15.5564167 L57.8471746,42.3467883 C57.8471746,44.459175 57.0941637,46.2637617 55.5881255,47.7582567 C54.0821038,49.2527523 52.2635901,49.9995413 50.1348946,49.9995413 L7.71412829,49.9995413 C5.58312739,49.9995413 3.76646191,49.2527523 2.25904575,47.7582567 C0.753014973,46.2637617 0,44.459175 0,42.3467883 L0,15.5564167 C0,13.4440333 0.753014973,11.63945 2.25904575,10.1454167 C3.76646191,8.65091667 5.58312739,7.90366667 7.71412829,7.90366667 L14.4616781,7.90366667 L15.998218,3.83806667 C16.3795784,2.86146667 17.0780484,2.01926667 18.0931691,1.30963333 C19.1059629,0.603666667 20.1460354,0.248616667 21.2115383,0.248616667 L36.6374845,0.248616667 C37.7025254,0.248616667 38.7412117,0.603666667 39.7558703,1.30963333 C40.7705124,2.01926667 41.4675961,2.86146667 41.8503395,3.83806667 L43.3868909,7.90366667 L50.1348946,7.90366667 C52.2635901,7.90366667 54.0821038,8.65091667 55.5881255,10.1454167 Z M38.4592328,38.4155967 C41.1010252,35.7940367 42.4212283,32.6385333 42.4212283,28.95275 C42.4212283,25.2651333 41.1010252,22.1096333 38.4592328,19.4899 C35.8174404,16.86835 32.639431,15.5564167 28.9233562,15.5564167 C25.2072815,15.5564167 22.0292721,16.86835 19.3874797,19.4899 C16.7475355,22.1114667 15.4259446,25.2651333 15.4259446,28.95275 C15.4259446,32.6385333 16.7461493,35.7940367 19.3874797,38.4155967 C22.0292721,41.0348617 25.2072815,42.3467883 28.9233562,42.3467883 C32.639431,42.3467883 35.8192887,41.0348617 38.4592328,38.4155967 Z" id="path-1"></path>
        <path d="M62.8731033,0 C63.4811298,0 63.9705882,0.486398892 63.9705882,1.08526316 L63.9705882,48.7762249 C63.9705882,49.3737335 63.4811298,49.8614958 62.8731033,49.8614958 L1.10436738,49.8614958 C0.494966308,49.8614958 0,49.3737335 0,48.7762249 L0,1.08526316 C0,0.486398892 0.494966308,0 1.10436738,0 L62.8731033,0 Z M17.6491988,11.9244321 C14.2616447,11.9244321 11.504173,14.6288089 11.504173,17.9577839 C11.504173,21.286759 14.2616447,23.9965485 17.6491988,23.9965485 C21.036753,23.9965485 23.7887093,21.286759 23.7887093,17.9577839 C23.7887093,14.6288089 21.036753,11.9244321 17.6491988,11.9244321 Z M58.1702359,32.1679197 C58.5797311,31.7235152 58.548024,31.0406482 58.1013146,30.6328227 L44.8626848,18.7151801 C44.6476045,18.5186981 44.3622123,18.4238504 44.0712852,18.4292798 C43.7803859,18.4387812 43.5005006,18.5661219 43.3060857,18.7829086 L32.5023155,30.4052022 L27.2672602,25.2660831 C26.8577761,24.865036 26.1959809,24.8433573 25.7603023,25.218662 L6.99019134,41.4570803 C6.53245118,41.8540665 6.48971049,42.5409972 6.89367919,42.9908227 C7.10876221,43.2347036 7.41622155,43.3566454 7.7236781,43.3566454 C7.98150182,43.3566454 8.24070508,43.2672216 8.45027273,43.0870194 L26.4441534,27.5219861 L37.8077024,38.6836122 C38.2378629,39.106338 38.9327503,39.106338 39.3643015,38.6836122 C39.794462,38.2595291 39.794462,37.576662 39.3643015,37.1539335 L34.0644217,31.9402992 L44.1898533,21.0428809 L56.6095205,32.2316011 C57.0617369,32.6394238 57.7566244,32.6069058 58.1702359,32.1679197 Z" id="path-3"></path>
        <path d="M6.44987143e-10,46.0391336 C0.0027166456,47.2335628 1.00843793,48.3497927 2.45107291,48.3497927 L43.734912,48.3497927 C45.7153222,48.3497927 46.8797572,46.2402758 45.7340176,44.7146147 L39.7956565,36.8044342 L39.7956565,21.3506005 C39.7956565,13.4629342 33.5945823,6.91400132 25.5411947,5.79550263 L25.5411947,2.30492132 C25.5411947,1.03198974 24.4449886,0 23.0929866,0 C21.7408686,0 20.6446624,1.03198974 20.6446624,2.30492132 L20.6446624,5.79550263 C12.5912699,6.91400132 6.39006789,13.4629342 6.39006789,21.3506005 L6.39006789,36.8044342 L0.451840234,44.7146147 C0.141830425,45.1274503 0.00101391667,45.583687 -2.18278728e-11,46.0294317 L-9.03038288e-14,46.0391336 L6.44987143e-10,46.0391336 Z" id="path-5"></path>
    </defs>
    <g id="Page-1" stroke="none" stroke-width="1" fill="none" fill-rule="evenodd">
        <g id="request-permission_permissions">
            <g id="Group-4" transform="translate(166.000000, 72.000000)">
                <g id="Group" transform="translate(0.000000, 6.000000)">
                    <g id="photo-camera">
                        <path d="M28.9230097,17.7087167 C25.8014059,17.7087167 23.1348927,18.8083667 20.9192453,21.00765 C18.7029874,23.2069333 17.5948419,25.8554167 17.5948419,28.9531 C17.5948419,32.0484 18.7029874,34.6962817 20.9192453,36.8955667 C23.1348927,39.0948533 25.8014059,40.194495 28.9230097,40.194495 C32.0445969,40.194495 34.7135195,39.0948533 36.929794,36.8955667 C39.146052,34.6962817 40.254181,32.0484 40.254181,28.9531 C40.254181,25.8554167 39.146052,23.2069333 36.929794,21.00765 C34.7135195,18.8083667 32.0445969,17.7087167 28.9230097,17.7087167 Z" id="Clip-5" fill="#00A3E8"></path>
                        <mask id="mask-2" fill="white">
                            <use xlink:href="#path-1"></use>
                        </mask>
                        <use id="Clip-2" fill="#00A3E8" xlink:href="#path-1"></use>
                    </g>
                    <text id="Camera" font-family="AvenirNext-Medium, Avenir Next" font-size="35" font-weight="400" letter-spacing="2" fill="#657786">
                        <tspan x="84" y="36">Camera</tspan>
                    </text>
                </g>
                <g id="Group-2" transform="translate(380.000000, 6.000000)">
                    <g id="picture">
                        <mask id="mask-4" fill="white">
                            <use xlink:href="#path-3"></use>
                        </mask>
                        <use id="Clip-2" fill="#00A3E8" xlink:href="#path-3"></use>
                    </g>
                    <text id="PhotoLibrary" font-family="AvenirNext-Medium, Avenir Next" font-size="35" font-weight="400" letter-spacing="2" fill="#657786">
                        <tspan x="89" y="36">PhotoLibrary</tspan>
                    </text>
                </g>
                <g id="Group-3" transform="translate(818.000000, 0.000000)">
                    <g id="notification">
                        <path d="M23.0929534,53.3113344 C25.9302465,53.3113344 28.2385631,55.4845393 28.2385631,58.1557128 C28.2385631,60.8267951 25.9302465,63 23.0929534,63 C20.2555774,63 17.9471613,60.8267039 17.9471613,58.1555304 C17.9471613,55.4844482 20.2555774,53.3113344 23.0929534,53.3113344 Z" id="Clip-2" fill="#00A3E8"></path>
                        <mask id="mask-6" fill="white">
                            <use xlink:href="#path-5"></use>
                        </mask>
                        <use id="Clip-5" fill="#00A3E8" xlink:href="#path-5"></use>
                    </g>
                    <text id="Notification" font-family="AvenirNext-Medium, Avenir Next" font-size="35" font-weight="400" letter-spacing="2" fill="#657786">
                        <tspan x="72" y="42">Notification</tspan>
                    </text>
                </g>
            </g>
            <g id="Group-4" transform="translate(166.000000, 193.000000)">
                <g id="Group" transform="translate(0.000000, 3.000000)">
                    <text id="Location" font-family="AvenirNext-Medium, Avenir Next" font-size="35" font-weight="400" letter-spacing="2" fill="#657786">
                        <tspan x="84" y="38">Location</tspan>
                    </text>
                    <path d="M56.235796,0.136153624 C56.7070455,-0.105475029 57.2749238,-0.0209673048 57.6495445,0.353653397 C58.0120441,0.728274098 58.108673,1.29615241 57.8670443,1.76740192 L28.8790825,57.3507148 C28.6615827,57.7494644 28.2508253,58.0032141 27.8037047,58.0032141 C27.7070759,58.0032141 27.6103338,57.9910931 27.513705,57.9669642 C26.9699555,57.8339721 26.5953348,57.3507148 26.5953348,56.7948443 L26.5953348,31.4198709 L1.20824033,31.4198709 C0.761232981,31.4198709 0.338241237,31.1661211 0.132862545,30.7673716 C-0.169144951,30.1752511 0.0603626212,29.4502518 0.652483095,29.1361233 L56.235796,0.136153624 Z" id="compass" fill="#00A3E8"></path>
                </g>
                <g id="Group-2" transform="translate(390.000000, 0.000000)">
                    <text id="Microphone" font-family="AvenirNext-Medium, Avenir Next" font-size="35" font-weight="400" letter-spacing="2" fill="#657786">
                        <tspan x="79" y="41">Microphone</tspan>
                    </text>
                    <path d="M23.1935919,39.8003816 C28.8201702,39.8003816 33.1218735,35.4771367 33.1218735,29.8399237 L33.1218735,9.93973288 C33.1218735,4.30666491 28.8201702,0 23.1935919,0 C17.5463125,0 13.2446092,4.30666491 13.2446092,9.93973288 L13.2446092,29.8399237 C13.2446092,35.4771367 17.5463125,39.8003816 23.1935919,39.8003816 Z M40.7399044,29.8399237 C40.7399044,39.8003816 32.459436,46.7598526 23.1935919,46.7598526 C13.9070466,46.7598526 5.62657826,39.8003816 5.62657826,29.8399237 L0,29.8399237 C0,41.1267847 8.94290584,50.403316 19.8772643,52.0571748 L19.8772643,63 L26.4892183,63 L26.4892183,52.0571748 C37.4235768,50.403316 46.3664826,41.1267847 46.3664826,29.8399237 L40.7399044,29.8399237 Z" id="microphone-of-voice" fill="#00A3E8"></path>
                </g>
                <g id="Group-3" transform="translate(816.000000, 4.000000)">
                    <g id="calendar" fill="#00A3E8">
                        <path d="M9.81164634,0.0173414634 C8.85062195,0.0173414634 8.07519512,0.784536585 8.07519512,1.72865854 L8.07519512,8.85117073 C8.07519512,9.79529268 8.85062195,10.5622683 9.81164634,10.5622683 C10.772561,10.5622683 11.5480976,9.79529268 11.5480976,8.85117073 L11.5480976,1.72865854 C11.5480976,0.784536585 10.772561,0.0173414634 9.81164634,0.0173414634" id="Fill-1"></path>
                        <path d="M44.135561,0.0173414634 C43.1747561,0.0173414634 42.3991098,0.784536585 42.3991098,1.72865854 L42.3991098,8.85117073 C42.3991098,9.79529268 43.1746463,10.5622683 44.135561,10.5622683 C45.0964756,10.5622683 45.872122,9.79529268 45.872122,8.85117073 L45.872122,1.72865854 C45.872122,0.784536585 45.0964756,0.0173414634 44.135561,0.0173414634" id="Fill-2"></path>
                        <path d="M47.5578659,4.44292683 L47.5578659,8.85106098 C47.5578659,10.7245976 46.0225976,12.2482317 44.136,12.2482317 C42.2484146,12.2482317 40.7132561,10.7245976 40.7132561,8.85106098 L40.7132561,4.44292683 L13.234061,4.44292683 L13.234061,8.85106098 C13.234061,10.7245976 11.6987927,12.2482317 9.81164634,12.2482317 C7.92460976,12.2482317 6.38934146,10.7245976 6.38934146,8.85106098 L6.38934146,4.44292683 L0,4.44292683 L0,15.7631707 L53.9473171,15.7631707 L53.9473171,4.44292683 L47.5578659,4.44292683 Z" id="Fill-3"></path>
                        <path d="M39.6771585,42.5836098 C38.3159634,43.8056341 36.6454756,44.4156585 34.6608659,44.4156585 C32.0708415,44.4156585 30.0054512,43.5522073 28.4604146,41.8255244 L30.1984024,39.4552317 C30.3440488,39.6031829 30.5415,39.7781341 30.7903171,39.9800854 C31.0371585,40.1819268 31.5484024,40.4531341 32.3197683,40.7918415 C33.0912439,41.1326341 33.9342805,41.3030854 34.8538171,41.3030854 C35.7732439,41.3030854 36.6073902,41.0272683 37.3609756,40.4757439 C38.1143415,39.9241098 38.4911341,39.1210244 38.4911341,38.065061 C38.4911341,37.008878 38.0919512,36.1903171 37.2938049,35.6116829 C36.4931341,35.0331585 35.4841463,34.7438415 34.2619024,34.7438415 C33.0397683,34.7438415 31.8781098,35.0466585 30.7770366,35.6542683 L29.3979512,34.1654268 L29.3979512,24.9061829 L40.4759634,24.9061829 L40.4759634,27.8548902 L32.346878,27.8548902 L32.346878,32.5955854 C33.1541341,32.1537073 34.073561,31.9340854 35.1028537,31.9340854 C36.903622,31.9340854 38.4554634,32.4767195 39.7582683,33.5597927 C41.0634878,34.6428659 41.7159878,36.1139268 41.7159878,37.9684756 C41.7156585,39.8230244 41.0362683,41.3614756 39.6771585,42.5836098 Z M25.6236585,44.1959268 L12.4535854,44.1959268 L12.4535854,41.4399512 L18.2952439,35.5712927 C19.5981585,34.2482927 20.5264756,33.2101098 21.0782195,32.4564146 C21.6297439,31.7052439 21.9034756,30.9405732 21.9034756,30.1690976 C21.9034756,29.3978415 21.6097683,28.7429268 21.0221341,28.2002927 C20.4347195,27.6576585 19.6901341,27.3862317 18.7910122,27.3862317 C17.2099756,27.3862317 15.898061,28.1959024 14.850878,29.8127195 L12.2316585,28.2967683 C13.0771098,27.0296341 14.0100366,26.0744268 15.0303293,25.4308171 C16.0483171,24.7870976 17.3625366,24.4666098 18.9703537,24.4666098 C20.5782805,24.4666098 21.986561,24.975439 23.1996951,25.9959512 C24.4130488,27.0140488 25.0183537,28.4066341 25.0183537,30.1690976 C25.0183537,31.1626098 24.7605366,32.1089268 24.2469878,33.0082683 C23.733439,33.9095854 22.7870122,35.0667439 21.4080366,36.4795244 L16.889378,41.0812683 L25.623878,41.0812683 L25.623878,44.1959268 L25.6236585,44.1959268 Z M0,17.4490244 L0,49.5650854 C0,51.5266463 1.61462195,53.1219512 3.59934146,53.1219512 L50.3484146,53.1219512 C52.3331341,53.1219512 53.9473171,51.5266463 53.9473171,49.5650854 L53.9473171,17.4490244 L0,17.4490244 L0,17.4490244 Z" id="Fill-4"></path>
                    </g>
                    <text id="Calendar" font-family="AvenirNext-Medium, Avenir Next" font-size="35" font-weight="400" letter-spacing="2" fill="#657786">
                        <tspan x="74" y="37">Calendar</tspan>
                    </text>
                </g>
            </g>
            <g id="Group-7" transform="translate(171.000000, 314.000000)">
                <g id="Group-5">
                    <path d="M48.9860226,36.8203258 L48.9860226,3.12973484 C48.9860226,1.40157277 47.5923264,0 45.8723082,0 L3.11371439,0 C1.39432771,0 0,1.40157277 0,3.12973484 L0,11.6589843 C0.102301218,11.6464476 0.206023286,11.6372434 0.311481949,11.6372434 L5.91594683,11.6372434 C7.291172,11.6372434 8.40669731,12.7585651 8.40669731,14.1409361 C8.40669731,15.5239418 7.291172,16.6452635 5.91594683,16.6452635 L0.311481949,16.6452635 C0.205391797,16.6452635 0.102301218,16.6360593 0,16.6236813 L0,23.8986247 C0.102301218,23.885612 0.206023286,23.8770426 0.311481949,23.8770426 L5.91594683,23.8770426 C7.291172,23.8770426 8.40669731,24.9977295 8.40669731,26.3807352 C8.40669731,27.7631062 7.291172,28.8844279 5.91594683,28.8844279 L0.311481949,28.8844279 C0.205391797,28.8844279 0.102301218,28.8758585 0,28.8628457 L0,36.1377891 C0.102301218,36.1247763 0.206023286,36.1162069 0.311481949,36.1162069 L5.91594683,36.1162069 C7.291172,36.1162069 8.40669731,37.2368938 8.40669731,38.6198996 C8.40669731,40.0022705 7.291172,41.1235922 5.91594683,41.1235922 L0.311481949,41.1235922 C0.205391797,41.1235922 0.102301218,41.1150228 0,41.10201 L0,48.3769534 C0.102301218,48.3639407 0.206023286,48.3553713 0.311481949,48.3553713 L5.91594683,48.3553713 C7.291172,48.3553713 8.40669731,49.4760582 8.40669731,50.8590639 C8.40669731,52.2414349 7.291172,53.3627566 5.91594683,53.3627566 L0.311481949,53.3627566 C0.205391797,53.3627566 0.102301218,53.3541872 0,53.3411744 L0,61.8708999 C0,63.599062 1.39432771,65 3.11371439,65 L45.8723082,65 C47.5923264,65 48.9860226,63.599062 48.9860226,61.8708999 L48.9860226,54.5034387 C50.3007827,54.1370176 51.2677502,52.9282563 51.2677502,51.4901843 L51.2677502,39.833739 C51.2677502,38.3948735 50.3014142,37.186747 48.9860226,36.8203258 Z M33.833444,21.4420638 L19.3035136,21.4420638 C17.9282885,21.4420638 16.8127631,20.3207421 16.8127631,18.9383711 C16.8127631,17.5553654 17.9282885,16.4345198 19.3035136,16.4345198 L33.833444,16.4345198 C35.2091428,16.4345198 36.324826,17.5553654 36.324826,18.9383711 C36.324826,20.3213769 35.2091428,21.4420638 33.833444,21.4420638 Z" id="notebook" fill="#00A3E8"></path>
                    <text id="Сontacts" font-family="AvenirNext-Medium, Avenir Next" font-size="35" font-weight="400" letter-spacing="2" fill="#657786">
                        <tspan x="79" y="43">Сontacts</tspan>
                    </text>
                </g>
                <g id="Group-6" transform="translate(378.000000, 6.000000)">
                    <text id="Reminders" font-family="AvenirNext-Medium, Avenir Next" font-size="35" font-weight="400" letter-spacing="2" fill="#657786">
                        <tspan x="86" y="35">Reminders</tspan>
                    </text>
                    <g id="listing-option" transform="translate(0.000000, 1.000000)" fill="#00A3E8">
                        <path d="M62.3451087,40.9320652 C62.6527174,40.9320652 62.9184783,41.0445652 63.1413043,41.2673913 C63.3663043,41.4923913 63.4788043,41.7576087 63.4788043,42.0657609 L63.4788043,48.8673913 C63.4788043,49.1733696 63.3663043,49.438587 63.1413043,49.663587 C62.9184783,49.888587 62.6527174,49.998913 62.3451087,49.998913 L14.7353261,49.998913 C14.4277174,49.998913 14.1641304,49.888587 13.9391304,49.663587 C13.7141304,49.438587 13.6016304,49.1733696 13.6016304,48.8673913 L13.6016304,42.0657609 C13.6016304,41.7576087 13.7141304,41.4923913 13.9391304,41.2673913 C14.1641304,41.0445652 14.4298913,40.9320652 14.7353261,40.9320652 L62.3451087,40.9320652 Z M62.3451087,27.3298913 C62.6527174,27.3298913 62.9184783,27.4423913 63.1413043,27.6657609 C63.3663043,27.8907609 63.4788043,28.1559783 63.4788043,28.461413 L63.4788043,35.263587 C63.4788043,35.5711957 63.3663043,35.8369565 63.1413043,36.0619565 C62.9184783,36.2847826 62.6527174,36.3972826 62.3451087,36.3972826 L14.7353261,36.3972826 C14.4277174,36.3972826 14.1641304,36.2847826 13.9391304,36.0619565 C13.7141304,35.8369565 13.6016304,35.5711957 13.6016304,35.263587 L13.6016304,28.461413 C13.6016304,28.1559783 13.7141304,27.8907609 13.9391304,27.6657609 C14.1641304,27.4423913 14.4298913,27.3298913 14.7353261,27.3298913 L62.3451087,27.3298913 Z M63.1413043,0.461956522 C63.3663043,0.684782609 63.4788043,0.95 63.4788043,1.25815217 L63.4788043,8.05978261 C63.4788043,8.36576087 63.3663043,8.63097826 63.1413043,8.85597826 C62.9184783,9.08097826 62.6527174,9.19347826 62.3451087,9.19347826 L14.7353261,9.19347826 C14.4277174,9.19347826 14.1641304,9.08097826 13.9391304,8.85597826 C13.7141304,8.63097826 13.6016304,8.36576087 13.6016304,8.05978261 L13.6016304,1.25815217 C13.6016304,0.95 13.7141304,0.684782609 13.9391304,0.461956522 C14.1641304,0.236956522 14.4298913,0.124456522 14.7353261,0.124456522 L62.3451087,0.124456522 C62.6527174,0.124456522 62.9184783,0.236956522 63.1413043,0.461956522 Z M62.3451087,13.726087 C62.6527174,13.726087 62.9184783,13.838587 63.1413043,14.063587 C63.3663043,14.288587 63.4788043,14.5543478 63.4788043,14.8597826 L63.4788043,21.6619565 C63.4788043,21.9695652 63.3663043,22.2347826 63.1413043,22.4581522 C62.9184783,22.6831522 62.6527174,22.7956522 62.3451087,22.7956522 L14.7353261,22.7956522 C14.4277174,22.7956522 14.1641304,22.6831522 13.9391304,22.4581522 C13.7141304,22.2347826 13.6016304,21.9695652 13.6016304,21.6619565 L13.6016304,14.8597826 C13.6016304,14.5543478 13.7141304,14.288587 13.9391304,14.063587 C14.1641304,13.838587 14.4298913,13.726087 14.7353261,13.726087 L62.3451087,13.726087 Z M7.93586957,13.726087 C8.24130435,13.726087 8.50652174,13.838587 8.73152174,14.063587 C8.95652174,14.288587 9.06956522,14.5543478 9.06956522,14.8597826 L9.06956522,21.6619565 C9.06956522,21.9695652 8.95652174,22.2347826 8.73152174,22.4581522 C8.50652174,22.6831522 8.24130435,22.7956522 7.93586957,22.7956522 L1.13369565,22.7956522 C0.826086957,22.7956522 0.560326087,22.6831522 0.3375,22.4581522 C0.1125,22.2347826 0,21.9695652 0,21.6619565 L0,14.8597826 C0,14.5543478 0.1125,14.288587 0.3375,14.063587 C0.560326087,13.838587 0.826086957,13.726087 1.13369565,13.726087 L7.93586957,13.726087 Z M7.93586957,40.9320652 C8.24130435,40.9320652 8.50652174,41.0445652 8.73152174,41.2673913 C8.95652174,41.4923913 9.06956522,41.7576087 9.06956522,42.0657609 L9.06956522,48.8673913 C9.06956522,49.1733696 8.95652174,49.438587 8.73152174,49.663587 C8.50652174,49.888587 8.24130435,49.998913 7.93586957,49.998913 L1.13369565,49.998913 C0.826086957,49.998913 0.560326087,49.888587 0.3375,49.663587 C0.1125,49.438587 0,49.1733696 0,48.8673913 L0,42.0657609 C0,41.7576087 0.1125,41.4923913 0.3375,41.2673913 C0.560326087,41.0445652 0.826086957,40.9320652 1.13369565,40.9320652 L7.93586957,40.9320652 Z M7.93586957,27.3298913 C8.24130435,27.3298913 8.50652174,27.4407609 8.73152174,27.6657609 C8.95652174,27.8907609 9.06956522,28.1559783 9.06956522,28.461413 L9.06956522,35.263587 C9.06956522,35.5711957 8.95652174,35.8369565 8.73152174,36.0619565 C8.50652174,36.2847826 8.24130435,36.3972826 7.93586957,36.3972826 L1.13369565,36.3972826 C0.826086957,36.3972826 0.560326087,36.2847826 0.3375,36.0619565 C0.1125,35.8369565 0,35.5711957 0,35.263587 L0,28.461413 C0,28.1559783 0.1125,27.8907609 0.3375,27.6657609 C0.560326087,27.4423913 0.826086957,27.3298913 1.13369565,27.3298913 L7.93586957,27.3298913 Z M7.93586957,0.124456522 C8.24130435,0.124456522 8.50652174,0.236956522 8.73152174,0.461956522 C8.95652174,0.684782609 9.06956522,0.95 9.06956522,1.25815217 L9.06956522,8.05978261 C9.06956522,8.36576087 8.95652174,8.63097826 8.73152174,8.85597826 C8.50652174,9.08097826 8.24130435,9.19347826 7.93586957,9.19347826 L1.13369565,9.19347826 C0.826086957,9.19347826 0.560326087,9.08097826 0.3375,8.85597826 C0.1125,8.63097826 0,8.36576087 0,8.05978261 L0,1.25815217 C0,0.95 0.1125,0.684782609 0.3375,0.461956522 C0.560326087,0.236956522 0.826086957,0.124456522 1.13369565,0.124456522 L7.93586957,0.124456522 Z" id="Combined-Shape"></path>
                    </g>
                </g>
            </g>
        </g>
    </g>
</svg>