<?xml version="1.0" encoding="UTF-8"?>
<svg width="1600px" height="131px" viewBox="0 0 1600 131" version="1.1" xmlns="http://www.w3.org/2000/svg" xmlns:xlink="http://www.w3.org/1999/xlink">
    <!-- Generator: Sketch 52.3 (67297) - http://www.bohemiancoding.com/sketch -->
    <title>request-permission - donate - close</title>
    <desc>Created with Sketch.</desc>
    <g id="request-permission---donate---close" stroke="none" stroke-width="1" fill="none" fill-rule="evenodd">
        <rect fill="#FFFFFF" x="0" y="0" width="1600" height="131"></rect>
        <path d="M1600,32.5 L0,32.5" id="Line-3" stroke="#007AFF" stroke-width="3" stroke-linecap="square" fill-rule="nonzero"></path>
        <path d="M752,71.4271589 L758.739618,71.4271589 C763.829927,71.4271589 766.772577,74.5121951 766.772577,79.875412 C766.772577,85.4403428 763.865524,88.5609756 758.739618,88.5609756 L752,88.5609756 L752,71.4271589 Z M755.583388,74.4884641 L755.583388,85.4996704 L758.170073,85.4996704 C761.338167,85.4996704 763.117996,83.5537245 763.117996,79.9347396 C763.117996,76.4700066 761.27884,74.4884641 758.170073,74.4884641 L755.583388,74.4884641 Z M776.821252,71 C781.875966,71 785.044061,74.4528675 785.044061,79.9940672 C785.044061,85.5471325 781.887831,89 776.821252,89 C771.742808,89 768.574713,85.5471325 768.574713,79.9940672 C768.574713,74.441002 771.79027,71 776.821252,71 Z M776.821252,74.1443639 C774.04472,74.1443639 772.24116,76.410679 772.24116,79.9940672 C772.24116,83.56559 774.009123,85.8556361 776.821252,85.8556361 C779.609651,85.8556361 781.389479,83.56559 781.389479,79.9940672 C781.389479,76.410679 779.609651,74.1443639 776.821252,74.1443639 Z M791.046592,88.5609756 L787.617456,88.5609756 L787.617456,71.4390244 L790.607568,71.4390244 L798.486276,82.1061305 L798.699855,82.1061305 L798.699855,71.4390244 L802.128991,71.4390244 L802.128991,88.5609756 L799.16261,88.5609756 L791.260171,77.8464074 L791.046592,77.8464074 L791.046592,88.5609756 Z M816.461121,88.5609756 L815.167779,84.4792353 L809.151958,84.4792353 L807.834885,88.5609756 L804.239631,88.5609756 L810.184258,71.4390244 L814.396519,71.4390244 L820.341147,88.5609756 L816.461121,88.5609756 Z M812.070877,74.9986816 L809.923217,81.7145682 L814.408385,81.7145682 L812.284456,74.9986816 L812.070877,74.9986816 Z M828.337086,88.5609756 L824.753698,88.5609756 L824.753698,74.5003296 L819.615926,74.5003296 L819.615926,71.4390244 L833.474858,71.4390244 L833.474858,74.5003296 L828.337086,74.5003296 L828.337086,88.5609756 Z M847.166249,85.4996704 L847.166249,88.5609756 L835.822808,88.5609756 L835.822808,71.4390244 L847.166249,71.4390244 L847.166249,74.5003296 L839.406196,74.5003296 L839.406196,78.4990112 L846.727225,78.4990112 L846.727225,81.3348715 L839.406196,81.3348715 L839.406196,85.4996704 L847.166249,85.4996704 Z" id="DONATE" fill="#007AFF"></path>
    </g>
</svg>