<?xml version="1.0" encoding="UTF-8"?>
<svg width="1600px" height="300px" viewBox="0 0 1600 300" version="1.1" xmlns="http://www.w3.org/2000/svg" xmlns:xlink="http://www.w3.org/1999/xlink" style="background: #FFFFFF;">
    <!-- Generator: Sketch 42 (36781) - http://www.bohemiancoding.com/sketch -->
    <title>request-permission_baner</title>
    <desc>Created with Sketch.</desc>
    <defs>
        <polygon id="path-1" points="0.0208791182 0.154896677 0.0208791182 77.0991232 98.6781924 77.0991232 98.6781924 0.154896677 0.0208791182 0.154896677"></polygon>
    </defs>
    <g id="Page-1" stroke="none" stroke-width="1" fill="none" fill-rule="evenodd">
        <g id="request-permission_baner">
            <g id="Group-3" transform="translate(399.000000, 80.000000)">
                <g id="Group-2" transform="translate(150.000000, 22.000000)">
                    <g id="Group">
                        <path d="M11.458,92.964 C11.0953315,92.3746637 10.5853366,91.8930019 9.928,91.519 C9.27066338,91.1449981 8.53400408,90.958 7.718,90.958 C7.35533152,90.958 6.99266848,90.9976663 6.63,91.077 C6.26733152,91.1563337 5.94433475,91.2809992 5.661,91.451 C5.37766525,91.6210009 5.15100085,91.836332 4.981,92.097 C4.81099915,92.357668 4.726,92.6806647 4.726,93.066 C4.726,93.7460034 5.03199694,94.2503317 5.644,94.579 C6.25600306,94.9076683 7.17399388,95.2079986 8.398,95.48 C9.16867052,95.6613342 9.88266338,95.8766654 10.54,96.126 C11.1973366,96.3753346 11.7696642,96.6869981 12.257,97.061 C12.7443358,97.4350019 13.1239986,97.8826641 13.396,98.404 C13.6680014,98.9253359 13.804,99.5373298 13.804,100.24 C13.804,101.192005 13.6226685,101.996663 13.26,102.654 C12.8973315,103.311337 12.4156697,103.849665 11.815,104.269 C11.2143303,104.688335 10.5286705,104.988666 9.758,105.17 C8.98732948,105.351334 8.19400408,105.442 7.378,105.442 C6.15399388,105.442 4.95833917,105.204002 3.791,104.728 C2.62366083,104.251998 1.65467052,103.526672 0.884,102.552 L3.162,100.614 C3.59266882,101.24867 4.18766287,101.781331 4.947,102.212 C5.70633713,102.642669 6.5393288,102.858 7.446,102.858 C7.85400204,102.858 8.24499813,102.818334 8.619,102.739 C8.99300187,102.659666 9.33299847,102.529334 9.639,102.348 C9.94500153,102.166666 10.1886658,101.928668 10.37,101.634 C10.5513342,101.339332 10.642,100.965336 10.642,100.512 C10.642,99.7639963 10.2850036,99.2086685 9.571,98.846 C8.85699643,98.4833315 7.80867358,98.1433349 6.426,97.826 C5.88199728,97.6899993 5.33233611,97.5256676 4.777,97.333 C4.22166389,97.1403324 3.7173356,96.8740017 3.264,96.534 C2.8106644,96.1939983 2.44233475,95.7690026 2.159,95.259 C1.87566525,94.7489975 1.734,94.1200037 1.734,93.372 C1.734,92.5106624 1.90966491,91.7683365 2.261,91.145 C2.61233509,90.5216636 3.0713305,90.0116687 3.638,89.615 C4.2046695,89.2183314 4.85066304,88.9236676 5.576,88.731 C6.30133696,88.5383324 7.04932948,88.442 7.82,88.442 C8.97600578,88.442 10.092328,88.6686644 11.169,89.122 C12.2456721,89.5753356 13.0786637,90.2326624 13.668,91.094 L11.458,92.964 Z M23.0228571,105 L19.8268571,105 L19.8268571,88.884 L23.0228571,88.884 L23.0228571,105 Z M23.5668571,83.07 C23.5668571,83.6593363 23.3571926,84.1466647 22.9378571,84.532 C22.5185217,84.9173353 22.0141934,85.11 21.4248571,85.11 C20.8355209,85.11 20.3368592,84.9116687 19.9288571,84.515 C19.5208551,84.1183314 19.3168571,83.6366695 19.3168571,83.07 C19.3168571,82.4806637 19.5208551,81.9876687 19.9288571,81.591 C20.3368592,81.1943314 20.8355209,80.996 21.4248571,80.996 C22.0141934,80.996 22.5185217,81.1943314 22.9378571,81.591 C23.3571926,81.9876687 23.5668571,82.4806637 23.5668571,83.07 Z M33.6697143,91.536 C34.0777163,90.6746624 34.7293765,89.9436697 35.6247143,89.343 C36.5200521,88.7423303 37.5797082,88.442 38.8037143,88.442 C39.8917197,88.442 40.8720433,88.6913308 41.7447143,89.19 C42.6173853,89.6886692 43.3030451,90.5159942 43.8017143,91.672 C44.345717,90.6293281 45.1050428,89.8303361 46.0797143,89.275 C47.0543858,88.7196639 48.1197085,88.442 49.2757143,88.442 C50.3183862,88.442 51.2137106,88.6176649 51.9617143,88.969 C52.709718,89.3203351 53.3330451,89.7906637 53.8317143,90.38 C54.3303835,90.9693363 54.6987131,91.6606627 54.9367143,92.454 C55.1747155,93.2473373 55.2937143,94.0973288 55.2937143,95.004 L55.2937143,105 L52.0977143,105 L52.0977143,96.058 C52.0977143,95.4006634 52.0410482,94.7773363 51.9277143,94.188 C51.8143804,93.5986637 51.6217157,93.0773356 51.3497143,92.624 C51.0777129,92.1706644 50.7150499,91.8080014 50.2617143,91.536 C49.8083787,91.2639986 49.2303845,91.128 48.5277143,91.128 C47.8023773,91.128 47.1790502,91.2809985 46.6577143,91.587 C46.1363784,91.8930015 45.7113826,92.2896642 45.3827143,92.777 C45.054046,93.2643358 44.8160484,93.8139969 44.6687143,94.426 C44.5213802,95.0380031 44.4477143,95.6613302 44.4477143,96.296 L44.4477143,105 L41.2517143,105 L41.2517143,95.412 C41.2517143,94.7773302 41.1950482,94.1993359 41.0817143,93.678 C40.9683804,93.1566641 40.7757157,92.7090019 40.5037143,92.335 C40.2317129,91.9609981 39.8803831,91.6663344 39.4497143,91.451 C39.0190455,91.2356656 38.4863841,91.128 37.8517143,91.128 C36.6730417,91.128 35.6927182,91.6096619 34.9107143,92.573 C34.1287104,93.5363382 33.7377143,94.8226586 33.7377143,96.432 L33.7377143,105 L30.5417143,105 L30.5417143,92.352 C30.5417143,91.9213312 30.5303811,91.3660034 30.5077143,90.686 C30.4850475,90.0059966 30.4510479,89.4053359 30.4057143,88.884 L33.4317143,88.884 C33.4770479,89.292002 33.5110475,89.7509975 33.5337143,90.261 C33.5563811,90.7710026 33.5677143,91.1959983 33.5677143,91.536 L33.6697143,91.536 Z M65.8385714,113.16 L62.6425714,113.16 L62.6425714,88.884 L65.7705714,88.884 L65.7705714,91.4 L65.8725714,91.4 C66.3939074,90.5386624 67.1588997,89.8303361 68.1675714,89.275 C69.1762431,88.7196639 70.3492314,88.442 71.6865714,88.442 C72.8879108,88.442 73.9815665,88.6573312 74.9675714,89.088 C75.9535764,89.5186688 76.8035679,90.1193295 77.5175714,90.89 C78.231575,91.6606705 78.7812362,92.5616615 79.1665714,93.593 C79.5519067,94.6243385 79.7445714,95.7293274 79.7445714,96.908 C79.7445714,98.0866726 79.5519067,99.1973281 79.1665714,100.24 C78.7812362,101.282672 78.2372416,102.189329 77.5345714,102.96 C76.8319013,103.730671 75.9819098,104.336998 74.9845714,104.779 C73.9872331,105.221002 72.8652443,105.442 71.6185714,105.442 C70.4625657,105.442 69.3745765,105.192669 68.3545714,104.694 C67.3345663,104.195331 66.5299077,103.492671 65.9405714,102.586 L65.8385714,102.586 L65.8385714,113.16 Z M76.4465714,96.908 C76.4465714,96.1599963 76.3332392,95.4346702 76.1065714,94.732 C75.8799036,94.0293298 75.539907,93.4060027 75.0865714,92.862 C74.6332358,92.3179973 74.0722414,91.8873349 73.4035714,91.57 C72.7349014,91.2526651 71.9585759,91.094 71.0745714,91.094 C70.2585674,91.094 69.5162414,91.2526651 68.8475714,91.57 C68.1789014,91.8873349 67.6065738,92.3179973 67.1305714,92.862 C66.6545691,93.4060027 66.2862394,94.0293298 66.0255714,94.732 C65.7649035,95.4346702 65.6345714,96.1713295 65.6345714,96.942 C65.6345714,97.7126705 65.7649035,98.4493298 66.0255714,99.152 C66.2862394,99.8546702 66.6545691,100.472331 67.1305714,101.005 C67.6065738,101.537669 68.1789014,101.962665 68.8475714,102.28 C69.5162414,102.597335 70.2585674,102.756 71.0745714,102.756 C71.9585759,102.756 72.7349014,102.591668 73.4035714,102.263 C74.0722414,101.934332 74.6332358,101.498003 75.0865714,100.954 C75.539907,100.409997 75.8799036,99.7866702 76.1065714,99.084 C76.3332392,98.3813298 76.4465714,97.6560037 76.4465714,96.908 Z M89.4054286,105 L86.2094286,105 L86.2094286,79.296 L89.4054286,79.296 L89.4054286,105 Z M108.722286,95.514 C108.699619,94.8793302 108.591953,94.2843361 108.399286,93.729 C108.206618,93.1736639 107.923288,92.692002 107.549286,92.284 C107.175284,91.875998 106.710622,91.5530012 106.155286,91.315 C105.59995,91.0769988 104.948289,90.958 104.200286,90.958 C103.520282,90.958 102.879955,91.0769988 102.279286,91.315 C101.678616,91.5530012 101.157288,91.875998 100.715286,92.284 C100.273284,92.692002 99.9106205,93.1736639 99.6272857,93.729 C99.343951,94.2843361 99.1796193,94.8793302 99.1342857,95.514 L108.722286,95.514 Z M111.952286,96.806 L111.952286,97.35 C111.952286,97.5313342 111.940953,97.7126658 111.918286,97.894 L99.1342857,97.894 C99.1569525,98.5740034 99.309951,99.2143303 99.5932857,99.815 C99.8766205,100.41567 100.256283,100.936998 100.732286,101.379 C101.208288,101.821002 101.757949,102.166665 102.381286,102.416 C103.004622,102.665335 103.667616,102.79 104.370286,102.79 C105.458291,102.79 106.398948,102.552002 107.192286,102.076 C107.985623,101.599998 108.60895,101.022003 109.062286,100.342 L111.306286,102.144 C110.444948,103.277339 109.430625,104.110331 108.263286,104.643 C107.095947,105.175669 105.798293,105.442 104.370286,105.442 C103.14628,105.442 102.012958,105.238002 100.970286,104.83 C99.9276139,104.421998 99.0322895,103.84967 98.2842857,103.113 C97.536282,102.37633 96.9469546,101.486672 96.5162857,100.444 C96.0856169,99.4013281 95.8702857,98.2453397 95.8702857,96.976 C95.8702857,95.7293271 96.0799503,94.5790053 96.4992857,93.525 C96.9186212,92.4709947 97.502282,91.5700037 98.2502857,90.822 C98.9982895,90.0739963 99.8822806,89.4903354 100.902286,89.071 C101.922291,88.6516646 103.021613,88.442 104.200286,88.442 C105.378958,88.442 106.449948,88.6346647 107.413286,89.02 C108.376624,89.4053353 109.192616,89.960663 109.861286,90.686 C110.529956,91.411337 111.045617,92.2896615 111.408286,93.321 C111.770954,94.3523385 111.952286,95.5139935 111.952286,96.806 Z M131.988,113.16 L128.792,113.16 L128.792,88.884 L131.92,88.884 L131.92,91.4 L132.022,91.4 C132.543336,90.5386624 133.308328,89.8303361 134.317,89.275 C135.325672,88.7196639 136.49866,88.442 137.836,88.442 C139.037339,88.442 140.130995,88.6573312 141.117,89.088 C142.103005,89.5186688 142.952996,90.1193295 143.667,90.89 C144.381004,91.6606705 144.930665,92.5616615 145.316,93.593 C145.701335,94.6243385 145.894,95.7293274 145.894,96.908 C145.894,98.0866726 145.701335,99.1973281 145.316,100.24 C144.930665,101.282672 144.38667,102.189329 143.684,102.96 C142.98133,103.730671 142.131338,104.336998 141.134,104.779 C140.136662,105.221002 139.014673,105.442 137.768,105.442 C136.611994,105.442 135.524005,105.192669 134.504,104.694 C133.483995,104.195331 132.679336,103.492671 132.09,102.586 L131.988,102.586 L131.988,113.16 Z M142.596,96.908 C142.596,96.1599963 142.482668,95.4346702 142.256,94.732 C142.029332,94.0293298 141.689336,93.4060027 141.236,92.862 C140.782664,92.3179973 140.22167,91.8873349 139.553,91.57 C138.88433,91.2526651 138.108004,91.094 137.224,91.094 C136.407996,91.094 135.66567,91.2526651 134.997,91.57 C134.32833,91.8873349 133.756002,92.3179973 133.28,92.862 C132.803998,93.4060027 132.435668,94.0293298 132.175,94.732 C131.914332,95.4346702 131.784,96.1713295 131.784,96.942 C131.784,97.7126705 131.914332,98.4493298 132.175,99.152 C132.435668,99.8546702 132.803998,100.472331 133.28,101.005 C133.756002,101.537669 134.32833,101.962665 134.997,102.28 C135.66567,102.597335 136.407996,102.756 137.224,102.756 C138.108004,102.756 138.88433,102.591668 139.553,102.263 C140.22167,101.934332 140.782664,101.498003 141.236,100.954 C141.689336,100.409997 142.029332,99.7866702 142.256,99.084 C142.482668,98.3813298 142.596,97.6560037 142.596,96.908 Z M164.088857,95.514 C164.06619,94.8793302 163.958525,94.2843361 163.765857,93.729 C163.57319,93.1736639 163.289859,92.692002 162.915857,92.284 C162.541855,91.875998 162.077193,91.5530012 161.521857,91.315 C160.966521,91.0769988 160.314861,90.958 159.566857,90.958 C158.886854,90.958 158.246527,91.0769988 157.645857,91.315 C157.045188,91.5530012 156.523859,91.875998 156.081857,92.284 C155.639855,92.692002 155.277192,93.1736639 154.993857,93.729 C154.710522,94.2843361 154.546191,94.8793302 154.500857,95.514 L164.088857,95.514 Z M167.318857,96.806 L167.318857,97.35 C167.318857,97.5313342 167.307524,97.7126658 167.284857,97.894 L154.500857,97.894 C154.523524,98.5740034 154.676522,99.2143303 154.959857,99.815 C155.243192,100.41567 155.622855,100.936998 156.098857,101.379 C156.57486,101.821002 157.124521,102.166665 157.747857,102.416 C158.371194,102.665335 159.034187,102.79 159.736857,102.79 C160.824863,102.79 161.76552,102.552002 162.558857,102.076 C163.352194,101.599998 163.975522,101.022003 164.428857,100.342 L166.672857,102.144 C165.81152,103.277339 164.797196,104.110331 163.629857,104.643 C162.462518,105.175669 161.164864,105.442 159.736857,105.442 C158.512851,105.442 157.379529,105.238002 156.336857,104.83 C155.294185,104.421998 154.398861,103.84967 153.650857,103.113 C152.902853,102.37633 152.313526,101.486672 151.882857,100.444 C151.452188,99.4013281 151.236857,98.2453397 151.236857,96.976 C151.236857,95.7293271 151.446522,94.5790053 151.865857,93.525 C152.285193,92.4709947 152.868853,91.5700037 153.616857,90.822 C154.364861,90.0739963 155.248852,89.4903354 156.268857,89.071 C157.288862,88.6516646 158.388185,88.442 159.566857,88.442 C160.74553,88.442 161.816519,88.6346647 162.779857,89.02 C163.743195,89.4053353 164.559187,89.960663 165.227857,90.686 C165.896527,91.411337 166.412189,92.2896615 166.774857,93.321 C167.137526,94.3523385 167.318857,95.5139935 167.318857,96.806 Z M173.715714,92.352 C173.715714,91.9213312 173.704381,91.3660034 173.681714,90.686 C173.659048,90.0059966 173.625048,89.4053359 173.579714,88.884 L176.605714,88.884 C176.651048,89.292002 176.685048,89.7623307 176.707714,90.295 C176.730381,90.8276693 176.741714,91.2639983 176.741714,91.604 L176.843714,91.604 C177.29705,90.6519952 177.960043,89.8870029 178.832714,89.309 C179.705385,88.7309971 180.685709,88.442 181.773714,88.442 C182.272383,88.442 182.691713,88.4873329 183.031714,88.578 L182.895714,91.536 C182.442379,91.4226661 181.95505,91.366 181.433714,91.366 C180.663044,91.366 179.994384,91.5076653 179.427714,91.791 C178.861045,92.0743348 178.390716,92.4539976 178.016714,92.93 C177.642712,93.4060024 177.365049,93.9556636 177.183714,94.579 C177.00238,95.2023365 176.911714,95.8539966 176.911714,96.534 L176.911714,105 L173.715714,105 L173.715714,92.352 Z M191.094571,91.536 C191.502574,90.6746624 192.154234,89.9436697 193.049571,89.343 C193.944909,88.7423303 195.004565,88.442 196.228571,88.442 C197.316577,88.442 198.2969,88.6913308 199.169571,89.19 C200.042242,89.6886692 200.727902,90.5159942 201.226571,91.672 C201.770574,90.6293281 202.5299,89.8303361 203.504571,89.275 C204.479243,88.7196639 205.544566,88.442 206.700571,88.442 C207.743243,88.442 208.638568,88.6176649 209.386571,88.969 C210.134575,89.3203351 210.757902,89.7906637 211.256571,90.38 C211.755241,90.9693363 212.12357,91.6606627 212.361571,92.454 C212.599573,93.2473373 212.718571,94.0973288 212.718571,95.004 L212.718571,105 L209.522571,105 L209.522571,96.058 C209.522571,95.4006634 209.465905,94.7773363 209.352571,94.188 C209.239238,93.5986637 209.046573,93.0773356 208.774571,92.624 C208.50257,92.1706644 208.139907,91.8080014 207.686571,91.536 C207.233236,91.2639986 206.655242,91.128 205.952571,91.128 C205.227235,91.128 204.603907,91.2809985 204.082571,91.587 C203.561236,91.8930015 203.13624,92.2896642 202.807571,92.777 C202.478903,93.2643358 202.240906,93.8139969 202.093571,94.426 C201.946237,95.0380031 201.872571,95.6613302 201.872571,96.296 L201.872571,105 L198.676571,105 L198.676571,95.412 C198.676571,94.7773302 198.619905,94.1993359 198.506571,93.678 C198.393238,93.1566641 198.200573,92.7090019 197.928571,92.335 C197.65657,91.9609981 197.30524,91.6663344 196.874571,91.451 C196.443903,91.2356656 195.911241,91.128 195.276571,91.128 C194.097899,91.128 193.117575,91.6096619 192.335571,92.573 C191.553568,93.5363382 191.162571,94.8226586 191.162571,96.432 L191.162571,105 L187.966571,105 L187.966571,92.352 C187.966571,91.9213312 187.955238,91.3660034 187.932571,90.686 C187.909905,90.0059966 187.875905,89.4053359 187.830571,88.884 L190.856571,88.884 C190.901905,89.292002 190.935905,89.7509975 190.958571,90.261 C190.981238,90.7710026 190.992571,91.1959983 190.992571,91.536 L191.094571,91.536 Z M223.297429,105 L220.101429,105 L220.101429,88.884 L223.297429,88.884 L223.297429,105 Z M223.841429,83.07 C223.841429,83.6593363 223.631764,84.1466647 223.212429,84.532 C222.793093,84.9173353 222.288765,85.11 221.699429,85.11 C221.110092,85.11 220.611431,84.9116687 220.203429,84.515 C219.795427,84.1183314 219.591429,83.6366695 219.591429,83.07 C219.591429,82.4806637 219.795427,81.9876687 220.203429,81.591 C220.611431,81.1943314 221.110092,80.996 221.699429,80.996 C222.288765,80.996 222.793093,81.1943314 223.212429,81.591 C223.631764,81.9876687 223.841429,82.4806637 223.841429,83.07 Z M239.520286,92.964 C239.157617,92.3746637 238.647622,91.8930019 237.990286,91.519 C237.332949,91.1449981 236.59629,90.958 235.780286,90.958 C235.417617,90.958 235.054954,90.9976663 234.692286,91.077 C234.329617,91.1563337 234.006621,91.2809992 233.723286,91.451 C233.439951,91.6210009 233.213287,91.836332 233.043286,92.097 C232.873285,92.357668 232.788286,92.6806647 232.788286,93.066 C232.788286,93.7460034 233.094283,94.2503317 233.706286,94.579 C234.318289,94.9076683 235.23628,95.2079986 236.460286,95.48 C237.230956,95.6613342 237.944949,95.8766654 238.602286,96.126 C239.259622,96.3753346 239.83195,96.6869981 240.319286,97.061 C240.806622,97.4350019 241.186284,97.8826641 241.458286,98.404 C241.730287,98.9253359 241.866286,99.5373298 241.866286,100.24 C241.866286,101.192005 241.684954,101.996663 241.322286,102.654 C240.959617,103.311337 240.477955,103.849665 239.877286,104.269 C239.276616,104.688335 238.590956,104.988666 237.820286,105.17 C237.049615,105.351334 236.25629,105.442 235.440286,105.442 C234.21628,105.442 233.020625,105.204002 231.853286,104.728 C230.685947,104.251998 229.716956,103.526672 228.946286,102.552 L231.224286,100.614 C231.654955,101.24867 232.249949,101.781331 233.009286,102.212 C233.768623,102.642669 234.601615,102.858 235.508286,102.858 C235.916288,102.858 236.307284,102.818334 236.681286,102.739 C237.055288,102.659666 237.395284,102.529334 237.701286,102.348 C238.007287,102.166666 238.250952,101.928668 238.432286,101.634 C238.61362,101.339332 238.704286,100.965336 238.704286,100.512 C238.704286,99.7639963 238.347289,99.2086685 237.633286,98.846 C236.919282,98.4833315 235.870959,98.1433349 234.488286,97.826 C233.944283,97.6899993 233.394622,97.5256676 232.839286,97.333 C232.28395,97.1403324 231.779621,96.8740017 231.326286,96.534 C230.87295,96.1939983 230.504621,95.7690026 230.221286,95.259 C229.937951,94.7489975 229.796286,94.1200037 229.796286,93.372 C229.796286,92.5106624 229.971951,91.7683365 230.323286,91.145 C230.674621,90.5216636 231.133616,90.0116687 231.700286,89.615 C232.266955,89.2183314 232.912949,88.9236676 233.638286,88.731 C234.363623,88.5383324 235.111615,88.442 235.882286,88.442 C237.038292,88.442 238.154614,88.6686644 239.231286,89.122 C240.307958,89.5753356 241.140949,90.2326624 241.730286,91.094 L239.520286,92.964 Z M256.559143,92.964 C256.196474,92.3746637 255.68648,91.8930019 255.029143,91.519 C254.371806,91.1449981 253.635147,90.958 252.819143,90.958 C252.456474,90.958 252.093811,90.9976663 251.731143,91.077 C251.368474,91.1563337 251.045478,91.2809992 250.762143,91.451 C250.478808,91.6210009 250.252144,91.836332 250.082143,92.097 C249.912142,92.357668 249.827143,92.6806647 249.827143,93.066 C249.827143,93.7460034 250.13314,94.2503317 250.745143,94.579 C251.357146,94.9076683 252.275137,95.2079986 253.499143,95.48 C254.269813,95.6613342 254.983806,95.8766654 255.641143,96.126 C256.29848,96.3753346 256.870807,96.6869981 257.358143,97.061 C257.845479,97.4350019 258.225142,97.8826641 258.497143,98.404 C258.769144,98.9253359 258.905143,99.5373298 258.905143,100.24 C258.905143,101.192005 258.723811,101.996663 258.361143,102.654 C257.998474,103.311337 257.516813,103.849665 256.916143,104.269 C256.315473,104.688335 255.629813,104.988666 254.859143,105.17 C254.088472,105.351334 253.295147,105.442 252.479143,105.442 C251.255137,105.442 250.059482,105.204002 248.892143,104.728 C247.724804,104.251998 246.755813,103.526672 245.985143,102.552 L248.263143,100.614 C248.693812,101.24867 249.288806,101.781331 250.048143,102.212 C250.80748,102.642669 251.640472,102.858 252.547143,102.858 C252.955145,102.858 253.346141,102.818334 253.720143,102.739 C254.094145,102.659666 254.434141,102.529334 254.740143,102.348 C255.046144,102.166666 255.289809,101.928668 255.471143,101.634 C255.652477,101.339332 255.743143,100.965336 255.743143,100.512 C255.743143,99.7639963 255.386146,99.2086685 254.672143,98.846 C253.958139,98.4833315 252.909816,98.1433349 251.527143,97.826 C250.98314,97.6899993 250.433479,97.5256676 249.878143,97.333 C249.322807,97.1403324 248.818479,96.8740017 248.365143,96.534 C247.911807,96.1939983 247.543478,95.7690026 247.260143,95.259 C246.976808,94.7489975 246.835143,94.1200037 246.835143,93.372 C246.835143,92.5106624 247.010808,91.7683365 247.362143,91.145 C247.713478,90.5216636 248.172473,90.0116687 248.739143,89.615 C249.305812,89.2183314 249.951806,88.9236676 250.677143,88.731 C251.40248,88.5383324 252.150472,88.442 252.921143,88.442 C254.077149,88.442 255.193471,88.6686644 256.270143,89.122 C257.346815,89.5753356 258.179807,90.2326624 258.769143,91.094 L256.559143,92.964 Z M268.124,105 L264.928,105 L264.928,88.884 L268.124,88.884 L268.124,105 Z M268.668,83.07 C268.668,83.6593363 268.458335,84.1466647 268.039,84.532 C267.619665,84.9173353 267.115336,85.11 266.526,85.11 C265.936664,85.11 265.438002,84.9116687 265.03,84.515 C264.621998,84.1183314 264.418,83.6366695 264.418,83.07 C264.418,82.4806637 264.621998,81.9876687 265.03,81.591 C265.438002,81.1943314 265.936664,80.996 266.526,80.996 C267.115336,80.996 267.619665,81.1943314 268.039,81.591 C268.458335,81.9876687 268.668,82.4806637 268.668,83.07 Z M291.962857,96.908 C291.962857,98.1546729 291.741859,99.2993281 291.299857,100.342 C290.857855,101.384672 290.245861,102.285663 289.463857,103.045 C288.681853,103.804337 287.758196,104.393665 286.692857,104.813 C285.627519,105.232335 284.482863,105.442 283.258857,105.442 C282.034851,105.442 280.890196,105.232335 279.824857,104.813 C278.759519,104.393665 277.841528,103.804337 277.070857,103.045 C276.300187,102.285663 275.693859,101.384672 275.251857,100.342 C274.809855,99.2993281 274.588857,98.1546729 274.588857,96.908 C274.588857,95.6613271 274.809855,94.5223385 275.251857,93.491 C275.693859,92.4596615 276.300187,91.5700037 277.070857,90.822 C277.841528,90.0739963 278.759519,89.4903354 279.824857,89.071 C280.890196,88.6516646 282.034851,88.442 283.258857,88.442 C284.482863,88.442 285.627519,88.6516646 286.692857,89.071 C287.758196,89.4903354 288.681853,90.0739963 289.463857,90.822 C290.245861,91.5700037 290.857855,92.4596615 291.299857,93.491 C291.741859,94.5223385 291.962857,95.6613271 291.962857,96.908 Z M288.630857,96.908 C288.630857,96.1373295 288.511858,95.4006702 288.273857,94.698 C288.035856,93.9953298 287.690193,93.3776693 287.236857,92.845 C286.783522,92.3123307 286.222527,91.8873349 285.553857,91.57 C284.885187,91.2526651 284.120195,91.094 283.258857,91.094 C282.39752,91.094 281.632527,91.2526651 280.963857,91.57 C280.295187,91.8873349 279.734193,92.3123307 279.280857,92.845 C278.827522,93.3776693 278.481858,93.9953298 278.243857,94.698 C278.005856,95.4006702 277.886857,96.1373295 277.886857,96.908 C277.886857,97.6786705 278.005856,98.4153298 278.243857,99.118 C278.481858,99.8206702 278.827522,100.443997 279.280857,100.988 C279.734193,101.532003 280.295187,101.962665 280.963857,102.28 C281.632527,102.597335 282.39752,102.756 283.258857,102.756 C284.120195,102.756 284.885187,102.597335 285.553857,102.28 C286.222527,101.962665 286.783522,101.532003 287.236857,100.988 C287.690193,100.443997 288.035856,99.8206702 288.273857,99.118 C288.511858,98.4153298 288.630857,97.6786705 288.630857,96.908 Z M301.215714,88.884 C301.261048,89.292002 301.295048,89.7509975 301.317714,90.261 C301.340381,90.7710026 301.351714,91.1959983 301.351714,91.536 L301.453714,91.536 C301.657715,91.1053312 301.935379,90.7030019 302.286714,90.329 C302.638049,89.9549981 303.040379,89.6263348 303.493714,89.343 C303.94705,89.0596653 304.445712,88.8386675 304.989714,88.68 C305.533717,88.5213325 306.100378,88.442 306.689714,88.442 C307.732386,88.442 308.627711,88.6176649 309.375714,88.969 C310.123718,89.3203351 310.747045,89.7906637 311.245714,90.38 C311.744384,90.9693363 312.112713,91.6606627 312.350714,92.454 C312.588716,93.2473373 312.707714,94.0973288 312.707714,95.004 L312.707714,105 L309.511714,105 L309.511714,96.058 C309.511714,95.4006634 309.460715,94.7773363 309.358714,94.188 C309.256714,93.5986637 309.069716,93.0773356 308.797714,92.624 C308.525713,92.1706644 308.151717,91.8080014 307.675714,91.536 C307.199712,91.2639986 306.587718,91.128 305.839714,91.128 C304.570375,91.128 303.533385,91.6096619 302.728714,92.573 C301.924044,93.5363382 301.521714,94.8226586 301.521714,96.432 L301.521714,105 L298.325714,105 L298.325714,92.352 C298.325714,91.9213312 298.314381,91.3660034 298.291714,90.686 C298.269048,90.0059966 298.235048,89.4053359 298.189714,88.884 L301.215714,88.884 Z M328.760571,92.964 C328.397903,92.3746637 327.887908,91.8930019 327.230571,91.519 C326.573235,91.1449981 325.836576,90.958 325.020571,90.958 C324.657903,90.958 324.29524,90.9976663 323.932571,91.077 C323.569903,91.1563337 323.246906,91.2809992 322.963571,91.451 C322.680237,91.6210009 322.453572,91.836332 322.283571,92.097 C322.113571,92.357668 322.028571,92.6806647 322.028571,93.066 C322.028571,93.7460034 322.334568,94.2503317 322.946571,94.579 C323.558575,94.9076683 324.476565,95.2079986 325.700571,95.48 C326.471242,95.6613342 327.185235,95.8766654 327.842571,96.126 C328.499908,96.3753346 329.072236,96.6869981 329.559571,97.061 C330.046907,97.4350019 330.42657,97.8826641 330.698571,98.404 C330.970573,98.9253359 331.106571,99.5373298 331.106571,100.24 C331.106571,101.192005 330.92524,101.996663 330.562571,102.654 C330.199903,103.311337 329.718241,103.849665 329.117571,104.269 C328.516902,104.688335 327.831242,104.988666 327.060571,105.17 C326.289901,105.351334 325.496576,105.442 324.680571,105.442 C323.456565,105.442 322.260911,105.204002 321.093571,104.728 C319.926232,104.251998 318.957242,103.526672 318.186571,102.552 L320.464571,100.614 C320.89524,101.24867 321.490234,101.781331 322.249571,102.212 C323.008909,102.642669 323.8419,102.858 324.748571,102.858 C325.156574,102.858 325.54757,102.818334 325.921571,102.739 C326.295573,102.659666 326.63557,102.529334 326.941571,102.348 C327.247573,102.166666 327.491237,101.928668 327.672571,101.634 C327.853906,101.339332 327.944571,100.965336 327.944571,100.512 C327.944571,99.7639963 327.587575,99.2086685 326.873571,98.846 C326.159568,98.4833315 325.111245,98.1433349 323.728571,97.826 C323.184569,97.6899993 322.634908,97.5256676 322.079571,97.333 C321.524235,97.1403324 321.019907,96.8740017 320.566571,96.534 C320.113236,96.1939983 319.744906,95.7690026 319.461571,95.259 C319.178237,94.7489975 319.036571,94.1200037 319.036571,93.372 C319.036571,92.5106624 319.212236,91.7683365 319.563571,91.145 C319.914907,90.5216636 320.373902,90.0116687 320.940571,89.615 C321.507241,89.2183314 322.153235,88.9236676 322.878571,88.731 C323.603908,88.5383324 324.351901,88.442 325.122571,88.442 C326.278577,88.442 327.394899,88.6686644 328.471571,89.122 C329.548244,89.5753356 330.381235,90.2326624 330.970571,91.094 L328.760571,92.964 Z M350.666286,91.536 C351.074288,90.6746624 351.725948,89.9436697 352.621286,89.343 C353.516624,88.7423303 354.57628,88.442 355.800286,88.442 C356.888291,88.442 357.868615,88.6913308 358.741286,89.19 C359.613957,89.6886692 360.299617,90.5159942 360.798286,91.672 C361.342288,90.6293281 362.101614,89.8303361 363.076286,89.275 C364.050957,88.7196639 365.11628,88.442 366.272286,88.442 C367.314958,88.442 368.210282,88.6176649 368.958286,88.969 C369.70629,89.3203351 370.329617,89.7906637 370.828286,90.38 C371.326955,90.9693363 371.695285,91.6606627 371.933286,92.454 C372.171287,93.2473373 372.290286,94.0973288 372.290286,95.004 L372.290286,105 L369.094286,105 L369.094286,96.058 C369.094286,95.4006634 369.03762,94.7773363 368.924286,94.188 C368.810952,93.5986637 368.618287,93.0773356 368.346286,92.624 C368.074284,92.1706644 367.711621,91.8080014 367.258286,91.536 C366.80495,91.2639986 366.226956,91.128 365.524286,91.128 C364.798949,91.128 364.175622,91.2809985 363.654286,91.587 C363.13295,91.8930015 362.707954,92.2896642 362.379286,92.777 C362.050617,93.2643358 361.81262,93.8139969 361.665286,94.426 C361.517952,95.0380031 361.444286,95.6613302 361.444286,96.296 L361.444286,105 L358.248286,105 L358.248286,95.412 C358.248286,94.7773302 358.19162,94.1993359 358.078286,93.678 C357.964952,93.1566641 357.772287,92.7090019 357.500286,92.335 C357.228284,91.9609981 356.876955,91.6663344 356.446286,91.451 C356.015617,91.2356656 355.482956,91.128 354.848286,91.128 C353.669613,91.128 352.68929,91.6096619 351.907286,92.573 C351.125282,93.5363382 350.734286,94.8226586 350.734286,96.432 L350.734286,105 L347.538286,105 L347.538286,92.352 C347.538286,91.9213312 347.526953,91.3660034 347.504286,90.686 C347.481619,90.0059966 347.447619,89.4053359 347.402286,88.884 L350.428286,88.884 C350.473619,89.292002 350.507619,89.7509975 350.530286,90.261 C350.552953,90.7710026 350.564286,91.1959983 350.564286,91.536 L350.666286,91.536 Z M389.669143,94.562 C389.669143,93.3606607 389.30648,92.4710029 388.581143,91.893 C387.855806,91.3149971 386.892482,91.026 385.691143,91.026 C384.784472,91.026 383.928814,91.2016649 383.124143,91.553 C382.319472,91.9043351 381.645146,92.3519973 381.101143,92.896 L379.401143,90.856 C380.19448,90.1079963 381.163471,89.5186688 382.308143,89.088 C383.452815,88.6573312 384.68247,88.442 385.997143,88.442 C387.153149,88.442 388.156139,88.6063317 389.006143,88.935 C389.856147,89.2636683 390.55314,89.7113305 391.097143,90.278 C391.641146,90.8446695 392.049142,91.5133295 392.321143,92.284 C392.593144,93.0546705 392.729143,93.8819956 392.729143,94.766 L392.729143,101.804 C392.729143,102.348003 392.746143,102.92033 392.780143,103.521 C392.814143,104.12167 392.876476,104.614665 392.967143,105 L390.077143,105 C389.895809,104.229329 389.805143,103.458671 389.805143,102.688 L389.703143,102.688 C389.113807,103.549338 388.371481,104.217998 387.476143,104.694 C386.580805,105.170002 385.521149,105.408 384.297143,105.408 C383.662473,105.408 382.99948,105.323001 382.308143,105.153 C381.616806,104.982999 380.987812,104.705335 380.421143,104.32 C379.854473,103.934665 379.384145,103.42467 379.010143,102.79 C378.636141,102.15533 378.449143,101.373338 378.449143,100.444 C378.449143,99.2199939 378.777806,98.2510036 379.435143,97.537 C380.09248,96.8229964 380.953804,96.2790019 382.019143,95.905 C383.084482,95.5309981 384.285803,95.2873339 385.623143,95.174 C386.960483,95.0606661 388.309136,95.004 389.669143,95.004 L389.669143,94.562 Z M388.887143,97.316 C388.093806,97.316 387.272147,97.3499997 386.422143,97.418 C385.572139,97.4860003 384.80148,97.621999 384.110143,97.826 C383.418806,98.030001 382.846479,98.335998 382.393143,98.744 C381.939807,99.152002 381.713143,99.6959966 381.713143,100.376 C381.713143,100.852002 381.809475,101.248665 382.002143,101.566 C382.194811,101.883335 382.449808,102.143999 382.767143,102.348 C383.084478,102.552001 383.435808,102.693666 383.821143,102.773 C384.206478,102.852334 384.603141,102.892 385.011143,102.892 C386.50715,102.892 387.657472,102.444338 388.462143,101.549 C389.266814,100.653662 389.669143,99.5260068 389.669143,98.166 L389.669143,97.316 L388.887143,97.316 Z M402.9,88.884 C402.945334,89.292002 402.979333,89.7509975 403.002,90.261 C403.024667,90.7710026 403.036,91.1959983 403.036,91.536 L403.138,91.536 C403.342001,91.1053312 403.619665,90.7030019 403.971,90.329 C404.322335,89.9549981 404.724664,89.6263348 405.178,89.343 C405.631336,89.0596653 406.129997,88.8386675 406.674,88.68 C407.218003,88.5213325 407.784664,88.442 408.374,88.442 C409.416672,88.442 410.311996,88.6176649 411.06,88.969 C411.808004,89.3203351 412.431331,89.7906637 412.93,90.38 C413.428669,90.9693363 413.796999,91.6606627 414.035,92.454 C414.273001,93.2473373 414.392,94.0973288 414.392,95.004 L414.392,105 L411.196,105 L411.196,96.058 C411.196,95.4006634 411.145001,94.7773363 411.043,94.188 C410.941,93.5986637 410.754001,93.0773356 410.482,92.624 C410.209999,92.1706644 409.836002,91.8080014 409.36,91.536 C408.883998,91.2639986 408.272004,91.128 407.524,91.128 C406.25466,91.128 405.217671,91.6096619 404.413,92.573 C403.608329,93.5363382 403.206,94.8226586 403.206,96.432 L403.206,105 L400.01,105 L400.01,92.352 C400.01,91.9213312 399.998667,91.3660034 399.976,90.686 C399.953333,90.0059966 399.919334,89.4053359 399.874,88.884 L402.9,88.884 Z M431.770857,94.562 C431.770857,93.3606607 431.408194,92.4710029 430.682857,91.893 C429.95752,91.3149971 428.994197,91.026 427.792857,91.026 C426.886186,91.026 426.030528,91.2016649 425.225857,91.553 C424.421187,91.9043351 423.74686,92.3519973 423.202857,92.896 L421.502857,90.856 C422.296195,90.1079963 423.265185,89.5186688 424.409857,89.088 C425.55453,88.6573312 426.784184,88.442 428.098857,88.442 C429.254863,88.442 430.257853,88.6063317 431.107857,88.935 C431.957861,89.2636683 432.654854,89.7113305 433.198857,90.278 C433.74286,90.8446695 434.150856,91.5133295 434.422857,92.284 C434.694859,93.0546705 434.830857,93.8819956 434.830857,94.766 L434.830857,101.804 C434.830857,102.348003 434.847857,102.92033 434.881857,103.521 C434.915857,104.12167 434.97819,104.614665 435.068857,105 L432.178857,105 C431.997523,104.229329 431.906857,103.458671 431.906857,102.688 L431.804857,102.688 C431.215521,103.549338 430.473195,104.217998 429.577857,104.694 C428.682519,105.170002 427.622863,105.408 426.398857,105.408 C425.764187,105.408 425.101194,105.323001 424.409857,105.153 C423.71852,104.982999 423.089527,104.705335 422.522857,104.32 C421.956188,103.934665 421.485859,103.42467 421.111857,102.79 C420.737855,102.15533 420.550857,101.373338 420.550857,100.444 C420.550857,99.2199939 420.879521,98.2510036 421.536857,97.537 C422.194194,96.8229964 423.055519,96.2790019 424.120857,95.905 C425.186196,95.5309981 426.387517,95.2873339 427.724857,95.174 C429.062197,95.0606661 430.41085,95.004 431.770857,95.004 L431.770857,94.562 Z M430.988857,97.316 C430.19552,97.316 429.373861,97.3499997 428.523857,97.418 C427.673853,97.4860003 426.903194,97.621999 426.211857,97.826 C425.52052,98.030001 424.948193,98.335998 424.494857,98.744 C424.041522,99.152002 423.814857,99.6959966 423.814857,100.376 C423.814857,100.852002 423.91119,101.248665 424.103857,101.566 C424.296525,101.883335 424.551522,102.143999 424.868857,102.348 C425.186192,102.552001 425.537522,102.693666 425.922857,102.773 C426.308192,102.852334 426.704855,102.892 427.112857,102.892 C428.608865,102.892 429.759187,102.444338 430.563857,101.549 C431.368528,100.653662 431.770857,99.5260068 431.770857,98.166 L431.770857,97.316 L430.988857,97.316 Z M443.369714,107.754 C444.072385,108.547337 444.950709,109.181998 446.004714,109.658 C447.05872,110.134002 448.141042,110.372 449.251714,110.372 C450.317053,110.372 451.212377,110.219002 451.937714,109.913 C452.663051,109.606998 453.246712,109.187669 453.688714,108.655 C454.130717,108.122331 454.448047,107.493337 454.640714,106.768 C454.833382,106.042663 454.929714,105.260671 454.929714,104.422 L454.929714,102.348 L454.861714,102.348 C454.272378,103.254671 453.467719,103.945998 452.447714,104.422 C451.427709,104.898002 450.33972,105.136 449.183714,105.136 C447.959708,105.136 446.843386,104.920669 445.834714,104.49 C444.826043,104.059331 443.970385,103.470004 443.267714,102.722 C442.565044,101.973996 442.02105,101.095672 441.635714,100.087 C441.250379,99.0783283 441.057714,97.9960058 441.057714,96.84 C441.057714,95.6839942 441.250379,94.5960051 441.635714,93.576 C442.02105,92.5559949 442.565044,91.6663371 443.267714,90.907 C443.970385,90.1476629 444.820376,89.5470022 445.817714,89.105 C446.815053,88.6629978 447.925708,88.442 449.149714,88.442 C450.30572,88.442 451.410709,88.6913308 452.464714,89.19 C453.51872,89.6886692 454.351711,90.4479949 454.963714,91.468 L455.031714,91.468 L455.031714,88.884 L458.125714,88.884 L458.125714,104.184 C458.125714,105.362673 457.978383,106.490328 457.683714,107.567 C457.389046,108.643672 456.890385,109.595663 456.187714,110.423 C455.485044,111.250337 454.567053,111.913331 453.433714,112.412 C452.300375,112.910669 450.895056,113.16 449.217714,113.16 C447.812374,113.16 446.401388,112.905003 444.984714,112.395 C443.568041,111.884997 442.349719,111.165338 441.329714,110.236 L443.369714,107.754 Z M444.355714,96.772 C444.355714,97.5200037 444.474713,98.2339966 444.712714,98.914 C444.950716,99.5940034 445.302045,100.194664 445.766714,100.716 C446.231383,101.237336 446.792378,101.656665 447.449714,101.974 C448.107051,102.291335 448.855044,102.45 449.693714,102.45 C450.509718,102.45 451.257711,102.302668 451.937714,102.008 C452.617718,101.713332 453.195712,101.311003 453.671714,100.801 C454.147717,100.290997 454.516046,99.6903368 454.776714,98.999 C455.037382,98.3076632 455.167714,97.5653373 455.167714,96.772 C455.167714,96.0013295 455.037382,95.2760034 454.776714,94.596 C454.516046,93.9159966 454.14205,93.3153359 453.654714,92.794 C453.167379,92.2726641 452.589384,91.8590015 451.920714,91.553 C451.252044,91.2469985 450.509718,91.094 449.693714,91.094 C448.855044,91.094 448.107051,91.2469985 447.449714,91.553 C446.792378,91.8590015 446.231383,92.2669975 445.766714,92.777 C445.302045,93.2870026 444.950716,93.8876632 444.712714,94.579 C444.474713,95.2703368 444.355714,96.0013295 444.355714,96.772 Z M477.340572,95.514 C477.317905,94.8793302 477.210239,94.2843361 477.017572,93.729 C476.824904,93.1736639 476.541573,92.692002 476.167572,92.284 C475.79357,91.875998 475.328908,91.5530012 474.773572,91.315 C474.218235,91.0769988 473.566575,90.958 472.818572,90.958 C472.138568,90.958 471.498241,91.0769988 470.897572,91.315 C470.296902,91.5530012 469.775574,91.875998 469.333572,92.284 C468.891569,92.692002 468.528906,93.1736639 468.245572,93.729 C467.962237,94.2843361 467.797905,94.8793302 467.752572,95.514 L477.340572,95.514 Z M480.570572,96.806 L480.570572,97.35 C480.570572,97.5313342 480.559238,97.7126658 480.536572,97.894 L467.752572,97.894 C467.775238,98.5740034 467.928237,99.2143303 468.211572,99.815 C468.494906,100.41567 468.874569,100.936998 469.350572,101.379 C469.826574,101.821002 470.376235,102.166665 470.999572,102.416 C471.622908,102.665335 472.285901,102.79 472.988572,102.79 C474.076577,102.79 475.017234,102.552002 475.810572,102.076 C476.603909,101.599998 477.227236,101.022003 477.680572,100.342 L479.924572,102.144 C479.063234,103.277339 478.048911,104.110331 476.881572,104.643 C475.714232,105.175669 474.416579,105.442 472.988572,105.442 C471.764565,105.442 470.631243,105.238002 469.588572,104.83 C468.5459,104.421998 467.650575,103.84967 466.902572,103.113 C466.154568,102.37633 465.56524,101.486672 465.134572,100.444 C464.703903,99.4013281 464.488572,98.2453397 464.488572,96.976 C464.488572,95.7293271 464.698236,94.5790053 465.117572,93.525 C465.536907,92.4709947 466.120568,91.5700037 466.868572,90.822 C467.616575,90.0739963 468.500566,89.4903354 469.520572,89.071 C470.540577,88.6516646 471.639899,88.442 472.818572,88.442 C473.997244,88.442 475.068233,88.6346647 476.031572,89.02 C476.99491,89.4053353 477.810902,89.960663 478.479572,90.686 C479.148242,91.411337 479.663903,92.2896615 480.026572,93.321 C480.38924,94.3523385 480.570572,95.5139935 480.570572,96.806 Z M490.095429,91.536 C490.503431,90.6746624 491.155091,89.9436697 492.050429,89.343 C492.945766,88.7423303 494.005423,88.442 495.229429,88.442 C496.317434,88.442 497.297758,88.6913308 498.170429,89.19 C499.0431,89.6886692 499.728759,90.5159942 500.227429,91.672 C500.771431,90.6293281 501.530757,89.8303361 502.505429,89.275 C503.4801,88.7196639 504.545423,88.442 505.701429,88.442 C506.744101,88.442 507.639425,88.6176649 508.387429,88.969 C509.135432,89.3203351 509.758759,89.7906637 510.257429,90.38 C510.756098,90.9693363 511.124427,91.6606627 511.362429,92.454 C511.60043,93.2473373 511.719429,94.0973288 511.719429,95.004 L511.719429,105 L508.523429,105 L508.523429,96.058 C508.523429,95.4006634 508.466763,94.7773363 508.353429,94.188 C508.240095,93.5986637 508.04743,93.0773356 507.775429,92.624 C507.503427,92.1706644 507.140764,91.8080014 506.687429,91.536 C506.234093,91.2639986 505.656099,91.128 504.953429,91.128 C504.228092,91.128 503.604765,91.2809985 503.083429,91.587 C502.562093,91.8930015 502.137097,92.2896642 501.808429,92.777 C501.47976,93.2643358 501.241763,93.8139969 501.094429,94.426 C500.947095,95.0380031 500.873429,95.6613302 500.873429,96.296 L500.873429,105 L497.677429,105 L497.677429,95.412 C497.677429,94.7773302 497.620763,94.1993359 497.507429,93.678 C497.394095,93.1566641 497.20143,92.7090019 496.929429,92.335 C496.657427,91.9609981 496.306097,91.6663344 495.875429,91.451 C495.44476,91.2356656 494.912098,91.128 494.277429,91.128 C493.098756,91.128 492.118433,91.6096619 491.336429,92.573 C490.554425,93.5363382 490.163429,94.8226586 490.163429,96.432 L490.163429,105 L486.967429,105 L486.967429,92.352 C486.967429,91.9213312 486.956095,91.3660034 486.933429,90.686 C486.910762,90.0059966 486.876762,89.4053359 486.831429,88.884 L489.857429,88.884 C489.902762,89.292002 489.936762,89.7509975 489.959429,90.261 C489.982095,90.7710026 489.993429,91.1959983 489.993429,91.536 L490.095429,91.536 Z M530.866286,95.514 C530.843619,94.8793302 530.735953,94.2843361 530.543286,93.729 C530.350618,93.1736639 530.067288,92.692002 529.693286,92.284 C529.319284,91.875998 528.854622,91.5530012 528.299286,91.315 C527.74395,91.0769988 527.09229,90.958 526.344286,90.958 C525.664282,90.958 525.023955,91.0769988 524.423286,91.315 C523.822616,91.5530012 523.301288,91.875998 522.859286,92.284 C522.417284,92.692002 522.054621,93.1736639 521.771286,93.729 C521.487951,94.2843361 521.323619,94.8793302 521.278286,95.514 L530.866286,95.514 Z M534.096286,96.806 L534.096286,97.35 C534.096286,97.5313342 534.084953,97.7126658 534.062286,97.894 L521.278286,97.894 C521.300953,98.5740034 521.453951,99.2143303 521.737286,99.815 C522.020621,100.41567 522.400283,100.936998 522.876286,101.379 C523.352288,101.821002 523.901949,102.166665 524.525286,102.416 C525.148622,102.665335 525.811616,102.79 526.514286,102.79 C527.602291,102.79 528.542949,102.552002 529.336286,102.076 C530.129623,101.599998 530.75295,101.022003 531.206286,100.342 L533.450286,102.144 C532.588948,103.277339 531.574625,104.110331 530.407286,104.643 C529.239947,105.175669 527.942293,105.442 526.514286,105.442 C525.29028,105.442 524.156958,105.238002 523.114286,104.83 C522.071614,104.421998 521.17629,103.84967 520.428286,103.113 C519.680282,102.37633 519.090955,101.486672 518.660286,100.444 C518.229617,99.4013281 518.014286,98.2453397 518.014286,96.976 C518.014286,95.7293271 518.22395,94.5790053 518.643286,93.525 C519.062621,92.4709947 519.646282,91.5700037 520.394286,90.822 C521.14229,90.0739963 522.026281,89.4903354 523.046286,89.071 C524.066291,88.6516646 525.165613,88.442 526.344286,88.442 C527.522958,88.442 528.593948,88.6346647 529.557286,89.02 C530.520624,89.4053353 531.336616,89.960663 532.005286,90.686 C532.673956,91.411337 533.189617,92.2896615 533.552286,93.321 C533.914954,94.3523385 534.096286,95.5139935 534.096286,96.806 Z M543.383143,88.884 C543.428477,89.292002 543.462476,89.7509975 543.485143,90.261 C543.50781,90.7710026 543.519143,91.1959983 543.519143,91.536 L543.621143,91.536 C543.825144,91.1053312 544.102808,90.7030019 544.454143,90.329 C544.805478,89.9549981 545.207807,89.6263348 545.661143,89.343 C546.114479,89.0596653 546.61314,88.8386675 547.157143,88.68 C547.701146,88.5213325 548.267807,88.442 548.857143,88.442 C549.899815,88.442 550.795139,88.6176649 551.543143,88.969 C552.291147,89.3203351 552.914474,89.7906637 553.413143,90.38 C553.911812,90.9693363 554.280142,91.6606627 554.518143,92.454 C554.756144,93.2473373 554.875143,94.0973288 554.875143,95.004 L554.875143,105 L551.679143,105 L551.679143,96.058 C551.679143,95.4006634 551.628143,94.7773363 551.526143,94.188 C551.424142,93.5986637 551.237144,93.0773356 550.965143,92.624 C550.693142,92.1706644 550.319145,91.8080014 549.843143,91.536 C549.367141,91.2639986 548.755147,91.128 548.007143,91.128 C546.737803,91.128 545.700814,91.6096619 544.896143,92.573 C544.091472,93.5363382 543.689143,94.8226586 543.689143,96.432 L543.689143,105 L540.493143,105 L540.493143,92.352 C540.493143,91.9213312 540.48181,91.3660034 540.459143,90.686 C540.436476,90.0059966 540.402477,89.4053359 540.357143,88.884 L543.383143,88.884 Z M570.112,91.502 L565.828,91.502 L565.828,99.9 C565.828,100.874672 566.009332,101.571665 566.372,101.991 C566.734669,102.410335 567.312663,102.62 568.106,102.62 C568.400668,102.62 568.717998,102.586 569.058,102.518 C569.398002,102.45 569.703999,102.348001 569.976,102.212 L570.078,104.83 C569.692665,104.966001 569.267669,105.073666 568.803,105.153 C568.338331,105.232334 567.856669,105.272 567.358,105.272 C565.839326,105.272 564.677671,104.852671 563.873,104.014 C563.068329,103.175329 562.666,101.917342 562.666,100.24 L562.666,91.502 L559.572,91.502 L559.572,88.884 L562.666,88.884 L562.666,84.26 L565.828,84.26 L565.828,88.884 L570.112,88.884 L570.112,91.502 Z" id="simple-permissions-m" fill="#657786"></path>
                        <path d="M5.538,0.732 L23.004,0.732 C25.3706785,0.732 27.6663222,0.980497515 29.891,1.4775 C32.1156778,1.97450248 34.0918247,2.79099432 35.8195,3.927 C37.5471753,5.06300568 38.9316615,6.55399077 39.973,8.4 C41.0143385,10.2460092 41.535,12.4943201 41.535,15.145 C41.535,18.7896849 40.5055103,21.7598219 38.4465,24.0555 C36.3874897,26.3511781 33.5830178,27.9013293 30.033,28.706 L43.452,51 L32.66,51 L21.016,29.7 L14.484,29.7 L14.484,51 L5.538,51 L5.538,0.732 Z M21.797,22.387 C23.0750064,22.387 24.3529936,22.2923343 25.631,22.103 C26.9090064,21.9136657 28.0568282,21.5586693 29.0745,21.038 C30.0921718,20.5173307 30.93233,19.7718382 31.595,18.8015 C32.25767,17.8311618 32.589,16.5886742 32.589,15.074 C32.589,13.7013265 32.2813364,12.577171 31.666,11.7015 C31.0506636,10.825829 30.2696714,10.1276693 29.323,9.607 C28.3763286,9.08633073 27.299506,8.73133428 26.0925,8.542 C24.885494,8.35266572 23.7140057,8.258 22.578,8.258 L14.484,8.258 L14.484,22.387 L21.797,22.387 Z M73.617,30.552 C73.617,29.4633279 73.4631682,28.422005 73.1555,27.428 C72.8478318,26.433995 72.36267,25.5583371 71.7,24.801 C71.03733,24.0436629 70.1971717,23.4401689 69.1795,22.9905 C68.1618282,22.5408311 66.9666735,22.316 65.594,22.316 C63.0379872,22.316 60.8725089,23.085159 59.0975,24.6235 C57.3224911,26.161841 56.3403343,28.1379879 56.151,30.552 L73.617,30.552 Z M82.137,34.386 L82.137,35.522 C82.137,35.9006686 82.1133336,36.2793314 82.066,36.658 L56.151,36.658 C56.2456671,37.8886728 56.5651639,39.0128282 57.1095,40.0305 C57.653836,41.0481718 58.3756622,41.9238297 59.275,42.6575 C60.1743378,43.3911703 61.1919943,43.9709979 62.328,44.397 C63.4640057,44.8230021 64.6473272,45.036 65.878,45.036 C68.0080106,45.036 69.8066593,44.6455039 71.274,43.8645 C72.7413407,43.0834961 73.9483286,42.0066735 74.895,40.634 L80.575,45.178 C77.2143165,49.7220227 72.3390319,51.994 65.949,51.994 C63.2983201,51.994 60.8606778,51.5798375 58.636,50.7515 C56.4113222,49.9231625 54.4825082,48.7516742 52.8495,47.237 C51.2164918,45.7223258 49.9385046,43.864511 49.0155,41.6635 C48.0924954,39.462489 47.631,36.9656806 47.631,34.173 C47.631,31.4276529 48.0924954,28.9308446 49.0155,26.6825 C49.9385046,24.4341554 51.2046586,22.5171746 52.814,20.9315 C54.4233414,19.3458254 56.328489,18.115171 58.5295,17.2395 C60.730511,16.363829 63.1089872,15.926 65.665,15.926 C68.0316785,15.926 70.2208233,16.3164961 72.2325,17.0975 C74.2441767,17.8785039 75.9836593,19.038159 77.451,20.5765 C78.9183407,22.114841 80.0661625,24.0318219 80.8945,26.3275 C81.7228375,28.6231781 82.137,31.3093179 82.137,34.386 Z M125.721,68.04 L117.201,68.04 L117.201,46.456 L117.059,46.456 C115.970328,48.1600085 114.420177,49.508995 112.4085,50.503 C110.396823,51.497005 108.184012,51.994 105.77,51.994 C103.166654,51.994 100.83551,51.5088382 98.7765,50.5385 C96.7174897,49.5681618 94.9661739,48.2665082 93.5225,46.6335 C92.0788261,45.0004918 90.9665039,43.083511 90.1855,40.8825 C89.4044961,38.681489 89.014,36.3266792 89.014,33.818 C89.014,31.3093208 89.4163293,28.9663442 90.221,26.789 C91.0256707,24.6116558 92.1616593,22.7183414 93.629,21.109 C95.0963406,19.4996586 96.8476565,18.2335046 98.883,17.3105 C100.918343,16.3874954 103.142988,15.926 105.557,15.926 C107.119008,15.926 108.52716,16.1034982 109.7815,16.4585 C111.03584,16.8135018 112.159995,17.2631639 113.154,17.8075 C114.148005,18.3518361 114.988163,18.9671632 115.6745,19.6535 C116.360837,20.3398368 116.916998,21.01433 117.343,21.677 L117.556,21.677 L117.556,16.92 L125.721,16.92 L125.721,68.04 Z M97.676,33.818 C97.676,35.14334 97.8771646,36.46866 98.2795,37.794 C98.6818353,39.11934 99.2853293,40.3026615 100.09,41.344 C100.894671,42.3853385 101.912327,43.23733 103.143,43.9 C104.373673,44.56267 105.817325,44.894 107.474,44.894 C109.036008,44.894 110.432327,44.5745032 111.663,43.9355 C112.893673,43.2964968 113.946829,42.4563385 114.8225,41.415 C115.698171,40.3736615 116.360831,39.2021732 116.8105,37.9005 C117.260169,36.5988268 117.485,35.28534 117.485,33.96 C117.485,32.63466 117.260169,31.30934 116.8105,29.984 C116.360831,28.65866 115.698171,27.4753385 114.8225,26.434 C113.946829,25.3926615 112.893673,24.54067 111.663,23.878 C110.432327,23.21533 109.036008,22.884 107.474,22.884 C105.817325,22.884 104.373673,23.2034968 103.143,23.8425 C101.912327,24.4815032 100.894671,25.3216615 100.09,26.363 C99.2853293,27.4043385 98.6818353,28.5758268 98.2795,29.8775 C97.8771646,31.1791732 97.676,32.49266 97.676,33.818 Z M167.743,51 L159.649,51 L159.649,45.533 L159.507,45.533 C158.749663,47.2370085 157.436176,48.7398268 155.5665,50.0415 C153.696824,51.3431732 151.484013,51.994 148.928,51.994 C146.703322,51.994 144.798175,51.6035039 143.2125,50.8225 C141.626825,50.0414961 140.325172,49.0120064 139.3075,47.734 C138.289828,46.4559936 137.544336,44.9886749 137.071,43.332 C136.597664,41.675325 136.361,39.9713421 136.361,38.22 L136.361,16.92 L144.881,16.92 L144.881,35.806 C144.881,36.800005 144.951999,37.8413279 145.094,38.93 C145.236001,40.0186721 145.543664,41.000829 146.017,41.8765 C146.490336,42.752171 147.141162,43.4739972 147.9695,44.042 C148.797837,44.6100028 149.898326,44.894 151.271,44.894 C152.59634,44.894 153.767828,44.6218361 154.7855,44.0775 C155.803172,43.5331639 156.631497,42.8350043 157.2705,41.983 C157.909503,41.1309957 158.394665,40.1488389 158.726,39.0365 C159.057335,37.9241611 159.223,36.8000057 159.223,35.664 L159.223,16.92 L167.743,16.92 L167.743,51 Z M202.665,30.552 C202.665,29.4633279 202.511168,28.422005 202.2035,27.428 C201.895832,26.433995 201.41067,25.5583371 200.748,24.801 C200.08533,24.0436629 199.245172,23.4401689 198.2275,22.9905 C197.209828,22.5408311 196.014673,22.316 194.642,22.316 C192.085987,22.316 189.920509,23.085159 188.1455,24.6235 C186.370491,26.161841 185.388334,28.1379879 185.199,30.552 L202.665,30.552 Z M211.185,34.386 L211.185,35.522 C211.185,35.9006686 211.161334,36.2793314 211.114,36.658 L185.199,36.658 C185.293667,37.8886728 185.613164,39.0128282 186.1575,40.0305 C186.701836,41.0481718 187.423662,41.9238297 188.323,42.6575 C189.222338,43.3911703 190.239994,43.9709979 191.376,44.397 C192.512006,44.8230021 193.695327,45.036 194.926,45.036 C197.056011,45.036 198.854659,44.6455039 200.322,43.8645 C201.789341,43.0834961 202.996329,42.0066735 203.943,40.634 L209.623,45.178 C206.262316,49.7220227 201.387032,51.994 194.997,51.994 C192.34632,51.994 189.908678,51.5798375 187.684,50.7515 C185.459322,49.9231625 183.530508,48.7516742 181.8975,47.237 C180.264492,45.7223258 178.986505,43.864511 178.0635,41.6635 C177.140495,39.462489 176.679,36.9656806 176.679,34.173 C176.679,31.4276529 177.140495,28.9308446 178.0635,26.6825 C178.986505,24.4341554 180.252659,22.5171746 181.862,20.9315 C183.471341,19.3458254 185.376489,18.115171 187.5775,17.2395 C189.778511,16.363829 192.156987,15.926 194.713,15.926 C197.079678,15.926 199.268823,16.3164961 201.2805,17.0975 C203.292177,17.8785039 205.031659,19.038159 206.499,20.5765 C207.966341,22.114841 209.114162,24.0318219 209.9425,26.3275 C210.770837,28.6231781 211.185,31.3093179 211.185,34.386 Z M238.794,26.008 C238.036663,25.013995 236.99534,24.1501703 235.67,23.4165 C234.34466,22.6828297 232.901008,22.316 231.339,22.316 C229.966326,22.316 228.712006,22.5999972 227.576,23.168 C226.439994,23.7360028 225.872,24.68266 225.872,26.008 C225.872,27.33334 226.49916,28.2681639 227.7535,28.8125 C229.00784,29.3568361 230.841988,29.9129972 233.256,30.481 C234.534006,30.7650014 235.823827,31.1436643 237.1255,31.617 C238.427173,32.0903357 239.610495,32.7174961 240.6755,33.4985 C241.740505,34.2795039 242.60433,35.2498275 243.267,36.4095 C243.92967,37.5691725 244.261,38.977325 244.261,40.634 C244.261,42.7166771 243.870504,44.4798261 243.0895,45.9235 C242.308496,47.3671739 241.267173,48.5386622 239.9655,49.438 C238.663827,50.3373378 237.149175,50.9881647 235.4215,51.3905 C233.693825,51.7928353 231.907009,51.994 230.061,51.994 C227.41032,51.994 224.830679,51.5088382 222.322,50.5385 C219.813321,49.5681618 217.730675,48.1836757 216.074,46.385 L221.683,41.131 C222.629671,42.3616728 223.860326,43.3793293 225.375,44.184 C226.889674,44.9886707 228.569991,45.391 230.416,45.391 C231.031336,45.391 231.658497,45.3200007 232.2975,45.178 C232.936503,45.0359993 233.528164,44.8111682 234.0725,44.5035 C234.616836,44.1958318 235.054665,43.7816693 235.386,43.261 C235.717335,42.7403307 235.883,42.1013371 235.883,41.344 C235.883,39.9239929 235.232173,38.9063364 233.9305,38.291 C232.628827,37.6756636 230.676346,37.0603364 228.073,36.445 C226.794994,36.1609986 225.552506,35.7941689 224.3455,35.3445 C223.138494,34.8948311 222.061671,34.3031703 221.115,33.5695 C220.168329,32.8358297 219.411003,31.9246721 218.843,30.836 C218.274997,29.7473279 217.991,28.3983414 217.991,26.789 C217.991,24.8956572 218.381496,23.2626735 219.1625,21.89 C219.943504,20.5173265 220.972994,19.393171 222.251,18.5175 C223.529006,17.641829 224.972659,16.9910021 226.582,16.565 C228.191341,16.1389979 229.847991,15.926 231.552,15.926 C234.013346,15.926 236.415488,16.3519957 238.7585,17.204 C241.101512,18.0560043 242.959326,19.3576579 244.332,21.109 L238.794,26.008 Z M247.446,23.736 L247.446,16.92 L253.41,16.92 L253.41,7.051 L261.788,7.051 L261.788,16.92 L270.308,16.92 L270.308,23.736 L261.788,23.736 L261.788,39.569 C261.788,41.0836742 262.060164,42.337995 262.6045,43.332 C263.148836,44.326005 264.367657,44.823 266.261,44.823 C266.829003,44.823 267.44433,44.7638339 268.107,44.6455 C268.76967,44.5271661 269.361331,44.3496678 269.882,44.113 L270.166,50.787 C269.408663,51.0710014 268.509338,51.2958325 267.468,51.4615 C266.426661,51.6271675 265.432671,51.71 264.486,51.71 C262.213989,51.71 260.368007,51.3905032 258.948,50.7515 C257.527993,50.1124968 256.403837,49.2368389 255.5755,48.1245 C254.747162,47.0121611 254.179168,45.7341739 253.8715,44.2905 C253.563832,42.8468261 253.41,41.2966749 253.41,39.64 L253.41,23.736 L247.446,23.736 Z M296.061,0.732 L312.462,0.732 C315.349348,0.732 317.952655,0.99233073 320.272,1.513 C322.591345,2.03366927 324.579325,2.88566075 326.236,4.069 C327.892675,5.25233925 329.170662,6.76699077 330.07,8.613 C330.969338,10.4590092 331.419,12.6836536 331.419,15.287 C331.419,18.0796806 330.898338,20.4226572 329.857,22.316 C328.815661,24.2093428 327.407509,25.7358275 325.6325,26.8955 C323.857491,28.0551725 321.786678,28.8953307 319.42,29.416 C317.053321,29.9366693 314.54468,30.197 311.894,30.197 L305.007,30.197 L305.007,51 L296.061,51 L296.061,0.732 Z M311.255,22.671 C312.722341,22.671 314.11866,22.5645011 315.444,22.3515 C316.76934,22.1384989 317.952661,21.7598361 318.994,21.2155 C320.035338,20.6711639 320.863663,19.9256714 321.479,18.979 C322.094336,18.0323286 322.402,16.8016742 322.402,15.287 C322.402,13.8196593 322.094336,12.6245046 321.479,11.7015 C320.863663,10.7784954 320.047172,10.0566693 319.0295,9.536 C318.011828,9.01533073 316.852173,8.67216749 315.5505,8.5065 C314.248827,8.3408325 312.911673,8.258 311.539,8.258 L305.007,8.258 L305.007,22.671 L311.255,22.671 Z M359.028,30.552 C359.028,29.4633279 358.874168,28.422005 358.5665,27.428 C358.258832,26.433995 357.77367,25.5583371 357.111,24.801 C356.44833,24.0436629 355.608172,23.4401689 354.5905,22.9905 C353.572828,22.5408311 352.377673,22.316 351.005,22.316 C348.448987,22.316 346.283509,23.085159 344.5085,24.6235 C342.733491,26.161841 341.751334,28.1379879 341.562,30.552 L359.028,30.552 Z M367.548,34.386 L367.548,35.522 C367.548,35.9006686 367.524333,36.2793314 367.477,36.658 L341.562,36.658 C341.656667,37.8886728 341.976164,39.0128282 342.5205,40.0305 C343.064836,41.0481718 343.786662,41.9238297 344.686,42.6575 C345.585338,43.3911703 346.602994,43.9709979 347.739,44.397 C348.875006,44.8230021 350.058327,45.036 351.289,45.036 C353.419011,45.036 355.217659,44.6455039 356.685,43.8645 C358.152341,43.0834961 359.359328,42.0066735 360.306,40.634 L365.986,45.178 C362.625316,49.7220227 357.750032,51.994 351.36,51.994 C348.70932,51.994 346.271678,51.5798375 344.047,50.7515 C341.822322,49.9231625 339.893508,48.7516742 338.2605,47.237 C336.627492,45.7223258 335.349505,43.864511 334.4265,41.6635 C333.503495,39.462489 333.042,36.9656806 333.042,34.173 C333.042,31.4276529 333.503495,28.9308446 334.4265,26.6825 C335.349505,24.4341554 336.615659,22.5171746 338.225,20.9315 C339.834341,19.3458254 341.739489,18.115171 343.9405,17.2395 C346.141511,16.363829 348.519987,15.926 351.076,15.926 C353.442678,15.926 355.631823,16.3164961 357.6435,17.0975 C359.655177,17.8785039 361.394659,19.038159 362.862,20.5765 C364.329341,22.114841 365.477162,24.0318219 366.3055,26.3275 C367.133837,28.6231781 367.548,31.3093179 367.548,34.386 Z M376.484,16.92 L384.649,16.92 L384.649,22.6 L384.791,22.6 C385.737671,20.6119901 387.062991,19.0026728 388.767,17.772 C390.471008,16.5413272 392.458989,15.926 394.731,15.926 C395.062335,15.926 395.417331,15.9378332 395.796,15.9615 C396.174668,15.9851668 396.505998,16.0443329 396.79,16.139 L396.79,23.949 C396.221997,23.8069993 395.736835,23.7123336 395.3345,23.665 C394.932165,23.6176664 394.541668,23.594 394.163,23.594 C392.222324,23.594 390.660339,23.9489964 389.477,24.659 C388.293661,25.3690035 387.37067,26.220995 386.708,27.215 C386.04533,28.209005 385.595668,29.2266615 385.359,30.268 C385.122332,31.3093385 385.004,32.1376636 385.004,32.753 L385.004,51 L376.484,51 L376.484,16.92 Z M443.711,15.926 C445.935678,15.926 447.840825,16.3164961 449.4265,17.0975 C451.012174,17.8785039 452.313828,18.9079936 453.3315,20.186 C454.349172,21.4640064 455.094664,22.931325 455.568,24.588 C456.041336,26.2446749 456.278,27.9486579 456.278,29.7 L456.278,51 L447.758,51 L447.758,32.114 C447.758,31.119995 447.687001,30.0786721 447.545,28.99 C447.402999,27.9013279 447.095336,26.919171 446.622,26.0435 C446.148664,25.167829 445.497837,24.4460028 444.6695,23.878 C443.841162,23.3099972 442.740673,23.026 441.368,23.026 C440.04266,23.026 438.906671,23.3099972 437.96,23.878 C437.013328,24.4460028 436.232336,25.1796622 435.617,26.079 C435.001663,26.9783378 434.552001,27.9841611 434.268,29.0965 C433.983998,30.2088389 433.842,31.3093279 433.842,32.398 L433.842,51 L425.322,51 L425.322,30.41 C425.322,28.2799893 424.813172,26.5168403 423.7955,25.1205 C422.777828,23.7241597 421.180344,23.026 419.003,23.026 C417.724993,23.026 416.612671,23.2981639 415.666,23.8425 C414.719328,24.3868361 413.950169,25.0849957 413.3585,25.937 C412.76683,26.7890043 412.317168,27.7711611 412.0095,28.8835 C411.701832,29.9958389 411.548,31.1199943 411.548,32.256 L411.548,51 L403.028,51 L403.028,16.92 L411.122,16.92 L411.122,22.387 L411.264,22.387 C411.642668,21.5349957 412.151497,20.7303371 412.7905,19.973 C413.429503,19.2156629 414.186829,18.5293364 415.0625,17.914 C415.938171,17.2986636 416.943994,16.8135018 418.08,16.4585 C419.216006,16.1034982 420.470326,15.926 421.843,15.926 C424.49368,15.926 426.694658,16.5176607 428.446,17.701 C430.197342,18.8843392 431.546328,20.4463236 432.493,22.387 C433.629006,20.3043229 435.143657,18.7068389 437.037,17.5945 C438.930343,16.4821611 441.154987,15.926 443.711,15.926 Z M467.06,16.92 L475.58,16.92 L475.58,51 L467.06,51 L467.06,16.92 Z M465.853,5.347 C465.853,3.97432647 466.361828,2.77917175 467.3795,1.7615 C468.397172,0.743828245 469.686992,0.235 471.249,0.235 C472.811008,0.235 474.124495,0.720161815 475.1895,1.6905 C476.254505,2.66083818 476.787,3.87965933 476.787,5.347 C476.787,6.81434067 476.254505,8.03316181 475.1895,9.0035 C474.124495,9.97383818 472.811008,10.459 471.249,10.459 C469.686992,10.459 468.397172,9.95017175 467.3795,8.9325 C466.361828,7.91482824 465.853,6.71967353 465.853,5.347 Z M505.319,26.008 C504.561663,25.013995 503.52034,24.1501703 502.195,23.4165 C500.86966,22.6828297 499.426008,22.316 497.864,22.316 C496.491326,22.316 495.237006,22.5999972 494.101,23.168 C492.964994,23.7360028 492.397,24.68266 492.397,26.008 C492.397,27.33334 493.02416,28.2681639 494.2785,28.8125 C495.532839,29.3568361 497.366988,29.9129972 499.781,30.481 C501.059006,30.7650014 502.348827,31.1436643 503.6505,31.617 C504.952173,32.0903357 506.135495,32.7174961 507.2005,33.4985 C508.265505,34.2795039 509.12933,35.2498275 509.792,36.4095 C510.45467,37.5691725 510.786,38.977325 510.786,40.634 C510.786,42.7166771 510.395504,44.4798261 509.6145,45.9235 C508.833496,47.3671739 507.792173,48.5386622 506.4905,49.438 C505.188827,50.3373378 503.674175,50.9881647 501.9465,51.3905 C500.218825,51.7928353 498.432009,51.994 496.586,51.994 C493.93532,51.994 491.355679,51.5088382 488.847,50.5385 C486.338321,49.5681618 484.255675,48.1836757 482.599,46.385 L488.208,41.131 C489.154671,42.3616728 490.385326,43.3793293 491.9,44.184 C493.414674,44.9886707 495.094991,45.391 496.941,45.391 C497.556336,45.391 498.183497,45.3200007 498.8225,45.178 C499.461503,45.0359993 500.053164,44.8111682 500.5975,44.5035 C501.141836,44.1958318 501.579665,43.7816693 501.911,43.261 C502.242335,42.7403307 502.408,42.1013371 502.408,41.344 C502.408,39.9239929 501.757173,38.9063364 500.4555,38.291 C499.153827,37.6756636 497.201346,37.0603364 494.598,36.445 C493.319993,36.1609986 492.077506,35.7941689 490.8705,35.3445 C489.663494,34.8948311 488.586671,34.3031703 487.64,33.5695 C486.693328,32.8358297 485.936003,31.9246721 485.368,30.836 C484.799997,29.7473279 484.516,28.3983414 484.516,26.789 C484.516,24.8956572 484.906496,23.2626735 485.6875,21.89 C486.468504,20.5173265 487.497993,19.393171 488.776,18.5175 C490.054006,17.641829 491.497658,16.9910021 493.107,16.565 C494.716341,16.1389979 496.372991,15.926 498.077,15.926 C500.538345,15.926 502.940488,16.3519957 505.2835,17.204 C507.626512,18.0560043 509.484326,19.3576579 510.857,21.109 L505.319,26.008 Z M537.543,26.008 C536.785663,25.013995 535.74434,24.1501703 534.419,23.4165 C533.09366,22.6828297 531.650008,22.316 530.088,22.316 C528.715326,22.316 527.461006,22.5999972 526.325,23.168 C525.188994,23.7360028 524.621,24.68266 524.621,26.008 C524.621,27.33334 525.24816,28.2681639 526.5025,28.8125 C527.756839,29.3568361 529.590988,29.9129972 532.005,30.481 C533.283006,30.7650014 534.572827,31.1436643 535.8745,31.617 C537.176173,32.0903357 538.359495,32.7174961 539.4245,33.4985 C540.489505,34.2795039 541.35333,35.2498275 542.016,36.4095 C542.67867,37.5691725 543.01,38.977325 543.01,40.634 C543.01,42.7166771 542.619504,44.4798261 541.8385,45.9235 C541.057496,47.3671739 540.016173,48.5386622 538.7145,49.438 C537.412827,50.3373378 535.898175,50.9881647 534.1705,51.3905 C532.442825,51.7928353 530.656009,51.994 528.81,51.994 C526.15932,51.994 523.579679,51.5088382 521.071,50.5385 C518.562321,49.5681618 516.479675,48.1836757 514.823,46.385 L520.432,41.131 C521.378671,42.3616728 522.609326,43.3793293 524.124,44.184 C525.638674,44.9886707 527.318991,45.391 529.165,45.391 C529.780336,45.391 530.407497,45.3200007 531.0465,45.178 C531.685503,45.0359993 532.277164,44.8111682 532.8215,44.5035 C533.365836,44.1958318 533.803665,43.7816693 534.135,43.261 C534.466335,42.7403307 534.632,42.1013371 534.632,41.344 C534.632,39.9239929 533.981173,38.9063364 532.6795,38.291 C531.377827,37.6756636 529.425346,37.0603364 526.822,36.445 C525.543993,36.1609986 524.301506,35.7941689 523.0945,35.3445 C521.887494,34.8948311 520.810671,34.3031703 519.864,33.5695 C518.917328,32.8358297 518.160003,31.9246721 517.592,30.836 C517.023997,29.7473279 516.74,28.3983414 516.74,26.789 C516.74,24.8956572 517.130496,23.2626735 517.9115,21.89 C518.692504,20.5173265 519.721993,19.393171 521,18.5175 C522.278006,17.641829 523.721658,16.9910021 525.331,16.565 C526.940341,16.1389979 528.596991,15.926 530.301,15.926 C532.762345,15.926 535.164488,16.3519957 537.5075,17.204 C539.850512,18.0560043 541.708326,19.3576579 543.081,21.109 L537.543,26.008 Z M551.236,16.92 L559.756,16.92 L559.756,51 L551.236,51 L551.236,16.92 Z M550.029,5.347 C550.029,3.97432647 550.537828,2.77917175 551.5555,1.7615 C552.573172,0.743828245 553.862992,0.235 555.425,0.235 C556.987008,0.235 558.300494,0.720161815 559.3655,1.6905 C560.430505,2.66083818 560.963,3.87965933 560.963,5.347 C560.963,6.81434067 560.430505,8.03316181 559.3655,9.0035 C558.300494,9.97383818 556.987008,10.459 555.425,10.459 C553.862992,10.459 552.573172,9.95017175 551.5555,8.9325 C550.537828,7.91482824 550.029,6.71967353 550.029,5.347 Z M568.834,33.818 C568.834,31.1199865 569.319162,28.670511 570.2895,26.4695 C571.259838,24.268489 572.573325,22.3870078 574.23,20.825 C575.886675,19.2629922 577.850988,18.0560043 580.123,17.204 C582.395011,16.3519957 584.808987,15.926 587.365,15.926 C589.921013,15.926 592.334988,16.3519957 594.607,17.204 C596.879011,18.0560043 598.843325,19.2629922 600.5,20.825 C602.156675,22.3870078 603.470162,24.268489 604.4405,26.4695 C605.410838,28.670511 605.896,31.1199865 605.896,33.818 C605.896,36.5160135 605.410838,38.9773222 604.4405,41.202 C603.470162,43.4266778 602.156675,45.3318254 600.5,46.9175 C598.843325,48.5031746 596.879011,49.7456622 594.607,50.645 C592.334988,51.5443378 589.921013,51.994 587.365,51.994 C584.808987,51.994 582.395011,51.5443378 580.123,50.645 C577.850988,49.7456622 575.886675,48.5031746 574.23,46.9175 C572.573325,45.3318254 571.259838,43.4266778 570.2895,41.202 C569.319162,38.9773222 568.834,36.5160135 568.834,33.818 Z M577.496,33.818 C577.496,35.14334 577.697164,36.46866 578.0995,37.794 C578.501835,39.11934 579.105329,40.3026615 579.91,41.344 C580.71467,42.3853385 581.732327,43.23733 582.963,43.9 C584.193673,44.56267 585.660991,44.894 587.365,44.894 C589.069008,44.894 590.536327,44.56267 591.767,43.9 C592.997673,43.23733 594.015329,42.3853385 594.82,41.344 C595.62467,40.3026615 596.228164,39.11934 596.6305,37.794 C597.032835,36.46866 597.234,35.14334 597.234,33.818 C597.234,32.49266 597.032835,31.1791732 596.6305,29.8775 C596.228164,28.5758268 595.62467,27.4043385 594.82,26.363 C594.015329,25.3216615 592.997673,24.4815032 591.767,23.8425 C590.536327,23.2034968 589.069008,22.884 587.365,22.884 C585.660991,22.884 584.193673,23.2034968 582.963,23.8425 C581.732327,24.4815032 580.71467,25.3216615 579.91,26.363 C579.105329,27.4043385 578.501835,28.5758268 578.0995,29.8775 C577.697164,31.1791732 577.496,32.49266 577.496,33.818 Z M614.832,16.92 L622.926,16.92 L622.926,22.387 L623.068,22.387 C623.825337,20.6829915 625.138824,19.1801732 627.0085,17.8785 C628.878176,16.5768268 631.090987,15.926 633.647,15.926 C635.871678,15.926 637.776825,16.3164961 639.3625,17.0975 C640.948174,17.8785039 642.249828,18.9079936 643.2675,20.186 C644.285172,21.4640064 645.030664,22.931325 645.504,24.588 C645.977335,26.2446749 646.214,27.9486579 646.214,29.7 L646.214,51 L637.694,51 L637.694,32.114 C637.694,31.119995 637.623001,30.0786721 637.481,28.99 C637.338999,27.9013279 637.031335,26.919171 636.558,26.0435 C636.084664,25.167829 635.433837,24.4460028 634.6055,23.878 C633.777162,23.3099972 632.676673,23.026 631.304,23.026 C629.931326,23.026 628.748005,23.2981639 627.754,23.8425 C626.759995,24.3868361 625.943503,25.0849957 625.3045,25.937 C624.665497,26.7890043 624.180335,27.7711611 623.849,28.8835 C623.517665,29.9958389 623.352,31.1199943 623.352,32.256 L623.352,51 L614.832,51 L614.832,16.92 Z" id="Request-Permission" fill="#00A3E8"></path>
                    </g>
                </g>
                <g id="padlock">
                    <g id="Group-5" transform="translate(0.000000, 61.400485)">
                        <mask id="mask-2" fill="white">
                            <use xlink:href="#path-1"></use>
                        </mask>
                        <g id="Clip-2"></g>
                        <path d="M98.6781924,63.801383 C98.6781924,70.9897749 92.8671858,77.0991232 85.6927728,77.0991232 L12.9815917,77.0991232 C5.81100658,77.0991232 0,70.9897749 0,63.801383 L0,13.4690336 C0,6.28064161 5.81100658,0.154896677 12.9815917,0.154896677 L85.689989,0.154896677 C92.8671858,0.154896677 98.6781924,6.28064161 98.6781924,13.4690336 L98.6781924,63.801383 Z" id="Fill-1" fill="#00A3E8" mask="url(#mask-2)"></path>
                        <path d="M98.6781924,35.2718628 L98.6781924,68.37483 C98.6781924,73.0909425 94.8657457,77.0991232 90.1588044,77.0991232 L42.57,77.0991232" id="Fill-3" fill="#0D8BC1" mask="url(#mask-2)"></path>
                        <path d="M0,13.3218119 C0,6.13062906 5.81100658,0.154896677 12.9815917,0.154896677 L85.689989,0.154896677 C92.8671858,0.154896677 98.6781924,6.05841372 98.6781924,13.2468057" id="Fill-4" fill="#32C2FF" mask="url(#mask-2)"></path>
                    </g>
                    <path d="M60.5765856,91.9311777 C60.5765856,85.561924 55.5579416,80.4049811 49.2113856,80.4049811 C42.8634377,80.4049811 38.0389695,85.561924 38.0389695,91.9311777 C38.0389695,96.0823389 39.4719729,99.6934549 43.8569357,101.722811 L43.8569357,118.344201 C43.8569357,121.664013 46.02906,124.351331 49.3390962,124.351331 C52.6477405,124.351331 54.8212567,121.662618 54.8212567,118.344201 L54.8212567,101.722811 C59.2065675,99.6934549 60.5765856,96.0837343 60.5765856,91.9311777 Z" id="Fill-6" fill="#0B8DC5"></path>
                    <path d="M60.5765856,89.5874933 C60.5765856,83.2206817 55.5579416,78.0612967 49.2113856,78.0612967 C42.8634377,78.0612967 38.0389695,83.2206817 38.0389695,89.5874933 C38.0389695,93.7397011 39.4719729,97.3522125 43.8569357,99.3787774 L43.8569357,116.001563 C43.8569357,119.31998 46.02906,122.007298 49.3390962,122.007298 C52.6477405,122.007298 54.8212567,119.318585 54.8212567,116.001563 L54.8212567,99.3787774 C59.2065675,97.3522125 60.5765856,93.7410965 60.5765856,89.5874933 Z" id="Fill-7" fill="#0F2D3A"></path>
                    <path d="M22.0250338,29.823541 C22.0250338,29.9299453 21.9366455,30.0199528 21.8319019,30.0199528 L21.4445943,30.0199528 C21.3346309,30.0199528 21.2486786,29.9299453 21.2486786,29.823541 C21.2486786,29.7146947 21.3346309,29.6285247 21.4445943,29.6285247 L21.8319019,29.6285247 C21.9366455,29.6285247 22.0250338,29.7146947 22.0250338,29.823541 Z" id="Fill-8" fill="#0CC4A1"></path>
                    <path d="M85.5215641,54.9611087 L74.5572431,54.9611087 L74.5572431,37.5450008 C74.5572431,23.4595203 63.3903948,12.0013527 49.3418801,12.0013527 C35.2919735,12.0013527 24.1209493,23.4595203 24.1209493,37.5450008 L24.1209493,54.9611087 L13.1569763,54.9611087 L13.1569763,37.5450008 C13.1569763,16.9985148 28.8448498,0.284326107 49.3418801,0.284326107 C69.8336906,0.284326107 85.5215641,16.9985148 85.5215641,37.5450008 L85.5215641,54.9611087 Z" id="Fill-9" fill="#6F8087"></path>
                    <path d="M13.1569763,49.2648183 L13.1569763,54.9611087 L24.1209493,54.9611087 L24.1209493,37.5450008 C24.1209493,23.4595203 35.9145192,12.0013527 49.9658177,12.0013527 C29.4701794,12.0013527 13.1569763,28.7183323 13.1569763,49.2648183 Z" id="Fill-10" fill="#4E5B61"></path>
                    <path d="M48.7179424,12.0013527 C62.7664571,12.0013527 74.5572431,23.4595203 74.5572431,37.5450008 L74.5572431,54.9611087 L85.5215641,54.9611087 L85.5215641,49.2648183 C85.5215641,28.7183323 69.2111449,12.0013527 48.7179424,12.0013527 Z" id="Fill-11" fill="#4E5B61"></path>
                </g>
            </g>
        </g>
    </g>
</svg>