<?xml version="1.0" encoding="UTF-8"?>
<svg width="1600px" height="300px" viewBox="0 0 1600 300" version="1.1" xmlns="http://www.w3.org/2000/svg" xmlns:xlink="http://www.w3.org/1999/xlink" style="background: #FFFFFF;">
    <!-- Generator: Sketch 42 (36781) - http://www.bohemiancoding.com/sketch -->
    <title>request-permission - baner - outline</title>
    <desc>Created with Sketch.</desc>
    <defs>
        <polygon id="path-1" points="0.0208791182 0.154896677 0.0208791182 77.0991232 98.6781924 77.0991232 98.6781924 0.154896677 0.0208791182 0.154896677"></polygon>
    </defs>
    <g id="Page-1" stroke="none" stroke-width="1" fill="none" fill-rule="evenodd">
        <g id="request-permission---baner---outline">
            <g id="Group-3" transform="translate(385.000000, 80.000000)">
                <g id="Group-2" transform="translate(150.000000, 21.000000)">
                    <g id="Group">
                        <path d="M12.132,94.256 C11.7479981,93.6319969 11.2080035,93.122002 10.512,92.726 C9.81599652,92.329998 9.03600432,92.132 8.172,92.132 C7.78799808,92.132 7.40400192,92.1739996 7.02,92.258 C6.63599808,92.3420004 6.2940015,92.4739991 5.994,92.654 C5.6939985,92.8340009 5.4540009,93.0619986 5.274,93.338 C5.0939991,93.6140014 5.004,93.955998 5.004,94.364 C5.004,95.0840036 5.32799676,95.6179983 5.976,95.966 C6.62400324,96.3140017 7.59599352,96.6319986 8.892,96.92 C9.70800408,97.112001 10.4639965,97.3399987 11.16,97.604 C11.8560035,97.8680013 12.4619974,98.197998 12.978,98.594 C13.4940026,98.990002 13.8959986,99.4639972 14.184,100.016 C14.4720014,100.568003 14.616,101.215996 14.616,101.96 C14.616,102.968005 14.4240019,103.819997 14.04,104.516 C13.6559981,105.212003 13.1460032,105.781998 12.51,106.226 C11.8739968,106.670002 11.1480041,106.987999 10.332,107.18 C9.51599592,107.372001 8.67600432,107.468 7.812,107.468 C6.51599352,107.468 5.25000618,107.216003 4.014,106.712 C2.77799382,106.207997 1.75200408,105.440005 0.936,104.408 L3.348,102.356 C3.80400228,103.028003 4.43399598,103.591998 5.238,104.048 C6.04200402,104.504002 6.9239952,104.732 7.884,104.732 C8.31600216,104.732 8.72999802,104.69 9.126,104.606 C9.52200198,104.522 9.88199838,104.384001 10.206,104.192 C10.5300016,103.999999 10.787999,103.748002 10.98,103.436 C11.172001,103.123998 11.268,102.728002 11.268,102.248 C11.268,101.455996 10.8900038,100.868002 10.134,100.484 C9.37799622,100.099998 8.26800732,99.7400017 6.804,99.404 C6.22799712,99.2599993 5.64600294,99.086001 5.058,98.882 C4.46999706,98.677999 3.9360024,98.3960018 3.456,98.036 C2.9759976,97.6759982 2.5860015,97.2260027 2.286,96.686 C1.9859985,96.1459973 1.836,95.480004 1.836,94.688 C1.836,93.7759954 2.02199814,92.9900033 2.394,92.33 C2.76600186,91.6699967 3.251997,91.1300021 3.852,90.71 C4.452003,90.2899979 5.13599616,89.978001 5.904,89.774 C6.67200384,89.569999 7.46399592,89.468 8.28,89.468 C9.50400612,89.468 10.6859943,89.7079976 11.826,90.188 C12.9660057,90.6680024 13.8479969,91.3639954 14.472,92.276 L12.132,94.256 Z M24.377143,107 L20.993143,107 L20.993143,89.936 L24.377143,89.936 L24.377143,107 Z M24.953143,83.78 C24.953143,84.4040031 24.7311452,84.919998 24.287143,85.328 C23.8431408,85.736002 23.3091461,85.94 22.685143,85.94 C22.0611399,85.94 21.5331451,85.7300021 21.101143,85.31 C20.6691408,84.8899979 20.453143,84.380003 20.453143,83.78 C20.453143,83.1559969 20.6691408,82.6340021 21.101143,82.214 C21.5331451,81.7939979 22.0611399,81.584 22.685143,81.584 C23.3091461,81.584 23.8431408,81.7939979 24.287143,82.214 C24.7311452,82.6340021 24.953143,83.1559969 24.953143,83.78 Z M35.6502859,92.744 C36.0822881,91.8319954 36.7722812,91.0580032 37.7202859,90.422 C38.6682907,89.7859968 39.7902795,89.468 41.0862859,89.468 C42.2382917,89.468 43.2762813,89.7319974 44.2002859,90.26 C45.1242906,90.7880026 45.8502833,91.6639939 46.3782859,92.888 C46.9542888,91.7839945 47.7582808,90.9380029 48.7902859,90.35 C49.8222911,89.7619971 50.9502798,89.468 52.1742859,89.468 C53.2782915,89.468 54.226282,89.6539981 55.0182859,90.026 C55.8102899,90.3980019 56.4702833,90.8959969 56.9982859,91.52 C57.5262886,92.1440031 57.9162847,92.8759958 58.1682859,93.716 C58.4202872,94.5560042 58.5462859,95.4559952 58.5462859,96.416 L58.5462859,107 L55.1622859,107 L55.1622859,97.532 C55.1622859,96.8359965 55.1022865,96.1760031 54.9822859,95.552 C54.8622853,94.9279969 54.6582874,94.3760024 54.3702859,93.896 C54.0822845,93.4159976 53.6982883,93.0320014 53.2182859,92.744 C52.7382835,92.4559986 52.1262897,92.312 51.3822859,92.312 C50.6142821,92.312 49.9542887,92.4739984 49.4022859,92.798 C48.8502832,93.1220016 48.4002877,93.5419974 48.0522859,94.058 C47.7042842,94.5740026 47.4522867,95.1559968 47.2962859,95.804 C47.1402852,96.4520032 47.0622859,97.1119966 47.0622859,97.784 L47.0622859,107 L43.6782859,107 L43.6782859,96.848 C43.6782859,96.1759966 43.6182865,95.5640028 43.4982859,95.012 C43.3782853,94.4599972 43.1742874,93.986002 42.8862859,93.59 C42.5982845,93.193998 42.2262882,92.8820011 41.7702859,92.654 C41.3142837,92.4259989 40.7502893,92.312 40.0782859,92.312 C38.8302797,92.312 37.7922901,92.8219949 36.9642859,93.842 C36.1362818,94.8620051 35.7222859,96.2239915 35.7222859,97.928 L35.7222859,107 L32.3382859,107 L32.3382859,93.608 C32.3382859,93.1519977 32.3262861,92.5640036 32.3022859,91.844 C32.2782858,91.1239964 32.2422862,90.4880028 32.1942859,89.936 L35.3982859,89.936 C35.4462862,90.3680022 35.4822858,90.8539973 35.5062859,91.394 C35.5302861,91.9340027 35.5422859,92.3839982 35.5422859,92.744 L35.6502859,92.744 Z M69.7114289,115.64 L66.3274289,115.64 L66.3274289,89.936 L69.6394289,89.936 L69.6394289,92.6 L69.7474289,92.6 C70.2994317,91.6879954 71.1094236,90.9380029 72.1774289,90.35 C73.2454343,89.7619971 74.4874218,89.468 75.9034289,89.468 C77.1754353,89.468 78.3334237,89.6959977 79.3774289,90.152 C80.4214341,90.6080023 81.3214251,91.2439959 82.0774289,92.06 C82.8334327,92.8760041 83.4154269,93.8299945 83.8234289,94.922 C84.231431,96.0140055 84.4354289,97.1839938 84.4354289,98.432 C84.4354289,99.6800062 84.231431,100.855994 83.8234289,101.96 C83.4154269,103.064006 82.8394326,104.023996 82.0954289,104.84 C81.3514252,105.656004 80.4514342,106.297998 79.3954289,106.766 C78.3394236,107.234002 77.1514355,107.468 75.8314289,107.468 C74.6074228,107.468 73.4554343,107.204003 72.3754289,106.676 C71.2954235,106.147997 70.443432,105.404005 69.8194289,104.444 L69.7114289,104.444 L69.7114289,115.64 Z M80.9434289,98.432 C80.9434289,97.639996 80.8234301,96.8720037 80.5834289,96.128 C80.3434277,95.3839963 79.9834313,94.7240029 79.5034289,94.148 C79.0234265,93.5719971 78.4294325,93.1160017 77.7214289,92.78 C77.0134254,92.4439983 76.1914336,92.276 75.2554289,92.276 C74.3914246,92.276 73.6054325,92.4439983 72.8974289,92.78 C72.1894254,93.1160017 71.5834314,93.5719971 71.0794289,94.148 C70.5754264,94.7240029 70.1854303,95.3839963 69.9094289,96.128 C69.6334275,96.8720037 69.4954289,97.6519959 69.4954289,98.468 C69.4954289,99.2840041 69.6334275,100.063996 69.9094289,100.808 C70.1854303,101.552004 70.5754264,102.205997 71.0794289,102.77 C71.5834314,103.334003 72.1894254,103.783998 72.8974289,104.12 C73.6054325,104.456002 74.3914246,104.624 75.2554289,104.624 C76.1914336,104.624 77.0134254,104.450002 77.7214289,104.102 C78.4294325,103.753998 79.0234265,103.292003 79.5034289,102.716 C79.9834313,102.139997 80.3434277,101.480004 80.5834289,100.736 C80.8234301,99.9919963 80.9434289,99.224004 80.9434289,98.432 Z M94.6645719,107 L91.2805719,107 L91.2805719,79.784 L94.6645719,79.784 L94.6645719,107 Z M115.117715,96.956 C115.093715,96.2839966 114.979716,95.6540029 114.775715,95.066 C114.571714,94.4779971 114.271717,93.9680022 113.875715,93.536 C113.479713,93.1039978 112.987718,92.7620013 112.399715,92.51 C111.811712,92.2579987 111.121719,92.132 110.329715,92.132 C109.609711,92.132 108.931718,92.2579987 108.295715,92.51 C107.659712,92.7620013 107.107717,93.1039978 106.639715,93.536 C106.171713,93.9680022 105.787716,94.4779971 105.487715,95.066 C105.187713,95.6540029 105.013715,96.2839966 104.965715,96.956 L115.117715,96.956 Z M118.537715,98.324 L118.537715,98.9 C118.537715,99.092001 118.525715,99.283999 118.501715,99.476 L104.965715,99.476 C104.989715,100.196004 105.151713,100.873997 105.451715,101.51 C105.751716,102.146003 106.153712,102.697998 106.657715,103.166 C107.161717,103.634002 107.743712,103.999999 108.403715,104.264 C109.063718,104.528001 109.765711,104.66 110.509715,104.66 C111.661721,104.66 112.657711,104.408003 113.497715,103.904 C114.337719,103.399997 114.997712,102.788004 115.477715,102.068 L117.853715,103.976 C116.94171,105.176006 115.867721,106.057997 114.631715,106.622 C113.395709,107.186003 112.021722,107.468 110.509715,107.468 C109.213708,107.468 108.01372,107.252002 106.909715,106.82 C105.805709,106.387998 104.857719,105.782004 104.065715,105.002 C103.273711,104.221996 102.649717,103.280006 102.193715,102.176 C101.737713,101.071994 101.509715,99.8480067 101.509715,98.504 C101.509715,97.1839934 101.731713,95.9660056 102.175715,94.85 C102.619717,93.7339944 103.237711,92.780004 104.029715,91.988 C104.821719,91.195996 105.757709,90.5780022 106.837715,90.134 C107.91772,89.6899978 109.081709,89.468 110.329715,89.468 C111.577721,89.468 112.71171,89.671998 113.731715,90.08 C114.75172,90.488002 115.615711,91.0759962 116.323715,91.844 C117.031718,92.6120038 117.577713,93.5419945 117.961715,94.634 C118.345717,95.7260055 118.537715,96.9559932 118.537715,98.324 Z M139.752001,115.64 L136.368001,115.64 L136.368001,89.936 L139.680001,89.936 L139.680001,92.6 L139.788001,92.6 C140.340004,91.6879954 141.149995,90.9380029 142.218001,90.35 C143.286006,89.7619971 144.527994,89.468 145.944001,89.468 C147.216007,89.468 148.373996,89.6959977 149.418001,90.152 C150.462006,90.6080023 151.361997,91.2439959 152.118001,92.06 C152.874005,92.8760041 153.455999,93.8299945 153.864001,94.922 C154.272003,96.0140055 154.476001,97.1839938 154.476001,98.432 C154.476001,99.6800062 154.272003,100.855994 153.864001,101.96 C153.455999,103.064006 152.880005,104.023996 152.136001,104.84 C151.391997,105.656004 150.492006,106.297998 149.436001,106.766 C148.379996,107.234002 147.192007,107.468 145.872001,107.468 C144.647995,107.468 143.496006,107.204003 142.416001,106.676 C141.335995,106.147997 140.484004,105.404005 139.860001,104.444 L139.752001,104.444 L139.752001,115.64 Z M150.984001,98.432 C150.984001,97.639996 150.864002,96.8720037 150.624001,96.128 C150.384,95.3839963 150.024003,94.7240029 149.544001,94.148 C149.063998,93.5719971 148.470004,93.1160017 147.762001,92.78 C147.053997,92.4439983 146.232005,92.276 145.296001,92.276 C144.431996,92.276 143.646004,92.4439983 142.938001,92.78 C142.229997,93.1160017 141.624003,93.5719971 141.120001,94.148 C140.615998,94.7240029 140.226002,95.3839963 139.950001,96.128 C139.673999,96.8720037 139.536001,97.6519959 139.536001,98.468 C139.536001,99.2840041 139.673999,100.063996 139.950001,100.808 C140.226002,101.552004 140.615998,102.205997 141.120001,102.77 C141.624003,103.334003 142.229997,103.783998 142.938001,104.12 C143.646004,104.456002 144.431996,104.624 145.296001,104.624 C146.232005,104.624 147.053997,104.450002 147.762001,104.102 C148.470004,103.753998 149.063998,103.292003 149.544001,102.716 C150.024003,102.139997 150.384,101.480004 150.624001,100.736 C150.864002,99.9919963 150.984001,99.224004 150.984001,98.432 Z M173.741144,96.956 C173.717144,96.2839966 173.603145,95.6540029 173.399144,95.066 C173.195143,94.4779971 172.895146,93.9680022 172.499144,93.536 C172.103142,93.1039978 171.611147,92.7620013 171.023144,92.51 C170.435141,92.2579987 169.745148,92.132 168.953144,92.132 C168.23314,92.132 167.555147,92.2579987 166.919144,92.51 C166.283141,92.7620013 165.731146,93.1039978 165.263144,93.536 C164.795141,93.9680022 164.411145,94.4779971 164.111144,95.066 C163.811142,95.6540029 163.637144,96.2839966 163.589144,96.956 L173.741144,96.956 Z M177.161144,98.324 L177.161144,98.9 C177.161144,99.092001 177.149144,99.283999 177.125144,99.476 L163.589144,99.476 C163.613144,100.196004 163.775142,100.873997 164.075144,101.51 C164.375145,102.146003 164.777141,102.697998 165.281144,103.166 C165.785146,103.634002 166.36714,103.999999 167.027144,104.264 C167.687147,104.528001 168.38914,104.66 169.133144,104.66 C170.28515,104.66 171.28114,104.408003 172.121144,103.904 C172.961148,103.399997 173.621141,102.788004 174.101144,102.068 L176.477144,103.976 C175.565139,105.176006 174.49115,106.057997 173.255144,106.622 C172.019138,107.186003 170.645151,107.468 169.133144,107.468 C167.837137,107.468 166.637149,107.252002 165.533144,106.82 C164.429138,106.387998 163.481148,105.782004 162.689144,105.002 C161.89714,104.221996 161.273146,103.280006 160.817144,102.176 C160.361142,101.071994 160.133144,99.8480067 160.133144,98.504 C160.133144,97.1839934 160.355142,95.9660056 160.799144,94.85 C161.243146,93.7339944 161.86114,92.780004 162.653144,91.988 C163.445148,91.195996 164.381138,90.5780022 165.461144,90.134 C166.541149,89.6899978 167.705138,89.468 168.953144,89.468 C170.20115,89.468 171.335139,89.671998 172.355144,90.08 C173.375149,90.488002 174.23914,91.0759962 174.947144,91.844 C175.655147,92.6120038 176.201142,93.5419945 176.585144,94.634 C176.969146,95.7260055 177.161144,96.9559932 177.161144,98.324 Z M183.934287,93.608 C183.934287,93.1519977 183.922287,92.5640036 183.898287,91.844 C183.874287,91.1239964 183.838287,90.4880028 183.790287,89.936 L186.994287,89.936 C187.042287,90.3680022 187.078287,90.8659972 187.102287,91.43 C187.126287,91.9940028 187.138287,92.4559982 187.138287,92.816 L187.246287,92.816 C187.726289,91.807995 188.428282,90.9980031 189.352287,90.386 C190.276291,89.7739969 191.314281,89.468 192.466287,89.468 C192.994289,89.468 193.438285,89.5159995 193.798287,89.612 L193.654287,92.744 C193.174284,92.6239994 192.65829,92.564 192.106287,92.564 C191.290283,92.564 190.58229,92.7139985 189.982287,93.014 C189.382284,93.3140015 188.884289,93.7159975 188.488287,94.22 C188.092285,94.7240025 187.798288,95.3059967 187.606287,95.966 C187.414286,96.6260033 187.318287,97.3159964 187.318287,98.036 L187.318287,107 L183.934287,107 L183.934287,93.608 Z M202.33543,92.744 C202.767432,91.8319954 203.457425,91.0580032 204.40543,90.422 C205.353434,89.7859968 206.475423,89.468 207.77143,89.468 C208.923435,89.468 209.961425,89.7319974 210.88543,90.26 C211.809434,90.7880026 212.535427,91.6639939 213.06343,92.888 C213.639433,91.7839945 214.443425,90.9380029 215.47543,90.35 C216.507435,89.7619971 217.635424,89.468 218.85943,89.468 C219.963435,89.468 220.911426,89.6539981 221.70343,90.026 C222.495434,90.3980019 223.155427,90.8959969 223.68343,91.52 C224.211432,92.1440031 224.601428,92.8759958 224.85343,93.716 C225.105431,94.5560042 225.23143,95.4559952 225.23143,96.416 L225.23143,107 L221.84743,107 L221.84743,97.532 C221.84743,96.8359965 221.78743,96.1760031 221.66743,95.552 C221.547429,94.9279969 221.343431,94.3760024 221.05543,93.896 C220.767428,93.4159976 220.383432,93.0320014 219.90343,92.744 C219.423427,92.4559986 218.811433,92.312 218.06743,92.312 C217.299426,92.312 216.639432,92.4739984 216.08743,92.798 C215.535427,93.1220016 215.085431,93.5419974 214.73743,94.058 C214.389428,94.5740026 214.137431,95.1559968 213.98143,95.804 C213.825429,96.4520032 213.74743,97.1119966 213.74743,97.784 L213.74743,107 L210.36343,107 L210.36343,96.848 C210.36343,96.1759966 210.30343,95.5640028 210.18343,95.012 C210.063429,94.4599972 209.859431,93.986002 209.57143,93.59 C209.283428,93.193998 208.911432,92.8820011 208.45543,92.654 C207.999427,92.4259989 207.435433,92.312 206.76343,92.312 C205.515423,92.312 204.477434,92.8219949 203.64943,93.842 C202.821426,94.8620051 202.40743,96.2239915 202.40743,97.928 L202.40743,107 L199.02343,107 L199.02343,93.608 C199.02343,93.1519977 199.01143,92.5640036 198.98743,91.844 C198.96343,91.1239964 198.92743,90.4880028 198.87943,89.936 L202.08343,89.936 C202.13143,90.3680022 202.16743,90.8539973 202.19143,91.394 C202.21543,91.9340027 202.22743,92.3839982 202.22743,92.744 L202.33543,92.744 Z M236.432573,107 L233.048573,107 L233.048573,89.936 L236.432573,89.936 L236.432573,107 Z M237.008573,83.78 C237.008573,84.4040031 236.786575,84.919998 236.342573,85.328 C235.89857,85.736002 235.364576,85.94 234.740573,85.94 C234.11657,85.94 233.588575,85.7300021 233.156573,85.31 C232.724571,84.8899979 232.508573,84.380003 232.508573,83.78 C232.508573,83.1559969 232.724571,82.6340021 233.156573,82.214 C233.588575,81.7939979 234.11657,81.584 234.740573,81.584 C235.364576,81.584 235.89857,81.7939979 236.342573,82.214 C236.786575,82.6340021 237.008573,83.1559969 237.008573,83.78 Z M253.609716,94.256 C253.225714,93.6319969 252.685719,93.122002 251.989716,92.726 C251.293712,92.329998 250.51372,92.132 249.649716,92.132 C249.265714,92.132 248.881718,92.1739996 248.497716,92.258 C248.113714,92.3420004 247.771717,92.4739991 247.471716,92.654 C247.171714,92.8340009 246.931717,93.0619986 246.751716,93.338 C246.571715,93.6140014 246.481716,93.955998 246.481716,94.364 C246.481716,95.0840036 246.805712,95.6179983 247.453716,95.966 C248.101719,96.3140017 249.073709,96.6319986 250.369716,96.92 C251.18572,97.112001 251.941712,97.3399987 252.637716,97.604 C253.333719,97.8680013 253.939713,98.197998 254.455716,98.594 C254.971718,98.990002 255.373714,99.4639972 255.661716,100.016 C255.949717,100.568003 256.093716,101.215996 256.093716,101.96 C256.093716,102.968005 255.901718,103.819997 255.517716,104.516 C255.133714,105.212003 254.623719,105.781998 253.987716,106.226 C253.351712,106.670002 252.62572,106.987999 251.809716,107.18 C250.993712,107.372001 250.15372,107.468 249.289716,107.468 C247.993709,107.468 246.727722,107.216003 245.491716,106.712 C244.255709,106.207997 243.22972,105.440005 242.413716,104.408 L244.825716,102.356 C245.281718,103.028003 245.911712,103.591998 246.715716,104.048 C247.51972,104.504002 248.401711,104.732 249.361716,104.732 C249.793718,104.732 250.207714,104.69 250.603716,104.606 C250.999718,104.522 251.359714,104.384001 251.683716,104.192 C252.007717,103.999999 252.265715,103.748002 252.457716,103.436 C252.649717,103.123998 252.745716,102.728002 252.745716,102.248 C252.745716,101.455996 252.367719,100.868002 251.611716,100.484 C250.855712,100.099998 249.745723,99.7400017 248.281716,99.404 C247.705713,99.2599993 247.123719,99.086001 246.535716,98.882 C245.947713,98.677999 245.413718,98.3960018 244.933716,98.036 C244.453713,97.6759982 244.063717,97.2260027 243.763716,96.686 C243.463714,96.1459973 243.313716,95.480004 243.313716,94.688 C243.313716,93.7759954 243.499714,92.9900033 243.871716,92.33 C244.243718,91.6699967 244.729713,91.1300021 245.329716,90.71 C245.929719,90.2899979 246.613712,89.978001 247.381716,89.774 C248.14972,89.569999 248.941712,89.468 249.757716,89.468 C250.981722,89.468 252.16371,89.7079976 253.303716,90.188 C254.443721,90.6680024 255.325713,91.3639954 255.949716,92.276 L253.609716,94.256 Z M271.650859,94.256 C271.266857,93.6319969 270.726862,93.122002 270.030859,92.726 C269.334855,92.329998 268.554863,92.132 267.690859,92.132 C267.306857,92.132 266.922861,92.1739996 266.538859,92.258 C266.154857,92.3420004 265.81286,92.4739991 265.512859,92.654 C265.212857,92.8340009 264.97286,93.0619986 264.792859,93.338 C264.612858,93.6140014 264.522859,93.955998 264.522859,94.364 C264.522859,95.0840036 264.846855,95.6179983 265.494859,95.966 C266.142862,96.3140017 267.114852,96.6319986 268.410859,96.92 C269.226863,97.112001 269.982855,97.3399987 270.678859,97.604 C271.374862,97.8680013 271.980856,98.197998 272.496859,98.594 C273.012861,98.990002 273.414857,99.4639972 273.702859,100.016 C273.99086,100.568003 274.134859,101.215996 274.134859,101.96 C274.134859,102.968005 273.942861,103.819997 273.558859,104.516 C273.174857,105.212003 272.664862,105.781998 272.028859,106.226 C271.392855,106.670002 270.666863,106.987999 269.850859,107.18 C269.034855,107.372001 268.194863,107.468 267.330859,107.468 C266.034852,107.468 264.768865,107.216003 263.532859,106.712 C262.296852,106.207997 261.270863,105.440005 260.454859,104.408 L262.866859,102.356 C263.322861,103.028003 263.952855,103.591998 264.756859,104.048 C265.560863,104.504002 266.442854,104.732 267.402859,104.732 C267.834861,104.732 268.248857,104.69 268.644859,104.606 C269.040861,104.522 269.400857,104.384001 269.724859,104.192 C270.04886,103.999999 270.306858,103.748002 270.498859,103.436 C270.69086,103.123998 270.786859,102.728002 270.786859,102.248 C270.786859,101.455996 270.408862,100.868002 269.652859,100.484 C268.896855,100.099998 267.786866,99.7400017 266.322859,99.404 C265.746856,99.2599993 265.164862,99.086001 264.576859,98.882 C263.988856,98.677999 263.454861,98.3960018 262.974859,98.036 C262.494856,97.6759982 262.10486,97.2260027 261.804859,96.686 C261.504857,96.1459973 261.354859,95.480004 261.354859,94.688 C261.354859,93.7759954 261.540857,92.9900033 261.912859,92.33 C262.284861,91.6699967 262.770856,91.1300021 263.370859,90.71 C263.970862,90.2899979 264.654855,89.978001 265.422859,89.774 C266.190862,89.569999 266.982855,89.468 267.798859,89.468 C269.022865,89.468 270.204853,89.7079976 271.344859,90.188 C272.484864,90.6680024 273.366856,91.3639954 273.990859,92.276 L271.650859,94.256 Z M283.896002,107 L280.512002,107 L280.512002,89.936 L283.896002,89.936 L283.896002,107 Z M284.472002,83.78 C284.472002,84.4040031 284.250004,84.919998 283.806002,85.328 C283.361999,85.736002 282.828005,85.94 282.204002,85.94 C281.579999,85.94 281.052004,85.7300021 280.620002,85.31 C280.187999,84.8899979 279.972002,84.380003 279.972002,83.78 C279.972002,83.1559969 280.187999,82.6340021 280.620002,82.214 C281.052004,81.7939979 281.579999,81.584 282.204002,81.584 C282.828005,81.584 283.361999,81.7939979 283.806002,82.214 C284.250004,82.6340021 284.472002,83.1559969 284.472002,83.78 Z M309.137145,98.432 C309.137145,99.7520066 308.903147,100.963994 308.435145,102.068 C307.967142,103.172006 307.319149,104.125996 306.491145,104.93 C305.66314,105.734004 304.68515,106.357998 303.557145,106.802 C302.429139,107.246002 301.217151,107.468 299.921145,107.468 C298.625138,107.468 297.41315,107.246002 296.285145,106.802 C295.157139,106.357998 294.185149,105.734004 293.369145,104.93 C292.553141,104.125996 291.911147,103.172006 291.443145,102.068 C290.975142,100.963994 290.741145,99.7520066 290.741145,98.432 C290.741145,97.1119934 290.975142,95.9060055 291.443145,94.814 C291.911147,93.7219945 292.553141,92.780004 293.369145,91.988 C294.185149,91.195996 295.157139,90.5780022 296.285145,90.134 C297.41315,89.6899978 298.625138,89.468 299.921145,89.468 C301.217151,89.468 302.429139,89.6899978 303.557145,90.134 C304.68515,90.5780022 305.66314,91.195996 306.491145,91.988 C307.319149,92.780004 307.967142,93.7219945 308.435145,94.814 C308.903147,95.9060055 309.137145,97.1119934 309.137145,98.432 Z M305.609145,98.432 C305.609145,97.6159959 305.483146,96.8360037 305.231145,96.092 C304.979143,95.3479963 304.613147,94.6940028 304.133145,94.13 C303.653142,93.5659972 303.059148,93.1160017 302.351145,92.78 C301.643141,92.4439983 300.833149,92.276 299.921145,92.276 C299.00914,92.276 298.199148,92.4439983 297.491145,92.78 C296.783141,93.1160017 296.189147,93.5659972 295.709145,94.13 C295.229142,94.6940028 294.863146,95.3479963 294.611145,96.092 C294.359143,96.8360037 294.233145,97.6159959 294.233145,98.432 C294.233145,99.2480041 294.359143,100.027996 294.611145,100.772 C294.863146,101.516004 295.229142,102.175997 295.709145,102.752 C296.189147,103.328003 296.783141,103.783998 297.491145,104.12 C298.199148,104.456002 299.00914,104.624 299.921145,104.624 C300.833149,104.624 301.643141,104.456002 302.351145,104.12 C303.059148,103.783998 303.653142,103.328003 304.133145,102.752 C304.613147,102.175997 304.979143,101.516004 305.231145,100.772 C305.483146,100.027996 305.609145,99.2480041 305.609145,98.432 Z M318.934288,89.936 C318.982288,90.3680022 319.018287,90.8539973 319.042288,91.394 C319.066288,91.9340027 319.078288,92.3839982 319.078288,92.744 L319.186288,92.744 C319.402289,92.2879977 319.696286,91.862002 320.068288,91.466 C320.440289,91.069998 320.866285,90.7220015 321.346288,90.422 C321.82629,90.1219985 322.354285,89.8880008 322.930288,89.72 C323.50629,89.5519992 324.106284,89.468 324.730288,89.468 C325.834293,89.468 326.782284,89.6539981 327.574288,90.026 C328.366292,90.3980019 329.026285,90.8959969 329.554288,91.52 C330.08229,92.1440031 330.472286,92.8759958 330.724288,93.716 C330.976289,94.5560042 331.102288,95.4559952 331.102288,96.416 L331.102288,107 L327.718288,107 L327.718288,97.532 C327.718288,96.8359965 327.664288,96.1760031 327.556288,95.552 C327.448287,94.9279969 327.250289,94.3760024 326.962288,93.896 C326.674286,93.4159976 326.27829,93.0320014 325.774288,92.744 C325.270285,92.4559986 324.622292,92.312 323.830288,92.312 C322.486281,92.312 321.388292,92.8219949 320.536288,93.842 C319.684283,94.8620051 319.258288,96.2239915 319.258288,97.928 L319.258288,107 L315.874288,107 L315.874288,93.608 C315.874288,93.1519977 315.862288,92.5640036 315.838288,91.844 C315.814287,91.1239964 315.778288,90.4880028 315.730288,89.936 L318.934288,89.936 Z M348.099431,94.256 C347.715429,93.6319969 347.175434,93.122002 346.479431,92.726 C345.783427,92.329998 345.003435,92.132 344.139431,92.132 C343.755429,92.132 343.371432,92.1739996 342.987431,92.258 C342.603429,92.3420004 342.261432,92.4739991 341.961431,92.654 C341.661429,92.8340009 341.421431,93.0619986 341.241431,93.338 C341.06143,93.6140014 340.971431,93.955998 340.971431,94.364 C340.971431,95.0840036 341.295427,95.6179983 341.943431,95.966 C342.591434,96.3140017 343.563424,96.6319986 344.859431,96.92 C345.675435,97.112001 346.431427,97.3399987 347.127431,97.604 C347.823434,97.8680013 348.429428,98.197998 348.945431,98.594 C349.461433,98.990002 349.863429,99.4639972 350.151431,100.016 C350.439432,100.568003 350.583431,101.215996 350.583431,101.96 C350.583431,102.968005 350.391432,103.819997 350.007431,104.516 C349.623429,105.212003 349.113434,105.781998 348.477431,106.226 C347.841427,106.670002 347.115435,106.987999 346.299431,107.18 C345.483426,107.372001 344.643435,107.468 343.779431,107.468 C342.483424,107.468 341.217437,107.216003 339.981431,106.712 C338.745424,106.207997 337.719435,105.440005 336.903431,104.408 L339.315431,102.356 C339.771433,103.028003 340.401427,103.591998 341.205431,104.048 C342.009435,104.504002 342.891426,104.732 343.851431,104.732 C344.283433,104.732 344.697429,104.69 345.093431,104.606 C345.489433,104.522 345.849429,104.384001 346.173431,104.192 C346.497432,103.999999 346.75543,103.748002 346.947431,103.436 C347.139432,103.123998 347.235431,102.728002 347.235431,102.248 C347.235431,101.455996 346.857434,100.868002 346.101431,100.484 C345.345427,100.099998 344.235438,99.7400017 342.771431,99.404 C342.195428,99.2599993 341.613433,99.086001 341.025431,98.882 C340.437428,98.677999 339.903433,98.3960018 339.423431,98.036 C338.943428,97.6759982 338.553432,97.2260027 338.253431,96.686 C337.953429,96.1459973 337.803431,95.480004 337.803431,94.688 C337.803431,93.7759954 337.989429,92.9900033 338.361431,92.33 C338.733432,91.6699967 339.219428,91.1300021 339.819431,90.71 C340.419434,90.2899979 341.103427,89.978001 341.871431,89.774 C342.639434,89.569999 343.431426,89.468 344.247431,89.468 C345.471437,89.468 346.653425,89.7079976 347.793431,90.188 C348.933436,90.6680024 349.815427,91.3639954 350.439431,92.276 L348.099431,94.256 Z M371.293716,92.744 C371.725719,91.8319954 372.415712,91.0580032 373.363716,90.422 C374.311721,89.7859968 375.43371,89.468 376.729716,89.468 C377.881722,89.468 378.919712,89.7319974 379.843716,90.26 C380.767721,90.7880026 381.493714,91.6639939 382.021716,92.888 C382.597719,91.7839945 383.401711,90.9380029 384.433716,90.35 C385.465722,89.7619971 386.59371,89.468 387.817716,89.468 C388.921722,89.468 389.869713,89.6539981 390.661716,90.026 C391.45372,90.3980019 392.113714,90.8959969 392.641716,91.52 C393.169719,92.1440031 393.559715,92.8759958 393.811716,93.716 C394.063718,94.5560042 394.189716,95.4559952 394.189716,96.416 L394.189716,107 L390.805716,107 L390.805716,97.532 C390.805716,96.8359965 390.745717,96.1760031 390.625716,95.552 C390.505716,94.9279969 390.301718,94.3760024 390.013716,93.896 C389.725715,93.4159976 389.341719,93.0320014 388.861716,92.744 C388.381714,92.4559986 387.76972,92.312 387.025716,92.312 C386.257713,92.312 385.597719,92.4739984 385.045716,92.798 C384.493714,93.1220016 384.043718,93.5419974 383.695716,94.058 C383.347715,94.5740026 383.095717,95.1559968 382.939716,95.804 C382.783716,96.4520032 382.705716,97.1119966 382.705716,97.784 L382.705716,107 L379.321716,107 L379.321716,96.848 C379.321716,96.1759966 379.261717,95.5640028 379.141716,95.012 C379.021716,94.4599972 378.817718,93.986002 378.529716,93.59 C378.241715,93.193998 377.869719,92.8820011 377.413716,92.654 C376.957714,92.4259989 376.39372,92.312 375.721716,92.312 C374.47371,92.312 373.435721,92.8219949 372.607716,93.842 C371.779712,94.8620051 371.365716,96.2239915 371.365716,97.928 L371.365716,107 L367.981716,107 L367.981716,93.608 C367.981716,93.1519977 367.969717,92.5640036 367.945716,91.844 C367.921716,91.1239964 367.885717,90.4880028 367.837716,89.936 L371.041716,89.936 C371.089717,90.3680022 371.125716,90.8539973 371.149716,91.394 C371.173717,91.9340027 371.185716,92.3839982 371.185716,92.744 L371.293716,92.744 Z M412.590859,95.948 C412.590859,94.6759936 412.206863,93.7340031 411.438859,93.122 C410.670856,92.5099969 409.650866,92.204 408.378859,92.204 C407.418855,92.204 406.512864,92.3899981 405.660859,92.762 C404.808855,93.1340019 404.094862,93.6079971 403.518859,94.184 L401.718859,92.024 C402.558864,91.231996 403.584853,90.6080023 404.796859,90.152 C406.008866,89.6959977 407.310852,89.468 408.702859,89.468 C409.926866,89.468 410.988855,89.6419983 411.888859,89.99 C412.788864,90.3380017 413.526857,90.811997 414.102859,91.412 C414.678862,92.012003 415.110858,92.7199959 415.398859,93.536 C415.686861,94.3520041 415.830859,95.2279953 415.830859,96.164 L415.830859,103.616 C415.830859,104.192003 415.848859,104.797997 415.884859,105.434 C415.92086,106.070003 415.986859,106.591998 416.082859,107 L413.022859,107 C412.830858,106.183996 412.734859,105.368004 412.734859,104.552 L412.626859,104.552 C412.002856,105.464005 411.216864,106.171997 410.268859,106.676 C409.320855,107.180003 408.198866,107.432 406.902859,107.432 C406.230856,107.432 405.528863,107.342001 404.796859,107.162 C404.064856,106.981999 403.398862,106.688002 402.798859,106.28 C402.198856,105.871998 401.700861,105.332003 401.304859,104.66 C400.908857,103.987997 400.710859,103.160005 400.710859,102.176 C400.710859,100.879994 401.058856,99.8540038 401.754859,99.098 C402.450863,98.3419962 403.362854,97.766002 404.490859,97.37 C405.618865,96.973998 406.890852,96.7160006 408.306859,96.596 C409.722867,96.4759994 411.150852,96.416 412.590859,96.416 L412.590859,95.948 Z M411.762859,98.864 C410.922855,98.864 410.052864,98.8999996 409.152859,98.972 C408.252855,99.0440004 407.436863,99.1879989 406.704859,99.404 C405.972856,99.6200011 405.366862,99.9439978 404.886859,100.376 C404.406857,100.808002 404.166859,101.383996 404.166859,102.104 C404.166859,102.608003 404.268858,103.027998 404.472859,103.364 C404.67686,103.700002 404.946858,103.975999 405.282859,104.192 C405.618861,104.408001 405.990857,104.558 406.398859,104.642 C406.806861,104.726 407.226857,104.768 407.658859,104.768 C409.242867,104.768 410.460855,104.294005 411.312859,103.346 C412.164864,102.397995 412.590859,101.204007 412.590859,99.764 L412.590859,98.864 L411.762859,98.864 Z M426.600002,89.936 C426.648003,90.3680022 426.684002,90.8539973 426.708002,91.394 C426.732003,91.9340027 426.744002,92.3839982 426.744002,92.744 L426.852002,92.744 C427.068004,92.2879977 427.362001,91.862002 427.734002,91.466 C428.106004,91.069998 428.532,90.7220015 429.012002,90.422 C429.492005,90.1219985 430.02,89.8880008 430.596002,89.72 C431.172005,89.5519992 431.771999,89.468 432.396002,89.468 C433.500008,89.468 434.447998,89.6539981 435.240002,90.026 C436.032006,90.3980019 436.692,90.8959969 437.220002,91.52 C437.748005,92.1440031 438.138001,92.8759958 438.390002,93.716 C438.642004,94.5560042 438.768002,95.4559952 438.768002,96.416 L438.768002,107 L435.384002,107 L435.384002,97.532 C435.384002,96.8359965 435.330003,96.1760031 435.222002,95.552 C435.114002,94.9279969 434.916004,94.3760024 434.628002,93.896 C434.340001,93.4159976 433.944005,93.0320014 433.440002,92.744 C432.936,92.4559986 432.288006,92.312 431.496002,92.312 C430.151996,92.312 429.054007,92.8219949 428.202002,93.842 C427.349998,94.8620051 426.924002,96.2239915 426.924002,97.928 L426.924002,107 L423.540002,107 L423.540002,93.608 C423.540002,93.1519977 423.528003,92.5640036 423.504002,91.844 C423.480002,91.1239964 423.444003,90.4880028 423.396002,89.936 L426.600002,89.936 Z M457.169145,95.948 C457.169145,94.6759936 456.785149,93.7340031 456.017145,93.122 C455.249142,92.5099969 454.229152,92.204 452.957145,92.204 C451.997141,92.204 451.09115,92.3899981 450.239145,92.762 C449.387141,93.1340019 448.673148,93.6079971 448.097145,94.184 L446.297145,92.024 C447.13715,91.231996 448.163139,90.6080023 449.375145,90.152 C450.587151,89.6959977 451.889138,89.468 453.281145,89.468 C454.505152,89.468 455.567141,89.6419983 456.467145,89.99 C457.36715,90.3380017 458.105143,90.811997 458.681145,91.412 C459.257148,92.012003 459.689144,92.7199959 459.977145,93.536 C460.265147,94.3520041 460.409145,95.2279953 460.409145,96.164 L460.409145,103.616 C460.409145,104.192003 460.427145,104.797997 460.463145,105.434 C460.499146,106.070003 460.565145,106.591998 460.661145,107 L457.601145,107 C457.409144,106.183996 457.313145,105.368004 457.313145,104.552 L457.205145,104.552 C456.581142,105.464005 455.79515,106.171997 454.847145,106.676 C453.899141,107.180003 452.777152,107.432 451.481145,107.432 C450.809142,107.432 450.107149,107.342001 449.375145,107.162 C448.643142,106.981999 447.977148,106.688002 447.377145,106.28 C446.777142,105.871998 446.279147,105.332003 445.883145,104.66 C445.487143,103.987997 445.289145,103.160005 445.289145,102.176 C445.289145,100.879994 445.637142,99.8540038 446.333145,99.098 C447.029149,98.3419962 447.94114,97.766002 449.069145,97.37 C450.197151,96.973998 451.469138,96.7160006 452.885145,96.596 C454.301152,96.4759994 455.729138,96.416 457.169145,96.416 L457.169145,95.948 Z M456.341145,98.864 C455.501141,98.864 454.63115,98.8999996 453.731145,98.972 C452.831141,99.0440004 452.015149,99.1879989 451.283145,99.404 C450.551142,99.6200011 449.945148,99.9439978 449.465145,100.376 C448.985143,100.808002 448.745145,101.383996 448.745145,102.104 C448.745145,102.608003 448.847144,103.027998 449.051145,103.364 C449.255146,103.700002 449.525144,103.975999 449.861145,104.192 C450.197147,104.408001 450.569143,104.558 450.977145,104.642 C451.385147,104.726 451.805143,104.768 452.237145,104.768 C453.821153,104.768 455.039141,104.294005 455.891145,103.346 C456.74315,102.397995 457.169145,101.204007 457.169145,99.764 L457.169145,98.864 L456.341145,98.864 Z M469.450288,109.916 C470.194292,110.756004 471.124283,111.427997 472.240288,111.932 C473.356294,112.436003 474.502282,112.688 475.678288,112.688 C476.806294,112.688 477.754285,112.526002 478.522288,112.202 C479.290292,111.877998 479.908286,111.434003 480.376288,110.87 C480.844291,110.305997 481.180287,109.640004 481.384288,108.872 C481.588289,108.103996 481.690288,107.276004 481.690288,106.388 L481.690288,104.192 L481.618288,104.192 C480.994285,105.152005 480.142294,105.883997 479.062288,106.388 C477.982283,106.892003 476.830294,107.144 475.606288,107.144 C474.310282,107.144 473.128294,106.916002 472.060288,106.46 C470.992283,106.003998 470.086292,105.380004 469.342288,104.588 C468.598285,103.795996 468.02229,102.866005 467.614288,101.798 C467.206286,100.729995 467.002288,99.5840061 467.002288,98.36 C467.002288,97.1359939 467.206286,95.9840054 467.614288,94.904 C468.02229,93.8239946 468.598285,92.882004 469.342288,92.078 C470.086292,91.273996 470.986283,90.6380023 472.042288,90.17 C473.098294,89.7019977 474.274282,89.468 475.570288,89.468 C476.794294,89.468 477.964283,89.7319974 479.080288,90.26 C480.196294,90.7880026 481.078285,91.5919946 481.726288,92.672 L481.798288,92.672 L481.798288,89.936 L485.074288,89.936 L485.074288,106.136 C485.074288,107.384006 484.91829,108.577994 484.606288,109.718 C484.294287,110.858006 483.766292,111.865996 483.022288,112.742 C482.278285,113.618004 481.306294,114.319997 480.106288,114.848 C478.906282,115.376003 477.418297,115.64 475.642288,115.64 C474.154281,115.64 472.660296,115.370003 471.160288,114.83 C469.660281,114.289997 468.370294,113.528005 467.290288,112.544 L469.450288,109.916 Z M470.494288,98.288 C470.494288,99.080004 470.620287,99.8359964 470.872288,100.556 C471.12429,101.276004 471.496286,101.911997 471.988288,102.464 C472.480291,103.016003 473.074285,103.459998 473.770288,103.796 C474.466292,104.132002 475.258284,104.3 476.146288,104.3 C477.010293,104.3 477.802285,104.144002 478.522288,103.832 C479.242292,103.519998 479.854286,103.094003 480.358288,102.554 C480.862291,102.013997 481.252287,101.378004 481.528288,100.646 C481.80429,99.9139963 481.942288,99.1280042 481.942288,98.288 C481.942288,97.4719959 481.80429,96.7040036 481.528288,95.984 C481.252287,95.2639964 480.856291,94.6280028 480.340288,94.076 C479.824286,93.5239972 479.212292,93.0860016 478.504288,92.762 C477.796285,92.4379984 477.010293,92.276 476.146288,92.276 C475.258284,92.276 474.466292,92.4379984 473.770288,92.762 C473.074285,93.0860016 472.480291,93.5179973 471.988288,94.058 C471.496286,94.5980027 471.12429,95.2339963 470.872288,95.966 C470.620287,96.6980037 470.494288,97.4719959 470.494288,98.288 Z M505.419431,96.956 C505.395431,96.2839966 505.281432,95.6540029 505.077431,95.066 C504.87343,94.4779971 504.573433,93.9680022 504.177431,93.536 C503.781429,93.1039978 503.289434,92.7620013 502.701431,92.51 C502.113428,92.2579987 501.423435,92.132 500.631431,92.132 C499.911428,92.132 499.233435,92.2579987 498.597431,92.51 C497.961428,92.7620013 497.409434,93.1039978 496.941431,93.536 C496.473429,93.9680022 496.089433,94.4779971 495.789431,95.066 C495.48943,95.6540029 495.315432,96.2839966 495.267431,96.956 L505.419431,96.956 Z M508.839431,98.324 L508.839431,98.9 C508.839431,99.092001 508.827431,99.283999 508.803431,99.476 L495.267431,99.476 C495.291431,100.196004 495.45343,100.873997 495.753431,101.51 C496.053433,102.146003 496.455429,102.697998 496.959431,103.166 C497.463434,103.634002 498.045428,103.999999 498.705431,104.264 C499.365435,104.528001 500.067428,104.66 500.811431,104.66 C501.963437,104.66 502.959427,104.408003 503.799431,103.904 C504.639436,103.399997 505.299429,102.788004 505.779431,102.068 L508.155431,103.976 C507.243427,105.176006 506.169438,106.057997 504.933431,106.622 C503.697425,107.186003 502.323439,107.468 500.811431,107.468 C499.515425,107.468 498.315437,107.252002 497.211431,106.82 C496.107426,106.387998 495.159435,105.782004 494.367431,105.002 C493.575427,104.221996 492.951434,103.280006 492.495431,102.176 C492.039429,101.071994 491.811431,99.8480067 491.811431,98.504 C491.811431,97.1839934 492.033429,95.9660056 492.477431,94.85 C492.921434,93.7339944 493.539427,92.780004 494.331431,91.988 C495.123435,91.195996 496.059426,90.5780022 497.139431,90.134 C498.219437,89.6899978 499.383425,89.468 500.631431,89.468 C501.879438,89.468 503.013426,89.671998 504.033431,90.08 C505.053436,90.488002 505.917428,91.0759962 506.625431,91.844 C507.333435,92.6120038 507.879429,93.5419945 508.263431,94.634 C508.647433,95.7260055 508.839431,96.9559932 508.839431,98.324 Z M518.924574,92.744 C519.356576,91.8319954 520.04657,91.0580032 520.994574,90.422 C521.942579,89.7859968 523.064568,89.468 524.360574,89.468 C525.51258,89.468 526.55057,89.7319974 527.474574,90.26 C528.398579,90.7880026 529.124572,91.6639939 529.652574,92.888 C530.228577,91.7839945 531.032569,90.9380029 532.064574,90.35 C533.096579,89.7619971 534.224568,89.468 535.448574,89.468 C536.55258,89.468 537.50057,89.6539981 538.292574,90.026 C539.084578,90.3980019 539.744572,90.8959969 540.272574,91.52 C540.800577,92.1440031 541.190573,92.8759958 541.442574,93.716 C541.694576,94.5560042 541.820574,95.4559952 541.820574,96.416 L541.820574,107 L538.436574,107 L538.436574,97.532 C538.436574,96.8359965 538.376575,96.1760031 538.256574,95.552 C538.136574,94.9279969 537.932576,94.3760024 537.644574,93.896 C537.356573,93.4159976 536.972577,93.0320014 536.492574,92.744 C536.012572,92.4559986 535.400578,92.312 534.656574,92.312 C533.88857,92.312 533.228577,92.4739984 532.676574,92.798 C532.124572,93.1220016 531.674576,93.5419974 531.326574,94.058 C530.978573,94.5740026 530.726575,95.1559968 530.570574,95.804 C530.414574,96.4520032 530.336574,97.1119966 530.336574,97.784 L530.336574,107 L526.952574,107 L526.952574,96.848 C526.952574,96.1759966 526.892575,95.5640028 526.772574,95.012 C526.652574,94.4599972 526.448576,93.986002 526.160574,93.59 C525.872573,93.193998 525.500577,92.8820011 525.044574,92.654 C524.588572,92.4259989 524.024578,92.312 523.352574,92.312 C522.104568,92.312 521.066578,92.8219949 520.238574,93.842 C519.41057,94.8620051 518.996574,96.2239915 518.996574,97.928 L518.996574,107 L515.612574,107 L515.612574,93.608 C515.612574,93.1519977 515.600574,92.5640036 515.576574,91.844 C515.552574,91.1239964 515.516575,90.4880028 515.468574,89.936 L518.672574,89.936 C518.720575,90.3680022 518.756574,90.8539973 518.780574,91.394 C518.804574,91.9340027 518.816574,92.3839982 518.816574,92.744 L518.924574,92.744 Z M562.093717,96.956 C562.069717,96.2839966 561.955718,95.6540029 561.751717,95.066 C561.547716,94.4779971 561.247719,93.9680022 560.851717,93.536 C560.455715,93.1039978 559.96372,92.7620013 559.375717,92.51 C558.787714,92.2579987 558.097721,92.132 557.305717,92.132 C556.585714,92.132 555.90772,92.2579987 555.271717,92.51 C554.635714,92.7620013 554.08372,93.1039978 553.615717,93.536 C553.147715,93.9680022 552.763719,94.4779971 552.463717,95.066 C552.163716,95.6540029 551.989718,96.2839966 551.941717,96.956 L562.093717,96.956 Z M565.513717,98.324 L565.513717,98.9 C565.513717,99.092001 565.501717,99.283999 565.477717,99.476 L551.941717,99.476 C551.965717,100.196004 552.127716,100.873997 552.427717,101.51 C552.727719,102.146003 553.129715,102.697998 553.633717,103.166 C554.13772,103.634002 554.719714,103.999999 555.379717,104.264 C556.039721,104.528001 556.741714,104.66 557.485717,104.66 C558.637723,104.66 559.633713,104.408003 560.473717,103.904 C561.313721,103.399997 561.973715,102.788004 562.453717,102.068 L564.829717,103.976 C563.917713,105.176006 562.843723,106.057997 561.607717,106.622 C560.371711,107.186003 558.997725,107.468 557.485717,107.468 C556.189711,107.468 554.989723,107.252002 553.885717,106.82 C552.781712,106.387998 551.833721,105.782004 551.041717,105.002 C550.249713,104.221996 549.62572,103.280006 549.169717,102.176 C548.713715,101.071994 548.485717,99.8480067 548.485717,98.504 C548.485717,97.1839934 548.707715,95.9660056 549.151717,94.85 C549.59572,93.7339944 550.213713,92.780004 551.005717,91.988 C551.797721,91.195996 552.733712,90.5780022 553.813717,90.134 C554.893723,89.6899978 556.057711,89.468 557.305717,89.468 C558.553724,89.468 559.687712,89.671998 560.707717,90.08 C561.727722,90.488002 562.591714,91.0759962 563.299717,91.844 C564.007721,92.6120038 564.553715,93.5419945 564.937717,94.634 C565.321719,95.7260055 565.513717,96.9559932 565.513717,98.324 Z M575.34686,89.936 C575.394861,90.3680022 575.43086,90.8539973 575.45486,91.394 C575.47886,91.9340027 575.49086,92.3839982 575.49086,92.744 L575.59886,92.744 C575.814861,92.2879977 576.108858,91.862002 576.48086,91.466 C576.852862,91.069998 577.278858,90.7220015 577.75886,90.422 C578.238863,90.1219985 578.766857,89.8880008 579.34286,89.72 C579.918863,89.5519992 580.518857,89.468 581.14286,89.468 C582.246866,89.468 583.194856,89.6539981 583.98686,90.026 C584.778864,90.3980019 585.438858,90.8959969 585.96686,91.52 C586.494863,92.1440031 586.884859,92.8759958 587.13686,93.716 C587.388862,94.5560042 587.51486,95.4559952 587.51486,96.416 L587.51486,107 L584.13086,107 L584.13086,97.532 C584.13086,96.8359965 584.076861,96.1760031 583.96886,95.552 C583.86086,94.9279969 583.662862,94.3760024 583.37486,93.896 C583.086859,93.4159976 582.690863,93.0320014 582.18686,92.744 C581.682858,92.4559986 581.034864,92.312 580.24286,92.312 C578.898854,92.312 577.800865,92.8219949 576.94886,93.842 C576.096856,94.8620051 575.67086,96.2239915 575.67086,97.928 L575.67086,107 L572.28686,107 L572.28686,93.608 C572.28686,93.1519977 572.27486,92.5640036 572.25086,91.844 C572.22686,91.1239964 572.190861,90.4880028 572.14286,89.936 L575.34686,89.936 Z M603.648003,92.708 L599.112003,92.708 L599.112003,101.6 C599.112003,102.632005 599.304001,103.369998 599.688003,103.814 C600.072005,104.258002 600.683999,104.48 601.524003,104.48 C601.836005,104.48 602.172001,104.444 602.532003,104.372 C602.892005,104.3 603.216002,104.192001 603.504003,104.048 L603.612003,106.82 C603.204001,106.964001 602.754006,107.078 602.262003,107.162 C601.770001,107.246 601.260006,107.288 600.732003,107.288 C599.123995,107.288 597.894008,106.844004 597.042003,105.956 C596.189999,105.067996 595.764003,103.736009 595.764003,101.96 L595.764003,92.708 L592.488003,92.708 L592.488003,89.936 L595.764003,89.936 L595.764003,85.04 L599.112003,85.04 L599.112003,89.936 L603.648003,89.936 L603.648003,92.708 Z" id="simple-permissions-m" fill="#657786"></path>
                        <path d="M5.772,0.608 L23.976,0.608 C26.442679,0.608 28.8353217,0.86699741 31.154,1.385 C33.4726783,1.90300259 35.5323243,2.75399408 37.333,3.938 C39.1336757,5.12200592 40.5766612,6.67599038 41.662,8.6 C42.7473388,10.5240096 43.29,12.8673195 43.29,15.63 C43.29,19.4286857 42.2170107,22.5243214 40.071,24.917 C37.9249893,27.3096786 35.0020185,28.9253291 31.302,29.764 L45.288,53 L34.04,53 L21.904,30.8 L15.096,30.8 L15.096,53 L5.772,53 L5.772,0.608 Z M22.718,23.178 C24.0500067,23.178 25.3819933,23.0793343 26.714,22.882 C28.0460067,22.6846657 29.242328,22.3146694 30.303,21.772 C31.363672,21.2293306 32.2393299,20.4523384 32.93,19.441 C33.6206701,18.4296616 33.966,17.1346746 33.966,15.556 C33.966,14.1253262 33.6453365,12.9536712 33.004,12.041 C32.3626635,11.1283288 31.5486716,10.4006694 30.562,9.858 C29.5753284,9.31533062 28.4530063,8.94533432 27.195,8.748 C25.9369937,8.55066568 24.7160059,8.452 23.532,8.452 L15.096,8.452 L15.096,23.178 L22.718,23.178 Z M76.7275775,31.688 C76.7275775,30.5533277 76.5672458,29.4680052 76.2465775,28.432 C75.9259092,27.3959948 75.4202476,26.4833373 74.7295775,25.694 C74.0389074,24.9046627 73.1632495,24.275669 72.1025775,23.807 C71.0419055,23.338331 69.7962513,23.104 68.3655775,23.104 C65.7015642,23.104 63.4445867,23.9056587 61.5945775,25.509 C59.7445682,27.1123414 58.7209118,29.1719874 58.5235775,31.688 L76.7275775,31.688 Z M85.6075775,35.684 L85.6075775,36.868 C85.6075775,37.2626686 85.5829111,37.6573314 85.5335775,38.052 L58.5235775,38.052 C58.6222446,39.3346731 58.9552413,40.506328 59.5225775,41.567 C60.0899137,42.627672 60.8422395,43.5403295 61.7795775,44.305 C62.7169155,45.0696705 63.7775716,45.6739978 64.9615775,46.118 C66.1455834,46.5620022 67.3789044,46.784 68.6615775,46.784 C70.8815886,46.784 72.7562365,46.3770041 74.2855775,45.563 C75.8149185,44.7489959 77.0729059,43.6266738 78.0595775,42.196 L83.9795775,46.932 C80.4768933,51.6680237 75.3956108,54.036 68.7355775,54.036 C65.972897,54.036 63.4322557,53.6043377 61.1135775,52.741 C58.7948992,51.8776624 56.784586,50.6566746 55.0825775,49.078 C53.380569,47.4993254 52.0485823,45.5630115 51.0865775,43.269 C50.1245727,40.9749885 49.6435775,38.3726812 49.6435775,35.462 C49.6435775,32.6006524 50.1245727,29.9983451 51.0865775,27.655 C52.0485823,25.311655 53.3682358,23.3136749 55.0455775,21.661 C56.7229192,20.0083251 58.708566,18.7256712 61.0025775,17.813 C63.296589,16.9003288 65.7755642,16.444 68.4395775,16.444 C70.9062565,16.444 73.1879003,16.8509959 75.2845775,17.665 C77.3812546,18.4790041 79.1942365,19.6876587 80.7235775,21.291 C82.2529185,22.8943414 83.4492398,24.8923214 84.3125775,27.285 C85.1759151,29.6776786 85.6075775,32.4773173 85.6075775,35.684 Z M131.033155,70.76 L122.153155,70.76 L122.153155,48.264 L122.005155,48.264 C120.870483,50.0400089 119.254832,51.4459948 117.158155,52.482 C115.061478,53.5180052 112.755168,54.036 110.239155,54.036 C107.525808,54.036 105.096166,53.5303384 102.950155,52.519 C100.804144,51.5076616 98.9788292,50.1510085 97.474155,48.449 C95.9694808,46.7469915 94.810159,44.7490115 93.996155,42.455 C93.1821509,40.1609885 92.775155,37.7066797 92.775155,35.092 C92.775155,32.4773203 93.1944841,30.0353447 94.033155,27.766 C94.8718258,25.4966553 96.055814,23.5233417 97.585155,21.846 C99.1144959,20.1686583 100.939811,18.8490048 103.061155,17.887 C105.182499,16.9249952 107.501142,16.444 110.017155,16.444 C111.645163,16.444 113.112815,16.6289982 114.420155,16.999 C115.727495,17.3690019 116.89915,17.8376638 117.935155,18.405 C118.97116,18.9723362 119.846818,19.6136631 120.562155,20.329 C121.277492,21.0443369 121.857153,21.7473299 122.301155,22.438 L122.523155,22.438 L122.523155,17.48 L131.033155,17.48 L131.033155,70.76 Z M101.803155,35.092 C101.803155,36.4733402 102.01282,37.8546598 102.432155,39.236 C102.85149,40.6173402 103.480484,41.8506612 104.319155,42.936 C105.157826,44.0213388 106.218482,44.9093299 107.501155,45.6 C108.783828,46.2906701 110.28848,46.636 112.015155,46.636 C113.643163,46.636 115.098482,46.3030033 116.381155,45.637 C117.663828,44.9709967 118.761484,44.0953388 119.674155,43.01 C120.586826,41.9246612 121.277486,40.7036735 121.746155,39.347 C122.214824,37.9903266 122.449155,36.6213402 122.449155,35.24 C122.449155,33.8586598 122.214824,32.4773402 121.746155,31.096 C121.277486,29.7146598 120.586826,28.4813388 119.674155,27.396 C118.761484,26.3106612 117.663828,25.4226701 116.381155,24.732 C115.098482,24.0413299 113.643163,23.696 112.015155,23.696 C110.28848,23.696 108.783828,24.0289967 107.501155,24.695 C106.218482,25.3610033 105.157826,26.2366612 104.319155,27.322 C103.480484,28.4073388 102.85149,29.6283266 102.432155,30.985 C102.01282,32.3416735 101.803155,33.7106598 101.803155,35.092 Z M174.830732,53 L166.394732,53 L166.394732,47.302 L166.246732,47.302 C165.457395,49.0780089 164.088409,50.6443266 162.139732,52.001 C160.191056,53.3576735 157.884746,54.036 155.220732,54.036 C152.902054,54.036 150.916407,53.6290041 149.263732,52.815 C147.611058,52.0009959 146.254404,50.9280067 145.193732,49.596 C144.13306,48.2639933 143.356068,46.7346753 142.862732,45.008 C142.369397,43.2813247 142.122732,41.5053425 142.122732,39.68 L142.122732,17.48 L151.002732,17.48 L151.002732,37.164 C151.002732,38.2000052 151.076732,39.2853277 151.224732,40.42 C151.372733,41.5546723 151.693397,42.5783288 152.186732,43.491 C152.680068,44.4036712 153.358395,45.155997 154.221732,45.748 C155.08507,46.340003 156.232059,46.636 157.662732,46.636 C159.044073,46.636 160.26506,46.3523362 161.325732,45.785 C162.386404,45.2176638 163.249729,44.4900044 163.915732,43.602 C164.581736,42.7139956 165.087397,41.6903391 165.432732,40.531 C165.778068,39.3716609 165.950732,38.2000059 165.950732,37.016 L165.950732,17.48 L174.830732,17.48 L174.830732,53 Z M211.22831,31.688 C211.22831,30.5533277 211.067978,29.4680052 210.74731,28.432 C210.426642,27.3959948 209.92098,26.4833373 209.23031,25.694 C208.53964,24.9046627 207.663982,24.275669 206.60331,23.807 C205.542638,23.338331 204.296984,23.104 202.86631,23.104 C200.202297,23.104 197.945319,23.9056587 196.09531,25.509 C194.245301,27.1123414 193.221644,29.1719874 193.02431,31.688 L211.22831,31.688 Z M220.10831,35.684 L220.10831,36.868 C220.10831,37.2626686 220.083644,37.6573314 220.03431,38.052 L193.02431,38.052 C193.122977,39.3346731 193.455974,40.506328 194.02331,41.567 C194.590646,42.627672 195.342972,43.5403295 196.28031,44.305 C197.217648,45.0696705 198.278304,45.6739978 199.46231,46.118 C200.646316,46.5620022 201.879637,46.784 203.16231,46.784 C205.382321,46.784 207.256969,46.3770041 208.78631,45.563 C210.315651,44.7489959 211.573638,43.6266738 212.56031,42.196 L218.48031,46.932 C214.977626,51.6680237 209.896343,54.036 203.23631,54.036 C200.473629,54.036 197.932988,53.6043377 195.61431,52.741 C193.295632,51.8776624 191.285318,50.6566746 189.58331,49.078 C187.881301,47.4993254 186.549315,45.5630115 185.58731,43.269 C184.625305,40.9749885 184.14431,38.3726812 184.14431,35.462 C184.14431,32.6006524 184.625305,29.9983451 185.58731,27.655 C186.549315,25.311655 187.868968,23.3136749 189.54631,21.661 C191.223652,20.0083251 193.209298,18.7256712 195.50331,17.813 C197.797321,16.9003288 200.276297,16.444 202.94031,16.444 C205.406989,16.444 207.688633,16.8509959 209.78531,17.665 C211.881987,18.4790041 213.694969,19.6876587 215.22431,21.291 C216.753651,22.8943414 217.949972,24.8923214 218.81331,27.285 C219.676648,29.6776786 220.10831,32.4773173 220.10831,35.684 Z M248.883887,26.952 C248.09455,25.9159948 247.009228,25.0156705 245.627887,24.251 C244.246547,23.4863295 242.741896,23.104 241.113887,23.104 C239.683214,23.104 238.375893,23.399997 237.191887,23.992 C236.007881,24.584003 235.415887,25.5706598 235.415887,26.952 C235.415887,28.3333402 236.069548,29.3076638 237.376887,29.875 C238.684227,30.4423362 240.595875,31.021997 243.111887,31.614 C244.443894,31.9100015 245.788214,32.3046642 247.144887,32.798 C248.501561,33.2913358 249.734882,33.9449959 250.844887,34.759 C251.954893,35.5730041 252.855217,36.5843273 253.545887,37.793 C254.236558,39.0016727 254.581887,40.4693247 254.581887,42.196 C254.581887,44.3666775 254.174891,46.2043258 253.360887,47.709 C252.546883,49.2136742 251.461561,50.434662 250.104887,51.372 C248.748214,52.309338 247.169563,52.9876646 245.368887,53.407 C243.568212,53.8263354 241.705897,54.036 239.781887,54.036 C237.019207,54.036 234.330567,53.5303384 231.715887,52.519 C229.101208,51.5076616 226.930563,50.064676 225.203887,48.19 L231.049887,42.714 C232.036559,43.9966731 233.319213,45.0573291 234.897887,45.896 C236.476562,46.7346709 238.227878,47.154 240.151887,47.154 C240.793224,47.154 241.446884,47.0800007 242.112887,46.932 C242.778891,46.7839993 243.395551,46.5496683 243.962887,46.229 C244.530224,45.9083317 244.986552,45.4766694 245.331887,44.934 C245.677222,44.3913306 245.849887,43.7253373 245.849887,42.936 C245.849887,41.4559926 245.171561,40.3953365 243.814887,39.754 C242.458214,39.1126635 240.423234,38.4713365 237.709887,37.83 C236.377881,37.5339985 235.082894,37.151669 233.824887,36.683 C232.566881,36.214331 231.444559,35.5976705 230.457887,34.833 C229.471216,34.0683295 228.68189,33.1186723 228.089887,31.984 C227.497884,30.8493277 227.201887,29.4433417 227.201887,27.766 C227.201887,25.7926568 227.608883,24.0906738 228.422887,22.66 C229.236891,21.2293262 230.309881,20.0576712 231.641887,19.145 C232.973894,18.2323288 234.478546,17.5540022 236.155887,17.11 C237.833229,16.6659978 239.559879,16.444 241.335887,16.444 C243.901234,16.444 246.404875,16.8879956 248.846887,17.776 C251.2889,18.6640044 253.225214,20.0206575 254.655887,21.846 L248.883887,26.952 Z M257.901465,24.584 L257.901465,17.48 L264.117465,17.48 L264.117465,7.194 L272.849465,7.194 L272.849465,17.48 L281.729465,17.48 L281.729465,24.584 L272.849465,24.584 L272.849465,41.086 C272.849465,42.6646746 273.133129,43.9719948 273.700465,45.008 C274.267801,46.0440052 275.538122,46.562 277.511465,46.562 C278.103468,46.562 278.744795,46.500334 279.435465,46.377 C280.126135,46.2536661 280.742796,46.0686679 281.285465,45.822 L281.581465,52.778 C280.792128,53.0740015 279.854804,53.3083325 278.769465,53.481 C277.684126,53.6536675 276.648136,53.74 275.661465,53.74 C273.293453,53.74 271.369472,53.4070033 269.889465,52.741 C268.409457,52.0749967 267.237803,51.1623391 266.374465,50.003 C265.511127,48.8436609 264.919133,47.5116742 264.598465,46.007 C264.277797,44.5023258 264.117465,42.8866753 264.117465,41.16 L264.117465,24.584 L257.901465,24.584 Z M308.57062,0.608 L325.66462,0.608 C328.673968,0.608 331.387274,0.87933062 333.80462,1.422 C336.221965,1.96466938 338.293945,2.8526605 340.02062,4.086 C341.747295,5.3193395 343.079282,6.89799038 344.01662,8.822 C344.953958,10.7460096 345.42262,13.0646531 345.42262,15.778 C345.42262,18.6886812 344.879959,21.1306568 343.79462,23.104 C342.709281,25.0773432 341.241629,26.6683273 339.39162,27.877 C337.541611,29.0856727 335.383299,29.9613306 332.91662,30.504 C330.449941,31.0466694 327.8353,31.318 325.07262,31.318 L317.89462,31.318 L317.89462,53 L308.57062,53 L308.57062,0.608 Z M324.40662,23.474 C325.935961,23.474 327.39128,23.3630011 328.77262,23.141 C330.15396,22.9189989 331.387281,22.5243362 332.47262,21.957 C333.557959,21.3896638 334.421283,20.6126716 335.06262,19.626 C335.703956,18.6393284 336.02462,17.3566746 336.02462,15.778 C336.02462,14.248659 335.703956,13.0030048 335.06262,12.041 C334.421283,11.0789952 333.570292,10.3266694 332.50962,9.784 C331.448948,9.24133062 330.240293,8.88366753 328.88362,8.711 C327.526946,8.53833247 326.133294,8.452 324.70262,8.452 L317.89462,8.452 L317.89462,23.474 L324.40662,23.474 Z M374.198197,31.688 C374.198197,30.5533277 374.037866,29.4680052 373.717197,28.432 C373.396529,27.3959948 372.890867,26.4833373 372.200197,25.694 C371.509527,24.9046627 370.633869,24.275669 369.573197,23.807 C368.512525,23.338331 367.266871,23.104 365.836197,23.104 C363.172184,23.104 360.915207,23.9056587 359.065197,25.509 C357.215188,27.1123414 356.191532,29.1719874 355.994197,31.688 L374.198197,31.688 Z M383.078197,35.684 L383.078197,36.868 C383.078197,37.2626686 383.053531,37.6573314 383.004197,38.052 L355.994197,38.052 C356.092864,39.3346731 356.425861,40.506328 356.993197,41.567 C357.560534,42.627672 358.312859,43.5403295 359.250197,44.305 C360.187535,45.0696705 361.248191,45.6739978 362.432197,46.118 C363.616203,46.5620022 364.849524,46.784 366.132197,46.784 C368.352208,46.784 370.226856,46.3770041 371.756197,45.563 C373.285538,44.7489959 374.543526,43.6266738 375.530197,42.196 L381.450197,46.932 C377.947513,51.6680237 372.866231,54.036 366.206197,54.036 C363.443517,54.036 360.902876,53.6043377 358.584197,52.741 C356.265519,51.8776624 354.255206,50.6566746 352.553197,49.078 C350.851189,47.4993254 349.519202,45.5630115 348.557197,43.269 C347.595193,40.9749885 347.114197,38.3726812 347.114197,35.462 C347.114197,32.6006524 347.595193,29.9983451 348.557197,27.655 C349.519202,25.311655 350.838856,23.3136749 352.516197,21.661 C354.193539,20.0083251 356.179186,18.7256712 358.473197,17.813 C360.767209,16.9003288 363.246184,16.444 365.910197,16.444 C368.376876,16.444 370.65852,16.8509959 372.755197,17.665 C374.851874,18.4790041 376.664856,19.6876587 378.194197,21.291 C379.723538,22.8943414 380.91986,24.8923214 381.783197,27.285 C382.646535,29.6776786 383.078197,32.4773173 383.078197,35.684 Z M392.391775,17.48 L400.901775,17.48 L400.901775,23.4 L401.049775,23.4 C402.036446,21.3279896 403.417766,19.6506731 405.193775,18.368 C406.969784,17.0853269 409.041763,16.444 411.409775,16.444 C411.75511,16.444 412.125106,16.4563332 412.519775,16.481 C412.914443,16.5056668 413.259773,16.5673328 413.555775,16.666 L413.555775,24.806 C412.963772,24.6579993 412.45811,24.5593336 412.038775,24.51 C411.619439,24.4606664 411.212443,24.436 410.817775,24.436 C408.795098,24.436 407.167114,24.8059963 405.933775,25.546 C404.700435,26.2860037 403.738445,27.1739948 403.047775,28.21 C402.357105,29.2460052 401.888443,30.3066612 401.641775,31.392 C401.395107,32.4773388 401.271775,33.3406635 401.271775,33.982 L401.271775,53 L392.391775,53 L392.391775,17.48 Z M462.459352,16.444 C464.778031,16.444 466.763677,16.8509959 468.416352,17.665 C470.069027,18.4790041 471.42568,19.5519933 472.486352,20.884 C473.547024,22.2160067 474.324016,23.7453247 474.817352,25.472 C475.310688,27.1986753 475.557352,28.9746575 475.557352,30.8 L475.557352,53 L466.677352,53 L466.677352,33.316 C466.677352,32.2799948 466.603353,31.1946723 466.455352,30.06 C466.307352,28.9253277 465.986688,27.9016712 465.493352,26.989 C465.000016,26.0763288 464.32169,25.324003 463.458352,24.732 C462.595015,24.139997 461.448026,23.844 460.017352,23.844 C458.636012,23.844 457.452024,24.139997 456.465352,24.732 C455.478681,25.324003 454.664689,26.088662 454.023352,27.026 C453.382016,27.963338 452.913354,29.0116609 452.617352,30.171 C452.321351,31.3303391 452.173352,32.4773277 452.173352,33.612 L452.173352,53 L443.293352,53 L443.293352,31.54 C443.293352,29.3199889 442.763024,27.4823406 441.702352,26.027 C440.64168,24.5716594 438.976697,23.844 436.707352,23.844 C435.375346,23.844 434.216024,24.1276638 433.229352,24.695 C432.242681,25.2623362 431.441022,25.9899956 430.824352,26.878 C430.207683,27.7660044 429.739021,28.7896609 429.418352,29.949 C429.097684,31.1083391 428.937352,32.2799941 428.937352,33.464 L428.937352,53 L420.057352,53 L420.057352,17.48 L428.493352,17.48 L428.493352,23.178 L428.641352,23.178 C429.036021,22.2899956 429.566349,21.4513373 430.232352,20.662 C430.898356,19.8726627 431.687681,19.1573365 432.600352,18.516 C433.513024,17.8746635 434.561346,17.3690019 435.745352,16.999 C436.929358,16.6289982 438.236678,16.444 439.667352,16.444 C442.430033,16.444 444.72401,17.0606605 446.549352,18.294 C448.374695,19.5273395 449.780681,21.1553232 450.767352,23.178 C451.951358,21.0073225 453.530009,19.3423391 455.503352,18.183 C457.476695,17.0236609 459.795339,16.444 462.459352,16.444 Z M486.79493,17.48 L495.67493,17.48 L495.67493,53 L486.79493,53 L486.79493,17.48 Z M485.53693,5.418 C485.53693,3.98732618 486.067258,2.74167197 487.12793,1.681 C488.188602,0.62032803 489.532922,0.09 491.16093,0.09 C492.788938,0.09 494.157924,0.59566161 495.26793,1.607 C496.377935,2.61833839 496.93293,3.88865902 496.93293,5.418 C496.93293,6.94734098 496.377935,8.21766161 495.26793,9.229 C494.157924,10.2403384 492.788938,10.746 491.16093,10.746 C489.532922,10.746 488.188602,10.215672 487.12793,9.155 C486.067258,8.09432803 485.53693,6.84867382 485.53693,5.418 Z M526.670507,26.952 C525.88117,25.9159948 524.795848,25.0156705 523.414507,24.251 C522.033167,23.4863295 520.528515,23.104 518.900507,23.104 C517.469833,23.104 516.162513,23.399997 514.978507,23.992 C513.794501,24.584003 513.202507,25.5706598 513.202507,26.952 C513.202507,28.3333402 513.856167,29.3076638 515.163507,29.875 C516.470847,30.4423362 518.382495,31.021997 520.898507,31.614 C522.230514,31.9100015 523.574834,32.3046642 524.931507,32.798 C526.288181,33.2913358 527.521502,33.9449959 528.631507,34.759 C529.741513,35.5730041 530.641837,36.5843273 531.332507,37.793 C532.023177,39.0016727 532.368507,40.4693247 532.368507,42.196 C532.368507,44.3666775 531.961511,46.2043258 531.147507,47.709 C530.333503,49.2136742 529.248181,50.434662 527.891507,51.372 C526.534834,52.309338 524.956183,52.9876646 523.155507,53.407 C521.354832,53.8263354 519.492517,54.036 517.568507,54.036 C514.805827,54.036 512.117187,53.5303384 509.502507,52.519 C506.887828,51.5076616 504.717183,50.064676 502.990507,48.19 L508.836507,42.714 C509.823179,43.9966731 511.105833,45.0573291 512.684507,45.896 C514.263182,46.7346709 516.014498,47.154 517.938507,47.154 C518.579844,47.154 519.233504,47.0800007 519.899507,46.932 C520.565511,46.7839993 521.182171,46.5496683 521.749507,46.229 C522.316843,45.9083317 522.773172,45.4766694 523.118507,44.934 C523.463842,44.3913306 523.636507,43.7253373 523.636507,42.936 C523.636507,41.4559926 522.958181,40.3953365 521.601507,39.754 C520.244834,39.1126635 518.209854,38.4713365 515.496507,37.83 C514.164501,37.5339985 512.869514,37.151669 511.611507,36.683 C510.353501,36.214331 509.231179,35.5976705 508.244507,34.833 C507.257836,34.0683295 506.46851,33.1186723 505.876507,31.984 C505.284504,30.8493277 504.988507,29.4433417 504.988507,27.766 C504.988507,25.7926568 505.395503,24.0906738 506.209507,22.66 C507.023511,21.2293262 508.096501,20.0576712 509.428507,19.145 C510.760514,18.2323288 512.265166,17.5540022 513.942507,17.11 C515.619849,16.6659978 517.346498,16.444 519.122507,16.444 C521.687853,16.444 524.191495,16.8879956 526.633507,17.776 C529.075519,18.6640044 531.011833,20.0206575 532.442507,21.846 L526.670507,26.952 Z M560.256085,26.952 C559.466747,25.9159948 558.381425,25.0156705 557.000085,24.251 C555.618745,23.4863295 554.114093,23.104 552.486085,23.104 C551.055411,23.104 549.748091,23.399997 548.564085,23.992 C547.380079,24.584003 546.788085,25.5706598 546.788085,26.952 C546.788085,28.3333402 547.441745,29.3076638 548.749085,29.875 C550.056425,30.4423362 551.968072,31.021997 554.484085,31.614 C555.816091,31.9100015 557.160411,32.3046642 558.517085,32.798 C559.873758,33.2913358 561.107079,33.9449959 562.217085,34.759 C563.32709,35.5730041 564.227415,36.5843273 564.918085,37.793 C565.608755,39.0016727 565.954085,40.4693247 565.954085,42.196 C565.954085,44.3666775 565.547089,46.2043258 564.733085,47.709 C563.919081,49.2136742 562.833758,50.434662 561.477085,51.372 C560.120411,52.309338 558.54176,52.9876646 556.741085,53.407 C554.940409,53.8263354 553.078094,54.036 551.154085,54.036 C548.391404,54.036 545.702764,53.5303384 543.088085,52.519 C540.473405,51.5076616 538.30276,50.064676 536.576085,48.19 L542.422085,42.714 C543.408756,43.9966731 544.69141,45.0573291 546.270085,45.896 C547.848759,46.7346709 549.600075,47.154 551.524085,47.154 C552.165421,47.154 552.819081,47.0800007 553.485085,46.932 C554.151088,46.7839993 554.767749,46.5496683 555.335085,46.229 C555.902421,45.9083317 556.35875,45.4766694 556.704085,44.934 C557.04942,44.3913306 557.222085,43.7253373 557.222085,42.936 C557.222085,41.4559926 556.543758,40.3953365 555.187085,39.754 C553.830411,39.1126635 551.795432,38.4713365 549.082085,37.83 C547.750078,37.5339985 546.455091,37.151669 545.197085,36.683 C543.939078,36.214331 542.816756,35.5976705 541.830085,34.833 C540.843413,34.0683295 540.054088,33.1186723 539.462085,31.984 C538.870082,30.8493277 538.574085,29.4433417 538.574085,27.766 C538.574085,25.7926568 538.981081,24.0906738 539.795085,22.66 C540.609089,21.2293262 541.682078,20.0576712 543.014085,19.145 C544.346091,18.2323288 545.850743,17.5540022 547.528085,17.11 C549.205426,16.6659978 550.932076,16.444 552.708085,16.444 C555.273431,16.444 557.777073,16.8879956 560.219085,17.776 C562.661097,18.6640044 564.597411,20.0206575 566.028085,21.846 L560.256085,26.952 Z M574.527662,17.48 L583.407662,17.48 L583.407662,53 L574.527662,53 L574.527662,17.48 Z M573.269662,5.418 C573.269662,3.98732618 573.79999,2.74167197 574.860662,1.681 C575.921334,0.62032803 577.265654,0.09 578.893662,0.09 C580.52167,0.09 581.890657,0.59566161 583.000662,1.607 C584.110668,2.61833839 584.665662,3.88865902 584.665662,5.418 C584.665662,6.94734098 584.110668,8.21766161 583.000662,9.229 C581.890657,10.2403384 580.52167,10.746 578.893662,10.746 C577.265654,10.746 575.921334,10.215672 574.860662,9.155 C573.79999,8.09432803 573.269662,6.84867382 573.269662,5.418 Z M592.86924,35.092 C592.86924,32.2799859 593.374901,29.7270115 594.38624,27.433 C595.397578,25.1389885 596.766564,23.1780081 598.49324,21.55 C600.219915,19.9219919 602.267228,18.6640044 604.63524,17.776 C607.003252,16.8879956 609.519226,16.444 612.18324,16.444 C614.847253,16.444 617.363228,16.8879956 619.73124,17.776 C622.099252,18.6640044 624.146564,19.9219919 625.87324,21.55 C627.599915,23.1780081 628.968901,25.1389885 629.98024,27.433 C630.991578,29.7270115 631.49724,32.2799859 631.49724,35.092 C631.49724,37.9040141 630.991578,40.4693217 629.98024,42.788 C628.968901,45.1066783 627.599915,47.0923251 625.87324,48.745 C624.146564,50.3976749 622.099252,51.692662 619.73124,52.63 C617.363228,53.567338 614.847253,54.036 612.18324,54.036 C609.519226,54.036 607.003252,53.567338 604.63524,52.63 C602.267228,51.692662 600.219915,50.3976749 598.49324,48.745 C596.766564,47.0923251 595.397578,45.1066783 594.38624,42.788 C593.374901,40.4693217 592.86924,37.9040141 592.86924,35.092 Z M601.89724,35.092 C601.89724,36.4733402 602.106904,37.8546598 602.52624,39.236 C602.945575,40.6173402 603.574569,41.8506612 604.41324,42.936 C605.251911,44.0213388 606.312567,44.9093299 607.59524,45.6 C608.877913,46.2906701 610.407231,46.636 612.18324,46.636 C613.959249,46.636 615.488567,46.2906701 616.77124,45.6 C618.053913,44.9093299 619.114569,44.0213388 619.95324,42.936 C620.791911,41.8506612 621.420904,40.6173402 621.84024,39.236 C622.259575,37.8546598 622.46924,36.4733402 622.46924,35.092 C622.46924,33.7106598 622.259575,32.3416735 621.84024,30.985 C621.420904,29.6283266 620.791911,28.4073388 619.95324,27.322 C619.114569,26.2366612 618.053913,25.3610033 616.77124,24.695 C615.488567,24.0289967 613.959249,23.696 612.18324,23.696 C610.407231,23.696 608.877913,24.0289967 607.59524,24.695 C606.312567,25.3610033 605.251911,26.2366612 604.41324,27.322 C603.574569,28.4073388 602.945575,29.6283266 602.52624,30.985 C602.106904,32.3416735 601.89724,33.7106598 601.89724,35.092 Z M640.810817,17.48 L649.246817,17.48 L649.246817,23.178 L649.394817,23.178 C650.184154,21.4019911 651.553141,19.8356735 653.501817,18.479 C655.450494,17.1223266 657.756804,16.444 660.420817,16.444 C662.739495,16.444 664.725142,16.8509959 666.377817,17.665 C668.030492,18.4790041 669.387145,19.5519933 670.447817,20.884 C671.508489,22.2160067 672.285481,23.7453247 672.778817,25.472 C673.272153,27.1986753 673.518817,28.9746575 673.518817,30.8 L673.518817,53 L664.638817,53 L664.638817,33.316 C664.638817,32.2799948 664.564818,31.1946723 664.416817,30.06 C664.268816,28.9253277 663.948153,27.9016712 663.454817,26.989 C662.961481,26.0763288 662.283155,25.324003 661.419817,24.732 C660.55648,24.139997 659.409491,23.844 657.978817,23.844 C656.548143,23.844 655.314822,24.1276638 654.278817,24.695 C653.242812,25.2623362 652.391821,25.9899956 651.725817,26.878 C651.059814,27.7660044 650.554152,28.7896609 650.208817,29.949 C649.863482,31.1083391 649.690817,32.2799941 649.690817,33.464 L649.690817,53 L640.810817,53 L640.810817,17.48 Z" id="Request-Permission" fill="#00A3E8"></path>
                    </g>
                </g>
                <g id="padlock">
                    <g id="Group-5" transform="translate(0.000000, 61.400485)">
                        <mask id="mask-2" fill="white">
                            <use xlink:href="#path-1"></use>
                        </mask>
                        <g id="Clip-2"></g>
                        <path d="M98.6781924,63.801383 C98.6781924,70.9897749 92.8671858,77.0991232 85.6927728,77.0991232 L12.9815917,77.0991232 C5.81100658,77.0991232 0,70.9897749 0,63.801383 L0,13.4690336 C0,6.28064161 5.81100658,0.154896677 12.9815917,0.154896677 L85.689989,0.154896677 C92.8671858,0.154896677 98.6781924,6.28064161 98.6781924,13.4690336 L98.6781924,63.801383 Z" id="Fill-1" fill="#00A3E8" mask="url(#mask-2)"></path>
                        <path d="M98.6781924,35.2718628 L98.6781924,68.37483 C98.6781924,73.0909425 94.8657457,77.0991232 90.1588044,77.0991232 L42.57,77.0991232" id="Fill-3" fill="#0D8BC1" mask="url(#mask-2)"></path>
                        <path d="M0,13.3218119 C0,6.13062906 5.81100658,0.154896677 12.9815917,0.154896677 L85.689989,0.154896677 C92.8671858,0.154896677 98.6781924,6.05841372 98.6781924,13.2468057" id="Fill-4" fill="#32C2FF" mask="url(#mask-2)"></path>
                    </g>
                    <path d="M60.5765856,91.9311777 C60.5765856,85.561924 55.5579416,80.4049811 49.2113856,80.4049811 C42.8634377,80.4049811 38.0389695,85.561924 38.0389695,91.9311777 C38.0389695,96.0823389 39.4719729,99.6934549 43.8569357,101.722811 L43.8569357,118.344201 C43.8569357,121.664013 46.02906,124.351331 49.3390962,124.351331 C52.6477405,124.351331 54.8212567,121.662618 54.8212567,118.344201 L54.8212567,101.722811 C59.2065675,99.6934549 60.5765856,96.0837343 60.5765856,91.9311777 Z" id="Fill-6" fill="#0B8DC5"></path>
                    <path d="M60.5765856,89.5874933 C60.5765856,83.2206817 55.5579416,78.0612967 49.2113856,78.0612967 C42.8634377,78.0612967 38.0389695,83.2206817 38.0389695,89.5874933 C38.0389695,93.7397011 39.4719729,97.3522125 43.8569357,99.3787774 L43.8569357,116.001563 C43.8569357,119.31998 46.02906,122.007298 49.3390962,122.007298 C52.6477405,122.007298 54.8212567,119.318585 54.8212567,116.001563 L54.8212567,99.3787774 C59.2065675,97.3522125 60.5765856,93.7410965 60.5765856,89.5874933 Z" id="Fill-7" fill="#0F2D3A"></path>
                    <path d="M22.0250338,29.823541 C22.0250338,29.9299453 21.9366455,30.0199528 21.8319019,30.0199528 L21.4445943,30.0199528 C21.3346309,30.0199528 21.2486786,29.9299453 21.2486786,29.823541 C21.2486786,29.7146947 21.3346309,29.6285247 21.4445943,29.6285247 L21.8319019,29.6285247 C21.9366455,29.6285247 22.0250338,29.7146947 22.0250338,29.823541 Z" id="Fill-8" fill="#0CC4A1"></path>
                    <path d="M85.5215641,54.9611087 L74.5572431,54.9611087 L74.5572431,37.5450008 C74.5572431,23.4595203 63.3903948,12.0013527 49.3418801,12.0013527 C35.2919735,12.0013527 24.1209493,23.4595203 24.1209493,37.5450008 L24.1209493,54.9611087 L13.1569763,54.9611087 L13.1569763,37.5450008 C13.1569763,16.9985148 28.8448498,0.284326107 49.3418801,0.284326107 C69.8336906,0.284326107 85.5215641,16.9985148 85.5215641,37.5450008 L85.5215641,54.9611087 Z" id="Fill-9" fill="#6F8087"></path>
                    <path d="M13.1569763,49.2648183 L13.1569763,54.9611087 L24.1209493,54.9611087 L24.1209493,37.5450008 C24.1209493,23.4595203 35.9145192,12.0013527 49.9658177,12.0013527 C29.4701794,12.0013527 13.1569763,28.7183323 13.1569763,49.2648183 Z" id="Fill-10" fill="#4E5B61"></path>
                    <path d="M48.7179424,12.0013527 C62.7664571,12.0013527 74.5572431,23.4595203 74.5572431,37.5450008 L74.5572431,54.9611087 L85.5215641,54.9611087 L85.5215641,49.2648183 C85.5215641,28.7183323 69.2111449,12.0013527 48.7179424,12.0013527 Z" id="Fill-11" fill="#4E5B61"></path>
                </g>
            </g>
        </g>
    </g>
</svg>