<?xml version="1.0" encoding="UTF-8"?>
<svg width="1600px" height="120px" viewBox="0 0 1600 120" version="1.1" xmlns="http://www.w3.org/2000/svg" xmlns:xlink="http://www.w3.org/1999/xlink" style="background: #FFFFFF;">
    <!-- Generator: Sketch 42 (36781) - http://www.bohemiancoding.com/sketch -->
    <title>powered by sparrow</title>
    <desc>Created with Sketch.</desc>
    <defs></defs>
    <g id="Page-1" stroke="none" stroke-width="1" fill="none" fill-rule="evenodd">
        <g id="powered-by-sparrow">
            <g id="Group-2" transform="translate(626.000000, 13.000000)">
                <g id="Group" transform="translate(59.000000, 6.000000)">
                    <text id="POWERED-BY" font-family="AvenirNext-Medium, Avenir Next" font-size="22" font-weight="400" letter-spacing="1.2571429" fill="#14181A">
                        <tspan x="0" y="22">POWERED BY</tspan>
                    </text>
                    <text id="SPARROW" font-family="AvenirNext-DemiBold, Avenir Next" font-size="55" font-weight="500" letter-spacing="3" fill="#029EE0">
                        <tspan x="0" y="75">SPARRO</tspan>
                        <tspan x="234.535" y="75">W</tspan>
                    </text>
                </g>
                <g id="wings">
                    <path d="M18.192275,3.22350586 L16.0706042,0.921611328 L16.0706042,78.6642676 L18.285399,75.5897559 C19.8612857,73.4021582 21.5180773,71.93875 23.12229,70.521543 C27.0531202,67.056084 30.4481637,64.0632129 30.4481637,51.3814551 C30.4481637,43.4951563 28.4857108,31.0796582 25.564433,20.4873438 C23.2120814,11.9605371 20.5938731,5.82951172 18.192275,3.22350586" id="Fill-1" fill="#029EE1"></path>
                    <path d="M2.43377821,36.9050879 C2.08812731,39.0902734 1.8048676,41.1975293 1.59214511,43.1678516 L1.52919851,43.7510254 L6.66453045,48.8999512 C6.73877042,48.9741699 6.75413679,49.0584082 6.75413679,49.1161133 C6.75413679,49.1617578 6.74450967,49.2241016 6.7032241,49.2851465 L5.60110315,50.0217676 L9.48361256,54.0774512 L10.3233943,52.9717773 C10.3941167,52.9090625 10.4718742,52.8955176 10.5261194,52.8955176 C10.5840673,52.8955176 10.6686749,52.9111035 10.7418041,52.9838379 L15.4589114,57.7119434 L15.4589114,47.2066504 L2.80942132,34.5293457 L2.43377821,36.9050879" id="Fill-2" fill="#029EE1"></path>
                    <path d="M10.3102496,53.4180176 C10.1975011,53.3050195 10.1915767,53.122627 10.2967346,53.0020215 L6.64860867,49.3445215 C6.58140391,49.4089062 6.5029058,49.4226367 6.44903091,49.4226367 C6.39163842,49.4226367 6.3081416,49.4076074 6.23316109,49.3319043 L1.41293243,44.5043457 L1.23334948,47.1979297 C1.13282005,48.705127 1.08190735,50.1130566 1.08190735,51.3820117 C1.08190735,64.063584 4.47676574,67.0564551 8.41000272,70.5239551 C10.0121789,71.9391211 11.6686002,73.4023437 13.2446721,75.5899414 L15.4589114,78.6642676 L15.4589114,58.5803027 L10.3102496,53.4180176" id="Fill-3" fill="#87D3F6"></path>
                    <path d="M15.4589114,0.921611328 L13.3372406,3.22369141 C10.9358277,5.82969727 8.31761932,11.9607227 5.96489748,20.4882715 C4.87240365,24.4554492 3.87266349,28.8430762 3.0730565,33.1765234 L2.95604988,33.8103516 L15.4589114,46.3381055 L15.4589114,0.921611328" id="Fill-4" fill="#87D3F6"></path>
                    <path d="M14.9890672,43.3791895 L14.9890672,4.0553125 C13.2848805,5.90428711 10.6999968,10.6542871 7.8972067,20.8142773 C6.78212615,24.8634668 5.80774977,29.1783594 5.02906327,33.3991797 L14.9890672,43.3791895 Z M29.9781343,51.3816406 C29.9781343,43.5957227 28.0334546,31.3112207 25.1388366,20.8142773 C22.3358614,10.6542871 19.7509777,5.90428711 18.046791,4.0553125 L18.046791,74.8722461 C19.704138,72.5718359 21.4531278,71.0273438 23.0677082,69.6012305 C26.9285566,66.1975586 29.9781343,63.5089844 29.9781343,51.3816406 Z M28.0843673,19.9989844 C31.0463752,30.7350977 33.0358581,43.3465332 33.0358581,51.3816406 C33.0358581,64.8942773 29.1750097,68.2998047 25.0877387,71.9036816 C22.6435592,74.0571387 20.1199558,76.2861133 18.046791,81.1157129 L18.046791,93.4677539 C18.046791,94.3134766 17.3619689,95 16.5179291,95 C15.6740743,95 14.9890672,94.3134766 14.9890672,93.4677539 L14.9890672,81.1157129 C12.9159023,76.2861133 10.3922989,74.0571387 7.9481194,71.9036816 C3.86084838,68.2998047 0,64.8942773 0,51.3816406 C0,49.1508105 0.154959725,46.5663281 0.438219436,43.7673535 C0.442292452,43.7326562 0.444328959,43.697959 0.448401975,43.6632617 C0.77054047,40.5455176 1.25374821,37.1644824 1.86932896,33.7075586 C1.87543848,33.6667383 1.88154801,33.623877 1.89173054,33.5830566 C2.70503768,29.0332617 3.74680395,24.3608203 4.95149084,19.9989844 C8.56166364,6.90327148 12.4001104,0.183876953 16.3588963,0.0081640625 C16.4120307,0.00204101562 16.4649799,0 16.5179291,0 C16.5708783,0 16.6240126,0.00204101562 16.6769618,0.0081640625 C20.6357477,0.183876953 24.4741945,6.90327148 28.0843673,19.9989844 Z M10.1294043,52.1948926 C10.1497694,52.1683594 10.1742075,52.1416406 10.1986456,52.1171484 C10.7958978,51.5206152 11.7621281,51.5206152 12.3593803,52.1171484 L14.9890672,54.7526562 L14.9890672,47.7144922 L4.39496882,37.0969434 C4.05653826,39.2361133 3.77531506,41.3177637 3.56129661,43.2995898 L8.28247694,48.0332617 C8.87972912,48.6318359 8.87972912,49.6002051 8.28247694,50.1987793 C8.2722944,50.2089844 8.26007535,50.2212305 8.24767117,50.2293945 C7.95626543,50.5093848 7.57914122,50.6483594 7.20201702,50.6483594 C6.81063726,50.6483594 6.4192575,50.4991797 6.1215571,50.1987793 L3.20657399,47.2793848 C3.10863648,48.7463184 3.05772379,50.1232617 3.05772379,51.3816406 C3.05772379,63.5089844 6.10730155,66.1975586 9.96833507,69.6012305 C11.5827303,71.0273438 13.3317202,72.5718359 14.9890672,74.8722461 L14.9890672,59.087959 L10.1986456,54.2848926 C9.62583149,53.7108105 9.60342991,52.7975488 10.1294043,52.1948926 L10.1294043,52.1948926 Z" id="Fill-5" fill="#14171A"></path>
                </g>
            </g>
        </g>
    </g>
</svg>