<?xml version="1.0" encoding="UTF-8"?>
<svg width="1600px" height="131px" viewBox="0 0 1600 131" version="1.1" xmlns="http://www.w3.org/2000/svg" xmlns:xlink="http://www.w3.org/1999/xlink">
    <!-- Generator: Sketch 52.3 (67297) - http://www.bohemiancoding.com/sketch -->
    <title>request-permission - donate - close</title>
    <desc>Created with Sketch.</desc>
    <g id="request-permission---donate---close" stroke="none" stroke-width="1" fill="none" fill-rule="evenodd">
        <rect fill="#FFFFFF" x="0" y="0" width="1600" height="131"></rect>
        <path d="M1600,32.5 L0,32.5" id="Line-3" stroke="#007AFF" stroke-width="3" stroke-linecap="square" fill-rule="nonzero"></path>
        <path d="M741.997461,71.8476562 L750.317773,71.8476562 C756.601953,71.8476562 760.234766,75.65625 760.234766,82.2773438 C760.234766,89.1474609 756.645898,93 750.317773,93 L741.997461,93 L741.997461,71.8476562 Z M746.421289,75.6269531 L746.421289,89.2207031 L749.614648,89.2207031 C753.525781,89.2207031 755.723047,86.8183594 755.723047,82.3505859 C755.723047,78.0732422 753.452539,75.6269531 749.614648,75.6269531 L746.421289,75.6269531 Z M772.640234,71.3203125 C778.880469,71.3203125 782.791602,75.5830078 782.791602,82.4238281 C782.791602,89.2792969 778.895117,93.5419922 772.640234,93.5419922 C766.370703,93.5419922 762.45957,89.2792969 762.45957,82.4238281 C762.45957,75.5683594 766.429297,71.3203125 772.640234,71.3203125 Z M772.640234,75.2021484 C769.2125,75.2021484 766.985937,78 766.985937,82.4238281 C766.985937,86.8330078 769.168555,89.6601562 772.640234,89.6601562 C776.082617,89.6601562 778.279883,86.8330078 778.279883,82.4238281 C778.279883,78 776.082617,75.2021484 772.640234,75.2021484 Z M790.201953,93 L785.968555,93 L785.968555,71.8623047 L789.659961,71.8623047 L799.386523,85.03125 L799.650195,85.03125 L799.650195,71.8623047 L803.883594,71.8623047 L803.883594,93 L800.221484,93 L790.465625,79.7724609 L790.201953,79.7724609 L790.201953,93 Z M821.577148,93 L819.980469,87.9609375 L812.553711,87.9609375 L810.927734,93 L806.489258,93 L813.828125,71.8623047 L819.02832,71.8623047 L826.367188,93 L821.577148,93 Z M816.157227,76.2568359 L813.505859,84.5478516 L819.042969,84.5478516 L816.420898,76.2568359 L816.157227,76.2568359 Z M836.238477,93 L831.814648,93 L831.814648,75.6416016 L825.471875,75.6416016 L825.471875,71.8623047 L842.58125,71.8623047 L842.58125,75.6416016 L836.238477,75.6416016 L836.238477,93 Z M859.483789,89.2207031 L859.483789,93 L845.479883,93 L845.479883,71.8623047 L859.483789,71.8623047 L859.483789,75.6416016 L849.903711,75.6416016 L849.903711,80.578125 L858.941797,80.578125 L858.941797,84.0791016 L849.903711,84.0791016 L849.903711,89.2207031 L859.483789,89.2207031 Z" id="DONATE" fill="#007AFF"></path>
    </g>
</svg>