<?xml version="1.0" encoding="UTF-8"?>
<svg width="1600px" height="131px" viewBox="0 0 1600 131" version="1.1" xmlns="http://www.w3.org/2000/svg" xmlns:xlink="http://www.w3.org/1999/xlink">
    <!-- Generator: Sketch 52.3 (67297) - http://www.bohemiancoding.com/sketch -->
    <title>request-permission - donate</title>
    <desc>Created with Sketch.</desc>
    <g id="request-permission---donate" stroke="none" stroke-width="1" fill="none" fill-rule="evenodd">
        <rect fill="#FFFFFF" x="0" y="0" width="1600" height="131"></rect>
        <g id="Group" transform="translate(141.000000, 31.000000)">
            <g id="Group-3" transform="translate(602.000000, 0.000000)" fill="#007AFF">
                <path d="M3.0708499,8.33935547 L12.3164554,8.33935547 C19.6479983,8.33935547 23.9204593,12.8168945 23.9204593,20.5585938 C23.9204593,28.4711914 19.6992679,33 12.3164554,33 L3.0708499,33 L3.0708499,8.33935547 Z M7.48002958,12.1503906 L7.48002958,29.1889648 L11.7354007,29.1889648 C16.6401858,29.1889648 19.4258304,26.1298828 19.4258304,20.6269531 C19.4258304,15.2436523 16.5718265,12.1503906 11.7354007,12.1503906 L7.48002958,12.1503906 Z M35.3856936,33.3759766 C29.7802248,33.3759766 26.3964357,29.71875 26.3964357,23.6518555 C26.3964357,17.6191406 29.8314943,13.9277344 35.3856936,13.9277344 C40.9569826,13.9277344 44.3749514,17.6020508 44.3749514,23.6518555 C44.3749514,29.71875 40.9740725,33.3759766 35.3856936,33.3759766 Z M35.3856936,29.8212891 C38.3422365,29.8212891 40.0170412,27.5654297 40.0170412,23.6518555 C40.0170412,19.7553711 38.3251467,17.4824219 35.3856936,17.4824219 C32.4291506,17.4824219 30.7372561,19.7553711 30.7372561,23.6518555 C30.7372561,27.5654297 32.4291506,29.8212891 35.3856936,29.8212891 Z M47.4661622,33 L47.4661622,14.3037109 L51.5506349,14.3037109 L51.5506349,17.2944336 L51.8411622,17.2944336 C52.7298341,15.2094727 54.6097169,13.9277344 57.3953614,13.9277344 C61.5652833,13.9277344 63.8382325,16.4399414 63.8382325,20.9003906 L63.8382325,33 L59.5999513,33 L59.5999513,21.9086914 C59.5999513,19.0546875 58.4036622,17.6191406 55.8230958,17.6191406 C53.2937989,17.6191406 51.7044435,19.3623047 51.7044435,22.1137695 L51.7044435,33 L47.4661622,33 Z M74.072998,29.9750977 C76.6364746,29.9750977 78.5505371,28.3173828 78.5505371,26.1469727 L78.5505371,24.6601562 L74.3293457,24.9335938 C71.9538574,25.0874023 70.8430176,25.9418945 70.8430176,27.4628906 C70.8430176,29.0351562 72.1931152,29.9750977 74.072998,29.9750977 Z M72.8254395,33.3076172 C69.2194824,33.3076172 66.638916,31.1201172 66.638916,27.7021484 C66.638916,24.3183594 69.1853027,22.3701172 73.7312012,22.0966797 L78.5505371,21.8061523 L78.5505371,20.2338867 C78.5505371,18.4052734 77.3200684,17.3798828 75.0300293,17.3798828 C73.0817871,17.3798828 71.7487793,18.0634766 71.3557129,19.328125 L67.3566895,19.328125 C67.6984863,16.0297852 70.791748,13.9277344 75.2351074,13.9277344 C80.0373535,13.9277344 82.7375488,16.269043 82.7375488,20.2338867 L82.7375488,33 L78.6530762,33 L78.6530762,30.4365234 L78.3625488,30.4365234 C77.3200684,32.2480469 75.2692871,33.3076172 72.8254395,33.3076172 Z M87.9991698,9.72363281 L92.2203612,9.72363281 L92.2203612,14.4233398 L96.2193847,14.4233398 L96.2193847,17.8071289 L92.2203612,17.8071289 L92.2203612,26.984375 C92.2203612,28.8300781 93.006494,29.6503906 94.7838378,29.6503906 C95.3819823,29.6503906 95.7066894,29.6162109 96.2193847,29.5649414 L96.2193847,32.8803711 C95.6041503,33 94.8180175,33.0854492 93.997705,33.0854492 C89.7081542,33.0854492 87.9991698,31.6328125 87.9991698,28.0097656 L87.9991698,17.8071289 L85.0426269,17.8071289 L85.0426269,14.4233398 L87.9991698,14.4233398 L87.9991698,9.72363281 Z M106.949756,17.2944336 C104.420459,17.2944336 102.643115,19.105957 102.455127,21.840332 L111.256396,21.840332 C111.170947,19.0717773 109.496142,17.2944336 106.949756,17.2944336 Z M111.290576,27.855957 L115.306689,27.855957 C114.503467,31.2568359 111.410205,33.3759766 107.001025,33.3759766 C101.498096,33.3759766 98.1826658,29.7358398 98.1826658,23.7202148 C98.1826658,17.7045898 101.549365,13.9277344 106.966846,13.9277344 C112.298877,13.9277344 115.494678,17.465332 115.494678,23.3613281 L115.494678,24.7285156 L102.438037,24.7285156 L102.438037,24.9506836 C102.540576,28.0610352 104.33501,30.0092773 107.120654,30.0092773 C109.222705,30.0092773 110.675342,29.2402344 111.290576,27.855957 Z" id="Donate"></path>
            </g>
            <path d="M1318.06813,67.5 L0,67.5" id="Line-3" stroke="#007AFF" stroke-width="2" stroke-linecap="square" fill-rule="nonzero"></path>
        </g>
    </g>
</svg>