<?xml version="1.0" encoding="UTF-8"?>
<svg width="1600px" height="131px" viewBox="0 0 1600 131" version="1.1" xmlns="http://www.w3.org/2000/svg" xmlns:xlink="http://www.w3.org/1999/xlink">
    <!-- Generator: Sketch 52.3 (67297) - http://www.bohemiancoding.com/sketch -->
    <title>request-permission - donate</title>
    <desc>Created with Sketch.</desc>
    <g id="request-permission---donate" stroke="none" stroke-width="1" fill="none" fill-rule="evenodd">
        <rect fill="#FFFFFF" x="0" y="0" width="1600" height="131"></rect>
        <g id="Group" transform="translate(22.000000, 31.000000)">
            <path d="M719.997461,14.8476562 L728.317773,14.8476562 C734.601953,14.8476562 738.234765,18.65625 738.234765,25.2773438 C738.234765,32.1474609 734.645898,36 728.317773,36 L719.997461,36 L719.997461,14.8476562 Z M724.421289,18.6269531 L724.421289,32.2207031 L727.614648,32.2207031 C731.525781,32.2207031 733.723047,29.8183594 733.723047,25.3505859 C733.723047,21.0732422 731.452539,18.6269531 727.614648,18.6269531 L724.421289,18.6269531 Z M750.640234,14.3203125 C756.880469,14.3203125 760.791601,18.5830078 760.791601,25.4238281 C760.791601,32.2792969 756.895117,36.5419922 750.640234,36.5419922 C744.370703,36.5419922 740.45957,32.2792969 740.45957,25.4238281 C740.45957,18.5683594 744.429297,14.3203125 750.640234,14.3203125 Z M750.640234,18.2021484 C747.2125,18.2021484 744.985937,21 744.985937,25.4238281 C744.985937,29.8330078 747.168555,32.6601562 750.640234,32.6601562 C754.082617,32.6601562 756.279883,29.8330078 756.279883,25.4238281 C756.279883,21 754.082617,18.2021484 750.640234,18.2021484 Z M768.201953,36 L763.968555,36 L763.968555,14.8623047 L767.659961,14.8623047 L777.386523,28.03125 L777.650195,28.03125 L777.650195,14.8623047 L781.883594,14.8623047 L781.883594,36 L778.221484,36 L768.465625,22.7724609 L768.201953,22.7724609 L768.201953,36 Z M799.577148,36 L797.980469,30.9609375 L790.553711,30.9609375 L788.927734,36 L784.489258,36 L791.828125,14.8623047 L797.02832,14.8623047 L804.367188,36 L799.577148,36 Z M794.157227,19.2568359 L791.505859,27.5478516 L797.042969,27.5478516 L794.420898,19.2568359 L794.157227,19.2568359 Z M814.238477,36 L809.814649,36 L809.814649,18.6416016 L803.471875,18.6416016 L803.471875,14.8623047 L820.58125,14.8623047 L820.58125,18.6416016 L814.238477,18.6416016 L814.238477,36 Z M837.483789,32.2207031 L837.483789,36 L823.479883,36 L823.479883,14.8623047 L837.483789,14.8623047 L837.483789,18.6416016 L827.903711,18.6416016 L827.903711,23.578125 L836.941797,23.578125 L836.941797,27.0791016 L827.903711,27.0791016 L827.903711,32.2207031 L837.483789,32.2207031 Z" id="DONATE" fill="#007AFF"></path>
            <path d="M1556,67.5 L0,67.5" id="Line-3" stroke="#007AFF" stroke-width="3" stroke-linecap="square" fill-rule="nonzero"></path>
        </g>
    </g>
</svg>