<?xml version="1.0" encoding="UTF-8"?>
<svg width="1600px" height="131px" viewBox="0 0 1600 131" version="1.1" xmlns="http://www.w3.org/2000/svg" xmlns:xlink="http://www.w3.org/1999/xlink">
    <!-- Generator: Sketch 52.3 (67297) - http://www.bohemiancoding.com/sketch -->
    <title>request-permission - donate</title>
    <desc>Created with Sketch.</desc>
    <g id="request-permission---donate" stroke="none" stroke-width="1" fill="none" fill-rule="evenodd">
        <rect fill="#FFFFFF" x="0" y="0" width="1600" height="131"></rect>
        <g id="Group" transform="translate(0.000000, 31.000000)">
            <path d="M741.997461,14.8476562 L750.317773,14.8476562 C756.601953,14.8476562 760.234765,18.65625 760.234765,25.2773438 C760.234765,32.1474609 756.645898,36 750.317773,36 L741.997461,36 L741.997461,14.8476562 Z M746.421289,18.6269531 L746.421289,32.2207031 L749.614648,32.2207031 C753.525781,32.2207031 755.723047,29.8183594 755.723047,25.3505859 C755.723047,21.0732422 753.452539,18.6269531 749.614648,18.6269531 L746.421289,18.6269531 Z M772.640234,14.3203125 C778.880469,14.3203125 782.791601,18.5830078 782.791601,25.4238281 C782.791601,32.2792969 778.895117,36.5419922 772.640234,36.5419922 C766.370703,36.5419922 762.45957,32.2792969 762.45957,25.4238281 C762.45957,18.5683594 766.429297,14.3203125 772.640234,14.3203125 Z M772.640234,18.2021484 C769.2125,18.2021484 766.985937,21 766.985937,25.4238281 C766.985937,29.8330078 769.168555,32.6601562 772.640234,32.6601562 C776.082617,32.6601562 778.279883,29.8330078 778.279883,25.4238281 C778.279883,21 776.082617,18.2021484 772.640234,18.2021484 Z M790.201953,36 L785.968555,36 L785.968555,14.8623047 L789.659961,14.8623047 L799.386523,28.03125 L799.650195,28.03125 L799.650195,14.8623047 L803.883594,14.8623047 L803.883594,36 L800.221484,36 L790.465625,22.7724609 L790.201953,22.7724609 L790.201953,36 Z M821.577148,36 L819.980469,30.9609375 L812.553711,30.9609375 L810.927734,36 L806.489258,36 L813.828125,14.8623047 L819.02832,14.8623047 L826.367188,36 L821.577148,36 Z M816.157227,19.2568359 L813.505859,27.5478516 L819.042969,27.5478516 L816.420898,19.2568359 L816.157227,19.2568359 Z M836.238477,36 L831.814649,36 L831.814649,18.6416016 L825.471875,18.6416016 L825.471875,14.8623047 L842.58125,14.8623047 L842.58125,18.6416016 L836.238477,18.6416016 L836.238477,36 Z M859.483789,32.2207031 L859.483789,36 L845.479883,36 L845.479883,14.8623047 L859.483789,14.8623047 L859.483789,18.6416016 L849.903711,18.6416016 L849.903711,23.578125 L858.941797,23.578125 L858.941797,27.0791016 L849.903711,27.0791016 L849.903711,32.2207031 L859.483789,32.2207031 Z" id="DONATE" fill="#007AFF"></path>
            <path d="M1600,67.5 L0,67.5" id="Line-3" stroke="#007AFF" stroke-width="3" stroke-linecap="square" fill-rule="nonzero"></path>
        </g>
    </g>
</svg>