<?xml version="1.0" encoding="UTF-8"?>
<svg width="1600px" height="80px" viewBox="0 0 1600 80" version="1.1" xmlns="http://www.w3.org/2000/svg" xmlns:xlink="http://www.w3.org/1999/xlink">
    <!-- Generator: Sketch 52.6 (67491) - http://www.bohemiancoding.com/sketch -->
    <title>request-permission - shop</title>
    <desc>Created with Sketch.</desc>
    <g id="request-permission---shop" stroke="none" stroke-width="1" fill="none" fill-rule="evenodd">
        <rect fill="#FFFFFF" x="0" y="0" width="1600" height="80"></rect>
        <g id="Group" transform="translate(0.000000, 18.000000)">
            <path d="M1600,22.5 L0,22.5" id="Line-4" stroke="#007AFF" stroke-width="3" stroke-linecap="square" fill-rule="nonzero"></path>
            <rect id="Rectangle" fill="#FFFFFF" fill-rule="nonzero" x="657" y="0" width="287" height="45" rx="10"></rect>
            <path d="M681.432168,31 L687.059609,22.1254883 L681.468789,13.3852539 L685.802285,13.3852539 L689.476602,19.5498047 L689.696328,19.5498047 L693.407266,13.3852539 L697.533242,13.3852539 L691.734902,22.1865234 L697.447793,31 L693.248574,31 L689.464395,25.0307617 L689.244668,25.0307617 L685.41166,31 L681.432168,31 Z M707.391973,31.4516602 C702.289434,31.4516602 699.127813,27.9238281 699.127813,22.1865234 C699.127813,16.4614258 702.277227,12.9335938 707.391973,12.9335938 C711.566777,12.9335938 714.76502,15.7045898 715.033574,19.5375977 L711.444707,19.5375977 C711.090703,17.5112305 709.491582,16.1806641 707.391973,16.1806641 C704.620977,16.1806641 702.899785,18.4755859 702.899785,22.1865234 C702.899785,25.8974609 704.620977,28.2045898 707.40418,28.2045898 C709.515996,28.2045898 711.10291,26.9594727 711.456914,25.0185547 L715.045781,25.0185547 C714.740605,28.8271484 711.64002,31.4516602 707.391973,31.4516602 Z M726.051973,12.9335938 C731.252168,12.9335938 734.511445,16.4858398 734.511445,22.1865234 C734.511445,27.8994141 731.264375,31.4516602 726.051973,31.4516602 C720.827363,31.4516602 717.568086,27.8994141 717.568086,22.1865234 C717.568086,16.4736328 720.876191,12.9335938 726.051973,12.9335938 Z M726.051973,16.168457 C723.195527,16.168457 721.340059,18.5 721.340059,22.1865234 C721.340059,25.8608398 723.158906,28.2167969 726.051973,28.2167969 C728.920625,28.2167969 730.75168,25.8608398 730.75168,22.1865234 C730.75168,18.5 728.920625,16.168457 726.051973,16.168457 Z M737.912656,13.3730469 L744.84625,13.3730469 C750.083066,13.3730469 753.11041,16.546875 753.11041,22.0644531 C753.11041,27.7895508 750.119688,31 744.84625,31 L737.912656,31 L737.912656,13.3730469 Z M741.59918,16.5224609 L741.59918,27.8505859 L744.260313,27.8505859 C747.51959,27.8505859 749.350645,25.8486328 749.350645,22.1254883 C749.350645,18.5610352 747.458555,16.5224609 744.260313,16.5224609 L741.59918,16.5224609 Z M768.169336,27.8505859 L768.169336,31 L756.499414,31 L756.499414,13.3852539 L768.169336,13.3852539 L768.169336,16.534668 L760.185938,16.534668 L760.185938,20.6484375 L767.717676,20.6484375 L767.717676,23.565918 L760.185938,23.565918 L760.185938,27.8505859 L768.169336,27.8505859 Z M779.895742,25.5556641 L771.875723,25.5556641 L771.875723,22.2231445 L779.895742,22.2231445 L779.895742,25.5556641 Z M783.18709,26.1049805 L786.751543,26.1049805 C786.922441,27.5332031 788.362871,28.4487305 790.438066,28.4487305 C792.35457,28.4487305 793.709551,27.5209961 793.709551,26.1904297 C793.709551,25.0673828 792.830645,24.4204102 790.67,23.956543 L788.375078,23.4682617 C785.164629,22.796875 783.589922,21.1245117 783.589922,18.4389648 C783.589922,15.1186523 786.263262,12.9335938 790.328203,12.9335938 C794.210039,12.9335938 796.956621,15.1064453 797.066484,18.2436523 L793.599688,18.2436523 C793.428789,16.8520508 792.134844,15.9243164 790.352617,15.9243164 C788.509355,15.9243164 787.288652,16.7788086 787.288652,18.121582 C787.288652,19.2080078 788.130938,19.8305664 790.193926,20.2700195 L792.317949,20.7216797 C795.857988,21.4663086 797.383867,22.9921875 797.383867,25.7265625 C797.383867,29.2788086 794.661699,31.4516602 790.242754,31.4516602 C786.043535,31.4516602 783.321367,29.3886719 783.18709,26.1049805 Z M816.080488,31 L812.393965,31 L812.393965,23.6391602 L804.459395,23.6391602 L804.459395,31 L800.772871,31 L800.772871,13.3852539 L804.459395,13.3852539 L804.459395,20.4897461 L812.393965,20.4897461 L812.393965,13.3852539 L816.080488,13.3852539 L816.080488,31 Z M827.965586,12.9335938 C833.165781,12.9335938 836.425059,16.4858398 836.425059,22.1865234 C836.425059,27.8994141 833.177988,31.4516602 827.965586,31.4516602 C822.740977,31.4516602 819.481699,27.8994141 819.481699,22.1865234 C819.481699,16.4736328 822.789805,12.9335938 827.965586,12.9335938 Z M827.965586,16.168457 C825.109141,16.168457 823.253672,18.5 823.253672,22.1865234 C823.253672,25.8608398 825.07252,28.2167969 827.965586,28.2167969 C830.834238,28.2167969 832.665293,25.8608398 832.665293,22.1865234 C832.665293,18.5 830.834238,16.168457 827.965586,16.168457 Z M839.82627,13.3852539 L847.174902,13.3852539 C850.800391,13.3852539 853.278418,15.8144531 853.278418,19.4765625 C853.278418,23.1020508 850.702734,25.53125 846.991797,25.53125 L843.512793,25.53125 L843.512793,31 L839.82627,31 L839.82627,13.3852539 Z M843.512793,16.4125977 L843.512793,22.5405273 L846.186133,22.5405273 C848.297949,22.5405273 849.530859,21.4663086 849.530859,19.4887695 C849.530859,17.4868164 848.322363,16.4125977 846.19834,16.4125977 L843.512793,16.4125977 Z M855.861758,31.3295898 C854.555605,31.3295898 853.701113,30.4384766 853.701113,29.2055664 C853.701113,27.9726562 854.555605,27.09375 855.861758,27.09375 C857.180117,27.09375 858.022402,27.9726562 858.022402,29.2055664 C858.022402,30.4384766 857.180117,31.3295898 855.861758,31.3295898 Z M868.332793,31.4516602 C863.230254,31.4516602 860.068633,27.9238281 860.068633,22.1865234 C860.068633,16.4614258 863.218047,12.9335938 868.332793,12.9335938 C872.507598,12.9335938 875.70584,15.7045898 875.974395,19.5375977 L872.385527,19.5375977 C872.031523,17.5112305 870.432402,16.1806641 868.332793,16.1806641 C865.561797,16.1806641 863.840605,18.4755859 863.840605,22.1865234 C863.840605,25.8974609 865.561797,28.2045898 868.345,28.2045898 C870.456816,28.2045898 872.04373,26.9594727 872.397734,25.0185547 L875.986602,25.0185547 C875.681426,28.8271484 872.58084,31.4516602 868.332793,31.4516602 Z M886.992793,12.9335938 C892.192988,12.9335938 895.452266,16.4858398 895.452266,22.1865234 C895.452266,27.8994141 892.205195,31.4516602 886.992793,31.4516602 C881.768184,31.4516602 878.508906,27.8994141 878.508906,22.1865234 C878.508906,16.4736328 881.817012,12.9335938 886.992793,12.9335938 Z M886.992793,16.168457 C884.136348,16.168457 882.280879,18.5 882.280879,22.1865234 C882.280879,25.8608398 884.099727,28.2167969 886.992793,28.2167969 C889.861445,28.2167969 891.6925,25.8608398 891.6925,22.1865234 C891.6925,18.5 889.861445,16.168457 886.992793,16.168457 Z M917.50582,31 L914.087852,31 L914.087852,19.2202148 L913.892539,19.2202148 L909.412559,29.9868164 L906.958945,29.9868164 L902.466758,19.2202148 L902.271445,19.2202148 L902.271445,31 L898.853477,31 L898.853477,13.3852539 L903.19918,13.3852539 L908.069785,25.2260742 L908.289512,25.2260742 L913.172324,13.3852539 L917.50582,13.3852539 L917.50582,31 Z" id="XCODE-SHOP.COM" fill="#007AFF"></path>
        </g>
    </g>
</svg>