<?xml version="1.0" encoding="UTF-8"?>
<svg width="147px" height="29px" viewBox="0 0 147 29" version="1.1" xmlns="http://www.w3.org/2000/svg" xmlns:xlink="http://www.w3.org/1999/xlink">
    <!-- Generator: Sketch 59.1 (86144) - https://sketch.com -->
    <title>xcode-shop</title>
    <desc>Created with Sketch.</desc>
    <defs>
        <linearGradient x1="50%" y1="0%" x2="50%" y2="100%" id="linearGradient-1">
            <stop stop-color="#F9FBFB" offset="0%"></stop>
            <stop stop-color="#EEF2F5" offset="100%"></stop>
        </linearGradient>
    </defs>
    <g id="Page-1" stroke="none" stroke-width="1" fill="none" fill-rule="evenodd">
        <g id="Artboard" transform="translate(-15.000000, -203.000000)">
            <g id="xcode-shop" transform="translate(15.000000, 203.000000)">
                <rect id="Rectangle" stroke="#C7C9CD" fill="url(#linearGradient-1)" x="0.5" y="0.5" width="146" height="28" rx="3"></rect>
                <path d="M36.6279297,19.1079102 C37.4912109,19.1079102 38.3354492,18.6572266 38.7226562,17.9272461 L38.7543945,17.9272461 L38.7543945,19 L40.277832,19 L40.277832,14.3662109 C40.277832,13.0141602 39.1923828,12.1318359 37.5229492,12.1318359 C35.809082,12.1318359 34.7363281,13.0332031 34.6665039,14.2900391 L36.1328125,14.2900391 C36.234375,13.7314453 36.7104492,13.3696289 37.4594727,13.3696289 C38.2402344,13.3696289 38.7163086,13.7758789 38.7163086,14.4804688 L38.7163086,14.9628906 L36.9389648,15.0644531 C35.3012695,15.1660156 34.3808594,15.8833008 34.3808594,17.0766602 C34.3808594,18.2890625 35.3266602,19.1079102 36.6279297,19.1079102 Z M37.1040039,17.9145508 C36.418457,17.9145508 35.9614258,17.5654297 35.9614258,17.0131836 C35.9614258,16.4799805 36.3994141,16.137207 37.1611328,16.0864258 L38.7163086,15.9912109 L38.7163086,16.5053711 C38.7163086,17.3178711 37.9990234,17.9145508 37.1040039,17.9145508 Z M51.10625,12.2714844 L49.5447266,12.2714844 L48.4084961,17.4384766 L48.3704102,17.4384766 L47.0564453,12.2714844 L45.5393555,12.2714844 L44.2253906,17.4384766 L44.1936523,17.4384766 L43.0574219,12.2714844 L41.4705078,12.2714844 L43.2922852,19 L44.9426758,19 L46.2629883,14.0805664 L46.2947266,14.0805664 L47.6213867,19 L49.2844727,19 L51.10625,12.2714844 Z M56.7359375,16.987793 C56.5645508,17.5463867 56.005957,17.9145508 55.2696289,17.9145508 C54.2349609,17.9145508 53.5748047,17.190918 53.5748047,16.1118164 L53.5748047,16.0166016 L58.278418,16.0166016 L58.278418,15.5024414 C58.278418,13.4584961 57.0850586,12.1318359 55.1744141,12.1318359 C53.2320312,12.1318359 52.0005859,13.534668 52.0005859,15.6611328 C52.0005859,17.8066406 53.2193359,19.1333008 55.2378906,19.1333008 C56.8311523,19.1333008 58.0118164,18.2573242 58.2149414,16.987793 L56.7359375,16.987793 Z M55.1807617,13.3569336 C56.0884766,13.3569336 56.6978516,14.0234375 56.7295898,14.9755859 L53.5875,14.9755859 C53.6509766,14.0361328 54.2920898,13.3569336 55.1807617,13.3569336 Z M59.6234375,14.2011719 C59.6234375,15.1977539 60.2708984,15.8325195 61.5594727,16.1181641 L62.6766602,16.3657227 C63.38125,16.5244141 63.6224609,16.7529297 63.6224609,17.1591797 C63.6224609,17.6606445 63.1463867,17.9780273 62.3783203,17.9780273 C61.5785156,17.9780273 61.127832,17.6479492 61.0072266,16.9941406 L59.4520508,16.9941406 C59.5790039,18.2954102 60.6200195,19.1333008 62.3783203,19.1333008 C64.0287109,19.1333008 65.1966797,18.2763672 65.1966797,17.0068359 C65.1966797,16.0292969 64.6571289,15.4897461 63.2606445,15.1787109 L62.143457,14.9311523 C61.4388672,14.7724609 61.1595703,14.5058594 61.1595703,14.1186523 C61.1595703,13.6235352 61.6229492,13.293457 62.3211914,13.293457 C63.0511719,13.293457 63.5018555,13.6806641 63.565332,14.2900391 L65.0379883,14.2900391 C64.9999023,13.0141602 63.9588867,12.1318359 62.3211914,12.1318359 C60.6961914,12.1318359 59.6234375,12.9697266 59.6234375,14.2011719 Z M69.6266602,19.1333008 C71.6007812,19.1333008 72.8830078,17.8193359 72.8830078,15.6357422 C72.8830078,13.4584961 71.5880859,12.1318359 69.6266602,12.1318359 C67.6652344,12.1318359 66.3703125,13.4648438 66.3703125,15.6357422 C66.3703125,17.8193359 67.6525391,19.1333008 69.6266602,19.1333008 Z M69.6266602,17.8828125 C68.6237305,17.8828125 67.9762695,17.0703125 67.9762695,15.6357422 C67.9762695,14.2075195 68.6300781,13.3886719 69.6266602,13.3886719 C70.6295898,13.3886719 71.2770508,14.2075195 71.2770508,15.6357422 C71.2770508,17.0703125 70.6295898,17.8828125 69.6266602,17.8828125 Z M74.3486328,19 L75.9291992,19 L75.9291992,14.8803711 C75.9291992,14.0678711 76.4624023,13.4775391 77.2241211,13.4775391 C77.9604492,13.4775391 78.4174805,13.940918 78.4174805,14.6899414 L78.4174805,19 L79.9536133,19 L79.9536133,14.8422852 C79.9536133,14.0361328 80.4741211,13.4775391 81.2358398,13.4775391 C82.0102539,13.4775391 82.4418945,13.9472656 82.4418945,14.7724609 L82.4418945,19 L84.0224609,19 L84.0224609,14.3852539 C84.0224609,13.0395508 83.152832,12.1445312 81.8261719,12.1445312 C80.8549805,12.1445312 80.0551758,12.6650391 79.7314453,13.496582 L79.6933594,13.496582 C79.4458008,12.6333008 78.7666016,12.1445312 77.8144531,12.1445312 C76.9003906,12.1445312 76.1894531,12.6586914 75.8974609,13.4394531 L75.8657227,13.4394531 L75.8657227,12.2714844 L74.3486328,12.2714844 L74.3486328,19 Z M90.1916992,16.987793 C90.0203125,17.5463867 89.4617188,17.9145508 88.7253906,17.9145508 C87.6907227,17.9145508 87.0305664,17.190918 87.0305664,16.1118164 L87.0305664,16.0166016 L91.7341797,16.0166016 L91.7341797,15.5024414 C91.7341797,13.4584961 90.5408203,12.1318359 88.6301758,12.1318359 C86.687793,12.1318359 85.4563477,13.534668 85.4563477,15.6611328 C85.4563477,17.8066406 86.6750977,19.1333008 88.6936523,19.1333008 C90.2869141,19.1333008 91.4675781,18.2573242 91.6707031,16.987793 L90.1916992,16.987793 Z M88.6365234,13.3569336 C89.5442383,13.3569336 90.1536133,14.0234375 90.1853516,14.9755859 L87.0432617,14.9755859 C87.1067383,14.0361328 87.7478516,13.3569336 88.6365234,13.3569336 Z M97.0775391,11.2558594 C97.5599609,11.2558594 97.9408203,10.8686523 97.9408203,10.3989258 C97.9408203,9.92285156 97.5599609,9.54199219 97.0775391,9.54199219 C96.5951172,9.54199219 96.2079102,9.92285156 96.2079102,10.3989258 C96.2079102,10.8686523 96.5951172,11.2558594 97.0775391,11.2558594 Z M96.2904297,19 L97.8709961,19 L97.8709961,12.2714844 L96.2904297,12.2714844 L96.2904297,19 Z M103.843457,9.68798828 C101.171094,9.68798828 99.4953125,11.5097656 99.4953125,14.4233398 C99.4953125,17.3369141 101.171094,19.1523438 103.843457,19.1523438 C106.509473,19.1523438 108.185254,17.3369141 108.185254,14.4233398 C108.185254,11.5097656 106.509473,9.68798828 103.843457,9.68798828 Z M103.843457,11.0844727 C105.474805,11.0844727 106.51582,12.3793945 106.51582,14.4233398 C106.51582,16.4609375 105.474805,17.7558594 103.843457,17.7558594 C102.205762,17.7558594 101.171094,16.4609375 101.171094,14.4233398 C101.171094,12.3793945 102.205762,11.0844727 103.843457,11.0844727 Z M109.555664,16.4418945 C109.631836,18.1176758 111.034668,19.1523438 113.154785,19.1523438 C115.357422,19.1523438 116.734863,18.0478516 116.734863,16.2958984 C116.734863,14.9375 115.928711,14.1630859 113.999023,13.7631836 L113.008789,13.5600586 C111.866211,13.3188477 111.40918,12.9189453 111.40918,12.296875 C111.40918,11.5288086 112.132813,11.0463867 113.148438,11.0463867 C114.195801,11.0463867 114.919434,11.5668945 114.995605,12.4301758 L116.563477,12.4301758 C116.525391,10.7924805 115.186035,9.68798828 113.161133,9.68798828 C111.174316,9.68798828 109.758789,10.7797852 109.758789,12.3920898 C109.758789,13.7314453 110.615723,14.5947266 112.450195,14.9692383 L113.434082,15.1723633 C114.627441,15.4199219 115.084473,15.8261719 115.084473,16.4863281 C115.084473,17.2480469 114.316406,17.7939453 113.211914,17.7939453 C112.069336,17.7939453 111.244141,17.2861328 111.123535,16.4418945 L109.555664,16.4418945 Z M123.100195,9.84033203 L121.4625,9.84033203 L121.4625,15.769043 C121.4625,17.7685547 122.909766,19.1523438 125.22666,19.1523438 C127.549902,19.1523438 128.99082,17.7685547 128.99082,15.769043 L128.99082,9.84033203 L127.359473,9.84033203 L127.359473,15.6230469 C127.359473,16.8735352 126.585059,17.7241211 125.22666,17.7241211 C123.868262,17.7241211 123.100195,16.8735352 123.100195,15.6230469 L123.100195,9.84033203 Z M132.697168,19 L131.059473,19 L131.059473,9.84033203 L132.697168,9.84033203 L132.697168,19 Z" id="awesomeiOSUI" fill="#000000" fill-rule="nonzero"></path>
                <path d="M14.0688477,21.1264648 C13.7387695,20.8789062 13.675293,20.4663086 13.8530273,19.9331055 L15.1416016,16.1181641 L11.8598633,13.7631836 C11.402832,13.4394531 11.199707,13.0649414 11.3393555,12.6650391 C11.4726562,12.277832 11.8408203,12.0874023 12.4057617,12.09375 L16.4238281,12.1254883 L17.6489258,8.28515625 C17.8266602,7.73925781 18.1123047,7.44726562 18.5249023,7.44726562 C18.9375,7.44726562 19.2294922,7.73925781 19.4008789,8.28515625 L20.6259766,12.1254883 L24.644043,12.09375 C25.2089844,12.0874023 25.5771484,12.277832 25.7104492,12.6713867 C25.84375,13.0649414 25.6469727,13.4394531 25.1899414,13.7631836 L21.9082031,16.1181641 L23.1967773,19.9331055 C23.3745117,20.4663086 23.3110352,20.8789062 22.980957,21.1264648 C22.6445312,21.3803711 22.2382812,21.3041992 21.7749023,20.9614258 L18.5249023,18.574707 L15.2749023,20.9614258 C14.8115234,21.3041992 14.4052734,21.3803711 14.0688477,21.1264648 Z" id="star" fill="#000000" fill-rule="nonzero"></path>
            </g>
        </g>
    </g>
</svg>