<?xml version="1.0" encoding="UTF-8"?>
<svg width="174px" height="31px" viewBox="0 0 174 31" version="1.1" xmlns="http://www.w3.org/2000/svg" xmlns:xlink="http://www.w3.org/1999/xlink">
    <!-- Generator: Sketch 55.2 (78181) - https://sketchapp.com -->
    <title>Group 4</title>
    <desc>Created with Sketch.</desc>
    <defs>
        <linearGradient x1="50%" y1="0%" x2="50%" y2="100%" id="linearGradient-1">
            <stop stop-color="#F9FBFB" offset="0%"></stop>
            <stop stop-color="#EEF2F5" offset="100%"></stop>
        </linearGradient>
    </defs>
    <g id="Page-1" stroke="none" stroke-width="1" fill="none" fill-rule="evenodd">
        <g id="Final---3" transform="translate(-15.000000, -14.000000)">
            <g id="Group-4" transform="translate(15.000000, 14.000000)">
                <rect id="Rectangle" stroke="#C7C9CD" fill="url(#linearGradient-1)" x="0.5" y="0.5" width="173" height="30" rx="3"></rect>
                <g id="Group-7" transform="translate(13.000000, 8.000000)" fill="#161514">
                    <path d="M7.91593767,0 C3.54487042,0 0,3.44281538 0,7.6900401 C0,11.0875366 2.26815331,13.9695314 5.41401926,14.9863728 C5.81010774,15.0571835 5.95444919,14.8197317 5.95444919,14.6157969 C5.95444919,14.4335774 5.94764521,13.9497044 5.94375723,13.3081596 C3.74169966,13.7726777 3.27708544,12.2771561 3.27708544,12.2771561 C2.91696082,11.3887181 2.39791481,11.1522104 2.39791481,11.1522104 C1.67912357,10.6754185 2.4523466,10.6848599 2.4523466,10.6848599 C3.24695356,10.7391481 3.66491196,11.4774675 3.66491196,11.4774675 C4.37106725,12.6524527 5.51802286,12.3130335 5.96902913,12.1161798 C6.04095685,11.6195609 6.24556207,11.2806138 6.4715512,11.0884808 C4.71369594,10.8944595 2.86544502,10.234504 2.86544502,7.28783543 C2.86544502,6.44849281 3.17405384,5.76162919 3.6804639,5.22441214 C3.59881621,5.0299188 3.32714325,4.2476968 3.7582236,3.18931313 C3.7582236,3.18931313 4.42258305,2.98254594 5.93500926,3.97767206 C6.56632084,3.80678228 7.24380224,3.72180946 7.91690967,3.71850497 C8.58953109,3.72180946 9.26652649,3.80678228 9.89881007,3.97767206 C11.4102643,2.98254594 12.0736517,3.18931313 12.0736517,3.18931313 C12.5057041,4.2476968 12.2340311,5.0299188 12.1528694,5.22441214 C12.6602515,5.76162919 12.9664303,6.44849281 12.9664303,7.28783543 C12.9664303,10.2420571 11.1152634,10.8920992 9.35206217,11.0823439 C9.63588508,11.3197957 9.88909011,11.7890345 9.88909011,12.5065827 C9.88909011,13.5342818 9.87937015,14.3637109 9.87937015,14.6157969 C9.87937015,14.82162 10.0222536,15.0609601 10.4236881,14.9859007 C13.567124,13.966699 15.8333333,11.0865925 15.8333333,7.6900401 C15.8333333,3.44281538 12.2884629,0 7.91593767,0" id="Fill-4"></path>
                </g>
                <path d="M38.6372285,19.9971591 L37,19.9971591 L37,10.8401022 L42.838179,10.8401022 L42.838179,12.217151 L38.6372285,12.217151 L38.6372285,14.9268276 L42.4764658,14.9268276 L42.4764658,16.2594554 L38.6372285,16.2594554 L38.6372285,19.9971591 Z M47.2437266,20.1367678 C45.1622888,20.1367678 43.9058111,18.7787566 43.9058111,16.5259809 C43.9058111,14.2922429 45.1813264,12.9278858 47.2437266,12.9278858 C49.3124726,12.9278858 50.581642,14.285897 50.581642,16.5259809 C50.581642,18.7787566 49.3188185,20.1367678 47.2437266,20.1367678 Z M47.2437266,18.8485609 C48.341558,18.8485609 48.963451,17.9982174 48.963451,16.5323268 C48.963451,15.0664362 48.3352122,14.2160927 47.2437266,14.2160927 C46.1458951,14.2160927 45.5176562,15.0664362 45.5176562,16.5323268 C45.5176562,17.9982174 46.1458951,18.8485609 47.2437266,18.8485609 Z M51.9982956,19.9971591 L51.9982956,10.3768554 L53.5720656,10.3768554 L53.5720656,19.9971591 L51.9982956,19.9971591 Z M55.3885077,19.9971591 L55.3885077,10.3768554 L56.9622777,10.3768554 L56.9622777,19.9971591 L55.3885077,19.9971591 Z M61.7105009,20.1367678 C59.6290632,20.1367678 58.3725855,18.7787566 58.3725855,16.5259809 C58.3725855,14.2922429 59.6481007,12.9278858 61.7105009,12.9278858 C63.779247,12.9278858 65.0484163,14.285897 65.0484163,16.5259809 C65.0484163,18.7787566 63.7855928,20.1367678 61.7105009,20.1367678 Z M61.7105009,18.8485609 C62.8083324,18.8485609 63.4302254,17.9982174 63.4302254,16.5323268 C63.4302254,15.0664362 62.8019866,14.2160927 61.7105009,14.2160927 C60.6126694,14.2160927 59.9844306,15.0664362 59.9844306,16.5323268 C59.9844306,17.9982174 60.6126694,18.8485609 61.7105009,18.8485609 Z M75.4254057,13.0611486 L73.547035,19.9971591 L71.890769,19.9971591 L70.5391036,14.9712485 L70.4312242,14.9712485 L69.0859047,19.9971591 L67.4486763,19.9971591 L65.5703056,13.0611486 L67.1567673,13.0611486 L68.3117114,18.2710888 L68.4195908,18.2710888 L69.7522186,13.0611486 L71.2561843,13.0611486 L72.6015038,18.2710888 L72.7093832,18.2710888 L73.8579815,13.0611486 L75.4254057,13.0611486 Z M84.9916565,10.8337564 C88.0186254,10.8337564 90.1000631,12.7502021 90.1000631,15.5360288 C90.1000631,17.5730457 89.1545319,18.8549067 87.6442204,18.8549067 C86.8700271,18.8549067 86.292555,18.4487725 86.1783298,17.8332254 L86.0641046,17.8332254 C85.797579,18.4741559 85.258182,18.8231775 84.5220638,18.8231775 C83.2021277,18.8231775 82.320055,17.7443835 82.320055,16.1325384 C82.320055,14.5904977 83.2021277,13.5307413 84.4839887,13.5307413 C85.1566485,13.5307413 85.715083,13.8670711 85.962571,14.4255057 L86.0767963,14.4255057 L86.0767963,13.664004 L87.2380862,13.664004 L87.2380862,17.1796032 C87.2380862,17.6238124 87.4728825,17.890338 87.8853626,17.890338 C88.5897516,17.890338 89.0339609,16.9892278 89.0339609,15.5867956 C89.0339609,13.2959449 87.3903865,11.7665959 84.9345438,11.7665959 C82.4723553,11.7665959 80.7399391,13.581508 80.7399391,16.1642677 C80.7399391,18.7977941 82.4596636,20.4730976 85.1629943,20.4730976 C85.9118042,20.4730976 86.66696,20.3715641 87.0350191,20.2192638 L87.0350191,21.1584491 C86.5083138,21.3234411 85.8166165,21.4186288 85.0995359,21.4186288 C81.8060414,21.4186288 79.6738368,19.3371911 79.6738368,16.1261926 C79.6738368,12.9913443 81.8377706,10.8337564 84.9916565,10.8337564 Z M84.7758977,14.5841518 C84.0397794,14.5841518 83.601916,15.1743156 83.601916,16.1706135 C83.601916,17.1542198 84.0461253,17.7507294 84.7695518,17.7507294 C85.5183617,17.7507294 85.9943002,17.1415281 85.9943002,16.1706135 C85.9943002,15.1933531 85.5247076,14.5841518 84.7758977,14.5841518 Z M92.3670603,11.8998586 C91.8530467,11.8998586 91.4278749,11.4873786 91.4278749,10.9670192 C91.4278749,10.4530056 91.8530467,10.0341797 92.3670603,10.0341797 C92.8874197,10.0341797 93.3125914,10.4530056 93.3125914,10.9670192 C93.3125914,11.4873786 92.8874197,11.8998586 92.3670603,11.8998586 Z M91.5865211,19.9971591 L91.5865211,13.0611486 L93.1539453,13.0611486 L93.1539453,19.9971591 L91.5865211,19.9971591 Z M100.922792,13.0611486 L98.4669489,19.9971591 L96.7345327,19.9971591 L94.2659983,13.0611486 L95.9539935,13.0611486 L97.5594928,18.4551184 L97.6673722,18.4551184 L99.2601797,13.0611486 L100.922792,13.0611486 Z M103.691111,20.1113844 C102.352137,20.1113844 101.393914,19.299116 101.393914,18.0299466 C101.393914,16.7861607 102.339445,16.0563883 104.02744,15.9612006 L105.816969,15.8533212 L105.816969,15.2568116 C105.816969,14.5651143 105.360068,14.1780176 104.509725,14.1780176 C103.786298,14.1780176 103.291322,14.4381974 103.145368,14.9141359 L101.66044,14.9141359 C101.787357,13.7020791 102.935955,12.9278858 104.585875,12.9278858 C106.369058,12.9278858 107.371702,13.790921 107.371702,15.2568116 L107.371702,19.9971591 L105.855044,19.9971591 L105.855044,19.0452821 L105.747165,19.0452821 C105.360068,19.7179419 104.598567,20.1113844 103.691111,20.1113844 Z M104.154357,18.8993276 C105.106234,18.8993276 105.816969,18.2774347 105.816969,17.4524746 L105.816969,16.8876942 L104.249545,16.9955736 C103.367472,17.0526862 102.954992,17.3763244 102.954992,17.9537965 C102.954992,18.5503061 103.456314,18.8993276 104.154357,18.8993276 Z M109.029498,19.9971591 L109.029498,13.0611486 L110.546155,13.0611486 L110.546155,14.1716718 L110.654034,14.1716718 C110.984018,13.3974785 111.682062,12.9278858 112.716435,12.9278858 C114.264821,12.9278858 115.108819,13.8607253 115.108819,15.5106455 L115.108819,19.9971591 L113.535049,19.9971591 L113.535049,15.8787046 C113.535049,14.7999106 113.09084,14.2605136 112.132617,14.2605136 C111.193431,14.2605136 110.603268,14.9141359 110.603268,15.9548547 L110.603268,19.9971591 L109.029498,19.9971591 Z M122.57941,13.0611486 L120.123568,19.9971591 L118.391151,19.9971591 L115.922617,13.0611486 L117.610612,13.0611486 L119.216112,18.4551184 L119.323991,18.4551184 L120.916798,13.0611486 L122.57941,13.0611486 Z M126.394794,20.1367678 C124.313356,20.1367678 123.056879,18.7787566 123.056879,16.5259809 C123.056879,14.2922429 124.332394,12.9278858 126.394794,12.9278858 C128.46354,12.9278858 129.73271,14.285897 129.73271,16.5259809 C129.73271,18.7787566 128.469886,20.1367678 126.394794,20.1367678 Z M126.394794,18.8485609 C127.492626,18.8485609 128.114519,17.9982174 128.114519,16.5323268 C128.114519,15.0664362 127.48628,14.2160927 126.394794,14.2160927 C125.296963,14.2160927 124.668724,15.0664362 124.668724,16.5323268 C124.668724,17.9982174 125.296963,18.8485609 126.394794,18.8485609 Z M131.085905,19.9971591 L131.085905,13.0611486 L132.602562,13.0611486 L132.602562,14.1399426 L132.710441,14.1399426 C132.900817,13.4545911 133.649627,12.9469234 134.544391,12.9469234 C134.772842,12.9469234 135.052059,12.9723067 135.198013,13.0103818 L135.198013,14.4445432 C135.077442,14.4001223 134.658616,14.3557013 134.392091,14.3557013 C133.37041,14.3557013 132.659675,14.990286 132.659675,15.9675464 L132.659675,19.9971591 L131.085905,19.9971591 Z M139.076856,20.1367678 C136.995418,20.1367678 135.73894,18.7787566 135.73894,16.5259809 C135.73894,14.2922429 137.014455,12.9278858 139.076856,12.9278858 C141.145602,12.9278858 142.414771,14.285897 142.414771,16.5259809 C142.414771,18.7787566 141.151948,20.1367678 139.076856,20.1367678 Z M139.076856,18.8485609 C140.174687,18.8485609 140.79658,17.9982174 140.79658,16.5323268 C140.79658,15.0664362 140.168341,14.2160927 139.076856,14.2160927 C137.979024,14.2160927 137.350785,15.0664362 137.350785,16.5323268 C137.350785,17.9982174 137.979024,18.8485609 139.076856,18.8485609 Z M147.626241,20.1113844 C146.655327,20.1113844 145.849404,19.6608293 145.455962,18.8993276 L145.348082,18.8993276 L145.348082,19.9971591 L143.831425,19.9971591 L143.831425,10.3768554 L145.405195,10.3768554 L145.405195,14.1653259 L145.513074,14.1653259 C145.874787,13.4101702 146.674364,12.9469234 147.626241,12.9469234 C149.384041,12.9469234 150.475526,14.3176263 150.475526,16.5323268 C150.475526,18.7343356 149.377695,20.1113844 147.626241,20.1113844 Z M147.131265,14.2605136 C146.058817,14.2605136 145.379811,15.1298947 145.379811,16.5323268 C145.379811,17.9347589 146.052471,18.8041399 147.131265,18.8041399 C148.210059,18.8041399 148.857335,17.9474506 148.857335,16.5323268 C148.857335,15.117203 148.203713,14.2605136 147.131265,14.2605136 Z M156.346964,18.099751 L157.838238,18.099751 C157.552675,19.3498828 156.391385,20.1367678 154.754157,20.1367678 C152.710794,20.1367678 151.4797,18.7787566 151.4797,16.5577102 C151.4797,14.330318 152.729832,12.9278858 154.741465,12.9278858 C156.721369,12.9278858 157.908043,14.2414761 157.908043,16.4181016 L157.908043,16.9194234 L153.059816,16.9194234 L153.059816,17.0019195 C153.097891,18.1759011 153.764205,18.9120193 154.798578,18.9120193 C155.579117,18.9120193 156.118514,18.6201104 156.346964,18.099751 Z M154.735119,14.1526343 C153.795934,14.1526343 153.135966,14.8316399 153.066162,15.8723587 L156.334273,15.8723587 C156.302544,14.8189482 155.680651,14.1526343 154.735119,14.1526343 Z M160.054469,11.8998586 C159.540455,11.8998586 159.115284,11.4873786 159.115284,10.9670192 C159.115284,10.4530056 159.540455,10.0341797 160.054469,10.0341797 C160.574828,10.0341797 161,10.4530056 161,10.9670192 C161,11.4873786 160.574828,11.8998586 160.054469,11.8998586 Z M159.27393,19.9971591 L159.27393,13.0611486 L160.841354,13.0611486 L160.841354,19.9971591 L159.27393,19.9971591 Z" id="Follow@ivanvorobei" fill="#000000" fill-rule="nonzero"></path>
            </g>
        </g>
    </g>
</svg>