<?xml version="1.0" encoding="UTF-8"?>
<svg width="152px" height="31px" viewBox="0 0 152 31" version="1.1" xmlns="http://www.w3.org/2000/svg" xmlns:xlink="http://www.w3.org/1999/xlink">
    <!-- Generator: Sketch 59.1 (86144) - https://sketch.com -->
    <title>follow-me-on-github</title>
    <desc>Created with Sketch.</desc>
    <defs>
        <linearGradient x1="50%" y1="0%" x2="50%" y2="100%" id="linearGradient-1">
            <stop stop-color="#F9FBFB" offset="0%"></stop>
            <stop stop-color="#EEF2F5" offset="100%"></stop>
        </linearGradient>
    </defs>
    <g id="Page-1" stroke="none" stroke-width="1" fill="none" fill-rule="evenodd">
        <g id="Artboard" transform="translate(-15.000000, -120.000000)">
            <g id="follow-me-on-github" transform="translate(15.000000, 120.000000)">
                <rect id="Rectangle" stroke="#C7C9CD" fill="url(#linearGradient-1)" x="0.5" y="0.5" width="151" height="30" rx="3"></rect>
                <path d="M15.4438477,20 L15.4438477,16.2612305 L19.2841797,16.2612305 L19.2841797,14.9282227 L15.4438477,14.9282227 L15.4438477,12.2241211 L19.6459961,12.2241211 L19.6459961,10.840332 L13.8061523,10.840332 L13.8061523,20 L15.4438477,20 Z M23.8855469,20.1333008 C25.859668,20.1333008 27.1418945,18.8193359 27.1418945,16.6357422 C27.1418945,14.4584961 25.8469727,13.1318359 23.8855469,13.1318359 C21.9241211,13.1318359 20.6291992,14.4648438 20.6291992,16.6357422 C20.6291992,18.8193359 21.9114258,20.1333008 23.8855469,20.1333008 Z M23.8855469,18.8828125 C22.8826172,18.8828125 22.2351562,18.0703125 22.2351562,16.6357422 C22.2351562,15.2075195 22.8889648,14.3886719 23.8855469,14.3886719 C24.8884766,14.3886719 25.5359375,15.2075195 25.5359375,16.6357422 C25.5359375,18.0703125 24.8884766,18.8828125 23.8855469,18.8828125 Z M28.6519531,20 L30.2325195,20 L30.2325195,10.840332 L28.6519531,10.840332 L28.6519531,20 Z M32.0726563,20 L33.6532227,20 L33.6532227,10.840332 L32.0726563,10.840332 L32.0726563,20 Z M38.4259766,20.1333008 C40.4000977,20.1333008 41.6823242,18.8193359 41.6823242,16.6357422 C41.6823242,14.4584961 40.3874023,13.1318359 38.4259766,13.1318359 C36.4645508,13.1318359 35.1696289,14.4648438 35.1696289,16.6357422 C35.1696289,18.8193359 36.4518555,20.1333008 38.4259766,20.1333008 Z M38.4259766,18.8828125 C37.4230469,18.8828125 36.7755859,18.0703125 36.7755859,16.6357422 C36.7755859,15.2075195 37.4293945,14.3886719 38.4259766,14.3886719 C39.4289062,14.3886719 40.0763672,15.2075195 40.0763672,16.6357422 C40.0763672,18.0703125 39.4289062,18.8828125 38.4259766,18.8828125 Z M52.237793,13.2714844 L50.6762695,13.2714844 L49.5400391,18.4384766 L49.5019531,18.4384766 L48.1879883,13.2714844 L46.6708984,13.2714844 L45.3569336,18.4384766 L45.3251953,18.4384766 L44.1889648,13.2714844 L42.6020508,13.2714844 L44.4238281,20 L46.0742188,20 L47.3945312,15.0805664 L47.4262695,15.0805664 L48.7529297,20 L50.4160156,20 L52.237793,13.2714844 Z M61.7515625,10.8339844 C58.6158203,10.8339844 56.4322266,12.9731445 56.4322266,16.1279297 C56.4322266,19.4604492 58.6856445,21.421875 61.8594727,21.421875 C62.5894531,21.421875 63.2813477,21.3266602 63.7955078,21.1616211 L63.7955078,20.222168 C63.4209961,20.3745117 62.665625,20.4760742 61.9229492,20.4760742 C59.3331055,20.4760742 57.4986328,18.9082031 57.4986328,16.1660156 C57.4986328,13.5761719 59.2378906,11.7670898 61.6944336,11.7670898 C64.1446289,11.7670898 65.7950195,13.2841797 65.7950195,15.5883789 C65.7950195,17.0483398 65.3189453,17.8925781 64.6460938,17.8925781 C64.2144531,17.8925781 63.9986328,17.6069336 63.9986328,17.1816406 L63.9986328,13.6650391 L62.8370117,13.6650391 L62.8370117,14.4267578 L62.7608398,14.4267578 C62.5132813,13.8745117 61.9229492,13.5317383 61.24375,13.5317383 C59.9615234,13.5317383 59.0791992,14.5917969 59.0791992,16.1342773 C59.0791992,17.746582 59.9615234,18.8256836 61.2818359,18.8256836 C62.0245117,18.8256836 62.5767578,18.4765625 62.8433594,17.8354492 L62.9195313,17.8354492 C63.0337891,18.4575195 63.6431641,18.8574219 64.4048828,18.8574219 C65.934668,18.8574219 66.8614258,17.5498047 66.8614258,15.5375977 C66.8614258,12.7192383 64.7413086,10.8339844 61.7515625,10.8339844 Z M61.5420898,14.5854492 C62.2847656,14.5854492 62.7544922,15.1948242 62.7544922,16.1723633 C62.7544922,17.1435547 62.278418,17.7529297 61.5293945,17.7529297 C60.8057617,17.7529297 60.3677734,17.15625 60.3677734,16.1723633 C60.3677734,15.1757812 60.7994141,14.5854492 61.5420898,14.5854492 Z M69.2474609,12.2558594 C69.7298828,12.2558594 70.1107422,11.8686523 70.1107422,11.3989258 C70.1107422,10.9228516 69.7298828,10.5419922 69.2474609,10.5419922 C68.7650391,10.5419922 68.377832,10.9228516 68.377832,11.3989258 C68.377832,11.8686523 68.7650391,12.2558594 69.2474609,12.2558594 Z M68.4603516,20 L70.040918,20 L70.040918,13.2714844 L68.4603516,13.2714844 L68.4603516,20 Z M77.7399414,13.2714844 L76.0895508,13.2714844 L74.5280273,18.5336914 L74.4962891,18.5336914 L72.9347656,13.2714844 L71.2462891,13.2714844 L73.6330078,20 L75.3722656,20 L77.7399414,13.2714844 Z M80.7480469,20.1079102 C81.6113281,20.1079102 82.4555664,19.6572266 82.8427734,18.9272461 L82.8745117,18.9272461 L82.8745117,20 L84.3979492,20 L84.3979492,15.3662109 C84.3979492,14.0141602 83.3125,13.1318359 81.6430664,13.1318359 C79.9291992,13.1318359 78.8564453,14.0332031 78.7866211,15.2900391 L80.2529297,15.2900391 C80.3544922,14.7314453 80.8305664,14.3696289 81.5795898,14.3696289 C82.3603516,14.3696289 82.8364258,14.7758789 82.8364258,15.4804688 L82.8364258,15.9628906 L81.059082,16.0644531 C79.4213867,16.1660156 78.5009766,16.8833008 78.5009766,18.0766602 C78.5009766,19.2890625 79.4467773,20.1079102 80.7480469,20.1079102 Z M81.2241211,18.9145508 C80.5385742,18.9145508 80.081543,18.5654297 80.081543,18.0131836 C80.081543,17.4799805 80.5195313,17.137207 81.28125,17.0864258 L82.8364258,16.9912109 L82.8364258,17.5053711 C82.8364258,18.3178711 82.1191406,18.9145508 81.2241211,18.9145508 Z M86.1174805,20 L87.6980469,20 L87.6980469,16.1025391 C87.6980469,15.1376953 88.2756836,14.4838867 89.1833984,14.4838867 C90.0847656,14.4838867 90.5291016,15.0170898 90.5291016,15.9692383 L90.5291016,20 L92.109668,20 L92.109668,15.6518555 C92.109668,14.0966797 91.2654297,13.1445312 89.7800781,13.1445312 C88.7454102,13.1445312 88.028125,13.6269531 87.6663086,14.4267578 L87.6345703,14.4267578 L87.6345703,13.2714844 L86.1174805,13.2714844 L86.1174805,20 Z M99.7261719,13.2714844 L98.0757813,13.2714844 L96.5142578,18.5336914 L96.4825195,18.5336914 L94.9209961,13.2714844 L93.2325195,13.2714844 L95.6192383,20 L97.3584961,20 L99.7261719,13.2714844 Z M103.686426,20.1333008 C105.660547,20.1333008 106.942773,18.8193359 106.942773,16.6357422 C106.942773,14.4584961 105.647852,13.1318359 103.686426,13.1318359 C101.725,13.1318359 100.430078,14.4648438 100.430078,16.6357422 C100.430078,18.8193359 101.712305,20.1333008 103.686426,20.1333008 Z M103.686426,18.8828125 C102.683496,18.8828125 102.036035,18.0703125 102.036035,16.6357422 C102.036035,15.2075195 102.689844,14.3886719 103.686426,14.3886719 C104.689355,14.3886719 105.336816,15.2075195 105.336816,16.6357422 C105.336816,18.0703125 104.689355,18.8828125 103.686426,18.8828125 Z M108.408398,20 L109.988965,20 L109.988965,16.0834961 C109.988965,15.1376953 110.528516,14.5600586 111.423535,14.5600586 C111.690137,14.5600586 111.931348,14.5981445 112.064648,14.6489258 L112.064648,13.2207031 L111.899508,13.1873906 C111.804141,13.1709375 111.691406,13.1572266 111.569531,13.1572266 C110.776074,13.1572266 110.185742,13.6269531 109.957227,14.4458008 L109.925488,14.4458008 L109.925488,13.2714844 L108.408398,13.2714844 L108.408398,20 Z M116.050293,20.1333008 C118.024414,20.1333008 119.306641,18.8193359 119.306641,16.6357422 C119.306641,14.4584961 118.011719,13.1318359 116.050293,13.1318359 C114.088867,13.1318359 112.793945,14.4648438 112.793945,16.6357422 C112.793945,18.8193359 114.076172,20.1333008 116.050293,20.1333008 Z M116.050293,18.8828125 C115.047363,18.8828125 114.399902,18.0703125 114.399902,16.6357422 C114.399902,15.2075195 115.053711,14.3886719 116.050293,14.3886719 C117.053223,14.3886719 117.700684,15.2075195 117.700684,16.6357422 C117.700684,18.0703125 117.053223,18.8828125 116.050293,18.8828125 Z M124.536426,20.1079102 C126.237598,20.1079102 127.310352,18.7875977 127.310352,16.6357422 C127.310352,14.4838867 126.23125,13.1572266 124.536426,13.1572266 C123.584277,13.1572266 122.816211,13.6396484 122.435352,14.4267578 L122.397266,14.4267578 L122.397266,10.840332 L120.816699,10.840332 L120.816699,20 L122.365527,20 L122.365527,18.8510742 L122.397266,18.8510742 C122.79082,19.6318359 123.546191,20.1079102 124.536426,20.1079102 Z M124.047656,14.4584961 C125.056934,14.4584961 125.691699,15.3027344 125.691699,16.6357422 C125.691699,17.9750977 125.063281,18.8129883 124.047656,18.8129883 C123.070117,18.8129883 122.390918,17.9560547 122.390918,16.6357422 C122.390918,15.328125 123.070117,14.4584961 124.047656,14.4584961 Z M133.238379,17.987793 C133.066992,18.5463867 132.508398,18.9145508 131.77207,18.9145508 C130.737402,18.9145508 130.077246,18.190918 130.077246,17.1118164 L130.077246,17.0166016 L134.780859,17.0166016 L134.780859,16.5024414 C134.780859,14.4584961 133.5875,13.1318359 131.676855,13.1318359 C129.734473,13.1318359 128.503027,14.534668 128.503027,16.6611328 C128.503027,18.8066406 129.721777,20.1333008 131.740332,20.1333008 C133.333594,20.1333008 134.514258,19.2573242 134.717383,17.987793 L133.238379,17.987793 Z M131.683203,14.3569336 C132.590918,14.3569336 133.200293,15.0234375 133.232031,15.9755859 L130.089941,15.9755859 C130.153418,15.0361328 130.794531,14.3569336 131.683203,14.3569336 Z M137.07168,12.2558594 C137.554102,12.2558594 137.934961,11.8686523 137.934961,11.3989258 C137.934961,10.9228516 137.554102,10.5419922 137.07168,10.5419922 C136.589258,10.5419922 136.202051,10.9228516 136.202051,11.3989258 C136.202051,11.8686523 136.589258,12.2558594 137.07168,12.2558594 Z M136.28457,20 L136.28457,13.2714844 L137.865137,13.2714844 L137.865137,20 L136.28457,20 Z" id="Follow@ivanvorobei" fill="#000000" fill-rule="nonzero"></path>
            </g>
        </g>
    </g>
</svg>