<?xml version="1.0" encoding="UTF-8"?>
<svg width="171px" height="29px" viewBox="0 0 171 29" version="1.1" xmlns="http://www.w3.org/2000/svg" xmlns:xlink="http://www.w3.org/1999/xlink">
    <!-- Generator: Sketch 59.1 (86144) - https://sketch.com -->
    <title>follow-me-on-github</title>
    <desc>Created with Sketch.</desc>
    <defs>
        <linearGradient x1="50%" y1="0%" x2="50%" y2="100%" id="linearGradient-1">
            <stop stop-color="#F9FBFB" offset="0%"></stop>
            <stop stop-color="#EEF2F5" offset="100%"></stop>
        </linearGradient>
    </defs>
    <g id="Page-1" stroke="none" stroke-width="1" fill="none" fill-rule="evenodd">
        <g id="Artboard" transform="translate(-15.000000, -123.000000)">
            <g id="follow-me-on-github" transform="translate(15.000000, 123.000000)">
                <rect id="Rectangle" stroke="#C7C9CD" fill="url(#linearGradient-1)" x="0.5" y="0.5" width="170" height="28" rx="3"></rect>
                <path d="M34.4438477,19 L34.4438477,15.2612305 L38.2841797,15.2612305 L38.2841797,13.9282227 L34.4438477,13.9282227 L34.4438477,11.2241211 L38.6459961,11.2241211 L38.6459961,9.84033203 L32.8061523,9.84033203 L32.8061523,19 L34.4438477,19 Z M42.8855469,19.1333008 C44.859668,19.1333008 46.1418945,17.8193359 46.1418945,15.6357422 C46.1418945,13.4584961 44.8469727,12.1318359 42.8855469,12.1318359 C40.9241211,12.1318359 39.6291992,13.4648438 39.6291992,15.6357422 C39.6291992,17.8193359 40.9114258,19.1333008 42.8855469,19.1333008 Z M42.8855469,17.8828125 C41.8826172,17.8828125 41.2351563,17.0703125 41.2351563,15.6357422 C41.2351563,14.2075195 41.8889648,13.3886719 42.8855469,13.3886719 C43.8884766,13.3886719 44.5359375,14.2075195 44.5359375,15.6357422 C44.5359375,17.0703125 43.8884766,17.8828125 42.8855469,17.8828125 Z M47.6519531,19 L49.2325195,19 L49.2325195,9.84033203 L47.6519531,9.84033203 L47.6519531,19 Z M51.0726563,19 L52.6532227,19 L52.6532227,9.84033203 L51.0726563,9.84033203 L51.0726563,19 Z M57.4259766,19.1333008 C59.4000977,19.1333008 60.6823242,17.8193359 60.6823242,15.6357422 C60.6823242,13.4584961 59.3874023,12.1318359 57.4259766,12.1318359 C55.4645508,12.1318359 54.1696289,13.4648438 54.1696289,15.6357422 C54.1696289,17.8193359 55.4518555,19.1333008 57.4259766,19.1333008 Z M57.4259766,17.8828125 C56.4230469,17.8828125 55.7755859,17.0703125 55.7755859,15.6357422 C55.7755859,14.2075195 56.4293945,13.3886719 57.4259766,13.3886719 C58.4289062,13.3886719 59.0763672,14.2075195 59.0763672,15.6357422 C59.0763672,17.0703125 58.4289062,17.8828125 57.4259766,17.8828125 Z M71.237793,12.2714844 L69.6762695,12.2714844 L68.5400391,17.4384766 L68.5019531,17.4384766 L67.1879883,12.2714844 L65.6708984,12.2714844 L64.3569336,17.4384766 L64.3251953,17.4384766 L63.1889648,12.2714844 L61.6020508,12.2714844 L63.4238281,19 L65.0742188,19 L66.3945312,14.0805664 L66.4262695,14.0805664 L67.7529297,19 L69.4160156,19 L71.237793,12.2714844 Z M80.7515625,9.83398438 C77.6158203,9.83398438 75.4322266,11.9731445 75.4322266,15.1279297 C75.4322266,18.4604492 77.6856445,20.421875 80.8594727,20.421875 C81.5894531,20.421875 82.2813477,20.3266602 82.7955078,20.1616211 L82.7955078,19.222168 C82.4209961,19.3745117 81.665625,19.4760742 80.9229492,19.4760742 C78.3331055,19.4760742 76.4986328,17.9082031 76.4986328,15.1660156 C76.4986328,12.5761719 78.2378906,10.7670898 80.6944336,10.7670898 C83.1446289,10.7670898 84.7950195,12.2841797 84.7950195,14.5883789 C84.7950195,16.0483398 84.3189453,16.8925781 83.6460938,16.8925781 C83.2144531,16.8925781 82.9986328,16.6069336 82.9986328,16.1816406 L82.9986328,12.6650391 L81.8370117,12.6650391 L81.8370117,13.4267578 L81.7608398,13.4267578 C81.5132813,12.8745117 80.9229492,12.5317383 80.24375,12.5317383 C78.9615234,12.5317383 78.0791992,13.5917969 78.0791992,15.1342773 C78.0791992,16.746582 78.9615234,17.8256836 80.2818359,17.8256836 C81.0245117,17.8256836 81.5767578,17.4765625 81.8433594,16.8354492 L81.9195313,16.8354492 C82.0337891,17.4575195 82.6431641,17.8574219 83.4048828,17.8574219 C84.934668,17.8574219 85.8614258,16.5498047 85.8614258,14.5375977 C85.8614258,11.7192383 83.7413086,9.83398438 80.7515625,9.83398438 Z M80.5420898,13.5854492 C81.2847656,13.5854492 81.7544922,14.1948242 81.7544922,15.1723633 C81.7544922,16.1435547 81.278418,16.7529297 80.5293945,16.7529297 C79.8057617,16.7529297 79.3677734,16.15625 79.3677734,15.1723633 C79.3677734,14.1757812 79.7994141,13.5854492 80.5420898,13.5854492 Z M88.2474609,11.2558594 C88.7298828,11.2558594 89.1107422,10.8686523 89.1107422,10.3989258 C89.1107422,9.92285156 88.7298828,9.54199219 88.2474609,9.54199219 C87.7650391,9.54199219 87.377832,9.92285156 87.377832,10.3989258 C87.377832,10.8686523 87.7650391,11.2558594 88.2474609,11.2558594 Z M87.4603516,19 L89.040918,19 L89.040918,12.2714844 L87.4603516,12.2714844 L87.4603516,19 Z M96.7399414,12.2714844 L95.0895508,12.2714844 L93.5280273,17.5336914 L93.4962891,17.5336914 L91.9347656,12.2714844 L90.2462891,12.2714844 L92.6330078,19 L94.3722656,19 L96.7399414,12.2714844 Z M99.7480469,19.1079102 C100.611328,19.1079102 101.455566,18.6572266 101.842773,17.9272461 L101.874512,17.9272461 L101.874512,19 L103.397949,19 L103.397949,14.3662109 C103.397949,13.0141602 102.3125,12.1318359 100.643066,12.1318359 C98.9291992,12.1318359 97.8564453,13.0332031 97.7866211,14.2900391 L99.2529297,14.2900391 C99.3544922,13.7314453 99.8305664,13.3696289 100.57959,13.3696289 C101.360352,13.3696289 101.836426,13.7758789 101.836426,14.4804688 L101.836426,14.9628906 L100.059082,15.0644531 C98.4213867,15.1660156 97.5009766,15.8833008 97.5009766,17.0766602 C97.5009766,18.2890625 98.4467773,19.1079102 99.7480469,19.1079102 Z M100.224121,17.9145508 C99.5385742,17.9145508 99.081543,17.5654297 99.081543,17.0131836 C99.081543,16.4799805 99.5195313,16.137207 100.28125,16.0864258 L101.836426,15.9912109 L101.836426,16.5053711 C101.836426,17.3178711 101.119141,17.9145508 100.224121,17.9145508 Z M105.11748,19 L106.698047,19 L106.698047,15.1025391 C106.698047,14.1376953 107.275684,13.4838867 108.183398,13.4838867 C109.084766,13.4838867 109.529102,14.0170898 109.529102,14.9692383 L109.529102,19 L111.109668,19 L111.109668,14.6518555 C111.109668,13.0966797 110.26543,12.1445312 108.780078,12.1445312 C107.74541,12.1445312 107.028125,12.6269531 106.666309,13.4267578 L106.63457,13.4267578 L106.63457,12.2714844 L105.11748,12.2714844 L105.11748,19 Z M118.726172,12.2714844 L117.075781,12.2714844 L115.514258,17.5336914 L115.48252,17.5336914 L113.920996,12.2714844 L112.23252,12.2714844 L114.619238,19 L116.358496,19 L118.726172,12.2714844 Z M122.686426,19.1333008 C124.660547,19.1333008 125.942773,17.8193359 125.942773,15.6357422 C125.942773,13.4584961 124.647852,12.1318359 122.686426,12.1318359 C120.725,12.1318359 119.430078,13.4648438 119.430078,15.6357422 C119.430078,17.8193359 120.712305,19.1333008 122.686426,19.1333008 Z M122.686426,17.8828125 C121.683496,17.8828125 121.036035,17.0703125 121.036035,15.6357422 C121.036035,14.2075195 121.689844,13.3886719 122.686426,13.3886719 C123.689355,13.3886719 124.336816,14.2075195 124.336816,15.6357422 C124.336816,17.0703125 123.689355,17.8828125 122.686426,17.8828125 Z M127.408398,19 L128.988965,19 L128.988965,15.0834961 C128.988965,14.1376953 129.528516,13.5600586 130.423535,13.5600586 C130.690137,13.5600586 130.931348,13.5981445 131.064648,13.6489258 L131.064648,12.2207031 L130.899508,12.1873906 C130.804141,12.1709375 130.691406,12.1572266 130.569531,12.1572266 C129.776074,12.1572266 129.185742,12.6269531 128.957227,13.4458008 L128.925488,13.4458008 L128.925488,12.2714844 L127.408398,12.2714844 L127.408398,19 Z M135.050293,19.1333008 C137.024414,19.1333008 138.306641,17.8193359 138.306641,15.6357422 C138.306641,13.4584961 137.011719,12.1318359 135.050293,12.1318359 C133.088867,12.1318359 131.793945,13.4648438 131.793945,15.6357422 C131.793945,17.8193359 133.076172,19.1333008 135.050293,19.1333008 Z M135.050293,17.8828125 C134.047363,17.8828125 133.399902,17.0703125 133.399902,15.6357422 C133.399902,14.2075195 134.053711,13.3886719 135.050293,13.3886719 C136.053223,13.3886719 136.700684,14.2075195 136.700684,15.6357422 C136.700684,17.0703125 136.053223,17.8828125 135.050293,17.8828125 Z M143.536426,19.1079102 C145.237598,19.1079102 146.310352,17.7875977 146.310352,15.6357422 C146.310352,13.4838867 145.23125,12.1572266 143.536426,12.1572266 C142.584277,12.1572266 141.816211,12.6396484 141.435352,13.4267578 L141.397266,13.4267578 L141.397266,9.84033203 L139.816699,9.84033203 L139.816699,19 L141.365527,19 L141.365527,17.8510742 L141.397266,17.8510742 C141.79082,18.6318359 142.546191,19.1079102 143.536426,19.1079102 Z M143.047656,13.4584961 C144.056934,13.4584961 144.691699,14.3027344 144.691699,15.6357422 C144.691699,16.9750977 144.063281,17.8129883 143.047656,17.8129883 C142.070117,17.8129883 141.390918,16.9560547 141.390918,15.6357422 C141.390918,14.328125 142.070117,13.4584961 143.047656,13.4584961 Z M152.238379,16.987793 C152.066992,17.5463867 151.508398,17.9145508 150.77207,17.9145508 C149.737402,17.9145508 149.077246,17.190918 149.077246,16.1118164 L149.077246,16.0166016 L153.780859,16.0166016 L153.780859,15.5024414 C153.780859,13.4584961 152.5875,12.1318359 150.676855,12.1318359 C148.734473,12.1318359 147.503027,13.534668 147.503027,15.6611328 C147.503027,17.8066406 148.721777,19.1333008 150.740332,19.1333008 C152.333594,19.1333008 153.514258,18.2573242 153.717383,16.987793 L152.238379,16.987793 Z M150.683203,13.3569336 C151.590918,13.3569336 152.200293,14.0234375 152.232031,14.9755859 L149.089941,14.9755859 C149.153418,14.0361328 149.794531,13.3569336 150.683203,13.3569336 Z M156.07168,11.2558594 C156.554102,11.2558594 156.934961,10.8686523 156.934961,10.3989258 C156.934961,9.92285156 156.554102,9.54199219 156.07168,9.54199219 C155.589258,9.54199219 155.202051,9.92285156 155.202051,10.3989258 C155.202051,10.8686523 155.589258,11.2558594 156.07168,11.2558594 Z M155.28457,19 L155.28457,12.2714844 L156.865137,12.2714844 L156.865137,19 L155.28457,19 Z" id="Follow@ivanvorobei" fill="#000000" fill-rule="nonzero"></path>
                <path d="M18.7832031,20.7304688 C18.2910156,20.7304688 17.8808594,20.3066406 17.8808594,19.8417969 L17.8808594,15.7744141 L13.8955078,15.7744141 C13.4306641,15.7744141 13,15.3642578 13,14.8652344 C13,14.3730469 13.4306641,13.9560547 13.8955078,13.9560547 L17.8808594,13.9560547 L17.8808594,9.88867188 C17.8808594,9.41015625 18.2910156,9 18.7832031,9 C19.2822266,9 19.6923828,9.41015625 19.6923828,9.88867188 L19.6923828,13.9560547 L23.6777344,13.9560547 C24.15625,13.9560547 24.5732422,14.3730469 24.5732422,14.8652344 C24.5732422,15.3642578 24.15625,15.7744141 23.6777344,15.7744141 L19.6923828,15.7744141 L19.6923828,19.8417969 C19.6923828,20.3066406 19.2822266,20.7304688 18.7832031,20.7304688 Z" id="plus" fill="#000000" fill-rule="nonzero"></path>
            </g>
        </g>
    </g>
</svg>