<?xml version="1.0" encoding="UTF-8"?>
<svg width="172px" height="31px" viewBox="0 0 172 31" version="1.1" xmlns="http://www.w3.org/2000/svg" xmlns:xlink="http://www.w3.org/1999/xlink">
    <!-- Generator: Sketch 59.1 (86144) - https://sketch.com -->
    <title>follow-me-on-github</title>
    <desc>Created with Sketch.</desc>
    <defs>
        <linearGradient x1="50%" y1="0%" x2="50%" y2="100%" id="linearGradient-1">
            <stop stop-color="#F9FBFB" offset="0%"></stop>
            <stop stop-color="#EEF2F5" offset="100%"></stop>
        </linearGradient>
    </defs>
    <g id="Page-1" stroke="none" stroke-width="1" fill="none" fill-rule="evenodd">
        <g id="Artboard" transform="translate(-15.000000, -113.000000)">
            <g id="follow-me-on-github" transform="translate(15.000000, 113.000000)">
                <rect id="Rectangle" stroke="#C7C9CD" fill="url(#linearGradient-1)" x="0.5" y="0.5" width="171" height="30" rx="3"></rect>
                <path d="M35.4438477,20 L35.4438477,16.2612305 L39.2841797,16.2612305 L39.2841797,14.9282227 L35.4438477,14.9282227 L35.4438477,12.2241211 L39.6459961,12.2241211 L39.6459961,10.840332 L33.8061523,10.840332 L33.8061523,20 L35.4438477,20 Z M43.8855469,20.1333008 C45.859668,20.1333008 47.1418945,18.8193359 47.1418945,16.6357422 C47.1418945,14.4584961 45.8469727,13.1318359 43.8855469,13.1318359 C41.9241211,13.1318359 40.6291992,14.4648438 40.6291992,16.6357422 C40.6291992,18.8193359 41.9114258,20.1333008 43.8855469,20.1333008 Z M43.8855469,18.8828125 C42.8826172,18.8828125 42.2351563,18.0703125 42.2351563,16.6357422 C42.2351563,15.2075195 42.8889648,14.3886719 43.8855469,14.3886719 C44.8884766,14.3886719 45.5359375,15.2075195 45.5359375,16.6357422 C45.5359375,18.0703125 44.8884766,18.8828125 43.8855469,18.8828125 Z M48.6519531,20 L50.2325195,20 L50.2325195,10.840332 L48.6519531,10.840332 L48.6519531,20 Z M52.0726563,20 L53.6532227,20 L53.6532227,10.840332 L52.0726563,10.840332 L52.0726563,20 Z M58.4259766,20.1333008 C60.4000977,20.1333008 61.6823242,18.8193359 61.6823242,16.6357422 C61.6823242,14.4584961 60.3874023,13.1318359 58.4259766,13.1318359 C56.4645508,13.1318359 55.1696289,14.4648438 55.1696289,16.6357422 C55.1696289,18.8193359 56.4518555,20.1333008 58.4259766,20.1333008 Z M58.4259766,18.8828125 C57.4230469,18.8828125 56.7755859,18.0703125 56.7755859,16.6357422 C56.7755859,15.2075195 57.4293945,14.3886719 58.4259766,14.3886719 C59.4289062,14.3886719 60.0763672,15.2075195 60.0763672,16.6357422 C60.0763672,18.0703125 59.4289062,18.8828125 58.4259766,18.8828125 Z M72.237793,13.2714844 L70.6762695,13.2714844 L69.5400391,18.4384766 L69.5019531,18.4384766 L68.1879883,13.2714844 L66.6708984,13.2714844 L65.3569336,18.4384766 L65.3251953,18.4384766 L64.1889648,13.2714844 L62.6020508,13.2714844 L64.4238281,20 L66.0742188,20 L67.3945312,15.0805664 L67.4262695,15.0805664 L68.7529297,20 L70.4160156,20 L72.237793,13.2714844 Z M81.7515625,10.8339844 C78.6158203,10.8339844 76.4322266,12.9731445 76.4322266,16.1279297 C76.4322266,19.4604492 78.6856445,21.421875 81.8594727,21.421875 C82.5894531,21.421875 83.2813477,21.3266602 83.7955078,21.1616211 L83.7955078,20.222168 C83.4209961,20.3745117 82.665625,20.4760742 81.9229492,20.4760742 C79.3331055,20.4760742 77.4986328,18.9082031 77.4986328,16.1660156 C77.4986328,13.5761719 79.2378906,11.7670898 81.6944336,11.7670898 C84.1446289,11.7670898 85.7950195,13.2841797 85.7950195,15.5883789 C85.7950195,17.0483398 85.3189453,17.8925781 84.6460938,17.8925781 C84.2144531,17.8925781 83.9986328,17.6069336 83.9986328,17.1816406 L83.9986328,13.6650391 L82.8370117,13.6650391 L82.8370117,14.4267578 L82.7608398,14.4267578 C82.5132813,13.8745117 81.9229492,13.5317383 81.24375,13.5317383 C79.9615234,13.5317383 79.0791992,14.5917969 79.0791992,16.1342773 C79.0791992,17.746582 79.9615234,18.8256836 81.2818359,18.8256836 C82.0245117,18.8256836 82.5767578,18.4765625 82.8433594,17.8354492 L82.9195313,17.8354492 C83.0337891,18.4575195 83.6431641,18.8574219 84.4048828,18.8574219 C85.934668,18.8574219 86.8614258,17.5498047 86.8614258,15.5375977 C86.8614258,12.7192383 84.7413086,10.8339844 81.7515625,10.8339844 Z M81.5420898,14.5854492 C82.2847656,14.5854492 82.7544922,15.1948242 82.7544922,16.1723633 C82.7544922,17.1435547 82.278418,17.7529297 81.5293945,17.7529297 C80.8057617,17.7529297 80.3677734,17.15625 80.3677734,16.1723633 C80.3677734,15.1757812 80.7994141,14.5854492 81.5420898,14.5854492 Z M89.2474609,12.2558594 C89.7298828,12.2558594 90.1107422,11.8686523 90.1107422,11.3989258 C90.1107422,10.9228516 89.7298828,10.5419922 89.2474609,10.5419922 C88.7650391,10.5419922 88.377832,10.9228516 88.377832,11.3989258 C88.377832,11.8686523 88.7650391,12.2558594 89.2474609,12.2558594 Z M88.4603516,20 L90.040918,20 L90.040918,13.2714844 L88.4603516,13.2714844 L88.4603516,20 Z M97.7399414,13.2714844 L96.0895508,13.2714844 L94.5280273,18.5336914 L94.4962891,18.5336914 L92.9347656,13.2714844 L91.2462891,13.2714844 L93.6330078,20 L95.3722656,20 L97.7399414,13.2714844 Z M100.748047,20.1079102 C101.611328,20.1079102 102.455566,19.6572266 102.842773,18.9272461 L102.874512,18.9272461 L102.874512,20 L104.397949,20 L104.397949,15.3662109 C104.397949,14.0141602 103.3125,13.1318359 101.643066,13.1318359 C99.9291992,13.1318359 98.8564453,14.0332031 98.7866211,15.2900391 L100.25293,15.2900391 C100.354492,14.7314453 100.830566,14.3696289 101.57959,14.3696289 C102.360352,14.3696289 102.836426,14.7758789 102.836426,15.4804688 L102.836426,15.9628906 L101.059082,16.0644531 C99.4213867,16.1660156 98.5009766,16.8833008 98.5009766,18.0766602 C98.5009766,19.2890625 99.4467773,20.1079102 100.748047,20.1079102 Z M101.224121,18.9145508 C100.538574,18.9145508 100.081543,18.5654297 100.081543,18.0131836 C100.081543,17.4799805 100.519531,17.137207 101.28125,17.0864258 L102.836426,16.9912109 L102.836426,17.5053711 C102.836426,18.3178711 102.119141,18.9145508 101.224121,18.9145508 Z M106.11748,20 L107.698047,20 L107.698047,16.1025391 C107.698047,15.1376953 108.275684,14.4838867 109.183398,14.4838867 C110.084766,14.4838867 110.529102,15.0170898 110.529102,15.9692383 L110.529102,20 L112.109668,20 L112.109668,15.6518555 C112.109668,14.0966797 111.26543,13.1445312 109.780078,13.1445312 C108.74541,13.1445312 108.028125,13.6269531 107.666309,14.4267578 L107.63457,14.4267578 L107.63457,13.2714844 L106.11748,13.2714844 L106.11748,20 Z M119.726172,13.2714844 L118.075781,13.2714844 L116.514258,18.5336914 L116.48252,18.5336914 L114.920996,13.2714844 L113.23252,13.2714844 L115.619238,20 L117.358496,20 L119.726172,13.2714844 Z M123.686426,20.1333008 C125.660547,20.1333008 126.942773,18.8193359 126.942773,16.6357422 C126.942773,14.4584961 125.647852,13.1318359 123.686426,13.1318359 C121.725,13.1318359 120.430078,14.4648438 120.430078,16.6357422 C120.430078,18.8193359 121.712305,20.1333008 123.686426,20.1333008 Z M123.686426,18.8828125 C122.683496,18.8828125 122.036035,18.0703125 122.036035,16.6357422 C122.036035,15.2075195 122.689844,14.3886719 123.686426,14.3886719 C124.689355,14.3886719 125.336816,15.2075195 125.336816,16.6357422 C125.336816,18.0703125 124.689355,18.8828125 123.686426,18.8828125 Z M128.408398,20 L129.988965,20 L129.988965,16.0834961 C129.988965,15.1376953 130.528516,14.5600586 131.423535,14.5600586 C131.690137,14.5600586 131.931348,14.5981445 132.064648,14.6489258 L132.064648,13.2207031 L131.899508,13.1873906 C131.804141,13.1709375 131.691406,13.1572266 131.569531,13.1572266 C130.776074,13.1572266 130.185742,13.6269531 129.957227,14.4458008 L129.925488,14.4458008 L129.925488,13.2714844 L128.408398,13.2714844 L128.408398,20 Z M136.050293,20.1333008 C138.024414,20.1333008 139.306641,18.8193359 139.306641,16.6357422 C139.306641,14.4584961 138.011719,13.1318359 136.050293,13.1318359 C134.088867,13.1318359 132.793945,14.4648438 132.793945,16.6357422 C132.793945,18.8193359 134.076172,20.1333008 136.050293,20.1333008 Z M136.050293,18.8828125 C135.047363,18.8828125 134.399902,18.0703125 134.399902,16.6357422 C134.399902,15.2075195 135.053711,14.3886719 136.050293,14.3886719 C137.053223,14.3886719 137.700684,15.2075195 137.700684,16.6357422 C137.700684,18.0703125 137.053223,18.8828125 136.050293,18.8828125 Z M144.536426,20.1079102 C146.237598,20.1079102 147.310352,18.7875977 147.310352,16.6357422 C147.310352,14.4838867 146.23125,13.1572266 144.536426,13.1572266 C143.584277,13.1572266 142.816211,13.6396484 142.435352,14.4267578 L142.397266,14.4267578 L142.397266,10.840332 L140.816699,10.840332 L140.816699,20 L142.365527,20 L142.365527,18.8510742 L142.397266,18.8510742 C142.79082,19.6318359 143.546191,20.1079102 144.536426,20.1079102 Z M144.047656,14.4584961 C145.056934,14.4584961 145.691699,15.3027344 145.691699,16.6357422 C145.691699,17.9750977 145.063281,18.8129883 144.047656,18.8129883 C143.070117,18.8129883 142.390918,17.9560547 142.390918,16.6357422 C142.390918,15.328125 143.070117,14.4584961 144.047656,14.4584961 Z M153.238379,17.987793 C153.066992,18.5463867 152.508398,18.9145508 151.77207,18.9145508 C150.737402,18.9145508 150.077246,18.190918 150.077246,17.1118164 L150.077246,17.0166016 L154.780859,17.0166016 L154.780859,16.5024414 C154.780859,14.4584961 153.5875,13.1318359 151.676855,13.1318359 C149.734473,13.1318359 148.503027,14.534668 148.503027,16.6611328 C148.503027,18.8066406 149.721777,20.1333008 151.740332,20.1333008 C153.333594,20.1333008 154.514258,19.2573242 154.717383,17.987793 L153.238379,17.987793 Z M151.683203,14.3569336 C152.590918,14.3569336 153.200293,15.0234375 153.232031,15.9755859 L150.089941,15.9755859 C150.153418,15.0361328 150.794531,14.3569336 151.683203,14.3569336 Z M157.07168,12.2558594 C157.554102,12.2558594 157.934961,11.8686523 157.934961,11.3989258 C157.934961,10.9228516 157.554102,10.5419922 157.07168,10.5419922 C156.589258,10.5419922 156.202051,10.9228516 156.202051,11.3989258 C156.202051,11.8686523 156.589258,12.2558594 157.07168,12.2558594 Z M156.28457,20 L156.28457,13.2714844 L157.865137,13.2714844 L157.865137,20 L156.28457,20 Z" id="Follow@ivanvorobei" fill="#000000" fill-rule="nonzero"></path>
                <path d="M18.7832031,21.7304688 C18.2910156,21.7304688 17.8808594,21.3066406 17.8808594,20.8417969 L17.8808594,16.7744141 L13.8955078,16.7744141 C13.4306641,16.7744141 13,16.3642578 13,15.8652344 C13,15.3730469 13.4306641,14.9560547 13.8955078,14.9560547 L17.8808594,14.9560547 L17.8808594,10.8886719 C17.8808594,10.4101562 18.2910156,10 18.7832031,10 C19.2822266,10 19.6923828,10.4101562 19.6923828,10.8886719 L19.6923828,14.9560547 L23.6777344,14.9560547 C24.15625,14.9560547 24.5732422,15.3730469 24.5732422,15.8652344 C24.5732422,16.3642578 24.15625,16.7744141 23.6777344,16.7744141 L19.6923828,16.7744141 L19.6923828,20.8417969 C19.6923828,21.3066406 19.2822266,21.7304688 18.7832031,21.7304688 Z" id="plus" fill="#000000" fill-rule="nonzero"></path>
            </g>
        </g>
    </g>
</svg>