<?xml version="1.0" encoding="UTF-8"?>
<svg width="176px" height="31px" viewBox="0 0 176 31" version="1.1" xmlns="http://www.w3.org/2000/svg" xmlns:xlink="http://www.w3.org/1999/xlink">
    <!-- Generator: Sketch 59.1 (86144) - https://sketch.com -->
    <title>follow-me-on-github</title>
    <desc>Created with Sketch.</desc>
    <defs>
        <linearGradient x1="50%" y1="0%" x2="50%" y2="100%" id="linearGradient-1">
            <stop stop-color="#F9FBFB" offset="0%"></stop>
            <stop stop-color="#EEF2F5" offset="100%"></stop>
        </linearGradient>
    </defs>
    <g id="Page-1" stroke="none" stroke-width="1" fill="none" fill-rule="evenodd">
        <g id="Artboard" transform="translate(-15.000000, -109.000000)">
            <g id="follow-me-on-github" transform="translate(15.000000, 109.000000)">
                <rect id="Rectangle" stroke="#C7C9CD" fill="url(#linearGradient-1)" x="0.5" y="0.5" width="175" height="30" rx="3"></rect>
                <path d="M39.4438477,20 L39.4438477,16.2612305 L43.2841797,16.2612305 L43.2841797,14.9282227 L39.4438477,14.9282227 L39.4438477,12.2241211 L43.6459961,12.2241211 L43.6459961,10.840332 L37.8061523,10.840332 L37.8061523,20 L39.4438477,20 Z M47.8855469,20.1333008 C49.859668,20.1333008 51.1418945,18.8193359 51.1418945,16.6357422 C51.1418945,14.4584961 49.8469727,13.1318359 47.8855469,13.1318359 C45.9241211,13.1318359 44.6291992,14.4648438 44.6291992,16.6357422 C44.6291992,18.8193359 45.9114258,20.1333008 47.8855469,20.1333008 Z M47.8855469,18.8828125 C46.8826172,18.8828125 46.2351563,18.0703125 46.2351563,16.6357422 C46.2351563,15.2075195 46.8889648,14.3886719 47.8855469,14.3886719 C48.8884766,14.3886719 49.5359375,15.2075195 49.5359375,16.6357422 C49.5359375,18.0703125 48.8884766,18.8828125 47.8855469,18.8828125 Z M52.6519531,20 L54.2325195,20 L54.2325195,10.840332 L52.6519531,10.840332 L52.6519531,20 Z M56.0726563,20 L57.6532227,20 L57.6532227,10.840332 L56.0726563,10.840332 L56.0726563,20 Z M62.4259766,20.1333008 C64.4000977,20.1333008 65.6823242,18.8193359 65.6823242,16.6357422 C65.6823242,14.4584961 64.3874023,13.1318359 62.4259766,13.1318359 C60.4645508,13.1318359 59.1696289,14.4648438 59.1696289,16.6357422 C59.1696289,18.8193359 60.4518555,20.1333008 62.4259766,20.1333008 Z M62.4259766,18.8828125 C61.4230469,18.8828125 60.7755859,18.0703125 60.7755859,16.6357422 C60.7755859,15.2075195 61.4293945,14.3886719 62.4259766,14.3886719 C63.4289062,14.3886719 64.0763672,15.2075195 64.0763672,16.6357422 C64.0763672,18.0703125 63.4289062,18.8828125 62.4259766,18.8828125 Z M76.237793,13.2714844 L74.6762695,13.2714844 L73.5400391,18.4384766 L73.5019531,18.4384766 L72.1879883,13.2714844 L70.6708984,13.2714844 L69.3569336,18.4384766 L69.3251953,18.4384766 L68.1889648,13.2714844 L66.6020508,13.2714844 L68.4238281,20 L70.0742188,20 L71.3945312,15.0805664 L71.4262695,15.0805664 L72.7529297,20 L74.4160156,20 L76.237793,13.2714844 Z M85.7515625,10.8339844 C82.6158203,10.8339844 80.4322266,12.9731445 80.4322266,16.1279297 C80.4322266,19.4604492 82.6856445,21.421875 85.8594727,21.421875 C86.5894531,21.421875 87.2813477,21.3266602 87.7955078,21.1616211 L87.7955078,20.222168 C87.4209961,20.3745117 86.665625,20.4760742 85.9229492,20.4760742 C83.3331055,20.4760742 81.4986328,18.9082031 81.4986328,16.1660156 C81.4986328,13.5761719 83.2378906,11.7670898 85.6944336,11.7670898 C88.1446289,11.7670898 89.7950195,13.2841797 89.7950195,15.5883789 C89.7950195,17.0483398 89.3189453,17.8925781 88.6460938,17.8925781 C88.2144531,17.8925781 87.9986328,17.6069336 87.9986328,17.1816406 L87.9986328,13.6650391 L86.8370117,13.6650391 L86.8370117,14.4267578 L86.7608398,14.4267578 C86.5132813,13.8745117 85.9229492,13.5317383 85.24375,13.5317383 C83.9615234,13.5317383 83.0791992,14.5917969 83.0791992,16.1342773 C83.0791992,17.746582 83.9615234,18.8256836 85.2818359,18.8256836 C86.0245117,18.8256836 86.5767578,18.4765625 86.8433594,17.8354492 L86.9195313,17.8354492 C87.0337891,18.4575195 87.6431641,18.8574219 88.4048828,18.8574219 C89.934668,18.8574219 90.8614258,17.5498047 90.8614258,15.5375977 C90.8614258,12.7192383 88.7413086,10.8339844 85.7515625,10.8339844 Z M85.5420898,14.5854492 C86.2847656,14.5854492 86.7544922,15.1948242 86.7544922,16.1723633 C86.7544922,17.1435547 86.278418,17.7529297 85.5293945,17.7529297 C84.8057617,17.7529297 84.3677734,17.15625 84.3677734,16.1723633 C84.3677734,15.1757812 84.7994141,14.5854492 85.5420898,14.5854492 Z M93.2474609,12.2558594 C93.7298828,12.2558594 94.1107422,11.8686523 94.1107422,11.3989258 C94.1107422,10.9228516 93.7298828,10.5419922 93.2474609,10.5419922 C92.7650391,10.5419922 92.377832,10.9228516 92.377832,11.3989258 C92.377832,11.8686523 92.7650391,12.2558594 93.2474609,12.2558594 Z M92.4603516,20 L94.040918,20 L94.040918,13.2714844 L92.4603516,13.2714844 L92.4603516,20 Z M101.739941,13.2714844 L100.089551,13.2714844 L98.5280273,18.5336914 L98.4962891,18.5336914 L96.9347656,13.2714844 L95.2462891,13.2714844 L97.6330078,20 L99.3722656,20 L101.739941,13.2714844 Z M104.748047,20.1079102 C105.611328,20.1079102 106.455566,19.6572266 106.842773,18.9272461 L106.874512,18.9272461 L106.874512,20 L108.397949,20 L108.397949,15.3662109 C108.397949,14.0141602 107.3125,13.1318359 105.643066,13.1318359 C103.929199,13.1318359 102.856445,14.0332031 102.786621,15.2900391 L104.25293,15.2900391 C104.354492,14.7314453 104.830566,14.3696289 105.57959,14.3696289 C106.360352,14.3696289 106.836426,14.7758789 106.836426,15.4804688 L106.836426,15.9628906 L105.059082,16.0644531 C103.421387,16.1660156 102.500977,16.8833008 102.500977,18.0766602 C102.500977,19.2890625 103.446777,20.1079102 104.748047,20.1079102 Z M105.224121,18.9145508 C104.538574,18.9145508 104.081543,18.5654297 104.081543,18.0131836 C104.081543,17.4799805 104.519531,17.137207 105.28125,17.0864258 L106.836426,16.9912109 L106.836426,17.5053711 C106.836426,18.3178711 106.119141,18.9145508 105.224121,18.9145508 Z M110.11748,20 L111.698047,20 L111.698047,16.1025391 C111.698047,15.1376953 112.275684,14.4838867 113.183398,14.4838867 C114.084766,14.4838867 114.529102,15.0170898 114.529102,15.9692383 L114.529102,20 L116.109668,20 L116.109668,15.6518555 C116.109668,14.0966797 115.26543,13.1445312 113.780078,13.1445312 C112.74541,13.1445312 112.028125,13.6269531 111.666309,14.4267578 L111.63457,14.4267578 L111.63457,13.2714844 L110.11748,13.2714844 L110.11748,20 Z M123.726172,13.2714844 L122.075781,13.2714844 L120.514258,18.5336914 L120.48252,18.5336914 L118.920996,13.2714844 L117.23252,13.2714844 L119.619238,20 L121.358496,20 L123.726172,13.2714844 Z M127.686426,20.1333008 C129.660547,20.1333008 130.942773,18.8193359 130.942773,16.6357422 C130.942773,14.4584961 129.647852,13.1318359 127.686426,13.1318359 C125.725,13.1318359 124.430078,14.4648438 124.430078,16.6357422 C124.430078,18.8193359 125.712305,20.1333008 127.686426,20.1333008 Z M127.686426,18.8828125 C126.683496,18.8828125 126.036035,18.0703125 126.036035,16.6357422 C126.036035,15.2075195 126.689844,14.3886719 127.686426,14.3886719 C128.689355,14.3886719 129.336816,15.2075195 129.336816,16.6357422 C129.336816,18.0703125 128.689355,18.8828125 127.686426,18.8828125 Z M132.408398,20 L133.988965,20 L133.988965,16.0834961 C133.988965,15.1376953 134.528516,14.5600586 135.423535,14.5600586 C135.690137,14.5600586 135.931348,14.5981445 136.064648,14.6489258 L136.064648,13.2207031 L135.899508,13.1873906 C135.804141,13.1709375 135.691406,13.1572266 135.569531,13.1572266 C134.776074,13.1572266 134.185742,13.6269531 133.957227,14.4458008 L133.925488,14.4458008 L133.925488,13.2714844 L132.408398,13.2714844 L132.408398,20 Z M140.050293,20.1333008 C142.024414,20.1333008 143.306641,18.8193359 143.306641,16.6357422 C143.306641,14.4584961 142.011719,13.1318359 140.050293,13.1318359 C138.088867,13.1318359 136.793945,14.4648438 136.793945,16.6357422 C136.793945,18.8193359 138.076172,20.1333008 140.050293,20.1333008 Z M140.050293,18.8828125 C139.047363,18.8828125 138.399902,18.0703125 138.399902,16.6357422 C138.399902,15.2075195 139.053711,14.3886719 140.050293,14.3886719 C141.053223,14.3886719 141.700684,15.2075195 141.700684,16.6357422 C141.700684,18.0703125 141.053223,18.8828125 140.050293,18.8828125 Z M148.536426,20.1079102 C150.237598,20.1079102 151.310352,18.7875977 151.310352,16.6357422 C151.310352,14.4838867 150.23125,13.1572266 148.536426,13.1572266 C147.584277,13.1572266 146.816211,13.6396484 146.435352,14.4267578 L146.397266,14.4267578 L146.397266,10.840332 L144.816699,10.840332 L144.816699,20 L146.365527,20 L146.365527,18.8510742 L146.397266,18.8510742 C146.79082,19.6318359 147.546191,20.1079102 148.536426,20.1079102 Z M148.047656,14.4584961 C149.056934,14.4584961 149.691699,15.3027344 149.691699,16.6357422 C149.691699,17.9750977 149.063281,18.8129883 148.047656,18.8129883 C147.070117,18.8129883 146.390918,17.9560547 146.390918,16.6357422 C146.390918,15.328125 147.070117,14.4584961 148.047656,14.4584961 Z M157.238379,17.987793 C157.066992,18.5463867 156.508398,18.9145508 155.77207,18.9145508 C154.737402,18.9145508 154.077246,18.190918 154.077246,17.1118164 L154.077246,17.0166016 L158.780859,17.0166016 L158.780859,16.5024414 C158.780859,14.4584961 157.5875,13.1318359 155.676855,13.1318359 C153.734473,13.1318359 152.503027,14.534668 152.503027,16.6611328 C152.503027,18.8066406 153.721777,20.1333008 155.740332,20.1333008 C157.333594,20.1333008 158.514258,19.2573242 158.717383,17.987793 L157.238379,17.987793 Z M155.683203,14.3569336 C156.590918,14.3569336 157.200293,15.0234375 157.232031,15.9755859 L154.089941,15.9755859 C154.153418,15.0361328 154.794531,14.3569336 155.683203,14.3569336 Z M161.07168,12.2558594 C161.554102,12.2558594 161.934961,11.8686523 161.934961,11.3989258 C161.934961,10.9228516 161.554102,10.5419922 161.07168,10.5419922 C160.589258,10.5419922 160.202051,10.9228516 160.202051,11.3989258 C160.202051,11.8686523 160.589258,12.2558594 161.07168,12.2558594 Z M160.28457,20 L160.28457,13.2714844 L161.865137,13.2714844 L161.865137,20 L160.28457,20 Z" id="Follow@ivanvorobei" fill="#000000" fill-rule="nonzero"></path>
                <path d="M21.9534288,14.8846967 C23.7308268,14.8846967 25.1599999,13.3249393 25.1599999,11.4024476 C25.1599999,9.51622931 23.7235721,8 21.9534288,8 C20.1832855,8 18.7323483,9.53073869 18.7395491,11.4097023 C18.7468577,13.332194 20.1760308,14.8846967 21.9534288,14.8846967 Z M21.9534288,13.4845424 C20.9958103,13.4845424 20.1905402,12.5849614 20.1905402,11.4097023 C20.1832855,10.285226 20.9958103,9.40015434 21.9534288,9.40015434 C22.9110473,9.40015434 23.7090627,10.2707166 23.7090627,11.4024476 C23.7090627,12.570452 22.9110473,13.4845424 21.9534288,13.4845424 Z M21.9461741,15.6827122 C20.7201322,15.6827122 19.6319294,15.9511355 18.717839,16.3864167 C19.109592,16.6983682 19.4505622,17.0756118 19.7189856,17.5036383 C20.3501433,17.2424696 21.0973759,17.0828665 21.9461741,17.0828665 C25.0366702,17.0828665 26.7923042,19.034377 26.7923042,20.0790517 C26.7923042,20.2023814 26.7342667,20.2531642 26.5746636,20.2531642 L20.6113119,20.2531642 C20.6040573,20.7682469 20.5532745,21.1672546 20.3864167,21.6533185 L26.4440793,21.6533185 C27.7354133,21.6533185 28.3593163,21.2325467 28.3593163,20.3329657 C28.3593163,18.2653803 25.7984122,15.6827122 21.9461741,15.6827122 Z M15.7796913,23.996582 C17.8327673,23.996582 19.5593825,22.2772215 19.5593825,20.2168907 C19.5593825,18.1493053 17.8472767,16.4371995 15.7796913,16.4371995 C13.7121058,16.4371995 12,18.1493053 12,20.2168907 C12,22.2844762 13.7121058,23.996582 15.7796913,23.996582 Z M15.7869459,22.6907386 C15.4895038,22.6907386 15.2210805,22.4658433 15.2210805,22.1538918 L15.2210805,20.7537375 L13.9007277,20.7537375 C13.6105402,20.7537375 13.3638809,20.5070782 13.3638809,20.2096361 C13.3638809,19.9194486 13.6105402,19.6727893 13.9007277,19.6727893 L15.2210805,19.6727893 L15.2210805,18.272635 C15.2210805,17.9606835 15.4822491,17.7357882 15.7869459,17.7357882 C16.0843881,17.7357882 16.3455567,17.9606835 16.3455567,18.272635 L16.3455567,19.6727893 L17.6586549,19.6727893 C17.956097,19.6727893 18.1955016,19.9194486 18.1955016,20.2096361 C18.1955016,20.5070782 17.956097,20.7537375 17.6586549,20.7537375 L16.3455567,20.7537375 L16.3455567,22.1538918 C16.3455567,22.4658433 16.0843881,22.6907386 15.7869459,22.6907386 Z" id="persin" fill="#000000" fill-rule="nonzero"></path>
            </g>
        </g>
    </g>
</svg>