<?xml version="1.0" encoding="UTF-8"?>
<svg width="150px" height="29px" viewBox="0 0 150 29" version="1.1" xmlns="http://www.w3.org/2000/svg" xmlns:xlink="http://www.w3.org/1999/xlink">
    <!-- Generator: Sketch 59.1 (86144) - https://sketch.com -->
    <title>xcode-shop</title>
    <desc>Created with Sketch.</desc>
    <defs>
        <linearGradient x1="50%" y1="0%" x2="50%" y2="100%" id="linearGradient-1">
            <stop stop-color="#F9FBFB" offset="0%"></stop>
            <stop stop-color="#EEF2F5" offset="100%"></stop>
        </linearGradient>
    </defs>
    <g id="Page-1" stroke="none" stroke-width="1" fill="none" fill-rule="evenodd">
        <g id="Artboard" transform="translate(-15.000000, -163.000000)">
            <g id="xcode-shop" transform="translate(15.000000, 163.000000)">
                <rect id="Rectangle" stroke="#C7C9CD" fill="url(#linearGradient-1)" x="0.5" y="0.5" width="149" height="28" rx="3"></rect>
                <path d="M36.2753906,16.5878906 L37.671875,19 L39.3984375,19 L37.2592773,15.5976562 L39.4238281,12.2714844 L37.690918,12.2714844 L36.3515625,14.6328125 L36.3198242,14.6328125 L34.9614258,12.2714844 L33.184082,12.2714844 L35.3359375,15.6420898 L33.1650391,19 L34.847168,19 L36.2436523,16.5878906 L36.2753906,16.5878906 Z M46.4436523,14.6708984 C46.3357422,13.2553711 45.2375977,12.1318359 43.4602539,12.1318359 C41.5051758,12.1318359 40.2356445,13.4838867 40.2356445,15.6357422 C40.2356445,17.8193359 41.5051758,19.1333008 43.4729492,19.1333008 C45.1614258,19.1333008 46.3230469,18.1430664 46.45,16.6386719 L44.9583008,16.6386719 C44.8123047,17.4003906 44.2917969,17.8574219 43.4919922,17.8574219 C42.4890625,17.8574219 41.8416016,17.0449219 41.8416016,15.6357422 C41.8416016,14.2519531 42.4827148,13.4140625 43.4792969,13.4140625 C44.3235352,13.4140625 44.825,13.9536133 44.9519531,14.6708984 L46.4436523,14.6708984 Z M50.8165039,19.1333008 C52.790625,19.1333008 54.0728516,17.8193359 54.0728516,15.6357422 C54.0728516,13.4584961 52.7779297,12.1318359 50.8165039,12.1318359 C48.8550781,12.1318359 47.5601562,13.4648438 47.5601562,15.6357422 C47.5601562,17.8193359 48.8423828,19.1333008 50.8165039,19.1333008 Z M50.8165039,17.8828125 C49.8135742,17.8828125 49.1661133,17.0703125 49.1661133,15.6357422 C49.1661133,14.2075195 49.8199219,13.3886719 50.8165039,13.3886719 C51.8194336,13.3886719 52.4668945,14.2075195 52.4668945,15.6357422 C52.4668945,17.0703125 51.8194336,17.8828125 50.8165039,17.8828125 Z M58.0521484,19.1079102 C59.0360352,19.1079102 59.8104492,18.6064453 60.1786133,17.8510742 L60.2040039,17.8510742 L60.2040039,19 L61.752832,19 L61.752832,9.84033203 L60.1722656,9.84033203 L60.1722656,13.4013672 L60.1341797,13.4013672 C59.7787109,12.6586914 59.0169922,12.1572266 58.0521484,12.1572266 C56.3573242,12.1572266 55.2591797,13.5029297 55.2591797,15.6293945 C55.2591797,17.7685547 56.3573242,19.1079102 58.0521484,19.1079102 Z M58.5282227,13.4584961 C59.5248047,13.4584961 60.1786133,14.3154297 60.1786133,15.6357422 C60.1786133,16.96875 59.5248047,17.8129883 58.5282227,17.8129883 C57.50625,17.8129883 56.877832,16.9750977 56.877832,15.6357422 C56.877832,14.3027344 57.5125977,13.4584961 58.5282227,13.4584961 Z M67.9855469,16.987793 C67.8141602,17.5463867 67.2555664,17.9145508 66.5192383,17.9145508 C65.4845703,17.9145508 64.8244141,17.190918 64.8244141,16.1118164 L64.8244141,16.0166016 L69.5280273,16.0166016 L69.5280273,15.5024414 C69.5280273,13.4584961 68.334668,12.1318359 66.4240234,12.1318359 C64.4816406,12.1318359 63.2501953,13.534668 63.2501953,15.6611328 C63.2501953,17.8066406 64.4689453,19.1333008 66.4875,19.1333008 C68.0807617,19.1333008 69.2614258,18.2573242 69.4645508,16.987793 L67.9855469,16.987793 Z M66.4303711,13.3569336 C67.3380859,13.3569336 67.9474609,14.0234375 67.9791992,14.9755859 L64.8371094,14.9755859 C64.9005859,14.0361328 65.5416992,13.3569336 66.4303711,13.3569336 Z M75.2719727,15.9848633 L75.2719727,14.5756836 L71.1015625,14.5756836 L71.1015625,15.9848633 L75.2719727,15.9848633 Z M77.0041992,14.2011719 C77.0041992,15.1977539 77.6516602,15.8325195 78.9402344,16.1181641 L80.0574219,16.3657227 C80.7620117,16.5244141 81.0032227,16.7529297 81.0032227,17.1591797 C81.0032227,17.6606445 80.5271484,17.9780273 79.759082,17.9780273 C78.9592773,17.9780273 78.5085938,17.6479492 78.3879883,16.9941406 L76.8328125,16.9941406 C76.9597656,18.2954102 78.0007813,19.1333008 79.759082,19.1333008 C81.4094727,19.1333008 82.5774414,18.2763672 82.5774414,17.0068359 C82.5774414,16.0292969 82.0378906,15.4897461 80.6414063,15.1787109 L79.5242188,14.9311523 C78.8196289,14.7724609 78.540332,14.5058594 78.540332,14.1186523 C78.540332,13.6235352 79.0037109,13.293457 79.7019531,13.293457 C80.4319336,13.293457 80.8826172,13.6806641 80.9460938,14.2900391 L82.41875,14.2900391 C82.3806641,13.0141602 81.3396484,12.1318359 79.7019531,12.1318359 C78.0769531,12.1318359 77.0041992,12.9697266 77.0041992,14.2011719 Z M84.0748047,19 L85.6553711,19 L85.6553711,15.1342773 C85.6553711,14.144043 86.2330078,13.4838867 87.1851563,13.4838867 C88.0992188,13.4838867 88.5689453,14.0488281 88.5689453,14.9882812 L88.5689453,19 L90.1495117,19 L90.1495117,14.6645508 C90.1495117,13.1220703 89.2798828,12.1445312 87.7945313,12.1445312 C86.7725586,12.1445312 86.0298828,12.6079102 85.6680664,13.4267578 L85.6363281,13.4267578 L85.6363281,9.84033203 L84.0748047,9.84033203 L84.0748047,19 Z M94.8397461,19.1333008 C96.8138672,19.1333008 98.0960938,17.8193359 98.0960938,15.6357422 C98.0960938,13.4584961 96.8011719,12.1318359 94.8397461,12.1318359 C92.8783203,12.1318359 91.5833984,13.4648438 91.5833984,15.6357422 C91.5833984,17.8193359 92.865625,19.1333008 94.8397461,19.1333008 Z M94.8397461,17.8828125 C93.8368164,17.8828125 93.1893555,17.0703125 93.1893555,15.6357422 C93.1893555,14.2075195 93.8431641,13.3886719 94.8397461,13.3886719 C95.8426758,13.3886719 96.4901367,14.2075195 96.4901367,15.6357422 C96.4901367,17.0703125 95.8426758,17.8828125 94.8397461,17.8828125 Z M103.256055,12.1572266 C102.278516,12.1572266 101.516797,12.6523438 101.135938,13.4331055 L101.104199,13.4331055 L101.104199,12.2714844 L99.5617188,12.2714844 L99.5617188,21.215332 L101.142285,21.215332 L101.142285,17.8828125 L101.174023,17.8828125 C101.542188,18.6381836 102.303906,19.1079102 103.281445,19.1079102 C104.969922,19.1079102 106.049023,17.78125 106.049023,15.6357422 C106.049023,13.4838867 104.963574,12.1572266 103.256055,12.1572266 Z M102.773633,17.8129883 C101.789746,17.8129883 101.135938,16.9560547 101.12959,15.6357422 C101.135938,14.328125 101.789746,13.4584961 102.773633,13.4584961 C103.795605,13.4584961 104.430371,14.309082 104.430371,15.6357422 C104.430371,16.96875 103.795605,17.8129883 102.773633,17.8129883 Z M108.358887,19.0698242 C108.866699,19.0698242 109.266602,18.6699219 109.266602,18.1557617 C109.266602,17.6479492 108.866699,17.2416992 108.358887,17.2416992 C107.844727,17.2416992 107.444824,17.6479492 107.444824,18.1557617 C107.444824,18.6699219 107.844727,19.0698242 108.358887,19.0698242 Z M116.813281,14.6708984 C116.705371,13.2553711 115.607227,12.1318359 113.829883,12.1318359 C111.874805,12.1318359 110.605273,13.4838867 110.605273,15.6357422 C110.605273,17.8193359 111.874805,19.1333008 113.842578,19.1333008 C115.531055,19.1333008 116.692676,18.1430664 116.819629,16.6386719 L115.32793,16.6386719 C115.181934,17.4003906 114.661426,17.8574219 113.861621,17.8574219 C112.858691,17.8574219 112.21123,17.0449219 112.21123,15.6357422 C112.21123,14.2519531 112.852344,13.4140625 113.848926,13.4140625 C114.693164,13.4140625 115.194629,13.9536133 115.321582,14.6708984 L116.813281,14.6708984 Z M121.186133,19.1333008 C123.160254,19.1333008 124.44248,17.8193359 124.44248,15.6357422 C124.44248,13.4584961 123.147559,12.1318359 121.186133,12.1318359 C119.224707,12.1318359 117.929785,13.4648438 117.929785,15.6357422 C117.929785,17.8193359 119.212012,19.1333008 121.186133,19.1333008 Z M121.186133,17.8828125 C120.183203,17.8828125 119.535742,17.0703125 119.535742,15.6357422 C119.535742,14.2075195 120.189551,13.3886719 121.186133,13.3886719 C122.189063,13.3886719 122.836523,14.2075195 122.836523,15.6357422 C122.836523,17.0703125 122.189063,17.8828125 121.186133,17.8828125 Z M125.908105,19 L125.908105,12.2714844 L127.425195,12.2714844 L127.425195,13.4394531 L127.456934,13.4394531 C127.748926,12.6586914 128.459863,12.1445312 129.373926,12.1445312 C130.326074,12.1445312 131.005273,12.6333008 131.252832,13.496582 L131.290918,13.496582 C131.614648,12.6650391 132.414453,12.1445312 133.385645,12.1445312 C134.712305,12.1445312 135.581934,13.0395508 135.581934,14.3852539 L135.581934,19 L134.001367,19 L134.001367,14.7724609 C134.001367,13.9472656 133.569727,13.4775391 132.795313,13.4775391 C132.033594,13.4775391 131.513086,14.0361328 131.513086,14.8422852 L131.513086,19 L129.976953,19 L129.976953,14.6899414 C129.976953,13.940918 129.519922,13.4775391 128.783594,13.4775391 C128.021875,13.4775391 127.488672,14.0678711 127.488672,14.8803711 L127.488672,19 L125.908105,19 Z" id="xcode-shop.com" fill="#000000" fill-rule="nonzero"></path>
                <path d="M15.3924228,22 L23.6361085,22 C25.0603368,22 25.8882133,21.1651076 25.8882133,19.621609 L25.8882133,12.3741815 C25.8882133,10.823667 25.0533209,9.99579046 23.4957905,9.99579046 L22.6047708,9.99579046 C22.5767072,8.34003742 21.1875585,7 19.4476146,7 C17.7076707,7 16.3115061,8.34003742 16.2834425,9.99579046 L15.3924228,9.99579046 C13.8348924,9.99579046 13,10.823667 13,12.3741815 L13,19.621609 C13,21.1721235 13.8348924,22 15.3924228,22 Z M19.4476146,8.37511693 C20.3877456,8.37511693 21.0612722,9.09073901 21.0893358,9.99579046 L17.8058934,9.99579046 C17.8269411,9.09073901 18.5074836,8.37511693 19.4476146,8.37511693 Z M15.5397568,20.3933583 C14.9293732,20.3933583 14.6066417,20.0846586 14.6066417,19.4462114 L14.6066417,12.549579 C14.6066417,11.9111319 14.9293732,11.6024322 15.5397568,11.6024322 L23.3484565,11.6024322 C23.9518241,11.6024322 24.2885875,11.9111319 24.2885875,12.549579 L24.2885875,19.4462114 C24.2885875,20.0846586 23.9518241,20.3933583 23.4957905,20.3933583 L15.5397568,20.3933583 Z" id="bag" fill="#000000" fill-rule="nonzero"></path>
            </g>
        </g>
    </g>
</svg>