<?xml version="1.0" encoding="UTF-8"?>
<svg width="154px" height="31px" viewBox="0 0 154 31" version="1.1" xmlns="http://www.w3.org/2000/svg" xmlns:xlink="http://www.w3.org/1999/xlink">
    <!-- Generator: Sketch 59.1 (86144) - https://sketch.com -->
    <title>xcode-shop</title>
    <desc>Created with Sketch.</desc>
    <defs>
        <linearGradient x1="50%" y1="0%" x2="50%" y2="100%" id="linearGradient-1">
            <stop stop-color="#F9FBFB" offset="0%"></stop>
            <stop stop-color="#EEF2F5" offset="100%"></stop>
        </linearGradient>
    </defs>
    <g id="Page-1" stroke="none" stroke-width="1" fill="none" fill-rule="evenodd">
        <g id="Artboard" transform="translate(-15.000000, -152.000000)">
            <g id="xcode-shop" transform="translate(15.000000, 152.000000)">
                <rect id="Rectangle" stroke="#C7C9CD" fill="url(#linearGradient-1)" x="0.5" y="0.5" width="153" height="30" rx="3"></rect>
                <path d="M40.2753906,17.5878906 L41.671875,20 L43.3984375,20 L41.2592773,16.5976562 L43.4238281,13.2714844 L41.690918,13.2714844 L40.3515625,15.6328125 L40.3198242,15.6328125 L38.9614258,13.2714844 L37.184082,13.2714844 L39.3359375,16.6420898 L37.1650391,20 L38.847168,20 L40.2436523,17.5878906 L40.2753906,17.5878906 Z M50.4436523,15.6708984 C50.3357422,14.2553711 49.2375977,13.1318359 47.4602539,13.1318359 C45.5051758,13.1318359 44.2356445,14.4838867 44.2356445,16.6357422 C44.2356445,18.8193359 45.5051758,20.1333008 47.4729492,20.1333008 C49.1614258,20.1333008 50.3230469,19.1430664 50.45,17.6386719 L48.9583008,17.6386719 C48.8123047,18.4003906 48.2917969,18.8574219 47.4919922,18.8574219 C46.4890625,18.8574219 45.8416016,18.0449219 45.8416016,16.6357422 C45.8416016,15.2519531 46.4827148,14.4140625 47.4792969,14.4140625 C48.3235352,14.4140625 48.825,14.9536133 48.9519531,15.6708984 L50.4436523,15.6708984 Z M54.8165039,20.1333008 C56.790625,20.1333008 58.0728516,18.8193359 58.0728516,16.6357422 C58.0728516,14.4584961 56.7779297,13.1318359 54.8165039,13.1318359 C52.8550781,13.1318359 51.5601562,14.4648438 51.5601562,16.6357422 C51.5601562,18.8193359 52.8423828,20.1333008 54.8165039,20.1333008 Z M54.8165039,18.8828125 C53.8135742,18.8828125 53.1661133,18.0703125 53.1661133,16.6357422 C53.1661133,15.2075195 53.8199219,14.3886719 54.8165039,14.3886719 C55.8194336,14.3886719 56.4668945,15.2075195 56.4668945,16.6357422 C56.4668945,18.0703125 55.8194336,18.8828125 54.8165039,18.8828125 Z M62.0521484,20.1079102 C63.0360352,20.1079102 63.8104492,19.6064453 64.1786133,18.8510742 L64.2040039,18.8510742 L64.2040039,20 L65.752832,20 L65.752832,10.840332 L64.1722656,10.840332 L64.1722656,14.4013672 L64.1341797,14.4013672 C63.7787109,13.6586914 63.0169922,13.1572266 62.0521484,13.1572266 C60.3573242,13.1572266 59.2591797,14.5029297 59.2591797,16.6293945 C59.2591797,18.7685547 60.3573242,20.1079102 62.0521484,20.1079102 Z M62.5282227,14.4584961 C63.5248047,14.4584961 64.1786133,15.3154297 64.1786133,16.6357422 C64.1786133,17.96875 63.5248047,18.8129883 62.5282227,18.8129883 C61.50625,18.8129883 60.877832,17.9750977 60.877832,16.6357422 C60.877832,15.3027344 61.5125977,14.4584961 62.5282227,14.4584961 Z M71.9855469,17.987793 C71.8141602,18.5463867 71.2555664,18.9145508 70.5192383,18.9145508 C69.4845703,18.9145508 68.8244141,18.190918 68.8244141,17.1118164 L68.8244141,17.0166016 L73.5280273,17.0166016 L73.5280273,16.5024414 C73.5280273,14.4584961 72.334668,13.1318359 70.4240234,13.1318359 C68.4816406,13.1318359 67.2501953,14.534668 67.2501953,16.6611328 C67.2501953,18.8066406 68.4689453,20.1333008 70.4875,20.1333008 C72.0807617,20.1333008 73.2614258,19.2573242 73.4645508,17.987793 L71.9855469,17.987793 Z M70.4303711,14.3569336 C71.3380859,14.3569336 71.9474609,15.0234375 71.9791992,15.9755859 L68.8371094,15.9755859 C68.9005859,15.0361328 69.5416992,14.3569336 70.4303711,14.3569336 Z M79.2719727,16.9848633 L79.2719727,15.5756836 L75.1015625,15.5756836 L75.1015625,16.9848633 L79.2719727,16.9848633 Z M81.0041992,15.2011719 C81.0041992,16.1977539 81.6516602,16.8325195 82.9402344,17.1181641 L84.0574219,17.3657227 C84.7620117,17.5244141 85.0032227,17.7529297 85.0032227,18.1591797 C85.0032227,18.6606445 84.5271484,18.9780273 83.759082,18.9780273 C82.9592773,18.9780273 82.5085938,18.6479492 82.3879883,17.9941406 L80.8328125,17.9941406 C80.9597656,19.2954102 82.0007813,20.1333008 83.759082,20.1333008 C85.4094727,20.1333008 86.5774414,19.2763672 86.5774414,18.0068359 C86.5774414,17.0292969 86.0378906,16.4897461 84.6414063,16.1787109 L83.5242188,15.9311523 C82.8196289,15.7724609 82.540332,15.5058594 82.540332,15.1186523 C82.540332,14.6235352 83.0037109,14.293457 83.7019531,14.293457 C84.4319336,14.293457 84.8826172,14.6806641 84.9460938,15.2900391 L86.41875,15.2900391 C86.3806641,14.0141602 85.3396484,13.1318359 83.7019531,13.1318359 C82.0769531,13.1318359 81.0041992,13.9697266 81.0041992,15.2011719 Z M88.0748047,20 L89.6553711,20 L89.6553711,16.1342773 C89.6553711,15.144043 90.2330078,14.4838867 91.1851563,14.4838867 C92.0992188,14.4838867 92.5689453,15.0488281 92.5689453,15.9882812 L92.5689453,20 L94.1495117,20 L94.1495117,15.6645508 C94.1495117,14.1220703 93.2798828,13.1445312 91.7945313,13.1445312 C90.7725586,13.1445312 90.0298828,13.6079102 89.6680664,14.4267578 L89.6363281,14.4267578 L89.6363281,10.840332 L88.0748047,10.840332 L88.0748047,20 Z M98.8397461,20.1333008 C100.813867,20.1333008 102.096094,18.8193359 102.096094,16.6357422 C102.096094,14.4584961 100.801172,13.1318359 98.8397461,13.1318359 C96.8783203,13.1318359 95.5833984,14.4648438 95.5833984,16.6357422 C95.5833984,18.8193359 96.865625,20.1333008 98.8397461,20.1333008 Z M98.8397461,18.8828125 C97.8368164,18.8828125 97.1893555,18.0703125 97.1893555,16.6357422 C97.1893555,15.2075195 97.8431641,14.3886719 98.8397461,14.3886719 C99.8426758,14.3886719 100.490137,15.2075195 100.490137,16.6357422 C100.490137,18.0703125 99.8426758,18.8828125 98.8397461,18.8828125 Z M107.256055,13.1572266 C106.278516,13.1572266 105.516797,13.6523438 105.135938,14.4331055 L105.104199,14.4331055 L105.104199,13.2714844 L103.561719,13.2714844 L103.561719,22.215332 L105.142285,22.215332 L105.142285,18.8828125 L105.174023,18.8828125 C105.542188,19.6381836 106.303906,20.1079102 107.281445,20.1079102 C108.969922,20.1079102 110.049023,18.78125 110.049023,16.6357422 C110.049023,14.4838867 108.963574,13.1572266 107.256055,13.1572266 Z M106.773633,18.8129883 C105.789746,18.8129883 105.135938,17.9560547 105.12959,16.6357422 C105.135938,15.328125 105.789746,14.4584961 106.773633,14.4584961 C107.795605,14.4584961 108.430371,15.309082 108.430371,16.6357422 C108.430371,17.96875 107.795605,18.8129883 106.773633,18.8129883 Z M112.358887,20.0698242 C112.866699,20.0698242 113.266602,19.6699219 113.266602,19.1557617 C113.266602,18.6479492 112.866699,18.2416992 112.358887,18.2416992 C111.844727,18.2416992 111.444824,18.6479492 111.444824,19.1557617 C111.444824,19.6699219 111.844727,20.0698242 112.358887,20.0698242 Z M120.813281,15.6708984 C120.705371,14.2553711 119.607227,13.1318359 117.829883,13.1318359 C115.874805,13.1318359 114.605273,14.4838867 114.605273,16.6357422 C114.605273,18.8193359 115.874805,20.1333008 117.842578,20.1333008 C119.531055,20.1333008 120.692676,19.1430664 120.819629,17.6386719 L119.32793,17.6386719 C119.181934,18.4003906 118.661426,18.8574219 117.861621,18.8574219 C116.858691,18.8574219 116.21123,18.0449219 116.21123,16.6357422 C116.21123,15.2519531 116.852344,14.4140625 117.848926,14.4140625 C118.693164,14.4140625 119.194629,14.9536133 119.321582,15.6708984 L120.813281,15.6708984 Z M125.186133,20.1333008 C127.160254,20.1333008 128.44248,18.8193359 128.44248,16.6357422 C128.44248,14.4584961 127.147559,13.1318359 125.186133,13.1318359 C123.224707,13.1318359 121.929785,14.4648438 121.929785,16.6357422 C121.929785,18.8193359 123.212012,20.1333008 125.186133,20.1333008 Z M125.186133,18.8828125 C124.183203,18.8828125 123.535742,18.0703125 123.535742,16.6357422 C123.535742,15.2075195 124.189551,14.3886719 125.186133,14.3886719 C126.189063,14.3886719 126.836523,15.2075195 126.836523,16.6357422 C126.836523,18.0703125 126.189063,18.8828125 125.186133,18.8828125 Z M129.908105,20 L129.908105,13.2714844 L131.425195,13.2714844 L131.425195,14.4394531 L131.456934,14.4394531 C131.748926,13.6586914 132.459863,13.1445312 133.373926,13.1445312 C134.326074,13.1445312 135.005273,13.6333008 135.252832,14.496582 L135.290918,14.496582 C135.614648,13.6650391 136.414453,13.1445312 137.385645,13.1445312 C138.712305,13.1445312 139.581934,14.0395508 139.581934,15.3852539 L139.581934,20 L138.001367,20 L138.001367,15.7724609 C138.001367,14.9472656 137.569727,14.4775391 136.795313,14.4775391 C136.033594,14.4775391 135.513086,15.0361328 135.513086,15.8422852 L135.513086,20 L133.976953,20 L133.976953,15.6899414 C133.976953,14.940918 133.519922,14.4775391 132.783594,14.4775391 C132.021875,14.4775391 131.488672,15.0678711 131.488672,15.8803711 L131.488672,20 L129.908105,20 Z" id="xcode-shop.com" fill="#000000" fill-rule="nonzero"></path>
                <path d="M16.8924228,23 L25.1361085,23 C26.5603368,23 27.3882133,22.1651076 27.3882133,20.621609 L27.3882133,13.3741815 C27.3882133,11.823667 26.5533209,10.9957905 24.9957905,10.9957905 L24.1047708,10.9957905 C24.0767072,9.34003742 22.6875585,8 20.9476146,8 C19.2076707,8 17.8115061,9.34003742 17.7834425,10.9957905 L16.8924228,10.9957905 C15.3348924,10.9957905 14.5,11.823667 14.5,13.3741815 L14.5,20.621609 C14.5,22.1721235 15.3348924,23 16.8924228,23 Z M20.9476146,9.37511693 C21.8877456,9.37511693 22.5612722,10.090739 22.5893358,10.9957905 L19.3058934,10.9957905 C19.3269411,10.090739 20.0074836,9.37511693 20.9476146,9.37511693 Z M17.0397568,21.3933583 C16.4293732,21.3933583 16.1066417,21.0846586 16.1066417,20.4462114 L16.1066417,13.549579 C16.1066417,12.9111319 16.4293732,12.6024322 17.0397568,12.6024322 L24.8484565,12.6024322 C25.4518241,12.6024322 25.7885875,12.9111319 25.7885875,13.549579 L25.7885875,20.4462114 C25.7885875,21.0846586 25.4518241,21.3933583 24.9957905,21.3933583 L17.0397568,21.3933583 Z" id="bag" fill="#000000" fill-rule="nonzero"></path>
            </g>
        </g>
    </g>
</svg>