<?xml version="1.0" encoding="UTF-8"?>
<svg width="153px" height="31px" viewBox="0 0 153 31" version="1.1" xmlns="http://www.w3.org/2000/svg" xmlns:xlink="http://www.w3.org/1999/xlink">
    <!-- Generator: Sketch 59.1 (86144) - https://sketch.com -->
    <title>Group 4</title>
    <desc>Created with Sketch.</desc>
    <defs>
        <linearGradient x1="50%" y1="0%" x2="50%" y2="100%" id="linearGradient-1">
            <stop stop-color="#F9FBFB" offset="0%"></stop>
            <stop stop-color="#EEF2F5" offset="100%"></stop>
        </linearGradient>
    </defs>
    <g id="Page-1" stroke="none" stroke-width="1" fill="none" fill-rule="evenodd">
        <g id="Final---3" transform="translate(-15.000000, -14.000000)">
            <g id="Group-4" transform="translate(15.000000, 14.000000)">
                <rect id="Rectangle" stroke="#C7C9CD" fill="url(#linearGradient-1)" x="0.5" y="0.5" width="152" height="30" rx="3"></rect>
                <path d="M39.1103516,16.7475586 L40.5068359,19.159668 L42.2333984,19.159668 L40.0942383,15.7573242 L42.2587891,12.4311523 L40.5258789,12.4311523 L39.1865234,14.7924805 L39.1547852,14.7924805 L37.7963867,12.4311523 L36.019043,12.4311523 L38.1708984,15.8017578 L36,19.159668 L37.6821289,19.159668 L39.0786133,16.7475586 L39.1103516,16.7475586 Z M49.2786133,14.8305664 C49.1707031,13.4150391 48.0725586,12.2915039 46.2952148,12.2915039 C44.3401367,12.2915039 43.0706055,13.6435547 43.0706055,15.7954102 C43.0706055,17.9790039 44.3401367,19.2929688 46.3079102,19.2929688 C47.9963867,19.2929688 49.1580078,18.3027344 49.2849609,16.7983398 L47.7932617,16.7983398 C47.6472656,17.5600586 47.1267578,18.0170898 46.3269531,18.0170898 C45.3240234,18.0170898 44.6765625,17.2045898 44.6765625,15.7954102 C44.6765625,14.4116211 45.3176758,13.5737305 46.3142578,13.5737305 C47.1584961,13.5737305 47.6599609,14.1132812 47.7869141,14.8305664 L49.2786133,14.8305664 Z M53.6514648,19.2929688 C55.6255859,19.2929688 56.9078125,17.9790039 56.9078125,15.7954102 C56.9078125,13.6181641 55.6128906,12.2915039 53.6514648,12.2915039 C51.6900391,12.2915039 50.3951172,13.6245117 50.3951172,15.7954102 C50.3951172,17.9790039 51.6773437,19.2929688 53.6514648,19.2929688 Z M53.6514648,18.0424805 C52.6485352,18.0424805 52.0010742,17.2299805 52.0010742,15.7954102 C52.0010742,14.3671875 52.6548828,13.5483398 53.6514648,13.5483398 C54.6543945,13.5483398 55.3018555,14.3671875 55.3018555,15.7954102 C55.3018555,17.2299805 54.6543945,18.0424805 53.6514648,18.0424805 Z M60.8871094,19.2675781 C61.8709961,19.2675781 62.6454102,18.7661133 63.0135742,18.0107422 L63.0389648,18.0107422 L63.0389648,19.159668 L64.587793,19.159668 L64.587793,10 L63.0072266,10 L63.0072266,13.5610352 L62.9691406,13.5610352 C62.6136719,12.8183594 61.8519531,12.3168945 60.8871094,12.3168945 C59.1922852,12.3168945 58.0941406,13.6625977 58.0941406,15.7890625 C58.0941406,17.9282227 59.1922852,19.2675781 60.8871094,19.2675781 Z M61.3631836,13.6181641 C62.3597656,13.6181641 63.0135742,14.4750977 63.0135742,15.7954102 C63.0135742,17.128418 62.3597656,17.9726562 61.3631836,17.9726562 C60.3412109,17.9726562 59.712793,17.1347656 59.712793,15.7954102 C59.712793,14.4624023 60.3475586,13.6181641 61.3631836,13.6181641 Z M70.8205078,17.1474609 C70.6491211,17.7060547 70.0905273,18.0742188 69.3541992,18.0742188 C68.3195312,18.0742188 67.659375,17.3505859 67.659375,16.2714844 L67.659375,16.1762695 L72.3629883,16.1762695 L72.3629883,15.6621094 C72.3629883,13.6181641 71.1696289,12.2915039 69.2589844,12.2915039 C67.3166016,12.2915039 66.0851562,13.6943359 66.0851562,15.8208008 C66.0851562,17.9663086 67.3039062,19.2929688 69.3224609,19.2929688 C70.9157227,19.2929688 72.0963867,18.4169922 72.2995117,17.1474609 L70.8205078,17.1474609 Z M69.265332,13.5166016 C70.1730469,13.5166016 70.7824219,14.1831055 70.8141602,15.1352539 L67.6720703,15.1352539 C67.7355469,14.1958008 68.3766602,13.5166016 69.265332,13.5166016 Z M78.1069336,16.1445312 L78.1069336,14.7353516 L73.9365234,14.7353516 L73.9365234,16.1445312 L78.1069336,16.1445312 Z M79.8391602,14.3608398 C79.8391602,15.3574219 80.4866211,15.9921875 81.7751953,16.277832 L82.8923828,16.5253906 C83.5969727,16.684082 83.8381836,16.9125977 83.8381836,17.3188477 C83.8381836,17.8203125 83.3621094,18.1376953 82.594043,18.1376953 C81.7942383,18.1376953 81.3435547,17.8076172 81.2229492,17.1538086 L79.6677734,17.1538086 C79.7947266,18.4550781 80.8357422,19.2929688 82.594043,19.2929688 C84.2444336,19.2929688 85.4124023,18.4360352 85.4124023,17.1665039 C85.4124023,16.1889648 84.8728516,15.6494141 83.4763672,15.3383789 L82.3591797,15.0908203 C81.6545898,14.9321289 81.375293,14.6655273 81.375293,14.2783203 C81.375293,13.7832031 81.8386719,13.453125 82.5369141,13.453125 C83.2668945,13.453125 83.7175781,13.840332 83.7810547,14.449707 L85.2537109,14.449707 C85.215625,13.1738281 84.1746094,12.2915039 82.5369141,12.2915039 C80.9119141,12.2915039 79.8391602,13.1293945 79.8391602,14.3608398 Z M86.9097656,19.159668 L88.490332,19.159668 L88.490332,15.2939453 C88.490332,14.3037109 89.0679688,13.6435547 90.0201172,13.6435547 C90.9341797,13.6435547 91.4039063,14.2084961 91.4039063,15.1479492 L91.4039063,19.159668 L92.9844727,19.159668 L92.9844727,14.8242188 C92.9844727,13.2817383 92.1148438,12.3041992 90.6294922,12.3041992 C89.6075195,12.3041992 88.8648438,12.7675781 88.5030273,13.5864258 L88.4712891,13.5864258 L88.4712891,10 L86.9097656,10 L86.9097656,19.159668 Z M97.674707,19.2929688 C99.6488281,19.2929688 100.931055,17.9790039 100.931055,15.7954102 C100.931055,13.6181641 99.6361328,12.2915039 97.674707,12.2915039 C95.7132813,12.2915039 94.4183594,13.6245117 94.4183594,15.7954102 C94.4183594,17.9790039 95.7005859,19.2929688 97.674707,19.2929688 Z M97.674707,18.0424805 C96.6717773,18.0424805 96.0243164,17.2299805 96.0243164,15.7954102 C96.0243164,14.3671875 96.678125,13.5483398 97.674707,13.5483398 C98.6776367,13.5483398 99.3250977,14.3671875 99.3250977,15.7954102 C99.3250977,17.2299805 98.6776367,18.0424805 97.674707,18.0424805 Z M106.091016,12.3168945 C105.113477,12.3168945 104.351758,12.8120117 103.970898,13.5927734 L103.93916,13.5927734 L103.93916,12.4311523 L102.39668,12.4311523 L102.39668,21.375 L103.977246,21.375 L103.977246,18.0424805 L104.008984,18.0424805 C104.377148,18.7978516 105.138867,19.2675781 106.116406,19.2675781 C107.804883,19.2675781 108.883984,17.940918 108.883984,15.7954102 C108.883984,13.6435547 107.798535,12.3168945 106.091016,12.3168945 Z M105.608594,17.9726562 C104.624707,17.9726562 103.970898,17.1157227 103.964551,15.7954102 C103.970898,14.487793 104.624707,13.6181641 105.608594,13.6181641 C106.630566,13.6181641 107.265332,14.46875 107.265332,15.7954102 C107.265332,17.128418 106.630566,17.9726562 105.608594,17.9726562 Z M111.193848,19.2294922 C111.70166,19.2294922 112.101563,18.8295898 112.101563,18.3154297 C112.101563,17.8076172 111.70166,17.4013672 111.193848,17.4013672 C110.679688,17.4013672 110.279785,17.8076172 110.279785,18.3154297 C110.279785,18.8295898 110.679688,19.2294922 111.193848,19.2294922 Z M119.648242,14.8305664 C119.540332,13.4150391 118.442188,12.2915039 116.664844,12.2915039 C114.709766,12.2915039 113.440234,13.6435547 113.440234,15.7954102 C113.440234,17.9790039 114.709766,19.2929688 116.677539,19.2929688 C118.366016,19.2929688 119.527637,18.3027344 119.65459,16.7983398 L118.162891,16.7983398 C118.016895,17.5600586 117.496387,18.0170898 116.696582,18.0170898 C115.693652,18.0170898 115.046191,17.2045898 115.046191,15.7954102 C115.046191,14.4116211 115.687305,13.5737305 116.683887,13.5737305 C117.528125,13.5737305 118.02959,14.1132812 118.156543,14.8305664 L119.648242,14.8305664 Z M124.021094,19.2929688 C125.995215,19.2929688 127.277441,17.9790039 127.277441,15.7954102 C127.277441,13.6181641 125.98252,12.2915039 124.021094,12.2915039 C122.059668,12.2915039 120.764746,13.6245117 120.764746,15.7954102 C120.764746,17.9790039 122.046973,19.2929688 124.021094,19.2929688 Z M124.021094,18.0424805 C123.018164,18.0424805 122.370703,17.2299805 122.370703,15.7954102 C122.370703,14.3671875 123.024512,13.5483398 124.021094,13.5483398 C125.024023,13.5483398 125.671484,14.3671875 125.671484,15.7954102 C125.671484,17.2299805 125.024023,18.0424805 124.021094,18.0424805 Z M128.743066,19.159668 L128.743066,12.4311523 L130.260156,12.4311523 L130.260156,13.5991211 L130.291895,13.5991211 C130.583887,12.8183594 131.294824,12.3041992 132.208887,12.3041992 C133.161035,12.3041992 133.840234,12.7929688 134.087793,13.65625 L134.125879,13.65625 C134.449609,12.824707 135.249414,12.3041992 136.220605,12.3041992 C137.547266,12.3041992 138.416895,13.1992188 138.416895,14.5449219 L138.416895,19.159668 L136.836328,19.159668 L136.836328,14.9321289 C136.836328,14.1069336 136.404688,13.637207 135.630273,13.637207 C134.868555,13.637207 134.348047,14.1958008 134.348047,15.0019531 L134.348047,19.159668 L132.811914,19.159668 L132.811914,14.8496094 C132.811914,14.1005859 132.354883,13.637207 131.618555,13.637207 C130.856836,13.637207 130.323633,14.2275391 130.323633,15.0400391 L130.323633,19.159668 L128.743066,19.159668 Z" id="xcode-shop.com" fill="#000000" fill-rule="nonzero"></path>
                <path d="M15.1645508,22.5712891 L22.6230469,22.5712891 C23.9116211,22.5712891 24.6606445,21.815918 24.6606445,20.4194336 L24.6606445,13.8623047 C24.6606445,12.4594727 23.9052734,11.7104492 22.4960938,11.7104492 L21.6899414,11.7104492 C21.6645508,10.2124023 20.4077148,9 18.8334961,9 C17.2592773,9 15.9960938,10.2124023 15.9707031,11.7104492 L15.1645508,11.7104492 C13.7553711,11.7104492 13,12.4594727 13,13.8623047 L13,20.4194336 C13,21.8222656 13.7553711,22.5712891 15.1645508,22.5712891 Z M18.8334961,10.2441406 C19.684082,10.2441406 20.293457,10.8916016 20.3188477,11.7104492 L17.3481445,11.7104492 C17.3671875,10.8916016 17.9829102,10.2441406 18.8334961,10.2441406 Z M15.2978516,21.1176758 C14.7456055,21.1176758 14.4536133,20.8383789 14.4536133,20.2607422 L14.4536133,14.0209961 C14.4536133,13.4433594 14.7456055,13.1640625 15.2978516,13.1640625 L22.362793,13.1640625 C22.9086914,13.1640625 23.2133789,13.4433594 23.2133789,14.0209961 L23.2133789,20.2607422 C23.2133789,20.8383789 22.9086914,21.1176758 22.4960938,21.1176758 L15.2978516,21.1176758 Z" id="icon" fill="#000000" fill-rule="nonzero"></path>
            </g>
        </g>
    </g>
</svg>