<?xml version="1.0" encoding="UTF-8"?>
<svg width="153px" height="31px" viewBox="0 0 153 31" version="1.1" xmlns="http://www.w3.org/2000/svg" xmlns:xlink="http://www.w3.org/1999/xlink">
    <!-- Generator: Sketch 59.1 (86144) - https://sketch.com -->
    <title>Group 4</title>
    <desc>Created with Sketch.</desc>
    <defs>
        <linearGradient x1="50%" y1="0%" x2="50%" y2="100%" id="linearGradient-1">
            <stop stop-color="#F9FBFB" offset="0%"></stop>
            <stop stop-color="#EEF2F5" offset="100%"></stop>
        </linearGradient>
    </defs>
    <g id="Page-1" stroke="none" stroke-width="1" fill="none" fill-rule="evenodd">
        <g id="Final---3" transform="translate(-15.000000, -14.000000)">
            <g id="Group-4" transform="translate(15.000000, 14.000000)">
                <rect id="Rectangle" stroke="#C7C9CD" fill="url(#linearGradient-1)" x="0.5" y="0.5" width="152" height="30" rx="3"></rect>
                <path d="M39.4248047,17.3544922 L41.0107422,20 L42.6376953,20 L40.3066406,16.3632812 L42.6650391,12.8085938 L41.0380859,12.8085938 L39.4863281,15.4130859 L39.4589844,15.4130859 L37.8867188,12.8085938 L36.2324219,12.8085938 L38.5703125,16.4111328 L36.1982422,20 L37.7978516,20 L39.390625,17.3544922 L39.4248047,17.3544922 Z M49.7035156,15.2832031 C49.5736328,13.8681641 48.4457031,12.6787109 46.5931641,12.6787109 C44.5492188,12.6787109 43.209375,14.1210938 43.209375,16.4042969 C43.209375,18.7285156 44.5492188,20.1367188 46.6068359,20.1367188 C48.3363281,20.1367188 49.5599609,19.0976562 49.7171875,17.5664062 L48.2953125,17.5664062 C48.1244141,18.4003906 47.5296875,18.8994141 46.6205078,18.8994141 C45.4720703,18.8994141 44.7132813,17.9833984 44.7132813,16.4042969 C44.7132813,14.859375 45.4652344,13.9091797 46.6068359,13.9091797 C47.5707031,13.9091797 48.1449219,14.5175781 48.2953125,15.2832031 L49.7035156,15.2832031 Z M53.9529297,20.1367188 C56.0105469,20.1367188 57.3640625,18.7216797 57.3640625,16.4042969 C57.3640625,14.09375 56.0037109,12.6787109 53.9529297,12.6787109 C51.9021484,12.6787109 50.5417969,14.09375 50.5417969,16.4042969 C50.5417969,18.7216797 51.8953125,20.1367188 53.9529297,20.1367188 Z M53.9529297,18.9199219 C52.7976563,18.9199219 52.0457031,18.0039062 52.0457031,16.4042969 C52.0457031,14.8115234 52.7976563,13.8955078 53.9529297,13.8955078 C55.1082031,13.8955078 55.8601563,14.8115234 55.8601563,16.4042969 C55.8601563,18.0039062 55.1150391,18.9199219 53.9529297,18.9199219 Z M61.3058594,20.1230469 C62.3517578,20.1230469 63.1720703,19.5966797 63.5958984,18.7763672 L63.6232422,18.7763672 L63.6232422,20 L65.0587891,20 L65.0587891,10.1357422 L63.5753906,10.1357422 L63.5753906,14.0048828 L63.5480469,14.0048828 C63.1447266,13.2119141 62.3244141,12.6923828 61.2921875,12.6923828 C59.4875,12.6923828 58.284375,14.1347656 58.284375,16.4042969 C58.284375,18.6738281 59.4875,20.1230469 61.3058594,20.1230469 Z M61.6955078,13.9365234 C62.8302734,13.9365234 63.5890625,14.9140625 63.5890625,16.4042969 C63.5890625,17.9082031 62.8302734,18.8720703 61.6955078,18.8720703 C60.5265625,18.8720703 59.7951172,17.921875 59.7951172,16.4042969 C59.7951172,14.8935547 60.5265625,13.9365234 61.6955078,13.9365234 Z M71.4341797,17.8876953 C71.2359375,18.5166016 70.6138672,18.9404297 69.7730469,18.9404297 C68.5904297,18.9404297 67.8384766,18.1132812 67.8384766,16.8623047 L67.8384766,16.7734375 L72.9175781,16.7734375 L72.9175781,16.2675781 C72.9175781,14.0869141 71.6734375,12.6787109 69.6773438,12.6787109 C67.6470703,12.6787109 66.3482422,14.1826172 66.3482422,16.4384766 C66.3482422,18.7080078 67.6265625,20.1367188 69.7388672,20.1367188 C71.3863281,20.1367188 72.6304688,19.2001953 72.8355469,17.8876953 L71.4341797,17.8876953 Z M69.6773438,13.8681641 C70.7095703,13.8681641 71.4068359,14.640625 71.4410156,15.7412109 L67.8453125,15.7412109 C67.9205078,14.6542969 68.6451172,13.8681641 69.6773438,13.8681641 Z M78.7050781,16.6640625 L78.7050781,15.3310547 L74.2207031,15.3310547 L74.2207031,16.6640625 L78.7050781,16.6640625 Z M80.1996094,14.8457031 C80.1996094,15.8916016 80.8763672,16.5478516 82.2435547,16.8623047 L83.4125,17.1357422 C84.1986328,17.3134766 84.4652344,17.5869141 84.4652344,18.0517578 C84.4652344,18.6396484 83.9183594,19.0087891 83.0296875,19.0087891 C82.1273437,19.0087891 81.6146484,18.6396484 81.4779297,17.8876953 L80.0150391,17.8876953 C80.1517578,19.2548828 81.2318359,20.1367188 83.0296875,20.1367188 C84.725,20.1367188 85.9486328,19.234375 85.9486328,17.921875 C85.9486328,16.8828125 85.3880859,16.3085938 83.9183594,15.9667969 L82.7494141,15.7001953 C81.9701172,15.5224609 81.6419922,15.2148438 81.6419922,14.7636719 C81.6419922,14.1894531 82.1751953,13.7998047 82.975,13.7998047 C83.8021484,13.7998047 84.3148437,14.2373047 84.396875,14.9345703 L85.7845703,14.9345703 C85.7367187,13.6083984 84.6498047,12.6787109 82.975,12.6787109 C81.3207031,12.6787109 80.1996094,13.5605469 80.1996094,14.8457031 Z M87.2449219,20 L88.7214844,20 L88.7214844,15.84375 C88.7214844,14.7089844 89.3914063,13.9570312 90.4851563,13.9570312 C91.5242188,13.9570312 92.0574219,14.5927734 92.0574219,15.6523438 L92.0574219,20 L93.5408203,20 L93.5408203,15.3652344 C93.5408203,13.7382812 92.5974609,12.6855469 91.0183594,12.6855469 C89.9246094,12.6855469 89.1384766,13.1708984 88.7419922,14.0117188 L88.7078125,14.0117188 L88.7078125,10.1357422 L87.2449219,10.1357422 L87.2449219,20 Z M98.1525391,20.1367188 C100.210156,20.1367188 101.563672,18.7216797 101.563672,16.4042969 C101.563672,14.09375 100.20332,12.6787109 98.1525391,12.6787109 C96.1017578,12.6787109 94.7414063,14.09375 94.7414063,16.4042969 C94.7414063,18.7216797 96.0949219,20.1367188 98.1525391,20.1367188 Z M98.1525391,18.9199219 C96.9972656,18.9199219 96.2453125,18.0039062 96.2453125,16.4042969 C96.2453125,14.8115234 96.9972656,13.8955078 98.1525391,13.8955078 C99.3078125,13.8955078 100.059766,14.8115234 100.059766,16.4042969 C100.059766,18.0039062 99.3146484,18.9199219 98.1525391,18.9199219 Z M106.551367,12.6923828 C105.512305,12.6923828 104.685156,13.21875 104.261328,14.0458984 L104.233984,14.0458984 L104.233984,12.8085938 L102.805273,12.8085938 L102.805273,22.3789062 L104.281836,22.3789062 L104.281836,18.8173828 L104.316016,18.8173828 C104.726172,19.6171875 105.546484,20.1230469 106.578711,20.1230469 C108.383398,20.1230469 109.579688,18.6806641 109.579688,16.4042969 C109.579688,14.1279297 108.376563,12.6923828 106.551367,12.6923828 Z M106.161719,18.8720703 C105.026953,18.8720703 104.275,17.9013672 104.275,16.4042969 C104.275,14.9208984 105.033789,13.9365234 106.161719,13.9365234 C107.330664,13.9365234 108.062109,14.9003906 108.062109,16.4042969 C108.062109,17.9150391 107.330664,18.8720703 106.161719,18.8720703 Z M111.586914,20.0751953 C112.085938,20.0751953 112.482422,19.6787109 112.482422,19.1796875 C112.482422,18.6806641 112.085938,18.2841797 111.586914,18.2841797 C111.087891,18.2841797 110.691406,18.6806641 110.691406,19.1796875 C110.691406,19.6787109 111.087891,20.0751953 111.586914,20.0751953 Z M120.054102,15.2832031 C119.924219,13.8681641 118.796289,12.6787109 116.94375,12.6787109 C114.899805,12.6787109 113.559961,14.1210938 113.559961,16.4042969 C113.559961,18.7285156 114.899805,20.1367188 116.957422,20.1367188 C118.686914,20.1367188 119.910547,19.0976562 120.067773,17.5664062 L118.645898,17.5664062 C118.475,18.4003906 117.880273,18.8994141 116.971094,18.8994141 C115.822656,18.8994141 115.063867,17.9833984 115.063867,16.4042969 C115.063867,14.859375 115.81582,13.9091797 116.957422,13.9091797 C117.921289,13.9091797 118.495508,14.5175781 118.645898,15.2832031 L120.054102,15.2832031 Z M124.303516,20.1367188 C126.361133,20.1367188 127.714648,18.7216797 127.714648,16.4042969 C127.714648,14.09375 126.354297,12.6787109 124.303516,12.6787109 C122.252734,12.6787109 120.892383,14.09375 120.892383,16.4042969 C120.892383,18.7216797 122.245898,20.1367188 124.303516,20.1367188 Z M124.303516,18.9199219 C123.148242,18.9199219 122.396289,18.0039062 122.396289,16.4042969 C122.396289,14.8115234 123.148242,13.8955078 124.303516,13.8955078 C125.458789,13.8955078 126.210742,14.8115234 126.210742,16.4042969 C126.210742,18.0039062 125.465625,18.9199219 124.303516,18.9199219 Z M128.95625,20 L128.95625,12.8085938 L130.364453,12.8085938 L130.364453,14.0185547 L130.398633,14.0185547 C130.719922,13.21875 131.471875,12.6855469 132.442578,12.6855469 C133.440625,12.6855469 134.165234,13.1982422 134.452344,14.09375 L134.486523,14.09375 C134.855664,13.21875 135.70332,12.6855469 136.728711,12.6855469 C138.150586,12.6855469 139.080273,13.6289062 139.080273,15.0576172 L139.080273,20 L137.596875,20 L137.596875,15.4130859 C137.596875,14.4833984 137.097852,13.9501953 136.222852,13.9501953 C135.347852,13.9501953 134.739453,14.5996094 134.739453,15.5087891 L134.739453,20 L133.290234,20 L133.290234,15.3037109 C133.290234,14.4765625 132.763867,13.9501953 131.929883,13.9501953 C131.054883,13.9501953 130.432812,14.6337891 130.432812,15.5566406 L130.432812,20 L128.95625,20 Z" id="xcode-shop.com" fill="#000000" fill-rule="nonzero"></path>
                <path d="M16.9921875,22.4628906 L25.03125,22.4628906 C26.3505859,22.4628906 27.1162109,21.6972656 27.1162109,20.234375 L27.1162109,13.1591797 C27.1162109,11.6962891 26.34375,10.9306641 24.8671875,10.9306641 L23.9033203,10.9306641 C23.8691406,9.39941406 22.5634766,8.12792969 20.9296875,8.12792969 C19.3027344,8.12792969 17.9902344,9.39941406 17.9560547,10.9306641 L16.9921875,10.9306641 C15.515625,10.9306641 14.7431641,11.6962891 14.7431641,13.1591797 L14.7431641,20.234375 C14.7431641,21.6972656 15.515625,22.4628906 16.9921875,22.4628906 Z M20.9296875,9.33789062 C21.8662109,9.33789062 22.5566406,10.0419922 22.5839844,10.9306641 L19.2753906,10.9306641 C19.3027344,10.0419922 19.9931641,9.33789062 20.9296875,9.33789062 Z M17.0810547,21.1025391 C16.4521484,21.1025391 16.1035156,20.7744141 16.1035156,20.1113281 L16.1035156,13.2822266 C16.1035156,12.6259766 16.4521484,12.2978516 17.0810547,12.2978516 L24.7783203,12.2978516 C25.4003906,12.2978516 25.7558594,12.6259766 25.7558594,13.2822266 L25.7558594,20.1113281 C25.7558594,20.7744141 25.4003906,21.1025391 24.9423828,21.1025391 L17.0810547,21.1025391 Z" id="icon" fill="#000000" fill-rule="nonzero"></path>
            </g>
        </g>
    </g>
</svg>