<?xml version="1.0" encoding="UTF-8"?>
<svg width="151px" height="31px" viewBox="0 0 151 31" version="1.1" xmlns="http://www.w3.org/2000/svg" xmlns:xlink="http://www.w3.org/1999/xlink">
    <!-- Generator: Sketch 59.1 (86144) - https://sketch.com -->
    <title>xcode-shop</title>
    <desc>Created with Sketch.</desc>
    <defs>
        <linearGradient x1="50%" y1="0%" x2="50%" y2="100%" id="linearGradient-1">
            <stop stop-color="#F9FBFB" offset="0%"></stop>
            <stop stop-color="#EEF2F5" offset="100%"></stop>
        </linearGradient>
    </defs>
    <g id="Page-1" stroke="none" stroke-width="1" fill="none" fill-rule="evenodd">
        <g id="Artboard" transform="translate(-15.000000, -160.000000)">
            <g id="xcode-shop" transform="translate(15.000000, 160.000000)">
                <rect id="Rectangle" stroke="#C7C9CD" fill="url(#linearGradient-1)" x="0.5" y="0.5" width="150" height="30" rx="3"></rect>
                <path d="M37.2753906,17.5878906 L38.671875,20 L40.3984375,20 L38.2592773,16.5976562 L40.4238281,13.2714844 L38.690918,13.2714844 L37.3515625,15.6328125 L37.3198242,15.6328125 L35.9614258,13.2714844 L34.184082,13.2714844 L36.3359375,16.6420898 L34.1650391,20 L35.847168,20 L37.2436523,17.5878906 L37.2753906,17.5878906 Z M47.4436523,15.6708984 C47.3357422,14.2553711 46.2375977,13.1318359 44.4602539,13.1318359 C42.5051758,13.1318359 41.2356445,14.4838867 41.2356445,16.6357422 C41.2356445,18.8193359 42.5051758,20.1333008 44.4729492,20.1333008 C46.1614258,20.1333008 47.3230469,19.1430664 47.45,17.6386719 L45.9583008,17.6386719 C45.8123047,18.4003906 45.2917969,18.8574219 44.4919922,18.8574219 C43.4890625,18.8574219 42.8416016,18.0449219 42.8416016,16.6357422 C42.8416016,15.2519531 43.4827148,14.4140625 44.4792969,14.4140625 C45.3235352,14.4140625 45.825,14.9536133 45.9519531,15.6708984 L47.4436523,15.6708984 Z M51.8165039,20.1333008 C53.790625,20.1333008 55.0728516,18.8193359 55.0728516,16.6357422 C55.0728516,14.4584961 53.7779297,13.1318359 51.8165039,13.1318359 C49.8550781,13.1318359 48.5601562,14.4648438 48.5601562,16.6357422 C48.5601562,18.8193359 49.8423828,20.1333008 51.8165039,20.1333008 Z M51.8165039,18.8828125 C50.8135742,18.8828125 50.1661133,18.0703125 50.1661133,16.6357422 C50.1661133,15.2075195 50.8199219,14.3886719 51.8165039,14.3886719 C52.8194336,14.3886719 53.4668945,15.2075195 53.4668945,16.6357422 C53.4668945,18.0703125 52.8194336,18.8828125 51.8165039,18.8828125 Z M59.0521484,20.1079102 C60.0360352,20.1079102 60.8104492,19.6064453 61.1786133,18.8510742 L61.2040039,18.8510742 L61.2040039,20 L62.752832,20 L62.752832,10.840332 L61.1722656,10.840332 L61.1722656,14.4013672 L61.1341797,14.4013672 C60.7787109,13.6586914 60.0169922,13.1572266 59.0521484,13.1572266 C57.3573242,13.1572266 56.2591797,14.5029297 56.2591797,16.6293945 C56.2591797,18.7685547 57.3573242,20.1079102 59.0521484,20.1079102 Z M59.5282227,14.4584961 C60.5248047,14.4584961 61.1786133,15.3154297 61.1786133,16.6357422 C61.1786133,17.96875 60.5248047,18.8129883 59.5282227,18.8129883 C58.50625,18.8129883 57.877832,17.9750977 57.877832,16.6357422 C57.877832,15.3027344 58.5125977,14.4584961 59.5282227,14.4584961 Z M68.9855469,17.987793 C68.8141602,18.5463867 68.2555664,18.9145508 67.5192383,18.9145508 C66.4845703,18.9145508 65.8244141,18.190918 65.8244141,17.1118164 L65.8244141,17.0166016 L70.5280273,17.0166016 L70.5280273,16.5024414 C70.5280273,14.4584961 69.334668,13.1318359 67.4240234,13.1318359 C65.4816406,13.1318359 64.2501953,14.534668 64.2501953,16.6611328 C64.2501953,18.8066406 65.4689453,20.1333008 67.4875,20.1333008 C69.0807617,20.1333008 70.2614258,19.2573242 70.4645508,17.987793 L68.9855469,17.987793 Z M67.4303711,14.3569336 C68.3380859,14.3569336 68.9474609,15.0234375 68.9791992,15.9755859 L65.8371094,15.9755859 C65.9005859,15.0361328 66.5416992,14.3569336 67.4303711,14.3569336 Z M76.2719727,16.9848633 L76.2719727,15.5756836 L72.1015625,15.5756836 L72.1015625,16.9848633 L76.2719727,16.9848633 Z M78.0041992,15.2011719 C78.0041992,16.1977539 78.6516602,16.8325195 79.9402344,17.1181641 L81.0574219,17.3657227 C81.7620117,17.5244141 82.0032227,17.7529297 82.0032227,18.1591797 C82.0032227,18.6606445 81.5271484,18.9780273 80.759082,18.9780273 C79.9592773,18.9780273 79.5085938,18.6479492 79.3879883,17.9941406 L77.8328125,17.9941406 C77.9597656,19.2954102 79.0007813,20.1333008 80.759082,20.1333008 C82.4094727,20.1333008 83.5774414,19.2763672 83.5774414,18.0068359 C83.5774414,17.0292969 83.0378906,16.4897461 81.6414063,16.1787109 L80.5242188,15.9311523 C79.8196289,15.7724609 79.540332,15.5058594 79.540332,15.1186523 C79.540332,14.6235352 80.0037109,14.293457 80.7019531,14.293457 C81.4319336,14.293457 81.8826172,14.6806641 81.9460938,15.2900391 L83.41875,15.2900391 C83.3806641,14.0141602 82.3396484,13.1318359 80.7019531,13.1318359 C79.0769531,13.1318359 78.0041992,13.9697266 78.0041992,15.2011719 Z M85.0748047,20 L86.6553711,20 L86.6553711,16.1342773 C86.6553711,15.144043 87.2330078,14.4838867 88.1851563,14.4838867 C89.0992188,14.4838867 89.5689453,15.0488281 89.5689453,15.9882812 L89.5689453,20 L91.1495117,20 L91.1495117,15.6645508 C91.1495117,14.1220703 90.2798828,13.1445312 88.7945313,13.1445312 C87.7725586,13.1445312 87.0298828,13.6079102 86.6680664,14.4267578 L86.6363281,14.4267578 L86.6363281,10.840332 L85.0748047,10.840332 L85.0748047,20 Z M95.8397461,20.1333008 C97.8138672,20.1333008 99.0960938,18.8193359 99.0960938,16.6357422 C99.0960938,14.4584961 97.8011719,13.1318359 95.8397461,13.1318359 C93.8783203,13.1318359 92.5833984,14.4648438 92.5833984,16.6357422 C92.5833984,18.8193359 93.865625,20.1333008 95.8397461,20.1333008 Z M95.8397461,18.8828125 C94.8368164,18.8828125 94.1893555,18.0703125 94.1893555,16.6357422 C94.1893555,15.2075195 94.8431641,14.3886719 95.8397461,14.3886719 C96.8426758,14.3886719 97.4901367,15.2075195 97.4901367,16.6357422 C97.4901367,18.0703125 96.8426758,18.8828125 95.8397461,18.8828125 Z M104.256055,13.1572266 C103.278516,13.1572266 102.516797,13.6523438 102.135938,14.4331055 L102.104199,14.4331055 L102.104199,13.2714844 L100.561719,13.2714844 L100.561719,22.215332 L102.142285,22.215332 L102.142285,18.8828125 L102.174023,18.8828125 C102.542188,19.6381836 103.303906,20.1079102 104.281445,20.1079102 C105.969922,20.1079102 107.049023,18.78125 107.049023,16.6357422 C107.049023,14.4838867 105.963574,13.1572266 104.256055,13.1572266 Z M103.773633,18.8129883 C102.789746,18.8129883 102.135938,17.9560547 102.12959,16.6357422 C102.135938,15.328125 102.789746,14.4584961 103.773633,14.4584961 C104.795605,14.4584961 105.430371,15.309082 105.430371,16.6357422 C105.430371,17.96875 104.795605,18.8129883 103.773633,18.8129883 Z M109.358887,20.0698242 C109.866699,20.0698242 110.266602,19.6699219 110.266602,19.1557617 C110.266602,18.6479492 109.866699,18.2416992 109.358887,18.2416992 C108.844727,18.2416992 108.444824,18.6479492 108.444824,19.1557617 C108.444824,19.6699219 108.844727,20.0698242 109.358887,20.0698242 Z M117.813281,15.6708984 C117.705371,14.2553711 116.607227,13.1318359 114.829883,13.1318359 C112.874805,13.1318359 111.605273,14.4838867 111.605273,16.6357422 C111.605273,18.8193359 112.874805,20.1333008 114.842578,20.1333008 C116.531055,20.1333008 117.692676,19.1430664 117.819629,17.6386719 L116.32793,17.6386719 C116.181934,18.4003906 115.661426,18.8574219 114.861621,18.8574219 C113.858691,18.8574219 113.21123,18.0449219 113.21123,16.6357422 C113.21123,15.2519531 113.852344,14.4140625 114.848926,14.4140625 C115.693164,14.4140625 116.194629,14.9536133 116.321582,15.6708984 L117.813281,15.6708984 Z M122.186133,20.1333008 C124.160254,20.1333008 125.44248,18.8193359 125.44248,16.6357422 C125.44248,14.4584961 124.147559,13.1318359 122.186133,13.1318359 C120.224707,13.1318359 118.929785,14.4648438 118.929785,16.6357422 C118.929785,18.8193359 120.212012,20.1333008 122.186133,20.1333008 Z M122.186133,18.8828125 C121.183203,18.8828125 120.535742,18.0703125 120.535742,16.6357422 C120.535742,15.2075195 121.189551,14.3886719 122.186133,14.3886719 C123.189063,14.3886719 123.836523,15.2075195 123.836523,16.6357422 C123.836523,18.0703125 123.189063,18.8828125 122.186133,18.8828125 Z M126.908105,20 L126.908105,13.2714844 L128.425195,13.2714844 L128.425195,14.4394531 L128.456934,14.4394531 C128.748926,13.6586914 129.459863,13.1445312 130.373926,13.1445312 C131.326074,13.1445312 132.005273,13.6333008 132.252832,14.496582 L132.290918,14.496582 C132.614648,13.6650391 133.414453,13.1445312 134.385645,13.1445312 C135.712305,13.1445312 136.581934,14.0395508 136.581934,15.3852539 L136.581934,20 L135.001367,20 L135.001367,15.7724609 C135.001367,14.9472656 134.569727,14.4775391 133.795313,14.4775391 C133.033594,14.4775391 132.513086,15.0361328 132.513086,15.8422852 L132.513086,20 L130.976953,20 L130.976953,15.6899414 C130.976953,14.940918 130.519922,14.4775391 129.783594,14.4775391 C129.021875,14.4775391 128.488672,15.0678711 128.488672,15.8803711 L128.488672,20 L126.908105,20 Z" id="xcode-shop.com" fill="#000000" fill-rule="nonzero"></path>
                <path d="M15.3924228,23 L23.6361085,23 C25.0603368,23 25.8882133,22.1651076 25.8882133,20.621609 L25.8882133,13.3741815 C25.8882133,11.823667 25.0533209,10.9957905 23.4957905,10.9957905 L22.6047708,10.9957905 C22.5767072,9.34003742 21.1875585,8 19.4476146,8 C17.7076707,8 16.3115061,9.34003742 16.2834425,10.9957905 L15.3924228,10.9957905 C13.8348924,10.9957905 13,11.823667 13,13.3741815 L13,20.621609 C13,22.1721235 13.8348924,23 15.3924228,23 Z M19.4476146,9.37511693 C20.3877456,9.37511693 21.0612722,10.090739 21.0893358,10.9957905 L17.8058934,10.9957905 C17.8269411,10.090739 18.5074836,9.37511693 19.4476146,9.37511693 Z M15.5397568,21.3933583 C14.9293732,21.3933583 14.6066417,21.0846586 14.6066417,20.4462114 L14.6066417,13.549579 C14.6066417,12.9111319 14.9293732,12.6024322 15.5397568,12.6024322 L23.3484565,12.6024322 C23.9518241,12.6024322 24.2885875,12.9111319 24.2885875,13.549579 L24.2885875,20.4462114 C24.2885875,21.0846586 23.9518241,21.3933583 23.4957905,21.3933583 L15.5397568,21.3933583 Z" id="bag" fill="#000000" fill-rule="nonzero"></path>
            </g>
        </g>
    </g>
</svg>