<?xml version="1.0" encoding="UTF-8"?>
<svg width="156px" height="31px" viewBox="0 0 156 31" version="1.1" xmlns="http://www.w3.org/2000/svg" xmlns:xlink="http://www.w3.org/1999/xlink">
    <!-- Generator: Sketch 59.1 (86144) - https://sketch.com -->
    <title>xcode-shop</title>
    <desc>Created with Sketch.</desc>
    <defs>
        <linearGradient x1="50%" y1="0%" x2="50%" y2="100%" id="linearGradient-1">
            <stop stop-color="#F9FBFB" offset="0%"></stop>
            <stop stop-color="#EEF2F5" offset="100%"></stop>
        </linearGradient>
    </defs>
    <g id="Page-1" stroke="none" stroke-width="1" fill="none" fill-rule="evenodd">
        <g id="Artboard" transform="translate(-15.000000, -155.000000)">
            <g id="xcode-shop" transform="translate(15.000000, 155.000000)">
                <rect id="Rectangle" stroke="#C7C9CD" fill="url(#linearGradient-1)" x="0.5" y="0.5" width="155" height="30" rx="3"></rect>
                <path d="M37.2792969,20 L39.0629883,20 L41.246582,16.6357422 L41.2973633,16.6357422 L43.4555664,20 L45.3408203,20 L42.3383789,15.4487305 L42.3383789,15.4042969 L45.3916016,10.840332 L43.5571289,10.840332 L41.4116211,14.2807617 L41.3608398,14.2807617 L39.2407227,10.840332 L37.3046875,10.840332 L40.2626953,15.3662109 L40.2626953,15.4106445 L37.2792969,20 Z M52.2146484,15.6708984 C52.1067383,14.2553711 51.0085938,13.1318359 49.23125,13.1318359 C47.2761719,13.1318359 46.0066406,14.4838867 46.0066406,16.6357422 C46.0066406,18.8193359 47.2761719,20.1333008 49.2439453,20.1333008 C50.9324219,20.1333008 52.094043,19.1430664 52.2209961,17.6386719 L50.7292969,17.6386719 C50.5833008,18.4003906 50.062793,18.8574219 49.2629883,18.8574219 C48.2600586,18.8574219 47.6125977,18.0449219 47.6125977,16.6357422 C47.6125977,15.2519531 48.2537109,14.4140625 49.250293,14.4140625 C50.0945313,14.4140625 50.5959961,14.9536133 50.7229492,15.6708984 L52.2146484,15.6708984 Z M56.5875,20.1333008 C58.5616211,20.1333008 59.8438477,18.8193359 59.8438477,16.6357422 C59.8438477,14.4584961 58.5489258,13.1318359 56.5875,13.1318359 C54.6260742,13.1318359 53.3311523,14.4648438 53.3311523,16.6357422 C53.3311523,18.8193359 54.6133789,20.1333008 56.5875,20.1333008 Z M56.5875,18.8828125 C55.5845703,18.8828125 54.9371094,18.0703125 54.9371094,16.6357422 C54.9371094,15.2075195 55.590918,14.3886719 56.5875,14.3886719 C57.5904297,14.3886719 58.2378906,15.2075195 58.2378906,16.6357422 C58.2378906,18.0703125 57.5904297,18.8828125 56.5875,18.8828125 Z M63.8231445,20.1079102 C64.8070312,20.1079102 65.5814453,19.6064453 65.9496094,18.8510742 L65.975,18.8510742 L65.975,20 L67.5238281,20 L67.5238281,10.840332 L65.9432617,10.840332 L65.9432617,14.4013672 L65.9051758,14.4013672 C65.549707,13.6586914 64.7879883,13.1572266 63.8231445,13.1572266 C62.1283203,13.1572266 61.0301758,14.5029297 61.0301758,16.6293945 C61.0301758,18.7685547 62.1283203,20.1079102 63.8231445,20.1079102 Z M64.2992187,14.4584961 C65.2958008,14.4584961 65.9496094,15.3154297 65.9496094,16.6357422 C65.9496094,17.96875 65.2958008,18.8129883 64.2992187,18.8129883 C63.2772461,18.8129883 62.6488281,17.9750977 62.6488281,16.6357422 C62.6488281,15.3027344 63.2835937,14.4584961 64.2992187,14.4584961 Z M73.756543,17.987793 C73.5851562,18.5463867 73.0265625,18.9145508 72.2902344,18.9145508 C71.2555664,18.9145508 70.5954102,18.190918 70.5954102,17.1118164 L70.5954102,17.0166016 L75.2990234,17.0166016 L75.2990234,16.5024414 C75.2990234,14.4584961 74.1056641,13.1318359 72.1950195,13.1318359 C70.2526367,13.1318359 69.0211914,14.534668 69.0211914,16.6611328 C69.0211914,18.8066406 70.2399414,20.1333008 72.2584961,20.1333008 C73.8517578,20.1333008 75.0324219,19.2573242 75.2355469,17.987793 L73.756543,17.987793 Z M72.2013672,14.3569336 C73.109082,14.3569336 73.718457,15.0234375 73.7501953,15.9755859 L70.6081055,15.9755859 C70.671582,15.0361328 71.3126953,14.3569336 72.2013672,14.3569336 Z M81.0429688,16.9848633 L81.0429688,15.5756836 L76.8725586,15.5756836 L76.8725586,16.9848633 L81.0429688,16.9848633 Z M82.7751953,15.2011719 C82.7751953,16.1977539 83.4226563,16.8325195 84.7112305,17.1181641 L85.828418,17.3657227 C86.5330078,17.5244141 86.7742188,17.7529297 86.7742188,18.1591797 C86.7742188,18.6606445 86.2981445,18.9780273 85.5300781,18.9780273 C84.7302734,18.9780273 84.2795898,18.6479492 84.1589844,17.9941406 L82.6038086,17.9941406 C82.7307617,19.2954102 83.7717773,20.1333008 85.5300781,20.1333008 C87.1804688,20.1333008 88.3484375,19.2763672 88.3484375,18.0068359 C88.3484375,17.0292969 87.8088867,16.4897461 86.4124023,16.1787109 L85.2952148,15.9311523 C84.590625,15.7724609 84.3113281,15.5058594 84.3113281,15.1186523 C84.3113281,14.6235352 84.774707,14.293457 85.4729492,14.293457 C86.2029297,14.293457 86.6536133,14.6806641 86.7170898,15.2900391 L88.1897461,15.2900391 C88.1516602,14.0141602 87.1106445,13.1318359 85.4729492,13.1318359 C83.8479492,13.1318359 82.7751953,13.9697266 82.7751953,15.2011719 Z M89.8458008,20 L91.4263672,20 L91.4263672,16.1342773 C91.4263672,15.144043 92.0040039,14.4838867 92.9561523,14.4838867 C93.8702148,14.4838867 94.3399414,15.0488281 94.3399414,15.9882812 L94.3399414,20 L95.9205078,20 L95.9205078,15.6645508 C95.9205078,14.1220703 95.0508789,13.1445312 93.5655273,13.1445312 C92.5435547,13.1445312 91.8008789,13.6079102 91.4390625,14.4267578 L91.4073242,14.4267578 L91.4073242,10.840332 L89.8458008,10.840332 L89.8458008,20 Z M100.610742,20.1333008 C102.584863,20.1333008 103.86709,18.8193359 103.86709,16.6357422 C103.86709,14.4584961 102.572168,13.1318359 100.610742,13.1318359 C98.6493164,13.1318359 97.3543945,14.4648438 97.3543945,16.6357422 C97.3543945,18.8193359 98.6366211,20.1333008 100.610742,20.1333008 Z M100.610742,18.8828125 C99.6078125,18.8828125 98.9603516,18.0703125 98.9603516,16.6357422 C98.9603516,15.2075195 99.6141602,14.3886719 100.610742,14.3886719 C101.613672,14.3886719 102.261133,15.2075195 102.261133,16.6357422 C102.261133,18.0703125 101.613672,18.8828125 100.610742,18.8828125 Z M109.027051,13.1572266 C108.049512,13.1572266 107.287793,13.6523438 106.906934,14.4331055 L106.875195,14.4331055 L106.875195,13.2714844 L105.332715,13.2714844 L105.332715,22.215332 L106.913281,22.215332 L106.913281,18.8828125 L106.94502,18.8828125 C107.313184,19.6381836 108.074902,20.1079102 109.052441,20.1079102 C110.740918,20.1079102 111.82002,18.78125 111.82002,16.6357422 C111.82002,14.4838867 110.73457,13.1572266 109.027051,13.1572266 Z M108.544629,18.8129883 C107.560742,18.8129883 106.906934,17.9560547 106.900586,16.6357422 C106.906934,15.328125 107.560742,14.4584961 108.544629,14.4584961 C109.566602,14.4584961 110.201367,15.309082 110.201367,16.6357422 C110.201367,17.96875 109.566602,18.8129883 108.544629,18.8129883 Z M114.129883,20.0698242 C114.637695,20.0698242 115.037598,19.6699219 115.037598,19.1557617 C115.037598,18.6479492 114.637695,18.2416992 114.129883,18.2416992 C113.615723,18.2416992 113.21582,18.6479492 113.21582,19.1557617 C113.21582,19.6699219 113.615723,20.0698242 114.129883,20.0698242 Z M122.584277,15.6708984 C122.476367,14.2553711 121.378223,13.1318359 119.600879,13.1318359 C117.645801,13.1318359 116.37627,14.4838867 116.37627,16.6357422 C116.37627,18.8193359 117.645801,20.1333008 119.613574,20.1333008 C121.302051,20.1333008 122.463672,19.1430664 122.590625,17.6386719 L121.098926,17.6386719 C120.95293,18.4003906 120.432422,18.8574219 119.632617,18.8574219 C118.629688,18.8574219 117.982227,18.0449219 117.982227,16.6357422 C117.982227,15.2519531 118.62334,14.4140625 119.619922,14.4140625 C120.46416,14.4140625 120.965625,14.9536133 121.092578,15.6708984 L122.584277,15.6708984 Z M126.957129,20.1333008 C128.93125,20.1333008 130.213477,18.8193359 130.213477,16.6357422 C130.213477,14.4584961 128.918555,13.1318359 126.957129,13.1318359 C124.995703,13.1318359 123.700781,14.4648438 123.700781,16.6357422 C123.700781,18.8193359 124.983008,20.1333008 126.957129,20.1333008 Z M126.957129,18.8828125 C125.954199,18.8828125 125.306738,18.0703125 125.306738,16.6357422 C125.306738,15.2075195 125.960547,14.3886719 126.957129,14.3886719 C127.960059,14.3886719 128.60752,15.2075195 128.60752,16.6357422 C128.60752,18.0703125 127.960059,18.8828125 126.957129,18.8828125 Z M131.679102,20 L131.679102,13.2714844 L133.196191,13.2714844 L133.196191,14.4394531 L133.22793,14.4394531 C133.519922,13.6586914 134.230859,13.1445312 135.144922,13.1445312 C136.09707,13.1445312 136.77627,13.6333008 137.023828,14.496582 L137.061914,14.496582 C137.385645,13.6650391 138.185449,13.1445312 139.156641,13.1445312 C140.483301,13.1445312 141.35293,14.0395508 141.35293,15.3852539 L141.35293,20 L139.772363,20 L139.772363,15.7724609 C139.772363,14.9472656 139.340723,14.4775391 138.566309,14.4775391 C137.80459,14.4775391 137.284082,15.0361328 137.284082,15.8422852 L137.284082,20 L135.747949,20 L135.747949,15.6899414 C135.747949,14.940918 135.290918,14.4775391 134.55459,14.4775391 C133.792871,14.4775391 133.259668,15.0678711 133.259668,15.8803711 L133.259668,20 L131.679102,20 Z" id="Xcode-shop.com" fill="#000000" fill-rule="nonzero"></path>
                <path d="M16.8924228,23 L25.1361085,23 C26.5603368,23 27.3882133,22.1651076 27.3882133,20.621609 L27.3882133,13.3741815 C27.3882133,11.823667 26.5533209,10.9957905 24.9957905,10.9957905 L24.1047708,10.9957905 C24.0767072,9.34003742 22.6875585,8 20.9476146,8 C19.2076707,8 17.8115061,9.34003742 17.7834425,10.9957905 L16.8924228,10.9957905 C15.3348924,10.9957905 14.5,11.823667 14.5,13.3741815 L14.5,20.621609 C14.5,22.1721235 15.3348924,23 16.8924228,23 Z M20.9476146,9.37511693 C21.8877456,9.37511693 22.5612722,10.090739 22.5893358,10.9957905 L19.3058934,10.9957905 C19.3269411,10.090739 20.0074836,9.37511693 20.9476146,9.37511693 Z M17.0397568,21.3933583 C16.4293732,21.3933583 16.1066417,21.0846586 16.1066417,20.4462114 L16.1066417,13.549579 C16.1066417,12.9111319 16.4293732,12.6024322 17.0397568,12.6024322 L24.8484565,12.6024322 C25.4518241,12.6024322 25.7885875,12.9111319 25.7885875,13.549579 L25.7885875,20.4462114 C25.7885875,21.0846586 25.4518241,21.3933583 24.9957905,21.3933583 L17.0397568,21.3933583 Z" id="bag" fill="#000000" fill-rule="nonzero"></path>
            </g>
        </g>
    </g>
</svg>