<?xml version="1.0" encoding="UTF-8"?>
<svg width="1600px" height="80px" viewBox="0 0 1600 80" version="1.1" xmlns="http://www.w3.org/2000/svg" xmlns:xlink="http://www.w3.org/1999/xlink">
    <!-- Generator: Sketch 52.4 (67378) - http://www.bohemiancoding.com/sketch -->
    <title>request-permission - shop</title>
    <desc>Created with Sketch.</desc>
    <g id="request-permission---shop" stroke="none" stroke-width="1" fill="none" fill-rule="evenodd">
        <rect fill="#FFFFFF" x="0" y="0" width="1600" height="80"></rect>
        <g id="Group" transform="translate(0.000000, 18.000000)" fill-rule="nonzero">
            <path d="M1600,22.5 L0,22.5" id="Line-4" stroke="#007AFF" stroke-width="3" stroke-linecap="square"></path>
            <rect id="Rectangle" fill="#FFFFFF" x="699" y="0" width="203" height="45" rx="10"></rect>
        </g>
        <path d="M723.617354,49 L729.244795,40.1254883 L723.653975,31.3852539 L727.987471,31.3852539 L731.661787,37.5498047 L731.881514,37.5498047 L735.592451,31.3852539 L739.718428,31.3852539 L733.920088,40.1865234 L739.632979,49 L735.43376,49 L731.64958,43.0307617 L731.429854,43.0307617 L727.596846,49 L723.617354,49 Z M748.177158,49.4516602 C743.074619,49.4516602 739.912998,45.9238281 739.912998,40.1865234 C739.912998,34.4614258 743.062412,30.9335938 748.177158,30.9335938 C752.351963,30.9335938 755.550205,33.7045898 755.81876,37.5375977 L752.229893,37.5375977 C751.875889,35.5112305 750.276768,34.1806641 748.177158,34.1806641 C745.406162,34.1806641 743.684971,36.4755859 743.684971,40.1865234 C743.684971,43.8974609 745.406162,46.2045898 748.189365,46.2045898 C750.301182,46.2045898 751.888096,44.9594727 752.2421,43.0185547 L755.830967,43.0185547 C755.525791,46.8271484 752.425205,49.4516602 748.177158,49.4516602 Z M765.437158,30.9335938 C770.637354,30.9335938 773.896631,34.4858398 773.896631,40.1865234 C773.896631,45.8994141 770.649561,49.4516602 765.437158,49.4516602 C760.212549,49.4516602 756.953272,45.8994141 756.953272,40.1865234 C756.953272,34.4736328 760.261377,30.9335938 765.437158,30.9335938 Z M765.437158,34.168457 C762.580713,34.168457 760.725244,36.5 760.725244,40.1865234 C760.725244,43.8608398 762.544092,46.2167969 765.437158,46.2167969 C768.305811,46.2167969 770.136865,43.8608398 770.136865,40.1865234 C770.136865,36.5 768.305811,34.168457 765.437158,34.168457 Z M775.897842,31.3730469 L782.831436,31.3730469 C788.068252,31.3730469 791.095596,34.546875 791.095596,40.0644531 C791.095596,45.7895508 788.104873,49 782.831436,49 L775.897842,49 L775.897842,31.3730469 Z M779.584365,34.5224609 L779.584365,45.8505859 L782.245498,45.8505859 C785.504775,45.8505859 787.33583,43.8486328 787.33583,40.1254883 C787.33583,36.5610352 785.44374,34.5224609 782.245498,34.5224609 L779.584365,34.5224609 Z M804.754521,45.8505859 L804.754521,49 L793.0846,49 L793.0846,31.3852539 L804.754521,31.3852539 L804.754521,34.534668 L796.771123,34.534668 L796.771123,38.6484375 L804.302861,38.6484375 L804.302861,41.565918 L796.771123,41.565918 L796.771123,45.8505859 L804.754521,45.8505859 Z M811.308213,44.1049805 L814.872666,44.1049805 C815.043564,45.5332031 816.483994,46.4487305 818.559189,46.4487305 C820.475693,46.4487305 821.830674,45.5209961 821.830674,44.1904297 C821.830674,43.0673828 820.951768,42.4204102 818.791123,41.956543 L816.496201,41.4682617 C813.285752,40.796875 811.711045,39.1245117 811.711045,36.4389648 C811.711045,33.1186523 814.384385,30.9335938 818.449326,30.9335938 C822.331162,30.9335938 825.077744,33.1064453 825.187607,36.2436523 L821.720811,36.2436523 C821.549912,34.8520508 820.255967,33.9243164 818.47374,33.9243164 C816.630479,33.9243164 815.409775,34.7788086 815.409775,36.121582 C815.409775,37.2080078 816.252061,37.8305664 818.315049,38.2700195 L820.439072,38.7216797 C823.979111,39.4663086 825.50499,40.9921875 825.50499,43.7265625 C825.50499,47.2788086 822.782822,49.4516602 818.363877,49.4516602 C814.164658,49.4516602 811.44249,47.3886719 811.308213,44.1049805 Z M842.801611,49 L839.115088,49 L839.115088,41.6391602 L831.180518,41.6391602 L831.180518,49 L827.493994,49 L827.493994,31.3852539 L831.180518,31.3852539 L831.180518,38.4897461 L839.115088,38.4897461 L839.115088,31.3852539 L842.801611,31.3852539 L842.801611,49 Z M853.286709,30.9335938 C858.486904,30.9335938 861.746182,34.4858398 861.746182,40.1865234 C861.746182,45.8994141 858.499111,49.4516602 853.286709,49.4516602 C848.0621,49.4516602 844.802822,45.8994141 844.802822,40.1865234 C844.802822,34.4736328 848.110928,30.9335938 853.286709,30.9335938 Z M853.286709,34.168457 C850.430264,34.168457 848.574795,36.5 848.574795,40.1865234 C848.574795,43.8608398 850.393643,46.2167969 853.286709,46.2167969 C856.155361,46.2167969 857.986416,43.8608398 857.986416,40.1865234 C857.986416,36.5 856.155361,34.168457 853.286709,34.168457 Z M863.747393,31.3852539 L871.096025,31.3852539 C874.721514,31.3852539 877.199541,33.8144531 877.199541,37.4765625 C877.199541,41.1020508 874.623857,43.53125 870.91292,43.53125 L867.433916,43.53125 L867.433916,49 L863.747393,49 L863.747393,31.3852539 Z M867.433916,34.4125977 L867.433916,40.5405273 L870.107256,40.5405273 C872.219072,40.5405273 873.451982,39.4663086 873.451982,37.4887695 C873.451982,35.4868164 872.243486,34.4125977 870.119463,34.4125977 L867.433916,34.4125977 Z" id="XCODE-SHOP" fill="#007AFF"></path>
    </g>
</svg>