<?xml version="1.0" encoding="UTF-8"?>
<svg width="1600px" height="80px" viewBox="0 0 1600 80" version="1.1" xmlns="http://www.w3.org/2000/svg" xmlns:xlink="http://www.w3.org/1999/xlink">
    <!-- Generator: Sketch 52.4 (67378) - http://www.bohemiancoding.com/sketch -->
    <title>request-permission - shop</title>
    <desc>Created with Sketch.</desc>
    <g id="request-permission---shop" stroke="none" stroke-width="1" fill="none" fill-rule="evenodd">
        <rect fill="#FFFFFF" x="0" y="0" width="1600" height="80"></rect>
        <g id="Group" transform="translate(0.000000, 18.000000)">
            <path d="M1600,22.5 L0,22.5" id="Line-4" stroke="#007AFF" stroke-width="3" stroke-linecap="square" fill-rule="nonzero"></path>
            <rect id="Rectangle" fill="#FFFFFF" fill-rule="nonzero" x="666" y="0" width="269" height="45" rx="10"></rect>
            <path d="M691.277168,31 L696.904609,22.1254883 L691.313789,13.3852539 L695.647285,13.3852539 L699.321602,19.5498047 L699.541328,19.5498047 L703.252266,13.3852539 L707.378242,13.3852539 L701.579902,22.1865234 L707.292793,31 L703.093574,31 L699.309395,25.0307617 L699.089668,25.0307617 L695.25666,31 L691.277168,31 Z M715.836973,31.4516602 C710.734434,31.4516602 707.572813,27.9238281 707.572813,22.1865234 C707.572813,16.4614258 710.722227,12.9335938 715.836973,12.9335938 C720.011777,12.9335938 723.21002,15.7045898 723.478574,19.5375977 L719.889707,19.5375977 C719.535703,17.5112305 717.936582,16.1806641 715.836973,16.1806641 C713.065977,16.1806641 711.344785,18.4755859 711.344785,22.1865234 C711.344785,25.8974609 713.065977,28.2045898 715.84918,28.2045898 C717.960996,28.2045898 719.54791,26.9594727 719.901914,25.0185547 L723.490781,25.0185547 C723.185606,28.8271484 720.08502,31.4516602 715.836973,31.4516602 Z M733.096973,12.9335938 C738.297168,12.9335938 741.556445,16.4858398 741.556445,22.1865234 C741.556445,27.8994141 738.309375,31.4516602 733.096973,31.4516602 C727.872363,31.4516602 724.613086,27.8994141 724.613086,22.1865234 C724.613086,16.4736328 727.921191,12.9335938 733.096973,12.9335938 Z M733.096973,16.168457 C730.240527,16.168457 728.385059,18.5 728.385059,22.1865234 C728.385059,25.8608398 730.203906,28.2167969 733.096973,28.2167969 C735.965625,28.2167969 737.79668,25.8608398 737.79668,22.1865234 C737.79668,18.5 735.965625,16.168457 733.096973,16.168457 Z M743.557656,13.3730469 L750.49125,13.3730469 C755.728066,13.3730469 758.75541,16.546875 758.75541,22.0644531 C758.75541,27.7895508 755.764688,31 750.49125,31 L743.557656,31 L743.557656,13.3730469 Z M747.24418,16.5224609 L747.24418,27.8505859 L749.905313,27.8505859 C753.16459,27.8505859 754.995645,25.8486328 754.995645,22.1254883 C754.995645,18.5610352 753.103555,16.5224609 749.905313,16.5224609 L747.24418,16.5224609 Z M772.414336,27.8505859 L772.414336,31 L760.744414,31 L760.744414,13.3852539 L772.414336,13.3852539 L772.414336,16.534668 L764.430938,16.534668 L764.430938,20.6484375 L771.962676,20.6484375 L771.962676,23.565918 L764.430938,23.565918 L764.430938,27.8505859 L772.414336,27.8505859 Z M782.740742,25.5556641 L774.720723,25.5556641 L774.720723,22.2231445 L782.740742,22.2231445 L782.740742,25.5556641 Z M784.63209,26.1049805 L788.196543,26.1049805 C788.367441,27.5332031 789.807871,28.4487305 791.883066,28.4487305 C793.79957,28.4487305 795.154551,27.5209961 795.154551,26.1904297 C795.154551,25.0673828 794.275645,24.4204102 792.115,23.956543 L789.820078,23.4682617 C786.609629,22.796875 785.034922,21.1245117 785.034922,18.4389648 C785.034922,15.1186523 787.708262,12.9335938 791.773203,12.9335938 C795.655039,12.9335938 798.401621,15.1064453 798.511484,18.2436523 L795.044688,18.2436523 C794.873789,16.8520508 793.579844,15.9243164 791.797617,15.9243164 C789.954355,15.9243164 788.733652,16.7788086 788.733652,18.121582 C788.733652,19.2080078 789.575938,19.8305664 791.638926,20.2700195 L793.762949,20.7216797 C797.302988,21.4663086 798.828867,22.9921875 798.828867,25.7265625 C798.828867,29.2788086 796.106699,31.4516602 791.687754,31.4516602 C787.488535,31.4516602 784.766367,29.3886719 784.63209,26.1049805 Z M816.125488,31 L812.438965,31 L812.438965,23.6391602 L804.504395,23.6391602 L804.504395,31 L800.817871,31 L800.817871,13.3852539 L804.504395,13.3852539 L804.504395,20.4897461 L812.438965,20.4897461 L812.438965,13.3852539 L816.125488,13.3852539 L816.125488,31 Z M826.610586,12.9335938 C831.810781,12.9335938 835.070059,16.4858398 835.070059,22.1865234 C835.070059,27.8994141 831.822988,31.4516602 826.610586,31.4516602 C821.385977,31.4516602 818.126699,27.8994141 818.126699,22.1865234 C818.126699,16.4736328 821.434805,12.9335938 826.610586,12.9335938 Z M826.610586,16.168457 C823.754141,16.168457 821.898672,18.5 821.898672,22.1865234 C821.898672,25.8608398 823.71752,28.2167969 826.610586,28.2167969 C829.479238,28.2167969 831.310293,25.8608398 831.310293,22.1865234 C831.310293,18.5 829.479238,16.168457 826.610586,16.168457 Z M837.07127,13.3852539 L844.419902,13.3852539 C848.045391,13.3852539 850.523418,15.8144531 850.523418,19.4765625 C850.523418,23.1020508 847.947734,25.53125 844.236797,25.53125 L840.757793,25.53125 L840.757793,31 L837.07127,31 L837.07127,13.3852539 Z M840.757793,16.4125977 L840.757793,22.5405273 L843.431133,22.5405273 C845.542949,22.5405273 846.775859,21.4663086 846.775859,19.4887695 C846.775859,17.4868164 845.567363,16.4125977 843.44334,16.4125977 L840.757793,16.4125977 Z M851.706758,31.3295898 C850.400605,31.3295898 849.546113,30.4384766 849.546113,29.2055664 C849.546113,27.9726562 850.400605,27.09375 851.706758,27.09375 C853.025117,27.09375 853.867402,27.9726562 853.867402,29.2055664 C853.867402,30.4384766 853.025117,31.3295898 851.706758,31.3295898 Z M862.777793,31.4516602 C857.675254,31.4516602 854.513633,27.9238281 854.513633,22.1865234 C854.513633,16.4614258 857.663047,12.9335938 862.777793,12.9335938 C866.952598,12.9335938 870.15084,15.7045898 870.419394,19.5375977 L866.830527,19.5375977 C866.476523,17.5112305 864.877402,16.1806641 862.777793,16.1806641 C860.006797,16.1806641 858.285605,18.4755859 858.285605,22.1865234 C858.285605,25.8974609 860.006797,28.2045898 862.79,28.2045898 C864.901816,28.2045898 866.48873,26.9594727 866.842734,25.0185547 L870.431602,25.0185547 C870.126426,28.8271484 867.02584,31.4516602 862.777793,31.4516602 Z M880.037793,12.9335938 C885.237988,12.9335938 888.497266,16.4858398 888.497266,22.1865234 C888.497266,27.8994141 885.250195,31.4516602 880.037793,31.4516602 C874.813184,31.4516602 871.553906,27.8994141 871.553906,22.1865234 C871.553906,16.4736328 874.862012,12.9335938 880.037793,12.9335938 Z M880.037793,16.168457 C877.181348,16.168457 875.325879,18.5 875.325879,22.1865234 C875.325879,25.8608398 877.144727,28.2167969 880.037793,28.2167969 C882.906445,28.2167969 884.7375,25.8608398 884.7375,22.1865234 C884.7375,18.5 882.906445,16.168457 880.037793,16.168457 Z M909.15082,31 L905.732852,31 L905.732852,19.2202148 L905.537539,19.2202148 L901.057559,29.9868164 L898.603945,29.9868164 L894.111758,19.2202148 L893.916445,19.2202148 L893.916445,31 L890.498477,31 L890.498477,13.3852539 L894.84418,13.3852539 L899.714785,25.2260742 L899.934512,25.2260742 L904.817324,13.3852539 L909.15082,13.3852539 L909.15082,31 Z" id="XCODE-SHOP.COM" fill="#007AFF"></path>
        </g>
    </g>
</svg>