<?xml version="1.0" encoding="UTF-8"?>
<svg width="1600px" height="300px" viewBox="0 0 1600 300" version="1.1" xmlns="http://www.w3.org/2000/svg" xmlns:xlink="http://www.w3.org/1999/xlink">
    <!-- Generator: Sketch 52.6 (67491) - http://www.bohemiancoding.com/sketch -->
    <title>request-permission - baner</title>
    <desc>Created with Sketch.</desc>
    <g id="request-permission---baner" stroke="none" stroke-width="1" fill="none" fill-rule="evenodd">
        <rect fill="#FFFFFF" x="0" y="0" width="1600" height="300"></rect>
        <g id="Group-3" transform="translate(413.000000, 72.000000)" fill="#007AFF">
            <path d="M4.70214844,67.9384766 L20.0830078,67.9384766 C20.4785156,72.5527344 25.0927734,75.4970703 31.7724609,75.4970703 C37.7929688,75.4970703 41.9238281,72.5966797 41.9238281,68.421875 C41.9238281,64.90625 39.1552734,63.0166016 31.9042969,61.5664062 L23.5546875,59.8964844 C11.953125,57.6992188 5.9765625,51.3710938 5.9765625,41.3955078 C5.9765625,29.0029297 15.9082031,20.8730469 31.2011719,20.8730469 C46.0546875,20.8730469 56.3378906,28.9150391 56.6015625,40.6484375 L41.7041016,40.6484375 C41.3525391,36.1660156 37.0898438,33.0458984 31.4208984,33.0458984 C25.7519531,33.0458984 22.0166016,35.7265625 22.0166016,39.9453125 C22.0166016,43.4169922 24.8291016,45.4384766 31.5087891,46.7568359 L39.6826172,48.3388672 C52.2070312,50.7558594 57.8320312,56.4248047 57.8320312,66.4882812 C57.8320312,79.7158203 47.7246094,87.7138672 31.1132812,87.7138672 C15.0732422,87.7138672 4.96582031,80.1552734 4.70214844,67.9384766 Z M66.9748828,22.5869141 L94.7483203,22.5869141 C108.371367,22.5869141 117.599883,31.4638672 117.599883,45.0869141 C117.599883,58.578125 107.887969,67.4111328 93.7815235,67.4111328 L83.1028125,67.4111328 L83.1028125,86 L66.9748828,86 L66.9748828,22.5869141 Z M83.1028125,34.9794922 L83.1028125,55.2382812 L90.3977344,55.2382812 C97.2532032,55.2382812 101.296172,51.7226562 101.296172,45.1308594 C101.296172,38.4511719 97.2971485,34.9794922 90.485625,34.9794922 L83.1028125,34.9794922 Z M126.391172,22.5869141 L154.164609,22.5869141 C167.787656,22.5869141 177.016172,31.4638672 177.016172,45.0869141 C177.016172,58.578125 167.304258,67.4111328 153.197813,67.4111328 L142.519102,67.4111328 L142.519102,86 L126.391172,86 L126.391172,22.5869141 Z M142.519102,34.9794922 L142.519102,55.2382812 L149.814023,55.2382812 C156.669492,55.2382812 160.712461,51.7226562 160.712461,45.1308594 C160.712461,38.4511719 156.713438,34.9794922 149.901914,34.9794922 L142.519102,34.9794922 Z M205.099453,46.9765625 C200.001797,46.9765625 196.442227,50.5361328 196.046719,56.0732422 L213.800625,56.0732422 C213.536953,50.3603516 210.285,46.9765625 205.099453,46.9765625 Z M214.371914,71.5859375 L228.56625,71.5859375 C226.852383,81.1220703 217.887539,87.1425781 205.231289,87.1425781 C189.630703,87.1425781 180.665859,77.9140625 180.665859,61.8740234 C180.665859,45.7460938 189.85043,35.9462891 205.011563,35.9462891 C220.084805,35.9462891 228.873867,45.0869141 228.873867,60.6875 L228.873867,64.9941406 L195.958828,64.9941406 L195.958828,65.7851562 C196.090664,72.1572266 199.738125,76.1123047 205.670742,76.1123047 C210.197109,76.1123047 213.317227,74.4423828 214.371914,71.5859375 Z M235.511836,86 L235.511836,37.0888672 L250.629024,37.0888672 L250.629024,45.1308594 L251.463984,45.1308594 C252.650508,40.2089844 257.396602,36.3417969 263.505,36.3417969 C265.57043,36.3417969 267.987422,36.6054688 269.13,37.0888672 L269.13,50.3164062 C267.943477,49.8330078 264.823359,49.4375 262.450313,49.4375 C255.594844,49.4375 251.024531,53.3046875 251.024531,60.1162109 L251.024531,86 L235.511836,86 Z M274.44961,86 L274.44961,37.0888672 L289.566797,37.0888672 L289.566797,45.1748047 L290.401758,45.1748047 C292.291406,39.5058594 297.476953,35.9462891 303.892969,35.9462891 C310.880274,35.9462891 315.626367,39.2861328 317.47207,45.1748047 L318.307031,45.1748047 C320.328516,39.59375 326.041406,35.9462891 332.94082,35.9462891 C342.564844,35.9462891 348.892969,42.5380859 348.892969,52.5576172 L348.892969,86 L333.380274,86 L333.380274,56.5126953 C333.380274,51.2392578 331.007227,48.6464844 326.305078,48.6464844 C321.866602,48.6464844 319.098047,51.8544922 319.098047,56.6445312 L319.098047,86 L304.244531,86 L304.244531,56.2490234 C304.244531,51.3271484 301.739649,48.6464844 297.257227,48.6464844 C292.906641,48.6464844 289.962305,51.9863281 289.962305,56.9082031 L289.962305,86 L274.44961,86 Z M357.552422,86 L357.552422,37.0888672 L373.109063,37.0888672 L373.109063,86 L357.552422,86 Z M365.330742,31.4199219 C359.881524,31.4199219 356.585625,28.6513672 356.585625,24.5205078 C356.585625,20.3457031 359.881524,17.5771484 365.330742,17.5771484 C370.823906,17.5771484 374.119805,20.3457031 374.119805,24.5205078 C374.119805,28.6513672 370.823906,31.4199219 365.330742,31.4199219 Z M381.153281,51.8105469 C381.153281,42.0986328 389.458946,35.9462891 402.642539,35.9462891 C416.177696,35.9462891 423.604453,41.1757812 424.175742,51.0195312 L410.025352,51.0195312 C409.585899,48.1630859 406.993125,46.4492188 402.774375,46.4492188 C398.731406,46.4492188 395.918906,48.2070312 395.918906,50.84375 C395.918906,52.9091797 397.676719,54.1396484 401.543906,54.9746094 L411.651328,57.0400391 C421.275352,59.0615234 425.450156,63.0605469 425.450156,70.4873047 C425.450156,80.6386719 416.529258,87.1425781 402.862266,87.1425781 C388.843711,87.1425781 380.845664,81.8251953 379.966758,71.9814453 L394.95211,71.9814453 C395.743125,75.0136719 398.51168,76.6396484 403.081992,76.6396484 C407.344688,76.6396484 410.113242,74.9257812 410.113242,72.2890625 C410.113242,70.2236328 408.663047,69.125 404.751914,68.2900391 L395.655235,66.3564453 C385.943321,64.2910156 381.153281,59.5009766 381.153281,51.8105469 Z M430.242422,51.8105469 C430.242422,42.0986328 438.548086,35.9462891 451.73168,35.9462891 C465.266836,35.9462891 472.693594,41.1757812 473.264883,51.0195312 L459.114492,51.0195312 C458.675039,48.1630859 456.082266,46.4492188 451.863516,46.4492188 C447.820547,46.4492188 445.008047,48.2070312 445.008047,50.84375 C445.008047,52.9091797 446.76586,54.1396484 450.633047,54.9746094 L460.740469,57.0400391 C470.364492,59.0615234 474.539297,63.0605469 474.539297,70.4873047 C474.539297,80.6386719 465.618399,87.1425781 451.951406,87.1425781 C437.932852,87.1425781 429.934805,81.8251953 429.055899,71.9814453 L444.04125,71.9814453 C444.832266,75.0136719 447.600821,76.6396484 452.171133,76.6396484 C456.433828,76.6396484 459.202383,74.9257812 459.202383,72.2890625 C459.202383,70.2236328 457.752188,69.125 453.841055,68.2900391 L444.744375,66.3564453 C435.032461,64.2910156 430.242422,59.5009766 430.242422,51.8105469 Z M481.309102,86 L481.309102,37.0888672 L496.865742,37.0888672 L496.865742,86 L481.309102,86 Z M489.087422,31.4199219 C483.638203,31.4199219 480.342305,28.6513672 480.342305,24.5205078 C480.342305,20.3457031 483.638203,17.5771484 489.087422,17.5771484 C494.580586,17.5771484 497.876485,20.3457031 497.876485,24.5205078 C497.876485,28.6513672 494.580586,31.4199219 489.087422,31.4199219 Z M528.508594,87.1425781 C512.864063,87.1425781 503.591602,77.6064453 503.591602,61.5224609 C503.591602,45.7021484 513.127735,35.9462891 528.508594,35.9462891 C543.977344,35.9462891 553.425586,45.6142578 553.425586,61.5224609 C553.425586,77.6503906 544.197071,87.1425781 528.508594,87.1425781 Z M528.508594,75.2773438 C534.221485,75.2773438 537.473438,70.2236328 537.473438,61.5224609 C537.473438,52.9970703 534.133594,47.8115234 528.508594,47.8115234 C522.883594,47.8115234 519.54375,52.9970703 519.54375,61.5224609 C519.54375,70.2675781 522.795703,75.2773438 528.508594,75.2773438 Z M560.1075,86 L560.1075,37.0888672 L575.224688,37.0888672 L575.224688,45.0429688 L576.059649,45.0429688 C578.212969,39.5058594 583.310625,35.9462891 590.385821,35.9462891 C601.284258,35.9462891 606.953203,42.6699219 606.953203,54.4033203 L606.953203,86 L591.396563,86 L591.396563,57.875 C591.396563,51.9423828 588.979571,48.6464844 583.706133,48.6464844 C578.652422,48.6464844 575.620196,52.4257812 575.620196,58.0507812 L575.620196,86 L560.1075,86 Z" id="SPPermission"></path>
            <path d="M7.1875,138.34375 L12.109375,138.34375 C12.421875,140.863281 14.921875,142.484375 18.4960938,142.484375 C21.8164062,142.484375 24.21875,140.785156 24.21875,138.421875 C24.21875,136.390625 22.6757812,135.199219 19.0625,134.359375 L15.4101562,133.519531 C10.2929688,132.367188 7.890625,129.828125 7.890625,125.628906 C7.890625,120.511719 12.0703125,117.113281 18.3789062,117.113281 C24.296875,117.113281 28.5742188,120.511719 28.8085938,125.355469 L23.984375,125.355469 C23.6328125,122.875 21.4453125,121.3125 18.359375,121.3125 C15.1171875,121.3125 12.96875,122.875 12.96875,125.277344 C12.96875,127.171875 14.3945312,128.285156 17.890625,129.085938 L21.1328125,129.828125 C26.8554688,131.117188 29.2578125,133.5 29.2578125,137.796875 C29.2578125,143.285156 25.0195312,146.703125 18.1835938,146.703125 C11.71875,146.703125 7.44140625,143.460938 7.1875,138.34375 Z M33.1259893,146 L33.1259893,124.632812 L37.950208,124.632812 L37.950208,146 L33.1259893,146 Z M35.528333,121.15625 C33.7705205,121.15625 32.5400518,120.023438 32.5400518,118.480469 C32.5400518,116.9375 33.7705205,115.804688 35.528333,115.804688 C37.3056768,115.804688 38.5166143,116.9375 38.5166143,118.480469 C38.5166143,120.023438 37.3056768,121.15625 35.528333,121.15625 Z M42.5996348,146 L42.5996348,124.632812 L47.2676035,124.632812 L47.2676035,128.089844 L47.5996348,128.089844 C48.5176035,125.648438 50.7051035,124.203125 53.5371348,124.203125 C56.4863535,124.203125 58.5371348,125.6875 59.4355723,128.089844 L59.7676035,128.089844 C60.822291,125.746094 63.2832285,124.203125 66.2519785,124.203125 C70.5293223,124.203125 73.1074473,126.878906 73.1074473,131.3125 L73.1074473,146 L68.2832285,146 L68.2832285,132.542969 C68.2832285,129.789062 66.9746348,128.421875 64.3769785,128.421875 C61.8574473,128.421875 60.197291,130.257812 60.197291,132.699219 L60.197291,146 L55.4902598,146 L55.4902598,132.191406 C55.4902598,129.847656 54.0058848,128.421875 51.6230723,128.421875 C49.2207285,128.421875 47.4433848,130.394531 47.4433848,133.011719 L47.4433848,146 L42.5996348,146 Z M89.1435928,124.28125 C94.553749,124.28125 97.9521865,128.460938 97.9521865,135.316406 C97.9521865,142.132812 94.5928115,146.351562 89.2021865,146.351562 C86.1357803,146.351562 83.772499,145.023438 82.678749,142.757812 L82.3467178,142.757812 L82.3467178,153.109375 L77.5029678,153.109375 L77.5029678,124.632812 L82.1709365,124.632812 L82.1709365,128.167969 L82.5029678,128.167969 C83.7334365,125.746094 86.2139053,124.28125 89.1435928,124.28125 Z M87.6201553,142.230469 C90.9795303,142.230469 92.9717178,139.632812 92.9717178,135.316406 C92.9717178,131 90.959999,128.402344 87.6396865,128.402344 C84.3389053,128.402344 82.2685928,131.058594 82.2490615,135.316406 C82.2685928,139.59375 84.319374,142.230469 87.6201553,142.230469 Z M101.664113,146 L101.664113,116.371094 L106.507863,116.371094 L106.507863,146 L101.664113,146 Z M120.239321,128.050781 C117.348696,128.050781 115.317446,130.121094 115.102603,133.246094 L125.161196,133.246094 C125.06354,130.082031 123.149478,128.050781 120.239321,128.050781 Z M125.200259,140.121094 L129.790103,140.121094 C128.872134,144.007812 125.336978,146.429688 120.297915,146.429688 C114.008853,146.429688 110.21979,142.269531 110.21979,135.394531 C110.21979,128.519531 114.067446,124.203125 120.258853,124.203125 C126.352603,124.203125 130.004946,128.246094 130.004946,134.984375 L130.004946,136.546875 L115.083071,136.546875 L115.083071,136.800781 C115.200259,140.355469 117.25104,142.582031 120.434634,142.582031 C122.836978,142.582031 124.497134,141.703125 125.200259,140.121094 Z M154.479581,124.28125 C159.889737,124.28125 163.288175,128.460938 163.288175,135.316406 C163.288175,142.132812 159.9288,146.351562 154.538175,146.351562 C151.471769,146.351562 149.108487,145.023438 148.014737,142.757812 L147.682706,142.757812 L147.682706,153.109375 L142.838956,153.109375 L142.838956,124.632812 L147.506925,124.632812 L147.506925,128.167969 L147.838956,128.167969 C149.069425,125.746094 151.549894,124.28125 154.479581,124.28125 Z M152.956144,142.230469 C156.315519,142.230469 158.307706,139.632812 158.307706,135.316406 C158.307706,131 156.295987,128.402344 152.975675,128.402344 C149.674894,128.402344 147.604581,131.058594 147.58505,135.316406 C147.604581,139.59375 149.655362,142.230469 152.956144,142.230469 Z M175.769633,128.050781 C172.879008,128.050781 170.847758,130.121094 170.632914,133.246094 L180.691508,133.246094 C180.593852,130.082031 178.679789,128.050781 175.769633,128.050781 Z M180.73057,140.121094 L185.320414,140.121094 C184.402445,144.007812 180.867289,146.429688 175.828227,146.429688 C169.539164,146.429688 165.750102,142.269531 165.750102,135.394531 C165.750102,128.519531 169.597758,124.203125 175.789164,124.203125 C181.882914,124.203125 185.535258,128.246094 185.535258,134.984375 L185.535258,136.546875 L170.613383,136.546875 L170.613383,136.800781 C170.73057,140.355469 172.781352,142.582031 175.964945,142.582031 C178.367289,142.582031 180.027445,141.703125 180.73057,140.121094 Z M189.051872,146 L189.051872,124.632812 L193.719841,124.632812 L193.719841,127.953125 L194.051872,127.953125 C194.63781,125.84375 196.942497,124.28125 199.696403,124.28125 C200.399528,124.28125 201.258903,124.359375 201.708122,124.496094 L201.708122,128.988281 C201.337028,128.851562 200.047966,128.714844 199.227653,128.714844 C196.083122,128.714844 193.895622,130.667969 193.895622,133.65625 L193.895622,146 L189.051872,146 Z M204.599736,146 L204.599736,124.632812 L209.267705,124.632812 L209.267705,128.089844 L209.599736,128.089844 C210.517705,125.648438 212.705205,124.203125 215.537236,124.203125 C218.486455,124.203125 220.537236,125.6875 221.435674,128.089844 L221.767705,128.089844 C222.822393,125.746094 225.28333,124.203125 228.25208,124.203125 C232.529424,124.203125 235.107549,126.878906 235.107549,131.3125 L235.107549,146 L230.28333,146 L230.28333,132.542969 C230.28333,129.789062 228.974736,128.421875 226.37708,128.421875 C223.857549,128.421875 222.197393,130.257812 222.197393,132.699219 L222.197393,146 L217.490361,146 L217.490361,132.191406 C217.490361,129.847656 216.005986,128.421875 213.623174,128.421875 C211.22083,128.421875 209.443486,130.394531 209.443486,133.011719 L209.443486,146 L204.599736,146 Z M239.561663,146 L239.561663,124.632812 L244.385882,124.632812 L244.385882,146 L239.561663,146 Z M241.964007,121.15625 C240.206194,121.15625 238.975726,120.023438 238.975726,118.480469 C238.975726,116.9375 240.206194,115.804688 241.964007,115.804688 C243.741351,115.804688 244.952288,116.9375 244.952288,118.480469 C244.952288,120.023438 243.741351,121.15625 241.964007,121.15625 Z M248.547027,130.746094 C248.547027,126.878906 252.062652,124.203125 257.101715,124.203125 C262.17984,124.203125 265.363434,126.449219 265.714996,130.335938 L261.164215,130.335938 C260.812652,128.832031 259.386871,127.875 257.121246,127.875 C254.914215,127.875 253.254059,128.929688 253.254059,130.472656 C253.254059,131.683594 254.269684,132.425781 256.418121,132.914062 L260.187652,133.773438 C264.269684,134.691406 266.164215,136.449219 266.164215,139.59375 C266.164215,143.695312 262.394684,146.429688 257.062652,146.429688 C251.730621,146.429688 248.371246,144.125 248.000152,140.238281 L252.785309,140.238281 C253.254059,141.820312 254.757965,142.757812 257.17984,142.757812 C259.621246,142.757812 261.320465,141.683594 261.320465,140.101562 C261.320465,138.890625 260.402496,138.128906 258.371246,137.679688 L254.582184,136.800781 C250.480621,135.863281 248.547027,133.96875 248.547027,130.746094 Z M268.840985,130.746094 C268.840985,126.878906 272.35661,124.203125 277.395673,124.203125 C282.473798,124.203125 285.657392,126.449219 286.008954,130.335938 L281.458173,130.335938 C281.10661,128.832031 279.680829,127.875 277.415204,127.875 C275.208173,127.875 273.548017,128.929688 273.548017,130.472656 C273.548017,131.683594 274.563642,132.425781 276.712079,132.914062 L280.48161,133.773438 C284.563642,134.691406 286.458173,136.449219 286.458173,139.59375 C286.458173,143.695312 282.688642,146.429688 277.35661,146.429688 C272.024579,146.429688 268.665204,144.125 268.29411,140.238281 L273.079267,140.238281 C273.548017,141.820312 275.051923,142.757812 277.473798,142.757812 C279.915204,142.757812 281.614423,141.683594 281.614423,140.101562 C281.614423,138.890625 280.696454,138.128906 278.665204,137.679688 L274.876142,136.800781 C270.774579,135.863281 268.840985,133.96875 268.840985,130.746094 Z M290.072443,146 L290.072443,124.632812 L294.896662,124.632812 L294.896662,146 L290.072443,146 Z M292.474787,121.15625 C290.716974,121.15625 289.486506,120.023438 289.486506,118.480469 C289.486506,116.9375 290.716974,115.804688 292.474787,115.804688 C294.252131,115.804688 295.463068,116.9375 295.463068,118.480469 C295.463068,120.023438 294.252131,121.15625 292.474787,121.15625 Z M308.764839,146.429688 C302.358589,146.429688 298.491401,142.25 298.491401,135.316406 C298.491401,128.421875 302.417182,124.203125 308.764839,124.203125 C315.132026,124.203125 319.038276,128.402344 319.038276,135.316406 C319.038276,142.25 315.151557,146.429688 308.764839,146.429688 Z M308.764839,142.367188 C312.143745,142.367188 314.057807,139.789062 314.057807,135.316406 C314.057807,130.863281 312.124214,128.265625 308.764839,128.265625 C305.385932,128.265625 303.452339,130.863281 303.452339,135.316406 C303.452339,139.789062 305.385932,142.367188 308.764839,142.367188 Z M322.574422,146 L322.574422,124.632812 L327.24239,124.632812 L327.24239,128.050781 L327.574422,128.050781 C328.590047,125.667969 330.738484,124.203125 333.922078,124.203125 C338.687703,124.203125 341.285359,127.074219 341.285359,132.171875 L341.285359,146 L336.441609,146 L336.441609,133.324219 C336.441609,130.0625 335.074422,128.421875 332.125203,128.421875 C329.234578,128.421875 327.418172,130.414062 327.418172,133.558594 L327.418172,146 L322.574422,146 Z M354.998275,146 L354.998275,124.632812 L359.666244,124.632812 L359.666244,128.089844 L359.998275,128.089844 C360.916244,125.648438 363.103744,124.203125 365.935775,124.203125 C368.884994,124.203125 370.935775,125.6875 371.834213,128.089844 L372.166244,128.089844 C373.220931,125.746094 375.681869,124.203125 378.650619,124.203125 C382.927963,124.203125 385.506088,126.878906 385.506088,131.3125 L385.506088,146 L380.681869,146 L380.681869,132.542969 C380.681869,129.789062 379.373275,128.421875 376.775619,128.421875 C374.256088,128.421875 372.595931,130.257812 372.595931,132.699219 L372.595931,146 L367.8889,146 L367.8889,132.191406 C367.8889,129.847656 366.404525,128.421875 364.021713,128.421875 C361.619369,128.421875 359.842025,130.394531 359.842025,133.011719 L359.842025,146 L354.998275,146 Z M397.206296,142.542969 C400.135983,142.542969 402.323483,140.648438 402.323483,138.167969 L402.323483,136.46875 L397.499264,136.78125 C394.784421,136.957031 393.514889,137.933594 393.514889,139.671875 C393.514889,141.46875 395.057858,142.542969 397.206296,142.542969 Z M395.780514,146.351562 C391.659421,146.351562 388.710202,143.851562 388.710202,139.945312 C388.710202,136.078125 391.620358,133.851562 396.815671,133.539062 L402.323483,133.207031 L402.323483,131.410156 C402.323483,129.320312 400.917233,128.148438 398.300046,128.148438 C396.073483,128.148438 394.550046,128.929688 394.100827,130.375 L389.530514,130.375 C389.921139,126.605469 393.456296,124.203125 398.534421,124.203125 C404.022702,124.203125 407.108639,126.878906 407.108639,131.410156 L407.108639,146 L402.440671,146 L402.440671,143.070312 L402.108639,143.070312 C400.917233,145.140625 398.573483,146.351562 395.780514,146.351562 Z M411.582285,146 L411.582285,124.632812 L416.250254,124.632812 L416.250254,128.050781 L416.582285,128.050781 C417.59791,125.667969 419.746347,124.203125 422.929941,124.203125 C427.695566,124.203125 430.293222,127.074219 430.293222,132.171875 L430.293222,146 L425.449472,146 L425.449472,133.324219 C425.449472,130.0625 424.082285,128.421875 421.133066,128.421875 C418.242441,128.421875 416.426035,130.414062 416.426035,133.558594 L416.426035,146 L411.582285,146 Z M441.99343,142.542969 C444.923118,142.542969 447.110618,140.648438 447.110618,138.167969 L447.110618,136.46875 L442.286399,136.78125 C439.571555,136.957031 438.302024,137.933594 438.302024,139.671875 C438.302024,141.46875 439.844993,142.542969 441.99343,142.542969 Z M440.567649,146.351562 C436.446555,146.351562 433.497337,143.851562 433.497337,139.945312 C433.497337,136.078125 436.407493,133.851562 441.602805,133.539062 L447.110618,133.207031 L447.110618,131.410156 C447.110618,129.320312 445.704368,128.148438 443.08718,128.148438 C440.860618,128.148438 439.33718,128.929688 438.887962,130.375 L434.317649,130.375 C434.708274,126.605469 438.24343,124.203125 443.321555,124.203125 C448.809837,124.203125 451.895774,126.878906 451.895774,131.410156 L451.895774,146 L447.227805,146 L447.227805,143.070312 L446.895774,143.070312 C445.704368,145.140625 443.360618,146.351562 440.567649,146.351562 Z M465.549107,141.742188 C468.928013,141.742188 470.959263,139.164062 470.959263,135.082031 C470.959263,131 468.908482,128.402344 465.549107,128.402344 C462.170201,128.402344 460.256138,131 460.256138,135.082031 C460.256138,139.164062 462.170201,141.742188 465.549107,141.742188 Z M465.549107,154.125 C460.060826,154.125 456.467076,151.703125 456.076451,148.03125 L460.939732,148.03125 C461.252232,149.496094 462.970982,150.433594 465.627232,150.433594 C468.947545,150.433594 470.881138,148.871094 470.881138,146.195312 L470.881138,142.152344 L470.549107,142.152344 C469.318638,144.4375 466.99442,145.6875 464.02567,145.6875 C458.635045,145.6875 455.27567,141.507812 455.27567,135.082031 C455.27567,128.539062 458.654576,124.28125 464.103795,124.28125 C467.013951,124.28125 469.553013,125.726562 470.724888,128.050781 L471.05692,128.050781 L471.05692,124.632812 L475.724888,124.632812 L475.724888,146.078125 C475.724888,151.019531 471.779576,154.125 465.549107,154.125 Z M489.280565,128.050781 C486.38994,128.050781 484.35869,130.121094 484.143846,133.246094 L494.20244,133.246094 C494.104784,130.082031 492.190721,128.050781 489.280565,128.050781 Z M494.241503,140.121094 L498.831346,140.121094 C497.913378,144.007812 494.378221,146.429688 489.339159,146.429688 C483.050096,146.429688 479.261034,142.269531 479.261034,135.394531 C479.261034,128.519531 483.10869,124.203125 489.300096,124.203125 C495.393846,124.203125 499.04619,128.246094 499.04619,134.984375 L499.04619,136.546875 L484.124315,136.546875 L484.124315,136.800781 C484.241503,140.355469 486.292284,142.582031 489.475878,142.582031 C491.878221,142.582031 493.538378,141.703125 494.241503,140.121094 Z M502.562804,146 L502.562804,124.632812 L507.230773,124.632812 L507.230773,127.953125 L507.562804,127.953125 C508.148742,125.84375 510.453429,124.28125 513.207336,124.28125 C513.910461,124.28125 514.769836,124.359375 515.219054,124.496094 L515.219054,128.988281 C514.847961,128.851562 513.558898,128.714844 512.738586,128.714844 C509.594054,128.714844 507.406554,130.667969 507.406554,133.65625 L507.406554,146 L502.562804,146 Z M555.767908,124.632812 L549.986658,146 L544.889002,146 L540.728845,130.609375 L540.396814,130.609375 L536.256189,146 L531.217127,146 L525.435877,124.632812 L530.318689,124.632812 L533.873377,140.589844 L534.205408,140.589844 L538.30697,124.632812 L542.935877,124.632812 L547.076502,140.589844 L547.408533,140.589844 L550.943689,124.632812 L555.767908,124.632812 Z M558.698585,146 L558.698585,124.632812 L563.522803,124.632812 L563.522803,146 L558.698585,146 Z M561.100928,121.15625 C559.343116,121.15625 558.112647,120.023438 558.112647,118.480469 C558.112647,116.9375 559.343116,115.804688 561.100928,115.804688 C562.878272,115.804688 564.08921,116.9375 564.08921,118.480469 C564.08921,120.023438 562.878272,121.15625 561.100928,121.15625 Z M569.715199,119.398438 L574.539418,119.398438 L574.539418,124.769531 L579.10973,124.769531 L579.10973,128.636719 L574.539418,128.636719 L574.539418,139.125 C574.539418,141.234375 575.437855,142.171875 577.469105,142.171875 C578.152699,142.171875 578.523793,142.132812 579.10973,142.074219 L579.10973,145.863281 C578.406605,146 577.508168,146.097656 576.570668,146.097656 C571.668324,146.097656 569.715199,144.4375 569.715199,140.296875 L569.715199,128.636719 L566.336293,128.636719 L566.336293,124.769531 L569.715199,124.769531 L569.715199,119.398438 Z M582.802126,146 L582.802126,116.371094 L587.567751,116.371094 L587.567751,128.089844 L587.919313,128.089844 C588.934938,125.6875 591.220094,124.242188 594.403688,124.242188 C598.974001,124.242188 601.747438,127.132812 601.747438,132.210938 L601.747438,146 L596.903688,146 L596.903688,133.363281 C596.903688,130.121094 595.419313,128.460938 592.606813,128.460938 C589.423219,128.460938 587.645876,130.53125 587.645876,133.597656 L587.645876,146 L582.802126,146 Z M621.065823,117.816406 L621.065823,135.824219 C621.065823,139.632812 623.448635,142.191406 627.628323,142.191406 C631.80801,142.191406 634.171292,139.632812 634.171292,135.824219 L634.171292,117.816406 L639.210354,117.816406 L639.210354,136.292969 C639.210354,142.445312 634.757229,146.703125 627.628323,146.703125 C620.499417,146.703125 616.046292,142.445312 616.046292,136.292969 L616.046292,117.816406 L621.065823,117.816406 Z M649.914468,146 L644.875406,146 L644.875406,117.816406 L649.914468,117.816406 L649.914468,146 Z M672.064884,146.351562 C666.654728,146.351562 663.275822,142.09375 663.275822,135.296875 C663.275822,128.539062 666.674259,124.28125 672.064884,124.28125 C674.994572,124.28125 677.416447,125.6875 678.549259,128.03125 L678.881291,128.03125 L678.881291,116.371094 L683.725041,116.371094 L683.725041,146 L679.037541,146 L679.037541,142.621094 L678.705509,142.621094 C677.494572,144.964844 675.033634,146.351562 672.064884,146.351562 Z M673.568791,128.402344 C670.268009,128.402344 668.236759,131.019531 668.236759,135.316406 C668.236759,139.632812 670.248478,142.230469 673.568791,142.230469 C676.908634,142.230469 678.939884,139.613281 678.939884,135.316406 C678.939884,131.058594 676.889103,128.402344 673.568791,128.402344 Z M688.550249,146 L688.550249,124.632812 L693.374467,124.632812 L693.374467,146 L688.550249,146 Z M690.952592,121.15625 C689.19478,121.15625 687.964311,120.023438 687.964311,118.480469 C687.964311,116.9375 689.19478,115.804688 690.952592,115.804688 C692.729936,115.804688 693.940874,116.9375 693.940874,118.480469 C693.940874,120.023438 692.729936,121.15625 690.952592,121.15625 Z M705.328582,142.542969 C708.258269,142.542969 710.445769,140.648438 710.445769,138.167969 L710.445769,136.46875 L705.62155,136.78125 C702.906707,136.957031 701.637175,137.933594 701.637175,139.671875 C701.637175,141.46875 703.180144,142.542969 705.328582,142.542969 Z M703.9028,146.351562 C699.781707,146.351562 696.832488,143.851562 696.832488,139.945312 C696.832488,136.078125 699.742644,133.851562 704.937957,133.539062 L710.445769,133.207031 L710.445769,131.410156 C710.445769,129.320312 709.039519,128.148438 706.422332,128.148438 C704.195769,128.148438 702.672332,128.929688 702.223113,130.375 L697.6528,130.375 C698.043425,126.605469 701.578582,124.203125 706.656707,124.203125 C712.144988,124.203125 715.230925,126.878906 715.230925,131.410156 L715.230925,146 L710.562957,146 L710.562957,143.070312 L710.230925,143.070312 C709.039519,145.140625 706.695769,146.351562 703.9028,146.351562 Z M719.899883,146 L719.899883,116.371094 L724.743633,116.371094 L724.743633,146 L719.899883,146 Z M738.728998,146.429688 C732.322748,146.429688 728.45556,142.25 728.45556,135.316406 C728.45556,128.421875 732.381341,124.203125 738.728998,124.203125 C745.096185,124.203125 749.002435,128.402344 749.002435,135.316406 C749.002435,142.25 745.115716,146.429688 738.728998,146.429688 Z M738.728998,142.367188 C742.107904,142.367188 744.021966,139.789062 744.021966,135.316406 C744.021966,130.863281 742.088373,128.265625 738.728998,128.265625 C735.350091,128.265625 733.416498,130.863281 733.416498,135.316406 C733.416498,139.789062 735.350091,142.367188 738.728998,142.367188 Z M761.718268,141.742188 C765.097174,141.742188 767.128424,139.164062 767.128424,135.082031 C767.128424,131 765.077643,128.402344 761.718268,128.402344 C758.339362,128.402344 756.425299,131 756.425299,135.082031 C756.425299,139.164062 758.339362,141.742188 761.718268,141.742188 Z M761.718268,154.125 C756.229987,154.125 752.636237,151.703125 752.245612,148.03125 L757.108893,148.03125 C757.421393,149.496094 759.140143,150.433594 761.796393,150.433594 C765.116706,150.433594 767.050299,148.871094 767.050299,146.195312 L767.050299,142.152344 L766.718268,142.152344 C765.487799,144.4375 763.163581,145.6875 760.194831,145.6875 C754.804206,145.6875 751.444831,141.507812 751.444831,135.082031 C751.444831,128.539062 754.823737,124.28125 760.272956,124.28125 C763.183112,124.28125 765.722174,125.726562 766.894049,128.050781 L767.226081,128.050781 L767.226081,124.632812 L771.894049,124.632812 L771.894049,146.078125 C771.894049,151.019531 767.948737,154.125 761.718268,154.125 Z" id="Simple-permission-ma"></path>
        </g>
    </g>
</svg>