<?xml version="1.0" encoding="UTF-8"?>
<svg width="1600px" height="300px" viewBox="0 0 1600 300" version="1.1" xmlns="http://www.w3.org/2000/svg" xmlns:xlink="http://www.w3.org/1999/xlink">
    <!-- Generator: Sketch 52.6 (67491) - http://www.bohemiancoding.com/sketch -->
    <title>request-permission - baner</title>
    <desc>Created with Sketch.</desc>
    <g id="request-permission---baner" stroke="none" stroke-width="1" fill="none" fill-rule="evenodd">
        <rect fill="#FFFFFF" x="0" y="0" width="1600" height="300"></rect>
        <g id="Group-3" transform="translate(418.000000, 90.000000)" fill="#007AFF">
            <path d="M81,50.3613281 L96.3808594,50.3613281 C96.7763672,54.9755859 101.390625,57.9199219 108.070312,57.9199219 C114.09082,57.9199219 118.22168,55.0195312 118.22168,50.8447266 C118.22168,47.3291016 115.453125,45.4394531 108.202148,43.9892578 L99.8525391,42.3193359 C88.2509766,40.1220703 82.2744141,33.7939453 82.2744141,23.8183594 C82.2744141,11.4257812 92.2060547,3.29589844 107.499023,3.29589844 C122.352539,3.29589844 132.635742,11.3378906 132.899414,23.0712891 L118.001953,23.0712891 C117.650391,18.5888672 113.387695,15.46875 107.71875,15.46875 C102.049805,15.46875 98.3144531,18.1494141 98.3144531,22.3681641 C98.3144531,25.8398438 101.126953,27.8613281 107.806641,29.1796875 L115.980469,30.7617188 C128.504883,33.1787109 134.129883,38.8476562 134.129883,48.9111328 C134.129883,62.1386719 124.022461,70.1367188 107.411133,70.1367188 C91.3710938,70.1367188 81.2636719,62.578125 81,50.3613281 Z M143.272734,5.00976562 L171.046172,5.00976562 C184.669219,5.00976562 193.897734,13.8867188 193.897734,27.5097656 C193.897734,41.0009766 184.18582,49.8339844 170.079375,49.8339844 L159.400664,49.8339844 L159.400664,68.4228516 L143.272734,68.4228516 L143.272734,5.00976562 Z M159.400664,17.4023438 L159.400664,37.6611328 L166.695586,37.6611328 C173.551055,37.6611328 177.594023,34.1455078 177.594023,27.5537109 C177.594023,20.8740234 173.595,17.4023438 166.783477,17.4023438 L159.400664,17.4023438 Z M202.689023,5.00976562 L230.462461,5.00976562 C244.085508,5.00976562 253.314023,13.8867188 253.314023,27.5097656 C253.314023,41.0009766 243.602109,49.8339844 229.495664,49.8339844 L218.816953,49.8339844 L218.816953,68.4228516 L202.689023,68.4228516 L202.689023,5.00976562 Z M218.816953,17.4023438 L218.816953,37.6611328 L226.111875,37.6611328 C232.967344,37.6611328 237.010313,34.1455078 237.010313,27.5537109 C237.010313,20.8740234 233.011289,17.4023438 226.199766,17.4023438 L218.816953,17.4023438 Z M281.397305,29.3994141 C276.299649,29.3994141 272.740078,32.9589844 272.34457,38.4960938 L290.098477,38.4960938 C289.834805,32.7832031 286.582852,29.3994141 281.397305,29.3994141 Z M290.669766,54.0087891 L304.864102,54.0087891 C303.150234,63.5449219 294.185391,69.5654297 281.529141,69.5654297 C265.928555,69.5654297 256.963711,60.3369141 256.963711,44.296875 C256.963711,28.1689453 266.148281,18.3691406 281.309414,18.3691406 C296.382656,18.3691406 305.171719,27.5097656 305.171719,43.1103516 L305.171719,47.4169922 L272.25668,47.4169922 L272.25668,48.2080078 C272.388516,54.5800781 276.035977,58.5351562 281.968594,58.5351562 C286.494961,58.5351562 289.615078,56.8652344 290.669766,54.0087891 Z M311.809688,68.4228516 L311.809688,19.5117188 L326.926875,19.5117188 L326.926875,27.5537109 L327.761836,27.5537109 C328.948359,22.6318359 333.694453,18.7646484 339.802852,18.7646484 C341.868281,18.7646484 344.285274,19.0283203 345.427852,19.5117188 L345.427852,32.7392578 C344.241328,32.2558594 341.121211,31.8603516 338.748164,31.8603516 C331.892695,31.8603516 327.322383,35.7275391 327.322383,42.5390625 L327.322383,68.4228516 L311.809688,68.4228516 Z M350.747461,68.4228516 L350.747461,19.5117188 L365.864649,19.5117188 L365.864649,27.5976562 L366.69961,27.5976562 C368.589258,21.9287109 373.774805,18.3691406 380.19082,18.3691406 C387.178125,18.3691406 391.924219,21.7089844 393.769922,27.5976562 L394.604883,27.5976562 C396.626367,22.0166016 402.339258,18.3691406 409.238672,18.3691406 C418.862695,18.3691406 425.19082,24.9609375 425.19082,34.9804688 L425.19082,68.4228516 L409.678125,68.4228516 L409.678125,38.9355469 C409.678125,33.6621094 407.305078,31.0693359 402.60293,31.0693359 C398.164453,31.0693359 395.395899,34.2773438 395.395899,39.0673828 L395.395899,68.4228516 L380.542383,68.4228516 L380.542383,38.671875 C380.542383,33.75 378.0375,31.0693359 373.555078,31.0693359 C369.204492,31.0693359 366.260156,34.4091797 366.260156,39.3310547 L366.260156,68.4228516 L350.747461,68.4228516 Z M433.850274,68.4228516 L433.850274,19.5117188 L449.406914,19.5117188 L449.406914,68.4228516 L433.850274,68.4228516 Z M441.628594,13.8427734 C436.179375,13.8427734 432.883477,11.0742188 432.883477,6.94335938 C432.883477,2.76855469 436.179375,0 441.628594,0 C447.121758,0 450.417656,2.76855469 450.417656,6.94335938 C450.417656,11.0742188 447.121758,13.8427734 441.628594,13.8427734 Z M457.451133,34.2333984 C457.451133,24.5214844 465.756797,18.3691406 478.940391,18.3691406 C492.475547,18.3691406 499.902305,23.5986328 500.473594,33.4423828 L486.323203,33.4423828 C485.88375,30.5859375 483.290977,28.8720703 479.072227,28.8720703 C475.029258,28.8720703 472.216758,30.6298828 472.216758,33.2666016 C472.216758,35.3320312 473.974571,36.5625 477.841758,37.3974609 L487.94918,39.4628906 C497.573203,41.484375 501.748008,45.4833984 501.748008,52.9101562 C501.748008,63.0615234 492.82711,69.5654297 479.160117,69.5654297 C465.141563,69.5654297 457.143516,64.2480469 456.26461,54.4042969 L471.249961,54.4042969 C472.040977,57.4365234 474.809531,59.0625 479.379844,59.0625 C483.642539,59.0625 486.411094,57.3486328 486.411094,54.7119141 C486.411094,52.6464844 484.960899,51.5478516 481.049766,50.7128906 L471.953086,48.7792969 C462.241172,46.7138672 457.451133,41.9238281 457.451133,34.2333984 Z M506.540274,34.2333984 C506.540274,24.5214844 514.845938,18.3691406 528.029531,18.3691406 C541.564688,18.3691406 548.991446,23.5986328 549.562735,33.4423828 L535.412344,33.4423828 C534.972891,30.5859375 532.380117,28.8720703 528.161367,28.8720703 C524.118399,28.8720703 521.305899,30.6298828 521.305899,33.2666016 C521.305899,35.3320312 523.063711,36.5625 526.930899,37.3974609 L537.038321,39.4628906 C546.662344,41.484375 550.837149,45.4833984 550.837149,52.9101562 C550.837149,63.0615234 541.91625,69.5654297 528.249258,69.5654297 C514.230703,69.5654297 506.232656,64.2480469 505.35375,54.4042969 L520.339102,54.4042969 C521.130117,57.4365234 523.898672,59.0625 528.468985,59.0625 C532.73168,59.0625 535.500235,57.3486328 535.500235,54.7119141 C535.500235,52.6464844 534.050039,51.5478516 530.138906,50.7128906 L521.042227,48.7792969 C511.330313,46.7138672 506.540274,41.9238281 506.540274,34.2333984 Z M557.606953,68.4228516 L557.606953,19.5117188 L573.163594,19.5117188 L573.163594,68.4228516 L557.606953,68.4228516 Z M565.385274,13.8427734 C559.936055,13.8427734 556.640157,11.0742188 556.640157,6.94335938 C556.640157,2.76855469 559.936055,0 565.385274,0 C570.878438,0 574.174336,2.76855469 574.174336,6.94335938 C574.174336,11.0742188 570.878438,13.8427734 565.385274,13.8427734 Z M604.806446,69.5654297 C589.161914,69.5654297 579.889453,60.0292969 579.889453,43.9453125 C579.889453,28.125 589.425586,18.3691406 604.806446,18.3691406 C620.275196,18.3691406 629.723438,28.0371094 629.723438,43.9453125 C629.723438,60.0732422 620.494922,69.5654297 604.806446,69.5654297 Z M604.806446,57.7001953 C610.519336,57.7001953 613.771289,52.6464844 613.771289,43.9453125 C613.771289,35.4199219 610.431446,30.234375 604.806446,30.234375 C599.181446,30.234375 595.841602,35.4199219 595.841602,43.9453125 C595.841602,52.6904297 599.093555,57.7001953 604.806446,57.7001953 Z M636.405352,68.4228516 L636.405352,19.5117188 L651.522539,19.5117188 L651.522539,27.4658203 L652.3575,27.4658203 C654.510821,21.9287109 659.608477,18.3691406 666.683672,18.3691406 C677.58211,18.3691406 683.251055,25.0927734 683.251055,36.8261719 L683.251055,68.4228516 L667.694414,68.4228516 L667.694414,40.2978516 C667.694414,34.3652344 665.277422,31.0693359 660.003985,31.0693359 C654.950274,31.0693359 651.918047,34.8486328 651.918047,40.4736328 L651.918047,68.4228516 L636.405352,68.4228516 Z" id="SPPermission"></path>
            <path d="M0,120.539062 L4.921875,120.539062 C5.234375,123.058594 7.734375,124.679688 11.3085938,124.679688 C14.6289063,124.679688 17.03125,122.980469 17.03125,120.617188 C17.03125,118.585938 15.4882812,117.394531 11.875,116.554688 L8.22265625,115.714844 C3.10546875,114.5625 0.703125,112.023438 0.703125,107.824219 C0.703125,102.707031 4.8828125,99.3085938 11.1914063,99.3085938 C17.109375,99.3085938 21.3867188,102.707031 21.6210938,107.550781 L16.796875,107.550781 C16.4453125,105.070312 14.2578125,103.507812 11.171875,103.507812 C7.9296875,103.507812 5.78125,105.070312 5.78125,107.472656 C5.78125,109.367188 7.20703125,110.480469 10.703125,111.28125 L13.9453125,112.023438 C19.6679688,113.3125 22.0703125,115.695312 22.0703125,119.992188 C22.0703125,125.480469 17.8320312,128.898438 10.9960938,128.898438 C4.53125,128.898438 0.25390625,125.65625 0,120.539062 Z M25.9384892,128.195312 L25.9384892,106.828125 L30.762708,106.828125 L30.762708,128.195312 L25.9384892,128.195312 Z M28.340833,103.351562 C26.5830205,103.351562 25.3525517,102.21875 25.3525517,100.675781 C25.3525517,99.1328125 26.5830205,98 28.340833,98 C30.1181767,98 31.3291142,99.1328125 31.3291142,100.675781 C31.3291142,102.21875 30.1181767,103.351562 28.340833,103.351562 Z M35.4121348,128.195312 L35.4121348,106.828125 L40.0801035,106.828125 L40.0801035,110.285156 L40.4121348,110.285156 C41.3301035,107.84375 43.5176035,106.398438 46.3496348,106.398438 C49.2988535,106.398438 51.3496348,107.882812 52.2480723,110.285156 L52.5801035,110.285156 C53.634791,107.941406 56.0957285,106.398438 59.0644785,106.398438 C63.3418223,106.398438 65.9199473,109.074219 65.9199473,113.507812 L65.9199473,128.195312 L61.0957285,128.195312 L61.0957285,114.738281 C61.0957285,111.984375 59.7871348,110.617188 57.1894785,110.617188 C54.6699473,110.617188 53.009791,112.453125 53.009791,114.894531 L53.009791,128.195312 L48.3027598,128.195312 L48.3027598,114.386719 C48.3027598,112.042969 46.8183848,110.617188 44.4355723,110.617188 C42.0332285,110.617188 40.2558848,112.589844 40.2558848,115.207031 L40.2558848,128.195312 L35.4121348,128.195312 Z M81.9560928,106.476562 C87.366249,106.476562 90.7646865,110.65625 90.7646865,117.511719 C90.7646865,124.328125 87.4053115,128.546875 82.0146865,128.546875 C78.9482803,128.546875 76.584999,127.21875 75.491249,124.953125 L75.1592178,124.953125 L75.1592178,135.304688 L70.3154678,135.304688 L70.3154678,106.828125 L74.9834365,106.828125 L74.9834365,110.363281 L75.3154678,110.363281 C76.5459365,107.941406 79.0264053,106.476562 81.9560928,106.476562 Z M80.4326553,124.425781 C83.7920303,124.425781 85.7842178,121.828125 85.7842178,117.511719 C85.7842178,113.195312 83.772499,110.597656 80.4521865,110.597656 C77.1514053,110.597656 75.0810928,113.253906 75.0615615,117.511719 C75.0810928,121.789062 77.131874,124.425781 80.4326553,124.425781 Z M94.4766133,128.195312 L94.4766133,98.5664062 L99.3203633,98.5664062 L99.3203633,128.195312 L94.4766133,128.195312 Z M113.051821,110.246094 C110.161196,110.246094 108.129946,112.316406 107.915103,115.441406 L117.973696,115.441406 C117.87604,112.277344 115.961978,110.246094 113.051821,110.246094 Z M118.012759,122.316406 L122.602603,122.316406 C121.684634,126.203125 118.149478,128.625 113.110415,128.625 C106.821353,128.625 103.03229,124.464844 103.03229,117.589844 C103.03229,110.714844 106.879946,106.398438 113.071353,106.398438 C119.165103,106.398438 122.817446,110.441406 122.817446,117.179688 L122.817446,118.742188 L107.895571,118.742188 L107.895571,118.996094 C108.012759,122.550781 110.06354,124.777344 113.247134,124.777344 C115.649478,124.777344 117.309634,123.898438 118.012759,122.316406 Z M147.292081,106.476562 C152.702237,106.476562 156.100675,110.65625 156.100675,117.511719 C156.100675,124.328125 152.7413,128.546875 147.350675,128.546875 C144.284268,128.546875 141.920987,127.21875 140.827237,124.953125 L140.495206,124.953125 L140.495206,135.304688 L135.651456,135.304688 L135.651456,106.828125 L140.319425,106.828125 L140.319425,110.363281 L140.651456,110.363281 C141.881925,107.941406 144.362393,106.476562 147.292081,106.476562 Z M145.768643,124.425781 C149.128018,124.425781 151.120206,121.828125 151.120206,117.511719 C151.120206,113.195312 149.108487,110.597656 145.788175,110.597656 C142.487393,110.597656 140.417081,113.253906 140.39755,117.511719 C140.417081,121.789062 142.467862,124.425781 145.768643,124.425781 Z M168.582133,110.246094 C165.691508,110.246094 163.660258,112.316406 163.445414,115.441406 L173.504008,115.441406 C173.406351,112.277344 171.492289,110.246094 168.582133,110.246094 Z M173.54307,122.316406 L178.132914,122.316406 C177.214945,126.203125 173.679789,128.625 168.640726,128.625 C162.351664,128.625 158.562601,124.464844 158.562601,117.589844 C158.562601,110.714844 162.410258,106.398438 168.601664,106.398438 C174.695414,106.398438 178.347758,110.441406 178.347758,117.179688 L178.347758,118.742188 L163.425883,118.742188 L163.425883,118.996094 C163.54307,122.550781 165.593851,124.777344 168.777445,124.777344 C171.179789,124.777344 172.839945,123.898438 173.54307,122.316406 Z M181.864372,128.195312 L181.864372,106.828125 L186.532341,106.828125 L186.532341,110.148438 L186.864372,110.148438 C187.45031,108.039062 189.754997,106.476562 192.508903,106.476562 C193.212028,106.476562 194.071403,106.554688 194.520622,106.691406 L194.520622,111.183594 C194.149528,111.046875 192.860466,110.910156 192.040153,110.910156 C188.895622,110.910156 186.708122,112.863281 186.708122,115.851562 L186.708122,128.195312 L181.864372,128.195312 Z M197.412236,128.195312 L197.412236,106.828125 L202.080205,106.828125 L202.080205,110.285156 L202.412236,110.285156 C203.330205,107.84375 205.517705,106.398438 208.349736,106.398438 C211.298955,106.398438 213.349736,107.882812 214.248174,110.285156 L214.580205,110.285156 C215.634893,107.941406 218.09583,106.398438 221.06458,106.398438 C225.341924,106.398438 227.920049,109.074219 227.920049,113.507812 L227.920049,128.195312 L223.09583,128.195312 L223.09583,114.738281 C223.09583,111.984375 221.787236,110.617188 219.18958,110.617188 C216.670049,110.617188 215.009893,112.453125 215.009893,114.894531 L215.009893,128.195312 L210.302861,128.195312 L210.302861,114.386719 C210.302861,112.042969 208.818486,110.617188 206.435674,110.617188 C204.03333,110.617188 202.255986,112.589844 202.255986,115.207031 L202.255986,128.195312 L197.412236,128.195312 Z M232.374163,128.195312 L232.374163,106.828125 L237.198382,106.828125 L237.198382,128.195312 L232.374163,128.195312 Z M234.776507,103.351562 C233.018694,103.351562 231.788226,102.21875 231.788226,100.675781 C231.788226,99.1328125 233.018694,98 234.776507,98 C236.553851,98 237.764788,99.1328125 237.764788,100.675781 C237.764788,102.21875 236.553851,103.351562 234.776507,103.351562 Z M241.359527,112.941406 C241.359527,109.074219 244.875152,106.398438 249.914215,106.398438 C254.99234,106.398438 258.175934,108.644531 258.527496,112.53125 L253.976715,112.53125 C253.625152,111.027344 252.199371,110.070312 249.933746,110.070312 C247.726715,110.070312 246.066559,111.125 246.066559,112.667969 C246.066559,113.878906 247.082184,114.621094 249.230621,115.109375 L253.000152,115.96875 C257.082184,116.886719 258.976715,118.644531 258.976715,121.789062 C258.976715,125.890625 255.207184,128.625 249.875152,128.625 C244.543121,128.625 241.183746,126.320312 240.812652,122.433594 L245.597809,122.433594 C246.066559,124.015625 247.570465,124.953125 249.99234,124.953125 C252.433746,124.953125 254.132965,123.878906 254.132965,122.296875 C254.132965,121.085938 253.214996,120.324219 251.183746,119.875 L247.394684,118.996094 C243.293121,118.058594 241.359527,116.164062 241.359527,112.941406 Z M261.653485,112.941406 C261.653485,109.074219 265.16911,106.398438 270.208173,106.398438 C275.286298,106.398438 278.469892,108.644531 278.821454,112.53125 L274.270673,112.53125 C273.91911,111.027344 272.493329,110.070312 270.227704,110.070312 C268.020673,110.070312 266.360517,111.125 266.360517,112.667969 C266.360517,113.878906 267.376142,114.621094 269.524579,115.109375 L273.29411,115.96875 C277.376142,116.886719 279.270673,118.644531 279.270673,121.789062 C279.270673,125.890625 275.501142,128.625 270.16911,128.625 C264.837079,128.625 261.477704,126.320312 261.10661,122.433594 L265.891767,122.433594 C266.360517,124.015625 267.864423,124.953125 270.286298,124.953125 C272.727704,124.953125 274.426923,123.878906 274.426923,122.296875 C274.426923,121.085938 273.508954,120.324219 271.477704,119.875 L267.688642,118.996094 C263.587079,118.058594 261.653485,116.164062 261.653485,112.941406 Z M282.884943,128.195312 L282.884943,106.828125 L287.709162,106.828125 L287.709162,128.195312 L282.884943,128.195312 Z M285.287287,103.351562 C283.529474,103.351562 282.299006,102.21875 282.299006,100.675781 C282.299006,99.1328125 283.529474,98 285.287287,98 C287.064631,98 288.275568,99.1328125 288.275568,100.675781 C288.275568,102.21875 287.064631,103.351562 285.287287,103.351562 Z M301.577339,128.625 C295.171089,128.625 291.303901,124.445312 291.303901,117.511719 C291.303901,110.617188 295.229683,106.398438 301.577339,106.398438 C307.944526,106.398438 311.850776,110.597656 311.850776,117.511719 C311.850776,124.445312 307.964058,128.625 301.577339,128.625 Z M301.577339,124.5625 C304.956245,124.5625 306.870308,121.984375 306.870308,117.511719 C306.870308,113.058594 304.936714,110.460938 301.577339,110.460938 C298.198433,110.460938 296.264839,113.058594 296.264839,117.511719 C296.264839,121.984375 298.198433,124.5625 301.577339,124.5625 Z M315.386922,128.195312 L315.386922,106.828125 L320.05489,106.828125 L320.05489,110.246094 L320.386922,110.246094 C321.402547,107.863281 323.550984,106.398438 326.734578,106.398438 C331.500203,106.398438 334.097859,109.269531 334.097859,114.367188 L334.097859,128.195312 L329.254109,128.195312 L329.254109,115.519531 C329.254109,112.257812 327.886922,110.617188 324.937703,110.617188 C322.047078,110.617188 320.230672,112.609375 320.230672,115.753906 L320.230672,128.195312 L315.386922,128.195312 Z M347.810775,128.195312 L347.810775,106.828125 L352.478744,106.828125 L352.478744,110.285156 L352.810775,110.285156 C353.728744,107.84375 355.916244,106.398438 358.748275,106.398438 C361.697494,106.398438 363.748275,107.882812 364.646713,110.285156 L364.978744,110.285156 C366.033431,107.941406 368.494369,106.398438 371.463119,106.398438 C375.740463,106.398438 378.318588,109.074219 378.318588,113.507812 L378.318588,128.195312 L373.494369,128.195312 L373.494369,114.738281 C373.494369,111.984375 372.185775,110.617188 369.588119,110.617188 C367.068588,110.617188 365.408431,112.453125 365.408431,114.894531 L365.408431,128.195312 L360.7014,128.195312 L360.7014,114.386719 C360.7014,112.042969 359.217025,110.617188 356.834213,110.617188 C354.431869,110.617188 352.654525,112.589844 352.654525,115.207031 L352.654525,128.195312 L347.810775,128.195312 Z M390.018796,124.738281 C392.948483,124.738281 395.135983,122.84375 395.135983,120.363281 L395.135983,118.664062 L390.311764,118.976562 C387.596921,119.152344 386.327389,120.128906 386.327389,121.867188 C386.327389,123.664062 387.870358,124.738281 390.018796,124.738281 Z M388.593014,128.546875 C384.471921,128.546875 381.522702,126.046875 381.522702,122.140625 C381.522702,118.273438 384.432858,116.046875 389.628171,115.734375 L395.135983,115.402344 L395.135983,113.605469 C395.135983,111.515625 393.729733,110.34375 391.112546,110.34375 C388.885983,110.34375 387.362546,111.125 386.913327,112.570312 L382.343014,112.570312 C382.733639,108.800781 386.268796,106.398438 391.346921,106.398438 C396.835202,106.398438 399.921139,109.074219 399.921139,113.605469 L399.921139,128.195312 L395.253171,128.195312 L395.253171,125.265625 L394.921139,125.265625 C393.729733,127.335938 391.385983,128.546875 388.593014,128.546875 Z M404.394785,128.195312 L404.394785,106.828125 L409.062754,106.828125 L409.062754,110.246094 L409.394785,110.246094 C410.41041,107.863281 412.558847,106.398438 415.742441,106.398438 C420.508066,106.398438 423.105722,109.269531 423.105722,114.367188 L423.105722,128.195312 L418.261972,128.195312 L418.261972,115.519531 C418.261972,112.257812 416.894785,110.617188 413.945566,110.617188 C411.054941,110.617188 409.238535,112.609375 409.238535,115.753906 L409.238535,128.195312 L404.394785,128.195312 Z M434.80593,124.738281 C437.735618,124.738281 439.923118,122.84375 439.923118,120.363281 L439.923118,118.664062 L435.098899,118.976562 C432.384055,119.152344 431.114524,120.128906 431.114524,121.867188 C431.114524,123.664062 432.657493,124.738281 434.80593,124.738281 Z M433.380149,128.546875 C429.259055,128.546875 426.309837,126.046875 426.309837,122.140625 C426.309837,118.273438 429.219993,116.046875 434.415305,115.734375 L439.923118,115.402344 L439.923118,113.605469 C439.923118,111.515625 438.516868,110.34375 435.89968,110.34375 C433.673118,110.34375 432.14968,111.125 431.700462,112.570312 L427.130149,112.570312 C427.520774,108.800781 431.05593,106.398438 436.134055,106.398438 C441.622337,106.398438 444.708274,109.074219 444.708274,113.605469 L444.708274,128.195312 L440.040305,128.195312 L440.040305,125.265625 L439.708274,125.265625 C438.516868,127.335938 436.173118,128.546875 433.380149,128.546875 Z M458.361607,123.9375 C461.740513,123.9375 463.771763,121.359375 463.771763,117.277344 C463.771763,113.195312 461.720982,110.597656 458.361607,110.597656 C454.982701,110.597656 453.068638,113.195312 453.068638,117.277344 C453.068638,121.359375 454.982701,123.9375 458.361607,123.9375 Z M458.361607,136.320312 C452.873326,136.320312 449.279576,133.898438 448.888951,130.226562 L453.752232,130.226562 C454.064732,131.691406 455.783482,132.628906 458.439732,132.628906 C461.760045,132.628906 463.693638,131.066406 463.693638,128.390625 L463.693638,124.347656 L463.361607,124.347656 C462.131138,126.632812 459.80692,127.882812 456.83817,127.882812 C451.447545,127.882812 448.08817,123.703125 448.08817,117.277344 C448.08817,110.734375 451.467076,106.476562 456.916295,106.476562 C459.826451,106.476562 462.365513,107.921875 463.537388,110.246094 L463.86942,110.246094 L463.86942,106.828125 L468.537388,106.828125 L468.537388,128.273438 C468.537388,133.214844 464.592076,136.320312 458.361607,136.320312 Z M482.093065,110.246094 C479.20244,110.246094 477.17119,112.316406 476.956346,115.441406 L487.01494,115.441406 C486.917284,112.277344 485.003221,110.246094 482.093065,110.246094 Z M487.054003,122.316406 L491.643846,122.316406 C490.725878,126.203125 487.190721,128.625 482.151659,128.625 C475.862596,128.625 472.073534,124.464844 472.073534,117.589844 C472.073534,110.714844 475.92119,106.398438 482.112596,106.398438 C488.206346,106.398438 491.85869,110.441406 491.85869,117.179688 L491.85869,118.742188 L476.936815,118.742188 L476.936815,118.996094 C477.054003,122.550781 479.104784,124.777344 482.288378,124.777344 C484.690721,124.777344 486.350878,123.898438 487.054003,122.316406 Z M495.375304,128.195312 L495.375304,106.828125 L500.043273,106.828125 L500.043273,110.148438 L500.375304,110.148438 C500.961242,108.039062 503.265929,106.476562 506.019836,106.476562 C506.722961,106.476562 507.582336,106.554688 508.031554,106.691406 L508.031554,111.183594 C507.660461,111.046875 506.371398,110.910156 505.551086,110.910156 C502.406554,110.910156 500.219054,112.863281 500.219054,115.851562 L500.219054,128.195312 L495.375304,128.195312 Z M548.580408,106.828125 L542.799158,128.195312 L537.701502,128.195312 L533.541345,112.804688 L533.209314,112.804688 L529.068689,128.195312 L524.029627,128.195312 L518.248377,106.828125 L523.131189,106.828125 L526.685877,122.785156 L527.017908,122.785156 L531.11947,106.828125 L535.748377,106.828125 L539.889002,122.785156 L540.221033,122.785156 L543.756189,106.828125 L548.580408,106.828125 Z M551.511085,128.195312 L551.511085,106.828125 L556.335303,106.828125 L556.335303,128.195312 L551.511085,128.195312 Z M553.913428,103.351562 C552.155616,103.351562 550.925147,102.21875 550.925147,100.675781 C550.925147,99.1328125 552.155616,98 553.913428,98 C555.690772,98 556.90171,99.1328125 556.90171,100.675781 C556.90171,102.21875 555.690772,103.351562 553.913428,103.351562 Z M562.527699,101.59375 L567.351918,101.59375 L567.351918,106.964844 L571.92223,106.964844 L571.92223,110.832031 L567.351918,110.832031 L567.351918,121.320312 C567.351918,123.429688 568.250355,124.367188 570.281605,124.367188 C570.965199,124.367188 571.336293,124.328125 571.92223,124.269531 L571.92223,128.058594 C571.219105,128.195312 570.320668,128.292969 569.383168,128.292969 C564.480824,128.292969 562.527699,126.632812 562.527699,122.492188 L562.527699,110.832031 L559.148793,110.832031 L559.148793,106.964844 L562.527699,106.964844 L562.527699,101.59375 Z M575.614626,128.195312 L575.614626,98.5664062 L580.380251,98.5664062 L580.380251,110.285156 L580.731813,110.285156 C581.747438,107.882812 584.032594,106.4375 587.216188,106.4375 C591.786501,106.4375 594.559938,109.328125 594.559938,114.40625 L594.559938,128.195312 L589.716188,128.195312 L589.716188,115.558594 C589.716188,112.316406 588.231813,110.65625 585.419313,110.65625 C582.235719,110.65625 580.458376,112.726562 580.458376,115.792969 L580.458376,128.195312 L575.614626,128.195312 Z M613.878323,100.011719 L613.878323,118.019531 C613.878323,121.828125 616.261135,124.386719 620.440823,124.386719 C624.62051,124.386719 626.983792,121.828125 626.983792,118.019531 L626.983792,100.011719 L632.022854,100.011719 L632.022854,118.488281 C632.022854,124.640625 627.569729,128.898438 620.440823,128.898438 C613.311917,128.898438 608.858792,124.640625 608.858792,118.488281 L608.858792,100.011719 L613.878323,100.011719 Z M642.726968,128.195312 L637.687906,128.195312 L637.687906,100.011719 L642.726968,100.011719 L642.726968,128.195312 Z M664.877384,128.546875 C659.467228,128.546875 656.088322,124.289062 656.088322,117.492188 C656.088322,110.734375 659.486759,106.476562 664.877384,106.476562 C667.807072,106.476562 670.228947,107.882812 671.361759,110.226562 L671.693791,110.226562 L671.693791,98.5664062 L676.537541,98.5664062 L676.537541,128.195312 L671.850041,128.195312 L671.850041,124.816406 L671.518009,124.816406 C670.307072,127.160156 667.846134,128.546875 664.877384,128.546875 Z M666.381291,110.597656 C663.080509,110.597656 661.049259,113.214844 661.049259,117.511719 C661.049259,121.828125 663.060978,124.425781 666.381291,124.425781 C669.721134,124.425781 671.752384,121.808594 671.752384,117.511719 C671.752384,113.253906 669.701603,110.597656 666.381291,110.597656 Z M681.362749,128.195312 L681.362749,106.828125 L686.186967,106.828125 L686.186967,128.195312 L681.362749,128.195312 Z M683.765092,103.351562 C682.00728,103.351562 680.776811,102.21875 680.776811,100.675781 C680.776811,99.1328125 682.00728,98 683.765092,98 C685.542436,98 686.753374,99.1328125 686.753374,100.675781 C686.753374,102.21875 685.542436,103.351562 683.765092,103.351562 Z M698.141082,124.738281 C701.070769,124.738281 703.258269,122.84375 703.258269,120.363281 L703.258269,118.664062 L698.43405,118.976562 C695.719207,119.152344 694.449675,120.128906 694.449675,121.867188 C694.449675,123.664062 695.992644,124.738281 698.141082,124.738281 Z M696.7153,128.546875 C692.594207,128.546875 689.644988,126.046875 689.644988,122.140625 C689.644988,118.273438 692.555144,116.046875 697.750457,115.734375 L703.258269,115.402344 L703.258269,113.605469 C703.258269,111.515625 701.852019,110.34375 699.234832,110.34375 C697.008269,110.34375 695.484832,111.125 695.035613,112.570312 L690.4653,112.570312 C690.855925,108.800781 694.391082,106.398438 699.469207,106.398438 C704.957488,106.398438 708.043425,109.074219 708.043425,113.605469 L708.043425,128.195312 L703.375457,128.195312 L703.375457,125.265625 L703.043425,125.265625 C701.852019,127.335938 699.508269,128.546875 696.7153,128.546875 Z M712.712383,128.195312 L712.712383,98.5664062 L717.556133,98.5664062 L717.556133,128.195312 L712.712383,128.195312 Z M731.541498,128.625 C725.135248,128.625 721.26806,124.445312 721.26806,117.511719 C721.26806,110.617188 725.193841,106.398438 731.541498,106.398438 C737.908685,106.398438 741.814935,110.597656 741.814935,117.511719 C741.814935,124.445312 737.928216,128.625 731.541498,128.625 Z M731.541498,124.5625 C734.920404,124.5625 736.834466,121.984375 736.834466,117.511719 C736.834466,113.058594 734.900873,110.460938 731.541498,110.460938 C728.162591,110.460938 726.228998,113.058594 726.228998,117.511719 C726.228998,121.984375 728.162591,124.5625 731.541498,124.5625 Z M754.530768,123.9375 C757.909674,123.9375 759.940924,121.359375 759.940924,117.277344 C759.940924,113.195312 757.890143,110.597656 754.530768,110.597656 C751.151862,110.597656 749.237799,113.195312 749.237799,117.277344 C749.237799,121.359375 751.151862,123.9375 754.530768,123.9375 Z M754.530768,136.320312 C749.042487,136.320312 745.448737,133.898438 745.058112,130.226562 L749.921393,130.226562 C750.233893,131.691406 751.952643,132.628906 754.608893,132.628906 C757.929206,132.628906 759.862799,131.066406 759.862799,128.390625 L759.862799,124.347656 L759.530768,124.347656 C758.300299,126.632812 755.976081,127.882812 753.007331,127.882812 C747.616706,127.882812 744.257331,123.703125 744.257331,117.277344 C744.257331,110.734375 747.636237,106.476562 753.085456,106.476562 C755.995612,106.476562 758.534674,107.921875 759.706549,110.246094 L760.038581,110.246094 L760.038581,106.828125 L764.706549,106.828125 L764.706549,128.273438 C764.706549,133.214844 760.761237,136.320312 754.530768,136.320312 Z" id="Simple-permission-ma"></path>
        </g>
    </g>
</svg>