<?xml version="1.0" encoding="UTF-8"?>
<svg width="175px" height="36px" viewBox="0 0 175 36" version="1.1" xmlns="http://www.w3.org/2000/svg" xmlns:xlink="http://www.w3.org/1999/xlink">
    <!-- Generator: Sketch 55.2 (78181) - https://sketchapp.com -->
    <title>Patron Button</title>
    <desc>Created with Sketch.</desc>
    <g id="Page-1" stroke="none" stroke-width="1" fill="none" fill-rule="evenodd">
        <g id="Awesome-iOS-UI" transform="translate(-49.000000, -31.000000)">
            <g id="Patron-Button" transform="translate(49.000000, 31.000000)">
                <rect id="Rectangle" fill="#007AFF" x="0" y="0" width="175" height="36" rx="18"></rect>
                <path d="M26.3554688,27.0058594 C21.0395508,27.0058594 16.6606445,22.6269531 16.6606445,17.3110352 C16.6606445,11.9951172 21.0302734,7.60693359 26.3461914,7.60693359 C31.6621094,7.60693359 36.050293,11.9951172 36.050293,17.3110352 C36.050293,22.6269531 31.6713867,27.0058594 26.3554688,27.0058594 Z" id="Path" fill="#9DE0FF" fill-rule="nonzero"></path>
                <path d="M24.0639648,13.0249023 C22.4868164,13.0249023 21.2807617,14.2402344 21.2807617,15.984375 C21.2807617,18.7768555 24.3886719,21.059082 25.8173828,21.949707 C26.1513672,22.1445312 26.550293,22.1445312 26.8935547,21.949707 C28.3222656,21.059082 31.4301758,18.7768555 31.4301758,15.984375 C31.4301758,14.2402344 30.2241211,13.0249023 28.6469727,13.0249023 C27.5893555,13.0249023 26.7915039,13.6464844 26.3554688,14.4257812 C25.9194336,13.6464844 25.1308594,13.0249023 24.0639648,13.0249023 Z" id="Path" fill="#007AFF" fill-rule="nonzero"></path>
                <path d="M54.1225586,23 L53.2290039,20.2680664 L49.3398438,20.2680664 L48.4316406,23 L46.5200195,23 L50.2700195,12.4311523 L52.394043,12.4311523 L56.1513672,23 L54.1225586,23 Z M51.2294922,14.4160156 L49.7792969,18.8105469 L52.7895508,18.8105469 L51.3540039,14.4160156 L51.2294922,14.4160156 Z M66.6699969,14.9946289 L64.5020282,23 L62.5904071,23 L61.0303485,17.1992188 L60.9058367,17.1992188 L59.3531024,23 L57.4634539,23 L55.2954852,14.9946289 L57.1265399,14.9946289 L58.4595477,21.0078125 L58.5840594,21.0078125 L60.1221453,14.9946289 L61.8579852,14.9946289 L63.4107196,21.0078125 L63.5352313,21.0078125 L64.8609149,14.9946289 L66.6699969,14.9946289 Z M72.3033727,20.8100586 L74.0245641,20.8100586 C73.6949743,22.2529297 72.3546422,23.1611328 70.4649938,23.1611328 C68.1065954,23.1611328 66.6856969,21.59375 66.6856969,19.0302734 C66.6856969,16.4594727 68.128568,14.8408203 70.4503454,14.8408203 C72.7355016,14.8408203 74.1051305,16.3569336 74.1051305,18.8691406 L74.1051305,19.4477539 L68.5094274,19.4477539 L68.5094274,19.5429688 C68.5533727,20.8979492 69.3224157,21.7475586 70.5162633,21.7475586 C71.4171422,21.7475586 72.0397008,21.4106445 72.3033727,20.8100586 Z M70.4430212,16.2543945 C69.3590368,16.2543945 68.597318,17.0380859 68.5167516,18.2392578 L72.2887243,18.2392578 C72.2521032,17.0234375 71.5343297,16.2543945 70.4430212,16.2543945 Z M74.8898735,17.2797852 C74.8898735,15.8442383 76.2082329,14.8408203 78.0978813,14.8408203 C80.0021782,14.8408203 81.1960259,15.6757812 81.3278618,17.1186523 L79.6213188,17.1186523 C79.4894829,16.5546875 78.9548149,16.1884766 78.1052056,16.1884766 C77.2775688,16.1884766 76.6550103,16.5913086 76.6550103,17.1845703 C76.6550103,17.6386719 77.0358696,17.9243164 77.8415337,18.1147461 L79.2551079,18.4296875 C80.7858696,18.78125 81.4963188,19.4331055 81.4963188,20.6123047 C81.4963188,22.1430664 80.0827446,23.1611328 78.0832329,23.1611328 C76.0837212,23.1611328 74.8239556,22.296875 74.6847954,20.8540039 L76.479229,20.8540039 C76.6550103,21.4472656 77.2189751,21.8134766 78.1271782,21.8134766 C79.0427056,21.8134766 79.6799126,21.3959961 79.6799126,20.7880859 C79.6799126,20.3339844 79.3356743,20.0410156 78.5739556,19.8652344 L77.1530571,19.5356445 C75.6149712,19.184082 74.8898735,18.480957 74.8898735,17.2797852 Z M85.935847,23.1611328 C83.5335032,23.1611328 82.0833079,21.59375 82.0833079,18.9936523 C82.0833079,16.4155273 83.5554759,14.8408203 85.935847,14.8408203 C88.3235423,14.8408203 89.7883861,16.4082031 89.7883861,18.9936523 C89.7883861,21.59375 88.3308665,23.1611328 85.935847,23.1611328 Z M85.935847,21.6743164 C87.2029368,21.6743164 87.9207103,20.6928711 87.9207103,19.0009766 C87.9207103,17.309082 87.1956126,16.3276367 85.935847,16.3276367 C84.6687572,16.3276367 83.9436595,17.309082 83.9436595,19.0009766 C83.9436595,20.6928711 84.6687572,21.6743164 85.935847,21.6743164 Z M90.7635588,23 L90.7635588,14.9946289 L92.514047,14.9946289 L92.514047,16.2836914 L92.6385588,16.2836914 C92.982797,15.3828125 93.8031095,14.8408203 94.8651213,14.8408203 C95.9710783,14.8408203 96.7401213,15.3974609 97.0770353,16.2836914 L97.201547,16.2836914 C97.5970548,15.4121094 98.5199064,14.8408203 99.6331877,14.8408203 C101.237192,14.8408203 102.203988,15.8295898 102.203988,17.4921875 L102.203988,23 L100.394906,23 L100.394906,17.9389648 C100.394906,16.8989258 99.9041838,16.3789062 98.9300627,16.3789062 C97.9852384,16.3789062 97.3626798,17.0820312 97.3626798,17.9975586 L97.3626798,23 L95.5975431,23 L95.5975431,17.8071289 C95.5975431,16.9208984 95.0409025,16.3789062 94.1473478,16.3789062 C93.2464689,16.3789062 92.579965,17.1333008 92.579965,18.1293945 L92.579965,23 L90.7635588,23 Z M108.723595,20.8100586 L110.444786,20.8100586 C110.115196,22.2529297 108.774864,23.1611328 106.885216,23.1611328 C104.526817,23.1611328 103.105919,21.59375 103.105919,19.0302734 C103.105919,16.4594727 104.54879,14.8408203 106.870567,14.8408203 C109.155724,14.8408203 110.525353,16.3569336 110.525353,18.8691406 L110.525353,19.4477539 L104.929649,19.4477539 L104.929649,19.5429688 C104.973595,20.8979492 105.742638,21.7475586 106.936485,21.7475586 C107.837364,21.7475586 108.459923,21.4106445 108.723595,20.8100586 Z M106.863243,16.2543945 C105.779259,16.2543945 105.01754,17.0380859 104.936974,18.2392578 L108.708946,18.2392578 C108.672325,17.0234375 107.954552,16.2543945 106.863243,16.2543945 Z M115.559194,13.6542969 C114.965932,13.6542969 114.47521,13.1782227 114.47521,12.5776367 C114.47521,11.984375 114.965932,11.5009766 115.559194,11.5009766 C116.15978,11.5009766 116.650503,11.984375 116.650503,12.5776367 C116.650503,13.1782227 116.15978,13.6542969 115.559194,13.6542969 Z M114.658315,23 L114.658315,14.9946289 L116.467397,14.9946289 L116.467397,23 L114.658315,23 Z M122.606144,12.1674805 C125.682316,12.1674805 127.601261,14.2988281 127.601261,17.7119141 C127.601261,21.1176758 125.68964,23.2636719 122.606144,23.2636719 C119.508,23.2636719 117.603703,21.1176758 117.603703,17.7119141 C117.603703,14.2988281 119.537296,12.1674805 122.606144,12.1674805 Z M122.606144,13.8007812 C120.731144,13.8007812 119.537296,15.3168945 119.537296,17.7119141 C119.537296,20.0922852 120.701847,21.6303711 122.606144,21.6303711 C124.488468,21.6303711 125.674992,20.0922852 125.674992,17.7119141 C125.674992,15.3168945 124.481144,13.8007812 122.606144,13.8007812 Z M128.422625,20.1362305 L130.268328,20.1362305 C130.385516,21.1030273 131.323016,21.7182617 132.663348,21.7182617 C133.908465,21.7182617 134.809344,21.0664062 134.809344,20.1655273 C134.809344,19.3964844 134.230731,18.9277344 132.87575,18.612793 L131.506121,18.2978516 C129.587176,17.8583984 128.686297,16.9135742 128.686297,15.3461914 C128.686297,13.4418945 130.25368,12.1674805 132.619403,12.1674805 C134.838641,12.1674805 136.442645,13.4345703 136.530535,15.2436523 L134.721453,15.2436523 C134.589618,14.2988281 133.769305,13.7055664 132.612078,13.7055664 C131.396258,13.7055664 130.590594,14.3061523 130.590594,15.2216797 C130.590594,15.9467773 131.125262,16.3642578 132.436297,16.671875 L133.652118,16.9501953 C135.798114,17.440918 136.698993,18.3344727 136.698993,19.9384766 C136.698993,21.9892578 135.109637,23.2636719 132.54616,23.2636719 C130.121844,23.2636719 128.51784,22.0478516 128.422625,20.1362305 Z M142.9926,12.4311523 L142.9926,19.1914062 C142.9926,20.6342773 143.87883,21.6157227 145.446213,21.6157227 C147.013596,21.6157227 147.899826,20.6342773 147.899826,19.1914062 L147.899826,12.4311523 L149.789475,12.4311523 L149.789475,19.3598633 C149.789475,21.6669922 148.119553,23.2636719 145.446213,23.2636719 C142.772873,23.2636719 141.102951,21.6669922 141.102951,19.3598633 L141.102951,12.4311523 L142.9926,12.4311523 Z M153.423339,23 L151.53369,23 L151.53369,12.4311523 L153.423339,12.4311523 L153.423339,23 Z" id="AwesomeiOSUI" fill="#FFFFFF" fill-rule="nonzero"></path>
            </g>
        </g>
    </g>
</svg>