<?xml version="1.0" encoding="UTF-8"?>
<svg width="175px" height="31px" viewBox="0 0 175 31" version="1.1" xmlns="http://www.w3.org/2000/svg" xmlns:xlink="http://www.w3.org/1999/xlink">
    <!-- Generator: Sketch 55.2 (78181) - https://sketchapp.com -->
    <title>Group 4</title>
    <desc>Created with Sketch.</desc>
    <defs>
        <linearGradient x1="50%" y1="0%" x2="50%" y2="100%" id="linearGradient-1">
            <stop stop-color="#F9FBFB" offset="0%"></stop>
            <stop stop-color="#EEF2F5" offset="100%"></stop>
        </linearGradient>
    </defs>
    <g id="Page-1" stroke="none" stroke-width="1" fill="none" fill-rule="evenodd">
        <g id="Artboard" transform="translate(-10.000000, -14.000000)">
            <g id="Group-4" transform="translate(10.000000, 14.000000)">
                <rect id="Rectangle" stroke="#C7C9CD" fill="url(#linearGradient-1)" x="0.5" y="0.5" width="174" height="30" rx="3"></rect>
                <g id="Group-7" transform="translate(13.000000, 8.000000)">
                    <path d="M25.027832,12 L23.1108398,12 L23.1108398,2.84033203 L29.109375,2.84033203 L29.109375,4.42089844 L25.027832,4.42089844 L25.027832,6.87744141 L28.7539062,6.87744141 L28.7539062,8.39453125 L25.027832,8.39453125 L25.027832,12 Z M33.46696,12.1459961 C31.3151045,12.1459961 30.0201826,10.78125 30.0201826,8.50244141 C30.0201826,6.24267578 31.3341475,4.85888672 33.46696,4.85888672 C35.5997725,4.85888672 36.9137373,6.23632812 36.9137373,8.50244141 C36.9137373,10.7875977 35.6188154,12.1459961 33.46696,12.1459961 Z M33.46696,10.6860352 C34.4508467,10.6860352 35.0157881,9.88623047 35.0157881,8.50244141 C35.0157881,7.13134766 34.444499,6.32519531 33.46696,6.32519531 C32.4830733,6.32519531 31.9181318,7.13134766 31.9181318,8.50244141 C31.9181318,9.88623047 32.4767256,10.6860352 33.46696,10.6860352 Z M38.1482754,12 L38.1482754,2.33886719 L39.9954434,2.33886719 L39.9954434,12 L38.1482754,12 Z M41.6425791,12 L41.6425791,2.33886719 L43.4897471,2.33886719 L43.4897471,12 L41.6425791,12 Z M48.1774102,12.1459961 C46.0255547,12.1459961 44.7306328,10.78125 44.7306328,8.50244141 C44.7306328,6.24267578 46.0445977,4.85888672 48.1774102,4.85888672 C50.3102227,4.85888672 51.6241875,6.23632812 51.6241875,8.50244141 C51.6241875,10.7875977 50.3292657,12.1459961 48.1774102,12.1459961 Z M48.1774102,10.6860352 C49.1612969,10.6860352 49.7262383,9.88623047 49.7262383,8.50244141 C49.7262383,7.13134766 49.1549493,6.32519531 48.1774102,6.32519531 C47.1935235,6.32519531 46.6285821,7.13134766 46.6285821,8.50244141 C46.6285821,9.88623047 47.1871758,10.6860352 48.1774102,10.6860352 Z M62.2088233,5.01123047 L60.34896,12 L58.3811866,12 L57.1306983,7.125 L57.0164405,7.125 L55.7786475,12 L53.8362647,12 L51.9700538,5.01123047 L53.8426123,5.01123047 L54.883628,10.0703125 L54.9978858,10.0703125 L56.2229834,5.01123047 L57.9876319,5.01123047 L59.2190772,10.0703125 L59.333335,10.0703125 L60.3743506,5.01123047 L62.2088233,5.01123047 Z M71.4508487,2.80224609 C74.491376,2.80224609 76.5734073,4.71923828 76.5734073,7.51855469 C76.5734073,9.53710938 75.6149112,10.8066406 74.0787784,10.8066406 C73.2853213,10.8066406 72.7076846,10.4194336 72.5680362,9.81005859 L72.4537784,9.81005859 C72.1871768,10.4511719 71.666669,10.7875977 70.9303409,10.7875977 C69.6100284,10.7875977 68.7340518,9.71484375 68.7340518,8.10253906 C68.7340518,6.56005859 69.5973331,5.50634766 70.8668643,5.50634766 C71.5460635,5.50634766 72.0983096,5.84277344 72.3522159,6.40771484 L72.4664737,6.40771484 L72.4664737,5.64599609 L73.7487002,5.64599609 L73.7487002,9.04199219 C73.7487002,9.49267578 73.9708682,9.75927734 74.3580752,9.75927734 C74.9991885,9.75927734 75.4117862,8.92138672 75.4117862,7.61376953 C75.4117862,5.31591797 73.8248721,3.81152344 71.4127627,3.81152344 C68.9562198,3.81152344 67.2487002,5.58251953 67.2487002,8.12792969 C67.2487002,10.7177734 68.9562198,12.3554688 71.6539737,12.3554688 C72.3331729,12.3554688 73.0250674,12.2666016 73.3805362,12.1333008 L73.3805362,13.1489258 C72.885419,13.3012695 72.2316104,13.3837891 71.5587588,13.3837891 C68.2516299,13.3837891 66.0870792,11.2890625 66.0870792,8.09619141 C66.0870792,4.96044922 68.2770206,2.80224609 71.4508487,2.80224609 Z M71.2477237,6.66162109 C70.5748721,6.66162109 70.1749698,7.21386719 70.1749698,8.140625 C70.1749698,9.06103516 70.5748721,9.61962891 71.241376,9.61962891 C71.9205752,9.61962891 72.3458682,9.0546875 72.3458682,8.140625 C72.3458682,7.2265625 71.9205752,6.66162109 71.2477237,6.66162109 Z M78.868004,3.93847656 C78.2967149,3.93847656 77.8206407,3.48144531 77.8206407,2.91015625 C77.8206407,2.33251953 78.2967149,1.87548828 78.868004,1.87548828 C79.439293,1.87548828 79.9090196,2.33251953 79.9090196,2.91015625 C79.9090196,3.48144531 79.439293,3.93847656 78.868004,3.93847656 Z M77.9412462,12 L77.9412462,5.01123047 L79.7884141,5.01123047 L79.7884141,12 L77.9412462,12 Z M87.6499053,5.01123047 L85.2314483,12 L83.1494171,12 L80.7182647,5.01123047 L82.7050811,5.01123047 L84.1523467,10.2670898 L84.2666046,10.2670898 L85.7011749,5.01123047 L87.6499053,5.01123047 Z M90.2618848,12.1079102 C88.9161817,12.1079102 87.9703809,11.2827148 87.9703809,10.0068359 C87.9703809,8.74365234 88.9415723,8.00732422 90.6808302,7.90576172 L92.3756544,7.80419922 L92.3756544,7.2265625 C92.3756544,6.62353516 91.9567091,6.27441406 91.1949903,6.27441406 C90.5284864,6.27441406 90.0841505,6.50927734 89.9318067,6.94726562 L88.2306348,6.94726562 C88.3512403,5.66503906 89.538252,4.85888672 91.2965528,4.85888672 C93.1500684,4.85888672 94.1974317,5.73486328 94.1974317,7.2265625 L94.1974317,12 L92.4073927,12 L92.4073927,11.0732422 L92.2931348,11.0732422 C91.9313184,11.7207031 91.1695997,12.1079102 90.2618848,12.1079102 Z M90.8712598,10.7558594 C91.7281934,10.7558594 92.3756544,10.190918 92.3756544,9.45458984 L92.3756544,8.93408203 L90.960127,9.02929688 C90.16667,9.08007812 89.779463,9.37841797 89.779463,9.89257812 C89.779463,10.4321289 90.2301466,10.7558594 90.8712598,10.7558594 Z M95.6795284,12 L95.6795284,5.01123047 L97.4695675,5.01123047 L97.4695675,6.13476562 L97.5838253,6.13476562 C97.9075558,5.34765625 98.6184933,4.85888672 99.6531612,4.85888672 C101.208337,4.85888672 102.046228,5.81103516 102.046228,7.48046875 L102.046228,12 L100.19906,12 L100.19906,7.89941406 C100.19906,6.91552734 99.786462,6.40136719 98.9104854,6.40136719 C98.0535518,6.40136719 97.5266964,7.01074219 97.5266964,7.95654297 L97.5266964,12 L95.6795284,12 Z M109.641117,5.01123047 L107.22266,12 L105.140629,12 L102.709477,5.01123047 L104.696293,5.01123047 L106.143559,10.2670898 L106.257817,10.2670898 L107.692387,5.01123047 L109.641117,5.01123047 Z M113.376632,12.1459961 C111.224776,12.1459961 109.929855,10.78125 109.929855,8.50244141 C109.929855,6.24267578 111.243819,4.85888672 113.376632,4.85888672 C115.509444,4.85888672 116.823409,6.23632812 116.823409,8.50244141 C116.823409,10.7875977 115.528487,12.1459961 113.376632,12.1459961 Z M113.376632,10.6860352 C114.360519,10.6860352 114.92546,9.88623047 114.92546,8.50244141 C114.92546,7.13134766 114.354171,6.32519531 113.376632,6.32519531 C112.392745,6.32519531 111.827804,7.13134766 111.827804,8.50244141 C111.827804,9.88623047 112.386398,10.6860352 113.376632,10.6860352 Z M117.994471,12 L117.994471,5.01123047 L119.78451,5.01123047 L119.78451,6.12207031 L119.898768,6.12207031 C120.08285,5.42382812 120.806483,4.89697266 121.695154,4.89697266 C121.949061,4.89697266 122.260096,4.92871094 122.418787,4.97949219 L122.418787,6.60449219 C122.272791,6.55371094 121.841151,6.50292969 121.542811,6.50292969 C120.533533,6.50292969 119.841639,7.10595703 119.841639,8.08984375 L119.841639,12 L117.994471,12 Z M126.262212,12.1459961 C124.110357,12.1459961 122.815435,10.78125 122.815435,8.50244141 C122.815435,6.24267578 124.1294,4.85888672 126.262212,4.85888672 C128.395025,4.85888672 129.708989,6.23632812 129.708989,8.50244141 C129.708989,10.7875977 128.414068,12.1459961 126.262212,12.1459961 Z M126.262212,10.6860352 C127.246099,10.6860352 127.81104,9.88623047 127.81104,8.50244141 C127.81104,7.13134766 127.239751,6.32519531 126.262212,6.32519531 C125.278325,6.32519531 124.713384,7.13134766 124.713384,8.50244141 C124.713384,9.88623047 125.271978,10.6860352 126.262212,10.6860352 Z M135.006027,12.1079102 C134.015793,12.1079102 133.222336,11.6635742 132.847824,10.9018555 L132.733567,10.9018555 L132.733567,12 L130.943527,12 L130.943527,2.33886719 L132.790695,2.33886719 L132.790695,6.12841797 L132.904953,6.12841797 C133.260422,5.36035156 134.047531,4.89697266 135.006027,4.89697266 C136.777024,4.89697266 137.84343,6.24902344 137.84343,8.50244141 C137.84343,10.7431641 136.764328,12.1079102 135.006027,12.1079102 Z M134.364914,6.39501953 C133.393723,6.39501953 132.778,7.20751953 132.771652,8.50878906 C132.778,9.81005859 133.387375,10.6162109 134.364914,10.6162109 C135.348801,10.6162109 135.945481,9.81640625 135.945481,8.50244141 C135.945481,7.20117188 135.342453,6.39501953 134.364914,6.39501953 Z M143.54037,10.0258789 L145.260585,10.0258789 C144.987636,11.3271484 143.775234,12.1459961 142.061366,12.1459961 C139.928554,12.1459961 138.671718,10.800293 138.671718,8.54052734 C138.671718,6.26806641 139.953944,4.85888672 142.035976,4.85888672 C144.098964,4.85888672 145.317714,6.17919922 145.317714,8.38818359 L145.317714,8.94042969 L140.512538,8.94042969 L140.512538,9.03564453 C140.537929,10.1020508 141.147304,10.7685547 142.112148,10.7685547 C142.842128,10.7685547 143.343593,10.5019531 143.54037,10.0258789 Z M142.042323,6.23632812 C141.18539,6.23632812 140.582362,6.85205078 140.518886,7.79150391 L143.502284,7.79150391 C143.464198,6.83300781 142.905605,6.23632812 142.042323,6.23632812 Z M147.434576,3.93847656 C146.863287,3.93847656 146.387213,3.48144531 146.387213,2.91015625 C146.387213,2.33251953 146.863287,1.87548828 147.434576,1.87548828 C148.005865,1.87548828 148.475592,2.33251953 148.475592,2.91015625 C148.475592,3.48144531 148.005865,3.93847656 147.434576,3.93847656 Z M146.507819,12 L146.507819,5.01123047 L148.354986,5.01123047 L148.354986,12 L146.507819,12 Z" id="Follow@ivanvorobei" fill="#000000" fill-rule="nonzero"></path>
                    <path d="M7.91593767,0 C3.54487042,0 0,3.44281538 0,7.6900401 C0,11.0875366 2.26815331,13.9695314 5.41401926,14.9863728 C5.81010774,15.0571835 5.95444919,14.8197317 5.95444919,14.6157969 C5.95444919,14.4335774 5.94764521,13.9497044 5.94375723,13.3081596 C3.74169966,13.7726777 3.27708544,12.2771561 3.27708544,12.2771561 C2.91696082,11.3887181 2.39791481,11.1522104 2.39791481,11.1522104 C1.67912357,10.6754185 2.4523466,10.6848599 2.4523466,10.6848599 C3.24695356,10.7391481 3.66491196,11.4774675 3.66491196,11.4774675 C4.37106725,12.6524527 5.51802286,12.3130335 5.96902913,12.1161798 C6.04095685,11.6195609 6.24556207,11.2806138 6.4715512,11.0884808 C4.71369594,10.8944595 2.86544502,10.234504 2.86544502,7.28783543 C2.86544502,6.44849281 3.17405384,5.76162919 3.6804639,5.22441214 C3.59881621,5.0299188 3.32714325,4.2476968 3.7582236,3.18931313 C3.7582236,3.18931313 4.42258305,2.98254594 5.93500926,3.97767206 C6.56632084,3.80678228 7.24380224,3.72180946 7.91690967,3.71850497 C8.58953109,3.72180946 9.26652649,3.80678228 9.89881007,3.97767206 C11.4102643,2.98254594 12.0736517,3.18931313 12.0736517,3.18931313 C12.5057041,4.2476968 12.2340311,5.0299188 12.1528694,5.22441214 C12.6602515,5.76162919 12.9664303,6.44849281 12.9664303,7.28783543 C12.9664303,10.2420571 11.1152634,10.8920992 9.35206217,11.0823439 C9.63588508,11.3197957 9.88909011,11.7890345 9.88909011,12.5065827 C9.88909011,13.5342818 9.87937015,14.3637109 9.87937015,14.6157969 C9.87937015,14.82162 10.0222536,15.0609601 10.4236881,14.9859007 C13.567124,13.966699 15.8333333,11.0865925 15.8333333,7.6900401 C15.8333333,3.44281538 12.2884629,0 7.91593767,0" id="Fill-4" fill="#161514"></path>
                </g>
            </g>
        </g>
    </g>
</svg>