<?xml version="1.0" encoding="UTF-8"?>
<svg width="173px" height="31px" viewBox="0 0 173 31" version="1.1" xmlns="http://www.w3.org/2000/svg" xmlns:xlink="http://www.w3.org/1999/xlink">
    <!-- Generator: Sketch 55.2 (78181) - https://sketchapp.com -->
    <title>Group 4</title>
    <desc>Created with Sketch.</desc>
    <defs>
        <linearGradient x1="50%" y1="0%" x2="50%" y2="100%" id="linearGradient-1">
            <stop stop-color="#F9FBFB" offset="0%"></stop>
            <stop stop-color="#EEF2F5" offset="100%"></stop>
        </linearGradient>
    </defs>
    <g id="Page-1" stroke="none" stroke-width="1" fill="none" fill-rule="evenodd">
        <g id="Final---2" transform="translate(-16.000000, -14.000000)">
            <g id="Group-4" transform="translate(16.000000, 14.000000)">
                <rect id="Rectangle" stroke="#C7C9CD" fill="url(#linearGradient-1)" x="0.5" y="0.5" width="172" height="30" rx="3"></rect>
                <g id="Group-7" transform="translate(13.000000, 8.000000)" fill="#161514">
                    <path d="M7.91593767,0 C3.54487042,0 0,3.44281538 0,7.6900401 C0,11.0875366 2.26815331,13.9695314 5.41401926,14.9863728 C5.81010774,15.0571835 5.95444919,14.8197317 5.95444919,14.6157969 C5.95444919,14.4335774 5.94764521,13.9497044 5.94375723,13.3081596 C3.74169966,13.7726777 3.27708544,12.2771561 3.27708544,12.2771561 C2.91696082,11.3887181 2.39791481,11.1522104 2.39791481,11.1522104 C1.67912357,10.6754185 2.4523466,10.6848599 2.4523466,10.6848599 C3.24695356,10.7391481 3.66491196,11.4774675 3.66491196,11.4774675 C4.37106725,12.6524527 5.51802286,12.3130335 5.96902913,12.1161798 C6.04095685,11.6195609 6.24556207,11.2806138 6.4715512,11.0884808 C4.71369594,10.8944595 2.86544502,10.234504 2.86544502,7.28783543 C2.86544502,6.44849281 3.17405384,5.76162919 3.6804639,5.22441214 C3.59881621,5.0299188 3.32714325,4.2476968 3.7582236,3.18931313 C3.7582236,3.18931313 4.42258305,2.98254594 5.93500926,3.97767206 C6.56632084,3.80678228 7.24380224,3.72180946 7.91690967,3.71850497 C8.58953109,3.72180946 9.26652649,3.80678228 9.89881007,3.97767206 C11.4102643,2.98254594 12.0736517,3.18931313 12.0736517,3.18931313 C12.5057041,4.2476968 12.2340311,5.0299188 12.1528694,5.22441214 C12.6602515,5.76162919 12.9664303,6.44849281 12.9664303,7.28783543 C12.9664303,10.2420571 11.1152634,10.8920992 9.35206217,11.0823439 C9.63588508,11.3197957 9.88909011,11.7890345 9.88909011,12.5065827 C9.88909011,13.5342818 9.87937015,14.3637109 9.87937015,14.6157969 C9.87937015,14.82162 10.0222536,15.0609601 10.4236881,14.9859007 C13.567124,13.966699 15.8333333,11.0865925 15.8333333,7.6900401 C15.8333333,3.44281538 12.2884629,0 7.91593767,0" id="Fill-4"></path>
                </g>
                <path d="M38.6376953,19.9658203 L37,19.9658203 L37,10.8061523 L42.8398438,10.8061523 L42.8398438,12.1835938 L38.6376953,12.1835938 L38.6376953,14.894043 L42.4780273,14.894043 L42.4780273,16.2270508 L38.6376953,16.2270508 L38.6376953,19.9658203 Z M47.1466475,20.1054688 C45.0646162,20.1054688 43.8077803,18.7470703 43.8077803,16.4936523 C43.8077803,14.2592773 45.0836592,12.8945312 47.1466475,12.8945312 C49.2159834,12.8945312 50.4855147,14.2529297 50.4855147,16.4936523 C50.4855147,18.7470703 49.2223311,20.1054688 47.1466475,20.1054688 Z M47.1466475,18.8168945 C48.244792,18.8168945 48.8668623,17.9663086 48.8668623,16.5 C48.8668623,15.0336914 48.2384443,14.1831055 47.1466475,14.1831055 C46.0485029,14.1831055 45.420085,15.0336914 45.420085,16.5 C45.420085,17.9663086 46.0485029,18.8168945 47.1466475,18.8168945 Z M51.8025723,19.9658203 L51.8025723,10.3427734 L53.376791,10.3427734 L53.376791,19.9658203 L51.8025723,19.9658203 Z M55.093751,19.9658203 L55.093751,10.3427734 L56.6679697,10.3427734 L56.6679697,19.9658203 L55.093751,19.9658203 Z M61.3175469,20.1054688 C59.2355157,20.1054688 57.9786797,18.7470703 57.9786797,16.4936523 C57.9786797,14.2592773 59.2545586,12.8945312 61.3175469,12.8945312 C63.3868828,12.8945312 64.6564141,14.2529297 64.6564141,16.4936523 C64.6564141,18.7470703 63.3932305,20.1054688 61.3175469,20.1054688 Z M61.3175469,18.8168945 C62.4156914,18.8168945 63.0377618,17.9663086 63.0377618,16.5 C63.0377618,15.0336914 62.4093438,14.1831055 61.3175469,14.1831055 C60.2194024,14.1831055 59.5909844,15.0336914 59.5909844,16.5 C59.5909844,17.9663086 60.2194024,18.8168945 61.3175469,18.8168945 Z M74.9363623,13.027832 L73.0574561,19.9658203 L71.4007178,19.9658203 L70.048667,14.9384766 L69.9407569,14.9384766 L68.5950538,19.9658203 L66.9573584,19.9658203 L65.0784522,13.027832 L66.6653663,13.027832 L67.8206397,18.2392578 L67.9285498,18.2392578 L69.2615577,13.027832 L70.7659522,13.027832 L72.1116553,18.2392578 L72.2195655,18.2392578 L73.3684913,13.027832 L74.9363623,13.027832 Z M84.3053409,10.7998047 C87.3331729,10.7998047 89.4152042,12.7167969 89.4152042,15.503418 C89.4152042,17.5410156 88.4694034,18.8232422 86.9586612,18.8232422 C86.1842471,18.8232422 85.6066104,18.4169922 85.4923526,17.8012695 L85.3780948,17.8012695 C85.1114932,18.4423828 84.5719424,18.7915039 83.8356143,18.7915039 C82.5153018,18.7915039 81.6329776,17.7124023 81.6329776,16.1000977 C81.6329776,14.5576172 82.5153018,13.4975586 83.7975284,13.4975586 C84.4703799,13.4975586 85.0289737,13.8339844 85.2765323,14.3925781 L85.3907901,14.3925781 L85.3907901,13.6308594 L86.5524112,13.6308594 L86.5524112,17.1474609 C86.5524112,17.5917969 86.7872745,17.8583984 87.1998721,17.8583984 C87.904462,17.8583984 88.3487979,16.9570312 88.3487979,15.5541992 C88.3487979,13.2626953 86.7047549,11.7329102 84.248212,11.7329102 C81.7853213,11.7329102 80.0524112,13.5483398 80.0524112,16.1318359 C80.0524112,18.7661133 81.772626,20.4418945 84.4767276,20.4418945 C85.225751,20.4418945 85.9811221,20.340332 86.3492862,20.1879883 L86.3492862,21.1274414 C85.8224307,21.2924805 85.1305362,21.3876953 84.413251,21.3876953 C81.1188174,21.3876953 78.9860049,19.3056641 78.9860049,16.09375 C78.9860049,12.9580078 81.1505557,10.7998047 84.3053409,10.7998047 Z M84.0895206,14.5512695 C83.3531924,14.5512695 82.9152042,15.1416016 82.9152042,16.1381836 C82.9152042,17.1220703 83.3595401,17.71875 84.0831729,17.71875 C84.8321963,17.71875 85.3082706,17.109375 85.3082706,16.1381836 C85.3082706,15.1606445 84.838544,14.5512695 84.0895206,14.5512695 Z M91.5828477,11.8662109 C91.0686876,11.8662109 90.6433946,11.4536133 90.6433946,10.9331055 C90.6433946,10.4189453 91.0686876,10 91.5828477,10 C92.1033555,10 92.5286485,10.4189453 92.5286485,10.9331055 C92.5286485,11.4536133 92.1033555,11.8662109 91.5828477,11.8662109 Z M90.802086,19.9658203 L90.802086,13.027832 L92.3699571,13.027832 L92.3699571,19.9658203 L90.802086,19.9658203 Z M100.041019,13.027832 L97.5844757,19.9658203 L95.8515655,19.9658203 L93.3823272,13.027832 L95.0708038,13.027832 L96.6767608,18.4233398 L96.784671,18.4233398 L98.3779327,13.027832 L100.041019,13.027832 Z M102.710127,20.0800781 C101.370772,20.0800781 100.412275,19.2675781 100.412275,17.9980469 C100.412275,16.7539062 101.358076,16.0239258 103.046553,15.9287109 L104.836592,15.8208008 L104.836592,15.2241211 C104.836592,14.5322266 104.379561,14.1450195 103.528975,14.1450195 C102.805342,14.1450195 102.310225,14.4052734 102.164229,14.8813477 L100.678877,14.8813477 C100.80583,13.6689453 101.954756,12.8945312 103.605147,12.8945312 C105.388838,12.8945312 106.391768,13.7578125 106.391768,15.2241211 L106.391768,19.9658203 L104.874678,19.9658203 L104.874678,19.0136719 L104.766768,19.0136719 C104.379561,19.6865234 103.617842,20.0800781 102.710127,20.0800781 Z M103.173506,18.8676758 C104.125654,18.8676758 104.836592,18.2456055 104.836592,17.4204102 L104.836592,16.8554688 L103.268721,16.9633789 C102.386397,17.0205078 101.973799,17.3442383 101.973799,17.921875 C101.973799,18.5185547 102.475264,18.8676758 103.173506,18.8676758 Z M107.950036,19.9658203 L107.950036,13.027832 L109.467126,13.027832 L109.467126,14.1386719 L109.575036,14.1386719 C109.905114,13.3642578 110.603357,12.8945312 111.638025,12.8945312 C113.186853,12.8945312 114.031091,13.8276367 114.031091,15.4780273 L114.031091,19.9658203 L112.456872,19.9658203 L112.456872,15.8461914 C112.456872,14.7670898 112.012536,14.2275391 111.05404,14.2275391 C110.114587,14.2275391 109.524255,14.8813477 109.524255,15.9223633 L109.524255,19.9658203 L107.950036,19.9658203 Z M121.403813,13.027832 L118.94727,19.9658203 L117.214359,19.9658203 L114.745121,13.027832 L116.433598,13.027832 L118.039555,18.4233398 L118.147465,18.4233398 L119.740727,13.027832 L121.403813,13.027832 Z M125.120284,20.1054688 C123.038253,20.1054688 121.781417,18.7470703 121.781417,16.4936523 C121.781417,14.2592773 123.057296,12.8945312 125.120284,12.8945312 C127.18962,12.8945312 128.459151,14.2529297 128.459151,16.4936523 C128.459151,18.7470703 127.195968,20.1054688 125.120284,20.1054688 Z M125.120284,18.8168945 C126.218429,18.8168945 126.840499,17.9663086 126.840499,16.5 C126.840499,15.0336914 126.212081,14.1831055 125.120284,14.1831055 C124.02214,14.1831055 123.393722,15.0336914 123.393722,16.5 C123.393722,17.9663086 124.02214,18.8168945 125.120284,18.8168945 Z M129.712733,19.9658203 L129.712733,13.027832 L131.229822,13.027832 L131.229822,14.1069336 L131.337733,14.1069336 C131.528162,13.4213867 132.277186,12.9135742 133.172205,12.9135742 C133.400721,12.9135742 133.680018,12.9389648 133.826014,12.9770508 L133.826014,14.4116211 C133.705408,14.3671875 133.286463,14.3227539 133.019861,14.3227539 C131.997889,14.3227539 131.286951,14.9575195 131.286951,15.9350586 L131.286951,19.9658203 L129.712733,19.9658203 Z M137.605962,20.1054688 C135.523931,20.1054688 134.267095,18.7470703 134.267095,16.4936523 C134.267095,14.2592773 135.542974,12.8945312 137.605962,12.8945312 C139.675298,12.8945312 140.944829,14.2529297 140.944829,16.4936523 C140.944829,18.7470703 139.681646,20.1054688 137.605962,20.1054688 Z M137.605962,18.8168945 C138.704107,18.8168945 139.326177,17.9663086 139.326177,16.5 C139.326177,15.0336914 138.697759,14.1831055 137.605962,14.1831055 C136.507818,14.1831055 135.8794,15.0336914 135.8794,16.5 C135.8794,17.9663086 136.507818,18.8168945 137.605962,18.8168945 Z M146.057785,20.0800781 C145.086594,20.0800781 144.280442,19.6293945 143.886887,18.8676758 L143.778977,18.8676758 L143.778977,19.9658203 L142.261887,19.9658203 L142.261887,10.3427734 L143.836106,10.3427734 L143.836106,14.1323242 L143.944016,14.1323242 C144.305832,13.3769531 145.105637,12.9135742 146.057785,12.9135742 C147.816086,12.9135742 148.907883,14.284668 148.907883,16.5 C148.907883,18.7026367 147.809738,20.0800781 146.057785,20.0800781 Z M145.562668,14.2275391 C144.489914,14.2275391 143.810715,15.097168 143.810715,16.5 C143.810715,17.902832 144.483567,18.7724609 145.562668,18.7724609 C146.64177,18.7724609 147.289231,17.9155273 147.289231,16.5 C147.289231,15.0844727 146.635422,14.2275391 145.562668,14.2275391 Z M154.680995,18.0678711 L156.172694,18.0678711 C155.88705,19.3183594 154.725429,20.1054688 153.087734,20.1054688 C151.043788,20.1054688 149.812343,18.7470703 149.812343,16.5253906 C149.812343,14.2973633 151.062831,12.8945312 153.075038,12.8945312 C155.055507,12.8945312 156.242519,14.2084961 156.242519,16.3857422 L156.242519,16.887207 L151.392909,16.887207 L151.392909,16.9697266 C151.430995,18.144043 152.097499,18.8803711 153.132167,18.8803711 C153.912929,18.8803711 154.45248,18.5883789 154.680995,18.0678711 Z M153.068691,14.1196289 C152.129237,14.1196289 151.469081,14.7988281 151.399257,15.8398438 L154.6683,15.8398438 C154.636562,14.7861328 154.014491,14.1196289 153.068691,14.1196289 Z M158.289557,11.8662109 C157.775397,11.8662109 157.350104,11.4536133 157.350104,10.9331055 C157.350104,10.4189453 157.775397,10 158.289557,10 C158.810065,10 159.235358,10.4189453 159.235358,10.9331055 C159.235358,11.4536133 158.810065,11.8662109 158.289557,11.8662109 Z M157.508795,19.9658203 L157.508795,13.027832 L159.076666,13.027832 L159.076666,19.9658203 L157.508795,19.9658203 Z" id="Follow@ivanvorobei" fill="#000000" fill-rule="nonzero"></path>
            </g>
        </g>
    </g>
</svg>