<?xml version="1.0" encoding="UTF-8"?>
<svg width="162px" height="28px" viewBox="0 0 162 28" version="1.1" xmlns="http://www.w3.org/2000/svg" xmlns:xlink="http://www.w3.org/1999/xlink">
    <!-- Generator: Sketch 55.2 (78181) - https://sketchapp.com -->
    <title>Group 4</title>
    <desc>Created with Sketch.</desc>
    <defs>
        <linearGradient x1="50%" y1="0%" x2="50%" y2="100%" id="linearGradient-1">
            <stop stop-color="#F9FBFB" offset="0%"></stop>
            <stop stop-color="#EEF2F5" offset="100%"></stop>
        </linearGradient>
    </defs>
    <g id="Page-1" stroke="none" stroke-width="1" fill="none" fill-rule="evenodd">
        <g id="twitter" transform="translate(-58.000000, -35.000000)">
            <g id="Group-4" transform="translate(58.000000, 35.000000)">
                <rect id="Rectangle" stroke="#C7C9CD" fill="url(#linearGradient-1)" x="0.5" y="0.5" width="161" height="27" rx="3"></rect>
                <path d="M35.7949219,18 L34.0253906,18 L34.0253906,9.54492188 L39.5625,9.54492188 L39.5625,11.0039062 L35.7949219,11.0039062 L35.7949219,13.2714844 L39.234375,13.2714844 L39.234375,14.671875 L35.7949219,14.671875 L35.7949219,18 Z M43.5848861,18.1347656 C41.598558,18.1347656 40.4032455,16.875 40.4032455,14.7714844 C40.4032455,12.6855469 41.6161361,11.4082031 43.5848861,11.4082031 C45.5536361,11.4082031 46.7665267,12.6796875 46.7665267,14.7714844 C46.7665267,16.8808594 45.5712142,18.1347656 43.5848861,18.1347656 Z M43.5848861,16.7871094 C44.4930892,16.7871094 45.0145736,16.0488281 45.0145736,14.7714844 C45.0145736,13.5058594 44.4872299,12.7617188 43.5848861,12.7617188 C42.676683,12.7617188 42.1551986,13.5058594 42.1551986,14.7714844 C42.1551986,16.0488281 42.6708236,16.7871094 43.5848861,16.7871094 Z M47.9061004,18 L47.9061004,9.08203125 L49.6111785,9.08203125 L49.6111785,18 L47.9061004,18 Z M51.1316115,18 L51.1316115,9.08203125 L52.8366896,9.08203125 L52.8366896,18 L51.1316115,18 Z M57.1637633,18.1347656 C55.1774351,18.1347656 53.9821226,16.875 53.9821226,14.7714844 C53.9821226,12.6855469 55.1950133,11.4082031 57.1637633,11.4082031 C59.1325133,11.4082031 60.3454039,12.6796875 60.3454039,14.7714844 C60.3454039,16.8808594 59.1500914,18.1347656 57.1637633,18.1347656 Z M57.1637633,16.7871094 C58.0719664,16.7871094 58.5934508,16.0488281 58.5934508,14.7714844 C58.5934508,13.5058594 58.066107,12.7617188 57.1637633,12.7617188 C56.2555601,12.7617188 55.7340758,13.5058594 55.7340758,14.7714844 C55.7340758,16.0488281 56.2497008,16.7871094 57.1637633,16.7871094 Z M70.1158369,11.5488281 L68.39904,18 L66.5826337,18 L65.4283369,13.5 L65.3228681,13.5 L64.18029,18 L62.3873212,18 L60.664665,11.5488281 L62.3931806,11.5488281 L63.3541181,16.21875 L63.4595869,16.21875 L64.5904462,11.5488281 L66.2193525,11.5488281 L67.3560712,16.21875 L67.46154,16.21875 L68.4224775,11.5488281 L70.1158369,11.5488281 Z M78.6469372,9.50976562 C81.4535779,9.50976562 83.3754529,11.2792969 83.3754529,13.8632812 C83.3754529,15.7265625 82.4906872,16.8984375 81.0727185,16.8984375 C80.3402966,16.8984375 79.8070935,16.5410156 79.6781872,15.9785156 L79.5727185,15.9785156 C79.3266247,16.5703125 78.846156,16.8808594 78.1664685,16.8808594 C76.9477185,16.8808594 76.1391247,15.890625 76.1391247,14.4023438 C76.1391247,12.9785156 76.9359997,12.0058594 78.1078747,12.0058594 C78.7348279,12.0058594 79.2445935,12.3164062 79.4789685,12.8378906 L79.5844372,12.8378906 L79.5844372,12.1347656 L80.768031,12.1347656 L80.768031,15.2695312 C80.768031,15.6855469 80.9731091,15.9316406 81.330531,15.9316406 C81.9223279,15.9316406 82.3031872,15.1582031 82.3031872,13.9511719 C82.3031872,11.8300781 80.8383435,10.4414062 78.611781,10.4414062 C76.3442029,10.4414062 74.768031,12.0761719 74.768031,14.4257812 C74.768031,16.8164062 76.3442029,18.328125 78.8344372,18.328125 C79.4613904,18.328125 80.1000622,18.2460938 80.4281872,18.1230469 L80.4281872,19.0605469 C79.971156,19.2011719 79.3676404,19.2773438 78.7465466,19.2773438 C75.6938122,19.2773438 73.6957654,17.34375 73.6957654,14.3964844 C73.6957654,11.5019531 75.7172497,9.50976562 78.6469372,9.50976562 Z M78.4594372,13.0722656 C77.8383435,13.0722656 77.4692029,13.5820312 77.4692029,14.4375 C77.4692029,15.2871094 77.8383435,15.8027344 78.4535779,15.8027344 C79.080531,15.8027344 79.4731091,15.28125 79.4731091,14.4375 C79.4731091,13.59375 79.080531,13.0722656 78.4594372,13.0722656 Z M85.4935421,10.5585938 C84.9661984,10.5585938 84.5267452,10.1367188 84.5267452,9.609375 C84.5267452,9.07617188 84.9661984,8.65429688 85.4935421,8.65429688 C86.0208859,8.65429688 86.4544796,9.07617188 86.4544796,9.609375 C86.4544796,10.1367188 86.0208859,10.5585938 85.4935421,10.5585938 Z M84.6380734,18 L84.6380734,11.5488281 L86.3431515,11.5488281 L86.3431515,18 L84.6380734,18 Z M93.5999126,11.5488281 L91.3674907,18 L89.4456157,18 L87.2014751,11.5488281 L89.0354595,11.5488281 L90.371397,16.4003906 L90.4768657,16.4003906 L91.8010845,11.5488281 L93.5999126,11.5488281 Z M96.0109706,18.0996094 C94.7687831,18.0996094 93.8957362,17.3378906 93.8957362,16.1601562 C93.8957362,14.9941406 94.7922206,14.3144531 96.3976894,14.2207031 L97.9621425,14.1269531 L97.9621425,13.59375 C97.9621425,13.0371094 97.5754237,12.7148438 96.8722987,12.7148438 C96.2570644,12.7148438 95.8469081,12.9316406 95.7062831,13.3359375 L94.1359706,13.3359375 C94.2472987,12.1523438 95.3430019,11.4082031 96.9660487,11.4082031 C98.6769862,11.4082031 99.6437831,12.2167969 99.6437831,13.59375 L99.6437831,18 L97.9914394,18 L97.9914394,17.1445312 L97.8859706,17.1445312 C97.5519862,17.7421875 96.8488612,18.0996094 96.0109706,18.0996094 Z M96.5734706,16.8515625 C97.3644862,16.8515625 97.9621425,16.3300781 97.9621425,15.6503906 L97.9621425,15.1699219 L96.6555019,15.2578125 C95.92308,15.3046875 95.5656581,15.5800781 95.5656581,16.0546875 C95.5656581,16.5527344 95.9816737,16.8515625 96.5734706,16.8515625 Z M101.011872,18 L101.011872,11.5488281 L102.664216,11.5488281 L102.664216,12.5859375 L102.769685,12.5859375 C103.068513,11.859375 103.724763,11.4082031 104.679841,11.4082031 C106.115388,11.4082031 106.888825,12.2871094 106.888825,13.828125 L106.888825,18 L105.183747,18 L105.183747,14.2148438 C105.183747,13.3066406 104.802888,12.8320312 103.994294,12.8320312 C103.203279,12.8320312 102.71695,13.3945312 102.71695,14.2675781 L102.71695,18 L101.011872,18 Z M113.899493,11.5488281 L111.667071,18 L109.745196,18 L107.501055,11.5488281 L109.33504,11.5488281 L110.670977,16.4003906 L110.776446,16.4003906 L112.100665,11.5488281 L113.899493,11.5488281 Z M117.34766,18.1347656 C115.361332,18.1347656 114.16602,16.875 114.16602,14.7714844 C114.16602,12.6855469 115.37891,11.4082031 117.34766,11.4082031 C119.31641,11.4082031 120.529301,12.6796875 120.529301,14.7714844 C120.529301,16.8808594 119.333988,18.1347656 117.34766,18.1347656 Z M117.34766,16.7871094 C118.255863,16.7871094 118.777348,16.0488281 118.777348,14.7714844 C118.777348,13.5058594 118.250004,12.7617188 117.34766,12.7617188 C116.439457,12.7617188 115.917973,13.5058594 115.917973,14.7714844 C115.917973,16.0488281 116.433598,16.7871094 117.34766,16.7871094 Z M121.610281,18 L121.610281,11.5488281 L123.262624,11.5488281 L123.262624,12.5742188 L123.368093,12.5742188 C123.538015,11.9296875 124.205984,11.4433594 125.026296,11.4433594 C125.260671,11.4433594 125.547781,11.4726562 125.694265,11.5195312 L125.694265,13.0195312 C125.559499,12.9726562 125.161062,12.9257812 124.885671,12.9257812 C123.954031,12.9257812 123.315359,13.4824219 123.315359,14.390625 L123.315359,18 L121.610281,18 Z M129.242042,18.1347656 C127.255714,18.1347656 126.060401,16.875 126.060401,14.7714844 C126.060401,12.6855469 127.273292,11.4082031 129.242042,11.4082031 C131.210792,11.4082031 132.423682,12.6796875 132.423682,14.7714844 C132.423682,16.8808594 131.22837,18.1347656 129.242042,18.1347656 Z M129.242042,16.7871094 C130.150245,16.7871094 130.671729,16.0488281 130.671729,14.7714844 C130.671729,13.5058594 130.144386,12.7617188 129.242042,12.7617188 C128.333839,12.7617188 127.812354,13.5058594 127.812354,14.7714844 C127.812354,16.0488281 128.327979,16.7871094 129.242042,16.7871094 Z M137.313256,18.0996094 C136.399194,18.0996094 135.666772,17.6894531 135.321069,16.9863281 L135.2156,16.9863281 L135.2156,18 L133.563256,18 L133.563256,9.08203125 L135.268334,9.08203125 L135.268334,12.5800781 L135.373803,12.5800781 C135.701928,11.8710938 136.42849,11.4433594 137.313256,11.4433594 C138.948022,11.4433594 139.932397,12.6914062 139.932397,14.7714844 C139.932397,16.8398438 138.936303,18.0996094 137.313256,18.0996094 Z M136.721459,12.8261719 C135.824975,12.8261719 135.256615,13.5761719 135.250756,14.7773438 C135.256615,15.9785156 135.819115,16.7226562 136.721459,16.7226562 C137.629662,16.7226562 138.180444,15.984375 138.180444,14.7714844 C138.180444,13.5703125 137.623803,12.8261719 136.721459,12.8261719 Z M145.191111,16.1777344 L146.779002,16.1777344 C146.527048,17.3789062 145.407908,18.1347656 143.825877,18.1347656 C141.857127,18.1347656 140.69697,16.8925781 140.69697,14.8066406 C140.69697,12.7089844 141.880564,11.4082031 143.802439,11.4082031 C145.706736,11.4082031 146.831736,12.6269531 146.831736,14.6660156 L146.831736,15.1757812 L142.396189,15.1757812 L142.396189,15.2636719 C142.419627,16.2480469 142.982127,16.8632812 143.872752,16.8632812 C144.54658,16.8632812 145.00947,16.6171875 145.191111,16.1777344 Z M143.808298,12.6796875 C143.017283,12.6796875 142.460642,13.2480469 142.402048,14.1152344 L145.155955,14.1152344 C145.120798,13.2304688 144.605173,12.6796875 143.808298,12.6796875 Z M148.785763,10.5585938 C148.258419,10.5585938 147.818966,10.1367188 147.818966,9.609375 C147.818966,9.07617188 148.258419,8.65429688 148.785763,8.65429688 C149.313106,8.65429688 149.7467,9.07617188 149.7467,9.609375 C149.7467,10.1367188 149.313106,10.5585938 148.785763,10.5585938 Z M147.930294,18 L147.930294,11.5488281 L149.635372,11.5488281 L149.635372,18 L147.930294,18 Z" id="Follow@ivanvorobei" fill="#000000" fill-rule="nonzero"></path>
                <path d="M18.9159377,6 C14.5448704,6 11,9.44281538 11,13.6900401 C11,17.0875366 13.2681533,19.9695314 16.4140193,20.9863728 C16.8101077,21.0571835 16.9544492,20.8197317 16.9544492,20.6157969 C16.9544492,20.4335774 16.9476452,19.9497044 16.9437572,19.3081596 C14.7416997,19.7726777 14.2770854,18.2771561 14.2770854,18.2771561 C13.9169608,17.3887181 13.3979148,17.1522104 13.3979148,17.1522104 C12.6791236,16.6754185 13.4523466,16.6848599 13.4523466,16.6848599 C14.2469536,16.7391481 14.664912,17.4774675 14.664912,17.4774675 C15.3710673,18.6524527 16.5180229,18.3130335 16.9690291,18.1161798 C17.0409569,17.6195609 17.2455621,17.2806138 17.4715512,17.0884808 C15.7136959,16.8944595 13.865445,16.234504 13.865445,13.2878354 C13.865445,12.4484928 14.1740538,11.7616292 14.6804639,11.2244121 C14.5988162,11.0299188 14.3271433,10.2476968 14.7582236,9.18931313 C14.7582236,9.18931313 15.4225831,8.98254594 16.9350093,9.97767206 C17.5663208,9.80678228 18.2438022,9.72180946 18.9169097,9.71850497 C19.5895311,9.72180946 20.2665265,9.80678228 20.8988101,9.97767206 C22.4102643,8.98254594 23.0736517,9.18931313 23.0736517,9.18931313 C23.5057041,10.2476968 23.2340311,11.0299188 23.1528694,11.2244121 C23.6602515,11.7616292 23.9664303,12.4484928 23.9664303,13.2878354 C23.9664303,16.2420571 22.1152634,16.8920992 20.3520622,17.0823439 C20.6358851,17.3197957 20.8890901,17.7890345 20.8890901,18.5065827 C20.8890901,19.5342818 20.8793701,20.3637109 20.8793701,20.6157969 C20.8793701,20.82162 21.0222536,21.0609601 21.4236881,20.9859007 C24.567124,19.966699 26.8333333,17.0865925 26.8333333,13.6900401 C26.8333333,9.44281538 23.2884629,6 18.9159377,6" id="Fill-4" fill="#161514"></path>
            </g>
        </g>
    </g>
</svg>