<?xml version="1.0" encoding="UTF-8"?>
<svg width="194px" height="34px" viewBox="0 0 194 34" version="1.1" xmlns="http://www.w3.org/2000/svg" xmlns:xlink="http://www.w3.org/1999/xlink">
    <!-- Generator: Sketch 55.2 (78181) - https://sketchapp.com -->
    <title>Group 4</title>
    <desc>Created with Sketch.</desc>
    <defs>
        <linearGradient x1="50%" y1="0%" x2="50%" y2="100%" id="linearGradient-1">
            <stop stop-color="#F9FBFB" offset="0%"></stop>
            <stop stop-color="#EEF2F5" offset="100%"></stop>
        </linearGradient>
    </defs>
    <g id="Page-1" stroke="none" stroke-width="1" fill="none" fill-rule="evenodd">
        <g id="Group-4">
            <rect id="Rectangle" stroke="#C7C9CD" fill="url(#linearGradient-1)" x="0.5" y="0.5" width="193" height="33" rx="3"></rect>
            <g id="Group-7" transform="translate(13.000000, 8.000000)">
                <path d="M25.4936523,14 L23.2817383,14 L23.2817383,3.43115234 L30.203125,3.43115234 L30.203125,5.25488281 L25.4936523,5.25488281 L25.4936523,8.08935547 L29.7929688,8.08935547 L29.7929688,9.83984375 L25.4936523,9.83984375 L25.4936523,14 Z M35.2311077,14.168457 C32.7481975,14.168457 31.2540569,12.59375 31.2540569,9.96435547 C31.2540569,7.35693359 32.7701702,5.76025391 35.2311077,5.76025391 C37.6920452,5.76025391 39.2081584,7.34960938 39.2081584,9.96435547 C39.2081584,12.6010742 37.7140178,14.168457 35.2311077,14.168457 Z M35.2311077,12.4838867 C36.3663616,12.4838867 37.018217,11.5610352 37.018217,9.96435547 C37.018217,8.38232422 36.3590373,7.45214844 35.2311077,7.45214844 C34.0958538,7.45214844 33.4439983,8.38232422 33.4439983,9.96435547 C33.4439983,11.5610352 34.0885295,12.4838867 35.2311077,12.4838867 Z M40.6326255,14 L40.6326255,2.85253906 L42.7639731,2.85253906 L42.7639731,14 L40.6326255,14 Z M44.6645144,14 L44.6645144,2.85253906 L46.795862,2.85253906 L46.795862,14 L44.6645144,14 Z M52.2047041,14.168457 C49.7217939,14.168457 48.2276533,12.59375 48.2276533,9.96435547 C48.2276533,7.35693359 49.7437666,5.76025391 52.2047041,5.76025391 C54.6656416,5.76025391 56.1817548,7.34960938 56.1817548,9.96435547 C56.1817548,12.6010742 54.6876142,14.168457 52.2047041,14.168457 Z M52.2047041,12.4838867 C53.339958,12.4838867 53.9918134,11.5610352 53.9918134,9.96435547 C53.9918134,8.38232422 53.3326337,7.45214844 52.2047041,7.45214844 C51.0694502,7.45214844 50.4175947,8.38232422 50.4175947,9.96435547 C50.4175947,11.5610352 51.0621259,12.4838867 52.2047041,12.4838867 Z M68.3947961,5.93603516 L66.2488,14 L63.9782922,14 L62.5354211,8.375 L62.4035852,8.375 L60.9753625,14 L58.7341516,14 L56.5808313,5.93603516 L58.7414758,5.93603516 L59.9426477,11.7734375 L60.0744836,11.7734375 L61.4880578,5.93603516 L63.5241906,5.93603516 L64.9450891,11.7734375 L65.076925,11.7734375 L66.2780969,5.93603516 L68.3947961,5.93603516 Z M79.0586716,3.38720703 C82.5669723,3.38720703 84.9693161,5.59912109 84.9693161,8.82910156 C84.9693161,11.1582031 83.8633591,12.6230469 82.0908981,12.6230469 C81.1753708,12.6230469 80.5088669,12.1762695 80.3477341,11.4731445 L80.2158981,11.4731445 C79.9082809,12.2128906 79.307695,12.6010742 78.4580856,12.6010742 C76.9346481,12.6010742 75.9239059,11.3632812 75.9239059,9.50292969 C75.9239059,7.72314453 76.9199997,6.50732422 78.3848434,6.50732422 C79.1685348,6.50732422 79.8057419,6.89550781 80.0987106,7.54736328 L80.2305466,7.54736328 L80.2305466,6.66845703 L81.7100388,6.66845703 L81.7100388,10.5869141 C81.7100388,11.1069336 81.9663864,11.4145508 82.4131638,11.4145508 C83.1529098,11.4145508 83.6289841,10.4477539 83.6289841,8.93896484 C83.6289841,6.28759766 81.7979294,4.55175781 79.0147263,4.55175781 C76.1802536,4.55175781 74.2100388,6.59521484 74.2100388,9.53222656 C74.2100388,12.5205078 76.1802536,14.4101562 79.2930466,14.4101562 C80.076738,14.4101562 80.8750778,14.3076172 81.2852341,14.1538086 L81.2852341,15.3256836 C80.713945,15.5014648 79.9595505,15.5966797 79.1831833,15.5966797 C75.3672653,15.5966797 72.8697067,13.1796875 72.8697067,9.49560547 C72.8697067,5.87744141 75.3965622,3.38720703 79.0586716,3.38720703 Z M78.8242966,7.84033203 C78.0479294,7.84033203 77.5865036,8.47753906 77.5865036,9.546875 C77.5865036,10.6088867 78.0479294,11.253418 78.8169723,11.253418 C79.6006638,11.253418 80.0913864,10.6015625 80.0913864,9.546875 C80.0913864,8.4921875 79.6006638,7.84033203 78.8242966,7.84033203 Z M87.6169277,4.69824219 C86.957748,4.69824219 86.4084316,4.17089844 86.4084316,3.51171875 C86.4084316,2.84521484 86.957748,2.31787109 87.6169277,2.31787109 C88.2761073,2.31787109 88.8180995,2.84521484 88.8180995,3.51171875 C88.8180995,4.17089844 88.2761073,4.69824219 87.6169277,4.69824219 Z M86.5475917,14 L86.5475917,5.93603516 L88.6789394,5.93603516 L88.6789394,14 L86.5475917,14 Z M97.7498908,5.93603516 L94.9593634,14 L92.5570197,14 L89.7518439,5.93603516 L92.0443244,5.93603516 L93.7142463,12.0004883 L93.8460822,12.0004883 L95.5013556,5.93603516 L97.7498908,5.93603516 Z M100.763713,14.1245117 C99.2109789,14.1245117 98.1196703,13.1723633 98.1196703,11.7001953 C98.1196703,10.2426758 99.2402758,9.39306641 101.247112,9.27587891 L103.202678,9.15869141 L103.202678,8.4921875 C103.202678,7.79638672 102.71928,7.39355469 101.840373,7.39355469 C101.07133,7.39355469 100.558635,7.66455078 100.382854,8.16992188 L98.4199633,8.16992188 C98.5591234,6.69042969 99.9287523,5.76025391 101.957561,5.76025391 C104.096233,5.76025391 105.304729,6.77099609 105.304729,8.4921875 L105.304729,14 L103.239299,14 L103.239299,12.9306641 L103.107463,12.9306641 C102.689983,13.6777344 101.811077,14.1245117 100.763713,14.1245117 Z M101.466838,12.5644531 C102.455608,12.5644531 103.202678,11.9125977 103.202678,11.0629883 L103.202678,10.4624023 L101.569377,10.5722656 C100.65385,10.6308594 100.207073,10.9750977 100.207073,11.5683594 C100.207073,12.190918 100.727092,12.5644531 101.466838,12.5644531 Z M107.01484,14 L107.01484,5.93603516 L109.08027,5.93603516 L109.08027,7.23242188 L109.212106,7.23242188 C109.585641,6.32421875 110.405954,5.76025391 111.599801,5.76025391 C113.394235,5.76025391 114.361032,6.85888672 114.361032,8.78515625 L114.361032,14 L112.229684,14 L112.229684,9.26855469 C112.229684,8.13330078 111.75361,7.54003906 110.742868,7.54003906 C109.754098,7.54003906 109.146188,8.24316406 109.146188,9.33447266 L109.146188,14 L107.01484,14 Z M123.124366,5.93603516 L120.333839,14 L117.931495,14 L115.126319,5.93603516 L117.4188,5.93603516 L119.088722,12.0004883 L119.220558,12.0004883 L120.875831,5.93603516 L123.124366,5.93603516 Z M127.434575,14.168457 C124.951665,14.168457 123.457525,12.59375 123.457525,9.96435547 C123.457525,7.35693359 124.973638,5.76025391 127.434575,5.76025391 C129.895513,5.76025391 131.411626,7.34960938 131.411626,9.96435547 C131.411626,12.6010742 129.917485,14.168457 127.434575,14.168457 Z M127.434575,12.4838867 C128.569829,12.4838867 129.221685,11.5610352 129.221685,9.96435547 C129.221685,8.38232422 128.562505,7.45214844 127.434575,7.45214844 C126.299321,7.45214844 125.647466,8.38232422 125.647466,9.96435547 C125.647466,11.5610352 126.291997,12.4838867 127.434575,12.4838867 Z M132.762851,14 L132.762851,5.93603516 L134.828281,5.93603516 L134.828281,7.21777344 L134.960117,7.21777344 C135.172519,6.41210938 136.00748,5.80419922 137.03287,5.80419922 C137.325839,5.80419922 137.684726,5.84082031 137.867831,5.89941406 L137.867831,7.77441406 C137.699374,7.71582031 137.201328,7.65722656 136.857089,7.65722656 C135.692538,7.65722656 134.894199,8.35302734 134.894199,9.48828125 L134.894199,14 L132.762851,14 Z M142.302552,14.168457 C139.819642,14.168457 138.325502,12.59375 138.325502,9.96435547 C138.325502,7.35693359 139.841615,5.76025391 142.302552,5.76025391 C144.76349,5.76025391 146.279603,7.34960938 146.279603,9.96435547 C146.279603,12.6010742 144.785463,14.168457 142.302552,14.168457 Z M142.302552,12.4838867 C143.437806,12.4838867 144.089662,11.5610352 144.089662,9.96435547 C144.089662,8.38232422 143.430482,7.45214844 142.302552,7.45214844 C141.167298,7.45214844 140.515443,8.38232422 140.515443,9.96435547 C140.515443,11.5610352 141.159974,12.4838867 142.302552,12.4838867 Z M152.39157,14.1245117 C151.248992,14.1245117 150.333465,13.6118164 149.901336,12.7329102 L149.7695,12.7329102 L149.7695,14 L147.70407,14 L147.70407,2.85253906 L149.835418,2.85253906 L149.835418,7.22509766 L149.967254,7.22509766 C150.37741,6.33886719 151.285613,5.80419922 152.39157,5.80419922 C154.435027,5.80419922 155.665496,7.36425781 155.665496,9.96435547 C155.665496,12.5498047 154.420379,14.1245117 152.39157,14.1245117 Z M151.651824,7.53271484 C150.531219,7.53271484 149.820769,8.47021484 149.813445,9.97167969 C149.820769,11.4731445 150.523894,12.4033203 151.651824,12.4033203 C152.787078,12.4033203 153.475555,11.4804688 153.475555,9.96435547 C153.475555,8.46289062 152.779754,7.53271484 151.651824,7.53271484 Z M162.238889,11.722168 L164.223752,11.722168 C163.908811,13.2236328 162.509885,14.168457 160.532346,14.168457 C158.071408,14.168457 156.621213,12.6157227 156.621213,10.0083008 C156.621213,7.38623047 158.100705,5.76025391 160.503049,5.76025391 C162.88342,5.76025391 164.28967,7.28369141 164.28967,9.83251953 L164.28967,10.4697266 L158.745236,10.4697266 L158.745236,10.5795898 C158.774533,11.8100586 159.477658,12.5791016 160.59094,12.5791016 C161.433225,12.5791016 162.011838,12.2714844 162.238889,11.722168 Z M160.510373,7.34960938 C159.521604,7.34960938 158.825803,8.06005859 158.752561,9.14404297 L162.194943,9.14404297 C162.150998,8.03808594 161.506467,7.34960938 160.510373,7.34960938 Z M166.732203,4.69824219 C166.073024,4.69824219 165.523707,4.17089844 165.523707,3.51171875 C165.523707,2.84521484 166.073024,2.31787109 166.732203,2.31787109 C167.391383,2.31787109 167.933375,2.84521484 167.933375,3.51171875 C167.933375,4.17089844 167.391383,4.69824219 166.732203,4.69824219 Z M165.662868,14 L165.662868,5.93603516 L167.794215,5.93603516 L167.794215,14 L165.662868,14 Z" id="Follow@ivanvorobei" fill="#000000" fill-rule="nonzero"></path>
                <path d="M7.91593767,1 C3.54487042,1 0,4.44281538 0,8.6900401 C0,12.0875366 2.26815331,14.9695314 5.41401926,15.9863728 C5.81010774,16.0571835 5.95444919,15.8197317 5.95444919,15.6157969 C5.95444919,15.4335774 5.94764521,14.9497044 5.94375723,14.3081596 C3.74169966,14.7726777 3.27708544,13.2771561 3.27708544,13.2771561 C2.91696082,12.3887181 2.39791481,12.1522104 2.39791481,12.1522104 C1.67912357,11.6754185 2.4523466,11.6848599 2.4523466,11.6848599 C3.24695356,11.7391481 3.66491196,12.4774675 3.66491196,12.4774675 C4.37106725,13.6524527 5.51802286,13.3130335 5.96902913,13.1161798 C6.04095685,12.6195609 6.24556207,12.2806138 6.4715512,12.0884808 C4.71369594,11.8944595 2.86544502,11.234504 2.86544502,8.28783543 C2.86544502,7.44849281 3.17405384,6.76162919 3.6804639,6.22441214 C3.59881621,6.0299188 3.32714325,5.2476968 3.7582236,4.18931313 C3.7582236,4.18931313 4.42258305,3.98254594 5.93500926,4.97767206 C6.56632084,4.80678228 7.24380224,4.72180946 7.91690967,4.71850497 C8.58953109,4.72180946 9.26652649,4.80678228 9.89881007,4.97767206 C11.4102643,3.98254594 12.0736517,4.18931313 12.0736517,4.18931313 C12.5057041,5.2476968 12.2340311,6.0299188 12.1528694,6.22441214 C12.6602515,6.76162919 12.9664303,7.44849281 12.9664303,8.28783543 C12.9664303,11.2420571 11.1152634,11.8920992 9.35206217,12.0823439 C9.63588508,12.3197957 9.88909011,12.7890345 9.88909011,13.5065827 C9.88909011,14.5342818 9.87937015,15.3637109 9.87937015,15.6157969 C9.87937015,15.82162 10.0222536,16.0609601 10.4236881,15.9859007 C13.567124,14.966699 15.8333333,12.0865925 15.8333333,8.6900401 C15.8333333,4.44281538 12.2884629,1 7.91593767,1" id="Fill-4" fill="#161514"></path>
            </g>
        </g>
    </g>
</svg>