<?xml version="1.0" encoding="UTF-8"?>
<svg width="176px" height="31px" viewBox="0 0 176 31" version="1.1" xmlns="http://www.w3.org/2000/svg" xmlns:xlink="http://www.w3.org/1999/xlink">
    <!-- Generator: Sketch 55.2 (78181) - https://sketchapp.com -->
    <title>Group 4</title>
    <desc>Created with Sketch.</desc>
    <defs>
        <linearGradient x1="50%" y1="0%" x2="50%" y2="100%" id="linearGradient-1">
            <stop stop-color="#F9FBFB" offset="0%"></stop>
            <stop stop-color="#EEF2F5" offset="100%"></stop>
        </linearGradient>
    </defs>
    <g id="Page-1" stroke="none" stroke-width="1" fill="none" fill-rule="evenodd">
        <g id="Final---3" transform="translate(-14.000000, -14.000000)">
            <g id="Group-4" transform="translate(14.000000, 14.000000)">
                <rect id="Rectangle" stroke="#C7C9CD" fill="url(#linearGradient-1)" x="0.5" y="0.5" width="175" height="30" rx="3"></rect>
                <g id="Group-7" transform="translate(13.000000, 8.000000)" fill="#161514">
                    <path d="M7.91593767,0 C3.54487042,0 0,3.44281538 0,7.6900401 C0,11.0875366 2.26815331,13.9695314 5.41401926,14.9863728 C5.81010774,15.0571835 5.95444919,14.8197317 5.95444919,14.6157969 C5.95444919,14.4335774 5.94764521,13.9497044 5.94375723,13.3081596 C3.74169966,13.7726777 3.27708544,12.2771561 3.27708544,12.2771561 C2.91696082,11.3887181 2.39791481,11.1522104 2.39791481,11.1522104 C1.67912357,10.6754185 2.4523466,10.6848599 2.4523466,10.6848599 C3.24695356,10.7391481 3.66491196,11.4774675 3.66491196,11.4774675 C4.37106725,12.6524527 5.51802286,12.3130335 5.96902913,12.1161798 C6.04095685,11.6195609 6.24556207,11.2806138 6.4715512,11.0884808 C4.71369594,10.8944595 2.86544502,10.234504 2.86544502,7.28783543 C2.86544502,6.44849281 3.17405384,5.76162919 3.6804639,5.22441214 C3.59881621,5.0299188 3.32714325,4.2476968 3.7582236,3.18931313 C3.7582236,3.18931313 4.42258305,2.98254594 5.93500926,3.97767206 C6.56632084,3.80678228 7.24380224,3.72180946 7.91690967,3.71850497 C8.58953109,3.72180946 9.26652649,3.80678228 9.89881007,3.97767206 C11.4102643,2.98254594 12.0736517,3.18931313 12.0736517,3.18931313 C12.5057041,4.2476968 12.2340311,5.0299188 12.1528694,5.22441214 C12.6602515,5.76162919 12.9664303,6.44849281 12.9664303,7.28783543 C12.9664303,10.2420571 11.1152634,10.8920992 9.35206217,11.0823439 C9.63588508,11.3197957 9.88909011,11.7890345 9.88909011,12.5065827 C9.88909011,13.5342818 9.87937015,14.3637109 9.87937015,14.6157969 C9.87937015,14.82162 10.0222536,15.0609601 10.4236881,14.9859007 C13.567124,13.966699 15.8333333,11.0865925 15.8333333,7.6900401 C15.8333333,3.44281538 12.2884629,0 7.91593767,0" id="Fill-4"></path>
                </g>
                <path d="M39.7675781,20 L38.1298828,20 L38.1298828,10.840332 L43.9697266,10.840332 L43.9697266,12.2177734 L39.7675781,12.2177734 L39.7675781,14.9282227 L43.6079102,14.9282227 L43.6079102,16.2612305 L39.7675781,16.2612305 L39.7675781,20 Z M48.3765303,20.1396484 C46.294499,20.1396484 45.0376631,18.78125 45.0376631,16.527832 C45.0376631,14.293457 46.313542,12.9287109 48.3765303,12.9287109 C50.4458662,12.9287109 51.7153975,14.2871094 51.7153975,16.527832 C51.7153975,18.78125 50.4522139,20.1396484 48.3765303,20.1396484 Z M48.3765303,18.8510742 C49.4746748,18.8510742 50.0967451,18.0004883 50.0967451,16.5341797 C50.0967451,15.0678711 49.4683272,14.2172852 48.3765303,14.2172852 C47.2783857,14.2172852 46.6499678,15.0678711 46.6499678,16.5341797 C46.6499678,18.0004883 47.2783857,18.8510742 48.3765303,18.8510742 Z M53.1324551,20 L53.1324551,10.3769531 L54.7066738,10.3769531 L54.7066738,20 L53.1324551,20 Z M56.5236338,20 L56.5236338,10.3769531 L58.0978526,10.3769531 L58.0978526,20 L56.5236338,20 Z M62.8474297,20.1396484 C60.7653985,20.1396484 59.5085625,18.78125 59.5085625,16.527832 C59.5085625,14.293457 60.7844414,12.9287109 62.8474297,12.9287109 C64.9167657,12.9287109 66.1862969,14.2871094 66.1862969,16.527832 C66.1862969,18.78125 64.9231133,20.1396484 62.8474297,20.1396484 Z M62.8474297,18.8510742 C63.9455742,18.8510742 64.5676446,18.0004883 64.5676446,16.5341797 C64.5676446,15.0678711 63.9392266,14.2172852 62.8474297,14.2172852 C61.7492852,14.2172852 61.1208672,15.0678711 61.1208672,16.5341797 C61.1208672,18.0004883 61.7492852,18.8510742 62.8474297,18.8510742 Z M76.5662452,13.0620117 L74.6873389,20 L73.0306006,20 L71.6785498,14.9726562 L71.5706397,14.9726562 L70.2249366,20 L68.5872413,20 L66.708335,13.0620117 L68.2952491,13.0620117 L69.4505225,18.2734375 L69.5584327,18.2734375 L70.8914405,13.0620117 L72.395835,13.0620117 L73.7415381,18.2734375 L73.8494483,18.2734375 L74.9983741,13.0620117 L76.5662452,13.0620117 Z M86.1352237,10.8339844 C89.1630557,10.8339844 91.245087,12.7509766 91.245087,15.5375977 C91.245087,17.5751953 90.2992862,18.8574219 88.788544,18.8574219 C88.0141299,18.8574219 87.4364932,18.4511719 87.3222354,17.8354492 L87.2079776,17.8354492 C86.941376,18.4765625 86.4018253,18.8256836 85.6654971,18.8256836 C84.3451846,18.8256836 83.4628604,17.746582 83.4628604,16.1342773 C83.4628604,14.5917969 84.3451846,13.5317383 85.6274112,13.5317383 C86.3002628,13.5317383 86.8588565,13.8681641 87.1064151,14.4267578 L87.2206729,14.4267578 L87.2206729,13.6650391 L88.382294,13.6650391 L88.382294,17.1816406 C88.382294,17.6259766 88.6171573,17.8925781 89.0297549,17.8925781 C89.7343448,17.8925781 90.1786807,16.9912109 90.1786807,15.5883789 C90.1786807,13.296875 88.5346378,11.7670898 86.0780948,11.7670898 C83.6152042,11.7670898 81.882294,13.5825195 81.882294,16.1660156 C81.882294,18.800293 83.6025088,20.4760742 86.3066104,20.4760742 C87.0556338,20.4760742 87.8110049,20.3745117 88.179169,20.222168 L88.179169,21.1616211 C87.6523135,21.3266602 86.960419,21.421875 86.2431338,21.421875 C82.9487003,21.421875 80.8158878,19.3398438 80.8158878,16.1279297 C80.8158878,12.9921875 82.9804385,10.8339844 86.1352237,10.8339844 Z M85.9194034,14.5854492 C85.1830753,14.5854492 84.745087,15.1757812 84.745087,16.1723633 C84.745087,17.15625 85.1894229,17.7529297 85.9130557,17.7529297 C86.6620792,17.7529297 87.1381534,17.1435547 87.1381534,16.1723633 C87.1381534,15.1948242 86.6684268,14.5854492 85.9194034,14.5854492 Z M93.5127305,11.9003906 C92.9985704,11.9003906 92.5732774,11.487793 92.5732774,10.9672852 C92.5732774,10.453125 92.9985704,10.0341797 93.5127305,10.0341797 C94.0332383,10.0341797 94.4585313,10.453125 94.4585313,10.9672852 C94.4585313,11.487793 94.0332383,11.9003906 93.5127305,11.9003906 Z M92.7319688,20 L92.7319688,13.0620117 L94.2998399,13.0620117 L94.2998399,20 L92.7319688,20 Z M102.070901,13.0620117 L99.6143585,20 L97.8814483,20 L95.41221,13.0620117 L97.1006866,13.0620117 L98.7066436,18.4575195 L98.8145538,18.4575195 L100.407815,13.0620117 L102.070901,13.0620117 Z M104.84001,20.1142578 C103.500654,20.1142578 102.542158,19.3017578 102.542158,18.0322266 C102.542158,16.7880859 103.487959,16.0581055 105.176436,15.9628906 L106.966475,15.8549805 L106.966475,15.2583008 C106.966475,14.5664062 106.509443,14.1791992 105.658857,14.1791992 C104.935225,14.1791992 104.440107,14.4394531 104.294111,14.9155273 L102.80876,14.9155273 C102.935713,13.703125 104.084639,12.9287109 105.735029,12.9287109 C107.518721,12.9287109 108.52165,13.7919922 108.52165,15.2583008 L108.52165,20 L107.004561,20 L107.004561,19.0478516 L106.89665,19.0478516 C106.509443,19.7207031 105.747725,20.1142578 104.84001,20.1142578 Z M105.303389,18.9018555 C106.255537,18.9018555 106.966475,18.2797852 106.966475,17.4545898 L106.966475,16.8896484 L105.398604,16.9975586 C104.516279,17.0546875 104.103682,17.378418 104.103682,17.9560547 C104.103682,18.5527344 104.605147,18.9018555 105.303389,18.9018555 Z M110.179919,20 L110.179919,13.0620117 L111.697009,13.0620117 L111.697009,14.1728516 L111.804919,14.1728516 C112.134997,13.3984375 112.833239,12.9287109 113.867907,12.9287109 C115.416735,12.9287109 116.260974,13.8618164 116.260974,15.512207 L116.260974,20 L114.686755,20 L114.686755,15.8803711 C114.686755,14.8012695 114.242419,14.2617188 113.283923,14.2617188 C112.34447,14.2617188 111.754138,14.9155273 111.754138,15.956543 L111.754138,20 L110.179919,20 Z M123.733695,13.0620117 L121.277152,20 L119.544242,20 L117.075004,13.0620117 L118.763481,13.0620117 L120.369438,18.4575195 L120.477348,18.4575195 L122.070609,13.0620117 L123.733695,13.0620117 Z M127.550167,20.1396484 C125.468136,20.1396484 124.2113,18.78125 124.2113,16.527832 C124.2113,14.293457 125.487179,12.9287109 127.550167,12.9287109 C129.619503,12.9287109 130.889034,14.2871094 130.889034,16.527832 C130.889034,18.78125 129.625851,20.1396484 127.550167,20.1396484 Z M127.550167,18.8510742 C128.648312,18.8510742 129.270382,18.0004883 129.270382,16.5341797 C129.270382,15.0678711 128.641964,14.2172852 127.550167,14.2172852 C126.452023,14.2172852 125.823605,15.0678711 125.823605,16.5341797 C125.823605,18.0004883 126.452023,18.8510742 127.550167,18.8510742 Z M132.242615,20 L132.242615,13.0620117 L133.759705,13.0620117 L133.759705,14.1411133 L133.867615,14.1411133 C134.058045,13.4555664 134.807068,12.9477539 135.702088,12.9477539 C135.930604,12.9477539 136.209901,12.9731445 136.355897,13.0112305 L136.355897,14.4458008 C136.235291,14.4013672 135.816346,14.3569336 135.549744,14.3569336 C134.527772,14.3569336 133.816834,14.9916992 133.816834,15.9692383 L133.816834,20 L132.242615,20 Z M140.235845,20.1396484 C138.153814,20.1396484 136.896978,18.78125 136.896978,16.527832 C136.896978,14.293457 138.172857,12.9287109 140.235845,12.9287109 C142.305181,12.9287109 143.574712,14.2871094 143.574712,16.527832 C143.574712,18.78125 142.311528,20.1396484 140.235845,20.1396484 Z M140.235845,18.8510742 C141.333989,18.8510742 141.95606,18.0004883 141.95606,16.5341797 C141.95606,15.0678711 141.327642,14.2172852 140.235845,14.2172852 C139.1377,14.2172852 138.509282,15.0678711 138.509282,16.5341797 C138.509282,18.0004883 139.1377,18.8510742 140.235845,18.8510742 Z M148.787668,20.1142578 C147.816477,20.1142578 147.010324,19.6635742 146.61677,18.9018555 L146.508859,18.9018555 L146.508859,20 L144.99177,20 L144.99177,10.3769531 L146.565988,10.3769531 L146.565988,14.1665039 L146.673899,14.1665039 C147.035715,13.4111328 147.83552,12.9477539 148.787668,12.9477539 C150.545969,12.9477539 151.637766,14.3188477 151.637766,16.5341797 C151.637766,18.7368164 150.539621,20.1142578 148.787668,20.1142578 Z M148.292551,14.2617188 C147.219797,14.2617188 146.540598,15.1313477 146.540598,16.5341797 C146.540598,17.9370117 147.213449,18.8066406 148.292551,18.8066406 C149.371652,18.8066406 150.019113,17.949707 150.019113,16.5341797 C150.019113,15.1186523 149.365305,14.2617188 148.292551,14.2617188 Z M157.510878,18.1020508 L159.002577,18.1020508 C158.716933,19.3525391 157.555312,20.1396484 155.917616,20.1396484 C153.873671,20.1396484 152.642226,18.78125 152.642226,16.5595703 C152.642226,14.331543 153.892714,12.9287109 155.904921,12.9287109 C157.88539,12.9287109 159.072401,14.2426758 159.072401,16.4199219 L159.072401,16.9213867 L154.222792,16.9213867 L154.222792,17.0039062 C154.260878,18.1782227 154.927382,18.9145508 155.96205,18.9145508 C156.742812,18.9145508 157.282362,18.6225586 157.510878,18.1020508 Z M155.898573,14.1538086 C154.95912,14.1538086 154.298964,14.8330078 154.22914,15.8740234 L157.498183,15.8740234 C157.466444,14.8203125 156.844374,14.1538086 155.898573,14.1538086 Z M161.21944,11.9003906 C160.705279,11.9003906 160.279986,11.487793 160.279986,10.9672852 C160.279986,10.453125 160.705279,10.0341797 161.21944,10.0341797 C161.739947,10.0341797 162.16524,10.453125 162.16524,10.9672852 C162.16524,11.487793 161.739947,11.9003906 161.21944,11.9003906 Z M160.438678,20 L160.438678,13.0620117 L162.006549,13.0620117 L162.006549,20 L160.438678,20 Z" id="Follow@ivanvorobei" fill="#000000" fill-rule="nonzero"></path>
            </g>
        </g>
    </g>
</svg>