<?xml version="1.0" encoding="UTF-8"?>
<svg width="172px" height="31px" viewBox="0 0 172 31" version="1.1" xmlns="http://www.w3.org/2000/svg" xmlns:xlink="http://www.w3.org/1999/xlink">
    <!-- Generator: Sketch 55.2 (78181) - https://sketchapp.com -->
    <title>Group 4</title>
    <desc>Created with Sketch.</desc>
    <defs>
        <linearGradient x1="50%" y1="0%" x2="50%" y2="100%" id="linearGradient-1">
            <stop stop-color="#F9FBFB" offset="0%"></stop>
            <stop stop-color="#EEF2F5" offset="100%"></stop>
        </linearGradient>
    </defs>
    <g id="Page-1" stroke="none" stroke-width="1" fill="none" fill-rule="evenodd">
        <g id="Final" transform="translate(-15.000000, -14.000000)">
            <g id="Group-4" transform="translate(15.000000, 14.000000)">
                <rect id="Rectangle" stroke="#C7C9CD" fill="url(#linearGradient-1)" x="0.5" y="0.5" width="171" height="30" rx="3"></rect>
                <g id="Group-7" transform="translate(13.000000, 8.000000)" fill="#161514">
                    <path d="M7.91593767,0 C3.54487042,0 0,3.44281538 0,7.6900401 C0,11.0875366 2.26815331,13.9695314 5.41401926,14.9863728 C5.81010774,15.0571835 5.95444919,14.8197317 5.95444919,14.6157969 C5.95444919,14.4335774 5.94764521,13.9497044 5.94375723,13.3081596 C3.74169966,13.7726777 3.27708544,12.2771561 3.27708544,12.2771561 C2.91696082,11.3887181 2.39791481,11.1522104 2.39791481,11.1522104 C1.67912357,10.6754185 2.4523466,10.6848599 2.4523466,10.6848599 C3.24695356,10.7391481 3.66491196,11.4774675 3.66491196,11.4774675 C4.37106725,12.6524527 5.51802286,12.3130335 5.96902913,12.1161798 C6.04095685,11.6195609 6.24556207,11.2806138 6.4715512,11.0884808 C4.71369594,10.8944595 2.86544502,10.234504 2.86544502,7.28783543 C2.86544502,6.44849281 3.17405384,5.76162919 3.6804639,5.22441214 C3.59881621,5.0299188 3.32714325,4.2476968 3.7582236,3.18931313 C3.7582236,3.18931313 4.42258305,2.98254594 5.93500926,3.97767206 C6.56632084,3.80678228 7.24380224,3.72180946 7.91690967,3.71850497 C8.58953109,3.72180946 9.26652649,3.80678228 9.89881007,3.97767206 C11.4102643,2.98254594 12.0736517,3.18931313 12.0736517,3.18931313 C12.5057041,4.2476968 12.2340311,5.0299188 12.1528694,5.22441214 C12.6602515,5.76162919 12.9664303,6.44849281 12.9664303,7.28783543 C12.9664303,10.2420571 11.1152634,10.8920992 9.35206217,11.0823439 C9.63588508,11.3197957 9.88909011,11.7890345 9.88909011,12.5065827 C9.88909011,13.5342818 9.87937015,14.3637109 9.87937015,14.6157969 C9.87937015,14.82162 10.0222536,15.0609601 10.4236881,14.9859007 C13.567124,13.966699 15.8333333,11.0865925 15.8333333,7.6900401 C15.8333333,3.44281538 12.2884629,0 7.91593767,0" id="Fill-4"></path>
                </g>
                <path d="M37.7675781,20 L36.1298828,20 L36.1298828,10.840332 L41.9697266,10.840332 L41.9697266,12.2177734 L37.7675781,12.2177734 L37.7675781,14.9282227 L41.6079102,14.9282227 L41.6079102,16.2612305 L37.7675781,16.2612305 L37.7675781,20 Z M46.2765303,20.1396484 C44.194499,20.1396484 42.9376631,18.78125 42.9376631,16.527832 C42.9376631,14.293457 44.213542,12.9287109 46.2765303,12.9287109 C48.3458662,12.9287109 49.6153975,14.2871094 49.6153975,16.527832 C49.6153975,18.78125 48.3522139,20.1396484 46.2765303,20.1396484 Z M46.2765303,18.8510742 C47.3746748,18.8510742 47.9967451,18.0004883 47.9967451,16.5341797 C47.9967451,15.0678711 47.3683272,14.2172852 46.2765303,14.2172852 C45.1783858,14.2172852 44.5499678,15.0678711 44.5499678,16.5341797 C44.5499678,18.0004883 45.1783858,18.8510742 46.2765303,18.8510742 Z M50.9324551,20 L50.9324551,10.3769531 L52.5066738,10.3769531 L52.5066738,20 L50.9324551,20 Z M54.2236338,20 L54.2236338,10.3769531 L55.7978526,10.3769531 L55.7978526,20 L54.2236338,20 Z M60.4474297,20.1396484 C58.3653985,20.1396484 57.1085625,18.78125 57.1085625,16.527832 C57.1085625,14.293457 58.3844414,12.9287109 60.4474297,12.9287109 C62.5167657,12.9287109 63.7862969,14.2871094 63.7862969,16.527832 C63.7862969,18.78125 62.5231133,20.1396484 60.4474297,20.1396484 Z M60.4474297,18.8510742 C61.5455743,18.8510742 62.1676446,18.0004883 62.1676446,16.5341797 C62.1676446,15.0678711 61.5392266,14.2172852 60.4474297,14.2172852 C59.3492852,14.2172852 58.7208672,15.0678711 58.7208672,16.5341797 C58.7208672,18.0004883 59.3492852,18.8510742 60.4474297,18.8510742 Z M74.0662452,13.0620117 L72.1873389,20 L70.5306006,20 L69.1785498,14.9726562 L69.0706397,14.9726562 L67.7249366,20 L66.0872413,20 L64.208335,13.0620117 L65.7952491,13.0620117 L66.9505225,18.2734375 L67.0584327,18.2734375 L68.3914405,13.0620117 L69.895835,13.0620117 L71.2415381,18.2734375 L71.3494483,18.2734375 L72.4983741,13.0620117 L74.0662452,13.0620117 Z M83.4352237,10.8339844 C86.4630557,10.8339844 88.545087,12.7509766 88.545087,15.5375977 C88.545087,17.5751953 87.5992862,18.8574219 86.088544,18.8574219 C85.3141299,18.8574219 84.7364932,18.4511719 84.6222354,17.8354492 L84.5079776,17.8354492 C84.241376,18.4765625 83.7018252,18.8256836 82.9654971,18.8256836 C81.6451846,18.8256836 80.7628604,17.746582 80.7628604,16.1342773 C80.7628604,14.5917969 81.6451846,13.5317383 82.9274112,13.5317383 C83.6002627,13.5317383 84.1588565,13.8681641 84.4064151,14.4267578 L84.5206729,14.4267578 L84.5206729,13.6650391 L85.682294,13.6650391 L85.682294,17.1816406 C85.682294,17.6259766 85.9171573,17.8925781 86.3297549,17.8925781 C87.0343448,17.8925781 87.4786807,16.9912109 87.4786807,15.5883789 C87.4786807,13.296875 85.8346377,11.7670898 83.3780948,11.7670898 C80.9152042,11.7670898 79.182294,13.5825195 79.182294,16.1660156 C79.182294,18.800293 80.9025088,20.4760742 83.6066104,20.4760742 C84.3556338,20.4760742 85.1110049,20.3745117 85.479169,20.222168 L85.479169,21.1616211 C84.9523135,21.3266602 84.260419,21.421875 83.5431338,21.421875 C80.2487002,21.421875 78.1158877,19.3398438 78.1158877,16.1279297 C78.1158877,12.9921875 80.2804385,10.8339844 83.4352237,10.8339844 Z M83.2194034,14.5854492 C82.4830752,14.5854492 82.045087,15.1757812 82.045087,16.1723633 C82.045087,17.15625 82.4894229,17.7529297 83.2130557,17.7529297 C83.9620792,17.7529297 84.4381534,17.1435547 84.4381534,16.1723633 C84.4381534,15.1948242 83.9684268,14.5854492 83.2194034,14.5854492 Z M90.7127305,11.9003906 C90.1985704,11.9003906 89.7732774,11.487793 89.7732774,10.9672852 C89.7732774,10.453125 90.1985704,10.0341797 90.7127305,10.0341797 C91.2332383,10.0341797 91.6585313,10.453125 91.6585313,10.9672852 C91.6585313,11.487793 91.2332383,11.9003906 90.7127305,11.9003906 Z M89.9319688,20 L89.9319688,13.0620117 L91.4998399,13.0620117 L91.4998399,20 L89.9319688,20 Z M99.1709014,13.0620117 L96.7143585,20 L94.9814483,20 L92.51221,13.0620117 L94.2006866,13.0620117 L95.8066436,18.4575195 L95.9145538,18.4575195 L97.5078155,13.0620117 L99.1709014,13.0620117 Z M101.84001,20.1142578 C100.500654,20.1142578 99.5421583,19.3017578 99.5421583,18.0322266 C99.5421583,16.7880859 100.487959,16.0581055 102.176436,15.9628906 L103.966475,15.8549805 L103.966475,15.2583008 C103.966475,14.5664062 103.509443,14.1791992 102.658858,14.1791992 C101.935225,14.1791992 101.440108,14.4394531 101.294111,14.9155273 L99.8087598,14.9155273 C99.935713,13.703125 101.084639,12.9287109 102.735029,12.9287109 C104.518721,12.9287109 105.52165,13.7919922 105.52165,15.2583008 L105.52165,20 L104.004561,20 L104.004561,19.0478516 L103.89665,19.0478516 C103.509443,19.7207031 102.747725,20.1142578 101.84001,20.1142578 Z M102.303389,18.9018555 C103.255537,18.9018555 103.966475,18.2797852 103.966475,17.4545898 L103.966475,16.8896484 L102.398604,16.9975586 C101.516279,17.0546875 101.103682,17.378418 101.103682,17.9560547 C101.103682,18.5527344 101.605147,18.9018555 102.303389,18.9018555 Z M107.079919,20 L107.079919,13.0620117 L108.597009,13.0620117 L108.597009,14.1728516 L108.704919,14.1728516 C109.034997,13.3984375 109.733239,12.9287109 110.767907,12.9287109 C112.316735,12.9287109 113.160974,13.8618164 113.160974,15.512207 L113.160974,20 L111.586755,20 L111.586755,15.8803711 C111.586755,14.8012695 111.142419,14.2617188 110.183923,14.2617188 C109.24447,14.2617188 108.654138,14.9155273 108.654138,15.956543 L108.654138,20 L107.079919,20 Z M120.533695,13.0620117 L118.077152,20 L116.344242,20 L113.875004,13.0620117 L115.563481,13.0620117 L117.169438,18.4575195 L117.277348,18.4575195 L118.870609,13.0620117 L120.533695,13.0620117 Z M124.250167,20.1396484 C122.168136,20.1396484 120.9113,18.78125 120.9113,16.527832 C120.9113,14.293457 122.187179,12.9287109 124.250167,12.9287109 C126.319503,12.9287109 127.589034,14.2871094 127.589034,16.527832 C127.589034,18.78125 126.325851,20.1396484 124.250167,20.1396484 Z M124.250167,18.8510742 C125.348312,18.8510742 125.970382,18.0004883 125.970382,16.5341797 C125.970382,15.0678711 125.341964,14.2172852 124.250167,14.2172852 C123.152023,14.2172852 122.523605,15.0678711 122.523605,16.5341797 C122.523605,18.0004883 123.152023,18.8510742 124.250167,18.8510742 Z M128.842615,20 L128.842615,13.0620117 L130.359705,13.0620117 L130.359705,14.1411133 L130.467615,14.1411133 C130.658045,13.4555664 131.407068,12.9477539 132.302088,12.9477539 C132.530604,12.9477539 132.809901,12.9731445 132.955897,13.0112305 L132.955897,14.4458008 C132.835291,14.4013672 132.416346,14.3569336 132.149744,14.3569336 C131.127772,14.3569336 130.416834,14.9916992 130.416834,15.9692383 L130.416834,20 L128.842615,20 Z M136.735845,20.1396484 C134.653814,20.1396484 133.396978,18.78125 133.396978,16.527832 C133.396978,14.293457 134.672857,12.9287109 136.735845,12.9287109 C138.805181,12.9287109 140.074712,14.2871094 140.074712,16.527832 C140.074712,18.78125 138.811528,20.1396484 136.735845,20.1396484 Z M136.735845,18.8510742 C137.833989,18.8510742 138.45606,18.0004883 138.45606,16.5341797 C138.45606,15.0678711 137.827642,14.2172852 136.735845,14.2172852 C135.6377,14.2172852 135.009282,15.0678711 135.009282,16.5341797 C135.009282,18.0004883 135.6377,18.8510742 136.735845,18.8510742 Z M145.187668,20.1142578 C144.216477,20.1142578 143.410324,19.6635742 143.01677,18.9018555 L142.90886,18.9018555 L142.90886,20 L141.39177,20 L141.39177,10.3769531 L142.965988,10.3769531 L142.965988,14.1665039 L143.073899,14.1665039 C143.435715,13.4111328 144.23552,12.9477539 145.187668,12.9477539 C146.945969,12.9477539 148.037766,14.3188477 148.037766,16.5341797 C148.037766,18.7368164 146.939621,20.1142578 145.187668,20.1142578 Z M144.692551,14.2617188 C143.619797,14.2617188 142.940598,15.1313477 142.940598,16.5341797 C142.940598,17.9370117 143.613449,18.8066406 144.692551,18.8066406 C145.771652,18.8066406 146.419113,17.949707 146.419113,16.5341797 C146.419113,15.1186523 145.765305,14.2617188 144.692551,14.2617188 Z M153.810878,18.1020508 L155.302577,18.1020508 C155.016933,19.3525391 153.855312,20.1396484 152.217616,20.1396484 C150.173671,20.1396484 148.942226,18.78125 148.942226,16.5595703 C148.942226,14.331543 150.192714,12.9287109 152.204921,12.9287109 C154.18539,12.9287109 155.372402,14.2426758 155.372402,16.4199219 L155.372402,16.9213867 L150.522792,16.9213867 L150.522792,17.0039062 C150.560878,18.1782227 151.227382,18.9145508 152.26205,18.9145508 C153.042812,18.9145508 153.582362,18.6225586 153.810878,18.1020508 Z M152.198573,14.1538086 C151.25912,14.1538086 150.598964,14.8330078 150.52914,15.8740234 L153.798183,15.8740234 C153.766444,14.8203125 153.144374,14.1538086 152.198573,14.1538086 Z M157.41944,11.9003906 C156.905279,11.9003906 156.479986,11.487793 156.479986,10.9672852 C156.479986,10.453125 156.905279,10.0341797 157.41944,10.0341797 C157.939947,10.0341797 158.36524,10.453125 158.36524,10.9672852 C158.36524,11.487793 157.939947,11.9003906 157.41944,11.9003906 Z M156.638678,20 L156.638678,13.0620117 L158.206549,13.0620117 L158.206549,20 L156.638678,20 Z" id="Follow@ivanvorobei" fill="#000000" fill-rule="nonzero"></path>
            </g>
        </g>
    </g>
</svg>