<?xml version="1.0" encoding="UTF-8"?>
<svg width="195px" height="36px" viewBox="0 0 195 36" version="1.1" xmlns="http://www.w3.org/2000/svg" xmlns:xlink="http://www.w3.org/1999/xlink">
    <!-- Generator: Sketch 55.2 (78181) - https://sketchapp.com -->
    <title>Group 4</title>
    <desc>Created with Sketch.</desc>
    <defs>
        <linearGradient x1="50%" y1="0%" x2="50%" y2="100%" id="linearGradient-1">
            <stop stop-color="#F9FBFB" offset="0%"></stop>
            <stop stop-color="#EEF2F5" offset="100%"></stop>
        </linearGradient>
    </defs>
    <g id="Page-1" stroke="none" stroke-width="1" fill="none" fill-rule="evenodd">
        <g id="twitter" transform="translate(-41.000000, -31.000000)">
            <g id="Group-4" transform="translate(41.000000, 31.000000)">
                <rect id="Rectangle" stroke="#C7C9CD" fill="url(#linearGradient-1)" x="0.5" y="0.5" width="194" height="35" rx="3"></rect>
                <g id="Group-7" transform="translate(13.000000, 9.000000)">
                    <text id="Follow-@ivanvorobei" font-family="SFProText-Bold, SF Pro Text" font-size="15" font-weight="bold" letter-spacing="-0.384615" fill="#000000">
                        <tspan x="22" y="14">Follow @ivanvorobei</tspan>
                    </text>
                    <path d="M7.91593767,2 C3.54487042,2 0,5.44281538 0,9.6900401 C0,13.0875366 2.26815331,15.9695314 5.41401926,16.9863728 C5.81010774,17.0571835 5.95444919,16.8197317 5.95444919,16.6157969 C5.95444919,16.4335774 5.94764521,15.9497044 5.94375723,15.3081596 C3.74169966,15.7726777 3.27708544,14.2771561 3.27708544,14.2771561 C2.91696082,13.3887181 2.39791481,13.1522104 2.39791481,13.1522104 C1.67912357,12.6754185 2.4523466,12.6848599 2.4523466,12.6848599 C3.24695356,12.7391481 3.66491196,13.4774675 3.66491196,13.4774675 C4.37106725,14.6524527 5.51802286,14.3130335 5.96902913,14.1161798 C6.04095685,13.6195609 6.24556207,13.2806138 6.4715512,13.0884808 C4.71369594,12.8944595 2.86544502,12.234504 2.86544502,9.28783543 C2.86544502,8.44849281 3.17405384,7.76162919 3.6804639,7.22441214 C3.59881621,7.0299188 3.32714325,6.2476968 3.7582236,5.18931313 C3.7582236,5.18931313 4.42258305,4.98254594 5.93500926,5.97767206 C6.56632084,5.80678228 7.24380224,5.72180946 7.91690967,5.71850497 C8.58953109,5.72180946 9.26652649,5.80678228 9.89881007,5.97767206 C11.4102643,4.98254594 12.0736517,5.18931313 12.0736517,5.18931313 C12.5057041,6.2476968 12.2340311,7.0299188 12.1528694,7.22441214 C12.6602515,7.76162919 12.9664303,8.44849281 12.9664303,9.28783543 C12.9664303,12.2420571 11.1152634,12.8920992 9.35206217,13.0823439 C9.63588508,13.3197957 9.88909011,13.7890345 9.88909011,14.5065827 C9.88909011,15.5342818 9.87937015,16.3637109 9.87937015,16.6157969 C9.87937015,16.82162 10.0222536,17.0609601 10.4236881,16.9859007 C13.567124,15.966699 15.8333333,13.0865925 15.8333333,9.6900401 C15.8333333,5.44281538 12.2884629,2 7.91593767,2" id="Fill-4" fill="#161514"></path>
                </g>
            </g>
        </g>
    </g>
</svg>