<?xml version="1.0" encoding="UTF-8"?>
<svg width="94px" height="16px" viewBox="0 0 94 16" version="1.1" xmlns="http://www.w3.org/2000/svg" xmlns:xlink="http://www.w3.org/1999/xlink">
    <!-- Generator: Sketch 55.2 (78181) - https://sketchapp.com -->
    <title>Group 4</title>
    <desc>Created with Sketch.</desc>
    <g id="Page-1" stroke="none" stroke-width="1" fill="none" fill-rule="evenodd">
        <g id="twitter" transform="translate(-92.000000, -41.000000)">
            <g id="Group-4" transform="translate(92.000000, 41.000000)">
                <path d="M8.44366685,0 C3.78119511,0 -1.0125234e-13,3.6723364 -1.0125234e-13,8.20270944 C-1.0125234e-13,11.8267058 2.41936353,14.9008335 5.77495387,15.9854643 C6.19744825,16.0609957 6.35141246,15.8077138 6.35141246,15.5901834 C6.35141246,15.3958159 6.34415489,14.8796847 6.34000771,14.1953703 C3.99114631,14.6908562 3.49555781,13.0956332 3.49555781,13.0956332 C3.11142488,12.1479659 2.5577758,11.8956911 2.5577758,11.8956911 C1.79106514,11.387113 2.61583638,11.3971839 2.61583638,11.3971839 C3.46341713,11.4550913 3.90923942,12.242632 3.90923942,12.242632 C4.66247174,13.4959496 5.88589105,13.1339024 6.3669644,12.9239251 C6.44368731,12.3941983 6.66193287,12.0326547 6.90298795,11.8277128 C5.02794234,11.6207568 3.05647469,10.9168042 3.05647469,7.77369112 C3.05647469,6.87839233 3.38565743,6.1457378 3.92582816,5.57270629 C3.83873729,5.36524672 3.5489528,4.53087658 4.00877184,3.40193401 C4.00877184,3.40193401 4.71742192,3.18138234 6.33067654,4.2428502 C7.00407556,4.06056777 7.72672239,3.96993009 8.44470364,3.9664053 C9.16216649,3.96993009 9.88429493,4.06056777 10.5587307,4.2428502 C12.1709486,3.18138234 12.8785619,3.40193401 12.8785619,3.40193401 C13.3394177,4.53087658 13.0496332,5.36524672 12.9630607,5.57270629 C13.5042683,6.1457378 13.830859,6.87839233 13.830859,7.77369112 C13.830859,10.9248609 11.856281,11.6182391 9.97553298,11.8211668 C10.2782774,12.0744487 10.5483628,12.5749701 10.5483628,13.3403549 C10.5483628,14.4365672 10.5379948,15.3212916 10.5379948,15.5901834 C10.5379948,15.809728 10.6904038,16.0650241 11.1186006,15.9849608 C14.471599,14.8978123 16.8888889,11.8256987 16.8888889,8.20270944 C16.8888889,3.6723364 13.1076938,0 8.44366685,0" id="Fill-4" fill="#161514"></path>
                <path d="M28.1933594,13 L26.3037109,13 L26.3037109,2.43115234 L33.0419922,2.43115234 L33.0419922,4.02050781 L28.1933594,4.02050781 L28.1933594,7.14794922 L32.6245117,7.14794922 L32.6245117,8.68603516 L28.1933594,8.68603516 L28.1933594,13 Z M37.8342311,13.1611328 C35.4318873,13.1611328 33.981692,11.59375 33.981692,8.99365234 C33.981692,6.41552734 35.45386,4.84082031 37.8342311,4.84082031 C40.2219264,4.84082031 41.6867702,6.40820312 41.6867702,8.99365234 C41.6867702,11.59375 40.2292506,13.1611328 37.8342311,13.1611328 Z M37.8342311,11.6743164 C39.1013209,11.6743164 39.8190944,10.6928711 39.8190944,9.00097656 C39.8190944,7.30908203 39.0939967,6.32763672 37.8342311,6.32763672 C36.5671413,6.32763672 35.8420436,7.30908203 35.8420436,9.00097656 C35.8420436,10.6928711 36.5671413,11.6743164 37.8342311,11.6743164 Z M43.029302,13 L43.029302,1.89648438 L44.8457083,1.89648438 L44.8457083,13 L43.029302,13 Z M46.6496659,13 L46.6496659,1.89648438 L48.4660722,1.89648438 L48.4660722,13 L46.6496659,13 Z M53.6538189,13.1611328 C51.2514752,13.1611328 49.8012798,11.59375 49.8012798,8.99365234 C49.8012798,6.41552734 51.2734478,4.84082031 53.6538189,4.84082031 C56.0415142,4.84082031 57.506358,6.40820312 57.506358,8.99365234 C57.506358,11.59375 56.0488384,13.1611328 53.6538189,13.1611328 Z M53.6538189,11.6743164 C54.9209088,11.6743164 55.6386822,10.6928711 55.6386822,9.00097656 C55.6386822,7.30908203 54.9135845,6.32763672 53.6538189,6.32763672 C52.3867291,6.32763672 51.6616314,7.30908203 51.6616314,9.00097656 C51.6616314,10.6928711 52.3867291,11.6743164 53.6538189,11.6743164 Z M69.1906867,4.99462891 L67.022718,13 L65.1110969,13 L63.5510383,7.19921875 L63.4265266,7.19921875 L61.8737922,13 L59.9841438,13 L57.816175,4.99462891 L59.6472297,4.99462891 L60.9802375,11.0078125 L61.1047492,11.0078125 L62.6428352,4.99462891 L64.378675,4.99462891 L65.9314094,11.0078125 L66.0559211,11.0078125 L67.3816047,4.99462891 L69.1906867,4.99462891 Z M73.6482114,13 L73.6482114,4.99462891 L75.3986997,4.99462891 L75.3986997,6.28369141 L75.5232114,6.28369141 C75.8674497,5.3828125 76.6877622,4.84082031 77.7497739,4.84082031 C78.8557309,4.84082031 79.6247739,5.39746094 79.961688,6.28369141 L80.0861997,6.28369141 C80.4817075,5.41210938 81.4045591,4.84082031 82.5178403,4.84082031 C84.1218442,4.84082031 85.0886411,5.82958984 85.0886411,7.4921875 L85.0886411,13 L83.2795591,13 L83.2795591,7.93896484 C83.2795591,6.89892578 82.7888364,6.37890625 81.8147153,6.37890625 C80.8698911,6.37890625 80.2473325,7.08203125 80.2473325,7.99755859 L80.2473325,13 L78.4821958,13 L78.4821958,7.80712891 C78.4821958,6.92089844 77.9255552,6.37890625 77.0320005,6.37890625 C76.1311216,6.37890625 75.4646177,7.13330078 75.4646177,8.12939453 L75.4646177,13 L73.6482114,13 Z M91.9023644,10.8100586 L93.6235558,10.8100586 C93.2939659,12.2529297 91.9536339,13.1611328 90.0639855,13.1611328 C87.705587,13.1611328 86.2846886,11.59375 86.2846886,9.03027344 C86.2846886,6.45947266 87.7275597,4.84082031 90.049337,4.84082031 C92.3344933,4.84082031 93.7041222,6.35693359 93.7041222,8.86914062 L93.7041222,9.44775391 L88.1084191,9.44775391 L88.1084191,9.54296875 C88.1523644,10.8979492 88.9214073,11.7475586 90.115255,11.7475586 C91.0161339,11.7475586 91.6386925,11.4106445 91.9023644,10.8100586 Z M90.0420128,6.25439453 C88.9580284,6.25439453 88.1963097,7.03808594 88.1157433,8.23925781 L91.8877159,8.23925781 C91.8510948,7.0234375 91.1333214,6.25439453 90.0420128,6.25439453 Z" id="Followme" fill="#000000" fill-rule="nonzero"></path>
            </g>
        </g>
    </g>
</svg>