<?xml version="1.0" encoding="UTF-8"?>
<svg width="172px" height="31px" viewBox="0 0 172 31" version="1.1" xmlns="http://www.w3.org/2000/svg" xmlns:xlink="http://www.w3.org/1999/xlink">
    <!-- Generator: Sketch 55.2 (78181) - https://sketchapp.com -->
    <title>Group 4</title>
    <desc>Created with Sketch.</desc>
    <defs>
        <linearGradient x1="50%" y1="0%" x2="50%" y2="100%" id="linearGradient-1">
            <stop stop-color="#F9FBFB" offset="0%"></stop>
            <stop stop-color="#EEF2F5" offset="100%"></stop>
        </linearGradient>
    </defs>
    <g id="Page-1" stroke="none" stroke-width="1" fill="none" fill-rule="evenodd">
        <g id="Final" transform="translate(-15.000000, -14.000000)">
            <g id="Group-4" transform="translate(15.000000, 14.000000)">
                <rect id="Rectangle" stroke="#C7C9CD" fill="url(#linearGradient-1)" x="0.5" y="0.5" width="171" height="30" rx="3"></rect>
                <g id="Group-7" transform="translate(13.000000, 9.000000)" fill="#161514">
                    <path d="M7.38820849,0 C3.30854572,0 0,3.21329435 0,7.17737076 C0,10.3483675 2.11694309,13.0382293 5.05308464,13.9872813 C5.42276722,14.0533713 5.55748591,13.8317496 5.55748591,13.6414104 C5.55748591,13.4713389 5.55113553,13.0197241 5.54750674,12.420949 C3.49225302,12.8544992 3.05861308,11.458679 3.05861308,11.458679 C2.72249677,10.6294702 2.23805382,10.4087297 2.23805382,10.4087297 C1.567182,9.9637239 2.28885683,9.9725359 2.28885683,9.9725359 C3.03048999,10.0232049 3.42058449,10.712303 3.42058449,10.712303 C4.07966277,11.8089559 5.15015467,11.4921646 5.57109385,11.3084345 C5.6382264,10.8449235 5.82919126,10.5285729 6.04011446,10.3492487 C4.39944954,10.1681622 2.67441535,9.55220369 2.67441535,6.80197973 C2.67441535,6.01859328 2.96245025,5.37752057 3.43509964,4.876118 C3.35889513,4.69459088 3.1053337,3.96451701 3.50767536,2.97669226 C3.50767536,2.97669226 4.12774418,2.78370954 5.53934198,3.71249393 C6.12856612,3.5529968 6.7608821,3.47368883 7.38911569,3.47060463 C8.01689568,3.47368883 8.64875806,3.5529968 9.2388894,3.71249393 C10.64958,2.78370954 11.2687416,2.97669226 11.2687416,2.97669226 C11.6719905,3.96451701 11.418429,4.69459088 11.3426781,4.876118 C11.8162347,5.37752057 12.1020016,6.01859328 12.1020016,6.80197973 C12.1020016,9.55925329 10.3742459,10.1659592 8.72859136,10.3435209 C8.99349274,10.5651426 9.22981744,11.0030988 9.22981744,11.6728105 C9.22981744,12.6319963 9.22074547,13.4061302 9.22074547,13.6414104 C9.22074547,13.833512 9.35410336,14.0568961 9.72877552,13.9868407 C12.6626491,13.0355857 14.7777778,10.3474863 14.7777778,7.17737076 C14.7777778,3.21329435 11.4692321,0 7.38820849,0" id="Fill-4"></path>
                </g>
                <path d="M37.6376953,19.9658203 L36,19.9658203 L36,10.8061523 L41.8398438,10.8061523 L41.8398438,12.1835938 L37.6376953,12.1835938 L37.6376953,14.894043 L41.4780273,14.894043 L41.4780273,16.2270508 L37.6376953,16.2270508 L37.6376953,19.9658203 Z M46.1466475,20.1054688 C44.0646162,20.1054688 42.8077803,18.7470703 42.8077803,16.4936523 C42.8077803,14.2592773 44.0836592,12.8945312 46.1466475,12.8945312 C48.2159834,12.8945312 49.4855147,14.2529297 49.4855147,16.4936523 C49.4855147,18.7470703 48.2223311,20.1054688 46.1466475,20.1054688 Z M46.1466475,18.8168945 C47.244792,18.8168945 47.8668623,17.9663086 47.8668623,16.5 C47.8668623,15.0336914 47.2384443,14.1831055 46.1466475,14.1831055 C45.0485029,14.1831055 44.420085,15.0336914 44.420085,16.5 C44.420085,17.9663086 45.0485029,18.8168945 46.1466475,18.8168945 Z M50.8025723,19.9658203 L50.8025723,10.3427734 L52.376791,10.3427734 L52.376791,19.9658203 L50.8025723,19.9658203 Z M54.093751,19.9658203 L54.093751,10.3427734 L55.6679697,10.3427734 L55.6679697,19.9658203 L54.093751,19.9658203 Z M60.3175469,20.1054688 C58.2355157,20.1054688 56.9786797,18.7470703 56.9786797,16.4936523 C56.9786797,14.2592773 58.2545586,12.8945312 60.3175469,12.8945312 C62.3868828,12.8945312 63.6564141,14.2529297 63.6564141,16.4936523 C63.6564141,18.7470703 62.3932305,20.1054688 60.3175469,20.1054688 Z M60.3175469,18.8168945 C61.4156914,18.8168945 62.0377618,17.9663086 62.0377618,16.5 C62.0377618,15.0336914 61.4093438,14.1831055 60.3175469,14.1831055 C59.2194024,14.1831055 58.5909844,15.0336914 58.5909844,16.5 C58.5909844,17.9663086 59.2194024,18.8168945 60.3175469,18.8168945 Z M73.9363623,13.027832 L72.0574561,19.9658203 L70.4007178,19.9658203 L69.048667,14.9384766 L68.9407569,14.9384766 L67.5950538,19.9658203 L65.9573584,19.9658203 L64.0784522,13.027832 L65.6653663,13.027832 L66.8206397,18.2392578 L66.9285498,18.2392578 L68.2615577,13.027832 L69.7659522,13.027832 L71.1116553,18.2392578 L71.2195655,18.2392578 L72.3684913,13.027832 L73.9363623,13.027832 Z M83.3053409,10.7998047 C86.3331729,10.7998047 88.4152042,12.7167969 88.4152042,15.503418 C88.4152042,17.5410156 87.4694034,18.8232422 85.9586612,18.8232422 C85.1842471,18.8232422 84.6066104,18.4169922 84.4923526,17.8012695 L84.3780948,17.8012695 C84.1114932,18.4423828 83.5719424,18.7915039 82.8356143,18.7915039 C81.5153018,18.7915039 80.6329776,17.7124023 80.6329776,16.1000977 C80.6329776,14.5576172 81.5153018,13.4975586 82.7975284,13.4975586 C83.4703799,13.4975586 84.0289737,13.8339844 84.2765323,14.3925781 L84.3907901,14.3925781 L84.3907901,13.6308594 L85.5524112,13.6308594 L85.5524112,17.1474609 C85.5524112,17.5917969 85.7872745,17.8583984 86.1998721,17.8583984 C86.904462,17.8583984 87.3487979,16.9570312 87.3487979,15.5541992 C87.3487979,13.2626953 85.7047549,11.7329102 83.248212,11.7329102 C80.7853213,11.7329102 79.0524112,13.5483398 79.0524112,16.1318359 C79.0524112,18.7661133 80.772626,20.4418945 83.4767276,20.4418945 C84.225751,20.4418945 84.9811221,20.340332 85.3492862,20.1879883 L85.3492862,21.1274414 C84.8224307,21.2924805 84.1305362,21.3876953 83.413251,21.3876953 C80.1188174,21.3876953 77.9860049,19.3056641 77.9860049,16.09375 C77.9860049,12.9580078 80.1505557,10.7998047 83.3053409,10.7998047 Z M83.0895206,14.5512695 C82.3531924,14.5512695 81.9152042,15.1416016 81.9152042,16.1381836 C81.9152042,17.1220703 82.3595401,17.71875 83.0831729,17.71875 C83.8321963,17.71875 84.3082706,17.109375 84.3082706,16.1381836 C84.3082706,15.1606445 83.838544,14.5512695 83.0895206,14.5512695 Z M90.5828477,11.8662109 C90.0686876,11.8662109 89.6433946,11.4536133 89.6433946,10.9331055 C89.6433946,10.4189453 90.0686876,10 90.5828477,10 C91.1033555,10 91.5286485,10.4189453 91.5286485,10.9331055 C91.5286485,11.4536133 91.1033555,11.8662109 90.5828477,11.8662109 Z M89.802086,19.9658203 L89.802086,13.027832 L91.3699571,13.027832 L91.3699571,19.9658203 L89.802086,19.9658203 Z M99.0410186,13.027832 L96.5844757,19.9658203 L94.8515655,19.9658203 L92.3823272,13.027832 L94.0708038,13.027832 L95.6767608,18.4233398 L95.784671,18.4233398 L97.3779327,13.027832 L99.0410186,13.027832 Z M101.710127,20.0800781 C100.370772,20.0800781 99.4122755,19.2675781 99.4122755,17.9980469 C99.4122755,16.7539062 100.358076,16.0239258 102.046553,15.9287109 L103.836592,15.8208008 L103.836592,15.2241211 C103.836592,14.5322266 103.379561,14.1450195 102.528975,14.1450195 C101.805342,14.1450195 101.310225,14.4052734 101.164229,14.8813477 L99.678877,14.8813477 C99.8058302,13.6689453 100.954756,12.8945312 102.605147,12.8945312 C104.388838,12.8945312 105.391768,13.7578125 105.391768,15.2241211 L105.391768,19.9658203 L103.874678,19.9658203 L103.874678,19.0136719 L103.766768,19.0136719 C103.379561,19.6865234 102.617842,20.0800781 101.710127,20.0800781 Z M102.173506,18.8676758 C103.125654,18.8676758 103.836592,18.2456055 103.836592,17.4204102 L103.836592,16.8554688 L102.268721,16.9633789 C101.386397,17.0205078 100.973799,17.3442383 100.973799,17.921875 C100.973799,18.5185547 101.475264,18.8676758 102.173506,18.8676758 Z M106.950036,19.9658203 L106.950036,13.027832 L108.467126,13.027832 L108.467126,14.1386719 L108.575036,14.1386719 C108.905114,13.3642578 109.603357,12.8945312 110.638025,12.8945312 C112.186853,12.8945312 113.031091,13.8276367 113.031091,15.4780273 L113.031091,19.9658203 L111.456872,19.9658203 L111.456872,15.8461914 C111.456872,14.7670898 111.012536,14.2275391 110.05404,14.2275391 C109.114587,14.2275391 108.524255,14.8813477 108.524255,15.9223633 L108.524255,19.9658203 L106.950036,19.9658203 Z M120.403813,13.027832 L117.94727,19.9658203 L116.214359,19.9658203 L113.745121,13.027832 L115.433598,13.027832 L117.039555,18.4233398 L117.147465,18.4233398 L118.740727,13.027832 L120.403813,13.027832 Z M124.120284,20.1054688 C122.038253,20.1054688 120.781417,18.7470703 120.781417,16.4936523 C120.781417,14.2592773 122.057296,12.8945312 124.120284,12.8945312 C126.18962,12.8945312 127.459151,14.2529297 127.459151,16.4936523 C127.459151,18.7470703 126.195968,20.1054688 124.120284,20.1054688 Z M124.120284,18.8168945 C125.218429,18.8168945 125.840499,17.9663086 125.840499,16.5 C125.840499,15.0336914 125.212081,14.1831055 124.120284,14.1831055 C123.02214,14.1831055 122.393722,15.0336914 122.393722,16.5 C122.393722,17.9663086 123.02214,18.8168945 124.120284,18.8168945 Z M128.712733,19.9658203 L128.712733,13.027832 L130.229822,13.027832 L130.229822,14.1069336 L130.337733,14.1069336 C130.528162,13.4213867 131.277186,12.9135742 132.172205,12.9135742 C132.400721,12.9135742 132.680018,12.9389648 132.826014,12.9770508 L132.826014,14.4116211 C132.705408,14.3671875 132.286463,14.3227539 132.019861,14.3227539 C130.997889,14.3227539 130.286951,14.9575195 130.286951,15.9350586 L130.286951,19.9658203 L128.712733,19.9658203 Z M136.605962,20.1054688 C134.523931,20.1054688 133.267095,18.7470703 133.267095,16.4936523 C133.267095,14.2592773 134.542974,12.8945312 136.605962,12.8945312 C138.675298,12.8945312 139.944829,14.2529297 139.944829,16.4936523 C139.944829,18.7470703 138.681646,20.1054688 136.605962,20.1054688 Z M136.605962,18.8168945 C137.704107,18.8168945 138.326177,17.9663086 138.326177,16.5 C138.326177,15.0336914 137.697759,14.1831055 136.605962,14.1831055 C135.507818,14.1831055 134.8794,15.0336914 134.8794,16.5 C134.8794,17.9663086 135.507818,18.8168945 136.605962,18.8168945 Z M145.057785,20.0800781 C144.086594,20.0800781 143.280442,19.6293945 142.886887,18.8676758 L142.778977,18.8676758 L142.778977,19.9658203 L141.261887,19.9658203 L141.261887,10.3427734 L142.836106,10.3427734 L142.836106,14.1323242 L142.944016,14.1323242 C143.305832,13.3769531 144.105637,12.9135742 145.057785,12.9135742 C146.816086,12.9135742 147.907883,14.284668 147.907883,16.5 C147.907883,18.7026367 146.809738,20.0800781 145.057785,20.0800781 Z M144.562668,14.2275391 C143.489914,14.2275391 142.810715,15.097168 142.810715,16.5 C142.810715,17.902832 143.483567,18.7724609 144.562668,18.7724609 C145.64177,18.7724609 146.289231,17.9155273 146.289231,16.5 C146.289231,15.0844727 145.635422,14.2275391 144.562668,14.2275391 Z M153.680995,18.0678711 L155.172694,18.0678711 C154.88705,19.3183594 153.725429,20.1054688 152.087734,20.1054688 C150.043788,20.1054688 148.812343,18.7470703 148.812343,16.5253906 C148.812343,14.2973633 150.062831,12.8945312 152.075038,12.8945312 C154.055507,12.8945312 155.242519,14.2084961 155.242519,16.3857422 L155.242519,16.887207 L150.392909,16.887207 L150.392909,16.9697266 C150.430995,18.144043 151.097499,18.8803711 152.132167,18.8803711 C152.912929,18.8803711 153.45248,18.5883789 153.680995,18.0678711 Z M152.068691,14.1196289 C151.129237,14.1196289 150.469081,14.7988281 150.399257,15.8398438 L153.6683,15.8398438 C153.636562,14.7861328 153.014491,14.1196289 152.068691,14.1196289 Z M157.289557,11.8662109 C156.775397,11.8662109 156.350104,11.4536133 156.350104,10.9331055 C156.350104,10.4189453 156.775397,10 157.289557,10 C157.810065,10 158.235358,10.4189453 158.235358,10.9331055 C158.235358,11.4536133 157.810065,11.8662109 157.289557,11.8662109 Z M156.508795,19.9658203 L156.508795,13.027832 L158.076666,13.027832 L158.076666,19.9658203 L156.508795,19.9658203 Z" id="Follow@ivanvorobei" fill="#000000" fill-rule="nonzero"></path>
            </g>
        </g>
    </g>
</svg>