<?xml version="1.0" encoding="UTF-8"?>
<svg width="149px" height="16px" viewBox="0 0 149 16" version="1.1" xmlns="http://www.w3.org/2000/svg" xmlns:xlink="http://www.w3.org/1999/xlink">
    <!-- Generator: Sketch 55.2 (78181) - https://sketchapp.com -->
    <title>Group 5</title>
    <desc>Created with Sketch.</desc>
    <g id="Page-1" stroke="none" stroke-width="1" fill="none" fill-rule="evenodd">
        <g id="twitter" transform="translate(-65.000000, -41.000000)">
            <g id="Group-5" transform="translate(65.000000, 41.000000)">
                <path d="M8.44366685,0 C3.78119511,0 0,3.6723364 0,8.20270944 C0,11.8267058 2.41936353,14.9008335 5.77495387,15.9854643 C6.19744825,16.0609957 6.35141246,15.8077138 6.35141246,15.5901834 C6.35141246,15.3958159 6.34415489,14.8796847 6.34000771,14.1953703 C3.99114631,14.6908562 3.49555781,13.0956332 3.49555781,13.0956332 C3.11142488,12.1479659 2.5577758,11.8956911 2.5577758,11.8956911 C1.79106514,11.387113 2.61583638,11.3971839 2.61583638,11.3971839 C3.46341713,11.4550913 3.90923942,12.242632 3.90923942,12.242632 C4.66247174,13.4959496 5.88589105,13.1339024 6.3669644,12.9239251 C6.44368731,12.3941983 6.66193287,12.0326547 6.90298795,11.8277128 C5.02794234,11.6207568 3.05647469,10.9168042 3.05647469,7.77369112 C3.05647469,6.87839233 3.38565743,6.1457378 3.92582816,5.57270629 C3.83873729,5.36524672 3.5489528,4.53087658 4.00877184,3.40193401 C4.00877184,3.40193401 4.71742192,3.18138234 6.33067654,4.2428502 C7.00407556,4.06056777 7.72672239,3.96993009 8.44470364,3.9664053 C9.16216649,3.96993009 9.88429493,4.06056777 10.5587307,4.2428502 C12.1709486,3.18138234 12.8785619,3.40193401 12.8785619,3.40193401 C13.3394177,4.53087658 13.0496332,5.36524672 12.9630607,5.57270629 C13.5042683,6.1457378 13.830859,6.87839233 13.830859,7.77369112 C13.830859,10.9248609 11.856281,11.6182391 9.97553298,11.8211668 C10.2782774,12.0744487 10.5483628,12.5749701 10.5483628,13.3403549 C10.5483628,14.4365672 10.5379948,15.3212916 10.5379948,15.5901834 C10.5379948,15.809728 10.6904038,16.0650241 11.1186006,15.9849608 C14.471599,14.8978123 16.8888889,11.8256987 16.8888889,8.20270944 C16.8888889,3.6723364 13.1076938,0 8.44366685,0" id="Fill-4" fill="#161514"></path>
                <g id="Group-6" transform="translate(23.000000, 1.000000)">
                    <path d="M3.19335938,14 L1.30371094,14 L1.30371094,3.43115234 L8.04199219,3.43115234 L8.04199219,5.02050781 L3.19335938,5.02050781 L3.19335938,8.14794922 L7.62451172,8.14794922 L7.62451172,9.68603516 L3.19335938,9.68603516 L3.19335938,14 Z M12.8342311,14.1611328 C10.4318873,14.1611328 8.98169203,12.59375 8.98169203,9.99365234 C8.98169203,7.41552734 10.45386,5.84082031 12.8342311,5.84082031 C15.2219264,5.84082031 16.6867702,7.40820312 16.6867702,9.99365234 C16.6867702,12.59375 15.2292506,14.1611328 12.8342311,14.1611328 Z M12.8342311,12.6743164 C14.1013209,12.6743164 14.8190944,11.6928711 14.8190944,10.0009766 C14.8190944,8.30908203 14.0939967,7.32763672 12.8342311,7.32763672 C11.5671413,7.32763672 10.8420436,8.30908203 10.8420436,10.0009766 C10.8420436,11.6928711 11.5671413,12.6743164 12.8342311,12.6743164 Z M18.029302,14 L18.029302,2.89648438 L19.8457083,2.89648438 L19.8457083,14 L18.029302,14 Z M21.6496659,14 L21.6496659,2.89648438 L23.4660722,2.89648438 L23.4660722,14 L21.6496659,14 Z M28.6538189,14.1611328 C26.2514752,14.1611328 24.8012798,12.59375 24.8012798,9.99365234 C24.8012798,7.41552734 26.2734478,5.84082031 28.6538189,5.84082031 C31.0415142,5.84082031 32.506358,7.40820312 32.506358,9.99365234 C32.506358,12.59375 31.0488384,14.1611328 28.6538189,14.1611328 Z M28.6538189,12.6743164 C29.9209087,12.6743164 30.6386822,11.6928711 30.6386822,10.0009766 C30.6386822,8.30908203 29.9135845,7.32763672 28.6538189,7.32763672 C27.3867291,7.32763672 26.6616314,8.30908203 26.6616314,10.0009766 C26.6616314,11.6928711 27.3867291,12.6743164 28.6538189,12.6743164 Z M44.1906867,5.99462891 L42.022718,14 L40.1110969,14 L38.5510383,8.19921875 L38.4265266,8.19921875 L36.8737922,14 L34.9841438,14 L32.816175,5.99462891 L34.6472297,5.99462891 L35.9802375,12.0078125 L36.1047492,12.0078125 L37.6428352,5.99462891 L39.378675,5.99462891 L40.9314094,12.0078125 L41.0559211,12.0078125 L42.3816047,5.99462891 L44.1906867,5.99462891 Z M48.6482114,14 L48.6482114,5.99462891 L50.3986997,5.99462891 L50.3986997,7.28369141 L50.5232114,7.28369141 C50.8674497,6.3828125 51.6877622,5.84082031 52.7497739,5.84082031 C53.8557309,5.84082031 54.6247739,6.39746094 54.961688,7.28369141 L55.0861997,7.28369141 C55.4817075,6.41210938 56.4045591,5.84082031 57.5178403,5.84082031 C59.1218442,5.84082031 60.0886411,6.82958984 60.0886411,8.4921875 L60.0886411,14 L58.2795591,14 L58.2795591,8.93896484 C58.2795591,7.89892578 57.7888364,7.37890625 56.8147153,7.37890625 C55.8698911,7.37890625 55.2473325,8.08203125 55.2473325,8.99755859 L55.2473325,14 L53.4821958,14 L53.4821958,8.80712891 C53.4821958,7.92089844 52.9255552,7.37890625 52.0320005,7.37890625 C51.1311216,7.37890625 50.4646177,8.13330078 50.4646177,9.12939453 L50.4646177,14 L48.6482114,14 Z M66.9023644,11.8100586 L68.6235558,11.8100586 C68.2939659,13.2529297 66.9536339,14.1611328 65.0639855,14.1611328 C62.705587,14.1611328 61.2846886,12.59375 61.2846886,10.0302734 C61.2846886,7.45947266 62.7275597,5.84082031 65.049337,5.84082031 C67.3344933,5.84082031 68.7041222,7.35693359 68.7041222,9.86914062 L68.7041222,10.4477539 L63.1084191,10.4477539 L63.1084191,10.5429688 C63.1523644,11.8979492 63.9214073,12.7475586 65.115255,12.7475586 C66.0161339,12.7475586 66.6386925,12.4106445 66.9023644,11.8100586 Z M65.0420128,7.25439453 C63.9580284,7.25439453 63.1963097,8.03808594 63.1157433,9.23925781 L66.8877159,9.23925781 C66.8510948,8.0234375 66.1333214,7.25439453 65.0420128,7.25439453 Z" id="Followme" fill="#000000" fill-rule="nonzero"></path>
                    <g id="Group-4" transform="translate(73.000000, 0.000000)" fill="#11110F">
                        <path d="M10.169811,5.99217707 L5.89402592,5.99217707 C5.78369493,5.99217707 5.69427173,6.0831571 5.69427173,6.19555264 L5.69427173,8.3224442 C5.69427173,8.43455229 5.78369493,8.52596349 5.89402592,8.52596349 L7.56198755,8.52596349 L7.56198755,11.1684085 C7.56198755,11.1684085 7.18748376,11.2983389 6.15198289,11.2983389 C4.93043091,11.2983389 3.22390288,10.8443012 3.22390288,7.02630228 C3.22390288,3.20758475 5.00092408,2.70511057 6.66916825,2.70511057 C8.11335998,2.70511057 8.73536685,2.9636778 9.13134351,3.08843398 C9.25580139,3.12709689 9.37079426,3.00119089 9.37079426,2.88879535 L9.84771799,0.833911669 C9.84771799,0.781307106 9.83020064,0.717922921 9.77143279,0.675091883 C9.61066881,0.558384494 8.629839,0 6.15198289,0 C3.29764523,0 0.369565217,1.23548857 0.369565217,7.17520481 C0.369565217,13.1149211 3.72187567,14 6.5468294,14 C8.8858182,14 10.3047228,12.9831222 10.3047228,12.9831222 C10.3632081,12.9502084 10.3695652,12.8671334 10.3695652,12.8290454 L10.3695652,6.19555264 C10.3695652,6.0831571 10.280142,5.99217707 10.169811,5.99217707" id="Fill-11"></path>
                        <path d="M32.3695652,1.20087583 C32.3695652,1.08970194 32.2754106,1 32.1574157,1 L29.5859698,1 C29.4685784,1 29.3730658,1.08970194 29.3730658,1.20087583 C29.3730658,1.20144088 29.3738203,5.85336912 29.3738203,5.85336912 L25.365461,5.85336912 L25.365461,1.20087583 C25.365461,1.08970194 25.2710047,1 25.1533115,1 L22.5820166,1 C22.4650778,1 22.3695652,1.08970194 22.3695652,1.20087583 L22.3695652,13.7984179 C22.3695652,13.9095918 22.4650778,14 22.5820166,14 L25.1533115,14 C25.2710047,14 25.365461,13.9095918 25.365461,13.7984179 L25.365461,8.41008617 L29.3738203,8.41008617 C29.3738203,8.41008617 29.3667285,13.7979941 29.3667285,13.7984179 C29.3667285,13.9095918 29.4620902,14 29.5797834,14 L32.1572648,14 C32.2751089,14 32.3692634,13.9095918 32.3695652,13.7984179 L32.3695652,1.20087583" id="Fill-13"></path>
                        <path d="M14.3695652,2.49959456 C14.3695652,1.67019551 13.6980905,1 12.869497,1 C12.0417225,1 11.3695652,1.67019551 11.3695652,2.49959456 C11.3695652,3.32804757 12.0417225,4 12.869497,4 C13.6980905,4 14.3695652,3.32804757 14.3695652,2.49959456" id="Fill-14"></path>
                        <path d="M14.3695652,11.1020203 C14.3695652,10.7744663 14.3695652,5.20361083 14.3695652,5.20361083 C14.3695652,5.0915604 14.2743199,5 14.156735,5 L11.5923577,5 C11.4747728,5 11.3695652,5.11520275 11.3695652,5.22725319 C11.3695652,5.22725319 11.3695652,12.3248316 11.3695652,13.6777475 C11.3695652,13.9260639 11.5325841,14 11.743452,14 C11.743452,14 12.8380935,14 14.0537916,14 C14.3073765,14 14.3695652,13.8817882 14.3695652,13.6737355 C14.3695652,13.2208053 14.3695652,11.446339 14.3695652,11.1020203" id="Fill-15"></path>
                        <path d="M42.1490205,5 L39.5169582,5 C39.3963356,5 39.2979699,5.08913653 39.2979699,5.19877865 L39.2979699,11.2984237 C39.2979699,11.2984237 38.6291761,11.7368527 37.6800711,11.7368527 C36.7311216,11.7368527 36.4792928,11.3508734 36.4792928,10.5180954 C36.4792928,9.68420155 36.4792928,5.19877865 36.4792928,5.19877865 C36.4792928,5.08913653 36.3812384,5 36.2603045,5 L33.5888648,5 C33.4683979,5 33.3695652,5.08913653 33.3695652,5.19877865 C33.3695652,5.19877865 33.3695652,8.44703111 33.3695652,10.920814 C33.3695652,13.3947364 34.907931,14 37.0241956,14 C38.760538,14 40.1603823,13.1402998 40.1603823,13.1402998 C40.1603823,13.1402998 40.2269971,13.5933756 40.2571917,13.6470807 C40.2872306,13.7006463 40.3658298,13.7547699 40.4508104,13.7547699 L42.1502656,13.7479347 C42.2707325,13.7479347 42.3695652,13.6586587 42.3695652,13.5494351 L42.3686314,5.19877865 C42.3686314,5.08913653 42.2704212,5 42.1490205,5" id="Fill-16"></path>
                        <path d="M47.7842711,11.75418 C46.9026224,11.7295052 46.3045863,11.3604926 46.3045863,11.3604926 L46.3045863,7.44566006 C46.3045863,7.44566006 46.8945064,7.11213478 47.618342,7.05252719 C48.5336573,6.97697803 49.4156065,7.23190446 49.4156065,9.24580934 C49.4156065,11.3693645 49.0176172,11.7885583 47.7842711,11.75418 Z M48.7867593,4.78910215 C47.3431462,4.78910215 46.3612487,5.38323736 46.3612487,5.38323736 L46.3612487,1.19712092 C46.3612487,1.08802517 46.2665609,1 46.1499296,1 L43.5811849,1 C43.4644033,1 43.3695652,1.08802517 43.3695652,1.19712092 L43.3695652,13.5591811 C43.3695652,13.6682768 43.4644033,13.7569951 43.5814855,13.7569951 C43.5817861,13.7569951 45.3631191,13.7569951 45.3637203,13.7569951 C45.4439795,13.7569951 45.5046999,13.718874 45.549639,13.652058 C45.593977,13.5856579 45.6578537,13.0820431 45.6578537,13.0820431 C45.6578537,13.0820431 46.7081367,14 48.6964302,14 C51.0308601,14 52.3695652,12.9079335 52.3695652,9.09762209 C52.3695652,5.28703348 50.2314246,4.78910215 48.7867593,4.78910215 L48.7867593,4.78910215 Z" id="Fill-17"></path>
                        <path d="M21.1463403,4.60109794 L19.4157715,4.60109794 C19.4157715,4.60109794 19.4131994,2.14020599 19.4131994,2.13976875 C19.4131994,2.04649242 19.3685274,2 19.268489,2 L16.9103454,2 C16.8185646,2 16.7694253,2.04343179 16.7694253,2.13831131 L16.7694253,4.68184026 C16.7694253,4.68184026 15.5876461,4.98906918 15.5076425,5.01384571 C15.4281804,5.03862223 15.3695652,5.11761562 15.3695652,5.21191216 L15.3695652,6.81028955 C15.3695652,6.92528177 15.4548483,7.01797513 15.5603014,7.01797513 L16.7694253,7.01797513 C16.7694253,7.01797513 16.7694253,8.68980762 16.7694253,10.8632919 C16.7694253,13.7194423 18.63022,14 19.8857758,14 C20.4596088,14 21.1459341,13.8016421 21.2592388,13.7566071 C21.3277359,13.7294986 21.3675347,13.6529829 21.3675347,13.5702002 L21.3695652,11.8119413 C21.3695652,11.6972406 21.2795442,11.6044015 21.1782876,11.6044015 C21.0773016,11.6044015 20.819422,11.648562 20.5538262,11.648562 C19.7037032,11.648562 19.4157715,11.2229887 19.4157715,10.6722211 C19.4157715,10.1218908 19.4156361,7.01797513 19.4156361,7.01797513 L21.1463403,7.01797513 C21.2517934,7.01797513 21.3372118,6.92528177 21.3372118,6.81028955 L21.3372118,4.80820054 C21.3372118,4.69349981 21.2517934,4.60109794 21.1463403,4.60109794" id="Fill-18"></path>
                    </g>
                </g>
            </g>
        </g>
    </g>
</svg>