<?xml version="1.0" encoding="UTF-8"?>
<svg width="129px" height="36px" viewBox="0 0 129 36" version="1.1" xmlns="http://www.w3.org/2000/svg" xmlns:xlink="http://www.w3.org/1999/xlink">
    <!-- Generator: Sketch 55 (78076) - https://sketchapp.com -->
    <title>Patron Button</title>
    <desc>Created with Sketch.</desc>
    <g id="Page-1" stroke="none" stroke-width="1" fill="none" fill-rule="evenodd">
        <g id="Become-a-sponsor" transform="translate(-49.000000, -31.000000)">
            <g id="Patron-Button" transform="translate(49.000000, 31.000000)">
                <rect id="Rectangle" fill="#1DA1F2" x="0" y="0" width="129" height="36" rx="18"></rect>
                <text id="Follow-me" font-family="SFProText-Semibold, SF Pro Text" font-size="15" font-weight="500" letter-spacing="-0.855882" fill="#FFFFFF">
                    <tspan x="47" y="23">Follow me</tspan>
                </text>
                <path d="M23.792768,27 C31.943744,27 36.401984,20.0743224 36.401984,14.068406 C36.401984,13.8716941 36.401984,13.6758682 36.389024,13.4809285 C37.2563343,12.8375483 38.0050111,12.0409258 38.6,11.1283602 C37.7911915,11.4959118 36.9331965,11.736952 36.054656,11.8434346 C36.9797788,11.2754352 37.6721707,10.3820705 38.002976,9.32959795 C37.1330641,9.85899699 36.1813582,10.232091 35.188928,10.4327797 C33.8152395,8.93475128 31.6324615,8.56810356 29.8645706,9.53843152 C28.0966796,10.5087595 27.1833416,12.5747473 27.636704,14.5779076 C24.0734779,14.3947081 20.7536271,12.6686706 18.50336,9.82935258 C17.3271301,11.9060322 17.9279255,14.5627196 19.875392,15.8964092 C19.1701444,15.8749725 18.4802734,15.6798605 17.864,15.3275396 C17.864,15.3461474 17.864,15.3656414 17.864,15.3851354 C17.8645773,17.5486059 19.3515933,19.4120015 21.41936,19.8403947 C20.7669273,20.0228761 20.0823896,20.0495512 19.418336,19.9183706 C19.998899,21.7697868 21.6626404,23.0381012 23.558624,23.0746224 C21.9893711,24.3394552 20.0508354,25.0260824 18.054944,25.0240198 C17.7023487,25.0233256 17.3500963,25.0014312 17,24.9584492 C19.0266295,26.2922593 21.3847252,26.9997492 23.792768,26.9964556" id="Path" fill="#FFFFFF" fill-rule="nonzero"></path>
            </g>
        </g>
    </g>
</svg>