<?xml version="1.0" encoding="UTF-8"?>
<svg width="112px" height="20px" viewBox="0 0 112 20" version="1.1" xmlns="http://www.w3.org/2000/svg" xmlns:xlink="http://www.w3.org/1999/xlink">
    <!-- Generator: Sketch 55 (78076) - https://sketchapp.com -->
    <title>Group 2</title>
    <desc>Created with Sketch.</desc>
    <g id="Page-1" stroke="none" stroke-width="1" fill="none" fill-rule="evenodd">
        <g id="twitter" transform="translate(-81.000000, -40.000000)" fill-rule="nonzero">
            <g id="Group-2" transform="translate(81.000000, 39.000000)">
                <path d="M7.54752,21 C16.60416,21 21.55776,13.3048027 21.55776,6.63156222 C21.55776,6.41299342 21.55776,6.19540915 21.54336,5.97880943 C22.5070381,5.26394259 23.3389013,4.3788064 24,3.36484463 C23.1013239,3.7732353 22.1479961,4.04105778 21.17184,4.15937179 C22.1997542,3.5282613 22.9690786,2.53563394 23.33664,1.36621995 C22.3700712,1.9544411 21.3126203,2.36899003 20.20992,2.59197745 C18.6835995,0.927501426 16.2582906,0.520115066 14.2939673,1.59825725 C12.329644,2.67639943 11.314824,4.97194143 11.81856,7.19767513 C7.85941991,6.99412016 4.17069675,5.07630069 1.6704,1.92150286 C0.363477846,4.22892464 1.03102837,7.18079953 3.19488,8.66267687 C2.41127155,8.63885833 1.6447482,8.42206725 0.96,8.03059951 C0.96,8.05127493 0.96,8.07293491 0.96,8.09459488 C0.960641408,10.498451 2.61288143,12.5688905 4.9104,13.044883 C4.18547481,13.2476401 3.42487736,13.2772791 2.68704,13.1315229 C3.33211001,15.188652 5.18071158,16.5978902 7.28736,16.6384693 C5.54374564,18.0438391 3.38981713,18.8067582 1.17216,18.8044665 C0.780387426,18.8036951 0.388995903,18.779368 0,18.7316102 C2.25181051,20.2136215 4.87191687,20.9997213 7.54752,20.9960618" id="Path" fill="#1DA1F2"></path>
                <path d="M39.503,12.121 C39.4689998,12.2343339 39.4378335,12.356166 39.4095,12.4865 C39.3811665,12.616834 39.367,12.7386661 39.367,12.852 C39.367,12.9653339 39.3896664,13.058833 39.435,13.1325 C39.4803336,13.206167 39.5539995,13.243 39.656,13.243 C39.8940012,13.243 40.1348321,13.1665008 40.3785,13.0135 C40.6221679,12.8604992 40.8374991,12.6451681 41.0245,12.3675 C41.2115009,12.0898319 41.3644994,11.7583353 41.4835,11.373 C41.6025006,10.9876647 41.662,10.5683356 41.662,10.115 C41.662,9.4349966 41.5430012,8.83716924 41.305,8.3215 C41.0669988,7.80583075 40.7411687,7.36950179 40.3275,7.0125 C39.9138313,6.65549821 39.4265028,6.38633424 38.8655,6.205 C38.3044972,6.02366576 37.7010032,5.933 37.055,5.933 C36.329663,5.933 35.669503,6.06049872 35.0745,6.3155 C34.479497,6.57050127 33.9723354,6.92183109 33.553,7.3695 C33.1336646,7.8171689 32.8106678,8.34983024 32.584,8.9675 C32.3573322,9.58516975 32.244,10.2509964 32.244,10.965 C32.244,11.7130037 32.3686654,12.3901636 32.618,12.9965 C32.8673346,13.6028364 33.2129978,14.1241645 33.655,14.5605 C34.0970022,14.9968355 34.6268302,15.3339988 35.2445,15.572 C35.8621698,15.8100012 36.533663,15.929 37.259,15.929 C37.9730036,15.929 38.6501635,15.8071679 39.2905,15.5635 C39.9308365,15.3198321 40.4719978,14.9770022 40.914,14.535 L42.342,14.535 C41.7639971,15.4190044 41.0216712,16.0961643 40.115,16.5665 C39.2083288,17.0368357 38.2223387,17.272 37.157,17.272 C36.2503288,17.272 35.4003373,17.1133349 34.607,16.796 C33.8136627,16.4786651 33.119503,16.0366695 32.5245,15.47 C31.929497,14.9033305 31.4620017,14.2318372 31.122,13.4555 C30.7819983,12.6791628 30.612,11.8376712 30.612,10.931 C30.612,10.0356622 30.7819983,9.19983721 31.122,8.4235 C31.4620017,7.64716278 31.9266637,6.9756695 32.516,6.409 C33.1053363,5.8423305 33.7909961,5.39466831 34.573,5.066 C35.3550039,4.73733169 36.1879956,4.573 37.072,4.573 C37.8426705,4.573 38.5849964,4.69766542 39.299,4.947 C40.0130036,5.19633458 40.6419973,5.54483109 41.186,5.9925 C41.7300027,6.44016891 42.1663317,6.98416346 42.495,7.6245 C42.8236683,8.26483654 42.988,8.97599609 42.988,9.758 C42.988,10.630671 42.8321682,11.3786635 42.5205,12.002 C42.2088318,12.6253364 41.8348355,13.1353313 41.3985,13.532 C40.9621645,13.9286686 40.5201689,14.2204991 40.0725,14.4075 C39.6248311,14.5945009 39.2650014,14.688 38.993,14.688 C38.6303315,14.688 38.3385011,14.5973342 38.1175,14.416 C37.8964989,14.2346658 37.7746668,14.0023347 37.752,13.719 L37.718,13.719 C37.513999,14.0590017 37.2476683,14.3083325 36.919,14.467 C36.5903317,14.6256675 36.2446685,14.705 35.882,14.705 C35.5193315,14.705 35.1765016,14.6285008 34.8535,14.4755 C34.5304984,14.3224992 34.2471679,14.1128347 34.0035,13.8465 C33.7598321,13.5801653 33.5671674,13.2713351 33.4255,12.92 C33.2838326,12.5686649 33.213,12.1946687 33.213,11.798 C33.213,11.2653307 33.3008325,10.7383359 33.4765,10.217 C33.6521675,9.69566406 33.9014984,9.23100204 34.2245,8.823 C34.5475016,8.41499796 34.9384977,8.08633458 35.3975,7.837 C35.8565023,7.58766542 36.3636639,7.463 36.919,7.463 C37.2816685,7.463 37.6556647,7.55083246 38.041,7.7265 C38.4263353,7.90216754 38.7153324,8.21099779 38.908,8.653 L39.18,7.735 L40.574,7.735 L39.503,12.121 Z M34.947,11.577 C34.947,12.0303356 35.0688321,12.3958319 35.3125,12.6735 C35.5561679,12.9511681 35.8763314,13.09 36.273,13.09 C36.5790015,13.09 36.8594987,13.0106675 37.1145,12.852 C37.3695013,12.6933325 37.5904991,12.4921679 37.7775,12.2485 C37.9645009,12.0048321 38.1089995,11.7300015 38.211,11.424 C38.3130005,11.1179985 38.364,10.8176681 38.364,10.523 C38.364,10.1036646 38.2365013,9.75800136 37.9815,9.486 C37.7264987,9.21399864 37.4176685,9.078 37.055,9.078 C36.7489985,9.078 36.465668,9.15449923 36.205,9.3075 C35.944332,9.46050076 35.7205009,9.65883211 35.5335,9.9025 C35.3464991,10.1461679 35.2020005,10.4153319 35.1,10.71 C34.9979995,11.0046681 34.947,11.2936653 34.947,11.577 Z M49.3757226,17 L46.6897226,17 L43.6807226,8.211 L46.2137226,8.211 L48.0667226,14.212 L48.1007226,14.212 L49.9537226,8.211 L52.3507226,8.211 L49.3757226,17 Z M53.2474452,10.914 C53.2814454,10.3473305 53.4231107,9.87700187 53.6724452,9.503 C53.9217798,9.12899813 54.23911,8.8286678 54.6244452,8.602 C55.0097805,8.3753322 55.4432762,8.21383381 55.9249452,8.1175 C56.4066143,8.02116618 56.8911095,7.973 57.3784452,7.973 C57.8204475,7.973 58.2681096,8.00416635 58.7214452,8.0665 C59.1747808,8.12883365 59.5884434,8.25066576 59.9624452,8.432 C60.3364471,8.61333424 60.6424441,8.86549839 60.8804452,9.1885 C61.1184464,9.51150161 61.2374452,9.93933067 61.2374452,10.472 L61.2374452,15.045 C61.2374452,15.4416687 61.2601117,15.8213315 61.3054452,16.184 C61.3507788,16.5466685 61.4301113,16.8186658 61.5434452,17 L59.0954452,17 C59.0501117,16.8639993 59.0132787,16.7251674 58.9849452,16.5835 C58.9566118,16.4418326 58.9367786,16.2973341 58.9254452,16.15 C58.54011,16.5466687 58.0867812,16.8243325 57.5654452,16.983 C57.0441093,17.1416675 56.511448,17.221 55.9674452,17.221 C55.5481098,17.221 55.1571137,17.1700005 54.7944452,17.068 C54.4317768,16.9659995 54.1144466,16.8073344 53.8424452,16.592 C53.5704439,16.3766656 53.357946,16.1046683 53.2049452,15.776 C53.0519445,15.4473317 52.9754452,15.0563356 52.9754452,14.603 C52.9754452,14.1043308 53.0632777,13.6935016 53.2389452,13.3705 C53.4146128,13.0474984 53.6412772,12.7896676 53.9189452,12.597 C54.1966133,12.4043324 54.5139435,12.2598338 54.8709452,12.1635 C55.227947,12.0671662 55.5877768,11.9906669 55.9504452,11.934 C56.3131137,11.877333 56.6701102,11.8320002 57.0214452,11.798 C57.3727803,11.7639998 57.6844439,11.7130003 57.9564452,11.645 C58.2284466,11.5769997 58.4437778,11.477834 58.6024452,11.3475 C58.7611127,11.217166 58.8347786,11.0273346 58.8234452,10.778 C58.8234452,10.517332 58.7809457,10.3105008 58.6959452,10.1575 C58.6109448,10.0044992 58.4976126,9.88550043 58.3559452,9.8005 C58.2142779,9.71549957 58.0499462,9.65883347 57.8629452,9.6305 C57.6759443,9.60216652 57.4747797,9.588 57.2594452,9.588 C56.7834429,9.588 56.4094466,9.68999898 56.1374452,9.894 C55.8654439,10.098001 55.7067788,10.4379976 55.6614452,10.914 L53.2474452,10.914 Z M58.8234452,12.699 C58.7214447,12.7896671 58.593946,12.8604997 58.4409452,12.9115 C58.2879445,12.9625003 58.1236128,13.0049998 57.9479452,13.039 C57.7722777,13.0730002 57.5881129,13.1013332 57.3954452,13.124 C57.2027776,13.1466668 57.0101129,13.1749998 56.8174452,13.209 C56.636111,13.2430002 56.4576128,13.2883331 56.2819452,13.345 C56.1062777,13.401667 55.9532792,13.4781662 55.8229452,13.5745 C55.6926113,13.6708338 55.587779,13.7926659 55.5084452,13.94 C55.4291115,14.0873341 55.3894452,14.2743322 55.3894452,14.501 C55.3894452,14.7163344 55.4291115,14.8976659 55.5084452,15.045 C55.587779,15.1923341 55.6954446,15.3084996 55.8314452,15.3935 C55.9674459,15.4785004 56.126111,15.5379998 56.3074452,15.572 C56.4887795,15.6060002 56.6757776,15.623 56.8684452,15.623 C57.3444476,15.623 57.7127773,15.5436675 57.9734452,15.385 C58.2341132,15.2263325 58.426778,15.0365011 58.5514452,14.8155 C58.6761125,14.5944989 58.7526118,14.3706678 58.7809452,14.144 C58.8092787,13.9173322 58.8234452,13.7360007 58.8234452,13.6 L58.8234452,12.699 Z M63.1031679,8.211 L65.3981679,8.211 L65.3981679,9.843 L65.4321679,9.843 C65.5455018,9.57099864 65.6985002,9.31883449 65.8911679,9.0865 C66.0838355,8.8541655 66.3048333,8.65583416 66.5541679,8.4915 C66.8035025,8.32716584 67.0698331,8.19966712 67.3531679,8.109 C67.6365026,8.01833288 67.9311663,7.973 68.2371679,7.973 C68.3958353,7.973 68.5715002,8.00133305 68.7641679,8.058 L68.7641679,10.302 C68.650834,10.2793332 68.5148353,10.2595001 68.3561679,10.2425 C68.1975004,10.2254999 68.0445019,10.217 67.8971679,10.217 C67.4551657,10.217 67.0811694,10.2906659 66.7751679,10.438 C66.4691663,10.5853341 66.2226688,10.7864987 66.0356679,11.0415 C65.8486669,11.2965013 65.7155016,11.5939983 65.6361679,11.934 C65.5568341,12.2740017 65.5171679,12.6423313 65.5171679,13.039 L65.5171679,17 L63.1031679,17 L63.1031679,8.211 Z M69.6098905,10.914 C69.6438907,10.3473305 69.7855559,9.87700187 70.0348905,9.503 C70.2842251,9.12899813 70.6015552,8.8286678 70.9868905,8.602 C71.3722258,8.3753322 71.8057214,8.21383381 72.2873905,8.1175 C72.7690596,8.02116618 73.2535547,7.973 73.7408905,7.973 C74.1828927,7.973 74.6305549,8.00416635 75.0838905,8.0665 C75.5372261,8.12883365 75.9508886,8.25066576 76.3248905,8.432 C76.6988924,8.61333424 77.0048893,8.86549839 77.2428905,9.1885 C77.4808917,9.51150161 77.5998905,9.93933067 77.5998905,10.472 L77.5998905,15.045 C77.5998905,15.4416687 77.6225569,15.8213315 77.6678905,16.184 C77.7132241,16.5466685 77.7925566,16.8186658 77.9058905,17 L75.4578905,17 C75.4125569,16.8639993 75.375724,16.7251674 75.3473905,16.5835 C75.319057,16.4418326 75.2992239,16.2973341 75.2878905,16.15 C74.9025552,16.5466687 74.4492264,16.8243325 73.9278905,16.983 C73.4065546,17.1416675 72.8738932,17.221 72.3298905,17.221 C71.9105551,17.221 71.519559,17.1700005 71.1568905,17.068 C70.794222,16.9659995 70.4768919,16.8073344 70.2048905,16.592 C69.9328891,16.3766656 69.7203913,16.1046683 69.5673905,15.776 C69.4143897,15.4473317 69.3378905,15.0563356 69.3378905,14.603 C69.3378905,14.1043308 69.425723,13.6935016 69.6013905,13.3705 C69.777058,13.0474984 70.0037224,12.7896676 70.2813905,12.597 C70.5590586,12.4043324 70.8763887,12.2598338 71.2333905,12.1635 C71.5903923,12.0671662 71.950222,11.9906669 72.3128905,11.934 C72.675559,11.877333 73.0325554,11.8320002 73.3838905,11.798 C73.7352256,11.7639998 74.0468891,11.7130003 74.3188905,11.645 C74.5908919,11.5769997 74.806223,11.477834 74.9648905,11.3475 C75.123558,11.217166 75.1972239,11.0273346 75.1858905,10.778 C75.1858905,10.517332 75.1433909,10.3105008 75.0583905,10.1575 C74.9733901,10.0044992 74.8600579,9.88550043 74.7183905,9.8005 C74.5767231,9.71549957 74.4123914,9.65883347 74.2253905,9.6305 C74.0383896,9.60216652 73.8372249,9.588 73.6218905,9.588 C73.1458881,9.588 72.7718919,9.68999898 72.4998905,9.894 C72.2278891,10.098001 72.0692241,10.4379976 72.0238905,10.914 L69.6098905,10.914 Z M75.1858905,12.699 C75.08389,12.7896671 74.9563913,12.8604997 74.8033905,12.9115 C74.6503897,12.9625003 74.486058,13.0049998 74.3103905,13.039 C74.134723,13.0730002 73.9505581,13.1013332 73.7578905,13.124 C73.5652229,13.1466668 73.3725581,13.1749998 73.1798905,13.209 C72.9985563,13.2430002 72.820058,13.2883331 72.6443905,13.345 C72.468723,13.401667 72.3157245,13.4781662 72.1853905,13.5745 C72.0550565,13.6708338 71.9502242,13.7926659 71.8708905,13.94 C71.7915568,14.0873341 71.7518905,14.2743322 71.7518905,14.501 C71.7518905,14.7163344 71.7915568,14.8976659 71.8708905,15.045 C71.9502242,15.1923341 72.0578898,15.3084996 72.1938905,15.3935 C72.3298912,15.4785004 72.4885563,15.5379998 72.6698905,15.572 C72.8512247,15.6060002 73.0382229,15.623 73.2308905,15.623 C73.7068929,15.623 74.0752225,15.5436675 74.3358905,15.385 C74.5965585,15.2263325 74.7892232,15.0365011 74.9138905,14.8155 C75.0385578,14.5944989 75.115057,14.3706678 75.1433905,14.144 C75.171724,13.9173322 75.1858905,13.7360007 75.1858905,13.6 L75.1858905,12.699 Z M85.9086131,12.614 C85.9086131,12.2399981 85.8689469,11.8830017 85.7896131,11.543 C85.7102794,11.2029983 85.585614,10.902668 85.4156131,10.642 C85.2456123,10.381332 85.0331144,10.1745008 84.7781131,10.0215 C84.5231118,9.86849923 84.2142816,9.792 83.8516131,9.792 C83.500278,9.792 83.1942811,9.86849923 82.9336131,10.0215 C82.6729452,10.1745008 82.457614,10.381332 82.2876131,10.642 C82.1176123,10.902668 81.9929469,11.2029983 81.9136131,11.543 C81.8342794,11.8830017 81.7946131,12.2399981 81.7946131,12.614 C81.7946131,12.9766685 81.8342794,13.3279983 81.9136131,13.668 C81.9929469,14.0080017 82.1176123,14.308332 82.2876131,14.569 C82.457614,14.829668 82.6729452,15.0364992 82.9336131,15.1895 C83.1942811,15.3425008 83.500278,15.419 83.8516131,15.419 C84.2142816,15.419 84.5231118,15.3425008 84.7781131,15.1895 C85.0331144,15.0364992 85.2456123,14.829668 85.4156131,14.569 C85.585614,14.308332 85.7102794,14.0080017 85.7896131,13.668 C85.8689469,13.3279983 85.9086131,12.9766685 85.9086131,12.614 Z M79.4656131,4.862 L81.8796131,4.862 L81.8796131,9.282 L81.9136131,9.282 C82.2082813,8.8286644 82.6077773,8.49716771 83.1121131,8.2875 C83.616449,8.07783228 84.1406104,7.973 84.6846131,7.973 C85.1266153,7.973 85.5629443,8.06366576 85.9936131,8.245 C86.4242819,8.42633424 86.8124447,8.70399813 87.1581131,9.078 C87.5037815,9.45200187 87.7842787,9.93083041 87.9996131,10.5145 C88.2149475,11.0981696 88.3226131,11.7923293 88.3226131,12.597 C88.3226131,13.4016707 88.2149475,14.0958304 87.9996131,14.6795 C87.7842787,15.2631696 87.5037815,15.7419981 87.1581131,16.116 C86.8124447,16.4900019 86.4242819,16.7676658 85.9936131,16.949 C85.5629443,17.1303342 85.1266153,17.221 84.6846131,17.221 C84.0386099,17.221 83.4606157,17.119001 82.9506131,16.915 C82.4406106,16.710999 82.0552811,16.3653358 81.7946131,15.878 L81.7606131,15.878 L81.7606131,17 L79.4656131,17 L79.4656131,4.862 Z M95.7643357,11.662 C95.6510018,11.0499969 95.4498372,10.5853349 95.1608357,10.268 C94.8718343,9.95066508 94.432672,9.792 93.8433357,9.792 C93.4580005,9.792 93.137837,9.85716602 92.8828357,9.9875 C92.6278345,10.117834 92.4238365,10.2793324 92.2708357,10.472 C92.117835,10.6646676 92.0101694,10.8686656 91.9478357,11.084 C91.8855021,11.2993344 91.8486691,11.4919991 91.8373357,11.662 L95.7643357,11.662 Z M91.8373357,13.192 C91.8713359,13.9740039 92.0696673,14.5406649 92.4323357,14.892 C92.7950042,15.2433351 93.3163323,15.419 93.9963357,15.419 C94.4836715,15.419 94.9030007,15.2971679 95.2543357,15.0535 C95.6056708,14.8098321 95.821002,14.5520014 95.9003357,14.28 L98.0253357,14.28 C97.685334,15.3340053 97.1640059,16.0876644 96.4613357,16.541 C95.7586656,16.9943356 94.9086741,17.221 93.9113357,17.221 C93.219999,17.221 92.5966719,17.1105011 92.0413357,16.8895 C91.4859996,16.6684989 91.015671,16.354002 90.6303357,15.946 C90.2450005,15.537998 89.9475035,15.0506695 89.7378357,14.484 C89.528168,13.9173305 89.4233357,13.2940034 89.4233357,12.614 C89.4233357,11.9566634 89.5310013,11.3446695 89.7463357,10.778 C89.9616702,10.2113305 90.2676671,9.72116873 90.6643357,9.3075 C91.0610044,8.89383126 91.5341663,8.56800119 92.0838357,8.33 C92.6335052,8.09199881 93.2426657,7.973 93.9113357,7.973 C94.6593395,7.973 95.3109996,8.11749855 95.8663357,8.4065 C96.4216719,8.69550144 96.877834,9.08366423 97.2348357,9.571 C97.5918375,10.0583358 97.8496683,10.6136636 98.0083357,11.237 C98.1670032,11.8603365 98.2236693,12.5119966 98.1783357,13.192 L91.8373357,13.192 Z M102.084058,6.851 L99.6700584,6.851 L99.6700584,4.862 L102.084058,4.862 L102.084058,6.851 Z M99.6700584,8.211 L102.084058,8.211 L102.084058,17 L99.6700584,17 L99.6700584,8.211 Z M105.853781,14.144 C105.853781,14.404668 105.907614,14.6284991 106.015281,14.8155 C106.122948,15.0025009 106.26178,15.1554994 106.431781,15.2745 C106.601782,15.3935006 106.79728,15.481333 107.018281,15.538 C107.239282,15.594667 107.46878,15.623 107.706781,15.623 C107.876782,15.623 108.05528,15.6031669 108.242281,15.5635 C108.429282,15.5238331 108.59928,15.4615004 108.752281,15.3765 C108.905282,15.2914996 109.03278,15.1781674 109.134781,15.0365 C109.236782,14.8948326 109.287781,14.7163344 109.287781,14.501 C109.287781,14.1383315 109.04695,13.8663342 108.565281,13.685 C108.083612,13.5036658 107.412119,13.3223342 106.550781,13.141 C106.199446,13.0616663 105.856616,12.9681672 105.522281,12.8605 C105.187946,12.7528328 104.890449,12.6111675 104.629781,12.4355 C104.369113,12.2598325 104.159448,12.0388347 104.000781,11.7725 C103.842114,11.5061653 103.762781,11.1803353 103.762781,10.795 C103.762781,10.2283305 103.87328,9.76366848 104.094281,9.401 C104.315282,9.03833152 104.607113,8.75216771 104.969781,8.5425 C105.332449,8.33283228 105.740445,8.18550042 106.193781,8.1005 C106.647117,8.01549957 107.111779,7.973 107.587781,7.973 C108.063783,7.973 108.525612,8.01833288 108.973281,8.109 C109.42095,8.19966712 109.820446,8.35266559 110.171781,8.568 C110.523116,8.78333441 110.814947,9.06949821 111.047281,9.4265 C111.279615,9.78350179 111.418447,10.2339973 111.463781,10.778 L109.168781,10.778 C109.134781,10.313331 108.959116,9.99883415 108.641781,9.8345 C108.324446,9.67016584 107.95045,9.588 107.519781,9.588 C107.38378,9.588 107.236448,9.59649991 107.077781,9.6135 C106.919114,9.63050008 106.774615,9.66733305 106.644281,9.724 C106.513947,9.78066695 106.403448,9.86283279 106.312781,9.9705 C106.222114,10.0781672 106.176781,10.2226658 106.176781,10.404 C106.176781,10.6193344 106.256114,10.7949993 106.414781,10.931 C106.573448,11.0670007 106.78028,11.1774996 107.035281,11.2625 C107.290282,11.3475004 107.582113,11.4239997 107.910781,11.492 C108.239449,11.5600003 108.573779,11.6336663 108.913781,11.713 C109.265116,11.7923337 109.607946,11.8886661 109.942281,12.002 C110.276616,12.1153339 110.574113,12.2654991 110.834781,12.4525 C111.095449,12.6395009 111.305114,12.8718319 111.463781,13.1495 C111.622448,13.4271681 111.701781,13.769998 111.701781,14.178 C111.701781,14.7560029 111.585615,15.240498 111.353281,15.6315 C111.120947,16.022502 110.817783,16.3369988 110.443781,16.575 C110.069779,16.8130012 109.64195,16.9801662 109.160281,17.0765 C108.678612,17.1728338 108.18845,17.221 107.689781,17.221 C107.179778,17.221 106.681117,17.1700005 106.193781,17.068 C105.706445,16.9659995 105.27295,16.7960012 104.893281,16.558 C104.513612,16.3199988 104.201949,16.005502 103.958281,15.6145 C103.714613,15.223498 103.581448,14.7333363 103.558781,14.144 L105.853781,14.144 Z" id="@varabeis" fill="#131515"></path>
            </g>
        </g>
    </g>
</svg>