<?xml version="1.0" encoding="UTF-8"?>
<svg width="129px" height="36px" viewBox="0 0 129 36" version="1.1" xmlns="http://www.w3.org/2000/svg" xmlns:xlink="http://www.w3.org/1999/xlink">
    <!-- Generator: Sketch 55 (78076) - https://sketchapp.com -->
    <title>Patron Button</title>
    <desc>Created with Sketch.</desc>
    <g id="Page-1" stroke="none" stroke-width="1" fill="none" fill-rule="evenodd">
        <g id="Become-a-sponsor" transform="translate(-49.000000, -31.000000)">
            <g id="Patron-Button" transform="translate(49.000000, 31.000000)">
                <rect id="Rectangle" fill="#1DA1F2" x="0" y="0" width="129" height="36" rx="18"></rect>
                <path d="M50.1933594,23 L48.3037109,23 L48.3037109,12.4311523 L55.0419922,12.4311523 L55.0419922,14.0205078 L50.1933594,14.0205078 L50.1933594,17.1479492 L54.6245117,17.1479492 L54.6245117,18.6860352 L50.1933594,18.6860352 L50.1933594,23 Z M59.5401141,23.1611328 C57.1377703,23.1611328 55.687575,21.59375 55.687575,18.9936523 C55.687575,16.4155273 57.159743,14.8408203 59.5401141,14.8408203 C61.9278094,14.8408203 63.3926532,16.4082031 63.3926532,18.9936523 C63.3926532,21.59375 61.9351336,23.1611328 59.5401141,23.1611328 Z M59.5401141,21.6743164 C60.8072039,21.6743164 61.5249774,20.6928711 61.5249774,19.0009766 C61.5249774,17.309082 60.7998797,16.3276367 59.5401141,16.3276367 C58.2730242,16.3276367 57.5479266,17.309082 57.5479266,19.0009766 C57.5479266,20.6928711 58.2730242,21.6743164 59.5401141,21.6743164 Z M64.441068,23 L64.441068,11.8964844 L66.2574743,11.8964844 L66.2574743,23 L64.441068,23 Z M67.7673149,23 L67.7673149,11.8964844 L69.5837212,11.8964844 L69.5837212,23 L67.7673149,23 Z M74.4773509,23.1611328 C72.0750072,23.1611328 70.6248118,21.59375 70.6248118,18.9936523 C70.6248118,16.4155273 72.0969798,14.8408203 74.4773509,14.8408203 C76.8650462,14.8408203 78.32989,16.4082031 78.32989,18.9936523 C78.32989,21.59375 76.8723704,23.1611328 74.4773509,23.1611328 Z M74.4773509,21.6743164 C75.7444407,21.6743164 76.4622142,20.6928711 76.4622142,19.0009766 C76.4622142,17.309082 75.7371165,16.3276367 74.4773509,16.3276367 C73.2102611,16.3276367 72.4851634,17.309082 72.4851634,19.0009766 C72.4851634,20.6928711 73.2102611,21.6743164 74.4773509,21.6743164 Z M89.7201017,14.9946289 L87.552133,23 L85.6405119,23 L84.0804533,17.1992188 L83.9559416,17.1992188 L82.4032072,23 L80.5135588,23 L78.34559,14.9946289 L80.1766447,14.9946289 L81.5096525,21.0078125 L81.6341642,21.0078125 L83.1722502,14.9946289 L84.90809,14.9946289 L86.4608244,21.0078125 L86.5853361,21.0078125 L87.9110197,14.9946289 L89.7201017,14.9946289 Z M93.5893924,23 L93.5893924,14.9946289 L95.3398807,14.9946289 L95.3398807,16.2836914 L95.4643924,16.2836914 C95.8086307,15.3828125 96.6289432,14.8408203 97.6909549,14.8408203 C98.7969119,14.8408203 99.5659549,15.3974609 99.902869,16.2836914 L100.027381,16.2836914 C100.422888,15.4121094 101.34574,14.8408203 102.459021,14.8408203 C104.063025,14.8408203 105.029822,15.8295898 105.029822,17.4921875 L105.029822,23 L103.22074,23 L103.22074,17.9389648 C103.22074,16.8989258 102.730017,16.3789062 101.755896,16.3789062 C100.811072,16.3789062 100.188513,17.0820312 100.188513,17.9975586 L100.188513,23 L98.4233768,23 L98.4233768,17.8071289 C98.4233768,16.9208984 97.8667362,16.3789062 96.9731815,16.3789062 C96.0723026,16.3789062 95.4057987,17.1333008 95.4057987,18.1293945 L95.4057987,23 L93.5893924,23 Z M111.549428,20.8100586 L113.27062,20.8100586 C112.94103,22.2529297 111.600698,23.1611328 109.711049,23.1611328 C107.352651,23.1611328 105.931753,21.59375 105.931753,19.0302734 C105.931753,16.4594727 107.374624,14.8408203 109.696401,14.8408203 C111.981557,14.8408203 113.351186,16.3569336 113.351186,18.8691406 L113.351186,19.4477539 L107.755483,19.4477539 L107.755483,19.5429688 C107.799428,20.8979492 108.568471,21.7475586 109.762319,21.7475586 C110.663198,21.7475586 111.285756,21.4106445 111.549428,20.8100586 Z M109.689077,16.2543945 C108.605092,16.2543945 107.843374,17.0380859 107.762807,18.2392578 L111.53478,18.2392578 C111.498159,17.0234375 110.780385,16.2543945 109.689077,16.2543945 Z" id="Followme" fill="#FFFFFF" fill-rule="nonzero"></path>
                <path d="M23.792768,27 C31.943744,27 36.401984,20.0743224 36.401984,14.068406 C36.401984,13.8716941 36.401984,13.6758682 36.389024,13.4809285 C37.2563343,12.8375483 38.0050111,12.0409258 38.6,11.1283602 C37.7911915,11.4959118 36.9331965,11.736952 36.054656,11.8434346 C36.9797788,11.2754352 37.6721707,10.3820705 38.002976,9.32959795 C37.1330641,9.85899699 36.1813582,10.232091 35.188928,10.4327797 C33.8152395,8.93475128 31.6324615,8.56810356 29.8645706,9.53843152 C28.0966796,10.5087595 27.1833416,12.5747473 27.636704,14.5779076 C24.0734779,14.3947081 20.7536271,12.6686706 18.50336,9.82935258 C17.3271301,11.9060322 17.9279255,14.5627196 19.875392,15.8964092 C19.1701444,15.8749725 18.4802734,15.6798605 17.864,15.3275396 C17.864,15.3461474 17.864,15.3656414 17.864,15.3851354 C17.8645773,17.5486059 19.3515933,19.4120015 21.41936,19.8403947 C20.7669273,20.0228761 20.0823896,20.0495512 19.418336,19.9183706 C19.998899,21.7697868 21.6626404,23.0381012 23.558624,23.0746224 C21.9893711,24.3394552 20.0508354,25.0260824 18.054944,25.0240198 C17.7023487,25.0233256 17.3500963,25.0014312 17,24.9584492 C19.0266295,26.2922593 21.3847252,26.9997492 23.792768,26.9964556" id="Path" fill="#FFFFFF" fill-rule="nonzero"></path>
            </g>
        </g>
    </g>
</svg>