<?xml version="1.0" encoding="UTF-8"?>
<svg width="179px" height="36px" viewBox="0 0 179 36" version="1.1" xmlns="http://www.w3.org/2000/svg" xmlns:xlink="http://www.w3.org/1999/xlink">
    <!-- Generator: Sketch 55 (78076) - https://sketchapp.com -->
    <title>Patron Button</title>
    <desc>Created with Sketch.</desc>
    <g id="Page-1" stroke="none" stroke-width="1" fill="none" fill-rule="evenodd">
        <g id="Become-a-sponsor" transform="translate(-49.000000, -31.000000)">
            <g id="Patron-Button" transform="translate(49.000000, 31.000000)">
                <rect id="Rectangle" fill="#007AFF" x="0" y="0" width="179" height="36" rx="18"></rect>
                <path d="M52.2260742,20.2314453 L52.1015625,20.2314453 L50.4682617,23.0146484 L48.5053711,23.0146484 L51.0981445,19.0449219 L48.4833984,15.0092773 L50.5927734,15.0092773 L52.1821289,17.7851562 L52.3066406,17.7851562 L53.8886719,15.0092773 L55.8881836,15.0092773 L53.3027344,18.9643555 L55.9174805,23.0146484 L53.8666992,23.0146484 L52.2260742,20.2314453 Z M63.1695086,17.6679688 L61.440993,17.6679688 C61.272536,16.8916016 60.67195,16.3276367 59.6758563,16.3276367 C58.4307391,16.3276367 57.690993,17.309082 57.690993,18.9790039 C57.690993,20.6782227 58.4380633,21.6669922 59.6758563,21.6669922 C60.6206805,21.6669922 61.2505633,21.2202148 61.440993,20.3779297 L63.1695086,20.3779297 C62.9717547,22.0332031 61.7119891,23.1611328 59.6831805,23.1611328 C57.2735125,23.1611328 55.8526141,21.6010742 55.8526141,18.9790039 C55.8526141,16.3862305 57.2661883,14.8408203 59.6758563,14.8408203 C61.7339618,14.8408203 62.9790789,16.0126953 63.1695086,17.6679688 Z M67.5064977,23.1611328 C65.104154,23.1611328 63.6539587,21.59375 63.6539587,18.9936523 C63.6539587,16.4155273 65.1261266,14.8408203 67.5064977,14.8408203 C69.894193,14.8408203 71.3590368,16.4082031 71.3590368,18.9936523 C71.3590368,21.59375 69.9015173,23.1611328 67.5064977,23.1611328 Z M67.5064977,21.6743164 C68.7735876,21.6743164 69.491361,20.6928711 69.491361,19.0009766 C69.491361,17.309082 68.7662633,16.3276367 67.5064977,16.3276367 C66.2394079,16.3276367 65.5143102,17.309082 65.5143102,19.0009766 C65.5143102,20.6928711 66.2394079,21.6743164 67.5064977,21.6743164 Z M75.2346001,23.1318359 C73.2057915,23.1318359 71.9387017,21.5351562 71.9387017,18.9936523 C71.9387017,16.4594727 73.2131157,14.862793 75.2346001,14.862793 C76.3332329,14.862793 77.241436,15.3901367 77.6662407,16.269043 L77.7907524,16.269043 L77.7907524,11.8964844 L79.6071587,11.8964844 L79.6071587,23 L77.8493462,23 L77.8493462,21.7329102 L77.7248345,21.7329102 C77.2707329,22.6118164 76.3478813,23.1318359 75.2346001,23.1318359 Z M75.7985649,16.3789062 C74.560772,16.3789062 73.7990532,17.3676758 73.7990532,19.0009766 C73.7990532,20.6416016 74.5534478,21.6230469 75.7985649,21.6230469 C77.0510063,21.6230469 77.8127251,20.6269531 77.8127251,19.0009766 C77.8127251,17.3823242 77.0436821,16.3789062 75.7985649,16.3789062 Z M86.2659251,20.8100586 L87.9871165,20.8100586 C87.6575267,22.2529297 86.3171947,23.1611328 84.4275462,23.1611328 C82.0691478,23.1611328 80.6482493,21.59375 80.6482493,19.0302734 C80.6482493,16.4594727 82.0911204,14.8408203 84.4128978,14.8408203 C86.698054,14.8408203 88.0676829,16.3569336 88.0676829,18.8691406 L88.0676829,19.4477539 L82.4719798,19.4477539 L82.4719798,19.5429688 C82.5159251,20.8979492 83.2849681,21.7475586 84.4788158,21.7475586 C85.3796947,21.7475586 86.0022533,21.4106445 86.2659251,20.8100586 Z M84.4055736,16.2543945 C83.3215892,16.2543945 82.5598704,17.0380859 82.479304,18.2392578 L86.2512767,18.2392578 C86.2146556,17.0234375 85.4968822,16.2543945 84.4055736,16.2543945 Z M93.9281095,19.5722656 L89.1160978,19.5722656 L89.1160978,17.909668 L93.9281095,17.909668 L93.9281095,19.5722656 Z M95.196251,17.2797852 C95.196251,15.8442383 96.5146103,14.8408203 98.4042588,14.8408203 C100.308556,14.8408203 101.502403,15.6757812 101.634239,17.1186523 L99.9276963,17.1186523 C99.7958603,16.5546875 99.2611924,16.1884766 98.411583,16.1884766 C97.5839463,16.1884766 96.9613877,16.5913086 96.9613877,17.1845703 C96.9613877,17.6386719 97.3422471,17.9243164 98.1479111,18.1147461 L99.5614853,18.4296875 C101.092247,18.78125 101.802696,19.4331055 101.802696,20.6123047 C101.802696,22.1430664 100.389122,23.1611328 98.3896103,23.1611328 C96.3900986,23.1611328 95.130333,22.296875 94.9911728,20.8540039 L96.7856064,20.8540039 C96.9613877,21.4472656 97.5253525,21.8134766 98.4335557,21.8134766 C99.349083,21.8134766 99.98629,21.3959961 99.98629,20.7880859 C99.98629,20.3339844 99.6420518,20.0410156 98.880333,19.8652344 L97.4594346,19.5356445 C95.9213486,19.184082 95.196251,18.480957 95.196251,17.2797852 Z M102.858435,23 L102.858435,11.8964844 L104.645545,11.8964844 L104.645545,16.2910156 L104.777381,16.2910156 C105.15824,15.3901367 106.015174,14.8481445 107.209021,14.8481445 C108.922889,14.8481445 109.962928,15.9321289 109.962928,17.8364258 L109.962928,23 L108.146521,23 L108.146521,18.2612305 C108.146521,17.0234375 107.589881,16.3935547 106.535193,16.3935547 C105.341346,16.3935547 104.674842,17.1772461 104.674842,18.3491211 L104.674842,23 L102.858435,23 Z M114.717397,23.1611328 C112.315053,23.1611328 110.864858,21.59375 110.864858,18.9936523 C110.864858,16.4155273 112.337026,14.8408203 114.717397,14.8408203 C117.105092,14.8408203 118.569936,16.4082031 118.569936,18.9936523 C118.569936,21.59375 117.112417,23.1611328 114.717397,23.1611328 Z M114.717397,21.6743164 C115.984487,21.6743164 116.70226,20.6928711 116.70226,19.0009766 C116.70226,17.309082 115.977163,16.3276367 114.717397,16.3276367 C113.450307,16.3276367 112.72521,17.309082 112.72521,19.0009766 C112.72521,20.6928711 113.450307,21.6743164 114.717397,21.6743164 Z M123.910343,14.862793 C125.939152,14.862793 127.213566,16.4375 127.213566,19.0009766 C127.213566,21.5424805 125.9538,23.1318359 123.932316,23.1318359 C122.782414,23.1318359 121.896183,22.6337891 121.486027,21.7841797 L121.361515,21.7841797 L121.361515,25.6586914 L119.545109,25.6586914 L119.545109,14.9946289 L121.295597,14.9946289 L121.295597,16.3203125 L121.420109,16.3203125 C121.881535,15.4121094 122.81171,14.862793 123.910343,14.862793 Z M123.339054,21.6230469 C124.59882,21.6230469 125.34589,20.6416016 125.34589,19.0009766 C125.34589,17.3603516 124.591496,16.3789062 123.346378,16.3789062 C122.108585,16.3789062 121.332218,17.3823242 121.324894,19.0009766 C121.332218,20.6196289 122.101261,21.6230469 123.339054,21.6230469 Z M129.345965,23.1464844 C128.657489,23.1464844 128.17409,22.6557617 128.17409,22.0039062 C128.17409,21.359375 128.657489,20.8686523 129.345965,20.8686523 C130.041766,20.8686523 130.51784,21.359375 130.51784,22.0039062 C130.51784,22.6557617 130.041766,23.1464844 129.345965,23.1464844 Z M138.700044,17.6679688 L136.971528,17.6679688 C136.803071,16.8916016 136.202486,16.3276367 135.206392,16.3276367 C133.961275,16.3276367 133.221528,17.309082 133.221528,18.9790039 C133.221528,20.6782227 133.968599,21.6669922 135.206392,21.6669922 C136.151216,21.6669922 136.781099,21.2202148 136.971528,20.3779297 L138.700044,20.3779297 C138.50229,22.0332031 137.242525,23.1611328 135.213716,23.1611328 C132.804048,23.1611328 131.38315,21.6010742 131.38315,18.9790039 C131.38315,16.3862305 132.796724,14.8408203 135.206392,14.8408203 C137.264497,14.8408203 138.509614,16.0126953 138.700044,17.6679688 Z M143.037033,23.1611328 C140.634689,23.1611328 139.184494,21.59375 139.184494,18.9936523 C139.184494,16.4155273 140.656662,14.8408203 143.037033,14.8408203 C145.424729,14.8408203 146.889572,16.4082031 146.889572,18.9936523 C146.889572,21.59375 145.432053,23.1611328 143.037033,23.1611328 Z M143.037033,21.6743164 C144.304123,21.6743164 145.021896,20.6928711 145.021896,19.0009766 C145.021896,17.309082 144.296799,16.3276367 143.037033,16.3276367 C141.769943,16.3276367 141.044846,17.309082 141.044846,19.0009766 C141.044846,20.6928711 141.769943,21.6743164 143.037033,21.6743164 Z M147.864745,23 L147.864745,14.9946289 L149.615233,14.9946289 L149.615233,16.2836914 L149.739745,16.2836914 C150.083983,15.3828125 150.904296,14.8408203 151.966307,14.8408203 C153.072264,14.8408203 153.841307,15.3974609 154.178222,16.2836914 L154.302733,16.2836914 C154.698241,15.4121094 155.621093,14.8408203 156.734374,14.8408203 C158.338378,14.8408203 159.305175,15.8295898 159.305175,17.4921875 L159.305175,23 L157.496093,23 L157.496093,17.9389648 C157.496093,16.8989258 157.00537,16.3789062 156.031249,16.3789062 C155.086425,16.3789062 154.463866,17.0820312 154.463866,17.9975586 L154.463866,23 L152.698729,23 L152.698729,17.8071289 C152.698729,16.9208984 152.142089,16.3789062 151.248534,16.3789062 C150.347655,16.3789062 149.681151,17.1333008 149.681151,18.1293945 L149.681151,23 L147.864745,23 Z" id="xcode-shop.com" fill="#FFFFFF" fill-rule="nonzero"></path>
                <g id="Group" transform="translate(16.867676, 10.819824)" fill-rule="nonzero">
                    <path d="M1.78710937,6.65039062 C0.578613281,6.65039062 0,6.07177734 0,4.84130859 L0,1.80175781 C0,0.571289062 0.578613281,0 1.78710937,0 L8.46679688,0 C9.66796875,0 10.246582,0.571289062 10.246582,1.80175781 L10.246582,4.84130859 C10.246582,6.07177734 9.66796875,6.65039062 8.46679688,6.65039062 L1.78710937,6.65039062 Z" id="Path" fill="#000000"></path>
                    <path d="M3.41308594,13.7988281 C2.19726562,13.7988281 1.61865234,13.2275391 1.61865234,11.9970703 L1.61865234,9.88769531 C1.61865234,8.65722656 2.19726562,8.07861328 3.41308594,8.07861328 L9.30908203,8.07861328 C10.5175781,8.07861328 11.0961914,8.65722656 11.0961914,9.88769531 L11.0961914,11.9970703 C11.0961914,13.2275391 10.5175781,13.7988281 9.30908203,13.7988281 L3.41308594,13.7988281 Z" id="Path" fill="#FFFFFF" opacity="0.5"></path>
                    <path d="M14.3261719,12.8686523 C13.1176758,12.8686523 12.5390625,12.2827148 12.5390625,11.0522461 L12.5390625,2.85644531 C12.5390625,1.62597656 13.1176758,1.04736328 14.3261719,1.04736328 L19.152832,1.04736328 C20.3686523,1.04736328 20.9472656,1.62597656 20.9472656,2.85644531 L20.9472656,11.0522461 C20.9472656,12.2827148 20.3686523,12.8686523 19.152832,12.8686523 L14.3261719,12.8686523 Z" id="Path" fill="#FFFFFF"></path>
                </g>
            </g>
        </g>
    </g>
</svg>