<?xml version="1.0" encoding="UTF-8"?>
<svg width="220px" height="210px" viewBox="0 0 220 210" version="1.1" xmlns="http://www.w3.org/2000/svg" xmlns:xlink="http://www.w3.org/1999/xlink">
    <!-- Generator: Sketch 59.1 (86144) - https://sketch.com -->
    <title>Bluetooth</title>
    <desc>Created with Sketch.</desc>
    <g id="Bluetooth" stroke="none" stroke-width="1" fill="none" fill-rule="evenodd">
        <text font-family="SFProText-Semibold, SF Pro Text" font-size="31" font-weight="500" letter-spacing="-1.20254134" fill="#007AFF">
            <tspan x="41" y="178">Bluetooth</tspan>
        </text>
        <path d="M138.339202,96.9243735 L114.901805,77.5000434 L138.339202,58.0757134 C140.553401,56.2406729 140.553401,52.8583524 138.339202,51.0233118 L110.64713,28.0726824 C107.641054,25.5812559 103.077007,27.7072127 103.077007,31.5989818 L103.077007,66.4185997 L87.8790503,51.3037748 C86.076555,49.511139 83.1543668,49.511139 81.3518715,51.3037748 C79.5493762,53.0964106 79.5493762,56.0026146 81.3518715,57.7952504 L101.165041,77.5000434 L81.3518715,97.2048364 C79.5493762,98.9974722 79.5493762,101.903676 81.3518715,103.696312 C83.1543668,105.488948 86.076555,105.488948 87.8790503,103.696312 L103.077007,88.5814871 L103.077007,123.401105 C103.077007,127.292874 107.640856,129.418634 110.64713,126.927404 L138.339202,103.976775 C140.553599,102.141537 140.553599,98.759414 138.339202,96.9243735 Z M112,41 L128,54 L112,67 L112,41 Z M112,113 L112,87 L128,100 L112,113 Z" fill="#007AFF" fill-rule="nonzero"></path>
    </g>
</svg>