<?xml version="1.0" encoding="UTF-8"?>
<svg width="200px" height="200px" viewBox="0 0 200 200" version="1.1" xmlns="http://www.w3.org/2000/svg" xmlns:xlink="http://www.w3.org/1999/xlink">
    <title>bluetooth</title>
    <defs>
        <path d="M71.7887856,-1.0155026e-14 L128.211214,-4.35432025e-15 C153.173739,2.52998546e-15 162.225754,2.59911711 171.35168,7.47971571 C180.477606,12.3603143 187.639686,19.5223944 192.520284,28.6483203 C197.400883,37.7742462 200,46.8262609 200,71.7887856 L200,128.211214 C200,153.173739 197.400883,162.225754 192.520284,171.35168 C187.639686,180.477606 180.477606,187.639686 171.35168,192.520284 C162.225754,197.400883 153.173739,200 128.211214,200 L71.7887856,200 C46.8262609,200 37.7742462,197.400883 28.6483203,192.520284 C19.5223944,187.639686 12.3603143,180.477606 7.47971571,171.35168 C2.59911711,162.225754 5.33863302e-15,153.173739 -9.18824169e-15,128.211214 L-5.32110454e-15,71.7887856 C3.09171497e-15,46.8262609 2.59911711,37.7742462 7.47971571,28.6483203 C12.3603143,19.5223944 19.5223944,12.3603143 28.6483203,7.47971571 C37.7742462,2.59911711 46.8262609,5.90036254e-15 71.7887856,-1.0155026e-14 Z" id="path-1"></path>
    </defs>
    <g id="bluetooth" stroke="none" stroke-width="1" fill="none" fill-rule="evenodd">
        <mask id="mask-2" fill="white">
            <use xlink:href="#path-1"></use>
        </mask>
        <g id="Mask"></g>
        <g id="Group" mask="url(#mask-2)">
            <g id="Icon">
                <rect id="Rectangle" fill="#FFFFFF" x="0" y="0" width="200" height="200"></rect>
                <rect id="Background" fill="#007AFF" x="0" y="0" width="200" height="200"></rect>
                <path d="M135.708414,128.335699 L106.695697,100.499815 L135.708414,72.6670021 C136.619874,71.7904619 137.084641,70.6225293 136.987264,69.43829 C136.890157,68.2528691 136.244123,67.1539443 135.195903,66.4002945 L99.9270429,40.9877163 C98.4488528,39.9221137 96.4050123,39.6983112 94.6746128,40.4160391 C92.9442133,41.1306947 91.8415051,42.6554825 91.8415051,44.3319928 L91.8415051,86.250186 L71.5948868,66.8237942 C69.7555112,65.0579519 66.6259562,64.9336434 64.6104387,66.5465815 C62.5949211,68.1595196 62.4530365,70.8985603 64.2940305,72.6658205 L91.8415051,99.0967357 L91.8415051,101.903603 L64.2943002,128.335699 C62.4516878,130.100124 62.5935724,132.840819 64.6107084,134.454938 C66.6278444,136.069294 69.7544322,135.944986 71.5951565,134.176308 L91.8401563,114.752752 L91.8401563,156.668109 C91.8401563,158.342965 92.944483,159.869171 94.6732641,160.585481 C95.3457326,160.862693 96.0675641,161 96.7845403,161 C97.9101766,161 99.024214,160.664887 99.9273126,160.015222 L135.195903,134.602171 C136.244123,133.847103 136.890157,132.748178 136.987264,131.564175 C137.084371,130.380172 136.623111,129.212003 135.708414,128.335699 Z M101,54 L124,70.7258577 L101,93 L101,54 Z M101,147 L101,108 L124,130.273533 L101,147 Z" fill="#FFFFFF" fill-rule="nonzero"></path>
            </g>
        </g>
    </g>
</svg>