<?xml version="1.0" encoding="UTF-8"?>
<svg width="220px" height="210px" viewBox="0 0 220 210" version="1.1" xmlns="http://www.w3.org/2000/svg" xmlns:xlink="http://www.w3.org/1999/xlink">
    <!-- Generator: Sketch 59.1 (86144) - https://sketch.com -->
    <title>Bluetooth</title>
    <desc>Created with Sketch.</desc>
    <g id="Bluetooth" stroke="none" stroke-width="1" fill="none" fill-rule="evenodd">
        <path d="M52.3393555,177.947266 C57.0014648,177.947266 59.847168,175.585938 59.847168,171.741211 C59.847168,168.895508 57.8188477,166.776367 54.8823242,166.503906 L54.8823242,166.231445 C57.0771484,165.883301 58.7724609,163.85498 58.7724609,161.554199 C58.7724609,158.193848 56.2749023,156.10498 52.1274414,156.10498 L43,156.10498 L43,177.947266 L52.3393555,177.947266 Z M46.9052734,159.147461 L51.1738281,159.147461 C53.5351562,159.147461 54.9125977,160.282715 54.9125977,162.235352 C54.9125977,164.233398 53.4443359,165.308105 50.6743164,165.308105 L46.9052734,165.308105 L46.9052734,159.147461 Z M46.9052734,174.904785 L46.9052734,168.078125 L51.2949219,168.078125 C54.2768555,168.078125 55.8510742,169.243652 55.8510742,171.46875 C55.8510742,173.708984 54.3222656,174.904785 51.4462891,174.904785 L46.9052734,174.904785 Z M62.6407204,177.947266 L66.3946266,177.947266 L66.3946266,155 L62.6407204,155 L62.6407204,177.947266 Z M84.3400345,161.402832 L80.5861283,161.402832 L80.5861283,171.044922 C80.5861283,173.54248 79.254097,175.056152 76.8170853,175.056152 C74.5768509,175.056152 73.5324173,173.814941 73.5324173,171.241699 L73.5324173,161.402832 L69.7785111,161.402832 L69.7785111,172.149902 C69.7785111,176.024902 71.8976517,178.280273 75.5153275,178.280273 C78.0431595,178.280273 79.6627884,177.205566 80.4650345,175.313477 L80.7223587,175.313477 L80.7223587,177.947266 L84.3400345,177.947266 L84.3400345,161.402832 Z M98.5315361,173.421387 C97.9866143,174.662598 96.6999932,175.358887 94.8381768,175.358887 C92.3708916,175.358887 90.7815361,173.603027 90.6907158,170.802734 L90.6907158,170.605957 L102.255169,170.605957 L102.255169,169.410156 C102.255169,164.218262 99.4246025,161.084961 94.7019463,161.084961 C89.9036064,161.084961 86.9216728,164.430176 86.9216728,169.743164 C86.9216728,175.041016 89.8581963,178.280273 94.7322197,178.280273 C98.6374932,178.280273 101.407513,176.40332 102.088665,173.421387 L98.5315361,173.421387 Z M94.6868096,164.006348 C96.9421807,164.006348 98.4255791,165.595703 98.5012627,168.108398 L90.7058525,168.108398 C90.8723564,165.625977 92.4465752,164.006348 94.6868096,164.006348 Z M106.017471,157.346191 L106.017471,161.508789 L103.398819,161.508789 L103.398819,164.430176 L106.017471,164.430176 L106.017471,173.557617 C106.017471,176.751465 107.531143,178.022949 111.33046,178.022949 C112.057022,178.022949 112.753311,177.962402 113.298233,177.856445 L113.298233,174.980469 L112.884496,175.020273 C112.62549,175.042697 112.379939,175.056152 112.026749,175.056152 C110.45253,175.056152 109.756241,174.314453 109.756241,172.664551 L109.756241,164.430176 L113.298233,164.430176 L113.298233,161.508789 L109.756241,161.508789 L109.756241,157.346191 L106.017471,157.346191 Z M122.842762,178.280273 C127.792469,178.280273 130.804676,175.041016 130.804676,169.66748 C130.804676,164.324219 127.777332,161.084961 122.842762,161.084961 C117.923328,161.084961 114.880848,164.339355 114.880848,169.66748 C114.880848,175.041016 117.877918,178.280273 122.842762,178.280273 Z M122.842762,175.20752 C120.22411,175.20752 118.725575,173.179199 118.725575,169.682617 C118.725575,166.186035 120.22411,164.157715 122.842762,164.157715 C125.446278,164.157715 126.944813,166.186035 126.944813,169.682617 C126.944813,173.179199 125.461414,175.20752 122.842762,175.20752 Z M140.530846,178.280273 C145.480553,178.280273 148.49276,175.041016 148.49276,169.66748 C148.49276,164.324219 145.465416,161.084961 140.530846,161.084961 C135.611412,161.084961 132.568932,164.339355 132.568932,169.66748 C132.568932,175.041016 135.566002,178.280273 140.530846,178.280273 Z M140.530846,175.20752 C137.912193,175.20752 136.413658,173.179199 136.413658,169.682617 C136.413658,166.186035 137.912193,164.157715 140.530846,164.157715 C143.134361,164.157715 144.632896,166.186035 144.632896,169.682617 C144.632896,173.179199 143.149498,175.20752 140.530846,175.20752 Z M152.270199,157.346191 L152.270199,161.508789 L149.651547,161.508789 L149.651547,164.430176 L152.270199,164.430176 L152.270199,173.557617 C152.270199,176.751465 153.783871,178.022949 157.583187,178.022949 C158.30975,178.022949 159.006039,177.962402 159.550961,177.856445 L159.550961,174.980469 L159.137224,175.020273 C158.878218,175.042697 158.632666,175.056152 158.279476,175.056152 C156.705257,175.056152 156.008968,174.314453 156.008968,172.664551 L156.008968,164.430176 L159.550961,164.430176 L159.550961,161.508789 L156.008968,161.508789 L156.008968,157.346191 L152.270199,157.346191 Z M162.253693,177.947266 L162.253693,155 L165.947052,155 L165.947052,164.082031 L166.219513,164.082031 C167.006622,162.220215 168.777618,161.100098 171.244904,161.100098 C174.786896,161.100098 176.93631,163.340332 176.93631,167.275879 L176.93631,177.947266 L173.182404,177.947266 L173.182404,168.153809 C173.182404,165.595703 172.032013,164.293945 169.852326,164.293945 C167.38504,164.293945 166.007599,165.913574 166.007599,168.335449 L166.007599,177.947266 L162.253693,177.947266 Z" fill="#007AFF" fill-rule="nonzero"></path>
        <path d="M138.339202,96.9243735 L114.901805,77.5000434 L138.339202,58.0757134 C140.553401,56.2406729 140.553401,52.8583524 138.339202,51.0233118 L110.64713,28.0726824 C107.641054,25.5812559 103.077007,27.7072127 103.077007,31.5989818 L103.077007,66.4185997 L87.8790503,51.3037748 C86.076555,49.511139 83.1543668,49.511139 81.3518715,51.3037748 C79.5493762,53.0964106 79.5493762,56.0026146 81.3518715,57.7952504 L101.165041,77.5000434 L81.3518715,97.2048364 C79.5493762,98.9974722 79.5493762,101.903676 81.3518715,103.696312 C83.1543668,105.488948 86.076555,105.488948 87.8790503,103.696312 L103.077007,88.5814871 L103.077007,123.401105 C103.077007,127.292874 107.640856,129.418634 110.64713,126.927404 L138.339202,103.976775 C140.553599,102.141537 140.553599,98.759414 138.339202,96.9243735 Z M112,41 L128,54 L112,67 L112,41 Z M112,113 L112,87 L128,100 L112,113 Z" fill="#007AFF" fill-rule="nonzero"></path>
    </g>
</svg>