<?xml version="1.0" encoding="UTF-8"?>
<svg width="210px" height="190px" viewBox="0 0 210 190" version="1.1" xmlns="http://www.w3.org/2000/svg" xmlns:xlink="http://www.w3.org/1999/xlink">
    <!-- Generator: Sketch 59.1 (86144) - https://sketch.com -->
    <title>Calendar</title>
    <desc>Created with Sketch.</desc>
    <g id="Calendar" stroke="none" stroke-width="1" fill="none" fill-rule="evenodd">
        <path d="M71.3320312,119.892578 L138.03125,119.892578 C148.236328,119.892578 153.314453,114.814453 153.314453,104.755859 L153.314453,45.1367188 C153.314453,35.078125 148.236328,30 138.03125,30 L71.3320312,30 C61.1269531,30 56,35.0292969 56,45.1367188 L56,104.755859 C56,114.863281 61.1269531,119.892578 71.3320312,119.892578 Z M70.5996094,112.03125 C66.2539062,112.03125 63.8613281,109.736328 63.8613281,105.195312 L63.8613281,59.1503906 C63.8613281,54.6582031 66.2539062,52.3144531 70.5996094,52.3144531 L138.666016,52.3144531 C143.011719,52.3144531 145.453125,54.6582031 145.453125,59.1503906 L145.453125,105.195312 C145.453125,109.736328 143.011719,112.03125 138.666016,112.03125 L70.5996094,112.03125 Z M95.1113281,69.84375 L97.9921875,69.84375 C99.7011719,69.84375 100.287109,69.3554688 100.287109,67.6464844 L100.287109,64.765625 C100.287109,63.0566406 99.7011719,62.5195312 97.9921875,62.5195312 L95.1113281,62.5195312 C93.4023438,62.5195312 92.8164062,63.0566406 92.8164062,64.765625 L92.8164062,67.6464844 C92.8164062,69.3554688 93.4023438,69.84375 95.1113281,69.84375 Z M111.371094,69.84375 L114.203125,69.84375 C115.912109,69.84375 116.498047,69.3554688 116.498047,67.6464844 L116.498047,64.765625 C116.498047,63.0566406 115.912109,62.5195312 114.203125,62.5195312 L111.371094,62.5195312 C109.613281,62.5195312 109.076172,63.0566406 109.076172,64.765625 L109.076172,67.6464844 C109.076172,69.3554688 109.613281,69.84375 111.371094,69.84375 Z M127.582031,69.84375 L130.462891,69.84375 C132.171875,69.84375 132.708984,69.3554688 132.708984,67.6464844 L132.708984,64.765625 C132.708984,63.0566406 132.171875,62.5195312 130.462891,62.5195312 L127.582031,62.5195312 C125.873047,62.5195312 125.287109,63.0566406 125.287109,64.765625 L125.287109,67.6464844 C125.287109,69.3554688 125.873047,69.84375 127.582031,69.84375 Z M78.9003906,85.8105469 L81.78125,85.8105469 C83.4902344,85.8105469 84.0273438,85.3222656 84.0273438,83.6132812 L84.0273438,80.7324219 C84.0273438,79.0234375 83.4902344,78.5351562 81.78125,78.5351562 L78.9003906,78.5351562 C77.1914062,78.5351562 76.6054688,79.0234375 76.6054688,80.7324219 L76.6054688,83.6132812 C76.6054688,85.3222656 77.1914062,85.8105469 78.9003906,85.8105469 Z M95.1113281,85.8105469 L97.9921875,85.8105469 C99.7011719,85.8105469 100.287109,85.3222656 100.287109,83.6132812 L100.287109,80.7324219 C100.287109,79.0234375 99.7011719,78.5351562 97.9921875,78.5351562 L95.1113281,78.5351562 C93.4023438,78.5351562 92.8164062,79.0234375 92.8164062,80.7324219 L92.8164062,83.6132812 C92.8164062,85.3222656 93.4023438,85.8105469 95.1113281,85.8105469 Z M111.371094,85.8105469 L114.203125,85.8105469 C115.912109,85.8105469 116.498047,85.3222656 116.498047,83.6132812 L116.498047,80.7324219 C116.498047,79.0234375 115.912109,78.5351562 114.203125,78.5351562 L111.371094,78.5351562 C109.613281,78.5351562 109.076172,79.0234375 109.076172,80.7324219 L109.076172,83.6132812 C109.076172,85.3222656 109.613281,85.8105469 111.371094,85.8105469 Z M127.582031,85.8105469 L130.462891,85.8105469 C132.171875,85.8105469 132.708984,85.3222656 132.708984,83.6132812 L132.708984,80.7324219 C132.708984,79.0234375 132.171875,78.5351562 130.462891,78.5351562 L127.582031,78.5351562 C125.873047,78.5351562 125.287109,79.0234375 125.287109,80.7324219 L125.287109,83.6132812 C125.287109,85.3222656 125.873047,85.8105469 127.582031,85.8105469 Z M78.9003906,101.826172 L81.78125,101.826172 C83.4902344,101.826172 84.0273438,101.289062 84.0273438,99.5800781 L84.0273438,96.6992188 C84.0273438,95.0512695 83.5279142,94.5383874 81.9599002,94.5038549 L78.9003906,94.5019531 C77.1914062,94.5019531 76.6054688,94.9902344 76.6054688,96.6992188 L76.6054688,99.5800781 C76.6054688,101.289062 77.1914062,101.826172 78.9003906,101.826172 Z M95.1113281,101.826172 L97.9921875,101.826172 C99.7011719,101.826172 100.287109,101.289062 100.287109,99.5800781 L100.287109,96.6992188 C100.287109,95.0512695 99.7422772,94.5383874 98.1710201,94.5038549 L95.1113281,94.5019531 C93.4023438,94.5019531 92.8164062,94.9902344 92.8164062,96.6992188 L92.8164062,99.5800781 C92.8164062,101.289062 93.4023438,101.826172 95.1113281,101.826172 Z M111.371094,101.826172 C109.613281,101.826172 109.076172,101.289062 109.076172,99.5800781 L109.076172,96.6992188 C109.076172,95.0512695 109.575601,94.5383874 111.187397,94.5038549 L114.203125,94.5019531 C115.912109,94.5019531 116.498047,94.9902344 116.498047,96.6992188 L116.498047,99.5800781 C116.498047,101.289062 115.912109,101.826172 114.203125,101.826172 L111.371094,101.826172 Z" fill="#007AFF" fill-rule="nonzero"></path>
        <path d="M49.6938477,171.398438 C55.3549805,171.398438 59.2729492,168.293945 60.0200195,163.164062 L55.8198242,163.164062 C55.1557617,166.052734 52.8813477,167.762695 49.7104492,167.762695 C45.5600586,167.762695 42.9370117,164.392578 42.9370117,159.013672 C42.9370117,153.667969 45.5766602,150.28125 49.6938477,150.28125 C52.7983398,150.28125 55.2387695,152.256836 55.8032227,155.261719 L60.0200195,155.261719 C59.4887695,150.115234 55.2553711,146.645508 49.6938477,146.645508 C42.887207,146.645508 38.5541992,151.376953 38.5541992,159.013672 C38.5541992,166.700195 42.8540039,171.398438 49.6938477,171.398438 Z M68.0219727,171.282227 C70.2797852,171.282227 72.487793,170.103516 73.5004883,168.194336 L73.5834961,168.194336 L73.5834961,171 L77.5678711,171 L77.5678711,158.880859 C77.5678711,155.344727 74.7290039,153.037109 70.362793,153.037109 C65.8803711,153.037109 63.074707,155.394531 62.8920898,158.681641 L66.7270508,158.681641 C66.9926758,157.220703 68.237793,156.274414 70.1967773,156.274414 C72.2387695,156.274414 73.4838867,157.336914 73.4838867,159.179688 L73.4838867,160.441406 L68.8354492,160.707031 C64.5522461,160.972656 62.1450195,162.848633 62.1450195,165.969727 C62.1450195,169.140625 64.6186523,171.282227 68.0219727,171.282227 Z M69.2670898,168.161133 C67.4741211,168.161133 66.2788086,167.248047 66.2788086,165.803711 C66.2788086,164.40918 67.4243164,163.512695 69.4165039,163.379883 L73.4838867,163.130859 L73.4838867,164.475586 C73.4838867,166.600586 71.6079102,168.161133 69.2670898,168.161133 Z M81.0043945,171 L85.1381836,171 L85.1381836,147.043945 L81.0043945,147.043945 L81.0043945,171 Z M100.312012,165.737305 C99.8637695,167.198242 98.402832,168.161133 96.4770508,168.161133 C93.7709961,168.161133 92.0444336,166.268555 92.0444336,163.446289 L92.0444336,163.197266 L104.346191,163.197266 L104.346191,161.852539 C104.346191,156.506836 101.225098,153.037109 96.2280273,153.037109 C91.1479492,153.037109 87.9272461,156.706055 87.9272461,162.267578 C87.9272461,167.878906 91.1147461,171.348633 96.394043,171.348633 C100.561035,171.348633 103.648926,169.057617 104.180176,165.737305 L100.312012,165.737305 Z M96.2446289,156.241211 C98.6186523,156.241211 100.212402,157.984375 100.29541,160.474609 L92.0776367,160.474609 C92.2436523,158.017578 93.9204102,156.241211 96.2446289,156.241211 Z M107.002441,171 L111.13623,171 L111.13623,160.806641 C111.13623,158.283203 112.646973,156.573242 115.020996,156.573242 C117.378418,156.573242 118.540527,157.967773 118.540527,160.458008 L118.540527,171 L122.674316,171 L122.674316,159.62793 C122.674316,155.560547 120.466309,153.070312 116.581543,153.070312 C113.875488,153.070312 111.999512,154.332031 111.053223,156.423828 L110.970215,156.423828 L110.970215,153.402344 L107.002441,153.402344 L107.002441,171 Z M132.552246,171.282227 C135.125488,171.282227 137.150879,169.970703 138.11377,167.995117 L138.180176,167.995117 L138.180176,171 L142.230957,171 L142.230957,147.043945 L138.097168,147.043945 L138.097168,156.357422 L137.997559,156.357422 C137.067871,154.415039 135.075684,153.103516 132.552246,153.103516 C128.119629,153.103516 125.247559,156.623047 125.247559,162.18457 C125.247559,167.779297 128.119629,171.282227 132.552246,171.282227 Z M133.797363,156.506836 C136.403809,156.506836 138.11377,158.748047 138.11377,162.201172 C138.11377,165.6875 136.403809,167.895508 133.797363,167.895508 C131.124512,167.895508 129.480957,165.704102 129.480957,162.201172 C129.480957,158.714844 131.141113,156.506836 133.797363,156.506836 Z M150.880371,171.282227 C153.138184,171.282227 155.346191,170.103516 156.358887,168.194336 L156.441895,168.194336 L156.441895,171 L160.42627,171 L160.42627,158.880859 C160.42627,155.344727 157.587402,153.037109 153.221191,153.037109 C148.73877,153.037109 145.933105,155.394531 145.750488,158.681641 L149.585449,158.681641 C149.851074,157.220703 151.096191,156.274414 153.055176,156.274414 C155.097168,156.274414 156.342285,157.336914 156.342285,159.179688 L156.342285,160.441406 L151.693848,160.707031 C147.410645,160.972656 145.003418,162.848633 145.003418,165.969727 C145.003418,169.140625 147.477051,171.282227 150.880371,171.282227 Z M152.125488,168.161133 C150.33252,168.161133 149.137207,167.248047 149.137207,165.803711 C149.137207,164.40918 150.282715,163.512695 152.274902,163.379883 L156.342285,163.130859 L156.342285,164.475586 C156.342285,166.600586 154.466309,168.161133 152.125488,168.161133 Z M163.746582,171 L163.746582,153.402344 L167.714355,153.402344 L167.714355,156.473633 L167.797363,156.473633 C168.39502,154.332031 169.938965,153.103516 172.01416,153.103516 C172.54541,153.103516 173.010254,153.203125 173.309082,153.269531 L173.309082,157.004883 C172.960449,156.87207 172.32959,156.772461 171.632324,156.772461 C169.291504,156.772461 167.880371,158.283203 167.880371,160.756836 L167.880371,171 L163.746582,171 Z" fill="#007AFF" fill-rule="nonzero"></path>
    </g>
</svg>