<?xml version="1.0" encoding="UTF-8"?>
<svg width="200px" height="200px" viewBox="0 0 200 200" version="1.1" xmlns="http://www.w3.org/2000/svg" xmlns:xlink="http://www.w3.org/1999/xlink">
    <title>calendar</title>
    <defs>
        <path d="M71.7887856,-1.0155026e-14 L128.211214,-4.35432025e-15 C153.173739,2.52998546e-15 162.225754,2.59911711 171.35168,7.47971571 C180.477606,12.3603143 187.639686,19.5223944 192.520284,28.6483203 C197.400883,37.7742462 200,46.8262609 200,71.7887856 L200,128.211214 C200,153.173739 197.400883,162.225754 192.520284,171.35168 C187.639686,180.477606 180.477606,187.639686 171.35168,192.520284 C162.225754,197.400883 153.173739,200 128.211214,200 L71.7887856,200 C46.8262609,200 37.7742462,197.400883 28.6483203,192.520284 C19.5223944,187.639686 12.3603143,180.477606 7.47971571,171.35168 C2.59911711,162.225754 5.33863302e-15,153.173739 -9.18824169e-15,128.211214 L-5.32110454e-15,71.7887856 C3.09171497e-15,46.8262609 2.59911711,37.7742462 7.47971571,28.6483203 C12.3603143,19.5223944 19.5223944,12.3603143 28.6483203,7.47971571 C37.7742462,2.59911711 46.8262609,5.90036254e-15 71.7887856,-1.0155026e-14 Z" id="path-1"></path>
    </defs>
    <g id="calendar" stroke="none" stroke-width="1" fill="none" fill-rule="evenodd">
        <mask id="mask-2" fill="white">
            <use xlink:href="#path-1"></use>
        </mask>
        <g id="Mask"></g>
        <g id="Group" mask="url(#mask-2)">
            <g id="Icon">
                <rect id="Rectangle" fill="#FFFFFF" x="0" y="0" width="200" height="200"></rect>
                <rect id="Rectangle" fill="#FFFFFF" x="0" y="0" width="200" height="200"></rect>
                <rect id="Area" fill="#FF3B30" x="0" y="0" width="200" height="47"></rect>
                <g id="Dots" transform="translate(33.000000, 69.000000)">
                    <rect id="Rectangle" fill="#000000" x="42" y="0" width="7" height="7"></rect>
                    <rect id="Rectangle" fill="#000000" x="42" y="32" width="7" height="7"></rect>
                    <rect id="Rectangle" fill="#000000" x="42" y="32" width="7" height="7"></rect>
                    <rect id="Rectangle" fill="#000000" x="63" y="32" width="7" height="7"></rect>
                    <rect id="Rectangle" fill="#000000" x="84" y="32" width="7" height="7"></rect>
                    <rect id="Rectangle" fill="#000000" x="105" y="32" width="7" height="7"></rect>
                    <rect id="Rectangle" fill="#000000" x="126" y="32" width="7" height="7"></rect>
                    <rect id="Rectangle" fill="#000000" x="126" y="63" width="7" height="7"></rect>
                    <rect id="Rectangle" fill="#000000" x="105" y="63" width="7" height="7"></rect>
                    <circle id="Oval" fill="#FF3B30" cx="87.5" cy="66.5" r="12.5"></circle>
                    <rect id="Rectangle" fill="#000000" x="63" y="63" width="7" height="7"></rect>
                    <rect id="Rectangle" fill="#000000" x="42" y="64" width="7" height="7"></rect>
                    <rect id="Rectangle" fill="#000000" x="21" y="64" width="7" height="7"></rect>
                    <rect id="Rectangle" fill="#000000" x="0" y="64" width="7" height="7"></rect>
                    <rect id="Rectangle" fill="#000000" x="0" y="95" width="7" height="7"></rect>
                    <rect id="Rectangle" fill="#000000" x="21" y="95" width="7" height="7"></rect>
                    <rect id="Rectangle" fill="#000000" x="42" y="95" width="7" height="7"></rect>
                    <rect id="Rectangle" fill="#000000" x="63" y="94" width="7" height="7"></rect>
                    <rect id="Rectangle" fill="#000000" x="86" y="94" width="7" height="7"></rect>
                    <rect id="Rectangle" fill="#000000" x="21" y="32" width="7" height="7"></rect>
                    <rect id="Rectangle" fill="#000000" x="0" y="32" width="7" height="7"></rect>
                    <rect id="Rectangle" fill="#000000" x="63" y="0" width="7" height="7"></rect>
                    <rect id="Rectangle" fill="#000000" x="84" y="0" width="7" height="7"></rect>
                    <rect id="Rectangle" fill="#000000" x="105" y="0" width="7" height="7"></rect>
                    <rect id="Rectangle" fill="#000000" x="126" y="0" width="7" height="7"></rect>
                </g>
            </g>
        </g>
    </g>
</svg>