<?xml version="1.0" encoding="UTF-8"?>
<svg width="160px" height="190px" viewBox="0 0 160 190" version="1.1" xmlns="http://www.w3.org/2000/svg" xmlns:xlink="http://www.w3.org/1999/xlink">
    <!-- Generator: Sketch 59.1 (86144) - https://sketch.com -->
    <title>Calendar</title>
    <desc>Created with Sketch.</desc>
    <g id="Calendar" stroke="none" stroke-width="1" fill="none" fill-rule="evenodd">
        <path d="M46.3320312,119.892578 L113.03125,119.892578 C123.236328,119.892578 128.314453,114.814453 128.314453,104.755859 L128.314453,45.1367188 C128.314453,35.078125 123.236328,30 113.03125,30 L46.3320312,30 C36.1269531,30 31,35.0292969 31,45.1367188 L31,104.755859 C31,114.863281 36.1269531,119.892578 46.3320312,119.892578 Z M45.5996094,112.03125 C41.2539062,112.03125 38.8613281,109.736328 38.8613281,105.195312 L38.8613281,59.1503906 C38.8613281,54.6582031 41.2539062,52.3144531 45.5996094,52.3144531 L113.666016,52.3144531 C118.011719,52.3144531 120.453125,54.6582031 120.453125,59.1503906 L120.453125,105.195312 C120.453125,109.736328 118.011719,112.03125 113.666016,112.03125 L45.5996094,112.03125 Z M70.1113281,69.84375 L72.9921875,69.84375 C74.7011719,69.84375 75.2871094,69.3554688 75.2871094,67.6464844 L75.2871094,64.765625 C75.2871094,63.0566406 74.7011719,62.5195312 72.9921875,62.5195312 L70.1113281,62.5195312 C68.4023438,62.5195312 67.8164062,63.0566406 67.8164062,64.765625 L67.8164062,67.6464844 C67.8164062,69.3554688 68.4023438,69.84375 70.1113281,69.84375 Z M86.3710938,69.84375 L89.203125,69.84375 C90.9121094,69.84375 91.4980469,69.3554688 91.4980469,67.6464844 L91.4980469,64.765625 C91.4980469,63.0566406 90.9121094,62.5195312 89.203125,62.5195312 L86.3710938,62.5195312 C84.6132812,62.5195312 84.0761719,63.0566406 84.0761719,64.765625 L84.0761719,67.6464844 C84.0761719,69.3554688 84.6132812,69.84375 86.3710938,69.84375 Z M102.582031,69.84375 L105.462891,69.84375 C107.171875,69.84375 107.708984,69.3554688 107.708984,67.6464844 L107.708984,64.765625 C107.708984,63.0566406 107.171875,62.5195312 105.462891,62.5195312 L102.582031,62.5195312 C100.873047,62.5195312 100.287109,63.0566406 100.287109,64.765625 L100.287109,67.6464844 C100.287109,69.3554688 100.873047,69.84375 102.582031,69.84375 Z M53.9003906,85.8105469 L56.78125,85.8105469 C58.4902344,85.8105469 59.0273438,85.3222656 59.0273438,83.6132812 L59.0273438,80.7324219 C59.0273438,79.0234375 58.4902344,78.5351562 56.78125,78.5351562 L53.9003906,78.5351562 C52.1914062,78.5351562 51.6054688,79.0234375 51.6054688,80.7324219 L51.6054688,83.6132812 C51.6054688,85.3222656 52.1914062,85.8105469 53.9003906,85.8105469 Z M70.1113281,85.8105469 L72.9921875,85.8105469 C74.7011719,85.8105469 75.2871094,85.3222656 75.2871094,83.6132812 L75.2871094,80.7324219 C75.2871094,79.0234375 74.7011719,78.5351562 72.9921875,78.5351562 L70.1113281,78.5351562 C68.4023438,78.5351562 67.8164062,79.0234375 67.8164062,80.7324219 L67.8164062,83.6132812 C67.8164062,85.3222656 68.4023438,85.8105469 70.1113281,85.8105469 Z M86.3710938,85.8105469 L89.203125,85.8105469 C90.9121094,85.8105469 91.4980469,85.3222656 91.4980469,83.6132812 L91.4980469,80.7324219 C91.4980469,79.0234375 90.9121094,78.5351562 89.203125,78.5351562 L86.3710938,78.5351562 C84.6132812,78.5351562 84.0761719,79.0234375 84.0761719,80.7324219 L84.0761719,83.6132812 C84.0761719,85.3222656 84.6132812,85.8105469 86.3710938,85.8105469 Z M102.582031,85.8105469 L105.462891,85.8105469 C107.171875,85.8105469 107.708984,85.3222656 107.708984,83.6132812 L107.708984,80.7324219 C107.708984,79.0234375 107.171875,78.5351562 105.462891,78.5351562 L102.582031,78.5351562 C100.873047,78.5351562 100.287109,79.0234375 100.287109,80.7324219 L100.287109,83.6132812 C100.287109,85.3222656 100.873047,85.8105469 102.582031,85.8105469 Z M53.9003906,101.826172 L56.78125,101.826172 C58.4902344,101.826172 59.0273438,101.289062 59.0273438,99.5800781 L59.0273438,96.6992188 C59.0273438,95.0512695 58.5279142,94.5383874 56.9599002,94.5038549 L53.9003906,94.5019531 C52.1914062,94.5019531 51.6054688,94.9902344 51.6054688,96.6992188 L51.6054688,99.5800781 C51.6054688,101.289062 52.1914062,101.826172 53.9003906,101.826172 Z M70.1113281,101.826172 L72.9921875,101.826172 C74.7011719,101.826172 75.2871094,101.289062 75.2871094,99.5800781 L75.2871094,96.6992188 C75.2871094,95.0512695 74.7422772,94.5383874 73.1710201,94.5038549 L70.1113281,94.5019531 C68.4023438,94.5019531 67.8164062,94.9902344 67.8164062,96.6992188 L67.8164062,99.5800781 C67.8164062,101.289062 68.4023438,101.826172 70.1113281,101.826172 Z M86.3710938,101.826172 C84.6132812,101.826172 84.0761719,101.289062 84.0761719,99.5800781 L84.0761719,96.6992188 C84.0761719,95.0512695 84.5756014,94.5383874 86.1873966,94.5038549 L89.203125,94.5019531 C90.9121094,94.5019531 91.4980469,94.9902344 91.4980469,96.6992188 L91.4980469,99.5800781 C91.4980469,101.289062 90.9121094,101.826172 89.203125,101.826172 L86.3710938,101.826172 Z" fill="#007AFF" fill-rule="nonzero"></path>
        <path d="M44.2206348,165.351562 C47.472588,165.351562 49.8554005,163.427734 50.1874317,160.576172 L47.706963,160.576172 C47.3651661,162.158203 46.0077442,163.164062 44.2206348,163.164062 C41.8182911,163.164062 40.3241505,161.162109 40.3241505,157.949219 C40.3241505,154.746094 41.8182911,152.744141 44.2108692,152.744141 C45.988213,152.744141 47.3456348,153.847656 47.6971973,155.546875 L50.1776661,155.546875 C49.8846973,152.626953 47.4139942,150.556641 44.2108692,150.556641 C40.2167286,150.556641 37.7460255,153.378906 37.7460255,157.958984 C37.7460255,162.519531 40.2264942,165.351562 44.2206348,165.351562 Z M55.4738257,165.175781 C56.8703101,165.175781 58.0421851,164.570312 58.6378882,163.535156 L58.8039039,163.535156 L58.8039039,165 L61.1378882,165 L61.1378882,157.705078 C61.1378882,155.449219 59.5949195,154.121094 56.8507789,154.121094 C54.3117164,154.121094 52.5441382,155.3125 52.3488257,157.177734 L54.633982,157.177734 C54.8585914,156.445312 55.6203101,156.044922 56.7335914,156.044922 C58.0421851,156.044922 58.7453101,156.640625 58.7453101,157.705078 L58.7453101,158.623047 L55.9914039,158.789062 C53.3937476,158.935547 51.9386695,160.058594 51.9386695,161.972656 C51.9386695,163.925781 53.4132789,165.175781 55.4738257,165.175781 Z M56.1867164,163.310547 C55.1124976,163.310547 54.3410132,162.773438 54.3410132,161.855469 C54.3410132,160.966797 54.9757789,160.46875 56.3332007,160.380859 L58.7453101,160.214844 L58.7453101,161.083984 C58.7453101,162.353516 57.6515601,163.310547 56.1867164,163.310547 Z M63.9535791,165 L66.3754541,165 L66.3754541,150.195312 L63.9535791,150.195312 L63.9535791,165 Z M76.2028638,162.080078 C75.8513013,162.880859 75.0212232,163.330078 73.8200513,163.330078 C72.2282544,163.330078 71.2028638,162.197266 71.14427,160.390625 L71.14427,160.263672 L78.6052075,160.263672 L78.6052075,159.492188 C78.6052075,156.142578 76.7790357,154.121094 73.7321607,154.121094 C70.6364575,154.121094 68.7126294,156.279297 68.7126294,159.707031 C68.7126294,163.125 70.6071607,165.214844 73.7516919,165.214844 C76.2712232,165.214844 78.0583325,164.003906 78.4977857,162.080078 L76.2028638,162.080078 Z M73.722395,156.005859 C75.1774732,156.005859 76.1345044,157.03125 76.1833325,158.652344 L71.1540357,158.652344 C71.2614575,157.050781 72.2770825,156.005859 73.722395,156.005859 Z M80.8447266,165 L83.2666016,165 L83.2666016,158.779297 C83.2666016,157.177734 84.1748047,156.171875 85.6201172,156.171875 C87.0947266,156.171875 87.7783203,157.001953 87.7783203,158.662109 L87.7783203,165 L90.2001953,165 L90.2001953,158.095703 C90.2001953,155.556641 88.9013672,154.121094 86.5185547,154.121094 C84.9267578,154.121094 83.8525391,154.84375 83.3447266,156.035156 L83.1787109,156.035156 L83.1787109,154.326172 L80.8447266,154.326172 L80.8447266,165 Z M96.746355,165.175781 C98.23073,165.175781 99.4611987,164.482422 100.066667,163.310547 L100.232683,163.310547 L100.232683,165 L102.576433,165 L102.576433,150.195312 L100.154558,150.195312 L100.154558,156.025391 L99.9885425,156.025391 C99.4221362,154.853516 98.2111987,154.150391 96.746355,154.150391 C94.0510425,154.150391 92.3518237,156.279297 92.3518237,159.658203 C92.3518237,163.046875 94.0412768,165.175781 96.746355,165.175781 Z M97.4983081,156.171875 C99.1584643,156.171875 100.183855,157.509766 100.183855,159.667969 C100.183855,161.835938 99.16823,163.164062 97.4983081,163.164062 C95.8381518,163.164062 94.8322925,161.855469 94.8322925,159.667969 C94.8322925,157.490234 95.8479175,156.171875 97.4983081,156.171875 Z M108.380405,165.175781 C109.77689,165.175781 110.948765,164.570312 111.544468,163.535156 L111.710483,163.535156 L111.710483,165 L114.044468,165 L114.044468,157.705078 C114.044468,155.449219 112.501499,154.121094 109.757358,154.121094 C107.218296,154.121094 105.450718,155.3125 105.255405,157.177734 L107.540561,157.177734 C107.765171,156.445312 108.52689,156.044922 109.640171,156.044922 C110.948765,156.044922 111.65189,156.640625 111.65189,157.705078 L111.65189,158.623047 L108.897983,158.789062 C106.300327,158.935547 104.845249,160.058594 104.845249,161.972656 C104.845249,163.925781 106.319858,165.175781 108.380405,165.175781 Z M109.093296,163.310547 C108.019077,163.310547 107.247593,162.773438 107.247593,161.855469 C107.247593,160.966797 107.882358,160.46875 109.23978,160.380859 L111.65189,160.214844 L111.65189,161.083984 C111.65189,162.353516 110.55814,163.310547 109.093296,163.310547 Z M116.762502,165 L116.762502,154.326172 L119.096487,154.326172 L119.096487,155.986328 L119.262502,155.986328 C119.555471,154.931641 120.707815,154.150391 122.084768,154.150391 C122.436331,154.150391 122.866018,154.189453 123.090627,154.248047 L123.090627,156.455078 C122.905081,156.386719 122.260549,156.318359 121.850393,156.318359 C120.278127,156.318359 119.184377,157.294922 119.184377,158.798828 L119.184377,165 L116.762502,165 Z" fill="#007AFF" fill-rule="nonzero"></path>
    </g>
</svg>