<?xml version="1.0" encoding="UTF-8"?>
<svg width="150px" height="150px" viewBox="0 0 150 150" version="1.1" xmlns="http://www.w3.org/2000/svg" xmlns:xlink="http://www.w3.org/1999/xlink">
    <!-- Generator: Sketch 59.1 (86144) - https://sketch.com -->
    <title>Calendar</title>
    <desc>Created with Sketch.</desc>
    <g id="Calendar" stroke="none" stroke-width="1" fill="none" fill-rule="evenodd">
        <path d="M41.3320312,119.892578 L108.03125,119.892578 C118.236328,119.892578 123.314453,114.814453 123.314453,104.755859 L123.314453,45.1367188 C123.314453,35.078125 118.236328,30 108.03125,30 L41.3320312,30 C31.1269531,30 26,35.0292969 26,45.1367188 L26,104.755859 C26,114.863281 31.1269531,119.892578 41.3320312,119.892578 Z M40.5996094,112.03125 C36.2539062,112.03125 33.8613281,109.736328 33.8613281,105.195312 L33.8613281,59.1503906 C33.8613281,54.6582031 36.2539062,52.3144531 40.5996094,52.3144531 L108.666016,52.3144531 C113.011719,52.3144531 115.453125,54.6582031 115.453125,59.1503906 L115.453125,105.195312 C115.453125,109.736328 113.011719,112.03125 108.666016,112.03125 L40.5996094,112.03125 Z M65.1113281,69.84375 L67.9921875,69.84375 C69.7011719,69.84375 70.2871094,69.3554688 70.2871094,67.6464844 L70.2871094,64.765625 C70.2871094,63.0566406 69.7011719,62.5195312 67.9921875,62.5195312 L65.1113281,62.5195312 C63.4023438,62.5195312 62.8164062,63.0566406 62.8164062,64.765625 L62.8164062,67.6464844 C62.8164062,69.3554688 63.4023438,69.84375 65.1113281,69.84375 Z M81.3710938,69.84375 L84.203125,69.84375 C85.9121094,69.84375 86.4980469,69.3554688 86.4980469,67.6464844 L86.4980469,64.765625 C86.4980469,63.0566406 85.9121094,62.5195312 84.203125,62.5195312 L81.3710938,62.5195312 C79.6132812,62.5195312 79.0761719,63.0566406 79.0761719,64.765625 L79.0761719,67.6464844 C79.0761719,69.3554688 79.6132812,69.84375 81.3710938,69.84375 Z M97.5820312,69.84375 L100.462891,69.84375 C102.171875,69.84375 102.708984,69.3554688 102.708984,67.6464844 L102.708984,64.765625 C102.708984,63.0566406 102.171875,62.5195312 100.462891,62.5195312 L97.5820312,62.5195312 C95.8730469,62.5195312 95.2871094,63.0566406 95.2871094,64.765625 L95.2871094,67.6464844 C95.2871094,69.3554688 95.8730469,69.84375 97.5820312,69.84375 Z M48.9003906,85.8105469 L51.78125,85.8105469 C53.4902344,85.8105469 54.0273438,85.3222656 54.0273438,83.6132812 L54.0273438,80.7324219 C54.0273438,79.0234375 53.4902344,78.5351562 51.78125,78.5351562 L48.9003906,78.5351562 C47.1914062,78.5351562 46.6054688,79.0234375 46.6054688,80.7324219 L46.6054688,83.6132812 C46.6054688,85.3222656 47.1914062,85.8105469 48.9003906,85.8105469 Z M65.1113281,85.8105469 L67.9921875,85.8105469 C69.7011719,85.8105469 70.2871094,85.3222656 70.2871094,83.6132812 L70.2871094,80.7324219 C70.2871094,79.0234375 69.7011719,78.5351562 67.9921875,78.5351562 L65.1113281,78.5351562 C63.4023438,78.5351562 62.8164062,79.0234375 62.8164062,80.7324219 L62.8164062,83.6132812 C62.8164062,85.3222656 63.4023438,85.8105469 65.1113281,85.8105469 Z M81.3710938,85.8105469 L84.203125,85.8105469 C85.9121094,85.8105469 86.4980469,85.3222656 86.4980469,83.6132812 L86.4980469,80.7324219 C86.4980469,79.0234375 85.9121094,78.5351562 84.203125,78.5351562 L81.3710938,78.5351562 C79.6132812,78.5351562 79.0761719,79.0234375 79.0761719,80.7324219 L79.0761719,83.6132812 C79.0761719,85.3222656 79.6132812,85.8105469 81.3710938,85.8105469 Z M97.5820312,85.8105469 L100.462891,85.8105469 C102.171875,85.8105469 102.708984,85.3222656 102.708984,83.6132812 L102.708984,80.7324219 C102.708984,79.0234375 102.171875,78.5351562 100.462891,78.5351562 L97.5820312,78.5351562 C95.8730469,78.5351562 95.2871094,79.0234375 95.2871094,80.7324219 L95.2871094,83.6132812 C95.2871094,85.3222656 95.8730469,85.8105469 97.5820312,85.8105469 Z M48.9003906,101.826172 L51.78125,101.826172 C53.4902344,101.826172 54.0273438,101.289062 54.0273438,99.5800781 L54.0273438,96.6992188 C54.0273438,95.0512695 53.5279142,94.5383874 51.9599002,94.5038549 L48.9003906,94.5019531 C47.1914062,94.5019531 46.6054688,94.9902344 46.6054688,96.6992188 L46.6054688,99.5800781 C46.6054688,101.289062 47.1914062,101.826172 48.9003906,101.826172 Z M65.1113281,101.826172 L67.9921875,101.826172 C69.7011719,101.826172 70.2871094,101.289062 70.2871094,99.5800781 L70.2871094,96.6992188 C70.2871094,95.0512695 69.7422772,94.5383874 68.1710201,94.5038549 L65.1113281,94.5019531 C63.4023438,94.5019531 62.8164062,94.9902344 62.8164062,96.6992188 L62.8164062,99.5800781 C62.8164062,101.289062 63.4023438,101.826172 65.1113281,101.826172 Z M81.3710938,101.826172 C79.6132812,101.826172 79.0761719,101.289062 79.0761719,99.5800781 L79.0761719,96.6992188 C79.0761719,95.0512695 79.5756014,94.5383874 81.1873966,94.5038549 L84.203125,94.5019531 C85.9121094,94.5019531 86.4980469,94.9902344 86.4980469,96.6992188 L86.4980469,99.5800781 C86.4980469,101.289062 85.9121094,101.826172 84.203125,101.826172 L81.3710938,101.826172 Z" fill="#007AFF" fill-rule="nonzero"></path>
    </g>
</svg>