<?xml version="1.0" encoding="UTF-8"?>
<svg width="190px" height="190px" viewBox="0 0 190 190" version="1.1" xmlns="http://www.w3.org/2000/svg" xmlns:xlink="http://www.w3.org/1999/xlink">
    <!-- Generator: Sketch 59.1 (86144) - https://sketch.com -->
    <title>Calendar</title>
    <desc>Created with Sketch.</desc>
    <g id="Calendar" stroke="none" stroke-width="1" fill="none" fill-rule="evenodd">
        <path d="M61.3320312,119.892578 L128.03125,119.892578 C138.236328,119.892578 143.314453,114.814453 143.314453,104.755859 L143.314453,45.1367188 C143.314453,35.078125 138.236328,30 128.03125,30 L61.3320312,30 C51.1269531,30 46,35.0292969 46,45.1367188 L46,104.755859 C46,114.863281 51.1269531,119.892578 61.3320312,119.892578 Z M60.5996094,112.03125 C56.2539062,112.03125 53.8613281,109.736328 53.8613281,105.195312 L53.8613281,59.1503906 C53.8613281,54.6582031 56.2539062,52.3144531 60.5996094,52.3144531 L128.666016,52.3144531 C133.011719,52.3144531 135.453125,54.6582031 135.453125,59.1503906 L135.453125,105.195312 C135.453125,109.736328 133.011719,112.03125 128.666016,112.03125 L60.5996094,112.03125 Z M85.1113281,69.84375 L87.9921875,69.84375 C89.7011719,69.84375 90.2871094,69.3554688 90.2871094,67.6464844 L90.2871094,64.765625 C90.2871094,63.0566406 89.7011719,62.5195312 87.9921875,62.5195312 L85.1113281,62.5195312 C83.4023438,62.5195312 82.8164062,63.0566406 82.8164062,64.765625 L82.8164062,67.6464844 C82.8164062,69.3554688 83.4023438,69.84375 85.1113281,69.84375 Z M101.371094,69.84375 L104.203125,69.84375 C105.912109,69.84375 106.498047,69.3554688 106.498047,67.6464844 L106.498047,64.765625 C106.498047,63.0566406 105.912109,62.5195312 104.203125,62.5195312 L101.371094,62.5195312 C99.6132812,62.5195312 99.0761719,63.0566406 99.0761719,64.765625 L99.0761719,67.6464844 C99.0761719,69.3554688 99.6132812,69.84375 101.371094,69.84375 Z M117.582031,69.84375 L120.462891,69.84375 C122.171875,69.84375 122.708984,69.3554688 122.708984,67.6464844 L122.708984,64.765625 C122.708984,63.0566406 122.171875,62.5195312 120.462891,62.5195312 L117.582031,62.5195312 C115.873047,62.5195312 115.287109,63.0566406 115.287109,64.765625 L115.287109,67.6464844 C115.287109,69.3554688 115.873047,69.84375 117.582031,69.84375 Z M68.9003906,85.8105469 L71.78125,85.8105469 C73.4902344,85.8105469 74.0273438,85.3222656 74.0273438,83.6132812 L74.0273438,80.7324219 C74.0273438,79.0234375 73.4902344,78.5351562 71.78125,78.5351562 L68.9003906,78.5351562 C67.1914062,78.5351562 66.6054688,79.0234375 66.6054688,80.7324219 L66.6054688,83.6132812 C66.6054688,85.3222656 67.1914062,85.8105469 68.9003906,85.8105469 Z M85.1113281,85.8105469 L87.9921875,85.8105469 C89.7011719,85.8105469 90.2871094,85.3222656 90.2871094,83.6132812 L90.2871094,80.7324219 C90.2871094,79.0234375 89.7011719,78.5351562 87.9921875,78.5351562 L85.1113281,78.5351562 C83.4023438,78.5351562 82.8164062,79.0234375 82.8164062,80.7324219 L82.8164062,83.6132812 C82.8164062,85.3222656 83.4023438,85.8105469 85.1113281,85.8105469 Z M101.371094,85.8105469 L104.203125,85.8105469 C105.912109,85.8105469 106.498047,85.3222656 106.498047,83.6132812 L106.498047,80.7324219 C106.498047,79.0234375 105.912109,78.5351562 104.203125,78.5351562 L101.371094,78.5351562 C99.6132812,78.5351562 99.0761719,79.0234375 99.0761719,80.7324219 L99.0761719,83.6132812 C99.0761719,85.3222656 99.6132812,85.8105469 101.371094,85.8105469 Z M117.582031,85.8105469 L120.462891,85.8105469 C122.171875,85.8105469 122.708984,85.3222656 122.708984,83.6132812 L122.708984,80.7324219 C122.708984,79.0234375 122.171875,78.5351562 120.462891,78.5351562 L117.582031,78.5351562 C115.873047,78.5351562 115.287109,79.0234375 115.287109,80.7324219 L115.287109,83.6132812 C115.287109,85.3222656 115.873047,85.8105469 117.582031,85.8105469 Z M68.9003906,101.826172 L71.78125,101.826172 C73.4902344,101.826172 74.0273438,101.289062 74.0273438,99.5800781 L74.0273438,96.6992188 C74.0273438,95.0512695 73.5279142,94.5383874 71.9599002,94.5038549 L68.9003906,94.5019531 C67.1914062,94.5019531 66.6054688,94.9902344 66.6054688,96.6992188 L66.6054688,99.5800781 C66.6054688,101.289062 67.1914062,101.826172 68.9003906,101.826172 Z M85.1113281,101.826172 L87.9921875,101.826172 C89.7011719,101.826172 90.2871094,101.289062 90.2871094,99.5800781 L90.2871094,96.6992188 C90.2871094,95.0512695 89.7422772,94.5383874 88.1710201,94.5038549 L85.1113281,94.5019531 C83.4023438,94.5019531 82.8164062,94.9902344 82.8164062,96.6992188 L82.8164062,99.5800781 C82.8164062,101.289062 83.4023438,101.826172 85.1113281,101.826172 Z M101.371094,101.826172 C99.6132812,101.826172 99.0761719,101.289062 99.0761719,99.5800781 L99.0761719,96.6992188 C99.0761719,95.0512695 99.5756014,94.5383874 101.187397,94.5038549 L104.203125,94.5019531 C105.912109,94.5019531 106.498047,94.9902344 106.498047,96.6992188 L106.498047,99.5800781 C106.498047,101.289062 105.912109,101.826172 104.203125,101.826172 L101.371094,101.826172 Z" fill="#007AFF" fill-rule="nonzero"></path>
        <path d="M52.324707,165.304688 C56.6538086,165.304688 59.6499023,162.930664 60.2211914,159.007812 L57.0092773,159.007812 C56.5014648,161.216797 54.762207,162.524414 52.3374023,162.524414 C49.1635742,162.524414 47.1577148,159.947266 47.1577148,155.833984 C47.1577148,151.746094 49.1762695,149.15625 52.324707,149.15625 C54.6987305,149.15625 56.5649414,150.666992 56.996582,152.964844 L60.2211914,152.964844 C59.8149414,149.029297 56.5776367,146.375977 52.324707,146.375977 C47.1196289,146.375977 43.8061523,149.994141 43.8061523,155.833984 C43.8061523,161.711914 47.0942383,165.304688 52.324707,165.304688 Z M66.340332,165.21582 C68.0668945,165.21582 69.7553711,164.314453 70.5297852,162.854492 L70.5932617,162.854492 L70.5932617,165 L73.6401367,165 L73.6401367,155.732422 C73.6401367,153.02832 71.4692383,151.263672 68.1303711,151.263672 C64.7026367,151.263672 62.5571289,153.066406 62.4174805,155.580078 L65.3500977,155.580078 C65.5532227,154.462891 66.5053711,153.739258 68.003418,153.739258 C69.5649414,153.739258 70.5170898,154.551758 70.5170898,155.960938 L70.5170898,156.925781 L66.9624023,157.128906 C63.6870117,157.332031 61.8461914,158.766602 61.8461914,161.15332 C61.8461914,163.578125 63.737793,165.21582 66.340332,165.21582 Z M67.2924805,162.829102 C65.9213867,162.829102 65.0073242,162.130859 65.0073242,161.026367 C65.0073242,159.959961 65.8833008,159.274414 67.4067383,159.172852 L70.5170898,158.982422 L70.5170898,160.010742 C70.5170898,161.635742 69.0825195,162.829102 67.2924805,162.829102 Z M76.2680664,165 L79.4291992,165 L79.4291992,146.680664 L76.2680664,146.680664 L76.2680664,165 Z M91.0327148,160.975586 C90.6899414,162.092773 89.5727539,162.829102 88.1000977,162.829102 C86.0307617,162.829102 84.7104492,161.381836 84.7104492,159.223633 L84.7104492,159.033203 L94.1176758,159.033203 L94.1176758,158.004883 C94.1176758,153.916992 91.730957,151.263672 87.909668,151.263672 C84.0249023,151.263672 81.5620117,154.069336 81.5620117,158.322266 C81.5620117,162.613281 83.9995117,165.266602 88.0366211,165.266602 C91.2231445,165.266602 93.5844727,163.514648 93.9907227,160.975586 L91.0327148,160.975586 Z M87.9223633,153.713867 C89.737793,153.713867 90.956543,155.046875 91.0200195,156.951172 L84.7358398,156.951172 C84.862793,155.072266 86.1450195,153.713867 87.9223633,153.713867 Z M96.1489258,165 L99.3100586,165 L99.3100586,157.205078 C99.3100586,155.275391 100.465332,153.967773 102.280762,153.967773 C104.083496,153.967773 104.972168,155.03418 104.972168,156.938477 L104.972168,165 L108.133301,165 L108.133301,156.303711 C108.133301,153.193359 106.444824,151.289062 103.474121,151.289062 C101.404785,151.289062 99.9702148,152.253906 99.246582,153.853516 L99.1831055,153.853516 L99.1831055,151.542969 L96.1489258,151.542969 L96.1489258,165 Z M115.687012,165.21582 C117.654785,165.21582 119.203613,164.212891 119.939941,162.702148 L119.990723,162.702148 L119.990723,165 L123.088379,165 L123.088379,146.680664 L119.927246,146.680664 L119.927246,153.802734 L119.851074,153.802734 C119.140137,152.317383 117.616699,151.314453 115.687012,151.314453 C112.297363,151.314453 110.101074,154.005859 110.101074,158.258789 C110.101074,162.537109 112.297363,165.21582 115.687012,165.21582 Z M116.63916,153.916992 C118.632324,153.916992 119.939941,155.630859 119.939941,158.271484 C119.939941,160.9375 118.632324,162.625977 116.63916,162.625977 C114.595215,162.625977 113.338379,160.950195 113.338379,158.271484 C113.338379,155.605469 114.60791,153.916992 116.63916,153.916992 Z M129.702637,165.21582 C131.429199,165.21582 133.117676,164.314453 133.89209,162.854492 L133.955566,162.854492 L133.955566,165 L137.002441,165 L137.002441,155.732422 C137.002441,153.02832 134.831543,151.263672 131.492676,151.263672 C128.064941,151.263672 125.919434,153.066406 125.779785,155.580078 L128.712402,155.580078 C128.915527,154.462891 129.867676,153.739258 131.365723,153.739258 C132.927246,153.739258 133.879395,154.551758 133.879395,155.960938 L133.879395,156.925781 L130.324707,157.128906 C127.049316,157.332031 125.208496,158.766602 125.208496,161.15332 C125.208496,163.578125 127.100098,165.21582 129.702637,165.21582 Z M130.654785,162.829102 C129.283691,162.829102 128.369629,162.130859 128.369629,161.026367 C128.369629,159.959961 129.245605,159.274414 130.769043,159.172852 L133.879395,158.982422 L133.879395,160.010742 C133.879395,161.635742 132.444824,162.829102 130.654785,162.829102 Z M139.541504,165 L139.541504,151.542969 L142.575684,151.542969 L142.575684,153.891602 L142.63916,153.891602 C143.096191,152.253906 144.276855,151.314453 145.86377,151.314453 C146.27002,151.314453 146.625488,151.390625 146.854004,151.441406 L146.854004,154.297852 C146.587402,154.196289 146.10498,154.120117 145.571777,154.120117 C143.781738,154.120117 142.702637,155.275391 142.702637,157.166992 L142.702637,165 L139.541504,165 Z" fill="#007AFF" fill-rule="nonzero"></path>
    </g>
</svg>