<?xml version="1.0" encoding="UTF-8"?>
<svg width="220px" height="210px" viewBox="0 0 220 210" version="1.1" xmlns="http://www.w3.org/2000/svg" xmlns:xlink="http://www.w3.org/1999/xlink">
    <!-- Generator: Sketch 59.1 (86144) - https://sketch.com -->
    <title>Calendar</title>
    <desc>Created with Sketch.</desc>
    <g id="Calendar" stroke="none" stroke-width="1" fill="none" fill-rule="evenodd">
        <path d="M72.3320312,119.892578 L139.03125,119.892578 C149.236328,119.892578 154.314453,114.814453 154.314453,104.755859 L154.314453,45.1367188 C154.314453,35.078125 149.236328,30 139.03125,30 L72.3320312,30 C62.1269531,30 57,35.0292969 57,45.1367188 L57,104.755859 C57,114.863281 62.1269531,119.892578 72.3320312,119.892578 Z M71.5996094,112.03125 C67.2539062,112.03125 64.8613281,109.736328 64.8613281,105.195312 L64.8613281,59.1503906 C64.8613281,54.6582031 67.2539062,52.3144531 71.5996094,52.3144531 L139.666016,52.3144531 C144.011719,52.3144531 146.453125,54.6582031 146.453125,59.1503906 L146.453125,105.195312 C146.453125,109.736328 144.011719,112.03125 139.666016,112.03125 L71.5996094,112.03125 Z M96.1113281,69.84375 L98.9921875,69.84375 C100.701172,69.84375 101.287109,69.3554688 101.287109,67.6464844 L101.287109,64.765625 C101.287109,63.0566406 100.701172,62.5195312 98.9921875,62.5195312 L96.1113281,62.5195312 C94.4023438,62.5195312 93.8164062,63.0566406 93.8164062,64.765625 L93.8164062,67.6464844 C93.8164062,69.3554688 94.4023438,69.84375 96.1113281,69.84375 Z M112.371094,69.84375 L115.203125,69.84375 C116.912109,69.84375 117.498047,69.3554688 117.498047,67.6464844 L117.498047,64.765625 C117.498047,63.0566406 116.912109,62.5195312 115.203125,62.5195312 L112.371094,62.5195312 C110.613281,62.5195312 110.076172,63.0566406 110.076172,64.765625 L110.076172,67.6464844 C110.076172,69.3554688 110.613281,69.84375 112.371094,69.84375 Z M128.582031,69.84375 L131.462891,69.84375 C133.171875,69.84375 133.708984,69.3554688 133.708984,67.6464844 L133.708984,64.765625 C133.708984,63.0566406 133.171875,62.5195312 131.462891,62.5195312 L128.582031,62.5195312 C126.873047,62.5195312 126.287109,63.0566406 126.287109,64.765625 L126.287109,67.6464844 C126.287109,69.3554688 126.873047,69.84375 128.582031,69.84375 Z M79.9003906,85.8105469 L82.78125,85.8105469 C84.4902344,85.8105469 85.0273438,85.3222656 85.0273438,83.6132812 L85.0273438,80.7324219 C85.0273438,79.0234375 84.4902344,78.5351562 82.78125,78.5351562 L79.9003906,78.5351562 C78.1914062,78.5351562 77.6054688,79.0234375 77.6054688,80.7324219 L77.6054688,83.6132812 C77.6054688,85.3222656 78.1914062,85.8105469 79.9003906,85.8105469 Z M96.1113281,85.8105469 L98.9921875,85.8105469 C100.701172,85.8105469 101.287109,85.3222656 101.287109,83.6132812 L101.287109,80.7324219 C101.287109,79.0234375 100.701172,78.5351562 98.9921875,78.5351562 L96.1113281,78.5351562 C94.4023438,78.5351562 93.8164062,79.0234375 93.8164062,80.7324219 L93.8164062,83.6132812 C93.8164062,85.3222656 94.4023438,85.8105469 96.1113281,85.8105469 Z M112.371094,85.8105469 L115.203125,85.8105469 C116.912109,85.8105469 117.498047,85.3222656 117.498047,83.6132812 L117.498047,80.7324219 C117.498047,79.0234375 116.912109,78.5351562 115.203125,78.5351562 L112.371094,78.5351562 C110.613281,78.5351562 110.076172,79.0234375 110.076172,80.7324219 L110.076172,83.6132812 C110.076172,85.3222656 110.613281,85.8105469 112.371094,85.8105469 Z M128.582031,85.8105469 L131.462891,85.8105469 C133.171875,85.8105469 133.708984,85.3222656 133.708984,83.6132812 L133.708984,80.7324219 C133.708984,79.0234375 133.171875,78.5351562 131.462891,78.5351562 L128.582031,78.5351562 C126.873047,78.5351562 126.287109,79.0234375 126.287109,80.7324219 L126.287109,83.6132812 C126.287109,85.3222656 126.873047,85.8105469 128.582031,85.8105469 Z M79.9003906,101.826172 L82.78125,101.826172 C84.4902344,101.826172 85.0273438,101.289062 85.0273438,99.5800781 L85.0273438,96.6992188 C85.0273438,95.0512695 84.5279142,94.5383874 82.9599002,94.5038549 L79.9003906,94.5019531 C78.1914062,94.5019531 77.6054688,94.9902344 77.6054688,96.6992188 L77.6054688,99.5800781 C77.6054688,101.289062 78.1914062,101.826172 79.9003906,101.826172 Z M96.1113281,101.826172 L98.9921875,101.826172 C100.701172,101.826172 101.287109,101.289062 101.287109,99.5800781 L101.287109,96.6992188 C101.287109,95.0512695 100.742277,94.5383874 99.1710201,94.5038549 L96.1113281,94.5019531 C94.4023438,94.5019531 93.8164062,94.9902344 93.8164062,96.6992188 L93.8164062,99.5800781 C93.8164062,101.289062 94.4023438,101.826172 96.1113281,101.826172 Z M112.371094,101.826172 C110.613281,101.826172 110.076172,101.289062 110.076172,99.5800781 L110.076172,96.6992188 C110.076172,95.0512695 110.575601,94.5383874 112.187397,94.5038549 L115.203125,94.5019531 C116.912109,94.5019531 117.498047,94.9902344 117.498047,96.6992188 L117.498047,99.5800781 C117.498047,101.289062 116.912109,101.826172 115.203125,101.826172 L112.371094,101.826172 Z" fill="#007AFF" fill-rule="nonzero"></path>
        <path d="M57.484375,178.296875 C62.8125,178.296875 66.5,175.375 67.203125,170.546875 L63.25,170.546875 C62.625,173.265625 60.484375,174.875 57.5,174.875 C53.59375,174.875 51.125,171.703125 51.125,166.640625 C51.125,161.609375 53.609375,158.421875 57.484375,158.421875 C60.40625,158.421875 62.703125,160.28125 63.234375,163.109375 L67.203125,163.109375 C66.703125,158.265625 62.71875,155 57.484375,155 C51.078125,155 47,159.453125 47,166.640625 C47,173.875 51.046875,178.296875 57.484375,178.296875 Z M74.734375,178.1875 C76.859375,178.1875 78.9375,177.078125 79.890625,175.28125 L79.96875,175.28125 L79.96875,177.921875 L83.71875,177.921875 L83.71875,166.515625 C83.71875,163.1875 81.046875,161.015625 76.9375,161.015625 C72.71875,161.015625 70.078125,163.234375 69.90625,166.328125 L73.515625,166.328125 C73.765625,164.953125 74.9375,164.0625 76.78125,164.0625 C78.703125,164.0625 79.875,165.0625 79.875,166.796875 L79.875,167.984375 L75.5,168.234375 C71.46875,168.484375 69.203125,170.25 69.203125,173.1875 C69.203125,176.171875 71.53125,178.1875 74.734375,178.1875 Z M75.90625,175.25 C74.21875,175.25 73.09375,174.390625 73.09375,173.03125 C73.09375,171.71875 74.171875,170.875 76.046875,170.75 L79.875,170.515625 L79.875,171.78125 C79.875,173.78125 78.109375,175.25 75.90625,175.25 Z M86.953125,177.921875 L90.84375,177.921875 L90.84375,155.375 L86.953125,155.375 L86.953125,177.921875 Z M105.125,172.96875 C104.703125,174.34375 103.328125,175.25 101.515625,175.25 C98.96875,175.25 97.34375,173.46875 97.34375,170.8125 L97.34375,170.578125 L108.921875,170.578125 L108.921875,169.3125 C108.921875,164.28125 105.984375,161.015625 101.28125,161.015625 C96.5,161.015625 93.46875,164.46875 93.46875,169.703125 C93.46875,174.984375 96.46875,178.25 101.4375,178.25 C105.359375,178.25 108.265625,176.09375 108.765625,172.96875 L105.125,172.96875 Z M101.296875,164.03125 C103.53125,164.03125 105.03125,165.671875 105.109375,168.015625 L97.375,168.015625 C97.53125,165.703125 99.109375,164.03125 101.296875,164.03125 Z M111.421875,177.921875 L115.3125,177.921875 L115.3125,168.328125 C115.3125,165.953125 116.734375,164.34375 118.96875,164.34375 C121.1875,164.34375 122.28125,165.65625 122.28125,168 L122.28125,177.921875 L126.171875,177.921875 L126.171875,167.21875 C126.171875,163.390625 124.09375,161.046875 120.4375,161.046875 C117.890625,161.046875 116.125,162.234375 115.234375,164.203125 L115.15625,164.203125 L115.15625,161.359375 L111.421875,161.359375 L111.421875,177.921875 Z M135.46875,178.1875 C137.890625,178.1875 139.796875,176.953125 140.703125,175.09375 L140.765625,175.09375 L140.765625,177.921875 L144.578125,177.921875 L144.578125,155.375 L140.6875,155.375 L140.6875,164.140625 L140.59375,164.140625 C139.71875,162.3125 137.84375,161.078125 135.46875,161.078125 C131.296875,161.078125 128.59375,164.390625 128.59375,169.625 C128.59375,174.890625 131.296875,178.1875 135.46875,178.1875 Z M136.640625,164.28125 C139.09375,164.28125 140.703125,166.390625 140.703125,169.640625 C140.703125,172.921875 139.09375,175 136.640625,175 C134.125,175 132.578125,172.9375 132.578125,169.640625 C132.578125,166.359375 134.140625,164.28125 136.640625,164.28125 Z M152.71875,178.1875 C154.84375,178.1875 156.921875,177.078125 157.875,175.28125 L157.953125,175.28125 L157.953125,177.921875 L161.703125,177.921875 L161.703125,166.515625 C161.703125,163.1875 159.03125,161.015625 154.921875,161.015625 C150.703125,161.015625 148.0625,163.234375 147.890625,166.328125 L151.5,166.328125 C151.75,164.953125 152.921875,164.0625 154.765625,164.0625 C156.6875,164.0625 157.859375,165.0625 157.859375,166.796875 L157.859375,167.984375 L153.484375,168.234375 C149.453125,168.484375 147.1875,170.25 147.1875,173.1875 C147.1875,176.171875 149.515625,178.1875 152.71875,178.1875 Z M153.890625,175.25 C152.203125,175.25 151.078125,174.390625 151.078125,173.03125 C151.078125,171.71875 152.15625,170.875 154.03125,170.75 L157.859375,170.515625 L157.859375,171.78125 C157.859375,173.78125 156.09375,175.25 153.890625,175.25 Z M164.828125,177.921875 L164.828125,161.359375 L168.5625,161.359375 L168.5625,164.25 L168.640625,164.25 C169.203125,162.234375 170.65625,161.078125 172.609375,161.078125 C173.109375,161.078125 173.546875,161.171875 173.828125,161.234375 L173.828125,164.75 C173.5,164.625 172.90625,164.53125 172.25,164.53125 C170.046875,164.53125 168.71875,165.953125 168.71875,168.28125 L168.71875,177.921875 L164.828125,177.921875 Z" fill="#007AFF" fill-rule="nonzero"></path>
    </g>
</svg>