<?xml version="1.0" encoding="UTF-8"?>
<svg width="210px" height="210px" viewBox="0 0 210 210" version="1.1" xmlns="http://www.w3.org/2000/svg" xmlns:xlink="http://www.w3.org/1999/xlink">
    <!-- Generator: Sketch 59.1 (86144) - https://sketch.com -->
    <title>Calendar</title>
    <desc>Created with Sketch.</desc>
    <g id="Calendar" stroke="none" stroke-width="1" fill="none" fill-rule="evenodd">
        <path d="M71.3320312,119.892578 L138.03125,119.892578 C148.236328,119.892578 153.314453,114.814453 153.314453,104.755859 L153.314453,45.1367188 C153.314453,35.078125 148.236328,30 138.03125,30 L71.3320312,30 C61.1269531,30 56,35.0292969 56,45.1367188 L56,104.755859 C56,114.863281 61.1269531,119.892578 71.3320312,119.892578 Z M70.5996094,112.03125 C66.2539062,112.03125 63.8613281,109.736328 63.8613281,105.195312 L63.8613281,59.1503906 C63.8613281,54.6582031 66.2539062,52.3144531 70.5996094,52.3144531 L138.666016,52.3144531 C143.011719,52.3144531 145.453125,54.6582031 145.453125,59.1503906 L145.453125,105.195312 C145.453125,109.736328 143.011719,112.03125 138.666016,112.03125 L70.5996094,112.03125 Z M95.1113281,69.84375 L97.9921875,69.84375 C99.7011719,69.84375 100.287109,69.3554688 100.287109,67.6464844 L100.287109,64.765625 C100.287109,63.0566406 99.7011719,62.5195312 97.9921875,62.5195312 L95.1113281,62.5195312 C93.4023438,62.5195312 92.8164062,63.0566406 92.8164062,64.765625 L92.8164062,67.6464844 C92.8164062,69.3554688 93.4023438,69.84375 95.1113281,69.84375 Z M111.371094,69.84375 L114.203125,69.84375 C115.912109,69.84375 116.498047,69.3554688 116.498047,67.6464844 L116.498047,64.765625 C116.498047,63.0566406 115.912109,62.5195312 114.203125,62.5195312 L111.371094,62.5195312 C109.613281,62.5195312 109.076172,63.0566406 109.076172,64.765625 L109.076172,67.6464844 C109.076172,69.3554688 109.613281,69.84375 111.371094,69.84375 Z M127.582031,69.84375 L130.462891,69.84375 C132.171875,69.84375 132.708984,69.3554688 132.708984,67.6464844 L132.708984,64.765625 C132.708984,63.0566406 132.171875,62.5195312 130.462891,62.5195312 L127.582031,62.5195312 C125.873047,62.5195312 125.287109,63.0566406 125.287109,64.765625 L125.287109,67.6464844 C125.287109,69.3554688 125.873047,69.84375 127.582031,69.84375 Z M78.9003906,85.8105469 L81.78125,85.8105469 C83.4902344,85.8105469 84.0273438,85.3222656 84.0273438,83.6132812 L84.0273438,80.7324219 C84.0273438,79.0234375 83.4902344,78.5351562 81.78125,78.5351562 L78.9003906,78.5351562 C77.1914062,78.5351562 76.6054688,79.0234375 76.6054688,80.7324219 L76.6054688,83.6132812 C76.6054688,85.3222656 77.1914062,85.8105469 78.9003906,85.8105469 Z M95.1113281,85.8105469 L97.9921875,85.8105469 C99.7011719,85.8105469 100.287109,85.3222656 100.287109,83.6132812 L100.287109,80.7324219 C100.287109,79.0234375 99.7011719,78.5351562 97.9921875,78.5351562 L95.1113281,78.5351562 C93.4023438,78.5351562 92.8164062,79.0234375 92.8164062,80.7324219 L92.8164062,83.6132812 C92.8164062,85.3222656 93.4023438,85.8105469 95.1113281,85.8105469 Z M111.371094,85.8105469 L114.203125,85.8105469 C115.912109,85.8105469 116.498047,85.3222656 116.498047,83.6132812 L116.498047,80.7324219 C116.498047,79.0234375 115.912109,78.5351562 114.203125,78.5351562 L111.371094,78.5351562 C109.613281,78.5351562 109.076172,79.0234375 109.076172,80.7324219 L109.076172,83.6132812 C109.076172,85.3222656 109.613281,85.8105469 111.371094,85.8105469 Z M127.582031,85.8105469 L130.462891,85.8105469 C132.171875,85.8105469 132.708984,85.3222656 132.708984,83.6132812 L132.708984,80.7324219 C132.708984,79.0234375 132.171875,78.5351562 130.462891,78.5351562 L127.582031,78.5351562 C125.873047,78.5351562 125.287109,79.0234375 125.287109,80.7324219 L125.287109,83.6132812 C125.287109,85.3222656 125.873047,85.8105469 127.582031,85.8105469 Z M78.9003906,101.826172 L81.78125,101.826172 C83.4902344,101.826172 84.0273438,101.289062 84.0273438,99.5800781 L84.0273438,96.6992188 C84.0273438,95.0512695 83.5279142,94.5383874 81.9599002,94.5038549 L78.9003906,94.5019531 C77.1914062,94.5019531 76.6054688,94.9902344 76.6054688,96.6992188 L76.6054688,99.5800781 C76.6054688,101.289062 77.1914062,101.826172 78.9003906,101.826172 Z M95.1113281,101.826172 L97.9921875,101.826172 C99.7011719,101.826172 100.287109,101.289062 100.287109,99.5800781 L100.287109,96.6992188 C100.287109,95.0512695 99.7422772,94.5383874 98.1710201,94.5038549 L95.1113281,94.5019531 C93.4023438,94.5019531 92.8164062,94.9902344 92.8164062,96.6992188 L92.8164062,99.5800781 C92.8164062,101.289062 93.4023438,101.826172 95.1113281,101.826172 Z M111.371094,101.826172 C109.613281,101.826172 109.076172,101.289062 109.076172,99.5800781 L109.076172,96.6992188 C109.076172,95.0512695 109.575601,94.5383874 111.187397,94.5038549 L114.203125,94.5019531 C115.912109,94.5019531 116.498047,94.9902344 116.498047,96.6992188 L116.498047,99.5800781 C116.498047,101.289062 115.912109,101.826172 114.203125,101.826172 L111.371094,101.826172 Z" fill="#007AFF" fill-rule="nonzero"></path>
        <path d="M52.4765625,178.375 C57.8046875,178.375 61.4921875,175.453125 62.1953125,170.625 L58.2421875,170.625 C57.6171875,173.34375 55.4765625,174.953125 52.4921875,174.953125 C48.5859375,174.953125 46.1171875,171.78125 46.1171875,166.71875 C46.1171875,161.6875 48.6015625,158.5 52.4765625,158.5 C55.3984375,158.5 57.6953125,160.359375 58.2265625,163.1875 L62.1953125,163.1875 C61.6953125,158.34375 57.7109375,155.078125 52.4765625,155.078125 C46.0703125,155.078125 41.9921875,159.53125 41.9921875,166.71875 C41.9921875,173.953125 46.0390625,178.375 52.4765625,178.375 Z M69.7265625,178.265625 C71.8515625,178.265625 73.9296875,177.15625 74.8828125,175.359375 L74.9609375,175.359375 L74.9609375,178 L78.7109375,178 L78.7109375,166.59375 C78.7109375,163.265625 76.0390625,161.09375 71.9296875,161.09375 C67.7109375,161.09375 65.0703125,163.3125 64.8984375,166.40625 L68.5078125,166.40625 C68.7578125,165.03125 69.9296875,164.140625 71.7734375,164.140625 C73.6953125,164.140625 74.8671875,165.140625 74.8671875,166.875 L74.8671875,168.0625 L70.4921875,168.3125 C66.4609375,168.5625 64.1953125,170.328125 64.1953125,173.265625 C64.1953125,176.25 66.5234375,178.265625 69.7265625,178.265625 Z M70.8984375,175.328125 C69.2109375,175.328125 68.0859375,174.46875 68.0859375,173.109375 C68.0859375,171.796875 69.1640625,170.953125 71.0390625,170.828125 L74.8671875,170.59375 L74.8671875,171.859375 C74.8671875,173.859375 73.1015625,175.328125 70.8984375,175.328125 Z M81.9453125,178 L85.8359375,178 L85.8359375,155.453125 L81.9453125,155.453125 L81.9453125,178 Z M100.117188,173.046875 C99.6953125,174.421875 98.3203125,175.328125 96.5078125,175.328125 C93.9609375,175.328125 92.3359375,173.546875 92.3359375,170.890625 L92.3359375,170.65625 L103.914062,170.65625 L103.914062,169.390625 C103.914062,164.359375 100.976562,161.09375 96.2734375,161.09375 C91.4921875,161.09375 88.4609375,164.546875 88.4609375,169.78125 C88.4609375,175.0625 91.4609375,178.328125 96.4296875,178.328125 C100.351562,178.328125 103.257812,176.171875 103.757812,173.046875 L100.117188,173.046875 Z M96.2890625,164.109375 C98.5234375,164.109375 100.023438,165.75 100.101562,168.09375 L92.3671875,168.09375 C92.5234375,165.78125 94.1015625,164.109375 96.2890625,164.109375 Z M106.414062,178 L110.304688,178 L110.304688,168.40625 C110.304688,166.03125 111.726562,164.421875 113.960938,164.421875 C116.179688,164.421875 117.273438,165.734375 117.273438,168.078125 L117.273438,178 L121.164062,178 L121.164062,167.296875 C121.164062,163.46875 119.085938,161.125 115.429688,161.125 C112.882812,161.125 111.117188,162.3125 110.226562,164.28125 L110.148438,164.28125 L110.148438,161.4375 L106.414062,161.4375 L106.414062,178 Z M130.460938,178.265625 C132.882812,178.265625 134.789062,177.03125 135.695312,175.171875 L135.757812,175.171875 L135.757812,178 L139.570312,178 L139.570312,155.453125 L135.679688,155.453125 L135.679688,164.21875 L135.585938,164.21875 C134.710938,162.390625 132.835938,161.15625 130.460938,161.15625 C126.289062,161.15625 123.585938,164.46875 123.585938,169.703125 C123.585938,174.96875 126.289062,178.265625 130.460938,178.265625 Z M131.632812,164.359375 C134.085938,164.359375 135.695312,166.46875 135.695312,169.71875 C135.695312,173 134.085938,175.078125 131.632812,175.078125 C129.117188,175.078125 127.570312,173.015625 127.570312,169.71875 C127.570312,166.4375 129.132812,164.359375 131.632812,164.359375 Z M147.710938,178.265625 C149.835938,178.265625 151.914062,177.15625 152.867188,175.359375 L152.945312,175.359375 L152.945312,178 L156.695312,178 L156.695312,166.59375 C156.695312,163.265625 154.023438,161.09375 149.914062,161.09375 C145.695312,161.09375 143.054688,163.3125 142.882812,166.40625 L146.492188,166.40625 C146.742188,165.03125 147.914062,164.140625 149.757812,164.140625 C151.679688,164.140625 152.851562,165.140625 152.851562,166.875 L152.851562,168.0625 L148.476562,168.3125 C144.445312,168.5625 142.179688,170.328125 142.179688,173.265625 C142.179688,176.25 144.507812,178.265625 147.710938,178.265625 Z M148.882812,175.328125 C147.195312,175.328125 146.070312,174.46875 146.070312,173.109375 C146.070312,171.796875 147.148438,170.953125 149.023438,170.828125 L152.851562,170.59375 L152.851562,171.859375 C152.851562,173.859375 151.085938,175.328125 148.882812,175.328125 Z M159.820312,178 L159.820312,161.4375 L163.554688,161.4375 L163.554688,164.328125 L163.632812,164.328125 C164.195312,162.3125 165.648438,161.15625 167.601562,161.15625 C168.101562,161.15625 168.539062,161.25 168.820312,161.3125 L168.820312,164.828125 C168.492188,164.703125 167.898438,164.609375 167.242188,164.609375 C165.039062,164.609375 163.710938,166.03125 163.710938,168.359375 L163.710938,178 L159.820312,178 Z" fill="#007AFF" fill-rule="nonzero"></path>
    </g>
</svg>