<?xml version="1.0" encoding="UTF-8"?>
<svg width="190px" height="190px" viewBox="0 0 190 190" version="1.1" xmlns="http://www.w3.org/2000/svg" xmlns:xlink="http://www.w3.org/1999/xlink">
    <!-- Generator: Sketch 59.1 (86144) - https://sketch.com -->
    <title>Calendar</title>
    <desc>Created with Sketch.</desc>
    <g id="Calendar" stroke="none" stroke-width="1" fill="none" fill-rule="evenodd">
        <path d="M61.3320312,119.892578 L128.03125,119.892578 C138.236328,119.892578 143.314453,114.814453 143.314453,104.755859 L143.314453,45.1367188 C143.314453,35.078125 138.236328,30 128.03125,30 L61.3320312,30 C51.1269531,30 46,35.0292969 46,45.1367188 L46,104.755859 C46,114.863281 51.1269531,119.892578 61.3320312,119.892578 Z M60.5996094,112.03125 C56.2539062,112.03125 53.8613281,109.736328 53.8613281,105.195312 L53.8613281,59.1503906 C53.8613281,54.6582031 56.2539062,52.3144531 60.5996094,52.3144531 L128.666016,52.3144531 C133.011719,52.3144531 135.453125,54.6582031 135.453125,59.1503906 L135.453125,105.195312 C135.453125,109.736328 133.011719,112.03125 128.666016,112.03125 L60.5996094,112.03125 Z M85.1113281,69.84375 L87.9921875,69.84375 C89.7011719,69.84375 90.2871094,69.3554688 90.2871094,67.6464844 L90.2871094,64.765625 C90.2871094,63.0566406 89.7011719,62.5195312 87.9921875,62.5195312 L85.1113281,62.5195312 C83.4023438,62.5195312 82.8164062,63.0566406 82.8164062,64.765625 L82.8164062,67.6464844 C82.8164062,69.3554688 83.4023438,69.84375 85.1113281,69.84375 Z M101.371094,69.84375 L104.203125,69.84375 C105.912109,69.84375 106.498047,69.3554688 106.498047,67.6464844 L106.498047,64.765625 C106.498047,63.0566406 105.912109,62.5195312 104.203125,62.5195312 L101.371094,62.5195312 C99.6132812,62.5195312 99.0761719,63.0566406 99.0761719,64.765625 L99.0761719,67.6464844 C99.0761719,69.3554688 99.6132812,69.84375 101.371094,69.84375 Z M117.582031,69.84375 L120.462891,69.84375 C122.171875,69.84375 122.708984,69.3554688 122.708984,67.6464844 L122.708984,64.765625 C122.708984,63.0566406 122.171875,62.5195312 120.462891,62.5195312 L117.582031,62.5195312 C115.873047,62.5195312 115.287109,63.0566406 115.287109,64.765625 L115.287109,67.6464844 C115.287109,69.3554688 115.873047,69.84375 117.582031,69.84375 Z M68.9003906,85.8105469 L71.78125,85.8105469 C73.4902344,85.8105469 74.0273438,85.3222656 74.0273438,83.6132812 L74.0273438,80.7324219 C74.0273438,79.0234375 73.4902344,78.5351562 71.78125,78.5351562 L68.9003906,78.5351562 C67.1914062,78.5351562 66.6054688,79.0234375 66.6054688,80.7324219 L66.6054688,83.6132812 C66.6054688,85.3222656 67.1914062,85.8105469 68.9003906,85.8105469 Z M85.1113281,85.8105469 L87.9921875,85.8105469 C89.7011719,85.8105469 90.2871094,85.3222656 90.2871094,83.6132812 L90.2871094,80.7324219 C90.2871094,79.0234375 89.7011719,78.5351562 87.9921875,78.5351562 L85.1113281,78.5351562 C83.4023438,78.5351562 82.8164062,79.0234375 82.8164062,80.7324219 L82.8164062,83.6132812 C82.8164062,85.3222656 83.4023438,85.8105469 85.1113281,85.8105469 Z M101.371094,85.8105469 L104.203125,85.8105469 C105.912109,85.8105469 106.498047,85.3222656 106.498047,83.6132812 L106.498047,80.7324219 C106.498047,79.0234375 105.912109,78.5351562 104.203125,78.5351562 L101.371094,78.5351562 C99.6132812,78.5351562 99.0761719,79.0234375 99.0761719,80.7324219 L99.0761719,83.6132812 C99.0761719,85.3222656 99.6132812,85.8105469 101.371094,85.8105469 Z M117.582031,85.8105469 L120.462891,85.8105469 C122.171875,85.8105469 122.708984,85.3222656 122.708984,83.6132812 L122.708984,80.7324219 C122.708984,79.0234375 122.171875,78.5351562 120.462891,78.5351562 L117.582031,78.5351562 C115.873047,78.5351562 115.287109,79.0234375 115.287109,80.7324219 L115.287109,83.6132812 C115.287109,85.3222656 115.873047,85.8105469 117.582031,85.8105469 Z M68.9003906,101.826172 L71.78125,101.826172 C73.4902344,101.826172 74.0273438,101.289062 74.0273438,99.5800781 L74.0273438,96.6992188 C74.0273438,95.0512695 73.5279142,94.5383874 71.9599002,94.5038549 L68.9003906,94.5019531 C67.1914062,94.5019531 66.6054688,94.9902344 66.6054688,96.6992188 L66.6054688,99.5800781 C66.6054688,101.289062 67.1914062,101.826172 68.9003906,101.826172 Z M85.1113281,101.826172 L87.9921875,101.826172 C89.7011719,101.826172 90.2871094,101.289062 90.2871094,99.5800781 L90.2871094,96.6992188 C90.2871094,95.0512695 89.7422772,94.5383874 88.1710201,94.5038549 L85.1113281,94.5019531 C83.4023438,94.5019531 82.8164062,94.9902344 82.8164062,96.6992188 L82.8164062,99.5800781 C82.8164062,101.289062 83.4023438,101.826172 85.1113281,101.826172 Z M101.371094,101.826172 C99.6132812,101.826172 99.0761719,101.289062 99.0761719,99.5800781 L99.0761719,96.6992188 C99.0761719,95.0512695 99.5756014,94.5383874 101.187397,94.5038549 L104.203125,94.5019531 C105.912109,94.5019531 106.498047,94.9902344 106.498047,96.6992188 L106.498047,99.5800781 C106.498047,101.289062 105.912109,101.826172 104.203125,101.826172 L101.371094,101.826172 Z" fill="#007AFF" fill-rule="nonzero"></path>
        <path d="M51.7695312,165.1875 C55.671875,165.1875 58.53125,162.878906 58.9296875,159.457031 L55.953125,159.457031 C55.5429688,161.355469 53.9140625,162.5625 51.7695312,162.5625 C48.8867188,162.5625 47.09375,160.160156 47.09375,156.304688 C47.09375,152.460938 48.8867188,150.058594 51.7578125,150.058594 C53.890625,150.058594 55.5195312,151.382812 55.9414062,153.421875 L58.9179688,153.421875 C58.5664062,149.917969 55.6015625,147.433594 51.7578125,147.433594 C46.9648438,147.433594 44,150.820312 44,156.316406 C44,161.789062 46.9765625,165.1875 51.7695312,165.1875 Z M65.2733603,164.976562 C66.9491416,164.976562 68.3553916,164.25 69.0702353,163.007812 L69.2694541,163.007812 L69.2694541,164.765625 L72.0702353,164.765625 L72.0702353,156.011719 C72.0702353,153.304688 70.2186728,151.710938 66.9257041,151.710938 C63.8788291,151.710938 61.7577353,153.140625 61.5233603,155.378906 L64.2655478,155.378906 C64.5350791,154.5 65.4491416,154.019531 66.7850791,154.019531 C68.3553916,154.019531 69.1991416,154.734375 69.1991416,156.011719 L69.1991416,157.113281 L65.8944541,157.3125 C62.7772666,157.488281 61.0311728,158.835938 61.0311728,161.132812 C61.0311728,163.476562 62.8007041,164.976562 65.2733603,164.976562 Z M66.1288291,162.738281 C64.8397666,162.738281 63.9139853,162.09375 63.9139853,160.992188 C63.9139853,159.925781 64.6757041,159.328125 66.3046103,159.222656 L69.1991416,159.023438 L69.1991416,160.066406 C69.1991416,161.589844 67.8866416,162.738281 66.1288291,162.738281 Z M75.4490644,164.765625 L78.3553144,164.765625 L78.3553144,147 L75.4490644,147 L75.4490644,164.765625 Z M90.148206,161.261719 C89.726331,162.222656 88.7302372,162.761719 87.288831,162.761719 C85.3786747,162.761719 84.148206,161.402344 84.0778935,159.234375 L84.0778935,159.082031 L93.0310185,159.082031 L93.0310185,158.15625 C93.0310185,154.136719 90.8396122,151.710938 87.1833622,151.710938 C83.4685185,151.710938 81.1599247,154.300781 81.1599247,158.414062 C81.1599247,162.515625 83.4333622,165.023438 87.2067997,165.023438 C90.2302372,165.023438 92.3747685,163.570312 92.9021122,161.261719 L90.148206,161.261719 Z M87.1716435,153.972656 C88.9177372,153.972656 90.0661747,155.203125 90.1247685,157.148438 L84.0896122,157.148438 C84.2185185,155.226562 85.4372685,153.972656 87.1716435,153.972656 Z M95.7184413,164.765625 L98.6246913,164.765625 L98.6246913,157.300781 C98.6246913,155.378906 99.7145351,154.171875 101.44891,154.171875 C103.218441,154.171875 104.038754,155.167969 104.038754,157.160156 L104.038754,164.765625 L106.945004,164.765625 L106.945004,156.480469 C106.945004,153.433594 105.38641,151.710938 102.527035,151.710938 C100.616879,151.710938 99.3278163,152.578125 98.7184413,154.007812 L98.5192226,154.007812 L98.5192226,151.957031 L95.7184413,151.957031 L95.7184413,164.765625 Z M114.800395,164.976562 C116.581645,164.976562 118.058208,164.144531 118.78477,162.738281 L118.983989,162.738281 L118.983989,164.765625 L121.796489,164.765625 L121.796489,147 L118.890239,147 L118.890239,153.996094 L118.69102,153.996094 C118.011333,152.589844 116.558208,151.746094 114.800395,151.746094 C111.56602,151.746094 109.526958,154.300781 109.526958,158.355469 C109.526958,162.421875 111.554302,164.976562 114.800395,164.976562 Z M115.702739,154.171875 C117.694927,154.171875 118.925395,155.777344 118.925395,158.367188 C118.925395,160.96875 117.706645,162.5625 115.702739,162.5625 C113.710552,162.5625 112.50352,160.992188 112.50352,158.367188 C112.50352,155.753906 113.72227,154.171875 115.702739,154.171875 Z M128.761256,164.976562 C130.437037,164.976562 131.843287,164.25 132.558131,163.007812 L132.757349,163.007812 L132.757349,164.765625 L135.558131,164.765625 L135.558131,156.011719 C135.558131,153.304688 133.706568,151.710938 130.413599,151.710938 C127.366724,151.710938 125.245631,153.140625 125.011256,155.378906 L127.753443,155.378906 C128.022974,154.5 128.937037,154.019531 130.272974,154.019531 C131.843287,154.019531 132.687037,154.734375 132.687037,156.011719 L132.687037,157.113281 L129.382349,157.3125 C126.265162,157.488281 124.519068,158.835938 124.519068,161.132812 C124.519068,163.476562 126.288599,164.976562 128.761256,164.976562 Z M129.616724,162.738281 C128.327662,162.738281 127.401881,162.09375 127.401881,160.992188 C127.401881,159.925781 128.163599,159.328125 129.792506,159.222656 L132.687037,159.023438 L132.687037,160.066406 C132.687037,161.589844 131.374537,162.738281 129.616724,162.738281 Z M138.819772,164.765625 L138.819772,151.957031 L141.620554,151.957031 L141.620554,153.949219 L141.819772,153.949219 C142.171335,152.683594 143.554147,151.746094 145.206491,151.746094 C145.628366,151.746094 146.143991,151.792969 146.413522,151.863281 L146.413522,154.511719 C146.190866,154.429688 145.417429,154.347656 144.925241,154.347656 C143.038522,154.347656 141.726022,155.519531 141.726022,157.324219 L141.726022,164.765625 L138.819772,164.765625 Z" fill="#007AFF" fill-rule="nonzero"></path>
    </g>
</svg>