<?xml version="1.0" encoding="UTF-8"?>
<svg width="160px" height="190px" viewBox="0 0 160 190" version="1.1" xmlns="http://www.w3.org/2000/svg" xmlns:xlink="http://www.w3.org/1999/xlink">
    <!-- Generator: Sketch 59.1 (86144) - https://sketch.com -->
    <title>Calendar</title>
    <desc>Created with Sketch.</desc>
    <g id="Calendar" stroke="none" stroke-width="1" fill="none" fill-rule="evenodd">
        <path d="M46.3320312,119.892578 L113.03125,119.892578 C123.236328,119.892578 128.314453,114.814453 128.314453,104.755859 L128.314453,45.1367188 C128.314453,35.078125 123.236328,30 113.03125,30 L46.3320312,30 C36.1269531,30 31,35.0292969 31,45.1367188 L31,104.755859 C31,114.863281 36.1269531,119.892578 46.3320312,119.892578 Z M45.5996094,112.03125 C41.2539062,112.03125 38.8613281,109.736328 38.8613281,105.195312 L38.8613281,59.1503906 C38.8613281,54.6582031 41.2539062,52.3144531 45.5996094,52.3144531 L113.666016,52.3144531 C118.011719,52.3144531 120.453125,54.6582031 120.453125,59.1503906 L120.453125,105.195312 C120.453125,109.736328 118.011719,112.03125 113.666016,112.03125 L45.5996094,112.03125 Z M70.1113281,69.84375 L72.9921875,69.84375 C74.7011719,69.84375 75.2871094,69.3554688 75.2871094,67.6464844 L75.2871094,64.765625 C75.2871094,63.0566406 74.7011719,62.5195312 72.9921875,62.5195312 L70.1113281,62.5195312 C68.4023438,62.5195312 67.8164062,63.0566406 67.8164062,64.765625 L67.8164062,67.6464844 C67.8164062,69.3554688 68.4023438,69.84375 70.1113281,69.84375 Z M86.3710938,69.84375 L89.203125,69.84375 C90.9121094,69.84375 91.4980469,69.3554688 91.4980469,67.6464844 L91.4980469,64.765625 C91.4980469,63.0566406 90.9121094,62.5195312 89.203125,62.5195312 L86.3710938,62.5195312 C84.6132812,62.5195312 84.0761719,63.0566406 84.0761719,64.765625 L84.0761719,67.6464844 C84.0761719,69.3554688 84.6132812,69.84375 86.3710938,69.84375 Z M102.582031,69.84375 L105.462891,69.84375 C107.171875,69.84375 107.708984,69.3554688 107.708984,67.6464844 L107.708984,64.765625 C107.708984,63.0566406 107.171875,62.5195312 105.462891,62.5195312 L102.582031,62.5195312 C100.873047,62.5195312 100.287109,63.0566406 100.287109,64.765625 L100.287109,67.6464844 C100.287109,69.3554688 100.873047,69.84375 102.582031,69.84375 Z M53.9003906,85.8105469 L56.78125,85.8105469 C58.4902344,85.8105469 59.0273438,85.3222656 59.0273438,83.6132812 L59.0273438,80.7324219 C59.0273438,79.0234375 58.4902344,78.5351562 56.78125,78.5351562 L53.9003906,78.5351562 C52.1914062,78.5351562 51.6054688,79.0234375 51.6054688,80.7324219 L51.6054688,83.6132812 C51.6054688,85.3222656 52.1914062,85.8105469 53.9003906,85.8105469 Z M70.1113281,85.8105469 L72.9921875,85.8105469 C74.7011719,85.8105469 75.2871094,85.3222656 75.2871094,83.6132812 L75.2871094,80.7324219 C75.2871094,79.0234375 74.7011719,78.5351562 72.9921875,78.5351562 L70.1113281,78.5351562 C68.4023438,78.5351562 67.8164062,79.0234375 67.8164062,80.7324219 L67.8164062,83.6132812 C67.8164062,85.3222656 68.4023438,85.8105469 70.1113281,85.8105469 Z M86.3710938,85.8105469 L89.203125,85.8105469 C90.9121094,85.8105469 91.4980469,85.3222656 91.4980469,83.6132812 L91.4980469,80.7324219 C91.4980469,79.0234375 90.9121094,78.5351562 89.203125,78.5351562 L86.3710938,78.5351562 C84.6132812,78.5351562 84.0761719,79.0234375 84.0761719,80.7324219 L84.0761719,83.6132812 C84.0761719,85.3222656 84.6132812,85.8105469 86.3710938,85.8105469 Z M102.582031,85.8105469 L105.462891,85.8105469 C107.171875,85.8105469 107.708984,85.3222656 107.708984,83.6132812 L107.708984,80.7324219 C107.708984,79.0234375 107.171875,78.5351562 105.462891,78.5351562 L102.582031,78.5351562 C100.873047,78.5351562 100.287109,79.0234375 100.287109,80.7324219 L100.287109,83.6132812 C100.287109,85.3222656 100.873047,85.8105469 102.582031,85.8105469 Z M53.9003906,101.826172 L56.78125,101.826172 C58.4902344,101.826172 59.0273438,101.289062 59.0273438,99.5800781 L59.0273438,96.6992188 C59.0273438,95.0512695 58.5279142,94.5383874 56.9599002,94.5038549 L53.9003906,94.5019531 C52.1914062,94.5019531 51.6054688,94.9902344 51.6054688,96.6992188 L51.6054688,99.5800781 C51.6054688,101.289062 52.1914062,101.826172 53.9003906,101.826172 Z M70.1113281,101.826172 L72.9921875,101.826172 C74.7011719,101.826172 75.2871094,101.289062 75.2871094,99.5800781 L75.2871094,96.6992188 C75.2871094,95.0512695 74.7422772,94.5383874 73.1710201,94.5038549 L70.1113281,94.5019531 C68.4023438,94.5019531 67.8164062,94.9902344 67.8164062,96.6992188 L67.8164062,99.5800781 C67.8164062,101.289062 68.4023438,101.826172 70.1113281,101.826172 Z M86.3710938,101.826172 C84.6132812,101.826172 84.0761719,101.289062 84.0761719,99.5800781 L84.0761719,96.6992188 C84.0761719,95.0512695 84.5756014,94.5383874 86.1873966,94.5038549 L89.203125,94.5019531 C90.9121094,94.5019531 91.4980469,94.9902344 91.4980469,96.6992188 L91.4980469,99.5800781 C91.4980469,101.289062 90.9121094,101.826172 89.203125,101.826172 L86.3710938,101.826172 Z" fill="#007AFF" fill-rule="nonzero"></path>
        <path d="M37.0647618,165.421875 C40.9671056,165.421875 43.8264806,163.113281 44.2249181,159.691406 L41.2483556,159.691406 C40.8381993,161.589844 39.2092931,162.796875 37.0647618,162.796875 C34.1819493,162.796875 32.3889806,160.394531 32.3889806,156.539062 C32.3889806,152.695312 34.1819493,150.292969 37.0530431,150.292969 C39.1858556,150.292969 40.8147618,151.617188 41.2366368,153.65625 L44.2131993,153.65625 C43.8616368,150.152344 40.8967931,147.667969 37.0530431,147.667969 C32.2600743,147.667969 29.2952306,151.054688 29.2952306,156.550781 C29.2952306,162.023438 32.2717931,165.421875 37.0647618,165.421875 Z M50.5685909,165.210938 C52.2443721,165.210938 53.6506221,164.484375 54.3654659,163.242188 L54.5646846,163.242188 L54.5646846,165 L57.3654659,165 L57.3654659,156.246094 C57.3654659,153.539062 55.5139034,151.945312 52.2209346,151.945312 C49.1740596,151.945312 47.0529659,153.375 46.8185909,155.613281 L49.5607784,155.613281 C49.8303096,154.734375 50.7443721,154.253906 52.0803096,154.253906 C53.6506221,154.253906 54.4943721,154.96875 54.4943721,156.246094 L54.4943721,157.347656 L51.1896846,157.546875 C48.0724971,157.722656 46.3264034,159.070312 46.3264034,161.367188 C46.3264034,163.710938 48.0959346,165.210938 50.5685909,165.210938 Z M51.4240596,162.972656 C50.1349971,162.972656 49.2092159,162.328125 49.2092159,161.226562 C49.2092159,160.160156 49.9709346,159.5625 51.5998409,159.457031 L54.4943721,159.257812 L54.4943721,160.300781 C54.4943721,161.824219 53.1818721,162.972656 51.4240596,162.972656 Z M60.744295,165 L63.650545,165 L63.650545,147.234375 L60.744295,147.234375 L60.744295,165 Z M75.4434365,161.496094 C75.0215615,162.457031 74.0254678,162.996094 72.5840615,162.996094 C70.6739053,162.996094 69.4434365,161.636719 69.373124,159.46875 L69.373124,159.316406 L78.326249,159.316406 L78.326249,158.390625 C78.326249,154.371094 76.1348428,151.945312 72.4785928,151.945312 C68.763749,151.945312 66.4551553,154.535156 66.4551553,158.648438 C66.4551553,162.75 68.7285928,165.257812 72.5020303,165.257812 C75.5254678,165.257812 77.669999,163.804688 78.1973428,161.496094 L75.4434365,161.496094 Z M72.466874,154.207031 C74.2129678,154.207031 75.3614053,155.4375 75.419999,157.382812 L69.3848428,157.382812 C69.513749,155.460938 70.732499,154.207031 72.466874,154.207031 Z M81.0136719,165 L83.9199219,165 L83.9199219,157.535156 C83.9199219,155.613281 85.0097656,154.40625 86.7441406,154.40625 C88.5136719,154.40625 89.3339844,155.402344 89.3339844,157.394531 L89.3339844,165 L92.2402344,165 L92.2402344,156.714844 C92.2402344,153.667969 90.6816406,151.945312 87.8222656,151.945312 C85.9121094,151.945312 84.6230469,152.8125 84.0136719,154.242188 L83.8144531,154.242188 L83.8144531,152.191406 L81.0136719,152.191406 L81.0136719,165 Z M100.095626,165.210938 C101.876876,165.210938 103.353438,164.378906 104.080001,162.972656 L104.27922,162.972656 L104.27922,165 L107.09172,165 L107.09172,147.234375 L104.18547,147.234375 L104.18547,154.230469 L103.986251,154.230469 C103.306563,152.824219 101.853438,151.980469 100.095626,151.980469 C96.861251,151.980469 94.8221885,154.535156 94.8221885,158.589844 C94.8221885,162.65625 96.8495322,165.210938 100.095626,165.210938 Z M100.99797,154.40625 C102.990157,154.40625 104.220626,156.011719 104.220626,158.601562 C104.220626,161.203125 103.001876,162.796875 100.99797,162.796875 C99.0057822,162.796875 97.798751,161.226562 97.798751,158.601562 C97.798751,155.988281 99.017501,154.40625 100.99797,154.40625 Z M114.056486,165.210938 C115.732268,165.210938 117.138518,164.484375 117.853361,163.242188 L118.05258,163.242188 L118.05258,165 L120.853361,165 L120.853361,156.246094 C120.853361,153.539062 119.001799,151.945312 115.70883,151.945312 C112.661955,151.945312 110.540861,153.375 110.306486,155.613281 L113.048674,155.613281 C113.318205,154.734375 114.232268,154.253906 115.568205,154.253906 C117.138518,154.253906 117.982268,154.96875 117.982268,156.246094 L117.982268,157.347656 L114.67758,157.546875 C111.560393,157.722656 109.814299,159.070312 109.814299,161.367188 C109.814299,163.710938 111.58383,165.210938 114.056486,165.210938 Z M114.911955,162.972656 C113.622893,162.972656 112.697111,162.328125 112.697111,161.226562 C112.697111,160.160156 113.45883,159.5625 115.087736,159.457031 L117.982268,159.257812 L117.982268,160.300781 C117.982268,161.824219 116.669768,162.972656 114.911955,162.972656 Z M124.115003,165 L124.115003,152.191406 L126.915784,152.191406 L126.915784,154.183594 L127.115003,154.183594 C127.466565,152.917969 128.849378,151.980469 130.501722,151.980469 C130.923597,151.980469 131.439222,152.027344 131.708753,152.097656 L131.708753,154.746094 C131.486097,154.664062 130.712659,154.582031 130.220472,154.582031 C128.333753,154.582031 127.021253,155.753906 127.021253,157.558594 L127.021253,165 L124.115003,165 Z" fill="#007AFF" fill-rule="nonzero"></path>
    </g>
</svg>