<?xml version="1.0" encoding="UTF-8"?>
<svg width="150px" height="190px" viewBox="0 0 150 190" version="1.1" xmlns="http://www.w3.org/2000/svg" xmlns:xlink="http://www.w3.org/1999/xlink">
    <!-- Generator: Sketch 59.1 (86144) - https://sketch.com -->
    <title>Calendar</title>
    <desc>Created with Sketch.</desc>
    <g id="Calendar" stroke="none" stroke-width="1" fill="none" fill-rule="evenodd">
        <path d="M41.3320312,119.892578 L108.03125,119.892578 C118.236328,119.892578 123.314453,114.814453 123.314453,104.755859 L123.314453,45.1367188 C123.314453,35.078125 118.236328,30 108.03125,30 L41.3320312,30 C31.1269531,30 26,35.0292969 26,45.1367188 L26,104.755859 C26,114.863281 31.1269531,119.892578 41.3320312,119.892578 Z M40.5996094,112.03125 C36.2539062,112.03125 33.8613281,109.736328 33.8613281,105.195312 L33.8613281,59.1503906 C33.8613281,54.6582031 36.2539062,52.3144531 40.5996094,52.3144531 L108.666016,52.3144531 C113.011719,52.3144531 115.453125,54.6582031 115.453125,59.1503906 L115.453125,105.195312 C115.453125,109.736328 113.011719,112.03125 108.666016,112.03125 L40.5996094,112.03125 Z M65.1113281,69.84375 L67.9921875,69.84375 C69.7011719,69.84375 70.2871094,69.3554688 70.2871094,67.6464844 L70.2871094,64.765625 C70.2871094,63.0566406 69.7011719,62.5195312 67.9921875,62.5195312 L65.1113281,62.5195312 C63.4023438,62.5195312 62.8164062,63.0566406 62.8164062,64.765625 L62.8164062,67.6464844 C62.8164062,69.3554688 63.4023438,69.84375 65.1113281,69.84375 Z M81.3710938,69.84375 L84.203125,69.84375 C85.9121094,69.84375 86.4980469,69.3554688 86.4980469,67.6464844 L86.4980469,64.765625 C86.4980469,63.0566406 85.9121094,62.5195312 84.203125,62.5195312 L81.3710938,62.5195312 C79.6132812,62.5195312 79.0761719,63.0566406 79.0761719,64.765625 L79.0761719,67.6464844 C79.0761719,69.3554688 79.6132812,69.84375 81.3710938,69.84375 Z M97.5820312,69.84375 L100.462891,69.84375 C102.171875,69.84375 102.708984,69.3554688 102.708984,67.6464844 L102.708984,64.765625 C102.708984,63.0566406 102.171875,62.5195312 100.462891,62.5195312 L97.5820312,62.5195312 C95.8730469,62.5195312 95.2871094,63.0566406 95.2871094,64.765625 L95.2871094,67.6464844 C95.2871094,69.3554688 95.8730469,69.84375 97.5820312,69.84375 Z M48.9003906,85.8105469 L51.78125,85.8105469 C53.4902344,85.8105469 54.0273438,85.3222656 54.0273438,83.6132812 L54.0273438,80.7324219 C54.0273438,79.0234375 53.4902344,78.5351562 51.78125,78.5351562 L48.9003906,78.5351562 C47.1914062,78.5351562 46.6054688,79.0234375 46.6054688,80.7324219 L46.6054688,83.6132812 C46.6054688,85.3222656 47.1914062,85.8105469 48.9003906,85.8105469 Z M65.1113281,85.8105469 L67.9921875,85.8105469 C69.7011719,85.8105469 70.2871094,85.3222656 70.2871094,83.6132812 L70.2871094,80.7324219 C70.2871094,79.0234375 69.7011719,78.5351562 67.9921875,78.5351562 L65.1113281,78.5351562 C63.4023438,78.5351562 62.8164062,79.0234375 62.8164062,80.7324219 L62.8164062,83.6132812 C62.8164062,85.3222656 63.4023438,85.8105469 65.1113281,85.8105469 Z M81.3710938,85.8105469 L84.203125,85.8105469 C85.9121094,85.8105469 86.4980469,85.3222656 86.4980469,83.6132812 L86.4980469,80.7324219 C86.4980469,79.0234375 85.9121094,78.5351562 84.203125,78.5351562 L81.3710938,78.5351562 C79.6132812,78.5351562 79.0761719,79.0234375 79.0761719,80.7324219 L79.0761719,83.6132812 C79.0761719,85.3222656 79.6132812,85.8105469 81.3710938,85.8105469 Z M97.5820312,85.8105469 L100.462891,85.8105469 C102.171875,85.8105469 102.708984,85.3222656 102.708984,83.6132812 L102.708984,80.7324219 C102.708984,79.0234375 102.171875,78.5351562 100.462891,78.5351562 L97.5820312,78.5351562 C95.8730469,78.5351562 95.2871094,79.0234375 95.2871094,80.7324219 L95.2871094,83.6132812 C95.2871094,85.3222656 95.8730469,85.8105469 97.5820312,85.8105469 Z M48.9003906,101.826172 L51.78125,101.826172 C53.4902344,101.826172 54.0273438,101.289062 54.0273438,99.5800781 L54.0273438,96.6992188 C54.0273438,95.0512695 53.5279142,94.5383874 51.9599002,94.5038549 L48.9003906,94.5019531 C47.1914062,94.5019531 46.6054688,94.9902344 46.6054688,96.6992188 L46.6054688,99.5800781 C46.6054688,101.289062 47.1914062,101.826172 48.9003906,101.826172 Z M65.1113281,101.826172 L67.9921875,101.826172 C69.7011719,101.826172 70.2871094,101.289062 70.2871094,99.5800781 L70.2871094,96.6992188 C70.2871094,95.0512695 69.7422772,94.5383874 68.1710201,94.5038549 L65.1113281,94.5019531 C63.4023438,94.5019531 62.8164062,94.9902344 62.8164062,96.6992188 L62.8164062,99.5800781 C62.8164062,101.289062 63.4023438,101.826172 65.1113281,101.826172 Z M81.3710938,101.826172 C79.6132812,101.826172 79.0761719,101.289062 79.0761719,99.5800781 L79.0761719,96.6992188 C79.0761719,95.0512695 79.5756014,94.5383874 81.1873966,94.5038549 L84.203125,94.5019531 C85.9121094,94.5019531 86.4980469,94.9902344 86.4980469,96.6992188 L86.4980469,99.5800781 C86.4980469,101.289062 85.9121094,101.826172 84.203125,101.826172 L81.3710938,101.826172 Z" fill="#007AFF" fill-rule="nonzero"></path>
        <path d="M35.6426983,168.386719 C39.2198468,168.386719 41.8409405,166.270508 42.2061749,163.133789 L39.4776593,163.133789 C39.1016827,164.874023 37.6085186,165.980469 35.6426983,165.980469 C33.0001202,165.980469 31.3565655,163.77832 31.3565655,160.244141 C31.3565655,156.720703 33.0001202,154.518555 35.6319561,154.518555 C37.5870343,154.518555 39.0801983,155.732422 39.4669171,157.601562 L42.1954327,157.601562 C41.8731671,154.389648 39.1553936,152.112305 35.6319561,152.112305 C31.2384014,152.112305 28.520628,155.216797 28.520628,160.254883 C28.520628,165.271484 31.2491436,168.386719 35.6426983,168.386719 Z M48.0212083,168.193359 C49.5573411,168.193359 50.8464036,167.527344 51.5016771,166.388672 L51.6842942,166.388672 L51.6842942,168 L54.2516771,168 L54.2516771,159.975586 C54.2516771,157.494141 52.5544114,156.033203 49.5358567,156.033203 C46.742888,156.033203 44.7985521,157.34375 44.5837083,159.395508 L47.0973802,159.395508 C47.3444505,158.589844 48.1823411,158.149414 49.4069505,158.149414 C50.8464036,158.149414 51.6198411,158.804688 51.6198411,159.975586 L51.6198411,160.985352 L48.5905442,161.167969 C45.7331224,161.329102 44.1325364,162.564453 44.1325364,164.669922 C44.1325364,166.818359 45.7546067,168.193359 48.0212083,168.193359 Z M48.805388,166.141602 C47.6237474,166.141602 46.7751146,165.550781 46.7751146,164.541016 C46.7751146,163.563477 47.4733567,163.015625 48.9665208,162.918945 L51.6198411,162.736328 L51.6198411,163.692383 C51.6198411,165.088867 50.4167161,166.141602 48.805388,166.141602 Z M57.3489371,168 L60.0129996,168 L60.0129996,151.714844 L57.3489371,151.714844 L57.3489371,168 Z M70.8231502,164.788086 C70.4364314,165.668945 69.5233455,166.163086 68.2020564,166.163086 C66.4510799,166.163086 65.3231502,164.916992 65.258697,162.929688 L65.258697,162.790039 L73.4657283,162.790039 L73.4657283,161.941406 C73.4657283,158.256836 71.4569392,156.033203 68.1053767,156.033203 C64.7001033,156.033203 62.5838924,158.407227 62.5838924,162.177734 C62.5838924,165.9375 64.6678767,168.236328 68.1268611,168.236328 C70.8983455,168.236328 72.8641658,166.904297 73.3475642,164.788086 L70.8231502,164.788086 Z M68.0946345,158.106445 C69.6952205,158.106445 70.7479549,159.234375 70.8016658,161.017578 L65.2694392,161.017578 C65.3876033,159.255859 66.5047908,158.106445 68.0946345,158.106445 Z M75.9291992,168 L78.5932617,168 L78.5932617,161.157227 C78.5932617,159.395508 79.5922852,158.289062 81.1821289,158.289062 C82.8041992,158.289062 83.5561523,159.202148 83.5561523,161.02832 L83.5561523,168 L86.2202148,168 L86.2202148,160.405273 C86.2202148,157.612305 84.7915039,156.033203 82.1704102,156.033203 C80.4194336,156.033203 79.237793,156.828125 78.6791992,158.138672 L78.496582,158.138672 L78.496582,156.258789 L75.9291992,156.258789 L75.9291992,168 Z M93.4209905,168.193359 C95.053803,168.193359 96.4073186,167.430664 97.0733342,166.141602 L97.2559514,166.141602 L97.2559514,168 L99.8340764,168 L99.8340764,151.714844 L97.1700139,151.714844 L97.1700139,158.12793 L96.9873967,158.12793 C96.3643498,156.838867 95.0323186,156.06543 93.4209905,156.06543 C90.4561467,156.06543 88.5870061,158.407227 88.5870061,162.124023 C88.5870061,165.851562 90.4454045,168.193359 93.4209905,168.193359 Z M94.2481389,158.289062 C96.0743108,158.289062 97.2022405,159.760742 97.2022405,162.134766 C97.2022405,164.519531 96.085053,165.980469 94.2481389,165.980469 C92.421967,165.980469 91.3155217,164.541016 91.3155217,162.134766 C91.3155217,159.739258 92.4327092,158.289062 94.2481389,158.289062 Z M106.218446,168.193359 C107.754579,168.193359 109.043641,167.527344 109.698915,166.388672 L109.881532,166.388672 L109.881532,168 L112.448915,168 L112.448915,159.975586 C112.448915,157.494141 110.751649,156.033203 107.733094,156.033203 C104.940125,156.033203 102.99579,157.34375 102.780946,159.395508 L105.294618,159.395508 C105.541688,158.589844 106.379579,158.149414 107.604188,158.149414 C109.043641,158.149414 109.817079,158.804688 109.817079,159.975586 L109.817079,160.985352 L106.787782,161.167969 C103.93036,161.329102 102.329774,162.564453 102.329774,164.669922 C102.329774,166.818359 103.951844,168.193359 106.218446,168.193359 Z M107.002625,166.141602 C105.820985,166.141602 104.972352,165.550781 104.972352,164.541016 C104.972352,163.563477 105.670594,163.015625 107.163758,162.918945 L109.817079,162.736328 L109.817079,163.692383 C109.817079,165.088867 108.613954,166.141602 107.002625,166.141602 Z M115.438753,168 L115.438753,156.258789 L118.006135,156.258789 L118.006135,158.084961 L118.188753,158.084961 C118.511018,156.924805 119.778596,156.06543 121.293245,156.06543 C121.679964,156.06543 122.15262,156.108398 122.39969,156.172852 L122.39969,158.600586 C122.195589,158.525391 121.486604,158.450195 121.035432,158.450195 C119.30594,158.450195 118.102815,159.524414 118.102815,161.178711 L118.102815,168 L115.438753,168 Z" fill="#007AFF" fill-rule="nonzero"></path>
    </g>
</svg>