<?xml version="1.0" encoding="UTF-8"?>
<svg width="160px" height="190px" viewBox="0 0 160 190" version="1.1" xmlns="http://www.w3.org/2000/svg" xmlns:xlink="http://www.w3.org/1999/xlink">
    <!-- Generator: Sketch 59.1 (86144) - https://sketch.com -->
    <title>Calendar</title>
    <desc>Created with Sketch.</desc>
    <g id="Calendar" stroke="none" stroke-width="1" fill="none" fill-rule="evenodd">
        <path d="M46.3320312,119.892578 L113.03125,119.892578 C123.236328,119.892578 128.314453,114.814453 128.314453,104.755859 L128.314453,45.1367188 C128.314453,35.078125 123.236328,30 113.03125,30 L46.3320312,30 C36.1269531,30 31,35.0292969 31,45.1367188 L31,104.755859 C31,114.863281 36.1269531,119.892578 46.3320312,119.892578 Z M45.5996094,112.03125 C41.2539062,112.03125 38.8613281,109.736328 38.8613281,105.195312 L38.8613281,59.1503906 C38.8613281,54.6582031 41.2539062,52.3144531 45.5996094,52.3144531 L113.666016,52.3144531 C118.011719,52.3144531 120.453125,54.6582031 120.453125,59.1503906 L120.453125,105.195312 C120.453125,109.736328 118.011719,112.03125 113.666016,112.03125 L45.5996094,112.03125 Z M70.1113281,69.84375 L72.9921875,69.84375 C74.7011719,69.84375 75.2871094,69.3554688 75.2871094,67.6464844 L75.2871094,64.765625 C75.2871094,63.0566406 74.7011719,62.5195312 72.9921875,62.5195312 L70.1113281,62.5195312 C68.4023438,62.5195312 67.8164062,63.0566406 67.8164062,64.765625 L67.8164062,67.6464844 C67.8164062,69.3554688 68.4023438,69.84375 70.1113281,69.84375 Z M86.3710938,69.84375 L89.203125,69.84375 C90.9121094,69.84375 91.4980469,69.3554688 91.4980469,67.6464844 L91.4980469,64.765625 C91.4980469,63.0566406 90.9121094,62.5195312 89.203125,62.5195312 L86.3710938,62.5195312 C84.6132812,62.5195312 84.0761719,63.0566406 84.0761719,64.765625 L84.0761719,67.6464844 C84.0761719,69.3554688 84.6132812,69.84375 86.3710938,69.84375 Z M102.582031,69.84375 L105.462891,69.84375 C107.171875,69.84375 107.708984,69.3554688 107.708984,67.6464844 L107.708984,64.765625 C107.708984,63.0566406 107.171875,62.5195312 105.462891,62.5195312 L102.582031,62.5195312 C100.873047,62.5195312 100.287109,63.0566406 100.287109,64.765625 L100.287109,67.6464844 C100.287109,69.3554688 100.873047,69.84375 102.582031,69.84375 Z M53.9003906,85.8105469 L56.78125,85.8105469 C58.4902344,85.8105469 59.0273438,85.3222656 59.0273438,83.6132812 L59.0273438,80.7324219 C59.0273438,79.0234375 58.4902344,78.5351562 56.78125,78.5351562 L53.9003906,78.5351562 C52.1914062,78.5351562 51.6054688,79.0234375 51.6054688,80.7324219 L51.6054688,83.6132812 C51.6054688,85.3222656 52.1914062,85.8105469 53.9003906,85.8105469 Z M70.1113281,85.8105469 L72.9921875,85.8105469 C74.7011719,85.8105469 75.2871094,85.3222656 75.2871094,83.6132812 L75.2871094,80.7324219 C75.2871094,79.0234375 74.7011719,78.5351562 72.9921875,78.5351562 L70.1113281,78.5351562 C68.4023438,78.5351562 67.8164062,79.0234375 67.8164062,80.7324219 L67.8164062,83.6132812 C67.8164062,85.3222656 68.4023438,85.8105469 70.1113281,85.8105469 Z M86.3710938,85.8105469 L89.203125,85.8105469 C90.9121094,85.8105469 91.4980469,85.3222656 91.4980469,83.6132812 L91.4980469,80.7324219 C91.4980469,79.0234375 90.9121094,78.5351562 89.203125,78.5351562 L86.3710938,78.5351562 C84.6132812,78.5351562 84.0761719,79.0234375 84.0761719,80.7324219 L84.0761719,83.6132812 C84.0761719,85.3222656 84.6132812,85.8105469 86.3710938,85.8105469 Z M102.582031,85.8105469 L105.462891,85.8105469 C107.171875,85.8105469 107.708984,85.3222656 107.708984,83.6132812 L107.708984,80.7324219 C107.708984,79.0234375 107.171875,78.5351562 105.462891,78.5351562 L102.582031,78.5351562 C100.873047,78.5351562 100.287109,79.0234375 100.287109,80.7324219 L100.287109,83.6132812 C100.287109,85.3222656 100.873047,85.8105469 102.582031,85.8105469 Z M53.9003906,101.826172 L56.78125,101.826172 C58.4902344,101.826172 59.0273438,101.289062 59.0273438,99.5800781 L59.0273438,96.6992188 C59.0273438,95.0512695 58.5279142,94.5383874 56.9599002,94.5038549 L53.9003906,94.5019531 C52.1914062,94.5019531 51.6054688,94.9902344 51.6054688,96.6992188 L51.6054688,99.5800781 C51.6054688,101.289062 52.1914062,101.826172 53.9003906,101.826172 Z M70.1113281,101.826172 L72.9921875,101.826172 C74.7011719,101.826172 75.2871094,101.289062 75.2871094,99.5800781 L75.2871094,96.6992188 C75.2871094,95.0512695 74.7422772,94.5383874 73.1710201,94.5038549 L70.1113281,94.5019531 C68.4023438,94.5019531 67.8164062,94.9902344 67.8164062,96.6992188 L67.8164062,99.5800781 C67.8164062,101.289062 68.4023438,101.826172 70.1113281,101.826172 Z M86.3710938,101.826172 C84.6132812,101.826172 84.0761719,101.289062 84.0761719,99.5800781 L84.0761719,96.6992188 C84.0761719,95.0512695 84.5756014,94.5383874 86.1873966,94.5038549 L89.203125,94.5019531 C90.9121094,94.5019531 91.4980469,94.9902344 91.4980469,96.6992188 L91.4980469,99.5800781 C91.4980469,101.289062 90.9121094,101.826172 89.203125,101.826172 L86.3710938,101.826172 Z" fill="#007AFF" fill-rule="nonzero"></path>
        <path d="M52.0859375,168.085938 C54.6015625,168.085938 56.453125,166.640625 56.765625,164.445312 L55.0234375,164.445312 C54.7109375,165.726562 53.578125,166.53125 52.0859375,166.53125 C50.0546875,166.53125 48.7890625,164.859375 48.7890625,162.179688 C48.7890625,159.5 50.0546875,157.820312 52.078125,157.820312 C53.5625,157.820312 54.6953125,158.710938 55.0234375,160.109375 L56.765625,160.109375 C56.484375,157.851562 54.5625,156.265625 52.078125,156.265625 C48.9453125,156.265625 47,158.53125 47,162.179688 C47,165.820312 48.953125,168.085938 52.0859375,168.085938 Z M61.0650527,167.953125 C62.1822402,167.953125 63.1119277,167.46875 63.6197402,166.609375 L63.7525527,166.609375 L63.7525527,167.8125 L65.3697402,167.8125 L65.3697402,162.007812 C65.3697402,160.226562 64.1666152,159.164062 62.0338027,159.164062 C60.1041152,159.164062 58.7291152,160.09375 58.5572402,161.523438 L60.1822402,161.523438 C60.3697402,160.90625 61.0181777,160.554688 61.9556777,160.554688 C63.1041152,160.554688 63.6978652,161.078125 63.6978652,162.007812 L63.6978652,162.75 L61.3931777,162.890625 C59.3697402,163.015625 58.2291152,163.898438 58.2291152,165.421875 C58.2291152,166.96875 59.4244277,167.953125 61.0650527,167.953125 Z M61.4947402,166.601562 C60.5806777,166.601562 59.9166152,166.140625 59.9166152,165.351562 C59.9166152,164.578125 60.4478652,164.164062 61.6197402,164.085938 L63.6978652,163.945312 L63.6978652,164.679688 C63.6978652,165.773438 62.7603652,166.601562 61.4947402,166.601562 Z M67.6847929,167.8125 L69.3644804,167.8125 L69.3644804,156 L67.6847929,156 L67.6847929,167.8125 Z M77.3045332,165.539062 C76.9920332,166.226562 76.2967207,166.601562 75.2810957,166.601562 C73.9373457,166.601562 73.0701582,165.632812 73.0154707,164.09375 L73.0154707,164.015625 L79.0232832,164.015625 L79.0232832,163.4375 C79.0232832,160.78125 77.5935957,159.164062 75.2264082,159.164062 C72.8279707,159.164062 71.3045332,160.890625 71.3045332,163.585938 C71.3045332,166.296875 72.7967207,167.976562 75.2342207,167.976562 C77.1795332,167.976562 78.5545332,167.039062 78.9217207,165.539062 L77.3045332,165.539062 Z M75.2185957,160.53125 C76.4607832,160.53125 77.2732832,161.429688 77.3123457,162.804688 L73.0154707,162.804688 C73.1092207,161.4375 73.9764082,160.53125 75.2185957,160.53125 Z M80.8852109,167.8125 L82.5648984,167.8125 L82.5648984,162.835938 C82.5648984,161.46875 83.3539609,160.625 84.5961484,160.625 C85.8383359,160.625 86.4320859,161.3125 86.4320859,162.71875 L86.4320859,167.8125 L88.1117734,167.8125 L88.1117734,162.320312 C88.1117734,160.296875 87.0648984,159.164062 85.1664609,159.164062 C83.8852109,159.164062 83.0414609,159.734375 82.6273984,160.671875 L82.5023984,160.671875 L82.5023984,159.328125 L80.8852109,159.328125 L80.8852109,167.8125 Z M93.4268261,167.953125 C94.5987011,167.953125 95.5908886,167.398438 96.0987011,166.46875 L96.2315136,166.46875 L96.2315136,167.8125 L97.8408886,167.8125 L97.8408886,156 L96.1612011,156 L96.1612011,160.671875 L96.0362011,160.671875 C95.5752636,159.742188 94.5908886,159.179688 93.4268261,159.179688 C91.2783886,159.179688 89.8955761,160.890625 89.8955761,163.5625 C89.8955761,166.25 91.2627636,167.953125 93.4268261,167.953125 Z M93.9033886,160.617188 C95.3096386,160.617188 96.1924511,161.757812 96.1924511,163.570312 C96.1924511,165.398438 95.3174511,166.515625 93.9033886,166.515625 C92.4815136,166.515625 91.6299511,165.414062 91.6299511,163.570312 C91.6299511,161.734375 92.4893261,160.617188 93.9033886,160.617188 Z M102.554379,167.953125 C103.671566,167.953125 104.601254,167.46875 105.109066,166.609375 L105.241879,166.609375 L105.241879,167.8125 L106.859066,167.8125 L106.859066,162.007812 C106.859066,160.226562 105.655941,159.164062 103.523129,159.164062 C101.593441,159.164062 100.218441,160.09375 100.046566,161.523438 L101.671566,161.523438 C101.859066,160.90625 102.507504,160.554688 103.445004,160.554688 C104.593441,160.554688 105.187191,161.078125 105.187191,162.007812 L105.187191,162.75 L102.882504,162.890625 C100.859066,163.015625 99.7184413,163.898438 99.7184413,165.421875 C99.7184413,166.96875 100.913754,167.953125 102.554379,167.953125 Z M102.984066,166.601562 C102.070004,166.601562 101.405941,166.140625 101.405941,165.351562 C101.405941,164.578125 101.937191,164.164062 103.109066,164.085938 L105.187191,163.945312 L105.187191,164.679688 C105.187191,165.773438 104.249691,166.601562 102.984066,166.601562 Z M109.095994,167.8125 L109.095994,159.328125 L110.713182,159.328125 L110.713182,160.617188 L110.838182,160.617188 C111.080369,159.78125 112.025682,159.179688 113.135057,159.179688 C113.385057,159.179688 113.705369,159.203125 113.885057,159.242188 L113.885057,160.820312 C113.744432,160.78125 113.244432,160.726562 112.947557,160.726562 C111.674119,160.726562 110.775682,161.546875 110.775682,162.742188 L110.775682,167.8125 L109.095994,167.8125 Z" fill="#007AFF" fill-rule="nonzero"></path>
    </g>
</svg>