<?xml version="1.0" encoding="UTF-8"?>
<svg width="220px" height="210px" viewBox="0 0 220 210" version="1.1" xmlns="http://www.w3.org/2000/svg" xmlns:xlink="http://www.w3.org/1999/xlink">
    <!-- Generator: Sketch 59.1 (86144) - https://sketch.com -->
    <title>Camera</title>
    <desc>Created with Sketch.</desc>
    <g id="Camera" stroke="none" stroke-width="1" fill="none" fill-rule="evenodd">
        <path d="M68.3320312,121.115234 L152.414062,121.115234 C162.619141,121.115234 167.746094,116.037109 167.746094,105.978516 L167.746094,54.8554688 C167.746094,44.796875 162.619141,39.7675781 152.414062,39.7675781 L141.037109,39.7675781 C137.228516,39.7675781 136.007812,38.9863281 133.859375,36.5449219 L129.904297,32.1503906 C127.462891,29.4648438 124.972656,28 119.943359,28 L100.460938,28 C95.4316406,28 92.9414062,29.4648438 90.5,32.1503906 L86.59375,36.5449219 C84.4453125,38.9375 83.2246094,39.7675781 79.4160156,39.7675781 L68.3320312,39.7675781 C58.1269531,39.7675781 53,44.796875 53,54.8554688 L53,105.978516 C53,116.037109 58.1269531,121.115234 68.3320312,121.115234 Z M110.373047,105.490234 C95.6269531,105.490234 83.7617188,93.625 83.7617188,78.78125 C83.7617188,63.9375 95.6269531,52.0722656 110.373047,52.0722656 C125.167969,52.0722656 137.033203,63.9375 137.033203,78.78125 C137.033203,93.625 125.167969,105.490234 110.373047,105.490234 Z M145.480469,66.8671875 C142.160156,66.8671875 139.425781,64.1816406 139.425781,60.8613281 C139.425781,57.4921875 142.160156,54.8066406 145.480469,54.8066406 C148.800781,54.8066406 151.535156,57.4921875 151.535156,60.8613281 C151.535156,64.1816406 148.800781,66.8671875 145.480469,66.8671875 Z M110.373047,98.0683594 C99.7773438,98.0683594 91.1347656,89.4746094 91.1347656,78.78125 C91.1347656,68.0878906 99.7285156,59.4941406 110.373047,59.4941406 C121.017578,59.4941406 129.660156,68.0878906 129.660156,78.78125 C129.660156,89.4746094 121.017578,98.0683594 110.373047,98.0683594 Z" fill="#007AFF" fill-rule="nonzero"></path>
        <path d="M66.484375,178.296875 C71.8125,178.296875 75.5,175.375 76.203125,170.546875 L72.25,170.546875 C71.625,173.265625 69.484375,174.875 66.5,174.875 C62.59375,174.875 60.125,171.703125 60.125,166.640625 C60.125,161.609375 62.609375,158.421875 66.484375,158.421875 C69.40625,158.421875 71.703125,160.28125 72.234375,163.109375 L76.203125,163.109375 C75.703125,158.265625 71.71875,155 66.484375,155 C60.078125,155 56,159.453125 56,166.640625 C56,173.875 60.046875,178.296875 66.484375,178.296875 Z M83.734375,178.1875 C85.859375,178.1875 87.9375,177.078125 88.890625,175.28125 L88.96875,175.28125 L88.96875,177.921875 L92.71875,177.921875 L92.71875,166.515625 C92.71875,163.1875 90.046875,161.015625 85.9375,161.015625 C81.71875,161.015625 79.078125,163.234375 78.90625,166.328125 L82.515625,166.328125 C82.765625,164.953125 83.9375,164.0625 85.78125,164.0625 C87.703125,164.0625 88.875,165.0625 88.875,166.796875 L88.875,167.984375 L84.5,168.234375 C80.46875,168.484375 78.203125,170.25 78.203125,173.1875 C78.203125,176.171875 80.53125,178.1875 83.734375,178.1875 Z M84.90625,175.25 C83.21875,175.25 82.09375,174.390625 82.09375,173.03125 C82.09375,171.71875 83.171875,170.875 85.046875,170.75 L88.875,170.515625 L88.875,171.78125 C88.875,173.78125 87.109375,175.25 84.90625,175.25 Z M95.84375,177.921875 L99.734375,177.921875 L99.734375,167.78125 C99.734375,165.78125 101.046875,164.328125 102.921875,164.328125 C104.734375,164.328125 105.859375,165.46875 105.859375,167.3125 L105.859375,177.921875 L109.640625,177.921875 L109.640625,167.6875 C109.640625,165.703125 110.921875,164.328125 112.796875,164.328125 C114.703125,164.328125 115.765625,165.484375 115.765625,167.515625 L115.765625,177.921875 L119.65625,177.921875 L119.65625,166.5625 C119.65625,163.25 117.515625,161.046875 114.25,161.046875 C111.859375,161.046875 109.890625,162.328125 109.09375,164.375 L109,164.375 C108.390625,162.25 106.71875,161.046875 104.375,161.046875 C102.125,161.046875 100.375,162.3125 99.65625,164.234375 L99.578125,164.234375 L99.578125,161.359375 L95.84375,161.359375 L95.84375,177.921875 Z M133.734375,172.96875 C133.3125,174.34375 131.9375,175.25 130.125,175.25 C127.578125,175.25 125.953125,173.46875 125.953125,170.8125 L125.953125,170.578125 L137.53125,170.578125 L137.53125,169.3125 C137.53125,164.28125 134.59375,161.015625 129.890625,161.015625 C125.109375,161.015625 122.078125,164.46875 122.078125,169.703125 C122.078125,174.984375 125.078125,178.25 130.046875,178.25 C133.96875,178.25 136.875,176.09375 137.375,172.96875 L133.734375,172.96875 Z M129.90625,164.03125 C132.140625,164.03125 133.640625,165.671875 133.71875,168.015625 L125.984375,168.015625 C126.140625,165.703125 127.71875,164.03125 129.90625,164.03125 Z M140.03125,177.921875 L143.921875,177.921875 L143.921875,168.28125 C143.921875,165.953125 145.25,164.53125 147.453125,164.53125 C148.109375,164.53125 148.703125,164.625 149.03125,164.75 L149.03125,161.234375 L148.7541,161.176066 C148.494898,161.125957 148.169643,161.078125 147.8125,161.078125 C145.859375,161.078125 144.40625,162.234375 143.84375,164.25 L143.765625,164.25 L143.765625,161.359375 L140.03125,161.359375 L140.03125,177.921875 Z M155.90625,178.1875 C158.03125,178.1875 160.109375,177.078125 161.0625,175.28125 L161.140625,175.28125 L161.140625,177.921875 L164.890625,177.921875 L164.890625,166.515625 C164.890625,163.1875 162.21875,161.015625 158.109375,161.015625 C153.890625,161.015625 151.25,163.234375 151.078125,166.328125 L154.6875,166.328125 C154.9375,164.953125 156.109375,164.0625 157.953125,164.0625 C159.875,164.0625 161.046875,165.0625 161.046875,166.796875 L161.046875,167.984375 L156.671875,168.234375 C152.640625,168.484375 150.375,170.25 150.375,173.1875 C150.375,176.171875 152.703125,178.1875 155.90625,178.1875 Z M157.078125,175.25 C155.390625,175.25 154.265625,174.390625 154.265625,173.03125 C154.265625,171.71875 155.34375,170.875 157.21875,170.75 L161.046875,170.515625 L161.046875,171.78125 C161.046875,173.78125 159.28125,175.25 157.078125,175.25 Z" fill="#007AFF" fill-rule="nonzero"></path>
    </g>
</svg>