<?xml version="1.0" encoding="UTF-8"?>
<svg width="160px" height="190px" viewBox="0 0 160 190" version="1.1" xmlns="http://www.w3.org/2000/svg" xmlns:xlink="http://www.w3.org/1999/xlink">
    <!-- Generator: Sketch 59.1 (86144) - https://sketch.com -->
    <title>Camera</title>
    <desc>Created with Sketch.</desc>
    <g id="Camera" stroke="none" stroke-width="1" fill="none" fill-rule="evenodd">
        <path d="M38.3320312,121.115234 L122.414062,121.115234 C132.619141,121.115234 137.746094,116.037109 137.746094,105.978516 L137.746094,54.8554688 C137.746094,44.796875 132.619141,39.7675781 122.414062,39.7675781 L111.037109,39.7675781 C107.228516,39.7675781 106.007812,38.9863281 103.859375,36.5449219 L99.9042969,32.1503906 C97.4628906,29.4648438 94.9726562,28 89.9433594,28 L70.4609375,28 C65.4316406,28 62.9414062,29.4648438 60.5,32.1503906 L56.59375,36.5449219 C54.4453125,38.9375 53.2246094,39.7675781 49.4160156,39.7675781 L38.3320312,39.7675781 C28.1269531,39.7675781 23,44.796875 23,54.8554688 L23,105.978516 C23,116.037109 28.1269531,121.115234 38.3320312,121.115234 Z M80.3730469,105.490234 C65.6269531,105.490234 53.7617188,93.625 53.7617188,78.78125 C53.7617188,63.9375 65.6269531,52.0722656 80.3730469,52.0722656 C95.1679688,52.0722656 107.033203,63.9375 107.033203,78.78125 C107.033203,93.625 95.1679688,105.490234 80.3730469,105.490234 Z M115.480469,66.8671875 C112.160156,66.8671875 109.425781,64.1816406 109.425781,60.8613281 C109.425781,57.4921875 112.160156,54.8066406 115.480469,54.8066406 C118.800781,54.8066406 121.535156,57.4921875 121.535156,60.8613281 C121.535156,64.1816406 118.800781,66.8671875 115.480469,66.8671875 Z M80.3730469,98.0683594 C69.7773438,98.0683594 61.1347656,89.4746094 61.1347656,78.78125 C61.1347656,68.0878906 69.7285156,59.4941406 80.3730469,59.4941406 C91.0175781,59.4941406 99.6601562,68.0878906 99.6601562,78.78125 C99.6601562,89.4746094 91.0175781,98.0683594 80.3730469,98.0683594 Z" fill="#007AFF" fill-rule="nonzero"></path>
        <path d="M44.3693721,165.421875 C48.2717159,165.421875 51.1310909,163.113281 51.5295284,159.691406 L48.5529659,159.691406 C48.1428096,161.589844 46.5139034,162.796875 44.3693721,162.796875 C41.4865596,162.796875 39.6935909,160.394531 39.6935909,156.539062 C39.6935909,152.695312 41.4865596,150.292969 44.3576534,150.292969 C46.4904659,150.292969 48.1193721,151.617188 48.5412471,153.65625 L51.5178096,153.65625 C51.1662471,150.152344 48.2014034,147.667969 44.3576534,147.667969 C39.5646846,147.667969 36.5998409,151.054688 36.5998409,156.550781 C36.5998409,162.023438 39.5764034,165.421875 44.3693721,165.421875 Z M57.8732012,165.210938 C59.5489825,165.210938 60.9552325,164.484375 61.6700762,163.242188 L61.869295,163.242188 L61.869295,165 L64.6700762,165 L64.6700762,156.246094 C64.6700762,153.539062 62.8185137,151.945312 59.525545,151.945312 C56.47867,151.945312 54.3575762,153.375 54.1232012,155.613281 L56.8653887,155.613281 C57.13492,154.734375 58.0489825,154.253906 59.38492,154.253906 C60.9552325,154.253906 61.7989825,154.96875 61.7989825,156.246094 L61.7989825,157.347656 L58.494295,157.546875 C55.3771075,157.722656 53.6310137,159.070312 53.6310137,161.367188 C53.6310137,163.710938 55.400545,165.210938 57.8732012,165.210938 Z M58.72867,162.972656 C57.4396075,162.972656 56.5138262,162.328125 56.5138262,161.226562 C56.5138262,160.160156 57.275545,159.5625 58.9044512,159.457031 L61.7989825,159.257812 L61.7989825,160.300781 C61.7989825,161.824219 60.4864825,162.972656 58.72867,162.972656 Z M67.9317178,165 L70.8379678,165 L70.8379678,157.207031 C70.8379678,155.613281 71.904374,154.40625 73.3457803,154.40625 C74.7754678,154.40625 75.6660928,155.273438 75.6660928,156.691406 L75.6660928,165 L78.4903115,165 L78.4903115,156.996094 C78.4903115,155.53125 79.4864053,154.40625 80.998124,154.40625 C82.5567178,154.40625 83.341874,155.238281 83.341874,156.902344 L83.341874,165 L86.2364053,165 L86.2364053,156.1875 C86.2364053,153.527344 84.6895303,151.945312 82.123124,151.945312 C80.341874,151.945312 78.8653115,152.859375 78.232499,154.253906 L78.0332803,154.253906 C77.4942178,152.835938 76.263749,151.945312 74.4942178,151.945312 C72.794999,151.945312 71.482499,152.8125 70.9317178,154.253906 L70.732499,154.253906 L70.732499,152.191406 L67.9317178,152.191406 L67.9317178,165 Z M97.8066406,161.496094 C97.3847656,162.457031 96.3886719,162.996094 94.9472656,162.996094 C93.0371094,162.996094 91.8066406,161.636719 91.7363281,159.46875 L91.7363281,159.316406 L100.689453,159.316406 L100.689453,158.390625 C100.689453,154.371094 98.4980469,151.945312 94.8417969,151.945312 C91.1269531,151.945312 88.8183594,154.535156 88.8183594,158.648438 C88.8183594,162.75 91.0917969,165.257812 94.8652344,165.257812 C97.8886719,165.257812 100.033203,163.804688 100.560547,161.496094 L97.8066406,161.496094 Z M94.8300781,154.207031 C96.5761719,154.207031 97.7246094,155.4375 97.7832031,157.382812 L91.7480469,157.382812 C91.8769531,155.460938 93.0957031,154.207031 94.8300781,154.207031 Z M103.376876,165 L106.283126,165 L106.283126,157.558594 C106.283126,155.753906 107.595626,154.582031 109.482345,154.582031 C109.974532,154.582031 110.74797,154.664062 110.970626,154.746094 L110.970626,152.097656 C110.701095,152.027344 110.18547,151.980469 109.763595,151.980469 C108.111251,151.980469 106.728438,152.917969 106.376876,154.183594 L106.177657,154.183594 L106.177657,152.191406 L103.376876,152.191406 L103.376876,165 Z M116.493986,165.210938 C118.169768,165.210938 119.576018,164.484375 120.290861,163.242188 L120.49008,163.242188 L120.49008,165 L123.290861,165 L123.290861,156.246094 C123.290861,153.539062 121.439299,151.945312 118.14633,151.945312 C115.099455,151.945312 112.978361,153.375 112.743986,155.613281 L115.486174,155.613281 C115.755705,154.734375 116.669768,154.253906 118.005705,154.253906 C119.576018,154.253906 120.419768,154.96875 120.419768,156.246094 L120.419768,157.347656 L117.11508,157.546875 C113.997893,157.722656 112.251799,159.070312 112.251799,161.367188 C112.251799,163.710938 114.02133,165.210938 116.493986,165.210938 Z M117.349455,162.972656 C116.060393,162.972656 115.134611,162.328125 115.134611,161.226562 C115.134611,160.160156 115.89633,159.5625 117.525236,159.457031 L120.419768,159.257812 L120.419768,160.300781 C120.419768,161.824219 119.107268,162.972656 117.349455,162.972656 Z" fill="#007AFF" fill-rule="nonzero"></path>
    </g>
</svg>