<?xml version="1.0" encoding="UTF-8"?>
<svg width="190px" height="190px" viewBox="0 0 190 190" version="1.1" xmlns="http://www.w3.org/2000/svg" xmlns:xlink="http://www.w3.org/1999/xlink">
    <!-- Generator: Sketch 59.1 (86144) - https://sketch.com -->
    <title>Camera</title>
    <desc>Created with Sketch.</desc>
    <g id="Camera" stroke="none" stroke-width="1" fill="none" fill-rule="evenodd">
        <path d="M53.3320312,121.115234 L137.414062,121.115234 C147.619141,121.115234 152.746094,116.037109 152.746094,105.978516 L152.746094,54.8554688 C152.746094,44.796875 147.619141,39.7675781 137.414062,39.7675781 L126.037109,39.7675781 C122.228516,39.7675781 121.007812,38.9863281 118.859375,36.5449219 L114.904297,32.1503906 C112.462891,29.4648438 109.972656,28 104.943359,28 L85.4609375,28 C80.4316406,28 77.9414062,29.4648438 75.5,32.1503906 L71.59375,36.5449219 C69.4453125,38.9375 68.2246094,39.7675781 64.4160156,39.7675781 L53.3320312,39.7675781 C43.1269531,39.7675781 38,44.796875 38,54.8554688 L38,105.978516 C38,116.037109 43.1269531,121.115234 53.3320312,121.115234 Z M95.3730469,105.490234 C80.6269531,105.490234 68.7617188,93.625 68.7617188,78.78125 C68.7617188,63.9375 80.6269531,52.0722656 95.3730469,52.0722656 C110.167969,52.0722656 122.033203,63.9375 122.033203,78.78125 C122.033203,93.625 110.167969,105.490234 95.3730469,105.490234 Z M130.480469,66.8671875 C127.160156,66.8671875 124.425781,64.1816406 124.425781,60.8613281 C124.425781,57.4921875 127.160156,54.8066406 130.480469,54.8066406 C133.800781,54.8066406 136.535156,57.4921875 136.535156,60.8613281 C136.535156,64.1816406 133.800781,66.8671875 130.480469,66.8671875 Z M95.3730469,98.0683594 C84.7773438,98.0683594 76.1347656,89.4746094 76.1347656,78.78125 C76.1347656,68.0878906 84.7285156,59.4941406 95.3730469,59.4941406 C106.017578,59.4941406 114.660156,68.0878906 114.660156,78.78125 C114.660156,89.4746094 106.017578,98.0683594 95.3730469,98.0683594 Z" fill="#007AFF" fill-rule="nonzero"></path>
        <path d="M59.7695312,165.753906 C63.671875,165.753906 66.53125,163.445312 66.9296875,160.023438 L63.953125,160.023438 C63.5429688,161.921875 61.9140625,163.128906 59.7695312,163.128906 C56.8867188,163.128906 55.09375,160.726562 55.09375,156.871094 C55.09375,153.027344 56.8867188,150.625 59.7578125,150.625 C61.890625,150.625 63.5195312,151.949219 63.9414062,153.988281 L66.9179688,153.988281 C66.5664062,150.484375 63.6015625,148 59.7578125,148 C54.9648438,148 52,151.386719 52,156.882812 C52,162.355469 54.9765625,165.753906 59.7695312,165.753906 Z M73.2733603,165.542969 C74.9491416,165.542969 76.3553916,164.816406 77.0702353,163.574219 L77.2694541,163.574219 L77.2694541,165.332031 L80.0702353,165.332031 L80.0702353,156.578125 C80.0702353,153.871094 78.2186728,152.277344 74.9257041,152.277344 C71.8788291,152.277344 69.7577353,153.707031 69.5233603,155.945312 L72.2655478,155.945312 C72.5350791,155.066406 73.4491416,154.585938 74.7850791,154.585938 C76.3553916,154.585938 77.1991416,155.300781 77.1991416,156.578125 L77.1991416,157.679688 L73.8944541,157.878906 C70.7772666,158.054688 69.0311728,159.402344 69.0311728,161.699219 C69.0311728,164.042969 70.8007041,165.542969 73.2733603,165.542969 Z M74.1288291,163.304688 C72.8397666,163.304688 71.9139853,162.660156 71.9139853,161.558594 C71.9139853,160.492188 72.6757041,159.894531 74.3046103,159.789062 L77.1991416,159.589844 L77.1991416,160.632812 C77.1991416,162.15625 75.8866416,163.304688 74.1288291,163.304688 Z M83.3318769,165.332031 L86.2381269,165.332031 L86.2381269,157.539062 C86.2381269,155.945312 87.3045332,154.738281 88.7459394,154.738281 C90.1756269,154.738281 91.0662519,155.605469 91.0662519,157.023438 L91.0662519,165.332031 L93.8904707,165.332031 L93.8904707,157.328125 C93.8904707,155.863281 94.8865644,154.738281 96.3982832,154.738281 C97.9568769,154.738281 98.7420332,155.570312 98.7420332,157.234375 L98.7420332,165.332031 L101.636564,165.332031 L101.636564,156.519531 C101.636564,153.859375 100.089689,152.277344 97.5232832,152.277344 C95.7420332,152.277344 94.2654707,153.191406 93.6326582,154.585938 L93.4334394,154.585938 C92.8943769,153.167969 91.6639082,152.277344 89.8943769,152.277344 C88.1951582,152.277344 86.8826582,153.144531 86.3318769,154.585938 L86.1326582,154.585938 L86.1326582,152.523438 L83.3318769,152.523438 L83.3318769,165.332031 Z M113.2068,161.828125 C112.784925,162.789062 111.788831,163.328125 110.347425,163.328125 C108.437268,163.328125 107.2068,161.96875 107.136487,159.800781 L107.136487,159.648438 L116.089612,159.648438 L116.089612,158.722656 C116.089612,154.703125 113.898206,152.277344 110.241956,152.277344 C106.527112,152.277344 104.218518,154.867188 104.218518,158.980469 C104.218518,163.082031 106.491956,165.589844 110.265393,165.589844 C113.288831,165.589844 115.433362,164.136719 115.960706,161.828125 L113.2068,161.828125 Z M110.230237,154.539062 C111.976331,154.539062 113.124768,155.769531 113.183362,157.714844 L107.148206,157.714844 C107.277112,155.792969 108.495862,154.539062 110.230237,154.539062 Z M118.777035,165.332031 L121.683285,165.332031 L121.683285,157.890625 C121.683285,156.085938 122.995785,154.914062 124.882504,154.914062 C125.374691,154.914062 126.148129,154.996094 126.370785,155.078125 L126.370785,152.429688 C126.101254,152.359375 125.585629,152.3125 125.163754,152.3125 C123.51141,152.3125 122.128598,153.25 121.777035,154.515625 L121.577816,154.515625 L121.577816,152.523438 L118.777035,152.523438 L118.777035,165.332031 Z M131.894145,165.542969 C133.569927,165.542969 134.976177,164.816406 135.69102,163.574219 L135.890239,163.574219 L135.890239,165.332031 L138.69102,165.332031 L138.69102,156.578125 C138.69102,153.871094 136.839458,152.277344 133.546489,152.277344 C130.499614,152.277344 128.37852,153.707031 128.144145,155.945312 L130.886333,155.945312 C131.155864,155.066406 132.069927,154.585938 133.405864,154.585938 C134.976177,154.585938 135.819927,155.300781 135.819927,156.578125 L135.819927,157.679688 L132.515239,157.878906 C129.398052,158.054688 127.651958,159.402344 127.651958,161.699219 C127.651958,164.042969 129.421489,165.542969 131.894145,165.542969 Z M132.749614,163.304688 C131.460552,163.304688 130.53477,162.660156 130.53477,161.558594 C130.53477,160.492188 131.296489,159.894531 132.925395,159.789062 L135.819927,159.589844 L135.819927,160.632812 C135.819927,162.15625 134.507427,163.304688 132.749614,163.304688 Z" fill="#007AFF" fill-rule="nonzero"></path>
    </g>
</svg>