<?xml version="1.0" encoding="UTF-8"?>
<svg width="150px" height="150px" viewBox="0 0 150 150" version="1.1" xmlns="http://www.w3.org/2000/svg" xmlns:xlink="http://www.w3.org/1999/xlink">
    <!-- Generator: Sketch 59.1 (86144) - https://sketch.com -->
    <title>Camera</title>
    <desc>Created with Sketch.</desc>
    <g id="Camera" stroke="none" stroke-width="1" fill="none" fill-rule="evenodd">
        <path d="M33.3320312,121.115234 L117.414062,121.115234 C127.619141,121.115234 132.746094,116.037109 132.746094,105.978516 L132.746094,54.8554688 C132.746094,44.796875 127.619141,39.7675781 117.414062,39.7675781 L106.037109,39.7675781 C102.228516,39.7675781 101.007812,38.9863281 98.859375,36.5449219 L94.9042969,32.1503906 C92.4628906,29.4648438 89.9726562,28 84.9433594,28 L65.4609375,28 C60.4316406,28 57.9414062,29.4648438 55.5,32.1503906 L51.59375,36.5449219 C49.4453125,38.9375 48.2246094,39.7675781 44.4160156,39.7675781 L33.3320312,39.7675781 C23.1269531,39.7675781 18,44.796875 18,54.8554688 L18,105.978516 C18,116.037109 23.1269531,121.115234 33.3320312,121.115234 Z M75.3730469,105.490234 C60.6269531,105.490234 48.7617188,93.625 48.7617188,78.78125 C48.7617188,63.9375 60.6269531,52.0722656 75.3730469,52.0722656 C90.1679688,52.0722656 102.033203,63.9375 102.033203,78.78125 C102.033203,93.625 90.1679688,105.490234 75.3730469,105.490234 Z M110.480469,66.8671875 C107.160156,66.8671875 104.425781,64.1816406 104.425781,60.8613281 C104.425781,57.4921875 107.160156,54.8066406 110.480469,54.8066406 C113.800781,54.8066406 116.535156,57.4921875 116.535156,60.8613281 C116.535156,64.1816406 113.800781,66.8671875 110.480469,66.8671875 Z M75.3730469,98.0683594 C64.7773438,98.0683594 56.1347656,89.4746094 56.1347656,78.78125 C56.1347656,68.0878906 64.7285156,59.4941406 75.3730469,59.4941406 C86.0175781,59.4941406 94.6601562,68.0878906 94.6601562,78.78125 C94.6601562,89.4746094 86.0175781,98.0683594 75.3730469,98.0683594 Z" fill="#007AFF" fill-rule="nonzero"></path>
    </g>
</svg>