<?xml version="1.0" encoding="UTF-8"?>
<svg width="190px" height="190px" viewBox="0 0 190 190" version="1.1" xmlns="http://www.w3.org/2000/svg" xmlns:xlink="http://www.w3.org/1999/xlink">
    <!-- Generator: Sketch 59.1 (86144) - https://sketch.com -->
    <title>Camera</title>
    <desc>Created with Sketch.</desc>
    <g id="Camera" stroke="none" stroke-width="1" fill="none" fill-rule="evenodd">
        <path d="M53.3320312,121.115234 L137.414062,121.115234 C147.619141,121.115234 152.746094,116.037109 152.746094,105.978516 L152.746094,54.8554688 C152.746094,44.796875 147.619141,39.7675781 137.414062,39.7675781 L126.037109,39.7675781 C122.228516,39.7675781 121.007812,38.9863281 118.859375,36.5449219 L114.904297,32.1503906 C112.462891,29.4648438 109.972656,28 104.943359,28 L85.4609375,28 C80.4316406,28 77.9414062,29.4648438 75.5,32.1503906 L71.59375,36.5449219 C69.4453125,38.9375 68.2246094,39.7675781 64.4160156,39.7675781 L53.3320312,39.7675781 C43.1269531,39.7675781 38,44.796875 38,54.8554688 L38,105.978516 C38,116.037109 43.1269531,121.115234 53.3320312,121.115234 Z M95.3730469,105.490234 C80.6269531,105.490234 68.7617188,93.625 68.7617188,78.78125 C68.7617188,63.9375 80.6269531,52.0722656 95.3730469,52.0722656 C110.167969,52.0722656 122.033203,63.9375 122.033203,78.78125 C122.033203,93.625 110.167969,105.490234 95.3730469,105.490234 Z M130.480469,66.8671875 C127.160156,66.8671875 124.425781,64.1816406 124.425781,60.8613281 C124.425781,57.4921875 127.160156,54.8066406 130.480469,54.8066406 C133.800781,54.8066406 136.535156,57.4921875 136.535156,60.8613281 C136.535156,64.1816406 133.800781,66.8671875 130.480469,66.8671875 Z M95.3730469,98.0683594 C84.7773438,98.0683594 76.1347656,89.4746094 76.1347656,78.78125 C76.1347656,68.0878906 84.7285156,59.4941406 95.3730469,59.4941406 C106.017578,59.4941406 114.660156,68.0878906 114.660156,78.78125 C114.660156,89.4746094 106.017578,98.0683594 95.3730469,98.0683594 Z" fill="#007AFF" fill-rule="nonzero"></path>
        <path d="M59.1547852,165.304688 C63.4838867,165.304688 66.4799805,162.930664 67.0512695,159.007812 L63.8393555,159.007812 C63.331543,161.216797 61.5922852,162.524414 59.1674805,162.524414 C55.9936523,162.524414 53.987793,159.947266 53.987793,155.833984 C53.987793,151.746094 56.0063477,149.15625 59.1547852,149.15625 C61.5288086,149.15625 63.3950195,150.666992 63.8266602,152.964844 L67.0512695,152.964844 C66.6450195,149.029297 63.4077148,146.375977 59.1547852,146.375977 C53.949707,146.375977 50.6362305,149.994141 50.6362305,155.833984 C50.6362305,161.711914 53.9243164,165.304688 59.1547852,165.304688 Z M73.1704102,165.21582 C74.8969727,165.21582 76.5854492,164.314453 77.3598633,162.854492 L77.4233398,162.854492 L77.4233398,165 L80.4702148,165 L80.4702148,155.732422 C80.4702148,153.02832 78.2993164,151.263672 74.9604492,151.263672 C71.5327148,151.263672 69.387207,153.066406 69.2475586,155.580078 L72.1801758,155.580078 C72.3833008,154.462891 73.3354492,153.739258 74.8334961,153.739258 C76.3950195,153.739258 77.347168,154.551758 77.347168,155.960938 L77.347168,156.925781 L73.7924805,157.128906 C70.5170898,157.332031 68.6762695,158.766602 68.6762695,161.15332 C68.6762695,163.578125 70.5678711,165.21582 73.1704102,165.21582 Z M74.1225586,162.829102 C72.7514648,162.829102 71.8374023,162.130859 71.8374023,161.026367 C71.8374023,159.959961 72.7133789,159.274414 74.2368164,159.172852 L77.347168,158.982422 L77.347168,160.010742 C77.347168,161.635742 75.9125977,162.829102 74.1225586,162.829102 Z M83.0092773,165 L86.1704102,165 L86.1704102,156.760742 C86.1704102,155.135742 87.2368164,153.955078 88.7602539,153.955078 C90.2329102,153.955078 91.1469727,154.881836 91.1469727,156.379883 L91.1469727,165 L94.2192383,165 L94.2192383,156.68457 C94.2192383,155.072266 95.2602539,153.955078 96.7836914,153.955078 C98.3325195,153.955078 99.1958008,154.894531 99.1958008,156.544922 L99.1958008,165 L102.356934,165 L102.356934,155.770508 C102.356934,153.079102 100.617676,151.289062 97.9643555,151.289062 C96.0219727,151.289062 94.4223633,152.330078 93.7749023,153.993164 L93.6987305,153.993164 C93.2036133,152.266602 91.8452148,151.289062 89.940918,151.289062 C88.112793,151.289062 86.690918,152.317383 86.1069336,153.878906 L86.043457,153.878906 L86.043457,151.542969 L83.0092773,151.542969 L83.0092773,165 Z M113.79541,160.975586 C113.452637,162.092773 112.335449,162.829102 110.862793,162.829102 C108.793457,162.829102 107.473145,161.381836 107.473145,159.223633 L107.473145,159.033203 L116.880371,159.033203 L116.880371,158.004883 C116.880371,153.916992 114.493652,151.263672 110.672363,151.263672 C106.787598,151.263672 104.324707,154.069336 104.324707,158.322266 C104.324707,162.613281 106.762207,165.266602 110.799316,165.266602 C113.98584,165.266602 116.347168,163.514648 116.753418,160.975586 L113.79541,160.975586 Z M110.685059,153.713867 C112.500488,153.713867 113.719238,155.046875 113.782715,156.951172 L107.498535,156.951172 C107.625488,155.072266 108.907715,153.713867 110.685059,153.713867 Z M118.911621,165 L122.072754,165 L122.072754,157.166992 C122.072754,155.275391 123.151855,154.120117 124.941895,154.120117 C125.475098,154.120117 125.95752,154.196289 126.224121,154.297852 L126.224121,151.441406 L125.956109,151.385923 C125.752984,151.348307 125.50472,151.314453 125.233887,151.314453 C123.646973,151.314453 122.466309,152.253906 122.009277,153.891602 L121.945801,153.891602 L121.945801,151.542969 L118.911621,151.542969 L118.911621,165 Z M131.810059,165.21582 C133.536621,165.21582 135.225098,164.314453 135.999512,162.854492 L136.062988,162.854492 L136.062988,165 L139.109863,165 L139.109863,155.732422 C139.109863,153.02832 136.938965,151.263672 133.600098,151.263672 C130.172363,151.263672 128.026855,153.066406 127.887207,155.580078 L130.819824,155.580078 C131.022949,154.462891 131.975098,153.739258 133.473145,153.739258 C135.034668,153.739258 135.986816,154.551758 135.986816,155.960938 L135.986816,156.925781 L132.432129,157.128906 C129.156738,157.332031 127.315918,158.766602 127.315918,161.15332 C127.315918,163.578125 129.20752,165.21582 131.810059,165.21582 Z M132.762207,162.829102 C131.391113,162.829102 130.477051,162.130859 130.477051,161.026367 C130.477051,159.959961 131.353027,159.274414 132.876465,159.172852 L135.986816,158.982422 L135.986816,160.010742 C135.986816,161.635742 134.552246,162.829102 132.762207,162.829102 Z" fill="#007AFF" fill-rule="nonzero"></path>
    </g>
</svg>