<?xml version="1.0" encoding="UTF-8"?>
<svg width="200px" height="200px" viewBox="0 0 200 200" version="1.1" xmlns="http://www.w3.org/2000/svg" xmlns:xlink="http://www.w3.org/1999/xlink">
    <title>camera</title>
    <defs>
        <path d="M71.7887856,-1.0155026e-14 L128.211214,-4.35432025e-15 C153.173739,2.52998546e-15 162.225754,2.59911711 171.35168,7.47971571 C180.477606,12.3603143 187.639686,19.5223944 192.520284,28.6483203 C197.400883,37.7742462 200,46.8262609 200,71.7887856 L200,128.211214 C200,153.173739 197.400883,162.225754 192.520284,171.35168 C187.639686,180.477606 180.477606,187.639686 171.35168,192.520284 C162.225754,197.400883 153.173739,200 128.211214,200 L71.7887856,200 C46.8262609,200 37.7742462,197.400883 28.6483203,192.520284 C19.5223944,187.639686 12.3603143,180.477606 7.47971571,171.35168 C2.59911711,162.225754 5.33863302e-15,153.173739 -9.18824169e-15,128.211214 L-5.32110454e-15,71.7887856 C3.09171497e-15,46.8262609 2.59911711,37.7742462 7.47971571,28.6483203 C12.3603143,19.5223944 19.5223944,12.3603143 28.6483203,7.47971571 C37.7742462,2.59911711 46.8262609,5.90036254e-15 71.7887856,-1.0155026e-14 Z" id="path-1"></path>
        <linearGradient x1="50%" y1="0%" x2="50%" y2="100%" id="linearGradient-3">
            <stop stop-color="#E5E5EA" offset="0%"></stop>
            <stop stop-color="#8F8F94" offset="100%"></stop>
        </linearGradient>
    </defs>
    <g id="camera" stroke="none" stroke-width="1" fill="none" fill-rule="evenodd">
        <mask id="mask-2" fill="white">
            <use xlink:href="#path-1"></use>
        </mask>
        <g id="Mask"></g>
        <g id="Group" mask="url(#mask-2)">
            <g id="Icon">
                <rect id="Rectangle" fill="#FFFFFF" x="0" y="0" width="200" height="200"></rect>
                <rect id="Background" fill="url(#linearGradient-3)" x="0" y="0" width="200" height="200"></rect>
                <g transform="translate(27.000000, 44.000000)">
                    <path d="M91.0492619,0 C95.5370998,2.72831124e-15 99.6330109,2.55627997 101.604783,6.58775678 L102.691096,8.80882921 C104.991496,13.5122188 109.770059,16.4945455 115.00587,16.4945455 L135.03296,16.4945455 C141.089889,16.4945455 146,21.4046565 146,27.4615855 L146,97.03296 C146,103.089889 141.089889,108 135.03296,108 L10.96704,108 C4.91011106,108 1.23639239e-14,103.089889 0,97.03296 L0,27.4615855 C-2.5181167e-15,21.4046565 4.91011106,16.4945455 10.96704,16.4945455 L30.7973644,16.4945455 C36.0331753,16.4945455 40.8117382,13.5122188 43.1121385,8.80882921 L44.198452,6.58775678 C46.1702236,2.55627997 50.2661347,4.37711612e-15 54.7539726,0 L91.0492619,0 Z M26.7767668,5.30181818 C28.7236368,5.30181818 30.3018868,6.88006816 30.3018868,8.82693818 L30.3018868,12.3709091 L16.3315364,12.3709091 L16.3315364,8.82693818 C16.3315364,6.88006816 17.9097864,5.30181818 19.8566564,5.30181818 L26.7767668,5.30181818 Z M73.0021786,29.0618182 C90.3915048,29.0618182 104.48248,43.1234332 104.48248,60.48 C104.48248,77.8322653 90.3915048,91.8981818 73.0021786,91.8981818 C55.6128523,91.8981818 41.5175202,77.8322653 41.5175202,60.48 C41.5175202,43.1234332 55.6128523,29.0618182 73.0021786,29.0618182 Z M73,34.56 C58.6523742,34.56 47.0269542,46.1582854 47.0269542,60.48 C47.0269542,74.7971981 58.6523742,86.4 73,86.4 C87.3476258,86.4 98.9730458,74.7971981 98.9730458,60.48 C98.9730458,46.1582854 87.3476258,34.56 73,34.56 Z" id="Camera-Icon" fill="#2E2E30"></path>
                    <path d="M107.466307,32.6167095 C107.466307,35.1096903 109.492306,37.1309091 111.991914,37.1309091 C114.495907,37.1309091 116.51752,35.1096903 116.51752,32.6167095 C116.51752,30.1237287 114.495907,28.0981818 111.991914,28.0981818 C109.492306,28.0981818 107.466307,30.1237287 107.466307,32.6167095 Z" id="Dot" fill="#F6D254"></path>
                </g>
            </g>
        </g>
    </g>
</svg>