<?xml version="1.0" encoding="UTF-8"?>
<svg width="150px" height="190px" viewBox="0 0 150 190" version="1.1" xmlns="http://www.w3.org/2000/svg" xmlns:xlink="http://www.w3.org/1999/xlink">
    <!-- Generator: Sketch 59.1 (86144) - https://sketch.com -->
    <title>Camera</title>
    <desc>Created with Sketch.</desc>
    <g id="Camera" stroke="none" stroke-width="1" fill="none" fill-rule="evenodd">
        <path d="M33.3320312,121.115234 L117.414062,121.115234 C127.619141,121.115234 132.746094,116.037109 132.746094,105.978516 L132.746094,54.8554688 C132.746094,44.796875 127.619141,39.7675781 117.414062,39.7675781 L106.037109,39.7675781 C102.228516,39.7675781 101.007812,38.9863281 98.859375,36.5449219 L94.9042969,32.1503906 C92.4628906,29.4648438 89.9726562,28 84.9433594,28 L65.4609375,28 C60.4316406,28 57.9414062,29.4648438 55.5,32.1503906 L51.59375,36.5449219 C49.4453125,38.9375 48.2246094,39.7675781 44.4160156,39.7675781 L33.3320312,39.7675781 C23.1269531,39.7675781 18,44.796875 18,54.8554688 L18,105.978516 C18,116.037109 23.1269531,121.115234 33.3320312,121.115234 Z M75.3730469,105.490234 C60.6269531,105.490234 48.7617188,93.625 48.7617188,78.78125 C48.7617188,63.9375 60.6269531,52.0722656 75.3730469,52.0722656 C90.1679688,52.0722656 102.033203,63.9375 102.033203,78.78125 C102.033203,93.625 90.1679688,105.490234 75.3730469,105.490234 Z M110.480469,66.8671875 C107.160156,66.8671875 104.425781,64.1816406 104.425781,60.8613281 C104.425781,57.4921875 107.160156,54.8066406 110.480469,54.8066406 C113.800781,54.8066406 116.535156,57.4921875 116.535156,60.8613281 C116.535156,64.1816406 113.800781,66.8671875 110.480469,66.8671875 Z M75.3730469,98.0683594 C64.7773438,98.0683594 56.1347656,89.4746094 56.1347656,78.78125 C56.1347656,68.0878906 64.7285156,59.4941406 75.3730469,59.4941406 C86.0175781,59.4941406 94.6601562,68.0878906 94.6601562,78.78125 C94.6601562,89.4746094 86.0175781,98.0683594 75.3730469,98.0683594 Z" fill="#007AFF" fill-rule="nonzero"></path>
        <path d="M42.3385911,168.386719 C45.9157396,168.386719 48.5368333,166.270508 48.9020677,163.133789 L46.1735521,163.133789 C45.7975755,164.874023 44.3044114,165.980469 42.3385911,165.980469 C39.696013,165.980469 38.0524583,163.77832 38.0524583,160.244141 C38.0524583,156.720703 39.696013,154.518555 42.3278489,154.518555 C44.2829271,154.518555 45.7760911,155.732422 46.1628099,157.601562 L48.8913255,157.601562 C48.5690599,154.389648 45.8512864,152.112305 42.3278489,152.112305 C37.9342942,152.112305 35.2165208,155.216797 35.2165208,160.254883 C35.2165208,165.271484 37.9450364,168.386719 42.3385911,168.386719 Z M54.7171011,168.193359 C56.2532339,168.193359 57.5422964,167.527344 58.1975699,166.388672 L58.3801871,166.388672 L58.3801871,168 L60.9475699,168 L60.9475699,159.975586 C60.9475699,157.494141 59.2503042,156.033203 56.2317496,156.033203 C53.4387808,156.033203 51.4944449,157.34375 51.2796011,159.395508 L53.793273,159.395508 C54.0403433,158.589844 54.8782339,158.149414 56.1028433,158.149414 C57.5422964,158.149414 58.3157339,158.804688 58.3157339,159.975586 L58.3157339,160.985352 L55.2864371,161.167969 C52.4290152,161.329102 50.8284292,162.564453 50.8284292,164.669922 C50.8284292,166.818359 52.4504996,168.193359 54.7171011,168.193359 Z M55.5012808,166.141602 C54.3196402,166.141602 53.4710074,165.550781 53.4710074,164.541016 C53.4710074,163.563477 54.1692496,163.015625 55.6624136,162.918945 L58.3157339,162.736328 L58.3157339,163.692383 C58.3157339,165.088867 57.1126089,166.141602 55.5012808,166.141602 Z M63.937408,168 L66.6014705,168 L66.6014705,160.856445 C66.6014705,159.395508 67.5790095,158.289062 68.9002986,158.289062 C70.2108455,158.289062 71.0272517,159.083984 71.0272517,160.383789 L71.0272517,168 L73.6161189,168 L73.6161189,160.663086 C73.6161189,159.320312 74.5292049,158.289062 75.914947,158.289062 C77.343658,158.289062 78.0633845,159.051758 78.0633845,160.577148 L78.0633845,168 L80.7167049,168 L80.7167049,159.921875 C80.7167049,157.483398 79.2987361,156.033203 76.946197,156.033203 C75.3133845,156.033203 73.9598689,156.871094 73.3797908,158.149414 L73.1971736,158.149414 C72.703033,156.849609 71.5751033,156.033203 69.953033,156.033203 C68.3954158,156.033203 67.1922908,156.828125 66.687408,158.149414 L66.5047908,158.149414 L66.5047908,156.258789 L63.937408,156.258789 L63.937408,168 Z M91.3227539,164.788086 C90.9360352,165.668945 90.0229492,166.163086 88.7016602,166.163086 C86.9506836,166.163086 85.8227539,164.916992 85.7583008,162.929688 L85.7583008,162.790039 L93.965332,162.790039 L93.965332,161.941406 C93.965332,158.256836 91.956543,156.033203 88.6049805,156.033203 C85.199707,156.033203 83.0834961,158.407227 83.0834961,162.177734 C83.0834961,165.9375 85.1674805,168.236328 88.6264648,168.236328 C91.3979492,168.236328 93.3637695,166.904297 93.847168,164.788086 L91.3227539,164.788086 Z M88.5942383,158.106445 C90.1948242,158.106445 91.2475586,159.234375 91.3012695,161.017578 L85.769043,161.017578 C85.887207,159.255859 87.0043945,158.106445 88.5942383,158.106445 Z M96.428803,168 L99.0928655,168 L99.0928655,161.178711 C99.0928655,159.524414 100.29599,158.450195 102.025483,158.450195 C102.476655,158.450195 103.185639,158.525391 103.38974,158.600586 L103.38974,156.172852 C103.14267,156.108398 102.670014,156.06543 102.283295,156.06543 C100.768647,156.06543 99.5010686,156.924805 99.178803,158.084961 L98.9961858,158.084961 L98.9961858,156.258789 L96.428803,156.258789 L96.428803,168 Z M108.452821,168.193359 C109.988954,168.193359 111.278016,167.527344 111.93329,166.388672 L112.115907,166.388672 L112.115907,168 L114.68329,168 L114.68329,159.975586 C114.68329,157.494141 112.986024,156.033203 109.967469,156.033203 C107.1745,156.033203 105.230165,157.34375 105.015321,159.395508 L107.528993,159.395508 C107.776063,158.589844 108.613954,158.149414 109.838563,158.149414 C111.278016,158.149414 112.051454,158.804688 112.051454,159.975586 L112.051454,160.985352 L109.022157,161.167969 C106.164735,161.329102 104.564149,162.564453 104.564149,164.669922 C104.564149,166.818359 106.186219,168.193359 108.452821,168.193359 Z M109.237,166.141602 C108.05536,166.141602 107.206727,165.550781 107.206727,164.541016 C107.206727,163.563477 107.904969,163.015625 109.398133,162.918945 L112.051454,162.736328 L112.051454,163.692383 C112.051454,165.088867 110.848329,166.141602 109.237,166.141602 Z" fill="#007AFF" fill-rule="nonzero"></path>
    </g>
</svg>