<?xml version="1.0" encoding="UTF-8"?>
<svg width="210px" height="190px" viewBox="0 0 210 190" version="1.1" xmlns="http://www.w3.org/2000/svg" xmlns:xlink="http://www.w3.org/1999/xlink">
    <!-- Generator: Sketch 59.1 (86144) - https://sketch.com -->
    <title>Camera</title>
    <desc>Created with Sketch.</desc>
    <g id="Camera" stroke="none" stroke-width="1" fill="none" fill-rule="evenodd">
        <path d="M63.3320312,121.115234 L147.414062,121.115234 C157.619141,121.115234 162.746094,116.037109 162.746094,105.978516 L162.746094,54.8554688 C162.746094,44.796875 157.619141,39.7675781 147.414062,39.7675781 L136.037109,39.7675781 C132.228516,39.7675781 131.007812,38.9863281 128.859375,36.5449219 L124.904297,32.1503906 C122.462891,29.4648438 119.972656,28 114.943359,28 L95.4609375,28 C90.4316406,28 87.9414062,29.4648438 85.5,32.1503906 L81.59375,36.5449219 C79.4453125,38.9375 78.2246094,39.7675781 74.4160156,39.7675781 L63.3320312,39.7675781 C53.1269531,39.7675781 48,44.796875 48,54.8554688 L48,105.978516 C48,116.037109 53.1269531,121.115234 63.3320312,121.115234 Z M105.373047,105.490234 C90.6269531,105.490234 78.7617188,93.625 78.7617188,78.78125 C78.7617188,63.9375 90.6269531,52.0722656 105.373047,52.0722656 C120.167969,52.0722656 132.033203,63.9375 132.033203,78.78125 C132.033203,93.625 120.167969,105.490234 105.373047,105.490234 Z M140.480469,66.8671875 C137.160156,66.8671875 134.425781,64.1816406 134.425781,60.8613281 C134.425781,57.4921875 137.160156,54.8066406 140.480469,54.8066406 C143.800781,54.8066406 146.535156,57.4921875 146.535156,60.8613281 C146.535156,64.1816406 143.800781,66.8671875 140.480469,66.8671875 Z M105.373047,98.0683594 C94.7773438,98.0683594 86.1347656,89.4746094 86.1347656,78.78125 C86.1347656,68.0878906 94.7285156,59.4941406 105.373047,59.4941406 C116.017578,59.4941406 124.660156,68.0878906 124.660156,78.78125 C124.660156,89.4746094 116.017578,98.0683594 105.373047,98.0683594 Z" fill="#007AFF" fill-rule="nonzero"></path>
        <path d="M60.8828125,178.375 C66.2109375,178.375 69.8984375,175.453125 70.6015625,170.625 L66.6484375,170.625 C66.0234375,173.34375 63.8828125,174.953125 60.8984375,174.953125 C56.9921875,174.953125 54.5234375,171.78125 54.5234375,166.71875 C54.5234375,161.6875 57.0078125,158.5 60.8828125,158.5 C63.8046875,158.5 66.1015625,160.359375 66.6328125,163.1875 L70.6015625,163.1875 C70.1015625,158.34375 66.1171875,155.078125 60.8828125,155.078125 C54.4765625,155.078125 50.3984375,159.53125 50.3984375,166.71875 C50.3984375,173.953125 54.4453125,178.375 60.8828125,178.375 Z M78.1328125,178.265625 C80.2578125,178.265625 82.3359375,177.15625 83.2890625,175.359375 L83.3671875,175.359375 L83.3671875,178 L87.1171875,178 L87.1171875,166.59375 C87.1171875,163.265625 84.4453125,161.09375 80.3359375,161.09375 C76.1171875,161.09375 73.4765625,163.3125 73.3046875,166.40625 L76.9140625,166.40625 C77.1640625,165.03125 78.3359375,164.140625 80.1796875,164.140625 C82.1015625,164.140625 83.2734375,165.140625 83.2734375,166.875 L83.2734375,168.0625 L78.8984375,168.3125 C74.8671875,168.5625 72.6015625,170.328125 72.6015625,173.265625 C72.6015625,176.25 74.9296875,178.265625 78.1328125,178.265625 Z M79.3046875,175.328125 C77.6171875,175.328125 76.4921875,174.46875 76.4921875,173.109375 C76.4921875,171.796875 77.5703125,170.953125 79.4453125,170.828125 L83.2734375,170.59375 L83.2734375,171.859375 C83.2734375,173.859375 81.5078125,175.328125 79.3046875,175.328125 Z M90.2421875,178 L94.1328125,178 L94.1328125,167.859375 C94.1328125,165.859375 95.4453125,164.40625 97.3203125,164.40625 C99.1328125,164.40625 100.257812,165.546875 100.257812,167.390625 L100.257812,178 L104.039062,178 L104.039062,167.765625 C104.039062,165.78125 105.320312,164.40625 107.195312,164.40625 C109.101562,164.40625 110.164062,165.5625 110.164062,167.59375 L110.164062,178 L114.054688,178 L114.054688,166.640625 C114.054688,163.328125 111.914062,161.125 108.648438,161.125 C106.257812,161.125 104.289062,162.40625 103.492188,164.453125 L103.398438,164.453125 C102.789062,162.328125 101.117188,161.125 98.7734375,161.125 C96.5234375,161.125 94.7734375,162.390625 94.0546875,164.3125 L93.9765625,164.3125 L93.9765625,161.4375 L90.2421875,161.4375 L90.2421875,178 Z M128.132812,173.046875 C127.710938,174.421875 126.335938,175.328125 124.523438,175.328125 C121.976562,175.328125 120.351562,173.546875 120.351562,170.890625 L120.351562,170.65625 L131.929688,170.65625 L131.929688,169.390625 C131.929688,164.359375 128.992188,161.09375 124.289062,161.09375 C119.507812,161.09375 116.476562,164.546875 116.476562,169.78125 C116.476562,175.0625 119.476562,178.328125 124.445312,178.328125 C128.367188,178.328125 131.273438,176.171875 131.773438,173.046875 L128.132812,173.046875 Z M124.304688,164.109375 C126.539062,164.109375 128.039062,165.75 128.117188,168.09375 L120.382812,168.09375 C120.539062,165.78125 122.117188,164.109375 124.304688,164.109375 Z M134.429688,178 L138.320312,178 L138.320312,168.359375 C138.320312,166.03125 139.648438,164.609375 141.851562,164.609375 C142.507812,164.609375 143.101562,164.703125 143.429688,164.828125 L143.429688,161.3125 L143.152537,161.254191 C142.893335,161.204082 142.56808,161.15625 142.210938,161.15625 C140.257812,161.15625 138.804688,162.3125 138.242188,164.328125 L138.164062,164.328125 L138.164062,161.4375 L134.429688,161.4375 L134.429688,178 Z M150.304688,178.265625 C152.429688,178.265625 154.507812,177.15625 155.460938,175.359375 L155.539062,175.359375 L155.539062,178 L159.289062,178 L159.289062,166.59375 C159.289062,163.265625 156.617188,161.09375 152.507812,161.09375 C148.289062,161.09375 145.648438,163.3125 145.476562,166.40625 L149.085938,166.40625 C149.335938,165.03125 150.507812,164.140625 152.351562,164.140625 C154.273438,164.140625 155.445312,165.140625 155.445312,166.875 L155.445312,168.0625 L151.070312,168.3125 C147.039062,168.5625 144.773438,170.328125 144.773438,173.265625 C144.773438,176.25 147.101562,178.265625 150.304688,178.265625 Z M151.476562,175.328125 C149.789062,175.328125 148.664062,174.46875 148.664062,173.109375 C148.664062,171.796875 149.742188,170.953125 151.617188,170.828125 L155.445312,170.59375 L155.445312,171.859375 C155.445312,173.859375 153.679688,175.328125 151.476562,175.328125 Z" fill="#007AFF" fill-rule="nonzero"></path>
    </g>
</svg>