<?xml version="1.0" encoding="UTF-8"?>
<svg width="210px" height="190px" viewBox="0 0 210 190" version="1.1" xmlns="http://www.w3.org/2000/svg" xmlns:xlink="http://www.w3.org/1999/xlink">
    <!-- Generator: Sketch 59.1 (86144) - https://sketch.com -->
    <title>Camera</title>
    <desc>Created with Sketch.</desc>
    <g id="Camera" stroke="none" stroke-width="1" fill="none" fill-rule="evenodd">
        <path d="M63.3320312,121.115234 L147.414062,121.115234 C157.619141,121.115234 162.746094,116.037109 162.746094,105.978516 L162.746094,54.8554688 C162.746094,44.796875 157.619141,39.7675781 147.414062,39.7675781 L136.037109,39.7675781 C132.228516,39.7675781 131.007812,38.9863281 128.859375,36.5449219 L124.904297,32.1503906 C122.462891,29.4648438 119.972656,28 114.943359,28 L95.4609375,28 C90.4316406,28 87.9414062,29.4648438 85.5,32.1503906 L81.59375,36.5449219 C79.4453125,38.9375 78.2246094,39.7675781 74.4160156,39.7675781 L63.3320312,39.7675781 C53.1269531,39.7675781 48,44.796875 48,54.8554688 L48,105.978516 C48,116.037109 53.1269531,121.115234 63.3320312,121.115234 Z M105.373047,105.490234 C90.6269531,105.490234 78.7617188,93.625 78.7617188,78.78125 C78.7617188,63.9375 90.6269531,52.0722656 105.373047,52.0722656 C120.167969,52.0722656 132.033203,63.9375 132.033203,78.78125 C132.033203,93.625 120.167969,105.490234 105.373047,105.490234 Z M140.480469,66.8671875 C137.160156,66.8671875 134.425781,64.1816406 134.425781,60.8613281 C134.425781,57.4921875 137.160156,54.8066406 140.480469,54.8066406 C143.800781,54.8066406 146.535156,57.4921875 146.535156,60.8613281 C146.535156,64.1816406 143.800781,66.8671875 140.480469,66.8671875 Z M105.373047,98.0683594 C94.7773438,98.0683594 86.1347656,89.4746094 86.1347656,78.78125 C86.1347656,68.0878906 94.7285156,59.4941406 105.373047,59.4941406 C116.017578,59.4941406 124.660156,68.0878906 124.660156,78.78125 C124.660156,89.4746094 116.017578,98.0683594 105.373047,98.0683594 Z" fill="#007AFF" fill-rule="nonzero"></path>
        <path d="M58.6254883,171.398438 C64.2866211,171.398438 68.2045898,168.293945 68.9516602,163.164062 L64.7514648,163.164062 C64.0874023,166.052734 61.8129883,167.762695 58.6420898,167.762695 C54.4916992,167.762695 51.8686523,164.392578 51.8686523,159.013672 C51.8686523,153.667969 54.5083008,150.28125 58.6254883,150.28125 C61.7299805,150.28125 64.1704102,152.256836 64.7348633,155.261719 L68.9516602,155.261719 C68.4204102,150.115234 64.1870117,146.645508 58.6254883,146.645508 C51.8188477,146.645508 47.4858398,151.376953 47.4858398,159.013672 C47.4858398,166.700195 51.7856445,171.398438 58.6254883,171.398438 Z M76.9536133,171.282227 C79.2114258,171.282227 81.4194336,170.103516 82.4321289,168.194336 L82.5151367,168.194336 L82.5151367,171 L86.4995117,171 L86.4995117,158.880859 C86.4995117,155.344727 83.6606445,153.037109 79.2944336,153.037109 C74.8120117,153.037109 72.0063477,155.394531 71.8237305,158.681641 L75.6586914,158.681641 C75.9243164,157.220703 77.1694336,156.274414 79.128418,156.274414 C81.1704102,156.274414 82.4155273,157.336914 82.4155273,159.179688 L82.4155273,160.441406 L77.7670898,160.707031 C73.4838867,160.972656 71.0766602,162.848633 71.0766602,165.969727 C71.0766602,169.140625 73.550293,171.282227 76.9536133,171.282227 Z M78.1987305,168.161133 C76.4057617,168.161133 75.2104492,167.248047 75.2104492,165.803711 C75.2104492,164.40918 76.355957,163.512695 78.3481445,163.379883 L82.4155273,163.130859 L82.4155273,164.475586 C82.4155273,166.600586 80.5395508,168.161133 78.1987305,168.161133 Z M89.8198242,171 L93.9536133,171 L93.9536133,160.225586 C93.9536133,158.100586 95.3481445,156.556641 97.340332,156.556641 C99.2661133,156.556641 100.461426,157.768555 100.461426,159.727539 L100.461426,171 L104.479004,171 L104.479004,160.125977 C104.479004,158.017578 105.840332,156.556641 107.83252,156.556641 C109.85791,156.556641 110.986816,157.785156 110.986816,159.943359 L110.986816,171 L115.120605,171 L115.120605,158.930664 C115.120605,155.411133 112.846191,153.070312 109.376465,153.070312 C106.836426,153.070312 104.744629,154.431641 103.897949,156.606445 L103.79834,156.606445 C103.150879,154.348633 101.374512,153.070312 98.8842773,153.070312 C96.4936523,153.070312 94.6342773,154.415039 93.8706055,156.457031 L93.7875977,156.457031 L93.7875977,153.402344 L89.8198242,153.402344 L89.8198242,171 Z M130.078613,165.737305 C129.630371,167.198242 128.169434,168.161133 126.243652,168.161133 C123.537598,168.161133 121.811035,166.268555 121.811035,163.446289 L121.811035,163.197266 L134.112793,163.197266 L134.112793,161.852539 C134.112793,156.506836 130.991699,153.037109 125.994629,153.037109 C120.914551,153.037109 117.693848,156.706055 117.693848,162.267578 C117.693848,167.878906 120.881348,171.348633 126.160645,171.348633 C130.327637,171.348633 133.415527,169.057617 133.946777,165.737305 L130.078613,165.737305 Z M126.01123,156.241211 C128.385254,156.241211 129.979004,157.984375 130.062012,160.474609 L121.844238,160.474609 C122.010254,158.017578 123.687012,156.241211 126.01123,156.241211 Z M136.769043,171 L140.902832,171 L140.902832,160.756836 C140.902832,158.283203 142.313965,156.772461 144.654785,156.772461 C145.352051,156.772461 145.98291,156.87207 146.331543,157.004883 L146.331543,153.269531 L146.037071,153.207578 C145.761669,153.154337 145.416085,153.103516 145.036621,153.103516 C142.961426,153.103516 141.41748,154.332031 140.819824,156.473633 L140.736816,156.473633 L140.736816,153.402344 L136.769043,153.402344 L136.769043,171 Z M153.63623,171.282227 C155.894043,171.282227 158.102051,170.103516 159.114746,168.194336 L159.197754,168.194336 L159.197754,171 L163.182129,171 L163.182129,158.880859 C163.182129,155.344727 160.343262,153.037109 155.977051,153.037109 C151.494629,153.037109 148.688965,155.394531 148.506348,158.681641 L152.341309,158.681641 C152.606934,157.220703 153.852051,156.274414 155.811035,156.274414 C157.853027,156.274414 159.098145,157.336914 159.098145,159.179688 L159.098145,160.441406 L154.449707,160.707031 C150.166504,160.972656 147.759277,162.848633 147.759277,165.969727 C147.759277,169.140625 150.23291,171.282227 153.63623,171.282227 Z M154.881348,168.161133 C153.088379,168.161133 151.893066,167.248047 151.893066,165.803711 C151.893066,164.40918 153.038574,163.512695 155.030762,163.379883 L159.098145,163.130859 L159.098145,164.475586 C159.098145,166.600586 157.222168,168.161133 154.881348,168.161133 Z" fill="#007AFF" fill-rule="nonzero"></path>
    </g>
</svg>