<?xml version="1.0" encoding="UTF-8"?>
<svg width="160px" height="190px" viewBox="0 0 160 190" version="1.1" xmlns="http://www.w3.org/2000/svg" xmlns:xlink="http://www.w3.org/1999/xlink">
    <!-- Generator: Sketch 59.1 (86144) - https://sketch.com -->
    <title>Camera</title>
    <desc>Created with Sketch.</desc>
    <g id="Camera" stroke="none" stroke-width="1" fill="none" fill-rule="evenodd">
        <path d="M38.3320312,121.115234 L122.414062,121.115234 C132.619141,121.115234 137.746094,116.037109 137.746094,105.978516 L137.746094,54.8554688 C137.746094,44.796875 132.619141,39.7675781 122.414062,39.7675781 L111.037109,39.7675781 C107.228516,39.7675781 106.007812,38.9863281 103.859375,36.5449219 L99.9042969,32.1503906 C97.4628906,29.4648438 94.9726562,28 89.9433594,28 L70.4609375,28 C65.4316406,28 62.9414062,29.4648438 60.5,32.1503906 L56.59375,36.5449219 C54.4453125,38.9375 53.2246094,39.7675781 49.4160156,39.7675781 L38.3320312,39.7675781 C28.1269531,39.7675781 23,44.796875 23,54.8554688 L23,105.978516 C23,116.037109 28.1269531,121.115234 38.3320312,121.115234 Z M80.3730469,105.490234 C65.6269531,105.490234 53.7617188,93.625 53.7617188,78.78125 C53.7617188,63.9375 65.6269531,52.0722656 80.3730469,52.0722656 C95.1679688,52.0722656 107.033203,63.9375 107.033203,78.78125 C107.033203,93.625 95.1679688,105.490234 80.3730469,105.490234 Z M115.480469,66.8671875 C112.160156,66.8671875 109.425781,64.1816406 109.425781,60.8613281 C109.425781,57.4921875 112.160156,54.8066406 115.480469,54.8066406 C118.800781,54.8066406 121.535156,57.4921875 121.535156,60.8613281 C121.535156,64.1816406 118.800781,66.8671875 115.480469,66.8671875 Z M80.3730469,98.0683594 C69.7773438,98.0683594 61.1347656,89.4746094 61.1347656,78.78125 C61.1347656,68.0878906 69.7285156,59.4941406 80.3730469,59.4941406 C91.0175781,59.4941406 99.6601562,68.0878906 99.6601562,78.78125 C99.6601562,89.4746094 91.0175781,98.0683594 80.3730469,98.0683594 Z" fill="#007AFF" fill-rule="nonzero"></path>
        <path d="M57.0859375,167.820312 C59.6015625,167.820312 61.453125,166.375 61.765625,164.179688 L60.0234375,164.179688 C59.7109375,165.460938 58.578125,166.265625 57.0859375,166.265625 C55.0546875,166.265625 53.7890625,164.59375 53.7890625,161.914062 C53.7890625,159.234375 55.0546875,157.554688 57.078125,157.554688 C58.5625,157.554688 59.6953125,158.445312 60.0234375,159.84375 L61.765625,159.84375 C61.484375,157.585938 59.5625,156 57.078125,156 C53.9453125,156 52,158.265625 52,161.914062 C52,165.554688 53.953125,167.820312 57.0859375,167.820312 Z M66.0650527,167.6875 C67.1822402,167.6875 68.1119277,167.203125 68.6197402,166.34375 L68.7525527,166.34375 L68.7525527,167.546875 L70.3697402,167.546875 L70.3697402,161.742188 C70.3697402,159.960938 69.1666152,158.898438 67.0338027,158.898438 C65.1041152,158.898438 63.7291152,159.828125 63.5572402,161.257812 L65.1822402,161.257812 C65.3697402,160.640625 66.0181777,160.289062 66.9556777,160.289062 C68.1041152,160.289062 68.6978652,160.8125 68.6978652,161.742188 L68.6978652,162.484375 L66.3931777,162.625 C64.3697402,162.75 63.2291152,163.632812 63.2291152,165.15625 C63.2291152,166.703125 64.4244277,167.6875 66.0650527,167.6875 Z M66.4947402,166.335938 C65.5806777,166.335938 64.9166152,165.875 64.9166152,165.085938 C64.9166152,164.3125 65.4478652,163.898438 66.6197402,163.820312 L68.6978652,163.679688 L68.6978652,164.414062 C68.6978652,165.507812 67.7603652,166.335938 66.4947402,166.335938 Z M72.6066679,167.546875 L74.2863554,167.546875 L74.2863554,162.335938 C74.2863554,161.226562 75.0597929,160.359375 76.0832304,160.359375 C77.0832304,160.359375 77.7238554,160.960938 77.7238554,161.929688 L77.7238554,167.546875 L79.3722929,167.546875 L79.3722929,162.179688 C79.3722929,161.15625 80.0832304,160.359375 81.1691679,160.359375 C82.2707304,160.359375 82.8176054,160.929688 82.8176054,162.101562 L82.8176054,167.546875 L84.4972929,167.546875 L84.4972929,161.695312 C84.4972929,159.929688 83.4972929,158.898438 81.7785429,158.898438 C80.5988554,158.898438 79.6222929,159.5 79.1926054,160.414062 L79.0597929,160.414062 C78.6847929,159.5 77.8801054,158.898438 76.7160429,158.898438 C75.5832304,158.898438 74.7238554,159.460938 74.3488554,160.414062 L74.2238554,160.414062 L74.2238554,159.0625 L72.6066679,159.0625 L72.6066679,167.546875 Z M92.2810957,165.273438 C91.9685957,165.960938 91.2732832,166.335938 90.2576582,166.335938 C88.9139082,166.335938 88.0467207,165.367188 87.9920332,163.828125 L87.9920332,163.75 L93.9998457,163.75 L93.9998457,163.171875 C93.9998457,160.515625 92.5701582,158.898438 90.2029707,158.898438 C87.8045332,158.898438 86.2810957,160.625 86.2810957,163.320312 C86.2810957,166.03125 87.7732832,167.710938 90.2107832,167.710938 C92.1560957,167.710938 93.5310957,166.773438 93.8982832,165.273438 L92.2810957,165.273438 Z M90.1951582,160.265625 C91.4373457,160.265625 92.2498457,161.164062 92.2889082,162.539062 L87.9920332,162.539062 C88.0857832,161.171875 88.9529707,160.265625 90.1951582,160.265625 Z M95.8617734,167.546875 L97.5414609,167.546875 L97.5414609,162.476562 C97.5414609,161.28125 98.4398984,160.460938 99.7133359,160.460938 C100.010211,160.460938 100.510211,160.515625 100.650836,160.554688 L100.650836,158.976562 C100.471148,158.9375 100.150836,158.914062 99.9008359,158.914062 C98.7914609,158.914062 97.8461484,159.515625 97.6039609,160.351562 L97.4789609,160.351562 L97.4789609,159.0625 L95.8617734,159.0625 L95.8617734,167.546875 Z M104.411201,167.6875 C105.528389,167.6875 106.458076,167.203125 106.965889,166.34375 L107.098701,166.34375 L107.098701,167.546875 L108.715889,167.546875 L108.715889,161.742188 C108.715889,159.960938 107.512764,158.898438 105.379951,158.898438 C103.450264,158.898438 102.075264,159.828125 101.903389,161.257812 L103.528389,161.257812 C103.715889,160.640625 104.364326,160.289062 105.301826,160.289062 C106.450264,160.289062 107.044014,160.8125 107.044014,161.742188 L107.044014,162.484375 L104.739326,162.625 C102.715889,162.75 101.575264,163.632812 101.575264,165.15625 C101.575264,166.703125 102.770576,167.6875 104.411201,167.6875 Z M104.840889,166.335938 C103.926826,166.335938 103.262764,165.875 103.262764,165.085938 C103.262764,164.3125 103.794014,163.898438 104.965889,163.820312 L107.044014,163.679688 L107.044014,164.414062 C107.044014,165.507812 106.106514,166.335938 104.840889,166.335938 Z" fill="#007AFF" fill-rule="nonzero"></path>
    </g>
</svg>