<?xml version="1.0" encoding="UTF-8"?>
<svg width="210px" height="190px" viewBox="0 0 210 190" version="1.1" xmlns="http://www.w3.org/2000/svg" xmlns:xlink="http://www.w3.org/1999/xlink">
    <!-- Generator: Sketch 59.1 (86144) - https://sketch.com -->
    <title>Contacts</title>
    <desc>Created with Sketch.</desc>
    <g id="Contacts" stroke="none" stroke-width="1" fill="none" fill-rule="evenodd">
        <path d="M82.1484375,109.783203 C90.3027344,109.783203 95.7226562,112.810547 98.1152344,114.519531 L99.2434141,115.169274 C100.305393,115.768294 101.647843,116.487517 102.021484,116.521484 L102.021484,42.6933594 C98.8476562,36.7851562 89.4726562,32 79.8046875,32 C67.6464844,32 57.2949219,39.03125 55,43.7675781 L55,112.712891 C55,115.935547 56.8554688,117.15625 59.1992188,117.15625 C61.0058594,117.15625 62.2753906,116.521484 63.4472656,115.544922 C66.328125,112.957031 73.1152344,109.783203 82.1484375,109.783203 Z M127.705078,109.783203 C119.599609,109.783203 114.179688,112.810547 111.787109,114.519531 L111.022081,114.983192 C109.917795,115.645532 108.301206,116.580927 107.880859,116.619141 L107.880859,42.6933594 C111.005859,36.7851562 120.380859,32 130.048828,32 C142.207031,32 152.558594,39.03125 154.853516,43.7675781 L154.853516,112.712891 C154.853516,115.935547 152.949219,117.15625 150.605469,117.15625 C148.798828,117.15625 147.578125,116.472656 146.455078,115.544922 C143.476562,112.957031 136.787109,109.783203 127.705078,109.783203 Z" fill="#007AFF" fill-rule="nonzero"></path>
        <path d="M51.9765625,178.375 C57.3046875,178.375 60.9921875,175.453125 61.6953125,170.625 L57.7421875,170.625 C57.1171875,173.34375 54.9765625,174.953125 51.9921875,174.953125 C48.0859375,174.953125 45.6171875,171.78125 45.6171875,166.71875 C45.6171875,161.6875 48.1015625,158.5 51.9765625,158.5 C54.8984375,158.5 57.1953125,160.359375 57.7265625,163.1875 L61.6953125,163.1875 C61.1953125,158.34375 57.2109375,155.078125 51.9765625,155.078125 C45.5703125,155.078125 41.4921875,159.53125 41.4921875,166.71875 C41.4921875,173.953125 45.5390625,178.375 51.9765625,178.375 Z M71.6796875,178.328125 C76.5390625,178.328125 79.6953125,175.09375 79.6953125,169.71875 C79.6953125,164.359375 76.5078125,161.09375 71.6796875,161.09375 C66.8515625,161.09375 63.6640625,164.375 63.6640625,169.71875 C63.6640625,175.09375 66.8203125,178.328125 71.6796875,178.328125 Z M71.6796875,175.25 C69.2109375,175.25 67.6171875,173.25 67.6171875,169.71875 C67.6171875,166.203125 69.2265625,164.1875 71.6796875,164.1875 C74.1484375,164.1875 75.7421875,166.203125 75.7421875,169.71875 C75.7421875,173.25 74.1484375,175.25 71.6796875,175.25 Z M82.1953125,178 L86.0859375,178 L86.0859375,168.40625 C86.0859375,166.03125 87.5078125,164.421875 89.7421875,164.421875 C91.9609375,164.421875 93.0546875,165.734375 93.0546875,168.078125 L93.0546875,178 L96.9453125,178 L96.9453125,167.296875 C96.9453125,163.46875 94.8671875,161.125 91.2109375,161.125 C88.6640625,161.125 86.8984375,162.3125 86.0078125,164.28125 L85.9296875,164.28125 L85.9296875,161.4375 L82.1953125,161.4375 L82.1953125,178 Z M101.132812,157.5625 L101.132812,161.4375 L98.7578125,161.4375 L98.7578125,164.4375 L101.132812,164.4375 L101.132812,173.59375 C101.132812,176.8125 102.539062,178.078125 106.117188,178.078125 C106.945312,178.078125 107.710938,178.015625 108.132812,177.921875 L108.132812,174.953125 C107.882812,175 107.382812,175.03125 107.023438,175.03125 C105.648438,175.03125 105.023438,174.40625 105.023438,173.046875 L105.023438,164.4375 L108.148438,164.4375 L108.148438,161.4375 L105.023438,161.4375 L105.023438,157.5625 L101.132812,157.5625 Z M115.664062,178.265625 C117.789062,178.265625 119.867188,177.15625 120.820312,175.359375 L120.898438,175.359375 L120.898438,178 L124.648438,178 L124.648438,166.59375 C124.648438,163.265625 121.976562,161.09375 117.867188,161.09375 C113.648438,161.09375 111.007812,163.3125 110.835938,166.40625 L114.445312,166.40625 C114.695312,165.03125 115.867188,164.140625 117.710938,164.140625 C119.632812,164.140625 120.804688,165.140625 120.804688,166.875 L120.804688,168.0625 L116.429688,168.3125 C112.398438,168.5625 110.132812,170.328125 110.132812,173.265625 C110.132812,176.25 112.460938,178.265625 115.664062,178.265625 Z M116.835938,175.328125 C115.148438,175.328125 114.023438,174.46875 114.023438,173.109375 C114.023438,171.796875 115.101562,170.953125 116.976562,170.828125 L120.804688,170.59375 L120.804688,171.859375 C120.804688,173.859375 119.039062,175.328125 116.835938,175.328125 Z M142.367188,167.34375 C142.101562,163.859375 139.398438,161.09375 135.023438,161.09375 C130.210938,161.09375 127.085938,164.421875 127.085938,169.71875 C127.085938,175.09375 130.210938,178.328125 135.054688,178.328125 C139.210938,178.328125 142.070312,175.890625 142.382812,172.1875 L138.710938,172.1875 C138.351562,174.0625 137.070312,175.1875 135.101562,175.1875 C132.632812,175.1875 131.039062,173.1875 131.039062,169.71875 C131.039062,166.3125 132.617188,164.25 135.070312,164.25 C137.148438,164.25 138.382812,165.578125 138.695312,167.34375 L142.367188,167.34375 Z M145.773438,157.5625 L145.773438,161.4375 L143.398438,161.4375 L143.398438,164.4375 L145.773438,164.4375 L145.773438,173.59375 C145.773438,176.8125 147.179688,178.078125 150.757812,178.078125 C151.585938,178.078125 152.351562,178.015625 152.773438,177.921875 L152.773438,174.953125 C152.523438,175 152.023438,175.03125 151.664062,175.03125 C150.289062,175.03125 149.664062,174.40625 149.664062,173.046875 L149.664062,164.4375 L152.789062,164.4375 L152.789062,161.4375 L149.664062,161.4375 L149.664062,157.5625 L145.773438,157.5625 Z M155.132812,166.1875 C155.132812,163.15625 157.773438,161.09375 161.773438,161.09375 C165.804688,161.09375 168.367188,163.265625 168.460938,166.40625 L164.835938,166.40625 C164.679688,164.90625 163.570312,163.953125 161.773438,163.953125 C160.054688,163.953125 158.914062,164.765625 158.914062,165.984375 C158.914062,166.9375 159.601562,167.59375 161.335938,167.984375 L164.085938,168.59375 C167.523438,169.359375 168.851562,170.6875 168.851562,173.09375 C168.851562,176.21875 165.976562,178.328125 161.914062,178.328125 C157.585938,178.328125 155.023438,176.265625 154.710938,173.0625 L158.539062,173.0625 C158.835938,174.671875 159.945312,175.484375 161.914062,175.484375 C163.804688,175.484375 164.976562,174.703125 164.976562,173.46875 C164.976562,172.46875 164.382812,171.90625 162.648438,171.515625 L159.898438,170.90625 C156.726562,170.203125 155.132812,168.640625 155.132812,166.1875 Z" fill="#007AFF" fill-rule="nonzero"></path>
    </g>
</svg>