<?xml version="1.0" encoding="UTF-8"?>
<svg width="220px" height="210px" viewBox="0 0 220 210" version="1.1" xmlns="http://www.w3.org/2000/svg" xmlns:xlink="http://www.w3.org/1999/xlink">
    <!-- Generator: Sketch 59.1 (86144) - https://sketch.com -->
    <title>Contacts</title>
    <desc>Created with Sketch.</desc>
    <g id="Contacts" stroke="none" stroke-width="1" fill="none" fill-rule="evenodd">
        <path d="M87.1484375,109.783203 C95.3027344,109.783203 100.722656,112.810547 103.115234,114.519531 L104.243414,115.169274 C105.305393,115.768294 106.647843,116.487517 107.021484,116.521484 L107.021484,42.6933594 C103.847656,36.7851562 94.4726562,32 84.8046875,32 C72.6464844,32 62.2949219,39.03125 60,43.7675781 L60,112.712891 C60,115.935547 61.8554688,117.15625 64.1992188,117.15625 C66.0058594,117.15625 67.2753906,116.521484 68.4472656,115.544922 C71.328125,112.957031 78.1152344,109.783203 87.1484375,109.783203 Z M132.705078,109.783203 C124.599609,109.783203 119.179688,112.810547 116.787109,114.519531 L116.022081,114.983192 C114.917795,115.645532 113.301206,116.580927 112.880859,116.619141 L112.880859,42.6933594 C116.005859,36.7851562 125.380859,32 135.048828,32 C147.207031,32 157.558594,39.03125 159.853516,43.7675781 L159.853516,112.712891 C159.853516,115.935547 157.949219,117.15625 155.605469,117.15625 C153.798828,117.15625 152.578125,116.472656 151.455078,115.544922 C148.476562,112.957031 141.787109,109.783203 132.705078,109.783203 Z" fill="#007AFF" fill-rule="nonzero"></path>
        <path d="M56.484375,178.296875 C61.8125,178.296875 65.5,175.375 66.203125,170.546875 L62.25,170.546875 C61.625,173.265625 59.484375,174.875 56.5,174.875 C52.59375,174.875 50.125,171.703125 50.125,166.640625 C50.125,161.609375 52.609375,158.421875 56.484375,158.421875 C59.40625,158.421875 61.703125,160.28125 62.234375,163.109375 L66.203125,163.109375 C65.703125,158.265625 61.71875,155 56.484375,155 C50.078125,155 46,159.453125 46,166.640625 C46,173.875 50.046875,178.296875 56.484375,178.296875 Z M76.1875,178.25 C81.046875,178.25 84.203125,175.015625 84.203125,169.640625 C84.203125,164.28125 81.015625,161.015625 76.1875,161.015625 C71.359375,161.015625 68.171875,164.296875 68.171875,169.640625 C68.171875,175.015625 71.328125,178.25 76.1875,178.25 Z M76.1875,175.171875 C73.71875,175.171875 72.125,173.171875 72.125,169.640625 C72.125,166.125 73.734375,164.109375 76.1875,164.109375 C78.65625,164.109375 80.25,166.125 80.25,169.640625 C80.25,173.171875 78.65625,175.171875 76.1875,175.171875 Z M86.703125,177.921875 L90.59375,177.921875 L90.59375,168.328125 C90.59375,165.953125 92.015625,164.34375 94.25,164.34375 C96.46875,164.34375 97.5625,165.65625 97.5625,168 L97.5625,177.921875 L101.453125,177.921875 L101.453125,167.21875 C101.453125,163.390625 99.375,161.046875 95.71875,161.046875 C93.171875,161.046875 91.40625,162.234375 90.515625,164.203125 L90.4375,164.203125 L90.4375,161.359375 L86.703125,161.359375 L86.703125,177.921875 Z M105.640625,157.484375 L105.640625,161.359375 L103.265625,161.359375 L103.265625,164.359375 L105.640625,164.359375 L105.640625,173.515625 C105.640625,176.734375 107.046875,178 110.625,178 C111.453125,178 112.21875,177.9375 112.640625,177.84375 L112.640625,174.875 C112.390625,174.921875 111.890625,174.953125 111.53125,174.953125 C110.15625,174.953125 109.53125,174.328125 109.53125,172.96875 L109.53125,164.359375 L112.65625,164.359375 L112.65625,161.359375 L109.53125,161.359375 L109.53125,157.484375 L105.640625,157.484375 Z M120.171875,178.1875 C122.296875,178.1875 124.375,177.078125 125.328125,175.28125 L125.40625,175.28125 L125.40625,177.921875 L129.15625,177.921875 L129.15625,166.515625 C129.15625,163.1875 126.484375,161.015625 122.375,161.015625 C118.15625,161.015625 115.515625,163.234375 115.34375,166.328125 L118.953125,166.328125 C119.203125,164.953125 120.375,164.0625 122.21875,164.0625 C124.140625,164.0625 125.3125,165.0625 125.3125,166.796875 L125.3125,167.984375 L120.9375,168.234375 C116.90625,168.484375 114.640625,170.25 114.640625,173.1875 C114.640625,176.171875 116.96875,178.1875 120.171875,178.1875 Z M121.34375,175.25 C119.65625,175.25 118.53125,174.390625 118.53125,173.03125 C118.53125,171.71875 119.609375,170.875 121.484375,170.75 L125.3125,170.515625 L125.3125,171.78125 C125.3125,173.78125 123.546875,175.25 121.34375,175.25 Z M146.875,167.265625 C146.609375,163.78125 143.90625,161.015625 139.53125,161.015625 C134.71875,161.015625 131.59375,164.34375 131.59375,169.640625 C131.59375,175.015625 134.71875,178.25 139.5625,178.25 C143.71875,178.25 146.578125,175.8125 146.890625,172.109375 L143.21875,172.109375 C142.859375,173.984375 141.578125,175.109375 139.609375,175.109375 C137.140625,175.109375 135.546875,173.109375 135.546875,169.640625 C135.546875,166.234375 137.125,164.171875 139.578125,164.171875 C141.65625,164.171875 142.890625,165.5 143.203125,167.265625 L146.875,167.265625 Z M150.28125,157.484375 L150.28125,161.359375 L147.90625,161.359375 L147.90625,164.359375 L150.28125,164.359375 L150.28125,173.515625 C150.28125,176.734375 151.6875,178 155.265625,178 C156.09375,178 156.859375,177.9375 157.28125,177.84375 L157.28125,174.875 C157.03125,174.921875 156.53125,174.953125 156.171875,174.953125 C154.796875,174.953125 154.171875,174.328125 154.171875,172.96875 L154.171875,164.359375 L157.296875,164.359375 L157.296875,161.359375 L154.171875,161.359375 L154.171875,157.484375 L150.28125,157.484375 Z M159.640625,166.109375 C159.640625,163.078125 162.28125,161.015625 166.28125,161.015625 C170.3125,161.015625 172.875,163.1875 172.96875,166.328125 L169.34375,166.328125 C169.1875,164.828125 168.078125,163.875 166.28125,163.875 C164.5625,163.875 163.421875,164.6875 163.421875,165.90625 C163.421875,166.859375 164.109375,167.515625 165.84375,167.90625 L168.59375,168.515625 C172.03125,169.28125 173.359375,170.609375 173.359375,173.015625 C173.359375,176.140625 170.484375,178.25 166.421875,178.25 C162.09375,178.25 159.53125,176.1875 159.21875,172.984375 L163.046875,172.984375 C163.34375,174.59375 164.453125,175.40625 166.421875,175.40625 C168.3125,175.40625 169.484375,174.625 169.484375,173.390625 C169.484375,172.390625 168.890625,171.828125 167.15625,171.4375 L164.40625,170.828125 C161.234375,170.125 159.640625,168.5625 159.640625,166.109375 Z" fill="#007AFF" fill-rule="nonzero"></path>
    </g>
</svg>