<?xml version="1.0" encoding="UTF-8"?>
<svg width="210px" height="190px" viewBox="0 0 210 190" version="1.1" xmlns="http://www.w3.org/2000/svg" xmlns:xlink="http://www.w3.org/1999/xlink">
    <!-- Generator: Sketch 59.1 (86144) - https://sketch.com -->
    <title>Contacts</title>
    <desc>Created with Sketch.</desc>
    <g id="Contacts" stroke="none" stroke-width="1" fill="none" fill-rule="evenodd">
        <path d="M82.1484375,109.783203 C90.3027344,109.783203 95.7226562,112.810547 98.1152344,114.519531 L99.2434141,115.169274 C100.305393,115.768294 101.647843,116.487517 102.021484,116.521484 L102.021484,42.6933594 C98.8476562,36.7851562 89.4726562,32 79.8046875,32 C67.6464844,32 57.2949219,39.03125 55,43.7675781 L55,112.712891 C55,115.935547 56.8554688,117.15625 59.1992188,117.15625 C61.0058594,117.15625 62.2753906,116.521484 63.4472656,115.544922 C66.328125,112.957031 73.1152344,109.783203 82.1484375,109.783203 Z M127.705078,109.783203 C119.599609,109.783203 114.179688,112.810547 111.787109,114.519531 L111.022081,114.983192 C109.917795,115.645532 108.301206,116.580927 107.880859,116.619141 L107.880859,42.6933594 C111.005859,36.7851562 120.380859,32 130.048828,32 C142.207031,32 152.558594,39.03125 154.853516,43.7675781 L154.853516,112.712891 C154.853516,115.935547 152.949219,117.15625 150.605469,117.15625 C148.798828,117.15625 147.578125,116.472656 146.455078,115.544922 C143.476562,112.957031 136.787109,109.783203 127.705078,109.783203 Z" fill="#007AFF" fill-rule="nonzero"></path>
        <path d="M49.1625977,171.398438 C54.8237305,171.398438 58.7416992,168.293945 59.4887695,163.164062 L55.2885742,163.164062 C54.6245117,166.052734 52.3500977,167.762695 49.1791992,167.762695 C45.0288086,167.762695 42.4057617,164.392578 42.4057617,159.013672 C42.4057617,153.667969 45.0454102,150.28125 49.1625977,150.28125 C52.2670898,150.28125 54.7075195,152.256836 55.2719727,155.261719 L59.4887695,155.261719 C58.9575195,150.115234 54.7241211,146.645508 49.1625977,146.645508 C42.355957,146.645508 38.0229492,151.376953 38.0229492,159.013672 C38.0229492,166.700195 42.3227539,171.398438 49.1625977,171.398438 Z M70.097168,171.348633 C75.2602539,171.348633 78.6137695,167.912109 78.6137695,162.201172 C78.6137695,156.506836 75.2270508,153.037109 70.097168,153.037109 C64.9672852,153.037109 61.5805664,156.523438 61.5805664,162.201172 C61.5805664,167.912109 64.934082,171.348633 70.097168,171.348633 Z M70.097168,168.078125 C67.4741211,168.078125 65.7807617,165.953125 65.7807617,162.201172 C65.7807617,158.46582 67.4907227,156.324219 70.097168,156.324219 C72.7202148,156.324219 74.4135742,158.46582 74.4135742,162.201172 C74.4135742,165.953125 72.7202148,168.078125 70.097168,168.078125 Z M81.2700195,171 L85.4038086,171 L85.4038086,160.806641 C85.4038086,158.283203 86.9145508,156.573242 89.2885742,156.573242 C91.6459961,156.573242 92.8081055,157.967773 92.8081055,160.458008 L92.8081055,171 L96.9418945,171 L96.9418945,159.62793 C96.9418945,155.560547 94.7338867,153.070312 90.8491211,153.070312 C88.1430664,153.070312 86.2670898,154.332031 85.3208008,156.423828 L85.237793,156.423828 L85.237793,153.402344 L81.2700195,153.402344 L81.2700195,171 Z M101.391113,149.285156 L101.391113,153.402344 L98.8676758,153.402344 L98.8676758,156.589844 L101.391113,156.589844 L101.391113,166.318359 C101.391113,169.738281 102.885254,171.083008 106.687012,171.083008 C107.566895,171.083008 108.380371,171.016602 108.828613,170.916992 L108.828613,167.762695 C108.562988,167.8125 108.031738,167.845703 107.649902,167.845703 C106.188965,167.845703 105.524902,167.181641 105.524902,165.737305 L105.524902,156.589844 L108.845215,156.589844 L108.845215,153.402344 L105.524902,153.402344 L105.524902,149.285156 L101.391113,149.285156 Z M116.830566,171.282227 C119.088379,171.282227 121.296387,170.103516 122.309082,168.194336 L122.39209,168.194336 L122.39209,171 L126.376465,171 L126.376465,158.880859 C126.376465,155.344727 123.537598,153.037109 119.171387,153.037109 C114.688965,153.037109 111.883301,155.394531 111.700684,158.681641 L115.535645,158.681641 C115.80127,157.220703 117.046387,156.274414 119.005371,156.274414 C121.047363,156.274414 122.29248,157.336914 122.29248,159.179688 L122.29248,160.441406 L117.644043,160.707031 C113.36084,160.972656 110.953613,162.848633 110.953613,165.969727 C110.953613,169.140625 113.427246,171.282227 116.830566,171.282227 Z M118.075684,168.161133 C116.282715,168.161133 115.087402,167.248047 115.087402,165.803711 C115.087402,164.40918 116.23291,163.512695 118.225098,163.379883 L122.29248,163.130859 L122.29248,164.475586 C122.29248,166.600586 120.416504,168.161133 118.075684,168.161133 Z M145.202637,159.677734 C144.92041,155.975586 142.04834,153.037109 137.399902,153.037109 C132.286621,153.037109 128.966309,156.573242 128.966309,162.201172 C128.966309,167.912109 132.286621,171.348633 137.433105,171.348633 C141.849121,171.348633 144.887207,168.758789 145.219238,164.824219 L141.317871,164.824219 C140.936035,166.816406 139.574707,168.011719 137.48291,168.011719 C134.859863,168.011719 133.166504,165.886719 133.166504,162.201172 C133.166504,158.582031 134.843262,156.390625 137.449707,156.390625 C139.657715,156.390625 140.969238,157.801758 141.30127,159.677734 L145.202637,159.677734 Z M148.821777,149.285156 L148.821777,153.402344 L146.29834,153.402344 L146.29834,156.589844 L148.821777,156.589844 L148.821777,166.318359 C148.821777,169.738281 150.315918,171.083008 154.117676,171.083008 C154.997559,171.083008 155.811035,171.016602 156.259277,170.916992 L156.259277,167.762695 C155.993652,167.8125 155.462402,167.845703 155.080566,167.845703 C153.619629,167.845703 152.955566,167.181641 152.955566,165.737305 L152.955566,156.589844 L156.275879,156.589844 L156.275879,153.402344 L152.955566,153.402344 L152.955566,149.285156 L148.821777,149.285156 Z M158.766113,158.449219 C158.766113,155.228516 161.571777,153.037109 165.821777,153.037109 C170.10498,153.037109 172.827637,155.344727 172.927246,158.681641 L169.075684,158.681641 C168.909668,157.087891 167.730957,156.075195 165.821777,156.075195 C163.995605,156.075195 162.783691,156.938477 162.783691,158.233398 C162.783691,159.246094 163.51416,159.943359 165.356934,160.358398 L168.278809,161.005859 C171.931152,161.819336 173.342285,163.230469 173.342285,165.787109 C173.342285,169.107422 170.287598,171.348633 165.971191,171.348633 C161.372559,171.348633 158.649902,169.157227 158.317871,165.753906 L162.385254,165.753906 C162.700684,167.463867 163.879395,168.327148 165.971191,168.327148 C167.97998,168.327148 169.225098,167.49707 169.225098,166.185547 C169.225098,165.123047 168.594238,164.525391 166.751465,164.110352 L163.82959,163.462891 C160.459473,162.71582 158.766113,161.055664 158.766113,158.449219 Z" fill="#007AFF" fill-rule="nonzero"></path>
    </g>
</svg>