<?xml version="1.0" encoding="UTF-8"?>
<svg width="200px" height="200px" viewBox="0 0 200 200" version="1.1" xmlns="http://www.w3.org/2000/svg" xmlns:xlink="http://www.w3.org/1999/xlink">
    <title>contacts</title>
    <defs>
        <path d="M71.7887856,-1.0155026e-14 L128.211214,-4.35432025e-15 C153.173739,2.52998546e-15 162.225754,2.59911711 171.35168,7.47971571 C180.477606,12.3603143 187.639686,19.5223944 192.520284,28.6483203 C197.400883,37.7742462 200,46.8262609 200,71.7887856 L200,128.211214 C200,153.173739 197.400883,162.225754 192.520284,171.35168 C187.639686,180.477606 180.477606,187.639686 171.35168,192.520284 C162.225754,197.400883 153.173739,200 128.211214,200 L71.7887856,200 C46.8262609,200 37.7742462,197.400883 28.6483203,192.520284 C19.5223944,187.639686 12.3603143,180.477606 7.47971571,171.35168 C2.59911711,162.225754 5.33863302e-15,153.173739 -9.18824169e-15,128.211214 L-5.32110454e-15,71.7887856 C3.09171497e-15,46.8262609 2.59911711,37.7742462 7.47971571,28.6483203 C12.3603143,19.5223944 19.5223944,12.3603143 28.6483203,7.47971571 C37.7742462,2.59911711 46.8262609,5.90036254e-15 71.7887856,-1.0155026e-14 Z" id="path-1"></path>
        <rect id="path-3" x="0" y="99.8046875" width="25" height="50"></rect>
        <filter x="-54.0%" y="-21.0%" width="208.0%" height="154.0%" filterUnits="objectBoundingBox" id="filter-4">
            <feOffset dx="0" dy="3" in="SourceAlpha" result="shadowOffsetOuter1"></feOffset>
            <feGaussianBlur stdDeviation="4" in="shadowOffsetOuter1" result="shadowBlurOuter1"></feGaussianBlur>
            <feColorMatrix values="0 0 0 0 0   0 0 0 0 0   0 0 0 0 0  0 0 0 0.25 0" type="matrix" in="shadowBlurOuter1"></feColorMatrix>
        </filter>
        <rect id="path-5" x="0" y="49.8046875" width="25" height="50"></rect>
        <filter x="-54.0%" y="-21.0%" width="208.0%" height="154.0%" filterUnits="objectBoundingBox" id="filter-6">
            <feOffset dx="0" dy="3" in="SourceAlpha" result="shadowOffsetOuter1"></feOffset>
            <feGaussianBlur stdDeviation="4" in="shadowOffsetOuter1" result="shadowBlurOuter1"></feGaussianBlur>
            <feColorMatrix values="0 0 0 0 0   0 0 0 0 0   0 0 0 0 0  0 0 0 0.25 0" type="matrix" in="shadowBlurOuter1"></feColorMatrix>
        </filter>
        <rect id="path-7" x="0" y="0" width="25" height="50"></rect>
        <filter x="-54.0%" y="-21.0%" width="208.0%" height="154.0%" filterUnits="objectBoundingBox" id="filter-8">
            <feOffset dx="0" dy="3" in="SourceAlpha" result="shadowOffsetOuter1"></feOffset>
            <feGaussianBlur stdDeviation="4" in="shadowOffsetOuter1" result="shadowBlurOuter1"></feGaussianBlur>
            <feColorMatrix values="0 0 0 0 0   0 0 0 0 0   0 0 0 0 0  0 0 0 0.25 0" type="matrix" in="shadowBlurOuter1"></feColorMatrix>
        </filter>
        <rect id="path-9" x="0" y="0" width="175" height="200"></rect>
        <filter x="-6.0%" y="-6.8%" width="115.4%" height="113.5%" filterUnits="objectBoundingBox" id="filter-10">
            <feOffset dx="3" dy="0" in="SourceAlpha" result="shadowOffsetOuter1"></feOffset>
            <feGaussianBlur stdDeviation="4" in="shadowOffsetOuter1" result="shadowBlurOuter1"></feGaussianBlur>
            <feColorMatrix values="0 0 0 0 0   0 0 0 0 0   0 0 0 0 0  0 0 0 0.25 0" type="matrix" in="shadowBlurOuter1"></feColorMatrix>
        </filter>
    </defs>
    <g id="contacts" stroke="none" stroke-width="1" fill="none" fill-rule="evenodd">
        <mask id="mask-2" fill="white">
            <use xlink:href="#path-1"></use>
        </mask>
        <path stroke="#979797" d="M128.211214,0.5 C153.032141,0.5 162.039835,3.06670034 171.11588,7.9206223 C180.153383,12.7539317 187.246068,19.8466169 192.079378,28.8841197 C196.9333,37.9601647 199.5,46.9678595 199.5,71.7887856 L199.5,71.7887856 L199.5,128.211214 C199.5,153.032141 196.9333,162.039835 192.079378,171.11588 C187.246068,180.153383 180.153383,187.246068 171.11588,192.079378 C162.039835,196.9333 153.032141,199.5 128.211214,199.5 L128.211214,199.5 L71.7887856,199.5 C46.9678595,199.5 37.9601647,196.9333 28.8841197,192.079378 C19.8466169,187.246068 12.7539317,180.153383 7.9206223,171.11588 C7.29596774,169.947878 6.7091922,168.781008 6.16089145,167.581421 L5.91056367,167.025319 C2.40301741,159.110804 0.54424392,149.574911 0.500779417,128.955326 L0.500779417,128.955326 L0.5,71.7887856 C0.5,46.9678595 3.06670034,37.9601647 7.9206223,28.8841197 C12.7539317,19.8466169 19.8466169,12.7539317 28.8841197,7.9206223 C30.0521222,7.29596774 31.2189915,6.7091922 32.4185786,6.16089145 L32.9746807,5.91056367 C40.8891963,2.40301741 50.4250886,0.54424392 71.0446738,0.500779417 L71.0446738,0.500779417 Z"></path>
        <g id="Group" mask="url(#mask-2)">
            <g id="Icon">
                <rect id="Rectangle" fill="#FFFFFF" x="0" y="0" width="200" height="200"></rect>
                <g id="Bookmarks" transform="translate(175.000000, 0.000000)">
                    <rect id="Item" fill="#4CD964" x="0" y="149.804688" width="25" height="50"></rect>
                    <g id="Item">
                        <use fill="black" fill-opacity="1" filter="url(#filter-4)" xlink:href="#path-3"></use>
                        <use fill="#FF9500" fill-rule="evenodd" xlink:href="#path-3"></use>
                    </g>
                    <g id="Item">
                        <use fill="black" fill-opacity="1" filter="url(#filter-6)" xlink:href="#path-5"></use>
                        <use fill="#5AC8FA" fill-rule="evenodd" xlink:href="#path-5"></use>
                    </g>
                    <g id="Item">
                        <use fill="black" fill-opacity="1" filter="url(#filter-8)" xlink:href="#path-7"></use>
                        <use fill="#D0CDC7" fill-rule="evenodd" xlink:href="#path-7"></use>
                    </g>
                </g>
                <g id="Area">
                    <use fill="black" fill-opacity="1" filter="url(#filter-10)" xlink:href="#path-9"></use>
                    <use fill="#DFDDD6" fill-rule="evenodd" xlink:href="#path-9"></use>
                </g>
                <path d="M86.8521528,163.08269 L86.6032044,163.079713 C86.5118451,163.078443 86.4205326,163.076981 86.3292672,163.075325 C86.033697,163.06996 85.7390959,163.062584 85.4450013,163.053201 C85.4077278,163.052012 85.3703594,163.050788 85.3329992,163.04953 C85.0562221,163.040216 84.7799773,163.029129 84.5041938,163.016276 C84.442818,163.013415 84.38186,163.010486 84.3209246,163.007471 C84.0160542,162.99239 83.7111948,162.975115 83.4069201,162.95569 C83.3570607,162.952508 83.307048,162.949256 83.2570511,162.945946 C82.9525963,162.925791 82.6486556,162.903476 82.3453189,162.879023 C82.2934924,162.874845 82.2421139,162.870639 82.1907529,162.866373 C81.9434925,162.845835 81.6963639,162.82385 81.449648,162.800448 C81.3652645,162.792444 81.2806603,162.784248 81.1961051,162.775886 C80.9210053,162.748678 80.6466915,162.719738 80.3729059,162.689051 C80.2773643,162.678342 80.1816556,162.667394 80.086012,162.656233 C79.4865869,162.58628 78.8899774,162.507987 78.2960438,162.421444 C78.2518328,162.415002 78.2074856,162.408492 78.1631534,162.401936 C77.8839843,162.360652 77.6055624,162.317568 77.3277463,162.272677 C77.2357276,162.257808 77.1433009,162.242662 77.0509417,162.227317 C76.7899903,162.183958 76.5297151,162.139028 76.2699894,162.092513 C76.2534609,162.089552 76.2371407,162.086623 76.2208226,162.083687 C75.9369119,162.032609 75.6534732,161.979601 75.3707067,161.924711 C75.2717897,161.90551 75.1724259,161.885973 75.0731459,161.866204 C74.5234104,161.756735 73.976805,161.640271 73.4328614,161.516801 C73.3462302,161.497136 73.2599361,161.477355 73.1737095,161.457399 C72.9147463,161.397465 72.6560067,161.335848 72.3978887,161.272647 C72.2994103,161.248534 72.2013873,161.224281 72.1034546,161.199801 C71.5289753,161.056197 70.9574396,160.904695 70.389137,160.745456 C70.3671736,160.739302 70.3451698,160.733124 70.3231709,160.726934 C70.0203025,160.641713 69.7184112,160.554312 69.4174583,160.464732 C69.3780895,160.453014 69.3390229,160.441344 69.2999722,160.429637 C69.0873206,160.365889 68.8748897,160.300975 68.6629369,160.234977 C68.5488173,160.199442 68.4348921,160.16361 68.3211063,160.127465 C68.0646044,160.045986 67.8087456,159.962895 67.5536075,159.878224 C67.5090212,159.863427 67.4639997,159.84843 67.4190006,159.833383 C67.1516296,159.743979 66.8855174,159.653 66.620211,159.560304 C66.599706,159.55314 66.5791143,159.545933 66.5585274,159.538716 L66.5274786,159.527823 C66.2434566,159.428089 65.9603611,159.326386 65.6782086,159.222731 C65.6419918,159.209426 65.6056507,159.196037 65.5693254,159.182616 C65.3079065,159.086029 65.0474282,158.987814 64.7877748,158.887937 C64.701902,158.854906 64.6158095,158.821572 64.5298084,158.788056 C63.9906571,158.577935 63.4554021,158.360764 62.9238507,158.13654 C62.8724673,158.114865 62.8210886,158.093111 62.7697447,158.071292 C62.2380268,157.84533 61.7099088,157.612244 61.1856379,157.372208 C61.1460141,157.354066 61.1058473,157.335625 61.0657032,157.317144 L60.8697983,157.226544 C60.6501822,157.124522 60.4312493,157.021277 60.2130084,156.916818 C60.174775,156.898518 60.1360447,156.879932 60.0973363,156.861308 C59.8458704,156.740313 59.5958916,156.617985 59.3468449,156.494064 C59.3207696,156.48109 59.2944691,156.46798 59.2681789,156.454853 C59.0275246,156.334689 58.787869,156.213101 58.5490974,156.090039 C58.4508551,156.039404 58.3527875,155.988534 58.2548703,155.937415 C57.7552747,155.676591 57.2596747,155.409338 56.7681008,155.135724 C56.7217314,155.109914 56.6757613,155.084251 56.6298266,155.058533 C56.3987756,154.92917 56.1682909,154.798211 55.9387149,154.665852 C55.8547947,154.617469 55.7707168,154.568737 55.6867618,154.519818 C55.2051817,154.239202 54.7279214,153.952584 54.2548057,153.659905 C54.2044004,153.628723 54.1541185,153.59752 54.1038835,153.566248 C53.8700122,153.420662 53.6370519,153.273523 53.4051251,153.124913 C53.3367995,153.081133 53.268335,153.037077 53.1999611,152.992893 C52.7153383,152.679723 52.2353904,152.360193 51.7601147,152.034344 C51.7263627,152.011204 51.6930073,151.988288 51.659675,151.965341 C51.1613837,151.62231 50.6678299,151.272015 50.1795849,150.914893 C50.1503095,150.89348 50.1210083,150.872009 50.0917262,150.850514 C49.8617981,150.681728 49.6331829,150.511525 49.4057634,150.339823 C49.3563387,150.302507 49.3069806,150.265128 49.2576791,150.227678 C49.0732429,150.08758 48.8895333,149.946442 48.7066242,149.804322 C48.6149721,149.733109 48.5233126,149.661487 48.431856,149.589617 C48.2684866,149.461235 48.1059905,149.332247 47.9441458,149.202481 C47.8623491,149.136895 47.7810113,149.071348 47.6998394,149.005604 C47.4958936,148.840421 47.2929788,148.673982 47.0911233,148.506312 C47.0567524,148.477761 47.0226754,148.449395 46.9886288,148.420993 C46.5292425,148.037779 46.0751826,147.64801 45.6267793,147.251982 C45.5932786,147.222395 45.5595811,147.19257 45.5259157,147.16271 C45.0895968,146.775706 44.6588596,146.382947 44.2336301,145.984383 C44.1851621,145.938954 44.136555,145.893252 44.0880202,145.847474 C43.8839463,145.654987 43.6815287,145.461523 43.4803999,145.266736 C43.4476915,145.23506 43.4149583,145.20329 43.3822594,145.171486 C42.9603865,144.761154 42.5443837,144.345159 42.13421,143.923465 C42.0850224,143.872896 42.0359483,143.822276 41.9869581,143.771574 C41.9373529,143.720235 41.8878042,143.668782 41.8383419,143.617246 C30.9252308,132.245982 24.21875,116.808526 24.21875,99.8046875 C24.21875,64.8554182 52.5507307,36.5234375 87.5,36.5234375 C122.449269,36.5234375 150.78125,64.8554182 150.78125,99.8046875 C150.78125,116.808029 144.075161,132.24508 133.163572,143.615251 C133.161824,143.614229 133.161984,143.614896 133.162143,143.615563 L133.033207,143.750694 C132.963866,143.822524 132.894356,143.89419 132.824678,143.965692 L133.162143,143.615563 C132.884628,143.904743 132.604395,144.191293 132.321483,144.47517 L132.246601,144.551288 C132.200596,144.597294 132.15452,144.643228 132.108374,144.689092 C131.959392,144.836076 131.81026,144.98285 131.660407,145.128886 C131.611612,145.177499 131.56214,145.225552 131.51259,145.273524 C131.314479,145.464288 131.115731,145.654241 130.915755,145.842906 C130.864148,145.892597 130.812211,145.941428 130.760192,145.990173 C130.340034,146.382905 129.914953,146.770565 129.484631,147.152447 C129.443809,147.189578 129.402423,147.226207 129.360988,147.262783 C129.174867,147.426192 128.988219,147.589034 128.800612,147.750793 L128.682759,147.853011 C128.595364,147.927988 128.507762,148.002731 128.419954,148.077238 C128.357964,148.129005 128.29629,148.18114 128.234514,148.233158 C128.11752,148.332491 127.999621,148.431035 127.881358,148.529156 C127.695808,148.682315 127.509651,148.835003 127.322612,148.986644 C127.233319,149.059802 127.143341,149.132342 127.05316,149.204641 C126.90711,149.320987 126.760788,149.437247 126.613941,149.55287 C126.477406,149.661092 126.340045,149.768328 126.202232,149.875008 C126.094978,149.957336 125.987608,150.039909 125.879966,150.122143 C125.762196,150.212792 125.644046,150.302395 125.525573,150.391591 C125.342199,150.528996 125.15826,150.665935 124.973556,150.801895 C124.906021,150.852237 124.838362,150.90183 124.770602,150.951291 C124.324025,151.276671 123.873024,151.596961 123.4177,151.911436 C123.345033,151.962174 123.272296,152.012183 123.199449,152.062044 C122.990924,152.204238 122.781659,152.345654 122.571507,152.485846 L122.476054,152.549907 C122.409101,152.594394 122.342058,152.638757 122.274925,152.682995 C122.139828,152.771525 122.004746,152.859807 121.869308,152.947585 C121.76979,153.012562 121.669324,153.077269 121.568664,153.141699 C121.395438,153.252111 121.222344,153.361729 121.048683,153.470527 C120.928961,153.545974 120.808855,153.620657 120.688482,153.694947 C120.520491,153.798201 120.351822,153.901218 120.182635,154.003465 C120.058946,154.078622 119.935,154.152945 119.810778,154.226855 C119.623005,154.338188 119.434643,154.448951 119.24566,154.558763 C119.198867,154.586327 119.151827,154.613578 119.104749,154.640771 C118.865014,154.778877 118.624532,154.915689 118.383073,155.050964 C118.299864,155.097922 118.216302,155.144486 118.132624,155.190865 C117.973925,155.278494 117.814907,155.365743 117.655475,155.452327 C117.586686,155.490002 117.517458,155.527429 117.448154,155.56473 L117.388813,155.596317 C117.158265,155.720092 116.926862,155.84248 116.694615,155.963469 C116.617918,156.003711 116.540946,156.043606 116.463881,156.083348 C115.978073,156.333606 115.488733,156.577978 114.995835,156.816145 C114.901043,156.862186 114.805956,156.907835 114.710739,156.953253 C114.484074,157.061145 114.256618,157.167981 114.028427,157.273499 C113.955736,157.307325 113.882741,157.340907 113.809672,157.374355 C113.302555,157.606288 112.792088,157.83182 112.278134,158.050748 C112.188475,158.089112 112.098454,158.127208 112.008327,158.165103 C111.768687,158.265696 111.528475,158.364952 111.287525,158.462765 C111.225868,158.487946 111.164616,158.512697 111.103316,158.537355 C110.87594,158.628675 110.64756,158.718997 110.418534,158.808025 C110.360262,158.830812 110.301563,158.853528 110.242823,158.876158 C109.972718,158.980086 109.702218,159.082164 109.430842,159.182435 C109.394349,159.196037 109.358008,159.209426 109.321652,159.222782 C109.039675,159.32626 108.756578,159.427968 108.472555,159.527707 L108.441473,159.538716 C108.406903,159.550835 108.37232,159.562925 108.337723,159.574985 C108.111865,159.653619 107.885458,159.7311 107.658476,159.807329 C107.581649,159.833221 107.504888,159.858834 107.428061,159.884304 C107.170963,159.969454 106.912791,160.053198 106.653898,160.135321 C106.561853,160.164597 106.468894,160.193847 106.375843,160.222887 C106.167367,160.287876 105.959172,160.351666 105.750524,160.414408 C105.687879,160.433313 105.625425,160.451987 105.56293,160.470566 C105.269513,160.557739 104.974648,160.643064 104.678904,160.726293 C104.656143,160.732755 104.633483,160.739118 104.610818,160.745469 C104.31879,160.827242 104.025845,160.907045 103.732063,160.984788 C103.665439,161.002466 103.598163,161.02015 103.530843,161.037726 C103.316793,161.093564 103.102808,161.148228 102.888389,161.201799 C102.793393,161.225573 102.697977,161.249174 102.602477,161.272558 C102.349906,161.334364 102.097095,161.39461 101.843701,161.453334 C101.74745,161.475671 101.651482,161.497673 101.555432,161.519457 C101.008464,161.643478 100.458745,161.760456 99.9064361,161.870246 C99.8196991,161.887508 99.7326819,161.904615 99.6456009,161.921543 C99.3582952,161.977373 99.0705785,162.031229 98.7821831,162.08313 C98.7618962,162.086797 98.741588,162.090441 98.7212764,162.094076 C98.4609703,162.140643 98.2000832,162.185639 97.9386547,162.229032 C97.8542134,162.24306 97.7695094,162.256942 97.6847489,162.270656 C97.397293,162.317152 97.1096406,162.361656 96.8213552,162.404216 C96.7851493,162.409571 96.7484733,162.414952 96.7117871,162.420303 C96.1084625,162.508281 95.5026735,162.58772 94.894251,162.658529 C94.8096356,162.668382 94.7242628,162.678143 94.6388386,162.687733 C94.3576814,162.719293 94.0767,162.748941 93.7951766,162.776745 C93.718597,162.784311 93.6412732,162.791806 93.5639089,162.799161 C93.3168777,162.822641 93.0699931,162.844658 92.8227046,162.865252 C92.7643266,162.870115 92.7062365,162.874872 92.6481243,162.879551 C92.3495056,162.903595 92.0497732,162.925601 91.749468,162.945513 C91.6962969,162.949039 91.6436147,162.952466 91.5909149,162.955829 C91.2893458,162.975072 90.9866761,162.992231 90.6834447,163.007255 C90.6188166,163.010457 90.5545257,163.013544 90.4902098,163.016536 C90.2164454,163.029272 89.9419864,163.040276 89.6670828,163.049528 C89.6296515,163.050787 89.5922939,163.052012 89.5549282,163.053204 C89.2602399,163.062605 88.9649723,163.069994 88.6692091,163.075353 C88.2805891,163.082397 87.890708,163.085938 87.5,163.085938 L88.3981477,163.079694 C88.3147531,163.080854 88.2313195,163.081853 88.1478472,163.08269 L87.5,163.085938 L87.5,163.085938 L86.8521528,163.08269 L86.8521528,163.08269 Z M87.5,41.9921875 C55.5710379,41.9921875 29.6875,67.8757254 29.6875,99.8046875 C29.6875,114.504569 35.1738273,127.92305 44.2105614,138.124211 C50.6769061,127.956819 67.6184931,120.703125 87.5,120.703125 C107.381507,120.703125 124.323094,127.956819 130.790281,138.122304 C139.826533,127.922168 145.3125,114.504086 145.3125,99.8046875 C145.3125,67.8757254 119.428962,41.9921875 87.5,41.9921875 Z M87.5,63.4765625 C99.1497564,63.4765625 108.59375,73.9698887 108.59375,86.9140625 C108.59375,99.8582363 99.1497564,110.351563 87.5,110.351563 C75.8502436,110.351563 66.40625,99.8582363 66.40625,86.9140625 C66.40625,73.9698887 75.8502436,63.4765625 87.5,63.4765625 Z" id="User-Icon" fill="#B8B1AB" fill-rule="nonzero"></path>
            </g>
        </g>
    </g>
</svg>