<?xml version="1.0" encoding="UTF-8"?>
<svg width="190px" height="190px" viewBox="0 0 190 190" version="1.1" xmlns="http://www.w3.org/2000/svg" xmlns:xlink="http://www.w3.org/1999/xlink">
    <!-- Generator: Sketch 59.1 (86144) - https://sketch.com -->
    <title>Contacts</title>
    <desc>Created with Sketch.</desc>
    <g id="Contacts" stroke="none" stroke-width="1" fill="none" fill-rule="evenodd">
        <path d="M72.1484375,109.783203 C80.3027344,109.783203 85.7226562,112.810547 88.1152344,114.519531 L89.2434141,115.169274 C90.3053927,115.768294 91.6478431,116.487517 92.0214844,116.521484 L92.0214844,42.6933594 C88.8476562,36.7851562 79.4726562,32 69.8046875,32 C57.6464844,32 47.2949219,39.03125 45,43.7675781 L45,112.712891 C45,115.935547 46.8554688,117.15625 49.1992188,117.15625 C51.0058594,117.15625 52.2753906,116.521484 53.4472656,115.544922 C56.328125,112.957031 63.1152344,109.783203 72.1484375,109.783203 Z M117.705078,109.783203 C109.599609,109.783203 104.179688,112.810547 101.787109,114.519531 L101.022081,114.983192 C99.9177952,115.645532 98.3012058,116.580927 97.8808594,116.619141 L97.8808594,42.6933594 C101.005859,36.7851562 110.380859,32 120.048828,32 C132.207031,32 142.558594,39.03125 144.853516,43.7675781 L144.853516,112.712891 C144.853516,115.935547 142.949219,117.15625 140.605469,117.15625 C138.798828,117.15625 137.578125,116.472656 136.455078,115.544922 C133.476562,112.957031 126.787109,109.783203 117.705078,109.783203 Z" fill="#007AFF" fill-rule="nonzero"></path>
        <path d="M51.918457,165.304688 C56.2475586,165.304688 59.2436523,162.930664 59.8149414,159.007812 L56.6030273,159.007812 C56.0952148,161.216797 54.355957,162.524414 51.9311523,162.524414 C48.7573242,162.524414 46.7514648,159.947266 46.7514648,155.833984 C46.7514648,151.746094 48.7700195,149.15625 51.918457,149.15625 C54.2924805,149.15625 56.1586914,150.666992 56.590332,152.964844 L59.8149414,152.964844 C59.4086914,149.029297 56.1713867,146.375977 51.918457,146.375977 C46.7133789,146.375977 43.3999023,149.994141 43.3999023,155.833984 C43.3999023,161.711914 46.6879883,165.304688 51.918457,165.304688 Z M67.9272461,165.266602 C71.8754883,165.266602 74.4399414,162.638672 74.4399414,158.271484 C74.4399414,153.916992 71.8500977,151.263672 67.9272461,151.263672 C64.0043945,151.263672 61.4145508,153.929688 61.4145508,158.271484 C61.4145508,162.638672 63.9790039,165.266602 67.9272461,165.266602 Z M67.9272461,162.765625 C65.9213867,162.765625 64.6264648,161.140625 64.6264648,158.271484 C64.6264648,155.415039 65.934082,153.777344 67.9272461,153.777344 C69.9331055,153.777344 71.2280273,155.415039 71.2280273,158.271484 C71.2280273,161.140625 69.9331055,162.765625 67.9272461,162.765625 Z M76.4711914,165 L79.6323242,165 L79.6323242,157.205078 C79.6323242,155.275391 80.7875977,153.967773 82.6030273,153.967773 C84.4057617,153.967773 85.2944336,155.03418 85.2944336,156.938477 L85.2944336,165 L88.4555664,165 L88.4555664,156.303711 C88.4555664,153.193359 86.7670898,151.289062 83.7963867,151.289062 C81.7270508,151.289062 80.2924805,152.253906 79.5688477,153.853516 L79.5053711,153.853516 L79.5053711,151.542969 L76.4711914,151.542969 L76.4711914,165 Z M91.8579102,148.394531 L91.8579102,151.542969 L89.9282227,151.542969 L89.9282227,153.980469 L91.8579102,153.980469 L91.8579102,161.419922 C91.8579102,164.035156 93.0004883,165.063477 95.9077148,165.063477 C96.5805664,165.063477 97.2026367,165.012695 97.5454102,164.936523 L97.5454102,162.524414 C97.3422852,162.5625 96.9360352,162.587891 96.644043,162.587891 C95.5268555,162.587891 95.019043,162.080078 95.019043,160.975586 L95.019043,153.980469 L97.5581055,153.980469 L97.5581055,151.542969 L95.019043,151.542969 L95.019043,148.394531 L91.8579102,148.394531 Z M103.664551,165.21582 C105.391113,165.21582 107.07959,164.314453 107.854004,162.854492 L107.91748,162.854492 L107.91748,165 L110.964355,165 L110.964355,155.732422 C110.964355,153.02832 108.793457,151.263672 105.45459,151.263672 C102.026855,151.263672 99.8813477,153.066406 99.7416992,155.580078 L102.674316,155.580078 C102.877441,154.462891 103.82959,153.739258 105.327637,153.739258 C106.88916,153.739258 107.841309,154.551758 107.841309,155.960938 L107.841309,156.925781 L104.286621,157.128906 C101.01123,157.332031 99.1704102,158.766602 99.1704102,161.15332 C99.1704102,163.578125 101.062012,165.21582 103.664551,165.21582 Z M104.616699,162.829102 C103.245605,162.829102 102.331543,162.130859 102.331543,161.026367 C102.331543,159.959961 103.20752,159.274414 104.730957,159.172852 L107.841309,158.982422 L107.841309,160.010742 C107.841309,161.635742 106.406738,162.829102 104.616699,162.829102 Z M125.36084,156.341797 C125.14502,153.510742 122.94873,151.263672 119.394043,151.263672 C115.483887,151.263672 112.944824,153.967773 112.944824,158.271484 C112.944824,162.638672 115.483887,165.266602 119.419434,165.266602 C122.796387,165.266602 125.119629,163.286133 125.373535,160.277344 L122.390137,160.277344 C122.098145,161.800781 121.057129,162.714844 119.45752,162.714844 C117.45166,162.714844 116.156738,161.089844 116.156738,158.271484 C116.156738,155.503906 117.438965,153.828125 119.432129,153.828125 C121.120605,153.828125 122.123535,154.907227 122.377441,156.341797 L125.36084,156.341797 Z M128.128418,148.394531 L128.128418,151.542969 L126.19873,151.542969 L126.19873,153.980469 L128.128418,153.980469 L128.128418,161.419922 C128.128418,164.035156 129.270996,165.063477 132.178223,165.063477 C132.851074,165.063477 133.473145,165.012695 133.815918,164.936523 L133.815918,162.524414 C133.612793,162.5625 133.206543,162.587891 132.914551,162.587891 C131.797363,162.587891 131.289551,162.080078 131.289551,160.975586 L131.289551,153.980469 L133.828613,153.980469 L133.828613,151.542969 L131.289551,151.542969 L131.289551,148.394531 L128.128418,148.394531 Z M135.73291,155.402344 C135.73291,152.939453 137.878418,151.263672 141.128418,151.263672 C144.403809,151.263672 146.48584,153.02832 146.562012,155.580078 L143.616699,155.580078 C143.489746,154.361328 142.588379,153.586914 141.128418,153.586914 C139.731934,153.586914 138.805176,154.24707 138.805176,155.237305 C138.805176,156.011719 139.36377,156.544922 140.772949,156.862305 L143.007324,157.357422 C145.800293,157.979492 146.879395,159.058594 146.879395,161.013672 C146.879395,163.552734 144.543457,165.266602 141.242676,165.266602 C137.726074,165.266602 135.644043,163.59082 135.390137,160.988281 L138.500488,160.988281 C138.741699,162.295898 139.643066,162.956055 141.242676,162.956055 C142.778809,162.956055 143.730957,162.321289 143.730957,161.318359 C143.730957,160.505859 143.248535,160.048828 141.839355,159.731445 L139.60498,159.236328 C137.027832,158.665039 135.73291,157.395508 135.73291,155.402344 Z" fill="#007AFF" fill-rule="nonzero"></path>
    </g>
</svg>