<?xml version="1.0" encoding="UTF-8"?>
<svg width="160px" height="190px" viewBox="0 0 160 190" version="1.1" xmlns="http://www.w3.org/2000/svg" xmlns:xlink="http://www.w3.org/1999/xlink">
    <!-- Generator: Sketch 59.1 (86144) - https://sketch.com -->
    <title>Contacts</title>
    <desc>Created with Sketch.</desc>
    <g id="Contacts" stroke="none" stroke-width="1" fill="none" fill-rule="evenodd">
        <path d="M57.1484375,109.783203 C65.3027344,109.783203 70.7226562,112.810547 73.1152344,114.519531 L74.2434141,115.169274 C75.3053927,115.768294 76.6478431,116.487517 77.0214844,116.521484 L77.0214844,42.6933594 C73.8476562,36.7851562 64.4726562,32 54.8046875,32 C42.6464844,32 32.2949219,39.03125 30,43.7675781 L30,112.712891 C30,115.935547 31.8554688,117.15625 34.1992188,117.15625 C36.0058594,117.15625 37.2753906,116.521484 38.4472656,115.544922 C41.328125,112.957031 48.1152344,109.783203 57.1484375,109.783203 Z M102.705078,109.783203 C94.5996094,109.783203 89.1796875,112.810547 86.7871094,114.519531 L86.0220806,114.983192 C84.9177952,115.645532 83.3012058,116.580927 82.8808594,116.619141 L82.8808594,42.6933594 C86.0058594,36.7851562 95.3808594,32 105.048828,32 C117.207031,32 127.558594,39.03125 129.853516,43.7675781 L129.853516,112.712891 C129.853516,115.935547 127.949219,117.15625 125.605469,117.15625 C123.798828,117.15625 122.578125,116.472656 121.455078,115.544922 C118.476562,112.957031 111.787109,109.783203 102.705078,109.783203 Z" fill="#007AFF" fill-rule="nonzero"></path>
        <path d="M52.0859375,167.820312 C54.6015625,167.820312 56.453125,166.375 56.765625,164.179688 L55.0234375,164.179688 C54.7109375,165.460938 53.578125,166.265625 52.0859375,166.265625 C50.0546875,166.265625 48.7890625,164.59375 48.7890625,161.914062 C48.7890625,159.234375 50.0546875,157.554688 52.078125,157.554688 C53.5625,157.554688 54.6953125,158.445312 55.0234375,159.84375 L56.765625,159.84375 C56.484375,157.585938 54.5625,156 52.078125,156 C48.9453125,156 47,158.265625 47,161.914062 C47,165.554688 48.953125,167.820312 52.0859375,167.820312 Z M62.3072402,167.710938 C64.7916152,167.710938 66.3150527,166.046875 66.3150527,163.304688 C66.3150527,160.5625 64.7838027,158.898438 62.3072402,158.898438 C59.8228652,158.898438 58.2916152,160.570312 58.2916152,163.304688 C58.2916152,166.046875 59.8150527,167.710938 62.3072402,167.710938 Z M62.3072402,166.28125 C60.8463027,166.28125 60.0259902,165.195312 60.0259902,163.304688 C60.0259902,161.414062 60.8463027,160.320312 62.3072402,160.320312 C63.7603652,160.320312 64.5884902,161.414062 64.5884902,163.304688 C64.5884902,165.1875 63.7603652,166.28125 62.3072402,166.28125 Z M68.1769804,167.546875 L69.8566679,167.546875 L69.8566679,162.570312 C69.8566679,161.203125 70.6457304,160.359375 71.8879179,160.359375 C73.1301054,160.359375 73.7238554,161.046875 73.7238554,162.453125 L73.7238554,167.546875 L75.4035429,167.546875 L75.4035429,162.054688 C75.4035429,160.03125 74.3566679,158.898438 72.4582304,158.898438 C71.1769804,158.898438 70.3332304,159.46875 69.9191679,160.40625 L69.7941679,160.40625 L69.7941679,159.0625 L68.1769804,159.0625 L68.1769804,167.546875 Z M78.2029707,156.921875 L78.2029707,159.085938 L76.8514082,159.085938 L76.8514082,160.429688 L78.2029707,160.429688 L78.2029707,165.3125 C78.2029707,166.945312 78.9451582,167.601562 80.8123457,167.601562 C81.1404707,167.601562 81.4529707,167.5625 81.7264082,167.515625 L81.7264082,166.179688 L81.4148847,166.208008 C81.3162519,166.214844 81.2146894,166.21875 81.0857832,166.21875 C80.2498457,166.21875 79.8826582,165.820312 79.8826582,164.90625 L79.8826582,160.429688 L81.7264082,160.429688 L81.7264082,159.085938 L79.8826582,159.085938 L79.8826582,156.921875 L78.2029707,156.921875 Z M85.9008359,167.6875 C87.0180234,167.6875 87.9477109,167.203125 88.4555234,166.34375 L88.5883359,166.34375 L88.5883359,167.546875 L90.2055234,167.546875 L90.2055234,161.742188 C90.2055234,159.960938 89.0023984,158.898438 86.8695859,158.898438 C84.9398984,158.898438 83.5648984,159.828125 83.3930234,161.257812 L85.0180234,161.257812 C85.2055234,160.640625 85.8539609,160.289062 86.7914609,160.289062 C87.9398984,160.289062 88.5336484,160.8125 88.5336484,161.742188 L88.5336484,162.484375 L86.2289609,162.625 C84.2055234,162.75 83.0648984,163.632812 83.0648984,165.15625 C83.0648984,166.703125 84.2602109,167.6875 85.9008359,167.6875 Z M86.3305234,166.335938 C85.4164609,166.335938 84.7523984,165.875 84.7523984,165.085938 C84.7523984,164.3125 85.2836484,163.898438 86.4555234,163.820312 L88.5336484,163.679688 L88.5336484,164.414062 C88.5336484,165.507812 87.5961484,166.335938 86.3305234,166.335938 Z M99.6455761,161.789062 C99.4268261,160.140625 98.1377636,158.898438 96.0049511,158.898438 C93.5283886,158.898438 92.0205761,160.578125 92.0205761,163.273438 C92.0205761,166.023438 93.5362011,167.710938 96.0127636,167.710938 C98.1143261,167.710938 99.4268261,166.53125 99.6455761,164.859375 L98.0127636,164.859375 C97.7940136,165.78125 97.0674511,166.28125 96.0049511,166.28125 C94.6065136,166.28125 93.7393261,165.148438 93.7393261,163.273438 C93.7393261,161.4375 94.5987011,160.328125 96.0049511,160.328125 C97.1299511,160.328125 97.8174511,160.960938 98.0127636,161.789062 L99.6455761,161.789062 Z M102.124691,156.921875 L102.124691,159.085938 L100.773129,159.085938 L100.773129,160.429688 L102.124691,160.429688 L102.124691,165.3125 C102.124691,166.945312 102.866879,167.601562 104.734066,167.601562 C105.062191,167.601562 105.374691,167.5625 105.648129,167.515625 L105.648129,166.179688 L105.336605,166.208008 C105.237973,166.214844 105.13641,166.21875 105.007504,166.21875 C104.171566,166.21875 103.804379,165.820312 103.804379,164.90625 L103.804379,160.429688 L105.648129,160.429688 L105.648129,159.085938 L103.804379,159.085938 L103.804379,156.921875 L102.124691,156.921875 Z M107.150682,161.4375 C107.150682,159.960938 108.533494,158.898438 110.455369,158.898438 C112.369432,158.898438 113.619432,159.789062 113.783494,161.257812 L112.174119,161.257812 C112.017869,160.625 111.408494,160.210938 110.455369,160.210938 C109.517869,160.210938 108.806932,160.671875 108.806932,161.359375 C108.806932,161.882812 109.236619,162.210938 110.158494,162.429688 L111.572557,162.757812 C113.189744,163.132812 113.947557,163.828125 113.947557,165.0625 C113.947557,166.640625 112.455369,167.710938 110.424119,167.710938 C108.400682,167.710938 107.080369,166.796875 106.931932,165.320312 L108.611619,165.320312 C108.822557,165.984375 109.447557,166.398438 110.463182,166.398438 C111.510057,166.398438 112.252244,165.914062 112.252244,165.21875 C112.252244,164.6875 111.853807,164.34375 111.002244,164.140625 L109.517869,163.789062 C107.900682,163.414062 107.150682,162.695312 107.150682,161.4375 Z" fill="#007AFF" fill-rule="nonzero"></path>
    </g>
</svg>