<?xml version="1.0" encoding="UTF-8"?>
<svg width="150px" height="150px" viewBox="0 0 150 150" version="1.1" xmlns="http://www.w3.org/2000/svg" xmlns:xlink="http://www.w3.org/1999/xlink">
    <!-- Generator: Sketch 59.1 (86144) - https://sketch.com -->
    <title>Contacts</title>
    <desc>Created with Sketch.</desc>
    <g id="Contacts" stroke="none" stroke-width="1" fill="none" fill-rule="evenodd">
        <path d="M52.1484375,109.783203 C60.3027344,109.783203 65.7226562,112.810547 68.1152344,114.519531 L69.2434141,115.169274 C70.3053927,115.768294 71.6478431,116.487517 72.0214844,116.521484 L72.0214844,42.6933594 C68.8476562,36.7851562 59.4726562,32 49.8046875,32 C37.6464844,32 27.2949219,39.03125 25,43.7675781 L25,112.712891 C25,115.935547 26.8554688,117.15625 29.1992188,117.15625 C31.0058594,117.15625 32.2753906,116.521484 33.4472656,115.544922 C36.328125,112.957031 43.1152344,109.783203 52.1484375,109.783203 Z M97.7050781,109.783203 C89.5996094,109.783203 84.1796875,112.810547 81.7871094,114.519531 L81.0220806,114.983192 C79.9177952,115.645532 78.3012058,116.580927 77.8808594,116.619141 L77.8808594,42.6933594 C81.0058594,36.7851562 90.3808594,32 100.048828,32 C112.207031,32 122.558594,39.03125 124.853516,43.7675781 L124.853516,112.712891 C124.853516,115.935547 122.949219,117.15625 120.605469,117.15625 C118.798828,117.15625 117.578125,116.472656 116.455078,115.544922 C113.476562,112.957031 106.787109,109.783203 97.7050781,109.783203 Z" fill="#007AFF" fill-rule="nonzero"></path>
    </g>
</svg>