<?xml version="1.0" encoding="UTF-8"?>
<svg width="150px" height="190px" viewBox="0 0 150 190" version="1.1" xmlns="http://www.w3.org/2000/svg" xmlns:xlink="http://www.w3.org/1999/xlink">
    <!-- Generator: Sketch 59.1 (86144) - https://sketch.com -->
    <title>Contacts</title>
    <desc>Created with Sketch.</desc>
    <g id="Contacts" stroke="none" stroke-width="1" fill="none" fill-rule="evenodd">
        <path d="M52.1484375,109.783203 C60.3027344,109.783203 65.7226562,112.810547 68.1152344,114.519531 L69.2434141,115.169274 C70.3053927,115.768294 71.6478431,116.487517 72.0214844,116.521484 L72.0214844,42.6933594 C68.8476562,36.7851562 59.4726562,32 49.8046875,32 C37.6464844,32 27.2949219,39.03125 25,43.7675781 L25,112.712891 C25,115.935547 26.8554688,117.15625 29.1992188,117.15625 C31.0058594,117.15625 32.2753906,116.521484 33.4472656,115.544922 C36.328125,112.957031 43.1152344,109.783203 52.1484375,109.783203 Z M97.7050781,109.783203 C89.5996094,109.783203 84.1796875,112.810547 81.7871094,114.519531 L81.0220806,114.983192 C79.9177952,115.645532 78.3012058,116.580927 77.8808594,116.619141 L77.8808594,42.6933594 C81.0058594,36.7851562 90.3808594,32 100.048828,32 C112.207031,32 122.558594,39.03125 124.853516,43.7675781 L124.853516,112.712891 C124.853516,115.935547 122.949219,117.15625 120.605469,117.15625 C118.798828,117.15625 117.578125,116.472656 116.455078,115.544922 C113.476562,112.957031 106.787109,109.783203 97.7050781,109.783203 Z" fill="#007AFF" fill-rule="nonzero"></path>
        <path d="M35.3258038,168.386719 C38.9029522,168.386719 41.524046,166.270508 41.8892804,163.133789 L39.1607647,163.133789 C38.7847882,164.874023 37.2916241,165.980469 35.3258038,165.980469 C32.6832257,165.980469 31.039671,163.77832 31.039671,160.244141 C31.039671,156.720703 32.6832257,154.518555 35.3150616,154.518555 C37.2701397,154.518555 38.7633038,155.732422 39.1500225,157.601562 L41.8785382,157.601562 C41.5562725,154.389648 38.8384991,152.112305 35.3150616,152.112305 C30.9215069,152.112305 28.2037335,155.216797 28.2037335,160.254883 C28.2037335,165.271484 30.9322491,168.386719 35.3258038,168.386719 Z M49.5412278,168.236328 C53.0539232,168.236328 55.1916185,165.9375 55.1916185,162.124023 C55.1916185,158.332031 53.043181,156.033203 49.5412278,156.033203 C46.0500169,156.033203 43.8908372,158.342773 43.8908372,162.124023 C43.8908372,165.9375 46.0177903,168.236328 49.5412278,168.236328 Z M49.5412278,166.055664 C47.6828294,166.055664 46.6193528,164.616211 46.6193528,162.134766 C46.6193528,159.65332 47.6828294,158.213867 49.5412278,158.213867 C51.3888841,158.213867 52.4523607,159.65332 52.4523607,162.134766 C52.4523607,164.616211 51.3996263,166.055664 49.5412278,166.055664 Z M57.6658316,168 L60.3298941,168 L60.3298941,161.157227 C60.3298941,159.395508 61.3289175,158.289062 62.9187613,158.289062 C64.5408316,158.289062 65.2927847,159.202148 65.2927847,161.02832 L65.2927847,168 L67.9568472,168 L67.9568472,160.405273 C67.9568472,157.612305 66.5281363,156.033203 63.9070425,156.033203 C62.156066,156.033203 60.9744253,156.828125 60.4158316,158.138672 L60.2332144,158.138672 L60.2332144,156.258789 L57.6658316,156.258789 L57.6658316,168 Z M71.7523494,153.379883 L71.7523494,156.333984 L69.8939509,156.333984 L69.8939509,158.407227 L71.7523494,158.407227 L71.7523494,164.884766 C71.7523494,167.151367 72.8265681,168.053711 75.5228572,168.053711 C76.0384822,168.053711 76.5326228,168.010742 76.9193416,167.935547 L76.9193416,165.894531 L76.5707791,165.927359 C76.4062947,165.940508 76.2425838,165.948242 76.0169978,165.948242 C74.8998103,165.948242 74.4056697,165.421875 74.4056697,164.250977 L74.4056697,158.407227 L76.9193416,158.407227 L76.9193416,156.333984 L74.4056697,156.333984 L74.4056697,153.379883 L71.7523494,153.379883 Z M82.6054688,168.193359 C84.1416016,168.193359 85.4306641,167.527344 86.0859375,166.388672 L86.2685547,166.388672 L86.2685547,168 L88.8359375,168 L88.8359375,159.975586 C88.8359375,157.494141 87.1386719,156.033203 84.1201172,156.033203 C81.3271484,156.033203 79.3828125,157.34375 79.1679688,159.395508 L81.6816406,159.395508 C81.9287109,158.589844 82.7666016,158.149414 83.9912109,158.149414 C85.4306641,158.149414 86.2041016,158.804688 86.2041016,159.975586 L86.2041016,160.985352 L83.1748047,161.167969 C80.3173828,161.329102 78.7167969,162.564453 78.7167969,164.669922 C78.7167969,166.818359 80.3388672,168.193359 82.6054688,168.193359 Z M83.3896484,166.141602 C82.2080078,166.141602 81.359375,165.550781 81.359375,164.541016 C81.359375,163.563477 82.0576172,163.015625 83.5507812,162.918945 L86.2041016,162.736328 L86.2041016,163.692383 C86.2041016,165.088867 85.0009766,166.141602 83.3896484,166.141602 Z M101.977143,160.179688 C101.697846,157.751953 99.8716741,156.033203 96.8531194,156.033203 C93.3189397,156.033203 91.2456975,158.299805 91.2456975,162.102539 C91.2456975,165.948242 93.3296819,168.236328 96.8638616,168.236328 C99.8394475,168.236328 101.687104,166.582031 101.977143,164.154297 L99.4419866,164.154297 C99.1626897,165.389648 98.2388616,166.044922 96.8531194,166.044922 C95.0376897,166.044922 93.9419866,164.594727 93.9419866,162.102539 C93.9419866,159.65332 95.0269475,158.213867 96.8531194,158.213867 C98.3140569,158.213867 99.1949162,159.041016 99.4419866,160.179688 L101.977143,160.179688 Z M105.310731,153.379883 L105.310731,156.333984 L103.452332,156.333984 L103.452332,158.407227 L105.310731,158.407227 L105.310731,164.884766 C105.310731,167.151367 106.38495,168.053711 109.081239,168.053711 C109.596864,168.053711 110.091004,168.010742 110.477723,167.935547 L110.477723,165.894531 L110.129161,165.927359 C109.964676,165.940508 109.800965,165.948242 109.575379,165.948242 C108.458192,165.948242 107.964051,165.421875 107.964051,164.250977 L107.964051,158.407227 L110.477723,158.407227 L110.477723,156.333984 L107.964051,156.333984 L107.964051,153.379883 L105.310731,153.379883 Z M112.511507,159.610352 C112.511507,157.504883 114.4451,156.033203 117.216585,156.033203 C120.009553,156.033203 121.76053,157.257812 121.953889,159.374023 L119.45096,159.374023 C119.2576,158.546875 118.473421,158.009766 117.227327,158.009766 C116.01346,158.009766 115.100374,158.600586 115.100374,159.470703 C115.100374,160.136719 115.658967,160.555664 116.840608,160.834961 L118.91385,161.296875 C121.158967,161.8125 122.20096,162.768555 122.20096,164.498047 C122.20096,166.743164 120.127717,168.236328 117.1951,168.236328 C114.262483,168.236328 112.414827,166.96875 112.210725,164.852539 L114.842561,164.852539 C115.100374,165.722656 115.927522,166.259766 117.259553,166.259766 C118.602327,166.259766 119.536897,165.647461 119.536897,164.755859 C119.536897,164.089844 119.032014,163.660156 117.914827,163.402344 L115.830842,162.918945 C113.574983,162.40332 112.511507,161.37207 112.511507,159.610352 Z" fill="#007AFF" fill-rule="nonzero"></path>
    </g>
</svg>