<?xml version="1.0" encoding="UTF-8"?>
<svg width="190px" height="190px" viewBox="0 0 190 190" version="1.1" xmlns="http://www.w3.org/2000/svg" xmlns:xlink="http://www.w3.org/1999/xlink">
    <!-- Generator: Sketch 59.1 (86144) - https://sketch.com -->
    <title>Contacts</title>
    <desc>Created with Sketch.</desc>
    <g id="Contacts" stroke="none" stroke-width="1" fill="none" fill-rule="evenodd">
        <path d="M72.1484375,109.783203 C80.3027344,109.783203 85.7226562,112.810547 88.1152344,114.519531 L89.2434141,115.169274 C90.3053927,115.768294 91.6478431,116.487517 92.0214844,116.521484 L92.0214844,42.6933594 C88.8476562,36.7851562 79.4726562,32 69.8046875,32 C57.6464844,32 47.2949219,39.03125 45,43.7675781 L45,112.712891 C45,115.935547 46.8554688,117.15625 49.1992188,117.15625 C51.0058594,117.15625 52.2753906,116.521484 53.4472656,115.544922 C56.328125,112.957031 63.1152344,109.783203 72.1484375,109.783203 Z M117.705078,109.783203 C109.599609,109.783203 104.179688,112.810547 101.787109,114.519531 L101.022081,114.983192 C99.9177952,115.645532 98.3012058,116.580927 97.8808594,116.619141 L97.8808594,42.6933594 C101.005859,36.7851562 110.380859,32 120.048828,32 C132.207031,32 142.558594,39.03125 144.853516,43.7675781 L144.853516,112.712891 C144.853516,115.935547 142.949219,117.15625 140.605469,117.15625 C138.798828,117.15625 137.578125,116.472656 136.455078,115.544922 C133.476562,112.957031 126.787109,109.783203 117.705078,109.783203 Z" fill="#007AFF" fill-rule="nonzero"></path>
        <path d="M51.7695312,165.753906 C55.671875,165.753906 58.53125,163.445312 58.9296875,160.023438 L55.953125,160.023438 C55.5429688,161.921875 53.9140625,163.128906 51.7695312,163.128906 C48.8867188,163.128906 47.09375,160.726562 47.09375,156.871094 C47.09375,153.027344 48.8867188,150.625 51.7578125,150.625 C53.890625,150.625 55.5195312,151.949219 55.9414062,153.988281 L58.9179688,153.988281 C58.5664062,150.484375 55.6015625,148 51.7578125,148 C46.9648438,148 44,151.386719 44,156.882812 C44,162.355469 46.9765625,165.753906 51.7695312,165.753906 Z M67.2772666,165.589844 C71.1092978,165.589844 73.4413291,163.082031 73.4413291,158.921875 C73.4413291,154.785156 71.0975791,152.277344 67.2772666,152.277344 C63.4686728,152.277344 61.1132041,154.796875 61.1132041,158.921875 C61.1132041,163.082031 63.4335166,165.589844 67.2772666,165.589844 Z M67.2772666,163.210938 C65.2499228,163.210938 64.0897666,161.640625 64.0897666,158.933594 C64.0897666,156.226562 65.2499228,154.65625 67.2772666,154.65625 C69.2928916,154.65625 70.4530478,156.226562 70.4530478,158.933594 C70.4530478,161.640625 69.3046103,163.210938 67.2772666,163.210938 Z M76.1404707,165.332031 L79.0467207,165.332031 L79.0467207,157.867188 C79.0467207,155.945312 80.1365644,154.738281 81.8709394,154.738281 C83.6404707,154.738281 84.4607832,155.734375 84.4607832,157.726562 L84.4607832,165.332031 L87.3670332,165.332031 L87.3670332,157.046875 C87.3670332,154 85.8084394,152.277344 82.9490644,152.277344 C81.0389082,152.277344 79.7498457,153.144531 79.1404707,154.574219 L78.9412519,154.574219 L78.9412519,152.523438 L76.1404707,152.523438 L76.1404707,165.332031 Z M91.507581,149.382812 L91.507581,152.605469 L89.4802372,152.605469 L89.4802372,154.867188 L91.507581,154.867188 L91.507581,161.933594 C91.507581,164.40625 92.679456,165.390625 95.6208622,165.390625 C96.1833622,165.390625 96.7224247,165.34375 97.1442997,165.261719 L97.1442997,163.035156 L96.7640497,163.070969 C96.5846122,163.085312 96.4060185,163.09375 96.1599247,163.09375 C94.9411747,163.09375 94.4021122,162.519531 94.4021122,161.242188 L94.4021122,154.867188 L97.1442997,154.867188 L97.1442997,152.605469 L94.4021122,152.605469 L94.4021122,149.382812 L91.507581,149.382812 Z M103.347348,165.542969 C105.023129,165.542969 106.429379,164.816406 107.144223,163.574219 L107.343441,163.574219 L107.343441,165.332031 L110.144223,165.332031 L110.144223,156.578125 C110.144223,153.871094 108.29266,152.277344 104.999691,152.277344 C101.952816,152.277344 99.8317226,153.707031 99.5973476,155.945312 L102.339535,155.945312 C102.609066,155.066406 103.523129,154.585938 104.859066,154.585938 C106.429379,154.585938 107.273129,155.300781 107.273129,156.578125 L107.273129,157.679688 L103.968441,157.878906 C100.851254,158.054688 99.1051601,159.402344 99.1051601,161.699219 C99.1051601,164.042969 100.874691,165.542969 103.347348,165.542969 Z M104.202816,163.304688 C102.913754,163.304688 101.987973,162.660156 101.987973,161.558594 C101.987973,160.492188 102.749691,159.894531 104.378598,159.789062 L107.273129,159.589844 L107.273129,160.632812 C107.273129,162.15625 105.960629,163.304688 104.202816,163.304688 Z M124.480083,156.800781 C124.175395,154.152344 122.183208,152.277344 118.890239,152.277344 C115.03477,152.277344 112.773052,154.75 112.773052,158.898438 C112.773052,163.09375 115.046489,165.589844 118.901958,165.589844 C122.148052,165.589844 124.163677,163.785156 124.480083,161.136719 L121.714458,161.136719 C121.40977,162.484375 120.401958,163.199219 118.890239,163.199219 C116.90977,163.199219 115.714458,161.617188 115.714458,158.898438 C115.714458,156.226562 116.898052,154.65625 118.890239,154.65625 C120.483989,154.65625 121.444927,155.558594 121.714458,156.800781 L124.480083,156.800781 Z M128.116724,149.382812 L128.116724,152.605469 L126.089381,152.605469 L126.089381,154.867188 L128.116724,154.867188 L128.116724,161.933594 C128.116724,164.40625 129.288599,165.390625 132.230006,165.390625 C132.792506,165.390625 133.331568,165.34375 133.753443,165.261719 L133.753443,163.035156 L133.373193,163.070969 C133.193756,163.085312 133.015162,163.09375 132.769068,163.09375 C131.550318,163.09375 131.011256,162.519531 131.011256,161.242188 L131.011256,154.867188 L133.753443,154.867188 L133.753443,152.605469 L131.011256,152.605469 L131.011256,149.382812 L128.116724,149.382812 Z M135.972116,156.179688 C135.972116,153.882812 138.081491,152.277344 141.104929,152.277344 C144.151804,152.277344 146.06196,153.613281 146.272897,155.921875 L143.542429,155.921875 C143.331491,155.019531 142.476022,154.433594 141.116647,154.433594 C139.792429,154.433594 138.796335,155.078125 138.796335,156.027344 C138.796335,156.753906 139.40571,157.210938 140.694772,157.515625 L142.956491,158.019531 C145.40571,158.582031 146.542429,159.625 146.542429,161.511719 C146.542429,163.960938 144.28071,165.589844 141.081491,165.589844 C137.882272,165.589844 135.866647,164.207031 135.643991,161.898438 L138.515085,161.898438 C138.796335,162.847656 139.698679,163.433594 141.151804,163.433594 C142.616647,163.433594 143.636179,162.765625 143.636179,161.792969 C143.636179,161.066406 143.085397,160.597656 141.866647,160.316406 L139.59321,159.789062 C137.132272,159.226562 135.972116,158.101562 135.972116,156.179688 Z" fill="#007AFF" fill-rule="nonzero"></path>
    </g>
</svg>