<?xml version="1.0" encoding="UTF-8"?>
<svg width="150px" height="190px" viewBox="0 0 150 190" version="1.1" xmlns="http://www.w3.org/2000/svg" xmlns:xlink="http://www.w3.org/1999/xlink">
    <!-- Generator: Sketch 59.1 (86144) - https://sketch.com -->
    <title>Locations</title>
    <desc>Created with Sketch.</desc>
    <g id="Locations" stroke="none" stroke-width="1" fill="none" fill-rule="evenodd">
        <path d="M34.3984375,78.0996094 C29.6132812,78.0996094 26,75.9511719 26,72.1914062 C26,68.4316406 29.6132812,66.3808594 33.3242188,64.671875 L113.890625,27.3183594 C115.794922,26.390625 117.503906,26 118.96875,26 C122.240234,26 124.632812,28.4414062 124.632812,31.6640625 C124.632812,33.0800781 124.193359,34.7890625 123.265625,36.6933594 L85.4913045,118.060384 C83.817808,121.584052 81.844613,124.583984 78.3925781,124.583984 C74.6123047,124.583984 72.5671289,120.926211 72.486834,116.414019 L72.3867188,79.2714844 C72.3867188,78.5390625 72.0449219,78.2460938 71.3613281,78.2460938 L34.3984375,78.0996094 Z" fill="#007AFF" fill-rule="nonzero"></path>
        <path d="M35.3777597,165.625977 L28.2664316,165.625977 L28.2664316,152.499023 L25.4949472,152.499023 L25.4949472,168 L35.3777597,168 L35.3777597,165.625977 Z M42.4066603,168.236328 C45.9193557,168.236328 48.057051,165.9375 48.057051,162.124023 C48.057051,158.332031 45.9086135,156.033203 42.4066603,156.033203 C38.9154494,156.033203 36.7562697,158.342773 36.7562697,162.124023 C36.7562697,165.9375 38.8832228,168.236328 42.4066603,168.236328 Z M42.4066603,166.055664 C40.5482619,166.055664 39.4847853,164.616211 39.4847853,162.134766 C39.4847853,159.65332 40.5482619,158.213867 42.4066603,158.213867 C44.2543166,158.213867 45.3177932,159.65332 45.3177932,162.134766 C45.3177932,164.616211 44.2650588,166.055664 42.4066603,166.055664 Z M60.6826313,160.179688 C60.4033344,157.751953 58.5771625,156.033203 55.5586078,156.033203 C52.0244282,156.033203 49.951186,158.299805 49.951186,162.102539 C49.951186,165.948242 52.0351703,168.236328 55.56935,168.236328 C58.544936,168.236328 60.3925922,166.582031 60.6826313,164.154297 L58.147475,164.154297 C57.8681782,165.389648 56.94435,166.044922 55.5586078,166.044922 C53.7431782,166.044922 52.647475,164.594727 52.647475,162.102539 C52.647475,159.65332 53.732436,158.213867 55.5586078,158.213867 C57.0195453,158.213867 57.9004047,159.041016 58.147475,160.179688 L60.6826313,160.179688 Z M66.2505944,168.193359 C67.7867272,168.193359 69.0757897,167.527344 69.7310631,166.388672 L69.9136803,166.388672 L69.9136803,168 L72.4810631,168 L72.4810631,159.975586 C72.4810631,157.494141 70.7837975,156.033203 67.7652428,156.033203 C64.9722741,156.033203 63.0279381,157.34375 62.8130944,159.395508 L65.3267663,159.395508 C65.5738366,158.589844 66.4117272,158.149414 67.6363366,158.149414 C69.0757897,158.149414 69.8492272,158.804688 69.8492272,159.975586 L69.8492272,160.985352 L66.8199303,161.167969 C63.9625085,161.329102 62.3619225,162.564453 62.3619225,164.669922 C62.3619225,166.818359 63.9839928,168.193359 66.2505944,168.193359 Z M67.0347741,166.141602 C65.8531335,166.141602 65.0045006,165.550781 65.0045006,164.541016 C65.0045006,163.563477 65.7027428,163.015625 67.1959069,162.918945 L69.8492272,162.736328 L69.8492272,163.692383 C69.8492272,165.088867 68.6461022,166.141602 67.0347741,166.141602 Z M76.3195341,153.379883 L76.3195341,156.333984 L74.4611356,156.333984 L74.4611356,158.407227 L76.3195341,158.407227 L76.3195341,164.884766 C76.3195341,167.151367 77.3937528,168.053711 80.0900419,168.053711 C80.6056669,168.053711 81.0998075,168.010742 81.4865263,167.935547 L81.4865263,165.894531 L81.1379638,165.927359 C80.9734794,165.940508 80.8097684,165.948242 80.5841825,165.948242 C79.466995,165.948242 78.9728544,165.421875 78.9728544,164.250977 L78.9728544,158.407227 L81.4865263,158.407227 L81.4865263,156.333984 L78.9728544,156.333984 L78.9728544,153.379883 L76.3195341,153.379883 Z M85.2927706,154.292969 C86.17363,154.292969 86.8933566,153.594727 86.8933566,152.713867 C86.8933566,151.84375 86.17363,151.134766 85.2927706,151.134766 C84.4226534,151.134766 83.7029269,151.84375 83.7029269,152.713867 C83.7029269,153.594727 84.4226534,154.292969 85.2927706,154.292969 Z M83.9714816,168 L86.6248019,168 L86.6248019,156.258789 L83.9714816,156.258789 L83.9714816,168 Z M94.7816322,168.236328 C98.2943275,168.236328 100.432023,165.9375 100.432023,162.124023 C100.432023,158.332031 98.2835853,156.033203 94.7816322,156.033203 C91.2904212,156.033203 89.1312415,158.342773 89.1312415,162.124023 C89.1312415,165.9375 91.2581947,168.236328 94.7816322,168.236328 Z M94.7816322,166.055664 C92.9232337,166.055664 91.8597572,164.616211 91.8597572,162.134766 C91.8597572,159.65332 92.9232337,158.213867 94.7816322,158.213867 C96.6292884,158.213867 97.692765,159.65332 97.692765,162.134766 C97.692765,164.616211 96.6400306,166.055664 94.7816322,166.055664 Z M102.906236,168 L105.570298,168 L105.570298,161.157227 C105.570298,159.395508 106.569322,158.289062 108.159166,158.289062 C109.781236,158.289062 110.533189,159.202148 110.533189,161.02832 L110.533189,168 L113.197252,168 L113.197252,160.405273 C113.197252,157.612305 111.768541,156.033203 109.147447,156.033203 C107.39647,156.033203 106.21483,156.828125 105.656236,158.138672 L105.473619,158.138672 L105.473619,156.258789 L102.906236,156.258789 L102.906236,168 Z M115.875566,159.610352 C115.875566,157.504883 117.80916,156.033203 120.580644,156.033203 C123.373613,156.033203 125.12459,157.257812 125.317949,159.374023 L122.815019,159.374023 C122.62166,158.546875 121.83748,158.009766 120.591387,158.009766 C119.377519,158.009766 118.464433,158.600586 118.464433,159.470703 C118.464433,160.136719 119.023027,160.555664 120.204668,160.834961 L122.27791,161.296875 C124.523027,161.8125 125.565019,162.768555 125.565019,164.498047 C125.565019,166.743164 123.491777,168.236328 120.55916,168.236328 C117.626543,168.236328 115.778887,166.96875 115.574785,164.852539 L118.206621,164.852539 C118.464433,165.722656 119.291582,166.259766 120.623613,166.259766 C121.966387,166.259766 122.900957,165.647461 122.900957,164.755859 C122.900957,164.089844 122.396074,163.660156 121.278887,163.402344 L119.194902,162.918945 C116.939043,162.40332 115.875566,161.37207 115.875566,159.610352 Z" fill="#007AFF" fill-rule="nonzero"></path>
    </g>
</svg>