<?xml version="1.0" encoding="UTF-8"?>
<svg width="190px" height="190px" viewBox="0 0 190 190" version="1.1" xmlns="http://www.w3.org/2000/svg" xmlns:xlink="http://www.w3.org/1999/xlink">
    <!-- Generator: Sketch 59.1 (86144) - https://sketch.com -->
    <title>Locations</title>
    <desc>Created with Sketch.</desc>
    <g id="Locations" stroke="none" stroke-width="1" fill="none" fill-rule="evenodd">
        <path d="M54.3984375,78.0996094 C49.6132812,78.0996094 46,75.9511719 46,72.1914062 C46,68.4316406 49.6132812,66.3808594 53.3242188,64.671875 L133.890625,27.3183594 C135.794922,26.390625 137.503906,26 138.96875,26 C142.240234,26 144.632812,28.4414062 144.632812,31.6640625 C144.632812,33.0800781 144.193359,34.7890625 143.265625,36.6933594 L105.491304,118.060384 C103.817808,121.584052 101.844613,124.583984 98.3925781,124.583984 C94.6123047,124.583984 92.5671289,120.926211 92.486834,116.414019 L92.3867188,79.2714844 C92.3867188,78.5390625 92.0449219,78.2460938 91.3613281,78.2460938 L54.3984375,78.0996094 Z" fill="#007AFF" fill-rule="nonzero"></path>
        <path d="M51.9438477,162.232422 L43.628418,162.232422 L43.628418,146.680664 L40.3530273,146.680664 L40.3530273,165 L51.9438477,165 L51.9438477,162.232422 Z M59.9291992,165.266602 C63.8774414,165.266602 66.4418945,162.638672 66.4418945,158.271484 C66.4418945,153.916992 63.8520508,151.263672 59.9291992,151.263672 C56.0063477,151.263672 53.4165039,153.929688 53.4165039,158.271484 C53.4165039,162.638672 55.980957,165.266602 59.9291992,165.266602 Z M59.9291992,162.765625 C57.9233398,162.765625 56.628418,161.140625 56.628418,158.271484 C56.628418,155.415039 57.9360352,153.777344 59.9291992,153.777344 C61.9350586,153.777344 63.2299805,155.415039 63.2299805,158.271484 C63.2299805,161.140625 61.9350586,162.765625 59.9291992,162.765625 Z M80.3305664,156.341797 C80.1147461,153.510742 77.918457,151.263672 74.3637695,151.263672 C70.4536133,151.263672 67.9145508,153.967773 67.9145508,158.271484 C67.9145508,162.638672 70.4536133,165.266602 74.3891602,165.266602 C77.7661133,165.266602 80.0893555,163.286133 80.3432617,160.277344 L77.3598633,160.277344 C77.0678711,161.800781 76.0268555,162.714844 74.4272461,162.714844 C72.4213867,162.714844 71.1264648,161.089844 71.1264648,158.271484 C71.1264648,155.503906 72.4086914,153.828125 74.4018555,153.828125 C76.090332,153.828125 77.0932617,154.907227 77.347168,156.341797 L80.3305664,156.341797 Z M86.1831055,165.21582 C87.909668,165.21582 89.5981445,164.314453 90.3725586,162.854492 L90.4360352,162.854492 L90.4360352,165 L93.4829102,165 L93.4829102,155.732422 C93.4829102,153.02832 91.3120117,151.263672 87.9731445,151.263672 C84.5454102,151.263672 82.3999023,153.066406 82.2602539,155.580078 L85.1928711,155.580078 C85.3959961,154.462891 86.3481445,153.739258 87.8461914,153.739258 C89.4077148,153.739258 90.3598633,154.551758 90.3598633,155.960938 L90.3598633,156.925781 L86.8051758,157.128906 C83.5297852,157.332031 81.6889648,158.766602 81.6889648,161.15332 C81.6889648,163.578125 83.5805664,165.21582 86.1831055,165.21582 Z M87.1352539,162.829102 C85.7641602,162.829102 84.8500977,162.130859 84.8500977,161.026367 C84.8500977,159.959961 85.7260742,159.274414 87.2495117,159.172852 L90.3598633,158.982422 L90.3598633,160.010742 C90.3598633,161.635742 88.925293,162.829102 87.1352539,162.829102 Z M96.8979492,148.394531 L96.8979492,151.542969 L94.9682617,151.542969 L94.9682617,153.980469 L96.8979492,153.980469 L96.8979492,161.419922 C96.8979492,164.035156 98.0405273,165.063477 100.947754,165.063477 C101.620605,165.063477 102.242676,165.012695 102.585449,164.936523 L102.585449,162.524414 C102.382324,162.5625 101.976074,162.587891 101.684082,162.587891 C100.566895,162.587891 100.059082,162.080078 100.059082,160.975586 L100.059082,153.980469 L102.598145,153.980469 L102.598145,151.542969 L100.059082,151.542969 L100.059082,148.394531 L96.8979492,148.394531 Z M106.394043,149.511719 C107.358887,149.511719 108.120605,148.737305 108.120605,147.797852 C108.120605,146.845703 107.358887,146.083984 106.394043,146.083984 C105.429199,146.083984 104.654785,146.845703 104.654785,147.797852 C104.654785,148.737305 105.429199,149.511719 106.394043,149.511719 Z M104.819824,165 L107.980957,165 L107.980957,151.542969 L104.819824,151.542969 L104.819824,165 Z M116.588379,165.266602 C120.536621,165.266602 123.101074,162.638672 123.101074,158.271484 C123.101074,153.916992 120.51123,151.263672 116.588379,151.263672 C112.665527,151.263672 110.075684,153.929688 110.075684,158.271484 C110.075684,162.638672 112.640137,165.266602 116.588379,165.266602 Z M116.588379,162.765625 C114.58252,162.765625 113.287598,161.140625 113.287598,158.271484 C113.287598,155.415039 114.595215,153.777344 116.588379,153.777344 C118.594238,153.777344 119.88916,155.415039 119.88916,158.271484 C119.88916,161.140625 118.594238,162.765625 116.588379,162.765625 Z M125.132324,165 L128.293457,165 L128.293457,157.205078 C128.293457,155.275391 129.44873,153.967773 131.26416,153.967773 C133.066895,153.967773 133.955566,155.03418 133.955566,156.938477 L133.955566,165 L137.116699,165 L137.116699,156.303711 C137.116699,153.193359 135.428223,151.289062 132.45752,151.289062 C130.388184,151.289062 128.953613,152.253906 128.22998,153.853516 L128.166504,153.853516 L128.166504,151.542969 L125.132324,151.542969 L125.132324,165 Z M139.401855,155.402344 C139.401855,152.939453 141.547363,151.263672 144.797363,151.263672 C148.072754,151.263672 150.154785,153.02832 150.230957,155.580078 L147.285645,155.580078 C147.158691,154.361328 146.257324,153.586914 144.797363,153.586914 C143.400879,153.586914 142.474121,154.24707 142.474121,155.237305 C142.474121,156.011719 143.032715,156.544922 144.441895,156.862305 L146.67627,157.357422 C149.469238,157.979492 150.54834,159.058594 150.54834,161.013672 C150.54834,163.552734 148.212402,165.266602 144.911621,165.266602 C141.39502,165.266602 139.312988,163.59082 139.059082,160.988281 L142.169434,160.988281 C142.410645,162.295898 143.312012,162.956055 144.911621,162.956055 C146.447754,162.956055 147.399902,162.321289 147.399902,161.318359 C147.399902,160.505859 146.91748,160.048828 145.508301,159.731445 L143.273926,159.236328 C140.696777,158.665039 139.401855,157.395508 139.401855,155.402344 Z" fill="#007AFF" fill-rule="nonzero"></path>
    </g>
</svg>