<?xml version="1.0" encoding="UTF-8"?>
<svg width="210px" height="210px" viewBox="0 0 210 210" version="1.1" xmlns="http://www.w3.org/2000/svg" xmlns:xlink="http://www.w3.org/1999/xlink">
    <!-- Generator: Sketch 59.1 (86144) - https://sketch.com -->
    <title>Locations</title>
    <desc>Created with Sketch.</desc>
    <g id="Locations" stroke="none" stroke-width="1" fill="none" fill-rule="evenodd">
        <path d="M64.3984375,78.0996094 C59.6132812,78.0996094 56,75.9511719 56,72.1914062 C56,68.4316406 59.6132812,66.3808594 63.3242188,64.671875 L143.890625,27.3183594 C145.794922,26.390625 147.503906,26 148.96875,26 C152.240234,26 154.632812,28.4414062 154.632812,31.6640625 C154.632812,33.0800781 154.193359,34.7890625 153.265625,36.6933594 L115.491304,118.060384 C113.817808,121.584052 111.844613,124.583984 108.392578,124.583984 C104.612305,124.583984 102.567129,120.926211 102.486834,116.414019 L102.386719,79.2714844 C102.386719,78.5390625 102.044922,78.2460938 101.361328,78.2460938 L64.3984375,78.0996094 Z" fill="#007AFF" fill-rule="nonzero"></path>
        <path d="M52.0078125,174.59375 L41.7734375,174.59375 L41.7734375,155.453125 L37.7421875,155.453125 L37.7421875,178 L52.0078125,178 L52.0078125,174.59375 Z M61.8359375,178.328125 C66.6953125,178.328125 69.8515625,175.09375 69.8515625,169.71875 C69.8515625,164.359375 66.6640625,161.09375 61.8359375,161.09375 C57.0078125,161.09375 53.8203125,164.375 53.8203125,169.71875 C53.8203125,175.09375 56.9765625,178.328125 61.8359375,178.328125 Z M61.8359375,175.25 C59.3671875,175.25 57.7734375,173.25 57.7734375,169.71875 C57.7734375,166.203125 59.3828125,164.1875 61.8359375,164.1875 C64.3046875,164.1875 65.8984375,166.203125 65.8984375,169.71875 C65.8984375,173.25 64.3046875,175.25 61.8359375,175.25 Z M86.9453125,167.34375 C86.6796875,163.859375 83.9765625,161.09375 79.6015625,161.09375 C74.7890625,161.09375 71.6640625,164.421875 71.6640625,169.71875 C71.6640625,175.09375 74.7890625,178.328125 79.6328125,178.328125 C83.7890625,178.328125 86.6484375,175.890625 86.9609375,172.1875 L83.2890625,172.1875 C82.9296875,174.0625 81.6484375,175.1875 79.6796875,175.1875 C77.2109375,175.1875 75.6171875,173.1875 75.6171875,169.71875 C75.6171875,166.3125 77.1953125,164.25 79.6484375,164.25 C81.7265625,164.25 82.9609375,165.578125 83.2734375,167.34375 L86.9453125,167.34375 Z M94.1484375,178.265625 C96.2734375,178.265625 98.3515625,177.15625 99.3046875,175.359375 L99.3828125,175.359375 L99.3828125,178 L103.132812,178 L103.132812,166.59375 C103.132812,163.265625 100.460938,161.09375 96.3515625,161.09375 C92.1328125,161.09375 89.4921875,163.3125 89.3203125,166.40625 L92.9296875,166.40625 C93.1796875,165.03125 94.3515625,164.140625 96.1953125,164.140625 C98.1171875,164.140625 99.2890625,165.140625 99.2890625,166.875 L99.2890625,168.0625 L94.9140625,168.3125 C90.8828125,168.5625 88.6171875,170.328125 88.6171875,173.265625 C88.6171875,176.25 90.9453125,178.265625 94.1484375,178.265625 Z M95.3203125,175.328125 C93.6328125,175.328125 92.5078125,174.46875 92.5078125,173.109375 C92.5078125,171.796875 93.5859375,170.953125 95.4609375,170.828125 L99.2890625,170.59375 L99.2890625,171.859375 C99.2890625,173.859375 97.5234375,175.328125 95.3203125,175.328125 Z M107.335938,157.5625 L107.335938,161.4375 L104.960938,161.4375 L104.960938,164.4375 L107.335938,164.4375 L107.335938,173.59375 C107.335938,176.8125 108.742188,178.078125 112.320312,178.078125 C113.148438,178.078125 113.914062,178.015625 114.335938,177.921875 L114.335938,174.953125 C114.085938,175 113.585938,175.03125 113.226562,175.03125 C111.851562,175.03125 111.226562,174.40625 111.226562,173.046875 L111.226562,164.4375 L114.351562,164.4375 L114.351562,161.4375 L111.226562,161.4375 L111.226562,157.5625 L107.335938,157.5625 Z M119.023438,158.9375 C120.210938,158.9375 121.148438,157.984375 121.148438,156.828125 C121.148438,155.65625 120.210938,154.71875 119.023438,154.71875 C117.835938,154.71875 116.882812,155.65625 116.882812,156.828125 C116.882812,157.984375 117.835938,158.9375 119.023438,158.9375 Z M117.085938,178 L120.976562,178 L120.976562,161.4375 L117.085938,161.4375 L117.085938,178 Z M131.570312,178.328125 C136.429688,178.328125 139.585938,175.09375 139.585938,169.71875 C139.585938,164.359375 136.398438,161.09375 131.570312,161.09375 C126.742188,161.09375 123.554688,164.375 123.554688,169.71875 C123.554688,175.09375 126.710938,178.328125 131.570312,178.328125 Z M131.570312,175.25 C129.101562,175.25 127.507812,173.25 127.507812,169.71875 C127.507812,166.203125 129.117188,164.1875 131.570312,164.1875 C134.039062,164.1875 135.632812,166.203125 135.632812,169.71875 C135.632812,173.25 134.039062,175.25 131.570312,175.25 Z M142.085938,178 L145.976562,178 L145.976562,168.40625 C145.976562,166.03125 147.398438,164.421875 149.632812,164.421875 C151.851562,164.421875 152.945312,165.734375 152.945312,168.078125 L152.945312,178 L156.835938,178 L156.835938,167.296875 C156.835938,163.46875 154.757812,161.125 151.101562,161.125 C148.554688,161.125 146.789062,162.3125 145.898438,164.28125 L145.820312,164.28125 L145.820312,161.4375 L142.085938,161.4375 L142.085938,178 Z M159.648438,166.1875 C159.648438,163.15625 162.289062,161.09375 166.289062,161.09375 C170.320312,161.09375 172.882812,163.265625 172.976562,166.40625 L169.351562,166.40625 C169.195312,164.90625 168.085938,163.953125 166.289062,163.953125 C164.570312,163.953125 163.429688,164.765625 163.429688,165.984375 C163.429688,166.9375 164.117188,167.59375 165.851562,167.984375 L168.601562,168.59375 C172.039062,169.359375 173.367188,170.6875 173.367188,173.09375 C173.367188,176.21875 170.492188,178.328125 166.429688,178.328125 C162.101562,178.328125 159.539062,176.265625 159.226562,173.0625 L163.054688,173.0625 C163.351562,174.671875 164.460938,175.484375 166.429688,175.484375 C168.320312,175.484375 169.492188,174.703125 169.492188,173.46875 C169.492188,172.46875 168.898438,171.90625 167.164062,171.515625 L164.414062,170.90625 C161.242188,170.203125 159.648438,168.640625 159.648438,166.1875 Z" fill="#007AFF" fill-rule="nonzero"></path>
    </g>
</svg>