<?xml version="1.0" encoding="UTF-8"?>
<svg width="200px" height="200px" viewBox="0 0 200 200" version="1.1" xmlns="http://www.w3.org/2000/svg" xmlns:xlink="http://www.w3.org/1999/xlink">
    <title>location</title>
    <defs>
        <path d="M142.505593,199.776349 C162.751678,199.776349 177.181208,197.540464 187.583893,187.255391 C197.87472,176.858525 200,162.660653 200,142.314097 L200,57.4622515 C200,37.1156955 197.87472,22.8060298 187.583893,12.5209575 C177.069351,2.23588527 162.751678,0 142.505593,0 L56.8232662,0 C37.4720358,0 22.9306488,2.23588527 12.5279642,12.6327518 C2.23713647,22.917824 0,37.2274898 0,56.7914859 L0,142.314097 C0,162.660653 2.12527964,176.970319 12.5279642,187.255391 C22.9306488,197.540464 37.2483221,199.776349 57.606264,199.776349 L142.505593,199.776349 Z" id="path-1"></path>
    </defs>
    <g id="location" stroke="none" stroke-width="1" fill="none" fill-rule="evenodd">
        <g id="GitHub-Preview-Mask" transform="translate(0.000000, 0.000000)">
            <mask id="mask-2" fill="white">
                <use xlink:href="#path-1"></use>
            </mask>
            <use id="Mask" fill="#FFFFFF" fill-rule="nonzero" xlink:href="#path-1"></use>
        </g>
        <g id="Icon">
            <rect id="Rectangle" fill="#FFFFFF" x="0" y="0" width="200" height="200"></rect>
            <rect id="Background" fill="#007AFF" x="0" y="0" width="200" height="200"></rect>
            <path d="M103.790042,153.276665 C105.225589,151.789848 106.25098,149.585258 107.481449,146.867973 L145.984867,63.2986374 C147.984378,58.9407272 147.574222,55.8645553 145.472171,53.8137741 C143.42139,51.7117233 140.345218,51.3015671 135.987308,53.3010788 L52.4692417,91.8044968 C49.700687,93.0349655 47.4960972,94.0603561 46.0092808,95.495903 C43.5996128,97.905571 43.1894565,102.058403 45.7016636,104.57061 C47.3935581,106.262505 50.1108433,107.134087 52.8793979,107.134087 L90.1010776,107.236626 C90.9213901,107.236626 91.3828159,107.339165 91.6904331,107.595512 C91.9467808,107.90313 92.0493198,108.364555 92.0493198,109.184868 L92.1518589,146.406548 C92.1518589,149.175102 93.0234409,151.892387 94.7153354,153.584282 C97.2275425,156.096489 101.380375,155.686333 103.790042,153.276665 Z" fill="#FFFFFF" fill-rule="nonzero"></path>
        </g>
    </g>
</svg>