<?xml version="1.0" encoding="UTF-8"?>
<svg width="220px" height="210px" viewBox="0 0 220 210" version="1.1" xmlns="http://www.w3.org/2000/svg" xmlns:xlink="http://www.w3.org/1999/xlink">
    <!-- Generator: Sketch 59.1 (86144) - https://sketch.com -->
    <title>Locations</title>
    <desc>Created with Sketch.</desc>
    <g id="Locations" stroke="none" stroke-width="1" fill="none" fill-rule="evenodd">
        <path d="M69.3984375,78.0996094 C64.6132812,78.0996094 61,75.9511719 61,72.1914062 C61,68.4316406 64.6132812,66.3808594 68.3242188,64.671875 L148.890625,27.3183594 C150.794922,26.390625 152.503906,26 153.96875,26 C157.240234,26 159.632812,28.4414062 159.632812,31.6640625 C159.632812,33.0800781 159.193359,34.7890625 158.265625,36.6933594 L120.491304,118.060384 C118.817808,121.584052 116.844613,124.583984 113.392578,124.583984 C109.612305,124.583984 107.567129,120.926211 107.486834,116.414019 L107.386719,79.2714844 C107.386719,78.5390625 107.044922,78.2460938 106.361328,78.2460938 L69.3984375,78.0996094 Z" fill="#007AFF" fill-rule="nonzero"></path>
        <path d="M56.265625,174.875 L46.03125,174.875 L46.03125,155.734375 L42,155.734375 L42,178.28125 L56.265625,178.28125 L56.265625,174.875 Z M66.09375,178.609375 C70.953125,178.609375 74.109375,175.375 74.109375,170 C74.109375,164.640625 70.921875,161.375 66.09375,161.375 C61.265625,161.375 58.078125,164.65625 58.078125,170 C58.078125,175.375 61.234375,178.609375 66.09375,178.609375 Z M66.09375,175.53125 C63.625,175.53125 62.03125,173.53125 62.03125,170 C62.03125,166.484375 63.640625,164.46875 66.09375,164.46875 C68.5625,164.46875 70.15625,166.484375 70.15625,170 C70.15625,173.53125 68.5625,175.53125 66.09375,175.53125 Z M91.203125,167.625 C90.9375,164.140625 88.234375,161.375 83.859375,161.375 C79.046875,161.375 75.921875,164.703125 75.921875,170 C75.921875,175.375 79.046875,178.609375 83.890625,178.609375 C88.046875,178.609375 90.90625,176.171875 91.21875,172.46875 L87.546875,172.46875 C87.1875,174.34375 85.90625,175.46875 83.9375,175.46875 C81.46875,175.46875 79.875,173.46875 79.875,170 C79.875,166.59375 81.453125,164.53125 83.90625,164.53125 C85.984375,164.53125 87.21875,165.859375 87.53125,167.625 L91.203125,167.625 Z M98.40625,178.546875 C100.53125,178.546875 102.609375,177.4375 103.5625,175.640625 L103.640625,175.640625 L103.640625,178.28125 L107.390625,178.28125 L107.390625,166.875 C107.390625,163.546875 104.71875,161.375 100.609375,161.375 C96.390625,161.375 93.75,163.59375 93.578125,166.6875 L97.1875,166.6875 C97.4375,165.3125 98.609375,164.421875 100.453125,164.421875 C102.375,164.421875 103.546875,165.421875 103.546875,167.15625 L103.546875,168.34375 L99.171875,168.59375 C95.140625,168.84375 92.875,170.609375 92.875,173.546875 C92.875,176.53125 95.203125,178.546875 98.40625,178.546875 Z M99.578125,175.609375 C97.890625,175.609375 96.765625,174.75 96.765625,173.390625 C96.765625,172.078125 97.84375,171.234375 99.71875,171.109375 L103.546875,170.875 L103.546875,172.140625 C103.546875,174.140625 101.78125,175.609375 99.578125,175.609375 Z M111.59375,157.84375 L111.59375,161.71875 L109.21875,161.71875 L109.21875,164.71875 L111.59375,164.71875 L111.59375,173.875 C111.59375,177.09375 113,178.359375 116.578125,178.359375 C117.40625,178.359375 118.171875,178.296875 118.59375,178.203125 L118.59375,175.234375 C118.34375,175.28125 117.84375,175.3125 117.484375,175.3125 C116.109375,175.3125 115.484375,174.6875 115.484375,173.328125 L115.484375,164.71875 L118.609375,164.71875 L118.609375,161.71875 L115.484375,161.71875 L115.484375,157.84375 L111.59375,157.84375 Z M123.28125,159.21875 C124.46875,159.21875 125.40625,158.265625 125.40625,157.109375 C125.40625,155.9375 124.46875,155 123.28125,155 C122.09375,155 121.140625,155.9375 121.140625,157.109375 C121.140625,158.265625 122.09375,159.21875 123.28125,159.21875 Z M121.34375,178.28125 L125.234375,178.28125 L125.234375,161.71875 L121.34375,161.71875 L121.34375,178.28125 Z M135.828125,178.609375 C140.6875,178.609375 143.84375,175.375 143.84375,170 C143.84375,164.640625 140.65625,161.375 135.828125,161.375 C131,161.375 127.8125,164.65625 127.8125,170 C127.8125,175.375 130.96875,178.609375 135.828125,178.609375 Z M135.828125,175.53125 C133.359375,175.53125 131.765625,173.53125 131.765625,170 C131.765625,166.484375 133.375,164.46875 135.828125,164.46875 C138.296875,164.46875 139.890625,166.484375 139.890625,170 C139.890625,173.53125 138.296875,175.53125 135.828125,175.53125 Z M146.34375,178.28125 L150.234375,178.28125 L150.234375,168.6875 C150.234375,166.3125 151.65625,164.703125 153.890625,164.703125 C156.109375,164.703125 157.203125,166.015625 157.203125,168.359375 L157.203125,178.28125 L161.09375,178.28125 L161.09375,167.578125 C161.09375,163.75 159.015625,161.40625 155.359375,161.40625 C152.8125,161.40625 151.046875,162.59375 150.15625,164.5625 L150.078125,164.5625 L150.078125,161.71875 L146.34375,161.71875 L146.34375,178.28125 Z M163.90625,166.46875 C163.90625,163.4375 166.546875,161.375 170.546875,161.375 C174.578125,161.375 177.140625,163.546875 177.234375,166.6875 L173.609375,166.6875 C173.453125,165.1875 172.34375,164.234375 170.546875,164.234375 C168.828125,164.234375 167.6875,165.046875 167.6875,166.265625 C167.6875,167.21875 168.375,167.875 170.109375,168.265625 L172.859375,168.875 C176.296875,169.640625 177.625,170.96875 177.625,173.375 C177.625,176.5 174.75,178.609375 170.6875,178.609375 C166.359375,178.609375 163.796875,176.546875 163.484375,173.34375 L167.3125,173.34375 C167.609375,174.953125 168.71875,175.765625 170.6875,175.765625 C172.578125,175.765625 173.75,174.984375 173.75,173.75 C173.75,172.75 173.15625,172.1875 171.421875,171.796875 L168.671875,171.1875 C165.5,170.484375 163.90625,168.921875 163.90625,166.46875 Z" fill="#007AFF" fill-rule="nonzero"></path>
    </g>
</svg>