<?xml version="1.0" encoding="UTF-8"?>
<svg width="160px" height="190px" viewBox="0 0 160 190" version="1.1" xmlns="http://www.w3.org/2000/svg" xmlns:xlink="http://www.w3.org/1999/xlink">
    <!-- Generator: Sketch 59.1 (86144) - https://sketch.com -->
    <title>Locations</title>
    <desc>Created with Sketch.</desc>
    <g id="Locations" stroke="none" stroke-width="1" fill="none" fill-rule="evenodd">
        <path d="M39.3984375,78.0996094 C34.6132812,78.0996094 31,75.9511719 31,72.1914062 C31,68.4316406 34.6132812,66.3808594 38.3242188,64.671875 L118.890625,27.3183594 C120.794922,26.390625 122.503906,26 123.96875,26 C127.240234,26 129.632812,28.4414062 129.632812,31.6640625 C129.632812,33.0800781 129.193359,34.7890625 128.265625,36.6933594 L90.4913045,118.060384 C88.817808,121.584052 86.844613,124.583984 83.3925781,124.583984 C79.6123047,124.583984 77.5671289,120.926211 77.486834,116.414019 L77.3867188,79.2714844 C77.3867188,78.5390625 77.0449219,78.2460938 76.3613281,78.2460938 L39.3984375,78.0996094 Z" fill="#007AFF" fill-rule="nonzero"></path>
        <path d="M51.03125,166.59375 L45.75,166.59375 L45.75,156.84375 L44,156.84375 L44,168.117188 L51.03125,168.117188 L51.03125,166.59375 Z M56.0963027,168.28125 C58.5806777,168.28125 60.1041152,166.617188 60.1041152,163.875 C60.1041152,161.132812 58.5728652,159.46875 56.0963027,159.46875 C53.6119277,159.46875 52.0806777,161.140625 52.0806777,163.875 C52.0806777,166.617188 53.6041152,168.28125 56.0963027,168.28125 Z M56.0963027,166.851562 C54.6353652,166.851562 53.8150527,165.765625 53.8150527,163.875 C53.8150527,161.984375 54.6353652,160.890625 56.0963027,160.890625 C57.5494277,160.890625 58.3775527,161.984375 58.3775527,163.875 C58.3775527,165.757812 57.5494277,166.851562 56.0963027,166.851562 Z M69.1691679,162.359375 C68.9504179,160.710938 67.6613554,159.46875 65.5285429,159.46875 C63.0519804,159.46875 61.5441679,161.148438 61.5441679,163.84375 C61.5441679,166.59375 63.0597929,168.28125 65.5363554,168.28125 C67.6379179,168.28125 68.9504179,167.101562 69.1691679,165.429688 L67.5363554,165.429688 C67.3176054,166.351562 66.5910429,166.851562 65.5285429,166.851562 C64.1301054,166.851562 63.2629179,165.71875 63.2629179,163.84375 C63.2629179,162.007812 64.1222929,160.898438 65.5285429,160.898438 C66.6535429,160.898438 67.3410429,161.53125 67.5363554,162.359375 L69.1691679,162.359375 Z M73.2810957,168.257812 C74.3982832,168.257812 75.3279707,167.773438 75.8357832,166.914062 L75.9685957,166.914062 L75.9685957,168.117188 L77.5857832,168.117188 L77.5857832,162.3125 C77.5857832,160.53125 76.3826582,159.46875 74.2498457,159.46875 C72.3201582,159.46875 70.9451582,160.398438 70.7732832,161.828125 L72.3982832,161.828125 C72.5857832,161.210938 73.2342207,160.859375 74.1717207,160.859375 C75.3201582,160.859375 75.9139082,161.382812 75.9139082,162.3125 L75.9139082,163.054688 L73.6092207,163.195312 C71.5857832,163.320312 70.4451582,164.203125 70.4451582,165.726562 C70.4451582,167.273438 71.6404707,168.257812 73.2810957,168.257812 Z M73.7107832,166.90625 C72.7967207,166.90625 72.1326582,166.445312 72.1326582,165.65625 C72.1326582,164.882812 72.6639082,164.46875 73.8357832,164.390625 L75.9139082,164.25 L75.9139082,164.984375 C75.9139082,166.078125 74.9764082,166.90625 73.7107832,166.90625 Z M80.4164609,157.492188 L80.4164609,159.65625 L79.0648984,159.65625 L79.0648984,161 L80.4164609,161 L80.4164609,165.882812 C80.4164609,167.515625 81.1586484,168.171875 83.0258359,168.171875 C83.3539609,168.171875 83.6664609,168.132812 83.9398984,168.085938 L83.9398984,166.75 L83.6283749,166.77832 C83.5297421,166.785156 83.4281796,166.789062 83.2992734,166.789062 C82.4633359,166.789062 82.0961484,166.390625 82.0961484,165.476562 L82.0961484,161 L83.9398984,161 L83.9398984,159.65625 L82.0961484,159.65625 L82.0961484,157.492188 L80.4164609,157.492188 Z M86.6299511,158.117188 C87.2158886,158.117188 87.6924511,157.640625 87.6924511,157.0625 C87.6924511,156.476562 87.2158886,156 86.6299511,156 C86.0440136,156 85.5674511,156.476562 85.5674511,157.0625 C85.5674511,157.640625 86.0440136,158.117188 86.6299511,158.117188 Z M85.7940136,168.117188 L87.4658886,168.117188 L87.4658886,159.632812 L85.7940136,159.632812 L85.7940136,168.117188 Z M93.3746913,168.28125 C95.8590663,168.28125 97.3825038,166.617188 97.3825038,163.875 C97.3825038,161.132812 95.8512538,159.46875 93.3746913,159.46875 C90.8903163,159.46875 89.3590663,161.140625 89.3590663,163.875 C89.3590663,166.617188 90.8825038,168.28125 93.3746913,168.28125 Z M93.3746913,166.851562 C91.9137538,166.851562 91.0934413,165.765625 91.0934413,163.875 C91.0934413,161.984375 91.9137538,160.890625 93.3746913,160.890625 C94.8278163,160.890625 95.6559413,161.984375 95.6559413,163.875 C95.6559413,165.757812 94.8278163,166.851562 93.3746913,166.851562 Z M99.2444315,168.117188 L100.924119,168.117188 L100.924119,163.140625 C100.924119,161.773438 101.713182,160.929688 102.955369,160.929688 C104.197557,160.929688 104.791307,161.617188 104.791307,163.023438 L104.791307,168.117188 L106.470994,168.117188 L106.470994,162.625 C106.470994,160.601562 105.424119,159.46875 103.525682,159.46875 C102.244432,159.46875 101.400682,160.039062 100.986619,160.976562 L100.861619,160.976562 L100.861619,159.632812 L99.2444315,159.632812 L99.2444315,168.117188 Z M108.481359,162.007812 C108.481359,160.53125 109.864172,159.46875 111.786047,159.46875 C113.700109,159.46875 114.950109,160.359375 115.114172,161.828125 L113.504797,161.828125 C113.348547,161.195312 112.739172,160.78125 111.786047,160.78125 C110.848547,160.78125 110.137609,161.242188 110.137609,161.929688 C110.137609,162.453125 110.567297,162.78125 111.489172,163 L112.903234,163.328125 C114.520422,163.703125 115.278234,164.398438 115.278234,165.632812 C115.278234,167.210938 113.786047,168.28125 111.754797,168.28125 C109.731359,168.28125 108.411047,167.367188 108.262609,165.890625 L109.942297,165.890625 C110.153234,166.554688 110.778234,166.96875 111.793859,166.96875 C112.840734,166.96875 113.582922,166.484375 113.582922,165.789062 C113.582922,165.257812 113.184484,164.914062 112.332922,164.710938 L110.848547,164.359375 C109.231359,163.984375 108.481359,163.265625 108.481359,162.007812 Z" fill="#007AFF" fill-rule="nonzero"></path>
    </g>
</svg>