<?xml version="1.0" encoding="UTF-8"?>
<svg width="200px" height="200px" viewBox="0 0 200 200" version="1.1" xmlns="http://www.w3.org/2000/svg" xmlns:xlink="http://www.w3.org/1999/xlink">
    <title>location</title>
    <defs>
        <path d="M71.7887856,-1.0155026e-14 L128.211214,-4.35432025e-15 C153.173739,2.52998546e-15 162.225754,2.59911711 171.35168,7.47971571 C180.477606,12.3603143 187.639686,19.5223944 192.520284,28.6483203 C197.400883,37.7742462 200,46.8262609 200,71.7887856 L200,128.211214 C200,153.173739 197.400883,162.225754 192.520284,171.35168 C187.639686,180.477606 180.477606,187.639686 171.35168,192.520284 C162.225754,197.400883 153.173739,200 128.211214,200 L71.7887856,200 C46.8262609,200 37.7742462,197.400883 28.6483203,192.520284 C19.5223944,187.639686 12.3603143,180.477606 7.47971571,171.35168 C2.59911711,162.225754 5.33863302e-15,153.173739 -9.18824169e-15,128.211214 L-5.32110454e-15,71.7887856 C3.09171497e-15,46.8262609 2.59911711,37.7742462 7.47971571,28.6483203 C12.3603143,19.5223944 19.5223944,12.3603143 28.6483203,7.47971571 C37.7742462,2.59911711 46.8262609,5.90036254e-15 71.7887856,-1.0155026e-14 Z" id="path-1"></path>
    </defs>
    <g id="location" stroke="none" stroke-width="1" fill="none" fill-rule="evenodd">
        <mask id="mask-2" fill="white">
            <use xlink:href="#path-1"></use>
        </mask>
        <g id="Mask"></g>
        <g id="Group" mask="url(#mask-2)">
            <g id="Icon">
                <rect id="Rectangle" fill="#FFFFFF" x="0" y="0" width="200" height="200"></rect>
                <rect id="Background" fill="#007AFF" x="0" y="0" width="200" height="200"></rect>
                <path d="M103.790042,153.276665 C105.225589,151.789848 106.25098,149.585258 107.481449,146.867973 L145.984867,63.2986374 C147.984378,58.9407272 147.574222,55.8645553 145.472171,53.8137741 C143.42139,51.7117233 140.345218,51.3015671 135.987308,53.3010788 L52.4692417,91.8044968 C49.700687,93.0349655 47.4960972,94.0603561 46.0092808,95.495903 C43.5996128,97.905571 43.1894565,102.058403 45.7016636,104.57061 C47.3935581,106.262505 50.1108433,107.134087 52.8793979,107.134087 L90.1010776,107.236626 C90.9213901,107.236626 91.3828159,107.339165 91.6904331,107.595512 C91.9467808,107.90313 92.0493198,108.364555 92.0493198,109.184868 L92.1518589,146.406548 C92.1518589,149.175102 93.0234409,151.892387 94.7153354,153.584282 C97.2275425,156.096489 101.380375,155.686333 103.790042,153.276665 Z" fill="#FFFFFF" fill-rule="nonzero"></path>
            </g>
        </g>
    </g>
</svg>