<?xml version="1.0" encoding="UTF-8"?>
<svg width="190px" height="190px" viewBox="0 0 190 190" version="1.1" xmlns="http://www.w3.org/2000/svg" xmlns:xlink="http://www.w3.org/1999/xlink">
    <!-- Generator: Sketch 59.1 (86144) - https://sketch.com -->
    <title>Locations</title>
    <desc>Created with Sketch.</desc>
    <g id="Locations" stroke="none" stroke-width="1" fill="none" fill-rule="evenodd">
        <path d="M54.3984375,78.0996094 C49.6132812,78.0996094 46,75.9511719 46,72.1914062 C46,68.4316406 49.6132812,66.3808594 53.3242188,64.671875 L133.890625,27.3183594 C135.794922,26.390625 137.503906,26 138.96875,26 C142.240234,26 144.632812,28.4414062 144.632812,31.6640625 C144.632812,33.0800781 144.193359,34.7890625 143.265625,36.6933594 L105.491304,118.060384 C103.817808,121.584052 101.844613,124.583984 98.3925781,124.583984 C94.6123047,124.583984 92.5671289,120.926211 92.486834,116.414019 L92.3867188,79.2714844 C92.3867188,78.5390625 92.0449219,78.2460938 91.3613281,78.2460938 L54.3984375,78.0996094 Z" fill="#007AFF" fill-rule="nonzero"></path>
        <path d="M50.78125,162.808594 L43.0234375,162.808594 L43.0234375,148.488281 L40,148.488281 L40,165.398438 L50.78125,165.398438 L50.78125,162.808594 Z M58.4491416,165.65625 C62.2811728,165.65625 64.6132041,163.148438 64.6132041,158.988281 C64.6132041,154.851562 62.2694541,152.34375 58.4491416,152.34375 C54.6405478,152.34375 52.2850791,154.863281 52.2850791,158.988281 C52.2850791,163.148438 54.6053916,165.65625 58.4491416,165.65625 Z M58.4491416,163.277344 C56.4217978,163.277344 55.2616416,161.707031 55.2616416,159 C55.2616416,156.292969 56.4217978,154.722656 58.4491416,154.722656 C60.4647666,154.722656 61.6249228,156.292969 61.6249228,159 C61.6249228,161.707031 60.4764853,163.277344 58.4491416,163.277344 Z M78.3865644,156.867188 C78.0818769,154.21875 76.0896894,152.34375 72.7967207,152.34375 C68.9412519,152.34375 66.6795332,154.816406 66.6795332,158.964844 C66.6795332,163.160156 68.9529707,165.65625 72.8084394,165.65625 C76.0545332,165.65625 78.0701582,163.851562 78.3865644,161.203125 L75.6209394,161.203125 C75.3162519,162.550781 74.3084394,163.265625 72.7967207,163.265625 C70.8162519,163.265625 69.6209394,161.683594 69.6209394,158.964844 C69.6209394,156.292969 70.8045332,154.722656 72.7967207,154.722656 C74.3904707,154.722656 75.3514082,155.625 75.6209394,156.867188 L78.3865644,156.867188 Z M84.460706,165.609375 C86.1364872,165.609375 87.5427372,164.882812 88.257581,163.640625 L88.4567997,163.640625 L88.4567997,165.398438 L91.257581,165.398438 L91.257581,156.644531 C91.257581,153.9375 89.4060185,152.34375 86.1130497,152.34375 C83.0661747,152.34375 80.945081,153.773438 80.710706,156.011719 L83.4528935,156.011719 C83.7224247,155.132812 84.6364872,154.652344 85.9724247,154.652344 C87.5427372,154.652344 88.3864872,155.367188 88.3864872,156.644531 L88.3864872,157.746094 L85.0817997,157.945312 C81.9646122,158.121094 80.2185185,159.46875 80.2185185,161.765625 C80.2185185,164.109375 81.9880497,165.609375 84.460706,165.609375 Z M85.3161747,163.371094 C84.0271122,163.371094 83.101331,162.726562 83.101331,161.625 C83.101331,160.558594 83.8630497,159.960938 85.491956,159.855469 L88.3864872,159.65625 L88.3864872,160.699219 C88.3864872,162.222656 87.0739872,163.371094 85.3161747,163.371094 Z M95.4450038,149.449219 L95.4450038,152.671875 L93.4176601,152.671875 L93.4176601,154.933594 L95.4450038,154.933594 L95.4450038,162 C95.4450038,164.472656 96.6168788,165.457031 99.5582851,165.457031 C100.120785,165.457031 100.659848,165.410156 101.081723,165.328125 L101.081723,163.101562 L100.701473,163.137375 C100.522035,163.151719 100.343441,163.160156 100.097348,163.160156 C98.8785976,163.160156 98.3395351,162.585938 98.3395351,161.308594 L98.3395351,154.933594 L101.081723,154.933594 L101.081723,152.671875 L98.3395351,152.671875 L98.3395351,149.449219 L95.4450038,149.449219 Z M105.233989,150.445312 C106.194927,150.445312 106.980083,149.683594 106.980083,148.722656 C106.980083,147.773438 106.194927,147 105.233989,147 C104.28477,147 103.499614,147.773438 103.499614,148.722656 C103.499614,149.683594 104.28477,150.445312 105.233989,150.445312 Z M103.792583,165.398438 L106.687114,165.398438 L106.687114,152.589844 L103.792583,152.589844 L103.792583,165.398438 Z M115.585474,165.65625 C119.417506,165.65625 121.749537,163.148438 121.749537,158.988281 C121.749537,154.851562 119.405787,152.34375 115.585474,152.34375 C111.776881,152.34375 109.421412,154.863281 109.421412,158.988281 C109.421412,163.148438 111.741724,165.65625 115.585474,165.65625 Z M115.585474,163.277344 C113.558131,163.277344 112.397974,161.707031 112.397974,159 C112.397974,156.292969 113.558131,154.722656 115.585474,154.722656 C117.601099,154.722656 118.761256,156.292969 118.761256,159 C118.761256,161.707031 117.612818,163.277344 115.585474,163.277344 Z M124.448679,165.398438 L127.354929,165.398438 L127.354929,157.933594 C127.354929,156.011719 128.444772,154.804688 130.179147,154.804688 C131.948679,154.804688 132.768991,155.800781 132.768991,157.792969 L132.768991,165.398438 L135.675241,165.398438 L135.675241,157.113281 C135.675241,154.066406 134.116647,152.34375 131.257272,152.34375 C129.347116,152.34375 128.058054,153.210938 127.448679,154.640625 L127.24946,154.640625 L127.24946,152.589844 L124.448679,152.589844 L124.448679,165.398438 Z M138.597039,156.246094 C138.597039,153.949219 140.706414,152.34375 143.729851,152.34375 C146.776726,152.34375 148.686883,153.679688 148.89782,155.988281 L146.167351,155.988281 C145.956414,155.085938 145.100945,154.5 143.74157,154.5 C142.417351,154.5 141.421258,155.144531 141.421258,156.09375 C141.421258,156.820312 142.030633,157.277344 143.319695,157.582031 L145.581414,158.085938 C148.030633,158.648438 149.167351,159.691406 149.167351,161.578125 C149.167351,164.027344 146.905633,165.65625 143.706414,165.65625 C140.507195,165.65625 138.49157,164.273438 138.268914,161.964844 L141.140008,161.964844 C141.421258,162.914062 142.323601,163.5 143.776726,163.5 C145.24157,163.5 146.261101,162.832031 146.261101,161.859375 C146.261101,161.132812 145.71032,160.664062 144.49157,160.382812 L142.218133,159.855469 C139.757195,159.292969 138.597039,158.167969 138.597039,156.246094 Z" fill="#007AFF" fill-rule="nonzero"></path>
    </g>
</svg>