<?xml version="1.0" encoding="UTF-8"?>
<svg width="150px" height="150px" viewBox="0 0 150 150" version="1.1" xmlns="http://www.w3.org/2000/svg" xmlns:xlink="http://www.w3.org/1999/xlink">
    <!-- Generator: Sketch 59.1 (86144) - https://sketch.com -->
    <title>Locations</title>
    <desc>Created with Sketch.</desc>
    <g id="Locations" stroke="none" stroke-width="1" fill="none" fill-rule="evenodd">
        <path d="M34.3984375,78.0996094 C29.6132812,78.0996094 26,75.9511719 26,72.1914062 C26,68.4316406 29.6132812,66.3808594 33.3242188,64.671875 L113.890625,27.3183594 C115.794922,26.390625 117.503906,26 118.96875,26 C122.240234,26 124.632812,28.4414062 124.632812,31.6640625 C124.632812,33.0800781 124.193359,34.7890625 123.265625,36.6933594 L85.4913045,118.060384 C83.817808,121.584052 81.844613,124.583984 78.3925781,124.583984 C74.6123047,124.583984 72.5671289,120.926211 72.486834,116.414019 L72.3867188,79.2714844 C72.3867188,78.5390625 72.0449219,78.2460938 71.3613281,78.2460938 L34.3984375,78.0996094 Z" fill="#007AFF" fill-rule="nonzero"></path>
    </g>
</svg>