<?xml version="1.0" encoding="UTF-8"?>
<svg width="210px" height="190px" viewBox="0 0 210 190" version="1.1" xmlns="http://www.w3.org/2000/svg" xmlns:xlink="http://www.w3.org/1999/xlink">
    <!-- Generator: Sketch 59.1 (86144) - https://sketch.com -->
    <title>Locations</title>
    <desc>Created with Sketch.</desc>
    <g id="Locations" stroke="none" stroke-width="1" fill="none" fill-rule="evenodd">
        <path d="M64.3984375,78.0996094 C59.6132812,78.0996094 56,75.9511719 56,72.1914062 C56,68.4316406 59.6132812,66.3808594 63.3242188,64.671875 L143.890625,27.3183594 C145.794922,26.390625 147.503906,26 148.96875,26 C152.240234,26 154.632812,28.4414062 154.632812,31.6640625 C154.632812,33.0800781 154.193359,34.7890625 153.265625,36.6933594 L115.491304,118.060384 C113.817808,121.584052 111.844613,124.583984 108.392578,124.583984 C104.612305,124.583984 102.567129,120.926211 102.486834,116.414019 L102.386719,79.2714844 C102.386719,78.5390625 102.044922,78.2460938 101.361328,78.2460938 L64.3984375,78.0996094 Z" fill="#007AFF" fill-rule="nonzero"></path>
        <path d="M48.6958008,167.380859 L37.8217773,167.380859 L37.8217773,147.043945 L33.5385742,147.043945 L33.5385742,171 L48.6958008,171 L48.6958008,167.380859 Z M59.1381836,171.348633 C64.3012695,171.348633 67.6547852,167.912109 67.6547852,162.201172 C67.6547852,156.506836 64.2680664,153.037109 59.1381836,153.037109 C54.0083008,153.037109 50.621582,156.523438 50.621582,162.201172 C50.621582,167.912109 53.9750977,171.348633 59.1381836,171.348633 Z M59.1381836,168.078125 C56.5151367,168.078125 54.8217773,165.953125 54.8217773,162.201172 C54.8217773,158.46582 56.5317383,156.324219 59.1381836,156.324219 C61.7612305,156.324219 63.4545898,158.46582 63.4545898,162.201172 C63.4545898,165.953125 61.7612305,168.078125 59.1381836,168.078125 Z M85.8168945,159.677734 C85.534668,155.975586 82.6625977,153.037109 78.0141602,153.037109 C72.9008789,153.037109 69.5805664,156.573242 69.5805664,162.201172 C69.5805664,167.912109 72.9008789,171.348633 78.0473633,171.348633 C82.4633789,171.348633 85.5014648,168.758789 85.8334961,164.824219 L81.9321289,164.824219 C81.550293,166.816406 80.1889648,168.011719 78.097168,168.011719 C75.4741211,168.011719 73.7807617,165.886719 73.7807617,162.201172 C73.7807617,158.582031 75.4575195,156.390625 78.0639648,156.390625 C80.2719727,156.390625 81.5834961,157.801758 81.9155273,159.677734 L85.8168945,159.677734 Z M93.4702148,171.282227 C95.7280273,171.282227 97.9360352,170.103516 98.9487305,168.194336 L99.0317383,168.194336 L99.0317383,171 L103.016113,171 L103.016113,158.880859 C103.016113,155.344727 100.177246,153.037109 95.8110352,153.037109 C91.3286133,153.037109 88.5229492,155.394531 88.340332,158.681641 L92.175293,158.681641 C92.440918,157.220703 93.6860352,156.274414 95.6450195,156.274414 C97.6870117,156.274414 98.9321289,157.336914 98.9321289,159.179688 L98.9321289,160.441406 L94.2836914,160.707031 C90.0004883,160.972656 87.5932617,162.848633 87.5932617,165.969727 C87.5932617,169.140625 90.0668945,171.282227 93.4702148,171.282227 Z M94.715332,168.161133 C92.9223633,168.161133 91.7270508,167.248047 91.7270508,165.803711 C91.7270508,164.40918 92.8725586,163.512695 94.8647461,163.379883 L98.9321289,163.130859 L98.9321289,164.475586 C98.9321289,166.600586 97.0561523,168.161133 94.715332,168.161133 Z M107.481934,149.285156 L107.481934,153.402344 L104.958496,153.402344 L104.958496,156.589844 L107.481934,156.589844 L107.481934,166.318359 C107.481934,169.738281 108.976074,171.083008 112.777832,171.083008 C113.657715,171.083008 114.471191,171.016602 114.919434,170.916992 L114.919434,167.762695 C114.653809,167.8125 114.122559,167.845703 113.740723,167.845703 C112.279785,167.845703 111.615723,167.181641 111.615723,165.737305 L111.615723,156.589844 L114.936035,156.589844 L114.936035,153.402344 L111.615723,153.402344 L111.615723,149.285156 L107.481934,149.285156 Z M119.899902,150.746094 C121.161621,150.746094 122.157715,149.733398 122.157715,148.504883 C122.157715,147.259766 121.161621,146.263672 119.899902,146.263672 C118.638184,146.263672 117.625488,147.259766 117.625488,148.504883 C117.625488,149.733398 118.638184,150.746094 119.899902,150.746094 Z M117.841309,171 L121.975098,171 L121.975098,153.402344 L117.841309,153.402344 L117.841309,171 Z M133.230957,171.348633 C138.394043,171.348633 141.747559,167.912109 141.747559,162.201172 C141.747559,156.506836 138.36084,153.037109 133.230957,153.037109 C128.101074,153.037109 124.714355,156.523438 124.714355,162.201172 C124.714355,167.912109 128.067871,171.348633 133.230957,171.348633 Z M133.230957,168.078125 C130.60791,168.078125 128.914551,165.953125 128.914551,162.201172 C128.914551,158.46582 130.624512,156.324219 133.230957,156.324219 C135.854004,156.324219 137.547363,158.46582 137.547363,162.201172 C137.547363,165.953125 135.854004,168.078125 133.230957,168.078125 Z M144.403809,171 L148.537598,171 L148.537598,160.806641 C148.537598,158.283203 150.04834,156.573242 152.422363,156.573242 C154.779785,156.573242 155.941895,157.967773 155.941895,160.458008 L155.941895,171 L160.075684,171 L160.075684,159.62793 C160.075684,155.560547 157.867676,153.070312 153.98291,153.070312 C151.276855,153.070312 149.400879,154.332031 148.45459,156.423828 L148.371582,156.423828 L148.371582,153.402344 L144.403809,153.402344 L144.403809,171 Z M163.063965,158.449219 C163.063965,155.228516 165.869629,153.037109 170.119629,153.037109 C174.402832,153.037109 177.125488,155.344727 177.225098,158.681641 L173.373535,158.681641 C173.20752,157.087891 172.028809,156.075195 170.119629,156.075195 C168.293457,156.075195 167.081543,156.938477 167.081543,158.233398 C167.081543,159.246094 167.812012,159.943359 169.654785,160.358398 L172.57666,161.005859 C176.229004,161.819336 177.640137,163.230469 177.640137,165.787109 C177.640137,169.107422 174.585449,171.348633 170.269043,171.348633 C165.67041,171.348633 162.947754,169.157227 162.615723,165.753906 L166.683105,165.753906 C166.998535,167.463867 168.177246,168.327148 170.269043,168.327148 C172.277832,168.327148 173.522949,167.49707 173.522949,166.185547 C173.522949,165.123047 172.89209,164.525391 171.049316,164.110352 L168.127441,163.462891 C164.757324,162.71582 163.063965,161.055664 163.063965,158.449219 Z" fill="#007AFF" fill-rule="nonzero"></path>
    </g>
</svg>