<?xml version="1.0" encoding="UTF-8"?>
<svg width="220px" height="210px" viewBox="0 0 220 210" version="1.1" xmlns="http://www.w3.org/2000/svg" xmlns:xlink="http://www.w3.org/1999/xlink">
    <!-- Generator: Sketch 59.1 (86144) - https://sketch.com -->
    <title>Media</title>
    <desc>Created with Sketch.</desc>
    <g id="Media" stroke="none" stroke-width="1" fill="none" fill-rule="evenodd">
        <path d="M58.5488281,106.054688 L162.308594,106.054688 C170.658203,106.054688 174.857422,102.050781 174.857422,93.5058594 L174.857422,37.5488281 C174.857422,29.0039062 170.658203,25 162.308594,25 L58.5488281,25 C50.1992188,25 46,29.0039062 46,37.5488281 L46,93.5058594 C46,102.050781 50.1992188,106.054688 58.5488281,106.054688 Z M125.003906,54.6875 L112.992188,57.5683594 C111.820312,57.8613281 111.429688,58.3496094 111.429688,60.2539062 L111.429688,77.7832031 C111.429688,85.2050781 106.449219,90.4296875 99.125,90.4296875 C93.9492188,90.4296875 90.6777344,87.3046875 90.6777344,82.9589844 C90.6777344,77.9296875 94.5839844,75.1464844 99.2226562,73.9257812 L103.958984,72.7050781 L104.391282,72.5865509 C106.569177,71.9633637 106.742188,71.4470358 106.742188,69.2871094 L106.742188,46.2402344 C106.742188,43.2969835 107.249872,42.7536953 109.611374,42.1424594 L124.808594,38.3300781 C127.464844,37.6660156 128.185826,38.4764429 128.224857,40.313747 L128.226562,50.5371094 C128.226562,53.515625 127.494141,54.0527344 125.003906,54.6875 Z M145.902344,119.628906 C145.902344,122.167969 143.900391,124.21875 141.410156,124.21875 L79.3496094,124.21875 C76.859375,124.21875 74.8085938,122.167969 74.8085938,119.628906 C74.8085938,117.089844 76.859375,115.039062 79.3496094,115.039062 L141.410156,115.039062 C143.900391,115.039062 145.902344,117.089844 145.902344,119.628906 Z" fill="#007AFF" fill-rule="nonzero"></path>
        <path d="M91.265625,178.28125 L91.265625,155.734375 L86.609375,155.734375 L79.703125,172.9375 L79.578125,172.9375 L72.671875,155.734375 L68,155.734375 L68,178.28125 L71.640625,178.28125 L71.640625,162.28125 L71.75,162.28125 L78.265625,178.28125 L81.015625,178.28125 L87.53125,162.28125 L87.640625,162.28125 L87.640625,178.28125 L91.265625,178.28125 Z M105.828125,173.328125 C105.40625,174.703125 104.03125,175.609375 102.21875,175.609375 C99.671875,175.609375 98.046875,173.828125 98.046875,171.171875 L98.046875,170.9375 L109.625,170.9375 L109.625,169.671875 C109.625,164.640625 106.6875,161.375 101.984375,161.375 C97.203125,161.375 94.171875,164.828125 94.171875,170.0625 C94.171875,175.34375 97.171875,178.609375 102.140625,178.609375 C106.0625,178.609375 108.96875,176.453125 109.46875,173.328125 L105.828125,173.328125 Z M102,164.390625 C104.234375,164.390625 105.734375,166.03125 105.8125,168.375 L98.078125,168.375 C98.234375,166.0625 99.8125,164.390625 102,164.390625 Z M118.3125,178.546875 C120.734375,178.546875 122.640625,177.3125 123.546875,175.453125 L123.609375,175.453125 L123.609375,178.28125 L127.421875,178.28125 L127.421875,155.734375 L123.53125,155.734375 L123.53125,164.5 L123.4375,164.5 C122.5625,162.671875 120.6875,161.4375 118.3125,161.4375 C114.140625,161.4375 111.4375,164.75 111.4375,169.984375 C111.4375,175.25 114.140625,178.546875 118.3125,178.546875 Z M119.484375,164.640625 C121.9375,164.640625 123.546875,166.75 123.546875,170 C123.546875,173.28125 121.9375,175.359375 119.484375,175.359375 C116.96875,175.359375 115.421875,173.296875 115.421875,170 C115.421875,166.71875 116.984375,164.640625 119.484375,164.640625 Z M132.71875,159.21875 C133.90625,159.21875 134.84375,158.265625 134.84375,157.109375 C134.84375,155.9375 133.90625,155 132.71875,155 C131.53125,155 130.578125,155.9375 130.578125,157.109375 C130.578125,158.265625 131.53125,159.21875 132.71875,159.21875 Z M130.78125,178.28125 L134.671875,178.28125 L134.671875,161.71875 L130.78125,161.71875 L130.78125,178.28125 Z M142.8125,178.546875 C144.9375,178.546875 147.015625,177.4375 147.96875,175.640625 L148.046875,175.640625 L148.046875,178.28125 L151.796875,178.28125 L151.796875,166.875 C151.796875,163.546875 149.125,161.375 145.015625,161.375 C140.796875,161.375 138.15625,163.59375 137.984375,166.6875 L141.59375,166.6875 C141.84375,165.3125 143.015625,164.421875 144.859375,164.421875 C146.78125,164.421875 147.953125,165.421875 147.953125,167.15625 L147.953125,168.34375 L143.578125,168.59375 C139.546875,168.84375 137.28125,170.609375 137.28125,173.546875 C137.28125,176.53125 139.609375,178.546875 142.8125,178.546875 Z M143.984375,175.609375 C142.296875,175.609375 141.171875,174.75 141.171875,173.390625 C141.171875,172.078125 142.25,171.234375 144.125,171.109375 L147.953125,170.875 L147.953125,172.140625 C147.953125,174.140625 146.1875,175.609375 143.984375,175.609375 Z" fill="#007AFF" fill-rule="nonzero"></path>
    </g>
</svg>