<?xml version="1.0" encoding="UTF-8"?>
<svg width="200px" height="200px" viewBox="0 0 200 200" version="1.1" xmlns="http://www.w3.org/2000/svg" xmlns:xlink="http://www.w3.org/1999/xlink">
    <title>media</title>
    <defs>
        <path d="M71.7887856,-1.0155026e-14 L128.211214,-4.35432025e-15 C153.173739,2.52998546e-15 162.225754,2.59911711 171.35168,7.47971571 C180.477606,12.3603143 187.639686,19.5223944 192.520284,28.6483203 C197.400883,37.7742462 200,46.8262609 200,71.7887856 L200,128.211214 C200,153.173739 197.400883,162.225754 192.520284,171.35168 C187.639686,180.477606 180.477606,187.639686 171.35168,192.520284 C162.225754,197.400883 153.173739,200 128.211214,200 L71.7887856,200 C46.8262609,200 37.7742462,197.400883 28.6483203,192.520284 C19.5223944,187.639686 12.3603143,180.477606 7.47971571,171.35168 C2.59911711,162.225754 5.33863302e-15,153.173739 -9.18824169e-15,128.211214 L-5.32110454e-15,71.7887856 C3.09171497e-15,46.8262609 2.59911711,37.7742462 7.47971571,28.6483203 C12.3603143,19.5223944 19.5223944,12.3603143 28.6483203,7.47971571 C37.7742462,2.59911711 46.8262609,5.90036254e-15 71.7887856,-1.0155026e-14 Z" id="path-1"></path>
        <linearGradient x1="50%" y1="0%" x2="50%" y2="100%" id="linearGradient-3">
            <stop stop-color="#FA5C74" offset="0%"></stop>
            <stop stop-color="#FA233B" offset="100%"></stop>
        </linearGradient>
    </defs>
    <g id="media" stroke="none" stroke-width="1" fill="none" fill-rule="evenodd">
        <mask id="mask-2" fill="white">
            <use xlink:href="#path-1"></use>
        </mask>
        <path stroke="#979797" d="M128.211214,0.5 C153.032141,0.5 162.039835,3.06670034 171.11588,7.9206223 C180.153383,12.7539317 187.246068,19.8466169 192.079378,28.8841197 C196.9333,37.9601647 199.5,46.9678595 199.5,71.7887856 L199.5,71.7887856 L199.5,128.211214 C199.5,153.032141 196.9333,162.039835 192.079378,171.11588 C187.246068,180.153383 180.153383,187.246068 171.11588,192.079378 C162.039835,196.9333 153.032141,199.5 128.211214,199.5 L128.211214,199.5 L71.7887856,199.5 C46.9678595,199.5 37.9601647,196.9333 28.8841197,192.079378 C19.8466169,187.246068 12.7539317,180.153383 7.9206223,171.11588 C7.29596774,169.947878 6.7091922,168.781008 6.16089145,167.581421 L5.91056367,167.025319 C2.40301741,159.110804 0.54424392,149.574911 0.500779417,128.955326 L0.500779417,128.955326 L0.5,71.7887856 C0.5,46.9678595 3.06670034,37.9601647 7.9206223,28.8841197 C12.7539317,19.8466169 19.8466169,12.7539317 28.8841197,7.9206223 C30.0521222,7.29596774 31.2189915,6.7091922 32.4185786,6.16089145 L32.9746807,5.91056367 C40.8891963,2.40301741 50.4250886,0.54424392 71.0446738,0.500779417 L71.0446738,0.500779417 Z"></path>
        <g id="Group" mask="url(#mask-2)">
            <g id="Icon">
                <rect id="Rectangle" fill="#FFFFFF" x="0" y="0" width="200" height="200"></rect>
                <rect id="Background" fill="url(#linearGradient-3)" x="0" y="0" width="200" height="200"></rect>
                <path d="M150.48611,133.220501 C150.975051,151.586284 136.099737,156.020263 124.186425,154.760532 C117.687552,154.073093 112.279988,148.171432 111.412956,141.988781 C110.435933,135.022449 113.373874,128.17556 119.660501,125.55556 C125.138528,123.273263 131.102918,122.072823 136.931538,120.745207 C140.947039,119.830914 142.789375,117.711884 142.784219,113.615609 C142.761877,99.3005582 142.886476,84.9846479 142.846948,70.6687376 C142.83234,65.6822293 141.642212,64.7799661 136.854201,65.738943 C120.593699,68.9939651 104.371006,72.4569374 88.066679,75.4704967 C83.354287,76.3409659 82.0979928,78.5270209 82.1409577,82.9988094 C82.3325812,103.040225 82.2518072,123.083358 82.2629781,143.125633 C82.2638374,145.273019 82.3815612,147.435873 82.1770482,149.564355 C81.4122727,157.529191 78.2337282,164.086497 70.1803842,166.770086 C62.4398247,169.34884 54.5231092,170.920497 47.644426,164.36405 C40.1513445,157.223281 41.9550117,143.555282 51.3961225,139.290584 C56.5278522,136.973057 62.2748395,135.979708 67.786379,134.548976 C73.1973806,133.143164 74.4321923,131.836171 74.4390667,126.316898 C74.47172,102.265997 74.4493783,78.2150956 74.4614085,54.1650537 C74.4648457,47.5450193 75.4977223,46.08679 81.8977763,44.7677671 C102.474534,40.5288484 123.067619,36.3689851 143.671015,32.2598205 C148.450432,31.3068586 150.363231,32.9300732 150.380417,37.8796316 C150.440567,54.3420692 150.403618,70.8045067 150.402758,87.2678035 C150.401899,102.585656 150.077944,117.912101 150.48611,133.220501 Z" fill="#FFFFFF"></path>
            </g>
        </g>
    </g>
</svg>