<?xml version="1.0" encoding="UTF-8"?>
<svg width="150px" height="150px" viewBox="0 0 150 150" version="1.1" xmlns="http://www.w3.org/2000/svg" xmlns:xlink="http://www.w3.org/1999/xlink">
    <!-- Generator: Sketch 59.1 (86144) - https://sketch.com -->
    <title>Media</title>
    <desc>Created with Sketch.</desc>
    <g id="Media" stroke="none" stroke-width="1" fill="none" fill-rule="evenodd">
        <path d="M23.5488281,106.054688 L127.308594,106.054688 C135.658203,106.054688 139.857422,102.050781 139.857422,93.5058594 L139.857422,37.5488281 C139.857422,29.0039062 135.658203,25 127.308594,25 L23.5488281,25 C15.1992188,25 11,29.0039062 11,37.5488281 L11,93.5058594 C11,102.050781 15.1992188,106.054688 23.5488281,106.054688 Z M90.0039062,54.6875 L77.9921875,57.5683594 C76.8203125,57.8613281 76.4296875,58.3496094 76.4296875,60.2539062 L76.4296875,77.7832031 C76.4296875,85.2050781 71.4492188,90.4296875 64.125,90.4296875 C58.9492188,90.4296875 55.6777344,87.3046875 55.6777344,82.9589844 C55.6777344,77.9296875 59.5839844,75.1464844 64.2226562,73.9257812 L68.9589844,72.7050781 L69.3912817,72.5865509 C71.5691771,71.9633637 71.7421875,71.4470358 71.7421875,69.2871094 L71.7421875,46.2402344 C71.7421875,43.2969835 72.2498719,42.7536953 74.6113736,42.1424594 L89.8085938,38.3300781 C92.4648438,37.6660156 93.1858259,38.4764429 93.2248565,40.313747 L93.2265625,50.5371094 C93.2265625,53.515625 92.4941406,54.0527344 90.0039062,54.6875 Z M110.902344,119.628906 C110.902344,122.167969 108.900391,124.21875 106.410156,124.21875 L44.3496094,124.21875 C41.859375,124.21875 39.8085938,122.167969 39.8085938,119.628906 C39.8085938,117.089844 41.859375,115.039062 44.3496094,115.039062 L106.410156,115.039062 C108.900391,115.039062 110.902344,117.089844 110.902344,119.628906 Z" fill="#007AFF" fill-rule="nonzero"></path>
    </g>
</svg>