<?xml version="1.0" encoding="UTF-8"?>
<svg width="210px" height="190px" viewBox="0 0 210 190" version="1.1" xmlns="http://www.w3.org/2000/svg" xmlns:xlink="http://www.w3.org/1999/xlink">
    <!-- Generator: Sketch 59.1 (86144) - https://sketch.com -->
    <title>Media</title>
    <desc>Created with Sketch.</desc>
    <g id="Media" stroke="none" stroke-width="1" fill="none" fill-rule="evenodd">
        <path d="M53.5488281,106.054688 L157.308594,106.054688 C165.658203,106.054688 169.857422,102.050781 169.857422,93.5058594 L169.857422,37.5488281 C169.857422,29.0039062 165.658203,25 157.308594,25 L53.5488281,25 C45.1992188,25 41,29.0039062 41,37.5488281 L41,93.5058594 C41,102.050781 45.1992188,106.054688 53.5488281,106.054688 Z M120.003906,54.6875 L107.992188,57.5683594 C106.820312,57.8613281 106.429688,58.3496094 106.429688,60.2539062 L106.429688,77.7832031 C106.429688,85.2050781 101.449219,90.4296875 94.125,90.4296875 C88.9492188,90.4296875 85.6777344,87.3046875 85.6777344,82.9589844 C85.6777344,77.9296875 89.5839844,75.1464844 94.2226562,73.9257812 L98.9589844,72.7050781 L99.3912817,72.5865509 C101.569177,71.9633637 101.742188,71.4470358 101.742188,69.2871094 L101.742188,46.2402344 C101.742188,43.2969835 102.249872,42.7536953 104.611374,42.1424594 L119.808594,38.3300781 C122.464844,37.6660156 123.185826,38.4764429 123.224857,40.313747 L123.226562,50.5371094 C123.226562,53.515625 122.494141,54.0527344 120.003906,54.6875 Z M140.902344,119.628906 C140.902344,122.167969 138.900391,124.21875 136.410156,124.21875 L74.3496094,124.21875 C71.859375,124.21875 69.8085938,122.167969 69.8085938,119.628906 C69.8085938,117.089844 71.859375,115.039062 74.3496094,115.039062 L136.410156,115.039062 C138.900391,115.039062 140.902344,117.089844 140.902344,119.628906 Z" fill="#007AFF" fill-rule="nonzero"></path>
        <path d="M86.59375,178 L86.59375,155.453125 L81.9375,155.453125 L75.03125,172.65625 L74.90625,172.65625 L68,155.453125 L63.328125,155.453125 L63.328125,178 L66.96875,178 L66.96875,162 L67.078125,162 L73.59375,178 L76.34375,178 L82.859375,162 L82.96875,162 L82.96875,178 L86.59375,178 Z M101.15625,173.046875 C100.734375,174.421875 99.359375,175.328125 97.546875,175.328125 C95,175.328125 93.375,173.546875 93.375,170.890625 L93.375,170.65625 L104.953125,170.65625 L104.953125,169.390625 C104.953125,164.359375 102.015625,161.09375 97.3125,161.09375 C92.53125,161.09375 89.5,164.546875 89.5,169.78125 C89.5,175.0625 92.5,178.328125 97.46875,178.328125 C101.390625,178.328125 104.296875,176.171875 104.796875,173.046875 L101.15625,173.046875 Z M97.328125,164.109375 C99.5625,164.109375 101.0625,165.75 101.140625,168.09375 L93.40625,168.09375 C93.5625,165.78125 95.140625,164.109375 97.328125,164.109375 Z M113.640625,178.265625 C116.0625,178.265625 117.96875,177.03125 118.875,175.171875 L118.9375,175.171875 L118.9375,178 L122.75,178 L122.75,155.453125 L118.859375,155.453125 L118.859375,164.21875 L118.765625,164.21875 C117.890625,162.390625 116.015625,161.15625 113.640625,161.15625 C109.46875,161.15625 106.765625,164.46875 106.765625,169.703125 C106.765625,174.96875 109.46875,178.265625 113.640625,178.265625 Z M114.8125,164.359375 C117.265625,164.359375 118.875,166.46875 118.875,169.71875 C118.875,173 117.265625,175.078125 114.8125,175.078125 C112.296875,175.078125 110.75,173.015625 110.75,169.71875 C110.75,166.4375 112.3125,164.359375 114.8125,164.359375 Z M128.046875,158.9375 C129.234375,158.9375 130.171875,157.984375 130.171875,156.828125 C130.171875,155.65625 129.234375,154.71875 128.046875,154.71875 C126.859375,154.71875 125.90625,155.65625 125.90625,156.828125 C125.90625,157.984375 126.859375,158.9375 128.046875,158.9375 Z M126.109375,178 L130,178 L130,161.4375 L126.109375,161.4375 L126.109375,178 Z M138.140625,178.265625 C140.265625,178.265625 142.34375,177.15625 143.296875,175.359375 L143.375,175.359375 L143.375,178 L147.125,178 L147.125,166.59375 C147.125,163.265625 144.453125,161.09375 140.34375,161.09375 C136.125,161.09375 133.484375,163.3125 133.3125,166.40625 L136.921875,166.40625 C137.171875,165.03125 138.34375,164.140625 140.1875,164.140625 C142.109375,164.140625 143.28125,165.140625 143.28125,166.875 L143.28125,168.0625 L138.90625,168.3125 C134.875,168.5625 132.609375,170.328125 132.609375,173.265625 C132.609375,176.25 134.9375,178.265625 138.140625,178.265625 Z M139.3125,175.328125 C137.625,175.328125 136.5,174.46875 136.5,173.109375 C136.5,171.796875 137.578125,170.953125 139.453125,170.828125 L143.28125,170.59375 L143.28125,171.859375 C143.28125,173.859375 141.515625,175.328125 139.3125,175.328125 Z" fill="#007AFF" fill-rule="nonzero"></path>
    </g>
</svg>