<?xml version="1.0" encoding="UTF-8"?>
<svg width="210px" height="190px" viewBox="0 0 210 190" version="1.1" xmlns="http://www.w3.org/2000/svg" xmlns:xlink="http://www.w3.org/1999/xlink">
    <!-- Generator: Sketch 59.1 (86144) - https://sketch.com -->
    <title>Media</title>
    <desc>Created with Sketch.</desc>
    <g id="Media" stroke="none" stroke-width="1" fill="none" fill-rule="evenodd">
        <path d="M53.5488281,106.054688 L157.308594,106.054688 C165.658203,106.054688 169.857422,102.050781 169.857422,93.5058594 L169.857422,37.5488281 C169.857422,29.0039062 165.658203,25 157.308594,25 L53.5488281,25 C45.1992188,25 41,29.0039062 41,37.5488281 L41,93.5058594 C41,102.050781 45.1992188,106.054688 53.5488281,106.054688 Z M120.003906,54.6875 L107.992188,57.5683594 C106.820312,57.8613281 106.429688,58.3496094 106.429688,60.2539062 L106.429688,77.7832031 C106.429688,85.2050781 101.449219,90.4296875 94.125,90.4296875 C88.9492188,90.4296875 85.6777344,87.3046875 85.6777344,82.9589844 C85.6777344,77.9296875 89.5839844,75.1464844 94.2226562,73.9257812 L98.9589844,72.7050781 L99.3912817,72.5865509 C101.569177,71.9633637 101.742188,71.4470358 101.742188,69.2871094 L101.742188,46.2402344 C101.742188,43.2969835 102.249872,42.7536953 104.611374,42.1424594 L119.808594,38.3300781 C122.464844,37.6660156 123.185826,38.4764429 123.224857,40.313747 L123.226562,50.5371094 C123.226562,53.515625 122.494141,54.0527344 120.003906,54.6875 Z M140.902344,119.628906 C140.902344,122.167969 138.900391,124.21875 136.410156,124.21875 L74.3496094,124.21875 C71.859375,124.21875 69.8085938,122.167969 69.8085938,119.628906 C69.8085938,117.089844 71.859375,115.039062 74.3496094,115.039062 L136.410156,115.039062 C138.900391,115.039062 140.902344,117.089844 140.902344,119.628906 Z" fill="#007AFF" fill-rule="nonzero"></path>
        <path d="M85.9433594,171 L85.9433594,147.043945 L80.9960938,147.043945 L73.6582031,165.322266 L73.5253906,165.322266 L66.1875,147.043945 L61.2236328,147.043945 L61.2236328,171 L65.0917969,171 L65.0917969,154 L65.2080078,154 L72.1308594,171 L75.0527344,171 L81.9755859,154 L82.0917969,154 L82.0917969,171 L85.9433594,171 Z M101.416016,165.737305 C100.967773,167.198242 99.5068359,168.161133 97.5810547,168.161133 C94.875,168.161133 93.1484375,166.268555 93.1484375,163.446289 L93.1484375,163.197266 L105.450195,163.197266 L105.450195,161.852539 C105.450195,156.506836 102.329102,153.037109 97.3320312,153.037109 C92.2519531,153.037109 89.03125,156.706055 89.03125,162.267578 C89.03125,167.878906 92.21875,171.348633 97.4980469,171.348633 C101.665039,171.348633 104.75293,169.057617 105.28418,165.737305 L101.416016,165.737305 Z M97.3486328,156.241211 C99.7226562,156.241211 101.316406,157.984375 101.399414,160.474609 L93.1816406,160.474609 C93.3476562,158.017578 95.0244141,156.241211 97.3486328,156.241211 Z M114.680664,171.282227 C117.253906,171.282227 119.279297,169.970703 120.242188,167.995117 L120.308594,167.995117 L120.308594,171 L124.359375,171 L124.359375,147.043945 L120.225586,147.043945 L120.225586,156.357422 L120.125977,156.357422 C119.196289,154.415039 117.204102,153.103516 114.680664,153.103516 C110.248047,153.103516 107.375977,156.623047 107.375977,162.18457 C107.375977,167.779297 110.248047,171.282227 114.680664,171.282227 Z M115.925781,156.506836 C118.532227,156.506836 120.242188,158.748047 120.242188,162.201172 C120.242188,165.6875 118.532227,167.895508 115.925781,167.895508 C113.25293,167.895508 111.609375,165.704102 111.609375,162.201172 C111.609375,158.714844 113.269531,156.506836 115.925781,156.506836 Z M129.987305,150.746094 C131.249023,150.746094 132.245117,149.733398 132.245117,148.504883 C132.245117,147.259766 131.249023,146.263672 129.987305,146.263672 C128.725586,146.263672 127.712891,147.259766 127.712891,148.504883 C127.712891,149.733398 128.725586,150.746094 129.987305,150.746094 Z M127.928711,171 L132.0625,171 L132.0625,153.402344 L127.928711,153.402344 L127.928711,171 Z M140.711914,171.282227 C142.969727,171.282227 145.177734,170.103516 146.19043,168.194336 L146.273438,168.194336 L146.273438,171 L150.257812,171 L150.257812,158.880859 C150.257812,155.344727 147.418945,153.037109 143.052734,153.037109 C138.570312,153.037109 135.764648,155.394531 135.582031,158.681641 L139.416992,158.681641 C139.682617,157.220703 140.927734,156.274414 142.886719,156.274414 C144.928711,156.274414 146.173828,157.336914 146.173828,159.179688 L146.173828,160.441406 L141.525391,160.707031 C137.242188,160.972656 134.834961,162.848633 134.834961,165.969727 C134.834961,169.140625 137.308594,171.282227 140.711914,171.282227 Z M141.957031,168.161133 C140.164062,168.161133 138.96875,167.248047 138.96875,165.803711 C138.96875,164.40918 140.114258,163.512695 142.106445,163.379883 L146.173828,163.130859 L146.173828,164.475586 C146.173828,166.600586 144.297852,168.161133 141.957031,168.161133 Z" fill="#007AFF" fill-rule="nonzero"></path>
    </g>
</svg>