<?xml version="1.0" encoding="UTF-8"?>
<svg width="190px" height="190px" viewBox="0 0 190 190" version="1.1" xmlns="http://www.w3.org/2000/svg" xmlns:xlink="http://www.w3.org/1999/xlink">
    <!-- Generator: Sketch 59.1 (86144) - https://sketch.com -->
    <title>Media</title>
    <desc>Created with Sketch.</desc>
    <g id="Media" stroke="none" stroke-width="1" fill="none" fill-rule="evenodd">
        <path d="M43.5488281,106.054688 L147.308594,106.054688 C155.658203,106.054688 159.857422,102.050781 159.857422,93.5058594 L159.857422,37.5488281 C159.857422,29.0039062 155.658203,25 147.308594,25 L43.5488281,25 C35.1992188,25 31,29.0039062 31,37.5488281 L31,93.5058594 C31,102.050781 35.1992188,106.054688 43.5488281,106.054688 Z M110.003906,54.6875 L97.9921875,57.5683594 C96.8203125,57.8613281 96.4296875,58.3496094 96.4296875,60.2539062 L96.4296875,77.7832031 C96.4296875,85.2050781 91.4492188,90.4296875 84.125,90.4296875 C78.9492188,90.4296875 75.6777344,87.3046875 75.6777344,82.9589844 C75.6777344,77.9296875 79.5839844,75.1464844 84.2226562,73.9257812 L88.9589844,72.7050781 L89.3912817,72.5865509 C91.5691771,71.9633637 91.7421875,71.4470358 91.7421875,69.2871094 L91.7421875,46.2402344 C91.7421875,43.2969835 92.2498719,42.7536953 94.6113736,42.1424594 L109.808594,38.3300781 C112.464844,37.6660156 113.185826,38.4764429 113.224857,40.313747 L113.226562,50.5371094 C113.226562,53.515625 112.494141,54.0527344 110.003906,54.6875 Z M130.902344,119.628906 C130.902344,122.167969 128.900391,124.21875 126.410156,124.21875 L64.3496094,124.21875 C61.859375,124.21875 59.8085938,122.167969 59.8085938,119.628906 C59.8085938,117.089844 61.859375,115.039062 64.3496094,115.039062 L126.410156,115.039062 C128.900391,115.039062 130.902344,117.089844 130.902344,119.628906 Z" fill="#007AFF" fill-rule="nonzero"></path>
        <path d="M79.4609375,165.398438 L79.4609375,148.488281 L75.921875,148.488281 L70.8359375,161.039062 L70.625,161.039062 L65.5390625,148.488281 L62,148.488281 L62,165.398438 L64.8125,165.398438 L64.8125,153.410156 L64.9765625,153.410156 L69.6523438,164.871094 L71.8085938,164.871094 L76.484375,153.410156 L76.6484375,153.410156 L76.6484375,165.398438 L79.4609375,165.398438 Z M91.4530478,161.894531 C91.0311728,162.855469 90.0350791,163.394531 88.5936728,163.394531 C86.6835166,163.394531 85.4530478,162.035156 85.3827353,159.867188 L85.3827353,159.714844 L94.3358603,159.714844 L94.3358603,158.789062 C94.3358603,154.769531 92.1444541,152.34375 88.4882041,152.34375 C84.7733603,152.34375 82.4647666,154.933594 82.4647666,159.046875 C82.4647666,163.148438 84.7382041,165.65625 88.5116416,165.65625 C91.5350791,165.65625 93.6796103,164.203125 94.2069541,161.894531 L91.4530478,161.894531 Z M88.4764853,154.605469 C90.2225791,154.605469 91.3710166,155.835938 91.4296103,157.78125 L85.3944541,157.78125 C85.5233603,155.859375 86.7421103,154.605469 88.4764853,154.605469 Z M101.663908,165.609375 C103.445158,165.609375 104.921721,164.777344 105.648283,163.371094 L105.847502,163.371094 L105.847502,165.398438 L108.660002,165.398438 L108.660002,147.632812 L105.753752,147.632812 L105.753752,154.628906 L105.554533,154.628906 C104.874846,153.222656 103.421721,152.378906 101.663908,152.378906 C98.4295332,152.378906 96.3904707,154.933594 96.3904707,158.988281 C96.3904707,163.054688 98.4178144,165.609375 101.663908,165.609375 Z M102.566252,154.804688 C104.558439,154.804688 105.788908,156.410156 105.788908,159 C105.788908,161.601562 104.570158,163.195312 102.566252,163.195312 C100.574064,163.195312 99.3670332,161.625 99.3670332,159 C99.3670332,156.386719 100.585783,154.804688 102.566252,154.804688 Z M113.573987,150.445312 C114.534925,150.445312 115.320081,149.683594 115.320081,148.722656 C115.320081,147.773438 114.534925,147 113.573987,147 C112.624768,147 111.839612,147.773438 111.839612,148.722656 C111.839612,149.683594 112.624768,150.445312 113.573987,150.445312 Z M112.132581,165.398438 L115.027112,165.398438 L115.027112,152.589844 L112.132581,152.589844 L112.132581,165.398438 Z M121.921566,165.609375 C123.597348,165.609375 125.003598,164.882812 125.718441,163.640625 L125.91766,163.640625 L125.91766,165.398438 L128.718441,165.398438 L128.718441,156.644531 C128.718441,153.9375 126.866879,152.34375 123.57391,152.34375 C120.527035,152.34375 118.405941,153.773438 118.171566,156.011719 L120.913754,156.011719 C121.183285,155.132812 122.097348,154.652344 123.433285,154.652344 C125.003598,154.652344 125.847348,155.367188 125.847348,156.644531 L125.847348,157.746094 L122.54266,157.945312 C119.425473,158.121094 117.679379,159.46875 117.679379,161.765625 C117.679379,164.109375 119.44891,165.609375 121.921566,165.609375 Z M122.777035,163.371094 C121.487973,163.371094 120.562191,162.726562 120.562191,161.625 C120.562191,160.558594 121.32391,159.960938 122.952816,159.855469 L125.847348,159.65625 L125.847348,160.699219 C125.847348,162.222656 124.534848,163.371094 122.777035,163.371094 Z" fill="#007AFF" fill-rule="nonzero"></path>
    </g>
</svg>