<?xml version="1.0" encoding="UTF-8"?>
<svg width="190px" height="190px" viewBox="0 0 190 190" version="1.1" xmlns="http://www.w3.org/2000/svg" xmlns:xlink="http://www.w3.org/1999/xlink">
    <!-- Generator: Sketch 59.1 (86144) - https://sketch.com -->
    <title>Media</title>
    <desc>Created with Sketch.</desc>
    <g id="Media" stroke="none" stroke-width="1" fill="none" fill-rule="evenodd">
        <path d="M43.5488281,106.054688 L147.308594,106.054688 C155.658203,106.054688 159.857422,102.050781 159.857422,93.5058594 L159.857422,37.5488281 C159.857422,29.0039062 155.658203,25 147.308594,25 L43.5488281,25 C35.1992188,25 31,29.0039062 31,37.5488281 L31,93.5058594 C31,102.050781 35.1992188,106.054688 43.5488281,106.054688 Z M110.003906,54.6875 L97.9921875,57.5683594 C96.8203125,57.8613281 96.4296875,58.3496094 96.4296875,60.2539062 L96.4296875,77.7832031 C96.4296875,85.2050781 91.4492188,90.4296875 84.125,90.4296875 C78.9492188,90.4296875 75.6777344,87.3046875 75.6777344,82.9589844 C75.6777344,77.9296875 79.5839844,75.1464844 84.2226562,73.9257812 L88.9589844,72.7050781 L89.3912817,72.5865509 C91.5691771,71.9633637 91.7421875,71.4470358 91.7421875,69.2871094 L91.7421875,46.2402344 C91.7421875,43.2969835 92.2498719,42.7536953 94.6113736,42.1424594 L109.808594,38.3300781 C112.464844,37.6660156 113.185826,38.4764429 113.224857,40.313747 L113.226562,50.5371094 C113.226562,53.515625 112.494141,54.0527344 110.003906,54.6875 Z M130.902344,119.628906 C130.902344,122.167969 128.900391,124.21875 126.410156,124.21875 L64.3496094,124.21875 C61.859375,124.21875 59.8085938,122.167969 59.8085938,119.628906 C59.8085938,117.089844 61.859375,115.039062 64.3496094,115.039062 L126.410156,115.039062 C128.900391,115.039062 130.902344,117.089844 130.902344,119.628906 Z" fill="#007AFF" fill-rule="nonzero"></path>
        <path d="M80.0449219,165 L80.0449219,146.680664 L76.2617188,146.680664 L70.6503906,160.658203 L70.5488281,160.658203 L64.9375,146.680664 L61.1416016,146.680664 L61.1416016,165 L64.0996094,165 L64.0996094,152 L64.1884766,152 L69.4824219,165 L71.7167969,165 L77.0107422,152 L77.0996094,152 L77.0996094,165 L80.0449219,165 Z M91.8769531,160.975586 C91.5341797,162.092773 90.4169922,162.829102 88.9443359,162.829102 C86.875,162.829102 85.5546875,161.381836 85.5546875,159.223633 L85.5546875,159.033203 L94.9619141,159.033203 L94.9619141,158.004883 C94.9619141,153.916992 92.5751953,151.263672 88.7539062,151.263672 C84.8691406,151.263672 82.40625,154.069336 82.40625,158.322266 C82.40625,162.613281 84.84375,165.266602 88.8808594,165.266602 C92.0673828,165.266602 94.4287109,163.514648 94.8349609,160.975586 L91.8769531,160.975586 Z M88.7666016,153.713867 C90.5820312,153.713867 91.8007812,155.046875 91.8642578,156.951172 L85.5800781,156.951172 C85.7070312,155.072266 86.9892578,153.713867 88.7666016,153.713867 Z M102.020508,165.21582 C103.988281,165.21582 105.537109,164.212891 106.273438,162.702148 L106.324219,162.702148 L106.324219,165 L109.421875,165 L109.421875,146.680664 L106.260742,146.680664 L106.260742,153.802734 L106.18457,153.802734 C105.473633,152.317383 103.950195,151.314453 102.020508,151.314453 C98.6308594,151.314453 96.4345703,154.005859 96.4345703,158.258789 C96.4345703,162.537109 98.6308594,165.21582 102.020508,165.21582 Z M102.972656,153.916992 C104.96582,153.916992 106.273438,155.630859 106.273438,158.271484 C106.273438,160.9375 104.96582,162.625977 102.972656,162.625977 C100.928711,162.625977 99.671875,160.950195 99.671875,158.271484 C99.671875,155.605469 100.941406,153.916992 102.972656,153.916992 Z M113.725586,149.511719 C114.69043,149.511719 115.452148,148.737305 115.452148,147.797852 C115.452148,146.845703 114.69043,146.083984 113.725586,146.083984 C112.760742,146.083984 111.986328,146.845703 111.986328,147.797852 C111.986328,148.737305 112.760742,149.511719 113.725586,149.511719 Z M112.151367,165 L115.3125,165 L115.3125,151.542969 L112.151367,151.542969 L112.151367,165 Z M121.926758,165.21582 C123.65332,165.21582 125.341797,164.314453 126.116211,162.854492 L126.179688,162.854492 L126.179688,165 L129.226562,165 L129.226562,155.732422 C129.226562,153.02832 127.055664,151.263672 123.716797,151.263672 C120.289062,151.263672 118.143555,153.066406 118.003906,155.580078 L120.936523,155.580078 C121.139648,154.462891 122.091797,153.739258 123.589844,153.739258 C125.151367,153.739258 126.103516,154.551758 126.103516,155.960938 L126.103516,156.925781 L122.548828,157.128906 C119.273438,157.332031 117.432617,158.766602 117.432617,161.15332 C117.432617,163.578125 119.324219,165.21582 121.926758,165.21582 Z M122.878906,162.829102 C121.507812,162.829102 120.59375,162.130859 120.59375,161.026367 C120.59375,159.959961 121.469727,159.274414 122.993164,159.172852 L126.103516,158.982422 L126.103516,160.010742 C126.103516,161.635742 124.668945,162.829102 122.878906,162.829102 Z" fill="#007AFF" fill-rule="nonzero"></path>
    </g>
</svg>