<?xml version="1.0" encoding="UTF-8"?>
<svg width="150px" height="190px" viewBox="0 0 150 190" version="1.1" xmlns="http://www.w3.org/2000/svg" xmlns:xlink="http://www.w3.org/1999/xlink">
    <!-- Generator: Sketch 59.1 (86144) - https://sketch.com -->
    <title>Media</title>
    <desc>Created with Sketch.</desc>
    <g id="Media" stroke="none" stroke-width="1" fill="none" fill-rule="evenodd">
        <path d="M23.5488281,106.054688 L127.308594,106.054688 C135.658203,106.054688 139.857422,102.050781 139.857422,93.5058594 L139.857422,37.5488281 C139.857422,29.0039062 135.658203,25 127.308594,25 L23.5488281,25 C15.1992188,25 11,29.0039062 11,37.5488281 L11,93.5058594 C11,102.050781 15.1992188,106.054688 23.5488281,106.054688 Z M90.0039062,54.6875 L77.9921875,57.5683594 C76.8203125,57.8613281 76.4296875,58.3496094 76.4296875,60.2539062 L76.4296875,77.7832031 C76.4296875,85.2050781 71.4492188,90.4296875 64.125,90.4296875 C58.9492188,90.4296875 55.6777344,87.3046875 55.6777344,82.9589844 C55.6777344,77.9296875 59.5839844,75.1464844 64.2226562,73.9257812 L68.9589844,72.7050781 L69.3912817,72.5865509 C71.5691771,71.9633637 71.7421875,71.4470358 71.7421875,69.2871094 L71.7421875,46.2402344 C71.7421875,43.2969835 72.2498719,42.7536953 74.6113736,42.1424594 L89.8085938,38.3300781 C92.4648438,37.6660156 93.1858259,38.4764429 93.2248565,40.313747 L93.2265625,50.5371094 C93.2265625,53.515625 92.4941406,54.0527344 90.0039062,54.6875 Z M110.902344,119.628906 C110.902344,122.167969 108.900391,124.21875 106.410156,124.21875 L44.3496094,124.21875 C41.859375,124.21875 39.8085938,122.167969 39.8085938,119.628906 C39.8085938,117.089844 41.859375,115.039062 44.3496094,115.039062 L106.410156,115.039062 C108.900391,115.039062 110.902344,117.089844 110.902344,119.628906 Z" fill="#007AFF" fill-rule="nonzero"></path>
        <path d="M60.7041157,168 L60.7041157,152.499023 L57.459975,152.499023 L52.7978657,164.003906 L52.6045063,164.003906 L47.9423969,152.499023 L44.6982563,152.499023 L44.6982563,168 L47.2763813,168 L47.2763813,157.010742 L47.4267719,157.010742 L51.7129047,167.516602 L53.6894672,167.516602 L57.9756,157.010742 L58.1259907,157.010742 L58.1259907,168 L60.7041157,168 Z M71.6968835,164.788086 C71.3101647,165.668945 70.3970788,166.163086 69.0757897,166.163086 C67.3248131,166.163086 66.1968835,164.916992 66.1324303,162.929688 L66.1324303,162.790039 L74.3394616,162.790039 L74.3394616,161.941406 C74.3394616,158.256836 72.3306725,156.033203 68.97911,156.033203 C65.5738366,156.033203 63.4576256,158.407227 63.4576256,162.177734 C63.4576256,165.9375 65.54161,168.236328 69.0005944,168.236328 C71.7720788,168.236328 73.7378991,166.904297 74.2212975,164.788086 L71.6968835,164.788086 Z M68.9683678,158.106445 C70.5689538,158.106445 71.6216881,159.234375 71.6753991,161.017578 L66.1431725,161.017578 C66.2613366,159.255859 67.3785241,158.106445 68.9683678,158.106445 Z M81.0568388,168.193359 C82.6896513,168.193359 84.0431669,167.430664 84.7091825,166.141602 L84.8917997,166.141602 L84.8917997,168 L87.4699247,168 L87.4699247,151.714844 L84.8058622,151.714844 L84.8058622,158.12793 L84.623245,158.12793 C84.0001981,156.838867 82.6681669,156.06543 81.0568388,156.06543 C78.091995,156.06543 76.2228544,158.407227 76.2228544,162.124023 C76.2228544,165.851562 78.0812528,168.193359 81.0568388,168.193359 Z M81.8839872,158.289062 C83.7101591,158.289062 84.8380888,159.760742 84.8380888,162.134766 C84.8380888,164.519531 83.7209013,165.980469 81.8839872,165.980469 C80.0578153,165.980469 78.95137,164.541016 78.95137,162.134766 C78.95137,159.739258 80.0685575,158.289062 81.8839872,158.289062 Z M91.9744112,154.292969 C92.8552706,154.292969 93.5749972,153.594727 93.5749972,152.713867 C93.5749972,151.84375 92.8552706,151.134766 91.9744112,151.134766 C91.1042941,151.134766 90.3845675,151.84375 90.3845675,152.713867 C90.3845675,153.594727 91.1042941,154.292969 91.9744112,154.292969 Z M90.6531222,168 L93.3064425,168 L93.3064425,156.258789 L90.6531222,156.258789 L90.6531222,168 Z M99.6263587,168.193359 C101.162492,168.193359 102.451554,167.527344 103.106827,166.388672 L103.289445,166.388672 L103.289445,168 L105.856827,168 L105.856827,159.975586 C105.856827,157.494141 104.159562,156.033203 101.141007,156.033203 C98.3480384,156.033203 96.4037025,157.34375 96.1888587,159.395508 L98.7025306,159.395508 C98.9496009,158.589844 99.7874915,158.149414 101.012101,158.149414 C102.451554,158.149414 103.224992,158.804688 103.224992,159.975586 L103.224992,160.985352 L100.195695,161.167969 C97.3382728,161.329102 95.7376869,162.564453 95.7376869,164.669922 C95.7376869,166.818359 97.3597572,168.193359 99.6263587,168.193359 Z M100.410538,166.141602 C99.2288978,166.141602 98.380265,165.550781 98.380265,164.541016 C98.380265,163.563477 99.0785072,163.015625 100.571671,162.918945 L103.224992,162.736328 L103.224992,163.692383 C103.224992,165.088867 102.021867,166.141602 100.410538,166.141602 Z" fill="#007AFF" fill-rule="nonzero"></path>
    </g>
</svg>