<?xml version="1.0" encoding="UTF-8"?>
<svg width="160px" height="190px" viewBox="0 0 160 190" version="1.1" xmlns="http://www.w3.org/2000/svg" xmlns:xlink="http://www.w3.org/1999/xlink">
    <!-- Generator: Sketch 59.1 (86144) - https://sketch.com -->
    <title>Media</title>
    <desc>Created with Sketch.</desc>
    <g id="Media" stroke="none" stroke-width="1" fill="none" fill-rule="evenodd">
        <path d="M28.5488281,106.054688 L132.308594,106.054688 C140.658203,106.054688 144.857422,102.050781 144.857422,93.5058594 L144.857422,37.5488281 C144.857422,29.0039062 140.658203,25 132.308594,25 L28.5488281,25 C20.1992188,25 16,29.0039062 16,37.5488281 L16,93.5058594 C16,102.050781 20.1992188,106.054688 28.5488281,106.054688 Z M95.0039062,54.6875 L82.9921875,57.5683594 C81.8203125,57.8613281 81.4296875,58.3496094 81.4296875,60.2539062 L81.4296875,77.7832031 C81.4296875,85.2050781 76.4492188,90.4296875 69.125,90.4296875 C63.9492188,90.4296875 60.6777344,87.3046875 60.6777344,82.9589844 C60.6777344,77.9296875 64.5839844,75.1464844 69.2226562,73.9257812 L73.9589844,72.7050781 L74.3912817,72.5865509 C76.5691771,71.9633637 76.7421875,71.4470358 76.7421875,69.2871094 L76.7421875,46.2402344 C76.7421875,43.2969835 77.2498719,42.7536953 79.6113736,42.1424594 L94.8085938,38.3300781 C97.4648438,37.6660156 98.1858259,38.4764429 98.2248565,40.313747 L98.2265625,50.5371094 C98.2265625,53.515625 97.4941406,54.0527344 95.0039062,54.6875 Z M115.902344,119.628906 C115.902344,122.167969 113.900391,124.21875 111.410156,124.21875 L49.3496094,124.21875 C46.859375,124.21875 44.8085938,122.167969 44.8085938,119.628906 C44.8085938,117.089844 46.859375,115.039062 49.3496094,115.039062 L111.410156,115.039062 C113.900391,115.039062 115.902344,117.089844 115.902344,119.628906 Z" fill="#007AFF" fill-rule="nonzero"></path>
        <path d="M67.0037415,165 L67.0037415,150.908203 L64.0545228,150.908203 L59.8162415,161.367188 L59.6404603,161.367188 L55.402179,150.908203 L52.4529603,150.908203 L52.4529603,165 L54.7967103,165 L54.7967103,155.009766 L54.933429,155.009766 L58.8299134,164.560547 L60.6267884,164.560547 L64.5232728,155.009766 L64.6599915,155.009766 L64.6599915,165 L67.0037415,165 Z M76.9971668,162.080078 C76.6456043,162.880859 75.8155261,163.330078 74.6143543,163.330078 C73.0225574,163.330078 71.9971668,162.197266 71.938573,160.390625 L71.938573,160.263672 L79.3995105,160.263672 L79.3995105,159.492188 C79.3995105,156.142578 77.5733386,154.121094 74.5264636,154.121094 C71.4307605,154.121094 69.5069324,156.279297 69.5069324,159.707031 C69.5069324,163.125 71.4014636,165.214844 74.5459949,165.214844 C77.0655261,165.214844 78.8526355,164.003906 79.2920886,162.080078 L76.9971668,162.080078 Z M74.516698,156.005859 C75.9717761,156.005859 76.9288074,157.03125 76.9776355,158.652344 L71.9483386,158.652344 C72.0557605,157.050781 73.0713855,156.005859 74.516698,156.005859 Z M85.5062171,165.175781 C86.9905921,165.175781 88.2210608,164.482422 88.8265296,163.310547 L88.9925452,163.310547 L88.9925452,165 L91.3362952,165 L91.3362952,150.195312 L88.9144202,150.195312 L88.9144202,156.025391 L88.7484046,156.025391 C88.1819983,154.853516 86.9710608,154.150391 85.5062171,154.150391 C82.8109046,154.150391 81.1116858,156.279297 81.1116858,159.658203 C81.1116858,163.046875 82.8011389,165.175781 85.5062171,165.175781 Z M86.2581702,156.171875 C87.9183264,156.171875 88.9437171,157.509766 88.9437171,159.667969 C88.9437171,161.835938 87.9280921,163.164062 86.2581702,163.164062 C84.5980139,163.164062 83.5921546,161.855469 83.5921546,159.667969 C83.5921546,157.490234 84.6077796,156.171875 86.2581702,156.171875 Z M95.4312829,152.539062 C96.2320642,152.539062 96.8863611,151.904297 96.8863611,151.103516 C96.8863611,150.3125 96.2320642,149.667969 95.4312829,149.667969 C94.6402673,149.667969 93.9859704,150.3125 93.9859704,151.103516 C93.9859704,151.904297 94.6402673,152.539062 95.4312829,152.539062 Z M94.2301111,165 L96.6422204,165 L96.6422204,154.326172 L94.2301111,154.326172 L94.2301111,165 Z M102.387599,165.175781 C103.784083,165.175781 104.955958,164.570312 105.551661,163.535156 L105.717677,163.535156 L105.717677,165 L108.051661,165 L108.051661,157.705078 C108.051661,155.449219 106.508693,154.121094 103.764552,154.121094 C101.225489,154.121094 99.4579113,155.3125 99.2625988,157.177734 L101.547755,157.177734 C101.772364,156.445312 102.534083,156.044922 103.647364,156.044922 C104.955958,156.044922 105.659083,156.640625 105.659083,157.705078 L105.659083,158.623047 L102.905177,158.789062 C100.307521,158.935547 98.8524426,160.058594 98.8524426,161.972656 C98.8524426,163.925781 100.327052,165.175781 102.387599,165.175781 Z M103.100489,163.310547 C102.026271,163.310547 101.254786,162.773438 101.254786,161.855469 C101.254786,160.966797 101.889552,160.46875 103.246974,160.380859 L105.659083,160.214844 L105.659083,161.083984 C105.659083,162.353516 104.565333,163.310547 103.100489,163.310547 Z" fill="#007AFF" fill-rule="nonzero"></path>
    </g>
</svg>