<?xml version="1.0" encoding="UTF-8"?>
<svg width="160px" height="190px" viewBox="0 0 160 190" version="1.1" xmlns="http://www.w3.org/2000/svg" xmlns:xlink="http://www.w3.org/1999/xlink">
    <!-- Generator: Sketch 59.1 (86144) - https://sketch.com -->
    <title>Media</title>
    <desc>Created with Sketch.</desc>
    <g id="Media" stroke="none" stroke-width="1" fill="none" fill-rule="evenodd">
        <path d="M28.5488281,106.054688 L132.308594,106.054688 C140.658203,106.054688 144.857422,102.050781 144.857422,93.5058594 L144.857422,37.5488281 C144.857422,29.0039062 140.658203,25 132.308594,25 L28.5488281,25 C20.1992188,25 16,29.0039062 16,37.5488281 L16,93.5058594 C16,102.050781 20.1992188,106.054688 28.5488281,106.054688 Z M95.0039062,54.6875 L82.9921875,57.5683594 C81.8203125,57.8613281 81.4296875,58.3496094 81.4296875,60.2539062 L81.4296875,77.7832031 C81.4296875,85.2050781 76.4492188,90.4296875 69.125,90.4296875 C63.9492188,90.4296875 60.6777344,87.3046875 60.6777344,82.9589844 C60.6777344,77.9296875 64.5839844,75.1464844 69.2226562,73.9257812 L73.9589844,72.7050781 L74.3912817,72.5865509 C76.5691771,71.9633637 76.7421875,71.4470358 76.7421875,69.2871094 L76.7421875,46.2402344 C76.7421875,43.2969835 77.2498719,42.7536953 79.6113736,42.1424594 L94.8085938,38.3300781 C97.4648438,37.6660156 98.1858259,38.4764429 98.2248565,40.313747 L98.2265625,50.5371094 C98.2265625,53.515625 97.4941406,54.0527344 95.0039062,54.6875 Z M115.902344,119.628906 C115.902344,122.167969 113.900391,124.21875 111.410156,124.21875 L49.3496094,124.21875 C46.859375,124.21875 44.8085938,122.167969 44.8085938,119.628906 C44.8085938,117.089844 46.859375,115.039062 49.3496094,115.039062 L111.410156,115.039062 C113.900391,115.039062 115.902344,117.089844 115.902344,119.628906 Z" fill="#007AFF" fill-rule="nonzero"></path>
        <path d="M69.40625,168.117188 L69.40625,156.84375 L67.359375,156.84375 L63.765625,165.664062 L63.6328125,165.664062 L60.046875,156.84375 L58,156.84375 L58,168.117188 L59.625,168.117188 L59.625,159.859375 L59.734375,159.859375 L63.0390625,167.914062 L64.3671875,167.914062 L67.671875,159.859375 L67.78125,159.859375 L67.78125,168.117188 L69.40625,168.117188 Z M77.4634902,165.84375 C77.1509902,166.53125 76.4556777,166.90625 75.4400527,166.90625 C74.0963027,166.90625 73.2291152,165.9375 73.1744277,164.398438 L73.1744277,164.320312 L79.1822402,164.320312 L79.1822402,163.742188 C79.1822402,161.085938 77.7525527,159.46875 75.3853652,159.46875 C72.9869277,159.46875 71.4634902,161.195312 71.4634902,163.890625 C71.4634902,166.601562 72.9556777,168.28125 75.3931777,168.28125 C77.3384902,168.28125 78.7134902,167.34375 79.0806777,165.84375 L77.4634902,165.84375 Z M75.3775527,160.835938 C76.6197402,160.835938 77.4322402,161.734375 77.4713027,163.109375 L73.1744277,163.109375 C73.2681777,161.742188 74.1353652,160.835938 75.3775527,160.835938 Z M84.1535429,168.257812 C85.3254179,168.257812 86.3176054,167.703125 86.8254179,166.773438 L86.9582304,166.773438 L86.9582304,168.117188 L88.5676054,168.117188 L88.5676054,156.304688 L86.8879179,156.304688 L86.8879179,160.976562 L86.7629179,160.976562 C86.3019804,160.046875 85.3176054,159.484375 84.1535429,159.484375 C82.0051054,159.484375 80.6222929,161.195312 80.6222929,163.867188 C80.6222929,166.554688 81.9894804,168.257812 84.1535429,168.257812 Z M84.6301054,160.921875 C86.0363554,160.921875 86.9191679,162.0625 86.9191679,163.875 C86.9191679,165.703125 86.0441679,166.820312 84.6301054,166.820312 C83.2082304,166.820312 82.3566679,165.71875 82.3566679,163.875 C82.3566679,162.039062 83.2160429,160.921875 84.6301054,160.921875 Z M91.7967207,158.117188 C92.3826582,158.117188 92.8592207,157.640625 92.8592207,157.0625 C92.8592207,156.476562 92.3826582,156 91.7967207,156 C91.2107832,156 90.7342207,156.476562 90.7342207,157.0625 C90.7342207,157.640625 91.2107832,158.117188 91.7967207,158.117188 Z M90.9607832,168.117188 L92.6326582,168.117188 L92.6326582,159.632812 L90.9607832,159.632812 L90.9607832,168.117188 Z M97.2992734,168.257812 C98.4164609,168.257812 99.3461484,167.773438 99.8539609,166.914062 L99.9867734,166.914062 L99.9867734,168.117188 L101.603961,168.117188 L101.603961,162.3125 C101.603961,160.53125 100.400836,159.46875 98.2680234,159.46875 C96.3383359,159.46875 94.9633359,160.398438 94.7914609,161.828125 L96.4164609,161.828125 C96.6039609,161.210938 97.2523984,160.859375 98.1898984,160.859375 C99.3383359,160.859375 99.9320859,161.382812 99.9320859,162.3125 L99.9320859,163.054688 L97.6273984,163.195312 C95.6039609,163.320312 94.4633359,164.203125 94.4633359,165.726562 C94.4633359,167.273438 95.6586484,168.257812 97.2992734,168.257812 Z M97.7289609,166.90625 C96.8148984,166.90625 96.1508359,166.445312 96.1508359,165.65625 C96.1508359,164.882812 96.6820859,164.46875 97.8539609,164.390625 L99.9320859,164.25 L99.9320859,164.984375 C99.9320859,166.078125 98.9945859,166.90625 97.7289609,166.90625 Z" fill="#007AFF" fill-rule="nonzero"></path>
    </g>
</svg>