<?xml version="1.0" encoding="UTF-8"?>
<svg width="160px" height="190px" viewBox="0 0 160 190" version="1.1" xmlns="http://www.w3.org/2000/svg" xmlns:xlink="http://www.w3.org/1999/xlink">
    <!-- Generator: Sketch 59.1 (86144) - https://sketch.com -->
    <title>Media</title>
    <desc>Created with Sketch.</desc>
    <g id="Media" stroke="none" stroke-width="1" fill="none" fill-rule="evenodd">
        <path d="M28.5488281,106.054688 L132.308594,106.054688 C140.658203,106.054688 144.857422,102.050781 144.857422,93.5058594 L144.857422,37.5488281 C144.857422,29.0039062 140.658203,25 132.308594,25 L28.5488281,25 C20.1992188,25 16,29.0039062 16,37.5488281 L16,93.5058594 C16,102.050781 20.1992188,106.054688 28.5488281,106.054688 Z M95.0039062,54.6875 L82.9921875,57.5683594 C81.8203125,57.8613281 81.4296875,58.3496094 81.4296875,60.2539062 L81.4296875,77.7832031 C81.4296875,85.2050781 76.4492188,90.4296875 69.125,90.4296875 C63.9492188,90.4296875 60.6777344,87.3046875 60.6777344,82.9589844 C60.6777344,77.9296875 64.5839844,75.1464844 69.2226562,73.9257812 L73.9589844,72.7050781 L74.3912817,72.5865509 C76.5691771,71.9633637 76.7421875,71.4470358 76.7421875,69.2871094 L76.7421875,46.2402344 C76.7421875,43.2969835 77.2498719,42.7536953 79.6113736,42.1424594 L94.8085938,38.3300781 C97.4648438,37.6660156 98.1858259,38.4764429 98.2248565,40.313747 L98.2265625,50.5371094 C98.2265625,53.515625 97.4941406,54.0527344 95.0039062,54.6875 Z M115.902344,119.628906 C115.902344,122.167969 113.900391,124.21875 111.410156,124.21875 L49.3496094,124.21875 C46.859375,124.21875 44.8085938,122.167969 44.8085938,119.628906 C44.8085938,117.089844 46.859375,115.039062 49.3496094,115.039062 L111.410156,115.039062 C113.900391,115.039062 115.902344,117.089844 115.902344,119.628906 Z" fill="#007AFF" fill-rule="nonzero"></path>
        <path d="M64.4044898,165 L64.4044898,148.089844 L60.8654273,148.089844 L55.7794898,160.640625 L55.5685523,160.640625 L50.4826148,148.089844 L46.9435523,148.089844 L46.9435523,165 L49.7560523,165 L49.7560523,153.011719 L49.9201148,153.011719 L54.595896,164.472656 L56.752146,164.472656 L61.4279273,153.011719 L61.5919898,153.011719 L61.5919898,165 L64.4044898,165 Z M76.3966001,161.496094 C75.9747251,162.457031 74.9786314,162.996094 73.5372251,162.996094 C71.6270689,162.996094 70.3966001,161.636719 70.3262876,159.46875 L70.3262876,159.316406 L79.2794126,159.316406 L79.2794126,158.390625 C79.2794126,154.371094 77.0880064,151.945312 73.4317564,151.945312 C69.7169126,151.945312 67.4083189,154.535156 67.4083189,158.648438 C67.4083189,162.75 69.6817564,165.257812 73.4551939,165.257812 C76.4786314,165.257812 78.6231626,163.804688 79.1505064,161.496094 L76.3966001,161.496094 Z M73.4200376,154.207031 C75.1661314,154.207031 76.3145689,155.4375 76.3731626,157.382812 L70.3380064,157.382812 C70.4669126,155.460938 71.6856626,154.207031 73.4200376,154.207031 Z M86.6074605,165.210938 C88.3887105,165.210938 89.865273,164.378906 90.5918355,162.972656 L90.7910542,162.972656 L90.7910542,165 L93.6035542,165 L93.6035542,147.234375 L90.6973042,147.234375 L90.6973042,154.230469 L90.4980855,154.230469 C89.818398,152.824219 88.365273,151.980469 86.6074605,151.980469 C83.3730855,151.980469 81.334023,154.535156 81.334023,158.589844 C81.334023,162.65625 83.3613667,165.210938 86.6074605,165.210938 Z M87.5098042,154.40625 C89.5019917,154.40625 90.7324605,156.011719 90.7324605,158.601562 C90.7324605,161.203125 89.5137105,162.796875 87.5098042,162.796875 C85.5176167,162.796875 84.3105855,161.226562 84.3105855,158.601562 C84.3105855,155.988281 85.5293355,154.40625 87.5098042,154.40625 Z M98.5175395,150.046875 C99.478477,150.046875 100.263633,149.285156 100.263633,148.324219 C100.263633,147.375 99.478477,146.601562 98.5175395,146.601562 C97.5683208,146.601562 96.7831645,147.375 96.7831645,148.324219 C96.7831645,149.285156 97.5683208,150.046875 98.5175395,150.046875 Z M97.0761333,165 L99.9706645,165 L99.9706645,152.191406 L97.0761333,152.191406 L97.0761333,165 Z M106.865119,165.210938 C108.5409,165.210938 109.94715,164.484375 110.661994,163.242188 L110.861212,163.242188 L110.861212,165 L113.661994,165 L113.661994,156.246094 C113.661994,153.539062 111.810431,151.945312 108.517462,151.945312 C105.470587,151.945312 103.349494,153.375 103.115119,155.613281 L105.857306,155.613281 C106.126837,154.734375 107.0409,154.253906 108.376837,154.253906 C109.94715,154.253906 110.7909,154.96875 110.7909,156.246094 L110.7909,157.347656 L107.486212,157.546875 C104.369025,157.722656 102.622931,159.070312 102.622931,161.367188 C102.622931,163.710938 104.392462,165.210938 106.865119,165.210938 Z M107.720587,162.972656 C106.431525,162.972656 105.505744,162.328125 105.505744,161.226562 C105.505744,160.160156 106.267462,159.5625 107.896369,159.457031 L110.7909,159.257812 L110.7909,160.300781 C110.7909,161.824219 109.4784,162.972656 107.720587,162.972656 Z" fill="#007AFF" fill-rule="nonzero"></path>
    </g>
</svg>