<?xml version="1.0" encoding="UTF-8"?>
<svg width="210px" height="190px" viewBox="0 0 210 190" version="1.1" xmlns="http://www.w3.org/2000/svg" xmlns:xlink="http://www.w3.org/1999/xlink">
    <!-- Generator: Sketch 59.1 (86144) - https://sketch.com -->
    <title>Microphone</title>
    <desc>Created with Sketch.</desc>
    <g id="Microphone" stroke="none" stroke-width="1" fill="none" fill-rule="evenodd">
        <path d="M120.369155,31.6083408 L147.273452,58.5126377 C155.867202,49.9677158 156.208999,39.1278721 147.957046,30.9247471 C139.753921,22.8192783 128.962905,23.0145908 120.369155,31.6083408 Z M115.486343,36.5399815 C110.310562,41.6181065 108.162124,47.4286533 108.894546,53.0438877 L63.5332178,101.920841 C61.677749,103.922794 61.3847803,106.705997 63.6797022,109.000919 L57.4297022,117.05756 C56.8437647,117.83881 56.7949365,118.961856 57.6738428,119.840763 L59.0898584,121.305606 C59.9199365,122.135685 61.0429834,122.184513 61.9218897,121.500919 L69.9785303,115.202091 C72.1164104,117.434988 74.8552081,117.21799 76.8006945,115.495574 L102.302749,91.9110752 L102.302749,119.791935 C102.302749,122.282169 104.255874,124.235294 106.746108,124.235294 C109.236343,124.235294 111.189468,122.282169 111.189468,119.791935 L111.189468,90.9345127 L110.847671,83.9520908 L125.740249,70.1337315 C131.355483,70.8661533 137.263687,68.5712315 142.341812,63.4442783 L115.486343,36.5399815 Z M68.5625147,105.924747 L111.580093,60.3192783 C112.410171,61.6864658 113.435562,63.0048252 114.656265,64.2743565 C115.876968,65.4950596 117.146499,66.5692783 118.464858,67.4481846 L73.0547022,110.416935 L68.5625147,105.924747 Z" fill="#007AFF" fill-rule="nonzero"></path>
        <path d="M45.3125,178 L45.3125,155.453125 L40.65625,155.453125 L33.75,172.65625 L33.625,172.65625 L26.71875,155.453125 L22.046875,155.453125 L22.046875,178 L25.6875,178 L25.6875,162 L25.796875,162 L32.3125,178 L35.0625,178 L41.578125,162 L41.6875,162 L41.6875,178 L45.3125,178 Z M50.9375,158.9375 C52.125,158.9375 53.0625,157.984375 53.0625,156.828125 C53.0625,155.65625 52.125,154.71875 50.9375,154.71875 C49.75,154.71875 48.796875,155.65625 48.796875,156.828125 C48.796875,157.984375 49.75,158.9375 50.9375,158.9375 Z M49,178 L52.890625,178 L52.890625,161.4375 L49,161.4375 L49,178 Z M70.75,167.34375 C70.484375,163.859375 67.78125,161.09375 63.40625,161.09375 C58.59375,161.09375 55.46875,164.421875 55.46875,169.71875 C55.46875,175.09375 58.59375,178.328125 63.4375,178.328125 C67.59375,178.328125 70.453125,175.890625 70.765625,172.1875 L67.09375,172.1875 C66.734375,174.0625 65.453125,175.1875 63.484375,175.1875 C61.015625,175.1875 59.421875,173.1875 59.421875,169.71875 C59.421875,166.3125 61,164.25 63.453125,164.25 C65.53125,164.25 66.765625,165.578125 67.078125,167.34375 L70.75,167.34375 Z M73.078125,178 L76.96875,178 L76.96875,168.359375 C76.96875,166.03125 78.296875,164.609375 80.5,164.609375 C81.15625,164.609375 81.75,164.703125 82.078125,164.828125 L82.078125,161.3125 L81.8009749,161.254191 C81.541773,161.204082 81.2165179,161.15625 80.859375,161.15625 C78.90625,161.15625 77.453125,162.3125 76.890625,164.328125 L76.8125,164.328125 L76.8125,161.4375 L73.078125,161.4375 L73.078125,178 Z M91.40625,178.328125 C96.265625,178.328125 99.421875,175.09375 99.421875,169.71875 C99.421875,164.359375 96.234375,161.09375 91.40625,161.09375 C86.578125,161.09375 83.390625,164.375 83.390625,169.71875 C83.390625,175.09375 86.546875,178.328125 91.40625,178.328125 Z M91.40625,175.25 C88.9375,175.25 87.34375,173.25 87.34375,169.71875 C87.34375,166.203125 88.953125,164.1875 91.40625,164.1875 C93.875,164.1875 95.46875,166.203125 95.46875,169.71875 C95.46875,173.25 93.875,175.25 91.40625,175.25 Z M111.015625,161.15625 C108.609375,161.15625 106.734375,162.375 105.796875,164.296875 L105.71875,164.296875 L105.71875,161.4375 L101.921875,161.4375 L101.921875,183.453125 L105.8125,183.453125 L105.8125,175.25 L105.890625,175.25 C106.796875,177.109375 108.671875,178.265625 111.078125,178.265625 C115.234375,178.265625 117.890625,175 117.890625,169.71875 C117.890625,164.421875 115.21875,161.15625 111.015625,161.15625 Z M109.828125,175.078125 C107.40625,175.078125 105.796875,172.96875 105.78125,169.71875 C105.796875,166.5 107.40625,164.359375 109.828125,164.359375 C112.34375,164.359375 113.90625,166.453125 113.90625,169.71875 C113.90625,173 112.34375,175.078125 109.828125,175.078125 Z M120.5,178 L124.390625,178 L124.390625,168.484375 C124.390625,166.046875 125.8125,164.421875 128.15625,164.421875 C130.40625,164.421875 131.5625,165.8125 131.5625,168.125 L131.5625,178 L135.453125,178 L135.453125,167.328125 C135.453125,163.53125 133.3125,161.125 129.65625,161.125 C127.140625,161.125 125.3125,162.265625 124.421875,164.28125 L124.34375,164.28125 L124.34375,155.453125 L120.5,155.453125 L120.5,178 Z M145.890625,178.328125 C150.75,178.328125 153.90625,175.09375 153.90625,169.71875 C153.90625,164.359375 150.71875,161.09375 145.890625,161.09375 C141.0625,161.09375 137.875,164.375 137.875,169.71875 C137.875,175.09375 141.03125,178.328125 145.890625,178.328125 Z M145.890625,175.25 C143.421875,175.25 141.828125,173.25 141.828125,169.71875 C141.828125,166.203125 143.4375,164.1875 145.890625,164.1875 C148.359375,164.1875 149.953125,166.203125 149.953125,169.71875 C149.953125,173.25 148.359375,175.25 145.890625,175.25 Z M156.40625,178 L160.296875,178 L160.296875,168.40625 C160.296875,166.03125 161.71875,164.421875 163.953125,164.421875 C166.171875,164.421875 167.265625,165.734375 167.265625,168.078125 L167.265625,178 L171.15625,178 L171.15625,167.296875 C171.15625,163.46875 169.078125,161.125 165.421875,161.125 C162.875,161.125 161.109375,162.3125 160.21875,164.28125 L160.140625,164.28125 L160.140625,161.4375 L156.40625,161.4375 L156.40625,178 Z M185.234375,173.046875 C184.8125,174.421875 183.4375,175.328125 181.625,175.328125 C179.078125,175.328125 177.453125,173.546875 177.453125,170.890625 L177.453125,170.65625 L189.03125,170.65625 L189.03125,169.390625 C189.03125,164.359375 186.09375,161.09375 181.390625,161.09375 C176.609375,161.09375 173.578125,164.546875 173.578125,169.78125 C173.578125,175.0625 176.578125,178.328125 181.546875,178.328125 C185.46875,178.328125 188.375,176.171875 188.875,173.046875 L185.234375,173.046875 Z M181.40625,164.109375 C183.640625,164.109375 185.140625,165.75 185.21875,168.09375 L177.484375,168.09375 C177.640625,165.78125 179.21875,164.109375 181.40625,164.109375 Z" fill="#007AFF" fill-rule="nonzero"></path>
    </g>
</svg>