<?xml version="1.0" encoding="UTF-8"?>
<svg width="200px" height="200px" viewBox="0 0 200 200" version="1.1" xmlns="http://www.w3.org/2000/svg" xmlns:xlink="http://www.w3.org/1999/xlink">
    <title>microphone</title>
    <defs>
        <path d="M71.7887856,-1.0155026e-14 L128.211214,-4.35432025e-15 C153.173739,2.52998546e-15 162.225754,2.59911711 171.35168,7.47971571 C180.477606,12.3603143 187.639686,19.5223944 192.520284,28.6483203 C197.400883,37.7742462 200,46.8262609 200,71.7887856 L200,128.211214 C200,153.173739 197.400883,162.225754 192.520284,171.35168 C187.639686,180.477606 180.477606,187.639686 171.35168,192.520284 C162.225754,197.400883 153.173739,200 128.211214,200 L71.7887856,200 C46.8262609,200 37.7742462,197.400883 28.6483203,192.520284 C19.5223944,187.639686 12.3603143,180.477606 7.47971571,171.35168 C2.59911711,162.225754 5.33863302e-15,153.173739 -9.18824169e-15,128.211214 L-5.32110454e-15,71.7887856 C3.09171497e-15,46.8262609 2.59911711,37.7742462 7.47971571,28.6483203 C12.3603143,19.5223944 19.5223944,12.3603143 28.6483203,7.47971571 C37.7742462,2.59911711 46.8262609,5.90036254e-15 71.7887856,-1.0155026e-14 Z" id="path-1"></path>
    </defs>
    <g id="microphone" stroke="none" stroke-width="1" fill="none" fill-rule="evenodd">
        <mask id="mask-2" fill="white">
            <use xlink:href="#path-1"></use>
        </mask>
        <path stroke="#979797" d="M128.211214,0.5 C153.032141,0.5 162.039835,3.06670034 171.11588,7.9206223 C180.153383,12.7539317 187.246068,19.8466169 192.079378,28.8841197 C196.9333,37.9601647 199.5,46.9678595 199.5,71.7887856 L199.5,71.7887856 L199.5,128.211214 C199.5,153.032141 196.9333,162.039835 192.079378,171.11588 C187.246068,180.153383 180.153383,187.246068 171.11588,192.079378 C162.039835,196.9333 153.032141,199.5 128.211214,199.5 L128.211214,199.5 L71.7887856,199.5 C46.9678595,199.5 37.9601647,196.9333 28.8841197,192.079378 C19.8466169,187.246068 12.7539317,180.153383 7.9206223,171.11588 C7.29596774,169.947878 6.7091922,168.781008 6.16089145,167.581421 L5.91056367,167.025319 C2.40301741,159.110804 0.54424392,149.574911 0.500779417,128.955326 L0.500779417,128.955326 L0.5,71.7887856 C0.5,46.9678595 3.06670034,37.9601647 7.9206223,28.8841197 C12.7539317,19.8466169 19.8466169,12.7539317 28.8841197,7.9206223 C30.0521222,7.29596774 31.2189915,6.7091922 32.4185786,6.16089145 L32.9746807,5.91056367 C40.8891963,2.40301741 50.4250886,0.54424392 71.0446738,0.500779417 L71.0446738,0.500779417 Z"></path>
        <g id="Group" mask="url(#mask-2)">
            <g id="Icon">
                <rect id="Rectangle" fill="#FFFFFF" x="0" y="0" width="200" height="200"></rect>
                <rect id="Background" fill="#FF3B30" x="0" y="0" width="200" height="200"></rect>
                <path d="M101.633301,117.743652 C113.366699,117.743652 121.606445,108.646973 121.606445,96.5180664 L121.606445,49.4526367 C121.606445,37.2578125 113.366699,28.2270508 101.633301,28.2270508 C89.8999023,28.2270508 81.6601562,37.2578125 81.6601562,49.4526367 L81.6601562,96.5180664 C81.6601562,108.646973 89.8999023,117.743652 101.633301,117.743652 Z M132.416992,164.809082 C135.053711,164.809082 137.36084,162.501953 137.36084,159.865234 C137.36084,157.228516 135.053711,154.855469 132.416992,154.855469 L106.577148,154.855469 L106.577148,140.419434 C130.571289,138.310059 146.45752,120.578125 146.45752,96.4521484 L146.45752,80.9614258 C146.45752,78.390625 144.150391,76.1494141 141.57959,76.1494141 C139.008789,76.1494141 136.767578,78.390625 136.767578,80.9614258 L136.767578,96.4521484 C136.767578,116.557129 122.265625,131.322754 101.633301,131.322754 C81.0009766,131.322754 66.4990234,116.557129 66.4990234,96.4521484 L66.4990234,80.9614258 C66.4990234,78.390625 64.2578125,76.1494141 61.6870117,76.1494141 C59.1162109,76.1494141 56.809082,78.390625 56.809082,80.9614258 L56.809082,96.4521484 C56.809082,120.578125 72.6953125,138.310059 96.6235352,140.419434 L96.6235352,154.855469 L70.8496094,154.855469 C68.2128906,154.855469 65.9057617,157.228516 65.9057617,159.865234 C65.9057617,162.501953 68.2128906,164.809082 70.8496094,164.809082 L132.416992,164.809082 Z" fill="#FFFFFF" fill-rule="nonzero"></path>
            </g>
        </g>
    </g>
</svg>