<?xml version="1.0" encoding="UTF-8"?>
<svg width="160px" height="190px" viewBox="0 0 160 190" version="1.1" xmlns="http://www.w3.org/2000/svg" xmlns:xlink="http://www.w3.org/1999/xlink">
    <!-- Generator: Sketch 59.1 (86144) - https://sketch.com -->
    <title>Microphone</title>
    <desc>Created with Sketch.</desc>
    <g id="Microphone" stroke="none" stroke-width="1" fill="none" fill-rule="evenodd">
        <path d="M95.3691553,31.6083408 L122.273452,58.5126377 C130.867202,49.9677158 131.208999,39.1278721 122.957046,30.9247471 C114.753921,22.8192783 103.962905,23.0145908 95.3691553,31.6083408 Z M90.4863428,36.5399815 C85.3105615,41.6181065 83.162124,47.4286533 83.8945459,53.0438877 L38.5332178,101.920841 C36.677749,103.922794 36.3847803,106.705997 38.6797022,109.000919 L32.4297022,117.05756 C31.8437647,117.83881 31.7949365,118.961856 32.6738428,119.840763 L34.0898584,121.305606 C34.9199365,122.135685 36.0429834,122.184513 36.9218897,121.500919 L44.9785303,115.202091 C47.1164104,117.434988 49.8552081,117.21799 51.8006945,115.495574 L77.302749,91.9110752 L77.302749,119.791935 C77.302749,122.282169 79.255874,124.235294 81.7461084,124.235294 C84.2363428,124.235294 86.1894678,122.282169 86.1894678,119.791935 L86.1894678,90.9345127 L85.8476709,83.9520908 L100.740249,70.1337315 C106.355483,70.8661533 112.263687,68.5712315 117.341812,63.4442783 L90.4863428,36.5399815 Z M43.5625147,105.924747 L86.5800928,60.3192783 C87.4101709,61.6864658 88.4355615,63.0048252 89.6562647,64.2743565 C90.8769678,65.4950596 92.146499,66.5692783 93.4648584,67.4481846 L48.0547022,110.416935 L43.5625147,105.924747 Z" fill="#007AFF" fill-rule="nonzero"></path>
        <path d="M30.767964,165 L30.767964,148.089844 L27.2289015,148.089844 L22.142964,160.640625 L21.9320265,160.640625 L16.846089,148.089844 L13.3070265,148.089844 L13.3070265,165 L16.1195265,165 L16.1195265,153.011719 L16.283589,153.011719 L20.9593702,164.472656 L23.1156202,164.472656 L27.7914015,153.011719 L27.955464,153.011719 L27.955464,165 L30.767964,165 Z M35.8811681,150.046875 C36.8421056,150.046875 37.6272618,149.285156 37.6272618,148.324219 C37.6272618,147.375 36.8421056,146.601562 35.8811681,146.601562 C34.9319493,146.601562 34.1467931,147.375 34.1467931,148.324219 C34.1467931,149.285156 34.9319493,150.046875 35.8811681,150.046875 Z M34.4397618,165 L37.3342931,165 L37.3342931,152.191406 L34.4397618,152.191406 L34.4397618,165 Z M51.7756221,156.46875 C51.4709346,153.820312 49.4787471,151.945312 46.1857784,151.945312 C42.3303096,151.945312 40.0685909,154.417969 40.0685909,158.566406 C40.0685909,162.761719 42.3420284,165.257812 46.1974971,165.257812 C49.4435909,165.257812 51.4592159,163.453125 51.7756221,160.804688 L49.0099971,160.804688 C48.7053096,162.152344 47.6974971,162.867188 46.1857784,162.867188 C44.2053096,162.867188 43.0099971,161.285156 43.0099971,158.566406 C43.0099971,155.894531 44.1935909,154.324219 46.1857784,154.324219 C47.7795284,154.324219 48.7404659,155.226562 49.0099971,156.46875 L51.7756221,156.46875 Z M54.32242,165 L57.22867,165 L57.22867,157.558594 C57.22867,155.753906 58.54117,154.582031 60.4278887,154.582031 C60.9200762,154.582031 61.6935137,154.664062 61.91617,154.746094 L61.91617,152.097656 C61.6466387,152.027344 61.1310137,151.980469 60.7091387,151.980469 C59.056795,151.980469 57.6739825,152.917969 57.32242,154.183594 L57.1232012,154.183594 L57.1232012,152.191406 L54.32242,152.191406 L54.32242,165 Z M69.279374,165.257812 C73.1114053,165.257812 75.4434365,162.75 75.4434365,158.589844 C75.4434365,154.453125 73.0996865,151.945312 69.279374,151.945312 C65.4707803,151.945312 63.1153115,154.464844 63.1153115,158.589844 C63.1153115,162.75 65.435624,165.257812 69.279374,165.257812 Z M69.279374,162.878906 C67.2520303,162.878906 66.091874,161.308594 66.091874,158.601562 C66.091874,155.894531 67.2520303,154.324219 69.279374,154.324219 C71.294999,154.324219 72.4551553,155.894531 72.4551553,158.601562 C72.4551553,161.308594 71.3067178,162.878906 69.279374,162.878906 Z M85.1269531,151.980469 C83.3691406,151.980469 81.8808594,152.859375 81.1425781,154.3125 L80.9433594,154.3125 L80.9433594,152.191406 L78.1425781,152.191406 L78.1425781,169.253906 L81.0488281,169.253906 L81.0488281,163.054688 L81.2480469,163.054688 C81.9042969,164.414062 83.3222656,165.210938 85.1621094,165.210938 C88.3964844,165.210938 90.4121094,162.667969 90.4121094,158.601562 C90.4121094,154.5 88.3730469,151.980469 85.1269531,151.980469 Z M84.2128906,162.796875 C82.2324219,162.796875 81.0019531,161.191406 80.9902344,158.601562 C81.0019531,156.011719 82.2441406,154.40625 84.2246094,154.40625 C86.2167969,154.40625 87.4238281,155.976562 87.4238281,158.601562 C87.4238281,161.226562 86.2285156,162.796875 84.2128906,162.796875 Z M93.2167197,165 L96.1229697,165 L96.1229697,157.558594 C96.1229697,155.683594 97.189376,154.429688 99.0995322,154.429688 C100.787032,154.429688 101.677657,155.4375 101.677657,157.417969 L101.677657,165 L104.583907,165 L104.583907,156.738281 C104.583907,153.691406 102.919845,151.957031 100.177657,151.957031 C98.267501,151.957031 96.8964072,152.824219 96.2870322,154.265625 L96.0760947,154.265625 L96.0760947,147.234375 L93.2167197,147.234375 L93.2167197,165 Z M113.329924,165.257812 C117.161955,165.257812 119.493986,162.75 119.493986,158.589844 C119.493986,154.453125 117.150236,151.945312 113.329924,151.945312 C109.52133,151.945312 107.165861,154.464844 107.165861,158.589844 C107.165861,162.75 109.486174,165.257812 113.329924,165.257812 Z M113.329924,162.878906 C111.30258,162.878906 110.142424,161.308594 110.142424,158.601562 C110.142424,155.894531 111.30258,154.324219 113.329924,154.324219 C115.345549,154.324219 116.505705,155.894531 116.505705,158.601562 C116.505705,161.308594 115.357268,162.878906 113.329924,162.878906 Z M122.193128,165 L125.099378,165 L125.099378,157.535156 C125.099378,155.613281 126.189222,154.40625 127.923597,154.40625 C129.693128,154.40625 130.51344,155.402344 130.51344,157.394531 L130.51344,165 L133.41969,165 L133.41969,156.714844 C133.41969,153.667969 131.861097,151.945312 129.001722,151.945312 C127.091565,151.945312 125.802503,152.8125 125.193128,154.242188 L124.993909,154.242188 L124.993909,152.191406 L122.193128,152.191406 L122.193128,165 Z M144.989926,161.496094 C144.568051,162.457031 143.571957,162.996094 142.130551,162.996094 C140.220394,162.996094 138.989926,161.636719 138.919613,159.46875 L138.919613,159.316406 L147.872738,159.316406 L147.872738,158.390625 C147.872738,154.371094 145.681332,151.945312 142.025082,151.945312 C138.310238,151.945312 136.001644,154.535156 136.001644,158.648438 C136.001644,162.75 138.275082,165.257812 142.048519,165.257812 C145.071957,165.257812 147.216488,163.804688 147.743832,161.496094 L144.989926,161.496094 Z M142.013363,154.207031 C143.759457,154.207031 144.907894,155.4375 144.966488,157.382812 L138.931332,157.382812 C139.060238,155.460938 140.278988,154.207031 142.013363,154.207031 Z" fill="#007AFF" fill-rule="nonzero"></path>
    </g>
</svg>