<?xml version="1.0" encoding="UTF-8"?>
<svg width="210px" height="190px" viewBox="0 0 210 190" version="1.1" xmlns="http://www.w3.org/2000/svg" xmlns:xlink="http://www.w3.org/1999/xlink">
    <!-- Generator: Sketch 59.1 (86144) - https://sketch.com -->
    <title>Microphone</title>
    <desc>Created with Sketch.</desc>
    <g id="Microphone" stroke="none" stroke-width="1" fill="none" fill-rule="evenodd">
        <path d="M120.369155,31.6083408 L147.273452,58.5126377 C155.867202,49.9677158 156.208999,39.1278721 147.957046,30.9247471 C139.753921,22.8192783 128.962905,23.0145908 120.369155,31.6083408 Z M115.486343,36.5399815 C110.310562,41.6181065 108.162124,47.4286533 108.894546,53.0438877 L63.5332178,101.920841 C61.677749,103.922794 61.3847803,106.705997 63.6797022,109.000919 L57.4297022,117.05756 C56.8437647,117.83881 56.7949365,118.961856 57.6738428,119.840763 L59.0898584,121.305606 C59.9199365,122.135685 61.0429834,122.184513 61.9218897,121.500919 L69.9785303,115.202091 C72.1164104,117.434988 74.8552081,117.21799 76.8006945,115.495574 L102.302749,91.9110752 L102.302749,119.791935 C102.302749,122.282169 104.255874,124.235294 106.746108,124.235294 C109.236343,124.235294 111.189468,122.282169 111.189468,119.791935 L111.189468,90.9345127 L110.847671,83.9520908 L125.740249,70.1337315 C131.355483,70.8661533 137.263687,68.5712315 142.341812,63.4442783 L115.486343,36.5399815 Z M68.5625147,105.924747 L111.580093,60.3192783 C112.410171,61.6864658 113.435562,63.0048252 114.656265,64.2743565 C115.876968,65.4950596 117.146499,66.5692783 118.464858,67.4481846 L73.0547022,110.416935 L68.5625147,105.924747 Z" fill="#007AFF" fill-rule="nonzero"></path>
        <path d="M42.0820312,171 L42.0820312,147.043945 L37.1347656,147.043945 L29.796875,165.322266 L29.6640625,165.322266 L22.3261719,147.043945 L17.3623047,147.043945 L17.3623047,171 L21.2304688,171 L21.2304688,154 L21.3466797,154 L28.2695312,171 L31.1914062,171 L38.1142578,154 L38.2304688,154 L38.2304688,171 L42.0820312,171 Z M48.0585938,150.746094 C49.3203125,150.746094 50.3164062,149.733398 50.3164062,148.504883 C50.3164062,147.259766 49.3203125,146.263672 48.0585938,146.263672 C46.796875,146.263672 45.7841797,147.259766 45.7841797,148.504883 C45.7841797,149.733398 46.796875,150.746094 48.0585938,150.746094 Z M46,171 L50.1337891,171 L50.1337891,153.402344 L46,153.402344 L46,171 Z M69.109375,159.677734 C68.8271484,155.975586 65.9550781,153.037109 61.3066406,153.037109 C56.1933594,153.037109 52.8730469,156.573242 52.8730469,162.201172 C52.8730469,167.912109 56.1933594,171.348633 61.3398438,171.348633 C65.7558594,171.348633 68.7939453,168.758789 69.1259766,164.824219 L65.2246094,164.824219 C64.8427734,166.816406 63.4814453,168.011719 61.3896484,168.011719 C58.7666016,168.011719 57.0732422,165.886719 57.0732422,162.201172 C57.0732422,158.582031 58.75,156.390625 61.3564453,156.390625 C63.5644531,156.390625 64.8759766,157.801758 65.2080078,159.677734 L69.109375,159.677734 Z M71.5830078,171 L75.7167969,171 L75.7167969,160.756836 C75.7167969,158.283203 77.1279297,156.772461 79.46875,156.772461 C80.1660156,156.772461 80.796875,156.87207 81.1455078,157.004883 L81.1455078,153.269531 L80.8510358,153.207578 C80.5756338,153.154337 80.2300502,153.103516 79.8505859,153.103516 C77.7753906,153.103516 76.2314453,154.332031 75.6337891,156.473633 L75.5507812,156.473633 L75.5507812,153.402344 L71.5830078,153.402344 L71.5830078,171 Z M91.0566406,171.348633 C96.2197266,171.348633 99.5732422,167.912109 99.5732422,162.201172 C99.5732422,156.506836 96.1865234,153.037109 91.0566406,153.037109 C85.9267578,153.037109 82.5400391,156.523438 82.5400391,162.201172 C82.5400391,167.912109 85.8935547,171.348633 91.0566406,171.348633 Z M91.0566406,168.078125 C88.4335938,168.078125 86.7402344,165.953125 86.7402344,162.201172 C86.7402344,158.46582 88.4501953,156.324219 91.0566406,156.324219 C93.6796875,156.324219 95.3730469,158.46582 95.3730469,162.201172 C95.3730469,165.953125 93.6796875,168.078125 91.0566406,168.078125 Z M111.891602,153.103516 C109.334961,153.103516 107.342773,154.398438 106.34668,156.44043 L106.263672,156.44043 L106.263672,153.402344 L102.229492,153.402344 L102.229492,176.793945 L106.363281,176.793945 L106.363281,168.078125 L106.446289,168.078125 C107.40918,170.053711 109.401367,171.282227 111.958008,171.282227 C116.374023,171.282227 119.196289,167.8125 119.196289,162.201172 C119.196289,156.573242 116.357422,153.103516 111.891602,153.103516 Z M110.629883,167.895508 C108.056641,167.895508 106.34668,165.654297 106.330078,162.201172 C106.34668,158.78125 108.056641,156.506836 110.629883,156.506836 C113.302734,156.506836 114.962891,158.731445 114.962891,162.201172 C114.962891,165.6875 113.302734,167.895508 110.629883,167.895508 Z M121.96875,171 L126.102539,171 L126.102539,160.889648 C126.102539,158.299805 127.613281,156.573242 130.103516,156.573242 C132.494141,156.573242 133.722656,158.050781 133.722656,160.507812 L133.722656,171 L137.856445,171 L137.856445,159.661133 C137.856445,155.626953 135.582031,153.070312 131.697266,153.070312 C129.024414,153.070312 127.082031,154.282227 126.135742,156.423828 L126.052734,156.423828 L126.052734,147.043945 L121.96875,147.043945 L121.96875,171 Z M148.946289,171.348633 C154.109375,171.348633 157.462891,167.912109 157.462891,162.201172 C157.462891,156.506836 154.076172,153.037109 148.946289,153.037109 C143.816406,153.037109 140.429688,156.523438 140.429688,162.201172 C140.429688,167.912109 143.783203,171.348633 148.946289,171.348633 Z M148.946289,168.078125 C146.323242,168.078125 144.629883,165.953125 144.629883,162.201172 C144.629883,158.46582 146.339844,156.324219 148.946289,156.324219 C151.569336,156.324219 153.262695,158.46582 153.262695,162.201172 C153.262695,165.953125 151.569336,168.078125 148.946289,168.078125 Z M160.119141,171 L164.25293,171 L164.25293,160.806641 C164.25293,158.283203 165.763672,156.573242 168.137695,156.573242 C170.495117,156.573242 171.657227,157.967773 171.657227,160.458008 L171.657227,171 L175.791016,171 L175.791016,159.62793 C175.791016,155.560547 173.583008,153.070312 169.698242,153.070312 C166.992188,153.070312 165.116211,154.332031 164.169922,156.423828 L164.086914,156.423828 L164.086914,153.402344 L160.119141,153.402344 L160.119141,171 Z M190.749023,165.737305 C190.300781,167.198242 188.839844,168.161133 186.914062,168.161133 C184.208008,168.161133 182.481445,166.268555 182.481445,163.446289 L182.481445,163.197266 L194.783203,163.197266 L194.783203,161.852539 C194.783203,156.506836 191.662109,153.037109 186.665039,153.037109 C181.584961,153.037109 178.364258,156.706055 178.364258,162.267578 C178.364258,167.878906 181.551758,171.348633 186.831055,171.348633 C190.998047,171.348633 194.085938,169.057617 194.617188,165.737305 L190.749023,165.737305 Z M186.681641,156.241211 C189.055664,156.241211 190.649414,157.984375 190.732422,160.474609 L182.514648,160.474609 C182.680664,158.017578 184.357422,156.241211 186.681641,156.241211 Z" fill="#007AFF" fill-rule="nonzero"></path>
    </g>
</svg>