<?xml version="1.0" encoding="UTF-8"?>
<svg width="190px" height="190px" viewBox="0 0 190 190" version="1.1" xmlns="http://www.w3.org/2000/svg" xmlns:xlink="http://www.w3.org/1999/xlink">
    <!-- Generator: Sketch 59.1 (86144) - https://sketch.com -->
    <title>Microphone</title>
    <desc>Created with Sketch.</desc>
    <g id="Microphone" stroke="none" stroke-width="1" fill="none" fill-rule="evenodd">
        <path d="M110.369155,31.6083408 L137.273452,58.5126377 C145.867202,49.9677158 146.208999,39.1278721 137.957046,30.9247471 C129.753921,22.8192783 118.962905,23.0145908 110.369155,31.6083408 Z M105.486343,36.5399815 C100.310562,41.6181065 98.162124,47.4286533 98.8945459,53.0438877 L53.5332178,101.920841 C51.677749,103.922794 51.3847803,106.705997 53.6797022,109.000919 L47.4297022,117.05756 C46.8437647,117.83881 46.7949365,118.961856 47.6738428,119.840763 L49.0898584,121.305606 C49.9199365,122.135685 51.0429834,122.184513 51.9218897,121.500919 L59.9785303,115.202091 C62.1164104,117.434988 64.8552081,117.21799 66.8006945,115.495574 L92.302749,91.9110752 L92.302749,119.791935 C92.302749,122.282169 94.255874,124.235294 96.7461084,124.235294 C99.2363428,124.235294 101.189468,122.282169 101.189468,119.791935 L101.189468,90.9345127 L100.847671,83.9520908 L115.740249,70.1337315 C121.355483,70.8661533 127.263687,68.5712315 132.341812,63.4442783 L105.486343,36.5399815 Z M58.5625147,105.924747 L101.580093,60.3192783 C102.410171,61.6864658 103.435562,63.0048252 104.656265,64.2743565 C105.876968,65.4950596 107.146499,66.5692783 108.464858,67.4481846 L63.0547022,110.416935 L58.5625147,105.924747 Z" fill="#007AFF" fill-rule="nonzero"></path>
        <path d="M46.5039062,165 L46.5039062,146.680664 L42.7207031,146.680664 L37.109375,160.658203 L37.0078125,160.658203 L31.3964844,146.680664 L27.6005859,146.680664 L27.6005859,165 L30.5585938,165 L30.5585938,152 L30.6474609,152 L35.9414062,165 L38.1757812,165 L43.4697266,152 L43.5585938,152 L43.5585938,165 L46.5039062,165 Z M51.0742188,149.511719 C52.0390625,149.511719 52.8007812,148.737305 52.8007812,147.797852 C52.8007812,146.845703 52.0390625,146.083984 51.0742188,146.083984 C50.109375,146.083984 49.3349609,146.845703 49.3349609,147.797852 C49.3349609,148.737305 50.109375,149.511719 51.0742188,149.511719 Z M49.5,165 L52.6611328,165 L52.6611328,151.542969 L49.5,151.542969 L49.5,165 Z M67.171875,156.341797 C66.9560547,153.510742 64.7597656,151.263672 61.2050781,151.263672 C57.2949219,151.263672 54.7558594,153.967773 54.7558594,158.271484 C54.7558594,162.638672 57.2949219,165.266602 61.2304688,165.266602 C64.6074219,165.266602 66.9306641,163.286133 67.1845703,160.277344 L64.2011719,160.277344 C63.9091797,161.800781 62.8681641,162.714844 61.2685547,162.714844 C59.2626953,162.714844 57.9677734,161.089844 57.9677734,158.271484 C57.9677734,155.503906 59.25,153.828125 61.2431641,153.828125 C62.9316406,153.828125 63.9345703,154.907227 64.1884766,156.341797 L67.171875,156.341797 Z M69.0634766,165 L72.2246094,165 L72.2246094,157.166992 C72.2246094,155.275391 73.3037109,154.120117 75.09375,154.120117 C75.6269531,154.120117 76.109375,154.196289 76.3759766,154.297852 L76.3759766,151.441406 L76.1079644,151.385923 C75.9048394,151.348307 75.6565755,151.314453 75.3857422,151.314453 C73.7988281,151.314453 72.6181641,152.253906 72.1611328,153.891602 L72.0976562,153.891602 L72.0976562,151.542969 L69.0634766,151.542969 L69.0634766,165 Z M83.9550781,165.266602 C87.9033203,165.266602 90.4677734,162.638672 90.4677734,158.271484 C90.4677734,153.916992 87.8779297,151.263672 83.9550781,151.263672 C80.0322266,151.263672 77.4423828,153.929688 77.4423828,158.271484 C77.4423828,162.638672 80.0068359,165.266602 83.9550781,165.266602 Z M83.9550781,162.765625 C81.9492188,162.765625 80.6542969,161.140625 80.6542969,158.271484 C80.6542969,155.415039 81.9619141,153.777344 83.9550781,153.777344 C85.9609375,153.777344 87.2558594,155.415039 87.2558594,158.271484 C87.2558594,161.140625 85.9609375,162.765625 83.9550781,162.765625 Z M99.8876953,151.314453 C97.9326172,151.314453 96.4091797,152.304688 95.6474609,153.866211 L95.5839844,153.866211 L95.5839844,151.542969 L92.4990234,151.542969 L92.4990234,169.430664 L95.6601562,169.430664 L95.6601562,162.765625 L95.7236328,162.765625 C96.4599609,164.276367 97.9833984,165.21582 99.9384766,165.21582 C103.31543,165.21582 105.473633,162.5625 105.473633,158.271484 C105.473633,153.967773 103.302734,151.314453 99.8876953,151.314453 Z M98.9228516,162.625977 C96.9550781,162.625977 95.6474609,160.912109 95.6347656,158.271484 C95.6474609,155.65625 96.9550781,153.916992 98.9228516,153.916992 C100.966797,153.916992 102.236328,155.618164 102.236328,158.271484 C102.236328,160.9375 100.966797,162.625977 98.9228516,162.625977 Z M107.59375,165 L110.754883,165 L110.754883,157.268555 C110.754883,155.288086 111.910156,153.967773 113.814453,153.967773 C115.642578,153.967773 116.582031,155.097656 116.582031,156.976562 L116.582031,165 L119.743164,165 L119.743164,156.329102 C119.743164,153.244141 118.003906,151.289062 115.033203,151.289062 C112.989258,151.289062 111.503906,152.21582 110.780273,153.853516 L110.716797,153.853516 L110.716797,146.680664 L107.59375,146.680664 L107.59375,165 Z M128.223633,165.266602 C132.171875,165.266602 134.736328,162.638672 134.736328,158.271484 C134.736328,153.916992 132.146484,151.263672 128.223633,151.263672 C124.300781,151.263672 121.710938,153.929688 121.710938,158.271484 C121.710938,162.638672 124.275391,165.266602 128.223633,165.266602 Z M128.223633,162.765625 C126.217773,162.765625 124.922852,161.140625 124.922852,158.271484 C124.922852,155.415039 126.230469,153.777344 128.223633,153.777344 C130.229492,153.777344 131.524414,155.415039 131.524414,158.271484 C131.524414,161.140625 130.229492,162.765625 128.223633,162.765625 Z M136.767578,165 L139.928711,165 L139.928711,157.205078 C139.928711,155.275391 141.083984,153.967773 142.899414,153.967773 C144.702148,153.967773 145.59082,155.03418 145.59082,156.938477 L145.59082,165 L148.751953,165 L148.751953,156.303711 C148.751953,153.193359 147.063477,151.289062 144.092773,151.289062 C142.023438,151.289062 140.588867,152.253906 139.865234,153.853516 L139.801758,153.853516 L139.801758,151.542969 L136.767578,151.542969 L136.767578,165 Z M160.19043,160.975586 C159.847656,162.092773 158.730469,162.829102 157.257812,162.829102 C155.188477,162.829102 153.868164,161.381836 153.868164,159.223633 L153.868164,159.033203 L163.275391,159.033203 L163.275391,158.004883 C163.275391,153.916992 160.888672,151.263672 157.067383,151.263672 C153.182617,151.263672 150.719727,154.069336 150.719727,158.322266 C150.719727,162.613281 153.157227,165.266602 157.194336,165.266602 C160.380859,165.266602 162.742188,163.514648 163.148438,160.975586 L160.19043,160.975586 Z M157.080078,153.713867 C158.895508,153.713867 160.114258,155.046875 160.177734,156.951172 L153.893555,156.951172 C154.020508,155.072266 155.302734,153.713867 157.080078,153.713867 Z" fill="#007AFF" fill-rule="nonzero"></path>
    </g>
</svg>