<?xml version="1.0" encoding="UTF-8"?>
<svg width="160px" height="190px" viewBox="0 0 160 190" version="1.1" xmlns="http://www.w3.org/2000/svg" xmlns:xlink="http://www.w3.org/1999/xlink">
    <!-- Generator: Sketch 59.1 (86144) - https://sketch.com -->
    <title>Microphone</title>
    <desc>Created with Sketch.</desc>
    <g id="Microphone" stroke="none" stroke-width="1" fill="none" fill-rule="evenodd">
        <path d="M95.3691553,31.6083408 L122.273452,58.5126377 C130.867202,49.9677158 131.208999,39.1278721 122.957046,30.9247471 C114.753921,22.8192783 103.962905,23.0145908 95.3691553,31.6083408 Z M90.4863428,36.5399815 C85.3105615,41.6181065 83.162124,47.4286533 83.8945459,53.0438877 L38.5332178,101.920841 C36.677749,103.922794 36.3847803,106.705997 38.6797022,109.000919 L32.4297022,117.05756 C31.8437647,117.83881 31.7949365,118.961856 32.6738428,119.840763 L34.0898584,121.305606 C34.9199365,122.135685 36.0429834,122.184513 36.9218897,121.500919 L44.9785303,115.202091 C47.1164104,117.434988 49.8552081,117.21799 51.8006945,115.495574 L77.302749,91.9110752 L77.302749,119.791935 C77.302749,122.282169 79.255874,124.235294 81.7461084,124.235294 C84.2363428,124.235294 86.1894678,122.282169 86.1894678,119.791935 L86.1894678,90.9345127 L85.8476709,83.9520908 L100.740249,70.1337315 C106.355483,70.8661533 112.263687,68.5712315 117.341812,63.4442783 L90.4863428,36.5399815 Z M43.5625147,105.924747 L86.5800928,60.3192783 C87.4101709,61.6864658 88.4355615,63.0048252 89.6562647,64.2743565 C90.8769678,65.4950596 92.146499,66.5692783 93.4648584,67.4481846 L48.0547022,110.416935 L43.5625147,105.924747 Z" fill="#007AFF" fill-rule="nonzero"></path>
        <path d="M47.40625,168.117188 L47.40625,156.84375 L45.359375,156.84375 L41.765625,165.664062 L41.6328125,165.664062 L38.046875,156.84375 L36,156.84375 L36,168.117188 L37.625,168.117188 L37.625,159.859375 L37.734375,159.859375 L41.0390625,167.914062 L42.3671875,167.914062 L45.671875,159.859375 L45.78125,159.859375 L45.78125,168.117188 L47.40625,168.117188 Z M50.7525527,158.117188 C51.3384902,158.117188 51.8150527,157.640625 51.8150527,157.0625 C51.8150527,156.476562 51.3384902,156 50.7525527,156 C50.1666152,156 49.6900527,156.476562 49.6900527,157.0625 C49.6900527,157.640625 50.1666152,158.117188 50.7525527,158.117188 Z M49.9166152,168.117188 L51.5884902,168.117188 L51.5884902,159.632812 L49.9166152,159.632812 L49.9166152,168.117188 Z M61.1066679,162.359375 C60.8879179,160.710938 59.5988554,159.46875 57.4660429,159.46875 C54.9894804,159.46875 53.4816679,161.148438 53.4816679,163.84375 C53.4816679,166.59375 54.9972929,168.28125 57.4738554,168.28125 C59.5754179,168.28125 60.8879179,167.101562 61.1066679,165.429688 L59.4738554,165.429688 C59.2551054,166.351562 58.5285429,166.851562 57.4660429,166.851562 C56.0676054,166.851562 55.2004179,165.71875 55.2004179,163.84375 C55.2004179,162.007812 56.0597929,160.898438 57.4660429,160.898438 C58.5910429,160.898438 59.2785429,161.53125 59.4738554,162.359375 L61.1066679,162.359375 Z M62.8670332,168.117188 L64.5467207,168.117188 L64.5467207,163.046875 C64.5467207,161.851562 65.4451582,161.03125 66.7185957,161.03125 C67.0154707,161.03125 67.5154707,161.085938 67.6560957,161.125 L67.6560957,159.546875 C67.4764082,159.507812 67.1560957,159.484375 66.9060957,159.484375 C65.7967207,159.484375 64.8514082,160.085938 64.6092207,160.921875 L64.4842207,160.921875 L64.4842207,159.632812 L62.8670332,159.632812 L62.8670332,168.117188 Z M72.4945859,168.28125 C74.9789609,168.28125 76.5023984,166.617188 76.5023984,163.875 C76.5023984,161.132812 74.9711484,159.46875 72.4945859,159.46875 C70.0102109,159.46875 68.4789609,161.140625 68.4789609,163.875 C68.4789609,166.617188 70.0023984,168.28125 72.4945859,168.28125 Z M72.4945859,166.851562 C71.0336484,166.851562 70.2133359,165.765625 70.2133359,163.875 C70.2133359,161.984375 71.0336484,160.890625 72.4945859,160.890625 C73.9477109,160.890625 74.7758359,161.984375 74.7758359,163.875 C74.7758359,165.757812 73.9477109,166.851562 72.4945859,166.851562 Z M82.7783886,159.484375 C81.6221386,159.484375 80.6221386,160.070312 80.1065136,161.039062 L79.9815136,161.039062 L79.9815136,159.632812 L78.3643261,159.632812 L78.3643261,170.945312 L80.0440136,170.945312 L80.0440136,166.835938 L80.1768261,166.835938 C80.6221386,167.734375 81.5830761,168.257812 82.7940136,168.257812 C84.9424511,168.257812 86.3096386,166.554688 86.3096386,163.875 C86.3096386,161.179688 84.9424511,159.484375 82.7783886,159.484375 Z M82.3018261,166.820312 C80.8955761,166.820312 80.0127636,165.6875 80.0127636,163.875 C80.0127636,162.054688 80.8955761,160.921875 82.3096386,160.921875 C83.7315136,160.921875 84.5830761,162.03125 84.5830761,163.875 C84.5830761,165.71875 83.7315136,166.820312 82.3018261,166.820312 Z M88.2496913,168.117188 L89.9293788,168.117188 L89.9293788,163.148438 C89.9293788,161.820312 90.6950038,160.9375 92.0700038,160.9375 C93.2575038,160.9375 93.8903163,161.632812 93.8903163,163.03125 L93.8903163,168.117188 L95.5700038,168.117188 L95.5700038,162.632812 C95.5700038,160.625 94.4528163,159.476562 92.6403163,159.476562 C91.3590663,159.476562 90.4606288,160.039062 90.0465663,160.984375 L89.9137538,160.984375 L89.9137538,156.304688 L88.2496913,156.304688 L88.2496913,168.117188 Z M101.369432,168.28125 C103.853807,168.28125 105.377244,166.617188 105.377244,163.875 C105.377244,161.132812 103.845994,159.46875 101.369432,159.46875 C98.8850565,159.46875 97.3538065,161.140625 97.3538065,163.875 C97.3538065,166.617188 98.877244,168.28125 101.369432,168.28125 Z M101.369432,166.851562 C99.908494,166.851562 99.0881815,165.765625 99.0881815,163.875 C99.0881815,161.984375 99.908494,160.890625 101.369432,160.890625 C102.822557,160.890625 103.650682,161.984375 103.650682,163.875 C103.650682,165.757812 102.822557,166.851562 101.369432,166.851562 Z M107.239172,168.117188 L108.918859,168.117188 L108.918859,163.140625 C108.918859,161.773438 109.707922,160.929688 110.950109,160.929688 C112.192297,160.929688 112.786047,161.617188 112.786047,163.023438 L112.786047,168.117188 L114.465734,168.117188 L114.465734,162.625 C114.465734,160.601562 113.418859,159.46875 111.520422,159.46875 C110.239172,159.46875 109.395422,160.039062 108.981359,160.976562 L108.856359,160.976562 L108.856359,159.632812 L107.239172,159.632812 L107.239172,168.117188 Z M122.249537,165.84375 C121.937037,166.53125 121.241724,166.90625 120.226099,166.90625 C118.882349,166.90625 118.015162,165.9375 117.960474,164.398438 L117.960474,164.320312 L123.968287,164.320312 L123.968287,163.742188 C123.968287,161.085938 122.538599,159.46875 120.171412,159.46875 C117.772974,159.46875 116.249537,161.195312 116.249537,163.890625 C116.249537,166.601562 117.741724,168.28125 120.179224,168.28125 C122.124537,168.28125 123.499537,167.34375 123.866724,165.84375 L122.249537,165.84375 Z M120.163599,160.835938 C121.405787,160.835938 122.218287,161.734375 122.257349,163.109375 L117.960474,163.109375 C118.054224,161.742188 118.921412,160.835938 120.163599,160.835938 Z" fill="#007AFF" fill-rule="nonzero"></path>
    </g>
</svg>