<?xml version="1.0" encoding="UTF-8"?>
<svg width="150px" height="150px" viewBox="0 0 150 150" version="1.1" xmlns="http://www.w3.org/2000/svg" xmlns:xlink="http://www.w3.org/1999/xlink">
    <!-- Generator: Sketch 59.1 (86144) - https://sketch.com -->
    <title>Microphone</title>
    <desc>Created with Sketch.</desc>
    <g id="Microphone" stroke="none" stroke-width="1" fill="none" fill-rule="evenodd">
        <path d="M90.3691553,31.6083408 L117.273452,58.5126377 C125.867202,49.9677158 126.208999,39.1278721 117.957046,30.9247471 C109.753921,22.8192783 98.9629053,23.0145908 90.3691553,31.6083408 Z M85.4863428,36.5399815 C80.3105615,41.6181065 78.162124,47.4286533 78.8945459,53.0438877 L33.5332178,101.920841 C31.677749,103.922794 31.3847803,106.705997 33.6797022,109.000919 L27.4297022,117.05756 C26.8437647,117.83881 26.7949365,118.961856 27.6738428,119.840763 L29.0898584,121.305606 C29.9199365,122.135685 31.0429834,122.184513 31.9218897,121.500919 L39.9785303,115.202091 C42.1164104,117.434988 44.8552081,117.21799 46.8006945,115.495574 L72.302749,91.9110752 L72.302749,119.791935 C72.302749,122.282169 74.255874,124.235294 76.7461084,124.235294 C79.2363428,124.235294 81.1894678,122.282169 81.1894678,119.791935 L81.1894678,90.9345127 L80.8476709,83.9520908 L95.740249,70.1337315 C101.355483,70.8661533 107.263687,68.5712315 112.341812,63.4442783 L85.4863428,36.5399815 Z M38.5625147,105.924747 L81.5800928,60.3192783 C82.4101709,61.6864658 83.4355615,63.0048252 84.6562647,64.2743565 C85.8769678,65.4950596 87.146499,66.5692783 88.4648584,67.4481846 L43.0547022,110.416935 L38.5625147,105.924747 Z" fill="#007AFF" fill-rule="nonzero"></path>
    </g>
</svg>