<?xml version="1.0" encoding="UTF-8"?>
<svg width="200px" height="200px" viewBox="0 0 200 200" version="1.1" xmlns="http://www.w3.org/2000/svg" xmlns:xlink="http://www.w3.org/1999/xlink">
    <title>microphone</title>
    <defs>
        <path d="M142.505593,199.776349 C162.751678,199.776349 177.181208,197.540464 187.583893,187.255391 C197.87472,176.858525 200,162.660653 200,142.314097 L200,57.4622515 C200,37.1156955 197.87472,22.8060298 187.583893,12.5209575 C177.069351,2.23588527 162.751678,0 142.505593,0 L56.8232662,0 C37.4720358,0 22.9306488,2.23588527 12.5279642,12.6327518 C2.23713647,22.917824 0,37.2274898 0,56.7914859 L0,142.314097 C0,162.660653 2.12527964,176.970319 12.5279642,187.255391 C22.9306488,197.540464 37.2483221,199.776349 57.606264,199.776349 L142.505593,199.776349 Z" id="path-1"></path>
    </defs>
    <g id="microphone" stroke="none" stroke-width="1" fill="none" fill-rule="evenodd">
        <g id="GitHub-Preview-Mask">
            <mask id="mask-2" fill="white">
                <use xlink:href="#path-1"></use>
            </mask>
            <use id="Mask" fill="#FFFFFF" fill-rule="nonzero" xlink:href="#path-1"></use>
        </g>
        <g id="Icon">
            <rect id="Rectangle" fill="#FFFFFF" x="0" y="0" width="200" height="200"></rect>
            <rect id="Background" fill="#FF3B30" x="0" y="0" width="200" height="200"></rect>
            <path d="M101.633301,117.743652 C113.366699,117.743652 121.606445,108.646973 121.606445,96.5180664 L121.606445,49.4526367 C121.606445,37.2578125 113.366699,28.2270508 101.633301,28.2270508 C89.8999023,28.2270508 81.6601562,37.2578125 81.6601562,49.4526367 L81.6601562,96.5180664 C81.6601562,108.646973 89.8999023,117.743652 101.633301,117.743652 Z M132.416992,164.809082 C135.053711,164.809082 137.36084,162.501953 137.36084,159.865234 C137.36084,157.228516 135.053711,154.855469 132.416992,154.855469 L106.577148,154.855469 L106.577148,140.419434 C130.571289,138.310059 146.45752,120.578125 146.45752,96.4521484 L146.45752,80.9614258 C146.45752,78.390625 144.150391,76.1494141 141.57959,76.1494141 C139.008789,76.1494141 136.767578,78.390625 136.767578,80.9614258 L136.767578,96.4521484 C136.767578,116.557129 122.265625,131.322754 101.633301,131.322754 C81.0009766,131.322754 66.4990234,116.557129 66.4990234,96.4521484 L66.4990234,80.9614258 C66.4990234,78.390625 64.2578125,76.1494141 61.6870117,76.1494141 C59.1162109,76.1494141 56.809082,78.390625 56.809082,80.9614258 L56.809082,96.4521484 C56.809082,120.578125 72.6953125,138.310059 96.6235352,140.419434 L96.6235352,154.855469 L70.8496094,154.855469 C68.2128906,154.855469 65.9057617,157.228516 65.9057617,159.865234 C65.9057617,162.501953 68.2128906,164.809082 70.8496094,164.809082 L132.416992,164.809082 Z" fill="#FFFFFF" fill-rule="nonzero"></path>
        </g>
    </g>
</svg>