<?xml version="1.0" encoding="UTF-8"?>
<svg width="150px" height="190px" viewBox="0 0 150 190" version="1.1" xmlns="http://www.w3.org/2000/svg" xmlns:xlink="http://www.w3.org/1999/xlink">
    <!-- Generator: Sketch 59.1 (86144) - https://sketch.com -->
    <title>Microphone</title>
    <desc>Created with Sketch.</desc>
    <g id="Microphone" stroke="none" stroke-width="1" fill="none" fill-rule="evenodd">
        <path d="M90.3691553,31.6083408 L117.273452,58.5126377 C125.867202,49.9677158 126.208999,39.1278721 117.957046,30.9247471 C109.753921,22.8192783 98.9629053,23.0145908 90.3691553,31.6083408 Z M85.4863428,36.5399815 C80.3105615,41.6181065 78.162124,47.4286533 78.8945459,53.0438877 L33.5332178,101.920841 C31.677749,103.922794 31.3847803,106.705997 33.6797022,109.000919 L27.4297022,117.05756 C26.8437647,117.83881 26.7949365,118.961856 27.6738428,119.840763 L29.0898584,121.305606 C29.9199365,122.135685 31.0429834,122.184513 31.9218897,121.500919 L39.9785303,115.202091 C42.1164104,117.434988 44.8552081,117.21799 46.8006945,115.495574 L72.302749,91.9110752 L72.302749,119.791935 C72.302749,122.282169 74.255874,124.235294 76.7461084,124.235294 C79.2363428,124.235294 81.1894678,122.282169 81.1894678,119.791935 L81.1894678,90.9345127 L80.8476709,83.9520908 L95.740249,70.1337315 C101.355483,70.8661533 107.263687,68.5712315 112.341812,63.4442783 L85.4863428,36.5399815 Z M38.5625147,105.924747 L81.5800928,60.3192783 C82.4101709,61.6864658 83.4355615,63.0048252 84.6562647,64.2743565 C85.8769678,65.4950596 87.146499,66.5692783 88.4648584,67.4481846 L43.0547022,110.416935 L38.5625147,105.924747 Z" fill="#007AFF" fill-rule="nonzero"></path>
        <path d="M29.8706336,168 L29.8706336,152.499023 L26.626493,152.499023 L21.9643836,164.003906 L21.7710243,164.003906 L17.1089149,152.499023 L13.8647743,152.499023 L13.8647743,168 L16.4428993,168 L16.4428993,157.010742 L16.5932899,157.010742 L20.8794227,167.516602 L22.8559852,167.516602 L27.142118,157.010742 L27.2925086,157.010742 L27.2925086,168 L29.8706336,168 Z M34.5577374,154.292969 C35.4385968,154.292969 36.1583233,153.594727 36.1583233,152.713867 C36.1583233,151.84375 35.4385968,151.134766 34.5577374,151.134766 C33.6876202,151.134766 32.9678936,151.84375 32.9678936,152.713867 C32.9678936,153.594727 33.6876202,154.292969 34.5577374,154.292969 Z M33.2364483,168 L35.8897686,168 L35.8897686,156.258789 L33.2364483,156.258789 L33.2364483,168 Z M49.1276536,160.179688 C48.8483567,157.751953 47.0221849,156.033203 44.0036302,156.033203 C40.4694505,156.033203 38.3962083,158.299805 38.3962083,162.102539 C38.3962083,165.948242 40.4801927,168.236328 44.0143724,168.236328 C46.9899583,168.236328 48.8376146,166.582031 49.1276536,164.154297 L46.5924974,164.154297 C46.3132005,165.389648 45.3893724,166.044922 44.0036302,166.044922 C42.1882005,166.044922 41.0924974,164.594727 41.0924974,162.102539 C41.0924974,159.65332 42.1774583,158.213867 44.0036302,158.213867 C45.4645677,158.213867 46.3454271,159.041016 46.5924974,160.179688 L49.1276536,160.179688 Z M51.4622183,168 L54.1262808,168 L54.1262808,161.178711 C54.1262808,159.524414 55.3294058,158.450195 57.058898,158.450195 C57.5100699,158.450195 58.2190542,158.525391 58.4231558,158.600586 L58.4231558,156.172852 C58.1760855,156.108398 57.7034292,156.06543 57.3167105,156.06543 C55.8020621,156.06543 54.5344839,156.924805 54.2122183,158.084961 L54.0296011,158.084961 L54.0296011,156.258789 L51.4622183,156.258789 L51.4622183,168 Z M65.1727595,168.236328 C68.6854549,168.236328 70.8231502,165.9375 70.8231502,162.124023 C70.8231502,158.332031 68.6747127,156.033203 65.1727595,156.033203 C61.6815486,156.033203 59.5223689,158.342773 59.5223689,162.124023 C59.5223689,165.9375 61.649322,168.236328 65.1727595,168.236328 Z M65.1727595,166.055664 C63.3143611,166.055664 62.2508845,164.616211 62.2508845,162.134766 C62.2508845,159.65332 63.3143611,158.213867 65.1727595,158.213867 C67.0204158,158.213867 68.0838924,159.65332 68.0838924,162.134766 C68.0838924,164.616211 67.031158,166.055664 65.1727595,166.055664 Z M79.699707,156.06543 C78.0883789,156.06543 76.7241211,156.871094 76.0473633,158.203125 L75.8647461,158.203125 L75.8647461,156.258789 L73.2973633,156.258789 L73.2973633,171.899414 L75.9614258,171.899414 L75.9614258,166.216797 L76.144043,166.216797 C76.7456055,167.462891 78.0454102,168.193359 79.7319336,168.193359 C82.6967773,168.193359 84.5444336,165.862305 84.5444336,162.134766 C84.5444336,158.375 82.675293,156.06543 79.699707,156.06543 Z M78.8618164,165.980469 C77.0463867,165.980469 75.918457,164.508789 75.9077148,162.134766 C75.918457,159.760742 77.0571289,158.289062 78.8725586,158.289062 C80.6987305,158.289062 81.8051758,159.728516 81.8051758,162.134766 C81.8051758,164.541016 80.7094727,165.980469 78.8618164,165.980469 Z M87.1153264,168 L89.7793889,168 L89.7793889,161.178711 C89.7793889,159.459961 90.756928,158.310547 92.5079045,158.310547 C94.0547795,158.310547 94.8711858,159.234375 94.8711858,161.049805 L94.8711858,168 L97.5352483,168 L97.5352483,160.426758 C97.5352483,157.633789 96.0098576,156.043945 93.4961858,156.043945 C91.7452092,156.043945 90.4883733,156.838867 89.9297795,158.160156 L89.7364201,158.160156 L89.7364201,151.714844 L87.1153264,151.714844 L87.1153264,168 Z M105.55243,168.236328 C109.065125,168.236328 111.202821,165.9375 111.202821,162.124023 C111.202821,158.332031 109.054383,156.033203 105.55243,156.033203 C102.061219,156.033203 99.9020395,158.342773 99.9020395,162.124023 C99.9020395,165.9375 102.028993,168.236328 105.55243,168.236328 Z M105.55243,166.055664 C103.694032,166.055664 102.630555,164.616211 102.630555,162.134766 C102.630555,159.65332 103.694032,158.213867 105.55243,158.213867 C107.400086,158.213867 108.463563,159.65332 108.463563,162.134766 C108.463563,164.616211 107.410829,166.055664 105.55243,166.055664 Z M113.677034,168 L116.341096,168 L116.341096,161.157227 C116.341096,159.395508 117.34012,158.289062 118.929964,158.289062 C120.552034,158.289062 121.303987,159.202148 121.303987,161.02832 L121.303987,168 L123.96805,168 L123.96805,160.405273 C123.96805,157.612305 122.539339,156.033203 119.918245,156.033203 C118.167268,156.033203 116.985628,156.828125 116.427034,158.138672 L116.244417,158.138672 L116.244417,156.258789 L113.677034,156.258789 L113.677034,168 Z M134.574099,164.788086 C134.18738,165.668945 133.274294,166.163086 131.953005,166.163086 C130.202028,166.163086 129.074099,164.916992 129.009645,162.929688 L129.009645,162.790039 L137.216677,162.790039 L137.216677,161.941406 C137.216677,158.256836 135.207888,156.033203 131.856325,156.033203 C128.451052,156.033203 126.334841,158.407227 126.334841,162.177734 C126.334841,165.9375 128.418825,168.236328 131.877809,168.236328 C134.649294,168.236328 136.615114,166.904297 137.098513,164.788086 L134.574099,164.788086 Z M131.845583,158.106445 C133.446169,158.106445 134.498903,159.234375 134.552614,161.017578 L129.020388,161.017578 C129.138552,159.255859 130.255739,158.106445 131.845583,158.106445 Z" fill="#007AFF" fill-rule="nonzero"></path>
    </g>
</svg>