<?xml version="1.0" encoding="UTF-8"?>
<svg width="190px" height="190px" viewBox="0 0 190 190" version="1.1" xmlns="http://www.w3.org/2000/svg" xmlns:xlink="http://www.w3.org/1999/xlink">
    <!-- Generator: Sketch 59.1 (86144) - https://sketch.com -->
    <title>Microphone</title>
    <desc>Created with Sketch.</desc>
    <g id="Microphone" stroke="none" stroke-width="1" fill="none" fill-rule="evenodd">
        <path d="M110.369155,31.6083408 L137.273452,58.5126377 C145.867202,49.9677158 146.208999,39.1278721 137.957046,30.9247471 C129.753921,22.8192783 118.962905,23.0145908 110.369155,31.6083408 Z M105.486343,36.5399815 C100.310562,41.6181065 98.162124,47.4286533 98.8945459,53.0438877 L53.5332178,101.920841 C51.677749,103.922794 51.3847803,106.705997 53.6797022,109.000919 L47.4297022,117.05756 C46.8437647,117.83881 46.7949365,118.961856 47.6738428,119.840763 L49.0898584,121.305606 C49.9199365,122.135685 51.0429834,122.184513 51.9218897,121.500919 L59.9785303,115.202091 C62.1164104,117.434988 64.8552081,117.21799 66.8006945,115.495574 L92.302749,91.9110752 L92.302749,119.791935 C92.302749,122.282169 94.255874,124.235294 96.7461084,124.235294 C99.2363428,124.235294 101.189468,122.282169 101.189468,119.791935 L101.189468,90.9345127 L100.847671,83.9520908 L115.740249,70.1337315 C121.355483,70.8661533 127.263687,68.5712315 132.341812,63.4442783 L105.486343,36.5399815 Z M58.5625147,105.924747 L101.580093,60.3192783 C102.410171,61.6864658 103.435562,63.0048252 104.656265,64.2743565 C105.876968,65.4950596 107.146499,66.5692783 108.464858,67.4481846 L63.0547022,110.416935 L58.5625147,105.924747 Z" fill="#007AFF" fill-rule="nonzero"></path>
        <path d="M45.4609375,165.398438 L45.4609375,148.488281 L41.921875,148.488281 L36.8359375,161.039062 L36.625,161.039062 L31.5390625,148.488281 L28,148.488281 L28,165.398438 L30.8125,165.398438 L30.8125,153.410156 L30.9765625,153.410156 L35.6523438,164.871094 L37.8085938,164.871094 L42.484375,153.410156 L42.6484375,153.410156 L42.6484375,165.398438 L45.4609375,165.398438 Z M50.5741416,150.445312 C51.5350791,150.445312 52.3202353,149.683594 52.3202353,148.722656 C52.3202353,147.773438 51.5350791,147 50.5741416,147 C49.6249228,147 48.8397666,147.773438 48.8397666,148.722656 C48.8397666,149.683594 49.6249228,150.445312 50.5741416,150.445312 Z M49.1327353,165.398438 L52.0272666,165.398438 L52.0272666,152.589844 L49.1327353,152.589844 L49.1327353,165.398438 Z M66.4685957,156.867188 C66.1639082,154.21875 64.1717207,152.34375 60.8787519,152.34375 C57.0232832,152.34375 54.7615644,154.816406 54.7615644,158.964844 C54.7615644,163.160156 57.0350019,165.65625 60.8904707,165.65625 C64.1365644,165.65625 66.1521894,163.851562 66.4685957,161.203125 L63.7029707,161.203125 C63.3982832,162.550781 62.3904707,163.265625 60.8787519,163.265625 C58.8982832,163.265625 57.7029707,161.683594 57.7029707,158.964844 C57.7029707,156.292969 58.8865644,154.722656 60.8787519,154.722656 C62.4725019,154.722656 63.4334394,155.625 63.7029707,156.867188 L66.4685957,156.867188 Z M69.0153935,165.398438 L71.9216435,165.398438 L71.9216435,157.957031 C71.9216435,156.152344 73.2341435,154.980469 75.1208622,154.980469 C75.6130497,154.980469 76.3864872,155.0625 76.6091435,155.144531 L76.6091435,152.496094 C76.3396122,152.425781 75.8239872,152.378906 75.4021122,152.378906 C73.7497685,152.378906 72.366956,153.316406 72.0153935,154.582031 L71.8161747,154.582031 L71.8161747,152.589844 L69.0153935,152.589844 L69.0153935,165.398438 Z M83.9723476,165.65625 C87.8043788,165.65625 90.1364101,163.148438 90.1364101,158.988281 C90.1364101,154.851562 87.7926601,152.34375 83.9723476,152.34375 C80.1637538,152.34375 77.8082851,154.863281 77.8082851,158.988281 C77.8082851,163.148438 80.1285976,165.65625 83.9723476,165.65625 Z M83.9723476,163.277344 C81.9450038,163.277344 80.7848476,161.707031 80.7848476,159 C80.7848476,156.292969 81.9450038,154.722656 83.9723476,154.722656 C85.9879726,154.722656 87.1481288,156.292969 87.1481288,159 C87.1481288,161.707031 85.9996913,163.277344 83.9723476,163.277344 Z M99.8199266,152.378906 C98.0621141,152.378906 96.5738329,153.257812 95.8355516,154.710938 L95.6363329,154.710938 L95.6363329,152.589844 L92.8355516,152.589844 L92.8355516,169.652344 L95.7418016,169.652344 L95.7418016,163.453125 L95.9410204,163.453125 C96.5972704,164.8125 98.0152391,165.609375 99.8550829,165.609375 C103.089458,165.609375 105.105083,163.066406 105.105083,159 C105.105083,154.898438 103.06602,152.378906 99.8199266,152.378906 Z M98.9058641,163.195312 C96.9253954,163.195312 95.6949266,161.589844 95.6832079,159 C95.6949266,156.410156 96.9371141,154.804688 98.9175829,154.804688 C100.90977,154.804688 102.116802,156.375 102.116802,159 C102.116802,161.625 100.921489,163.195312 98.9058641,163.195312 Z M107.909693,165.398438 L110.815943,165.398438 L110.815943,157.957031 C110.815943,156.082031 111.882349,154.828125 113.792506,154.828125 C115.480006,154.828125 116.370631,155.835938 116.370631,157.816406 L116.370631,165.398438 L119.276881,165.398438 L119.276881,157.136719 C119.276881,154.089844 117.612818,152.355469 114.870631,152.355469 C112.960474,152.355469 111.589381,153.222656 110.980006,154.664062 L110.769068,154.664062 L110.769068,147.632812 L107.909693,147.632812 L107.909693,165.398438 Z M128.022897,165.65625 C131.854929,165.65625 134.18696,163.148438 134.18696,158.988281 C134.18696,154.851562 131.84321,152.34375 128.022897,152.34375 C124.214304,152.34375 121.858835,154.863281 121.858835,158.988281 C121.858835,163.148438 124.179147,165.65625 128.022897,165.65625 Z M128.022897,163.277344 C125.995554,163.277344 124.835397,161.707031 124.835397,159 C124.835397,156.292969 125.995554,154.722656 128.022897,154.722656 C130.038522,154.722656 131.198679,156.292969 131.198679,159 C131.198679,161.707031 130.050241,163.277344 128.022897,163.277344 Z M136.886101,165.398438 L139.792351,165.398438 L139.792351,157.933594 C139.792351,156.011719 140.882195,154.804688 142.61657,154.804688 C144.386101,154.804688 145.206414,155.800781 145.206414,157.792969 L145.206414,165.398438 L148.112664,165.398438 L148.112664,157.113281 C148.112664,154.066406 146.55407,152.34375 143.694695,152.34375 C141.784539,152.34375 140.495476,153.210938 139.886101,154.640625 L139.686883,154.640625 L139.686883,152.589844 L136.886101,152.589844 L136.886101,165.398438 Z M159.682899,161.894531 C159.261024,162.855469 158.26493,163.394531 156.823524,163.394531 C154.913368,163.394531 153.682899,162.035156 153.612587,159.867188 L153.612587,159.714844 L162.565712,159.714844 L162.565712,158.789062 C162.565712,154.769531 160.374305,152.34375 156.718055,152.34375 C153.003212,152.34375 150.694618,154.933594 150.694618,159.046875 C150.694618,163.148438 152.968055,165.65625 156.741493,165.65625 C159.76493,165.65625 161.909462,164.203125 162.436805,161.894531 L159.682899,161.894531 Z M156.706337,154.605469 C158.45243,154.605469 159.600868,155.835938 159.659462,157.78125 L153.624305,157.78125 C153.753212,155.859375 154.971962,154.605469 156.706337,154.605469 Z" fill="#007AFF" fill-rule="nonzero"></path>
    </g>
</svg>