<?xml version="1.0" encoding="UTF-8"?>
<svg width="160px" height="190px" viewBox="0 0 160 190" version="1.1" xmlns="http://www.w3.org/2000/svg" xmlns:xlink="http://www.w3.org/1999/xlink">
    <!-- Generator: Sketch 59.1 (86144) - https://sketch.com -->
    <title>Microphone</title>
    <desc>Created with Sketch.</desc>
    <g id="Microphone" stroke="none" stroke-width="1" fill="none" fill-rule="evenodd">
        <path d="M95.3691553,31.6083408 L122.273452,58.5126377 C130.867202,49.9677158 131.208999,39.1278721 122.957046,30.9247471 C114.753921,22.8192783 103.962905,23.0145908 95.3691553,31.6083408 Z M90.4863428,36.5399815 C85.3105615,41.6181065 83.162124,47.4286533 83.8945459,53.0438877 L38.5332178,101.920841 C36.677749,103.922794 36.3847803,106.705997 38.6797022,109.000919 L32.4297022,117.05756 C31.8437647,117.83881 31.7949365,118.961856 32.6738428,119.840763 L34.0898584,121.305606 C34.9199365,122.135685 36.0429834,122.184513 36.9218897,121.500919 L44.9785303,115.202091 C47.1164104,117.434988 49.8552081,117.21799 51.8006945,115.495574 L77.302749,91.9110752 L77.302749,119.791935 C77.302749,122.282169 79.255874,124.235294 81.7461084,124.235294 C84.2363428,124.235294 86.1894678,122.282169 86.1894678,119.791935 L86.1894678,90.9345127 L85.8476709,83.9520908 L100.740249,70.1337315 C106.355483,70.8661533 112.263687,68.5712315 117.341812,63.4442783 L90.4863428,36.5399815 Z M43.5625147,105.924747 L86.5800928,60.3192783 C87.4101709,61.6864658 88.4355615,63.0048252 89.6562647,64.2743565 C90.8769678,65.4950596 92.146499,66.5692783 93.4648584,67.4481846 L48.0547022,110.416935 L43.5625147,105.924747 Z" fill="#007AFF" fill-rule="nonzero"></path>
        <path d="M38.9733033,165 L38.9733033,150.908203 L36.0240846,150.908203 L31.7858033,161.367188 L31.6100221,161.367188 L27.3717408,150.908203 L24.4225221,150.908203 L24.4225221,165 L26.7662721,165 L26.7662721,155.009766 L26.9029908,155.009766 L30.7994752,164.560547 L32.5963502,164.560547 L36.4928346,155.009766 L36.6295533,155.009766 L36.6295533,165 L38.9733033,165 Z M43.2343067,152.539062 C44.035088,152.539062 44.6893848,151.904297 44.6893848,151.103516 C44.6893848,150.3125 44.035088,149.667969 43.2343067,149.667969 C42.4432911,149.667969 41.7889942,150.3125 41.7889942,151.103516 C41.7889942,151.904297 42.4432911,152.539062 43.2343067,152.539062 Z M42.0331348,165 L44.4452442,165 L44.4452442,154.326172 L42.0331348,154.326172 L42.0331348,165 Z M56.4796851,157.890625 C56.2257789,155.683594 54.5656226,154.121094 51.821482,154.121094 C48.6085914,154.121094 46.7238257,156.181641 46.7238257,159.638672 C46.7238257,163.134766 48.618357,165.214844 51.8312476,165.214844 C54.5363257,165.214844 56.2160132,163.710938 56.4796851,161.503906 L54.1749976,161.503906 C53.9210914,162.626953 53.0812476,163.222656 51.821482,163.222656 C50.1710914,163.222656 49.1749976,161.904297 49.1749976,159.638672 C49.1749976,157.412109 50.1613257,156.103516 51.821482,156.103516 C53.149607,156.103516 53.9503882,156.855469 54.1749976,157.890625 L56.4796851,157.890625 Z M58.6020166,165 L61.0238916,165 L61.0238916,158.798828 C61.0238916,157.294922 62.1176416,156.318359 63.6899073,156.318359 C64.1000635,156.318359 64.7445948,156.386719 64.9301416,156.455078 L64.9301416,154.248047 C64.7055323,154.189453 64.2758448,154.150391 63.9242823,154.150391 C62.5473291,154.150391 61.3949854,154.931641 61.1020166,155.986328 L60.936001,155.986328 L60.936001,154.326172 L58.6020166,154.326172 L58.6020166,165 Z M71.066145,165.214844 C74.2595044,165.214844 76.2028638,163.125 76.2028638,159.658203 C76.2028638,156.210938 74.2497388,154.121094 71.066145,154.121094 C67.8923169,154.121094 65.9294263,156.220703 65.9294263,159.658203 C65.9294263,163.125 67.86302,165.214844 71.066145,165.214844 Z M71.066145,163.232422 C69.3766919,163.232422 68.409895,161.923828 68.409895,159.667969 C68.409895,157.412109 69.3766919,156.103516 71.066145,156.103516 C72.7458325,156.103516 73.7126294,157.412109 73.7126294,159.667969 C73.7126294,161.923828 72.7555982,163.232422 71.066145,163.232422 Z M84.2724609,154.150391 C82.8076172,154.150391 81.5673828,154.882812 80.9521484,156.09375 L80.7861328,156.09375 L80.7861328,154.326172 L78.4521484,154.326172 L78.4521484,168.544922 L80.8740234,168.544922 L80.8740234,163.378906 L81.0400391,163.378906 C81.5869141,164.511719 82.7685547,165.175781 84.3017578,165.175781 C86.9970703,165.175781 88.6767578,163.056641 88.6767578,159.667969 C88.6767578,156.25 86.9775391,154.150391 84.2724609,154.150391 Z M83.5107422,163.164062 C81.8603516,163.164062 80.8349609,161.826172 80.8251953,159.667969 C80.8349609,157.509766 81.8701172,156.171875 83.5205078,156.171875 C85.1806641,156.171875 86.1865234,157.480469 86.1865234,159.667969 C86.1865234,161.855469 85.1904297,163.164062 83.5107422,163.164062 Z M91.0139331,165 L93.4358081,165 L93.4358081,158.798828 C93.4358081,157.236328 94.32448,156.191406 95.9162768,156.191406 C97.3225268,156.191406 98.0647143,157.03125 98.0647143,158.681641 L98.0647143,165 L100.486589,165 L100.486589,158.115234 C100.486589,155.576172 99.0998706,154.130859 96.8147143,154.130859 C95.2229175,154.130859 94.0803393,154.853516 93.5725268,156.054688 L93.3967456,156.054688 L93.3967456,150.195312 L91.0139331,150.195312 L91.0139331,165 Z M107.774936,165.214844 C110.968296,165.214844 112.911655,163.125 112.911655,159.658203 C112.911655,156.210938 110.95853,154.121094 107.774936,154.121094 C104.601108,154.121094 102.638218,156.220703 102.638218,159.658203 C102.638218,163.125 104.571811,165.214844 107.774936,165.214844 Z M107.774936,163.232422 C106.085483,163.232422 105.118686,161.923828 105.118686,159.667969 C105.118686,157.412109 106.085483,156.103516 107.774936,156.103516 C109.454624,156.103516 110.421421,157.412109 110.421421,159.667969 C110.421421,161.923828 109.46439,163.232422 107.774936,163.232422 Z M115.16094,165 L117.582815,165 L117.582815,158.779297 C117.582815,157.177734 118.491018,156.171875 119.936331,156.171875 C121.41094,156.171875 122.094534,157.001953 122.094534,158.662109 L122.094534,165 L124.516409,165 L124.516409,158.095703 C124.516409,155.556641 123.217581,154.121094 120.834768,154.121094 C119.242971,154.121094 118.168752,154.84375 117.66094,156.035156 L117.494924,156.035156 L117.494924,154.326172 L115.16094,154.326172 L115.16094,165 Z M134.158271,162.080078 C133.806709,162.880859 132.976631,163.330078 131.775459,163.330078 C130.183662,163.330078 129.158271,162.197266 129.099678,160.390625 L129.099678,160.263672 L136.560615,160.263672 L136.560615,159.492188 C136.560615,156.142578 134.734443,154.121094 131.687568,154.121094 C128.591865,154.121094 126.668037,156.279297 126.668037,159.707031 C126.668037,163.125 128.562568,165.214844 131.7071,165.214844 C134.226631,165.214844 136.01374,164.003906 136.453193,162.080078 L134.158271,162.080078 Z M131.677803,156.005859 C133.132881,156.005859 134.089912,157.03125 134.13874,158.652344 L129.109443,158.652344 C129.216865,157.050781 130.23249,156.005859 131.677803,156.005859 Z" fill="#007AFF" fill-rule="nonzero"></path>
    </g>
</svg>