<?xml version="1.0" encoding="UTF-8"?>
<svg width="220px" height="210px" viewBox="0 0 220 210" version="1.1" xmlns="http://www.w3.org/2000/svg" xmlns:xlink="http://www.w3.org/1999/xlink">
    <!-- Generator: Sketch 59.1 (86144) - https://sketch.com -->
    <title>Microphone</title>
    <desc>Created with Sketch.</desc>
    <g id="Microphone" stroke="none" stroke-width="1" fill="none" fill-rule="evenodd">
        <path d="M125.369155,31.6083408 L152.273452,58.5126377 C160.867202,49.9677158 161.208999,39.1278721 152.957046,30.9247471 C144.753921,22.8192783 133.962905,23.0145908 125.369155,31.6083408 Z M120.486343,36.5399815 C115.310562,41.6181065 113.162124,47.4286533 113.894546,53.0438877 L68.5332178,101.920841 C66.677749,103.922794 66.3847803,106.705997 68.6797022,109.000919 L62.4297022,117.05756 C61.8437647,117.83881 61.7949365,118.961856 62.6738428,119.840763 L64.0898584,121.305606 C64.9199365,122.135685 66.0429834,122.184513 66.9218897,121.500919 L74.9785303,115.202091 C77.1164104,117.434988 79.8552081,117.21799 81.8006945,115.495574 L107.302749,91.9110752 L107.302749,119.791935 C107.302749,122.282169 109.255874,124.235294 111.746108,124.235294 C114.236343,124.235294 116.189468,122.282169 116.189468,119.791935 L116.189468,90.9345127 L115.847671,83.9520908 L130.740249,70.1337315 C136.355483,70.8661533 142.263687,68.5712315 147.341812,63.4442783 L120.486343,36.5399815 Z M73.5625147,105.924747 L116.580093,60.3192783 C117.410171,61.6864658 118.435562,63.0048252 119.656265,64.2743565 C120.876968,65.4950596 122.146499,66.5692783 123.464858,67.4481846 L78.0547022,110.416935 L73.5625147,105.924747 Z" fill="#007AFF" fill-rule="nonzero"></path>
        <path d="M50.265625,178.28125 L50.265625,155.734375 L45.609375,155.734375 L38.703125,172.9375 L38.578125,172.9375 L31.671875,155.734375 L27,155.734375 L27,178.28125 L30.640625,178.28125 L30.640625,162.28125 L30.75,162.28125 L37.265625,178.28125 L40.015625,178.28125 L46.53125,162.28125 L46.640625,162.28125 L46.640625,178.28125 L50.265625,178.28125 Z M55.890625,159.21875 C57.078125,159.21875 58.015625,158.265625 58.015625,157.109375 C58.015625,155.9375 57.078125,155 55.890625,155 C54.703125,155 53.75,155.9375 53.75,157.109375 C53.75,158.265625 54.703125,159.21875 55.890625,159.21875 Z M53.953125,178.28125 L57.84375,178.28125 L57.84375,161.71875 L53.953125,161.71875 L53.953125,178.28125 Z M75.703125,167.625 C75.4375,164.140625 72.734375,161.375 68.359375,161.375 C63.546875,161.375 60.421875,164.703125 60.421875,170 C60.421875,175.375 63.546875,178.609375 68.390625,178.609375 C72.546875,178.609375 75.40625,176.171875 75.71875,172.46875 L72.046875,172.46875 C71.6875,174.34375 70.40625,175.46875 68.4375,175.46875 C65.96875,175.46875 64.375,173.46875 64.375,170 C64.375,166.59375 65.953125,164.53125 68.40625,164.53125 C70.484375,164.53125 71.71875,165.859375 72.03125,167.625 L75.703125,167.625 Z M78.03125,178.28125 L81.921875,178.28125 L81.921875,168.640625 C81.921875,166.3125 83.25,164.890625 85.453125,164.890625 C86.109375,164.890625 86.703125,164.984375 87.03125,165.109375 L87.03125,161.59375 L86.7540999,161.535441 C86.494898,161.485332 86.1696429,161.4375 85.8125,161.4375 C83.859375,161.4375 82.40625,162.59375 81.84375,164.609375 L81.765625,164.609375 L81.765625,161.71875 L78.03125,161.71875 L78.03125,178.28125 Z M96.359375,178.609375 C101.21875,178.609375 104.375,175.375 104.375,170 C104.375,164.640625 101.1875,161.375 96.359375,161.375 C91.53125,161.375 88.34375,164.65625 88.34375,170 C88.34375,175.375 91.5,178.609375 96.359375,178.609375 Z M96.359375,175.53125 C93.890625,175.53125 92.296875,173.53125 92.296875,170 C92.296875,166.484375 93.90625,164.46875 96.359375,164.46875 C98.828125,164.46875 100.421875,166.484375 100.421875,170 C100.421875,173.53125 98.828125,175.53125 96.359375,175.53125 Z M115.96875,161.4375 C113.5625,161.4375 111.6875,162.65625 110.75,164.578125 L110.671875,164.578125 L110.671875,161.71875 L106.875,161.71875 L106.875,183.734375 L110.765625,183.734375 L110.765625,175.53125 L110.84375,175.53125 C111.75,177.390625 113.625,178.546875 116.03125,178.546875 C120.1875,178.546875 122.84375,175.28125 122.84375,170 C122.84375,164.703125 120.171875,161.4375 115.96875,161.4375 Z M114.78125,175.359375 C112.359375,175.359375 110.75,173.25 110.734375,170 C110.75,166.78125 112.359375,164.640625 114.78125,164.640625 C117.296875,164.640625 118.859375,166.734375 118.859375,170 C118.859375,173.28125 117.296875,175.359375 114.78125,175.359375 Z M125.453125,178.28125 L129.34375,178.28125 L129.34375,168.765625 C129.34375,166.328125 130.765625,164.703125 133.109375,164.703125 C135.359375,164.703125 136.515625,166.09375 136.515625,168.40625 L136.515625,178.28125 L140.40625,178.28125 L140.40625,167.609375 C140.40625,163.8125 138.265625,161.40625 134.609375,161.40625 C132.09375,161.40625 130.265625,162.546875 129.375,164.5625 L129.296875,164.5625 L129.296875,155.734375 L125.453125,155.734375 L125.453125,178.28125 Z M150.84375,178.609375 C155.703125,178.609375 158.859375,175.375 158.859375,170 C158.859375,164.640625 155.671875,161.375 150.84375,161.375 C146.015625,161.375 142.828125,164.65625 142.828125,170 C142.828125,175.375 145.984375,178.609375 150.84375,178.609375 Z M150.84375,175.53125 C148.375,175.53125 146.78125,173.53125 146.78125,170 C146.78125,166.484375 148.390625,164.46875 150.84375,164.46875 C153.3125,164.46875 154.90625,166.484375 154.90625,170 C154.90625,173.53125 153.3125,175.53125 150.84375,175.53125 Z M161.359375,178.28125 L165.25,178.28125 L165.25,168.6875 C165.25,166.3125 166.671875,164.703125 168.90625,164.703125 C171.125,164.703125 172.21875,166.015625 172.21875,168.359375 L172.21875,178.28125 L176.109375,178.28125 L176.109375,167.578125 C176.109375,163.75 174.03125,161.40625 170.375,161.40625 C167.828125,161.40625 166.0625,162.59375 165.171875,164.5625 L165.09375,164.5625 L165.09375,161.71875 L161.359375,161.71875 L161.359375,178.28125 Z M190.1875,173.328125 C189.765625,174.703125 188.390625,175.609375 186.578125,175.609375 C184.03125,175.609375 182.40625,173.828125 182.40625,171.171875 L182.40625,170.9375 L193.984375,170.9375 L193.984375,169.671875 C193.984375,164.640625 191.046875,161.375 186.34375,161.375 C181.5625,161.375 178.53125,164.828125 178.53125,170.0625 C178.53125,175.34375 181.53125,178.609375 186.5,178.609375 C190.421875,178.609375 193.328125,176.453125 193.828125,173.328125 L190.1875,173.328125 Z M186.359375,164.390625 C188.59375,164.390625 190.09375,166.03125 190.171875,168.375 L182.4375,168.375 C182.59375,166.0625 184.171875,164.390625 186.359375,164.390625 Z" fill="#007AFF" fill-rule="nonzero"></path>
    </g>
</svg>