<?xml version="1.0" encoding="UTF-8"?>
<svg width="220px" height="210px" viewBox="0 0 220 210" version="1.1" xmlns="http://www.w3.org/2000/svg" xmlns:xlink="http://www.w3.org/1999/xlink">
    <!-- Generator: Sketch 59.1 (86144) - https://sketch.com -->
    <title>Motion</title>
    <desc>Created with Sketch.</desc>
    <g id="Motion" stroke="none" stroke-width="1" fill="none" fill-rule="evenodd">
        <path d="M113.124166,118.166889 C116.161549,118.166889 118.851802,116.73498 124.536048,116.73498 C130.263685,116.73498 131.825768,118.166889 136.078104,118.166889 C142.5,118.166889 145.884513,115.476636 145.884513,111.007343 C145.884513,103.370494 137.596796,98.2503338 124.492657,98.2503338 C118.070761,98.2503338 115.206943,98.8578104 111.562083,99.7690254 L106.875834,89.0947931 C102.276368,78.8544726 94.8564753,72.1722296 84.3558077,72.1722296 L79.2356475,72.1722296 C77.5433912,72.1722296 76.4152203,71.4345794 76.4152203,69.7857143 C76.4152203,67.0954606 80.0166889,66.4445928 83.965287,66.4445928 C96.5407137,66.4445928 105.847257,73.2795303 111.590976,87.0333885 L114.773031,94.7356475 C117.68024,94.1281709 120.847797,93.8244326 124.058745,93.8244326 C126.618825,93.8244326 128.961949,93.9979973 131.435247,94.3451268 L132.077692,93.8749469 C134.570035,92.0670547 137.426702,90.2004005 141.458611,88.4439252 C146.318425,91.7416555 151.872497,93.8678238 157.643525,93.8678238 L158.354178,93.8646507 C169.832561,93.7601963 175,91.0378505 175,79.9392523 C175,66.271028 165.106809,56.0307076 151.959279,56.0740988 L140.330441,40.5834446 C133.778371,32.0787717 126.011348,28 118.287717,28 C111.952603,28 102.536716,31.6448598 102.536716,36.76502 C102.536716,40.1774796 109.329824,44.9317876 114.712854,48.2660674 L139.983311,63.7109479 C138.030708,65.576769 136.29506,66.5747664 134.125501,66.5747664 C130.784379,66.5747664 127.269693,64.5353805 122.019359,61.4979973 L120.241807,60.4639731 C107.722924,53.1399691 97.7060459,46.5280374 84.4425901,46.5280374 C69.9933244,46.5280374 59.0153538,54.8157543 53.1575434,70.9572764 C48.5146862,70.9572764 45,73.9946595 45,78.4639519 C45,83.4973298 48.9919893,86.6648865 54.459279,86.6648865 C60.7943925,95.5166889 71.1648865,99.0747664 83.4445928,99.0747664 C84.0954606,99.0747664 84.7463284,99.0313752 85.3971963,99.0313752 L102.970628,113.610814 C107.309746,117.559413 109.826435,118.166889 113.124166,118.166889 Z M156.645527,77.8564753 C154.692924,77.8564753 153.130841,76.2076101 153.130841,74.2983979 C153.130841,72.3457944 154.736315,70.6101469 156.688919,70.6101469 C158.684913,70.6101469 160.246996,72.1722296 160.246996,74.1248331 C160.246996,76.0774366 158.641522,77.8564753 156.645527,77.8564753 Z M81.7523364,121.594793 C72.5534045,121.594793 66.6522029,117.732977 66.6522029,111.918558 C66.6522029,108.013351 69.6461949,105.40988 74.506008,105.40988 C78.3244326,105.40988 81.5353805,106.060748 83.7049399,106.060748 C84.6161549,106.060748 85.3538051,105.973965 85.9612817,105.930574 L99.4125501,117.125501 C95.246996,119.989319 90.1268358,121.594793 81.7523364,121.594793 Z" fill="#007AFF" fill-rule="nonzero"></path>
        <path d="M85.265625,178.28125 L85.265625,155.734375 L80.609375,155.734375 L73.703125,172.9375 L73.578125,172.9375 L66.671875,155.734375 L62,155.734375 L62,178.28125 L65.640625,178.28125 L65.640625,162.28125 L65.75,162.28125 L72.265625,178.28125 L75.015625,178.28125 L81.53125,162.28125 L81.640625,162.28125 L81.640625,178.28125 L85.265625,178.28125 Z M96.1875,178.609375 C101.046875,178.609375 104.203125,175.375 104.203125,170 C104.203125,164.640625 101.015625,161.375 96.1875,161.375 C91.359375,161.375 88.171875,164.65625 88.171875,170 C88.171875,175.375 91.328125,178.609375 96.1875,178.609375 Z M96.1875,175.53125 C93.71875,175.53125 92.125,173.53125 92.125,170 C92.125,166.484375 93.734375,164.46875 96.1875,164.46875 C98.65625,164.46875 100.25,166.484375 100.25,170 C100.25,173.53125 98.65625,175.53125 96.1875,175.53125 Z M107.78125,157.84375 L107.78125,161.71875 L105.40625,161.71875 L105.40625,164.71875 L107.78125,164.71875 L107.78125,173.875 C107.78125,177.09375 109.1875,178.359375 112.765625,178.359375 C113.59375,178.359375 114.359375,178.296875 114.78125,178.203125 L114.78125,175.234375 C114.53125,175.28125 114.03125,175.3125 113.671875,175.3125 C112.296875,175.3125 111.671875,174.6875 111.671875,173.328125 L111.671875,164.71875 L114.796875,164.71875 L114.796875,161.71875 L111.671875,161.71875 L111.671875,157.84375 L107.78125,157.84375 Z M119.46875,159.21875 C120.65625,159.21875 121.59375,158.265625 121.59375,157.109375 C121.59375,155.9375 120.65625,155 119.46875,155 C118.28125,155 117.328125,155.9375 117.328125,157.109375 C117.328125,158.265625 118.28125,159.21875 119.46875,159.21875 Z M117.53125,178.28125 L121.421875,178.28125 L121.421875,161.71875 L117.53125,161.71875 L117.53125,178.28125 Z M132.015625,178.609375 C136.875,178.609375 140.03125,175.375 140.03125,170 C140.03125,164.640625 136.84375,161.375 132.015625,161.375 C127.1875,161.375 124,164.65625 124,170 C124,175.375 127.15625,178.609375 132.015625,178.609375 Z M132.015625,175.53125 C129.546875,175.53125 127.953125,173.53125 127.953125,170 C127.953125,166.484375 129.5625,164.46875 132.015625,164.46875 C134.484375,164.46875 136.078125,166.484375 136.078125,170 C136.078125,173.53125 134.484375,175.53125 132.015625,175.53125 Z M142.53125,178.28125 L142.53125,161.71875 L146.265625,161.71875 L146.265625,164.5625 L146.34375,164.5625 C147.234375,162.59375 149,161.40625 151.546875,161.40625 C155.203125,161.40625 157.28125,163.75 157.28125,167.578125 L157.28125,178.28125 L153.390625,178.28125 L153.390625,168.359375 C153.390625,166.015625 152.296875,164.703125 150.078125,164.703125 C147.84375,164.703125 146.421875,166.3125 146.421875,168.6875 L146.421875,178.28125 L142.53125,178.28125 Z" fill="#007AFF" fill-rule="nonzero"></path>
    </g>
</svg>