<?xml version="1.0" encoding="UTF-8"?>
<svg width="190px" height="190px" viewBox="0 0 190 190" version="1.1" xmlns="http://www.w3.org/2000/svg" xmlns:xlink="http://www.w3.org/1999/xlink">
    <!-- Generator: Sketch 59.1 (86144) - https://sketch.com -->
    <title>Motion</title>
    <desc>Created with Sketch.</desc>
    <g id="Motion" stroke="none" stroke-width="1" fill="none" fill-rule="evenodd">
        <path d="M98.1241656,118.166889 C101.161549,118.166889 103.851802,116.73498 109.536048,116.73498 C115.263685,116.73498 116.825768,118.166889 121.078104,118.166889 C127.5,118.166889 130.884513,115.476636 130.884513,111.007343 C130.884513,103.370494 122.596796,98.2503338 109.492657,98.2503338 C103.070761,98.2503338 100.206943,98.8578104 96.5620828,99.7690254 L91.8758344,89.0947931 C87.2763685,78.8544726 79.8564753,72.1722296 69.3558077,72.1722296 L64.2356475,72.1722296 C62.5433912,72.1722296 61.4152203,71.4345794 61.4152203,69.7857143 C61.4152203,67.0954606 65.0166889,66.4445928 68.965287,66.4445928 C81.5407137,66.4445928 90.8472572,73.2795303 96.5909764,87.0333885 L99.7730307,94.7356475 C102.68024,94.1281709 105.847797,93.8244326 109.058745,93.8244326 C111.618825,93.8244326 113.961949,93.9979973 116.435247,94.3451268 L117.077692,93.8749469 C119.570035,92.0670547 122.426702,90.2004005 126.458611,88.4439252 C131.318425,91.7416555 136.872497,93.8678238 142.643525,93.8678238 L143.354178,93.8646507 C154.832561,93.7601963 160,91.0378505 160,79.9392523 C160,66.271028 150.106809,56.0307076 136.959279,56.0740988 L125.330441,40.5834446 C118.778371,32.0787717 111.011348,28 103.287717,28 C96.9526035,28 87.5367156,31.6448598 87.5367156,36.76502 C87.5367156,40.1774796 94.3298237,44.9317876 99.7128536,48.2660674 L124.983311,63.7109479 C123.030708,65.576769 121.29506,66.5747664 119.125501,66.5747664 C115.784379,66.5747664 112.269693,64.5353805 107.019359,61.4979973 L105.241807,60.4639731 C92.7229244,53.1399691 82.7060459,46.5280374 69.4425901,46.5280374 C54.9933244,46.5280374 44.0153538,54.8157543 38.1575434,70.9572764 C33.5146862,70.9572764 30,73.9946595 30,78.4639519 C30,83.4973298 33.9919893,86.6648865 39.459279,86.6648865 C45.7943925,95.5166889 56.1648865,99.0747664 68.4445928,99.0747664 C69.0954606,99.0747664 69.7463284,99.0313752 70.3971963,99.0313752 L87.9706275,113.610814 C92.3097463,117.559413 94.8264352,118.166889 98.1241656,118.166889 Z M141.645527,77.8564753 C139.692924,77.8564753 138.130841,76.2076101 138.130841,74.2983979 C138.130841,72.3457944 139.736315,70.6101469 141.688919,70.6101469 C143.684913,70.6101469 145.246996,72.1722296 145.246996,74.1248331 C145.246996,76.0774366 143.641522,77.8564753 141.645527,77.8564753 Z M66.7523364,121.594793 C57.5534045,121.594793 51.6522029,117.732977 51.6522029,111.918558 C51.6522029,108.013351 54.6461949,105.40988 59.506008,105.40988 C63.3244326,105.40988 66.5353805,106.060748 68.7049399,106.060748 C69.6161549,106.060748 70.3538051,105.973965 70.9612817,105.930574 L84.4125501,117.125501 C80.246996,119.989319 75.1268358,121.594793 66.7523364,121.594793 Z" fill="#007AFF" fill-rule="nonzero"></path>
        <path d="M75.3857422,165 L75.3857422,146.680664 L71.6025391,146.680664 L65.9912109,160.658203 L65.8896484,160.658203 L60.2783203,146.680664 L56.4824219,146.680664 L56.4824219,165 L59.4404297,165 L59.4404297,152 L59.5292969,152 L64.8232422,165 L67.0576172,165 L72.3515625,152 L72.4404297,152 L72.4404297,165 L75.3857422,165 Z M84.2597656,165.266602 C88.2080078,165.266602 90.7724609,162.638672 90.7724609,158.271484 C90.7724609,153.916992 88.1826172,151.263672 84.2597656,151.263672 C80.3369141,151.263672 77.7470703,153.929688 77.7470703,158.271484 C77.7470703,162.638672 80.3115234,165.266602 84.2597656,165.266602 Z M84.2597656,162.765625 C82.2539062,162.765625 80.9589844,161.140625 80.9589844,158.271484 C80.9589844,155.415039 82.2666016,153.777344 84.2597656,153.777344 C86.265625,153.777344 87.5605469,155.415039 87.5605469,158.271484 C87.5605469,161.140625 86.265625,162.765625 84.2597656,162.765625 Z M93.6796875,148.394531 L93.6796875,151.542969 L91.75,151.542969 L91.75,153.980469 L93.6796875,153.980469 L93.6796875,161.419922 C93.6796875,164.035156 94.8222656,165.063477 97.7294922,165.063477 C98.4023438,165.063477 99.0244141,165.012695 99.3671875,164.936523 L99.3671875,162.524414 C99.1640625,162.5625 98.7578125,162.587891 98.4658203,162.587891 C97.3486328,162.587891 96.8408203,162.080078 96.8408203,160.975586 L96.8408203,153.980469 L99.3798828,153.980469 L99.3798828,151.542969 L96.8408203,151.542969 L96.8408203,148.394531 L93.6796875,148.394531 Z M103.175781,149.511719 C104.140625,149.511719 104.902344,148.737305 104.902344,147.797852 C104.902344,146.845703 104.140625,146.083984 103.175781,146.083984 C102.210938,146.083984 101.436523,146.845703 101.436523,147.797852 C101.436523,148.737305 102.210938,149.511719 103.175781,149.511719 Z M101.601562,165 L104.762695,165 L104.762695,151.542969 L101.601562,151.542969 L101.601562,165 Z M113.370117,165.266602 C117.318359,165.266602 119.882812,162.638672 119.882812,158.271484 C119.882812,153.916992 117.292969,151.263672 113.370117,151.263672 C109.447266,151.263672 106.857422,153.929688 106.857422,158.271484 C106.857422,162.638672 109.421875,165.266602 113.370117,165.266602 Z M113.370117,162.765625 C111.364258,162.765625 110.069336,161.140625 110.069336,158.271484 C110.069336,155.415039 111.376953,153.777344 113.370117,153.777344 C115.375977,153.777344 116.670898,155.415039 116.670898,158.271484 C116.670898,161.140625 115.375977,162.765625 113.370117,162.765625 Z M121.914062,165 L121.914062,151.542969 L124.948242,151.542969 L124.948242,153.853516 L125.011719,153.853516 C125.735352,152.253906 127.169922,151.289062 129.239258,151.289062 C132.209961,151.289062 133.898438,153.193359 133.898438,156.303711 L133.898438,165 L130.737305,165 L130.737305,156.938477 C130.737305,155.03418 129.848633,153.967773 128.045898,153.967773 C126.230469,153.967773 125.075195,155.275391 125.075195,157.205078 L125.075195,165 L121.914062,165 Z" fill="#007AFF" fill-rule="nonzero"></path>
    </g>
</svg>