<?xml version="1.0" encoding="UTF-8"?>
<svg width="160px" height="190px" viewBox="0 0 160 190" version="1.1" xmlns="http://www.w3.org/2000/svg" xmlns:xlink="http://www.w3.org/1999/xlink">
    <!-- Generator: Sketch 59.1 (86144) - https://sketch.com -->
    <title>Motion</title>
    <desc>Created with Sketch.</desc>
    <g id="Motion" stroke="none" stroke-width="1" fill="none" fill-rule="evenodd">
        <path d="M83.1241656,118.166889 C86.1615487,118.166889 88.8518024,116.73498 94.5360481,116.73498 C100.263685,116.73498 101.825768,118.166889 106.078104,118.166889 C112.5,118.166889 115.884513,115.476636 115.884513,111.007343 C115.884513,103.370494 107.596796,98.2503338 94.4926569,98.2503338 C88.070761,98.2503338 85.2069426,98.8578104 81.5620828,99.7690254 L76.8758344,89.0947931 C72.2763685,78.8544726 64.8564753,72.1722296 54.3558077,72.1722296 L49.2356475,72.1722296 C47.5433912,72.1722296 46.4152203,71.4345794 46.4152203,69.7857143 C46.4152203,67.0954606 50.0166889,66.4445928 53.965287,66.4445928 C66.5407137,66.4445928 75.8472572,73.2795303 81.5909764,87.0333885 L84.7730307,94.7356475 C87.6802403,94.1281709 90.8477971,93.8244326 94.058745,93.8244326 C96.6188251,93.8244326 98.9619493,93.9979973 101.435247,94.3451268 L102.077692,93.8749469 C104.570035,92.0670547 107.426702,90.2004005 111.458611,88.4439252 C116.318425,91.7416555 121.872497,93.8678238 127.643525,93.8678238 L128.354178,93.8646507 C139.832561,93.7601963 145,91.0378505 145,79.9392523 C145,66.271028 135.106809,56.0307076 121.959279,56.0740988 L110.330441,40.5834446 C103.778371,32.0787717 96.0113485,28 88.287717,28 C81.9526035,28 72.5367156,31.6448598 72.5367156,36.76502 C72.5367156,40.1774796 79.3298237,44.9317876 84.7128536,48.2660674 L109.983311,63.7109479 C108.030708,65.576769 106.29506,66.5747664 104.125501,66.5747664 C100.784379,66.5747664 97.2696929,64.5353805 92.0193591,61.4979973 L90.2418066,60.4639731 C77.7229244,53.1399691 67.7060459,46.5280374 54.4425901,46.5280374 C39.9933244,46.5280374 29.0153538,54.8157543 23.1575434,70.9572764 C18.5146862,70.9572764 15,73.9946595 15,78.4639519 C15,83.4973298 18.9919893,86.6648865 24.459279,86.6648865 C30.7943925,95.5166889 41.1648865,99.0747664 53.4445928,99.0747664 C54.0954606,99.0747664 54.7463284,99.0313752 55.3971963,99.0313752 L72.9706275,113.610814 C77.3097463,117.559413 79.8264352,118.166889 83.1241656,118.166889 Z M126.645527,77.8564753 C124.692924,77.8564753 123.130841,76.2076101 123.130841,74.2983979 C123.130841,72.3457944 124.736315,70.6101469 126.688919,70.6101469 C128.684913,70.6101469 130.246996,72.1722296 130.246996,74.1248331 C130.246996,76.0774366 128.641522,77.8564753 126.645527,77.8564753 Z M51.7523364,121.594793 C42.5534045,121.594793 36.6522029,117.732977 36.6522029,111.918558 C36.6522029,108.013351 39.6461949,105.40988 44.506008,105.40988 C48.3244326,105.40988 51.5353805,106.060748 53.7049399,106.060748 C54.6161549,106.060748 55.3538051,105.973965 55.9612817,105.930574 L69.4125501,117.125501 C65.246996,119.989319 60.1268358,121.594793 51.7523364,121.594793 Z" fill="#007AFF" fill-rule="nonzero"></path>
        <path d="M66.40625,168.117188 L66.40625,156.84375 L64.359375,156.84375 L60.765625,165.664062 L60.6328125,165.664062 L57.046875,156.84375 L55,156.84375 L55,168.117188 L56.625,168.117188 L56.625,159.859375 L56.734375,159.859375 L60.0390625,167.914062 L61.3671875,167.914062 L64.671875,159.859375 L64.78125,159.859375 L64.78125,168.117188 L66.40625,168.117188 Z M72.4791152,168.28125 C74.9634902,168.28125 76.4869277,166.617188 76.4869277,163.875 C76.4869277,161.132812 74.9556777,159.46875 72.4791152,159.46875 C69.9947402,159.46875 68.4634902,161.140625 68.4634902,163.875 C68.4634902,166.617188 69.9869277,168.28125 72.4791152,168.28125 Z M72.4791152,166.851562 C71.0181777,166.851562 70.1978652,165.765625 70.1978652,163.875 C70.1978652,161.984375 71.0181777,160.890625 72.4791152,160.890625 C73.9322402,160.890625 74.7603652,161.984375 74.7603652,163.875 C74.7603652,165.757812 73.9322402,166.851562 72.4791152,166.851562 Z M78.9426054,157.492188 L78.9426054,159.65625 L77.5910429,159.65625 L77.5910429,161 L78.9426054,161 L78.9426054,165.882812 C78.9426054,167.515625 79.6847929,168.171875 81.5519804,168.171875 C81.8801054,168.171875 82.1926054,168.132812 82.4660429,168.085938 L82.4660429,166.75 L82.1545195,166.77832 C82.0558867,166.785156 81.9543242,166.789062 81.8254179,166.789062 C80.9894804,166.789062 80.6222929,166.390625 80.6222929,165.476562 L80.6222929,161 L82.4660429,161 L82.4660429,159.65625 L80.6222929,159.65625 L80.6222929,157.492188 L78.9426054,157.492188 Z M85.1560957,158.117188 C85.7420332,158.117188 86.2185957,157.640625 86.2185957,157.0625 C86.2185957,156.476562 85.7420332,156 85.1560957,156 C84.5701582,156 84.0935957,156.476562 84.0935957,157.0625 C84.0935957,157.640625 84.5701582,158.117188 85.1560957,158.117188 Z M84.3201582,168.117188 L85.9920332,168.117188 L85.9920332,159.632812 L84.3201582,159.632812 L84.3201582,168.117188 Z M91.9008359,168.28125 C94.3852109,168.28125 95.9086484,166.617188 95.9086484,163.875 C95.9086484,161.132812 94.3773984,159.46875 91.9008359,159.46875 C89.4164609,159.46875 87.8852109,161.140625 87.8852109,163.875 C87.8852109,166.617188 89.4086484,168.28125 91.9008359,168.28125 Z M91.9008359,166.851562 C90.4398984,166.851562 89.6195859,165.765625 89.6195859,163.875 C89.6195859,161.984375 90.4398984,160.890625 91.9008359,160.890625 C93.3539609,160.890625 94.1820859,161.984375 94.1820859,163.875 C94.1820859,165.757812 93.3539609,166.851562 91.9008359,166.851562 Z M97.7705761,168.117188 L97.7705761,159.632812 L99.3877636,159.632812 L99.3877636,160.976562 L99.5127636,160.976562 C99.9268261,160.039062 100.770576,159.46875 102.051826,159.46875 C103.950264,159.46875 104.997139,160.601562 104.997139,162.625 L104.997139,168.117188 L103.317451,168.117188 L103.317451,163.023438 C103.317451,161.617188 102.723701,160.929688 101.481514,160.929688 C100.239326,160.929688 99.4502636,161.773438 99.4502636,163.140625 L99.4502636,168.117188 L97.7705761,168.117188 Z" fill="#007AFF" fill-rule="nonzero"></path>
    </g>
</svg>