<?xml version="1.0" encoding="UTF-8"?>
<svg width="200px" height="200px" viewBox="0 0 200 200" version="1.1" xmlns="http://www.w3.org/2000/svg" xmlns:xlink="http://www.w3.org/1999/xlink">
    <title>motion</title>
    <defs>
        <path d="M142.505593,199.776349 C162.751678,199.776349 177.181208,197.540464 187.583893,187.255391 C197.87472,176.858525 200,162.660653 200,142.314097 L200,57.4622515 C200,37.1156955 197.87472,22.8060298 187.583893,12.5209575 C177.069351,2.23588527 162.751678,0 142.505593,0 L56.8232662,0 C37.4720358,0 22.9306488,2.23588527 12.5279642,12.6327518 C2.23713647,22.917824 0,37.2274898 0,56.7914859 L0,142.314097 C0,162.660653 2.12527964,176.970319 12.5279642,187.255391 C22.9306488,197.540464 37.2483221,199.776349 57.606264,199.776349 L142.505593,199.776349 Z" id="path-1"></path>
    </defs>
    <g id="motion" stroke="none" stroke-width="1" fill="none" fill-rule="evenodd">
        <g id="GitHub-Preview-Mask">
            <mask id="mask-2" fill="white">
                <use xlink:href="#path-1"></use>
            </mask>
            <use id="Mask" fill="#FFFFFF" fill-rule="nonzero" xlink:href="#path-1"></use>
        </g>
        <g id="Icon">
            <rect id="Rectangle" fill="#FFFFFF" x="0" y="0" width="200" height="200"></rect>
            <rect id="Background" fill="#34C759" x="0" y="0" width="200" height="200"></rect>
            <g id="Paths" transform="translate(23.000000, 34.000000)" fill="#FFFFFF">
                <path d="M88.2754845,33.5578 C107.405806,22.2546288 126.514574,26.6873597 139.329519,44.5489445 C144.77685,52.1448472 132.181366,59.3448659 126.796738,51.8367208 C120.175683,42.6085278 111.755834,39.9387484 102.548276,42.8620496 C107.262765,51.0059494 111.76759,59.2785602 116.084307,67.6350283 C116.599648,68.6354643 116.958231,69.6261494 117.201205,70.6031834 C117.480038,71.1105195 117.763437,71.6188404 118.05179,72.1258813 L118.400217,72.733571 C118.458693,72.8347019 118.517373,72.9357453 118.576261,73.0366832 L118.932103,73.640899 C124.307837,82.6807857 131.415017,90.5721193 142.523458,84.1061437 C151.429257,78.9264986 159.459172,92.6576285 150.580806,97.8216723 C133.729349,107.623215 119.656423,100.606512 109.569063,87.8660668 C109.220277,88.0532829 108.849937,88.2209973 108.444326,88.3614093 C100.204748,91.2184048 92.6823363,95.8305512 86.1141872,101.52114 C85.6478329,101.928725 85.161884,102.256353 84.672016,102.531327 C81.0528718,109.965366 77.4317682,117.413056 73.8145835,124.850995 C69.7428013,133.221114 56.5908274,127.12489 60.6782853,118.715768 C64.4835793,110.885845 68.2927923,103.059822 72.0980863,95.2298996 C72.8642397,93.6541641 73.9517465,92.5913228 75.1842542,91.9614187 C75.3899987,91.7410498 75.6075,91.5206808 75.852434,91.3081126 C81.5153072,86.4034411 87.6073046,82.2378831 94.1872105,78.8894454 C89.7352909,70.3087081 85.1011403,61.8176784 80.2200964,53.4748615 C64.6658102,58.2176691 49.8815963,52.630439 39.3513955,37.9515276 C33.9021048,30.3556249 46.4936698,23.1556062 51.8822169,30.6637514 C60.1355116,42.1697401 71.1869319,43.5017045 83.0789656,36.4752507 C83.8882274,35.9974597 84.6896513,35.699084 85.4675615,35.5430706 C85.7516849,35.4104592 86.0397273,35.2856485 86.3297291,35.1725388 C86.8411512,34.5738374 87.479939,34.0277904 88.2754845,33.5578 Z M75.8286197,9.15045312 C82.557874,9.15045312 88.0130124,14.5790906 88.0130124,21.2756542 C88.0130124,27.9722178 82.557874,33.4008553 75.8286197,33.4008553 C69.0993655,33.4008553 63.6442271,27.9722178 63.6442271,21.2756542 C63.6442271,14.5790906 69.0993655,9.15045312 75.8286197,9.15045312 Z" id="Person-Icon" fill-rule="nonzero" transform="translate(96.226587, 69.000000) scale(-1, 1) rotate(10.000000) translate(-96.226587, -69.000000) "></path>
                <rect id="Item" x="33.3942614" y="10.7080107" width="35.9213938" height="8.98163042" rx="4.49081521"></rect>
                <rect id="Item" x="4.51273803" y="40.347391" width="35.9213938" height="8.98163042" rx="4.49081521"></rect>
                <rect id="Item" x="0" y="99.6261518" width="35.9213938" height="8.98163042" rx="4.49081521"></rect>
                <rect id="Item" x="22.3831797" y="69.0886084" width="22.5636902" height="8.98163042" rx="4.49081521"></rect>
            </g>
        </g>
    </g>
</svg>