<?xml version="1.0" encoding="UTF-8"?>
<svg width="160px" height="190px" viewBox="0 0 160 190" version="1.1" xmlns="http://www.w3.org/2000/svg" xmlns:xlink="http://www.w3.org/1999/xlink">
    <!-- Generator: Sketch 59.1 (86144) - https://sketch.com -->
    <title>Motion</title>
    <desc>Created with Sketch.</desc>
    <g id="Motion" stroke="none" stroke-width="1" fill="none" fill-rule="evenodd">
        <path d="M83.1241656,118.166889 C86.1615487,118.166889 88.8518024,116.73498 94.5360481,116.73498 C100.263685,116.73498 101.825768,118.166889 106.078104,118.166889 C112.5,118.166889 115.884513,115.476636 115.884513,111.007343 C115.884513,103.370494 107.596796,98.2503338 94.4926569,98.2503338 C88.070761,98.2503338 85.2069426,98.8578104 81.5620828,99.7690254 L76.8758344,89.0947931 C72.2763685,78.8544726 64.8564753,72.1722296 54.3558077,72.1722296 L49.2356475,72.1722296 C47.5433912,72.1722296 46.4152203,71.4345794 46.4152203,69.7857143 C46.4152203,67.0954606 50.0166889,66.4445928 53.965287,66.4445928 C66.5407137,66.4445928 75.8472572,73.2795303 81.5909764,87.0333885 L84.7730307,94.7356475 C87.6802403,94.1281709 90.8477971,93.8244326 94.058745,93.8244326 C96.6188251,93.8244326 98.9619493,93.9979973 101.435247,94.3451268 L102.077692,93.8749469 C104.570035,92.0670547 107.426702,90.2004005 111.458611,88.4439252 C116.318425,91.7416555 121.872497,93.8678238 127.643525,93.8678238 L128.354178,93.8646507 C139.832561,93.7601963 145,91.0378505 145,79.9392523 C145,66.271028 135.106809,56.0307076 121.959279,56.0740988 L110.330441,40.5834446 C103.778371,32.0787717 96.0113485,28 88.287717,28 C81.9526035,28 72.5367156,31.6448598 72.5367156,36.76502 C72.5367156,40.1774796 79.3298237,44.9317876 84.7128536,48.2660674 L109.983311,63.7109479 C108.030708,65.576769 106.29506,66.5747664 104.125501,66.5747664 C100.784379,66.5747664 97.2696929,64.5353805 92.0193591,61.4979973 L90.2418066,60.4639731 C77.7229244,53.1399691 67.7060459,46.5280374 54.4425901,46.5280374 C39.9933244,46.5280374 29.0153538,54.8157543 23.1575434,70.9572764 C18.5146862,70.9572764 15,73.9946595 15,78.4639519 C15,83.4973298 18.9919893,86.6648865 24.459279,86.6648865 C30.7943925,95.5166889 41.1648865,99.0747664 53.4445928,99.0747664 C54.0954606,99.0747664 54.7463284,99.0313752 55.3971963,99.0313752 L72.9706275,113.610814 C77.3097463,117.559413 79.8264352,118.166889 83.1241656,118.166889 Z M126.645527,77.8564753 C124.692924,77.8564753 123.130841,76.2076101 123.130841,74.2983979 C123.130841,72.3457944 124.736315,70.6101469 126.688919,70.6101469 C128.684913,70.6101469 130.246996,72.1722296 130.246996,74.1248331 C130.246996,76.0774366 128.641522,77.8564753 126.645527,77.8564753 Z M51.7523364,121.594793 C42.5534045,121.594793 36.6522029,117.732977 36.6522029,111.918558 C36.6522029,108.013351 39.6461949,105.40988 44.506008,105.40988 C48.3244326,105.40988 51.5353805,106.060748 53.7049399,106.060748 C54.6161549,106.060748 55.3538051,105.973965 55.9612817,105.930574 L69.4125501,117.125501 C65.246996,119.989319 60.1268358,121.594793 51.7523364,121.594793 Z" fill="#007AFF" fill-rule="nonzero"></path>
        <path d="M59.4631221,165 L59.4631221,148.089844 L55.9240596,148.089844 L50.8381221,160.640625 L50.6271846,160.640625 L45.5412471,148.089844 L42.0021846,148.089844 L42.0021846,165 L44.8146846,165 L44.8146846,153.011719 L44.9787471,153.011719 L49.6545284,164.472656 L51.8107784,164.472656 L56.4865596,153.011719 L56.6506221,153.011719 L56.6506221,165 L59.4631221,165 Z M68.6310137,165.257812 C72.463045,165.257812 74.7950762,162.75 74.7950762,158.589844 C74.7950762,154.453125 72.4513262,151.945312 68.6310137,151.945312 C64.82242,151.945312 62.4669512,154.464844 62.4669512,158.589844 C62.4669512,162.75 64.7872637,165.257812 68.6310137,165.257812 Z M68.6310137,162.878906 C66.60367,162.878906 65.4435137,161.308594 65.4435137,158.601562 C65.4435137,155.894531 66.60367,154.324219 68.6310137,154.324219 C70.6466387,154.324219 71.806795,155.894531 71.806795,158.601562 C71.806795,161.308594 70.6583575,162.878906 68.6310137,162.878906 Z M78.419999,149.050781 L78.419999,152.273438 L76.3926553,152.273438 L76.3926553,154.535156 L78.419999,154.535156 L78.419999,161.601562 C78.419999,164.074219 79.591874,165.058594 82.5332803,165.058594 C83.0957803,165.058594 83.6348428,165.011719 84.0567178,164.929688 L84.0567178,162.703125 L83.6764678,162.738937 C83.4970303,162.753281 83.3184365,162.761719 83.0723428,162.761719 C81.8535928,162.761719 81.3145303,162.1875 81.3145303,160.910156 L81.3145303,154.535156 L84.0567178,154.535156 L84.0567178,152.273438 L81.3145303,152.273438 L81.3145303,149.050781 L78.419999,149.050781 Z M88.2089844,150.046875 C89.1699219,150.046875 89.9550781,149.285156 89.9550781,148.324219 C89.9550781,147.375 89.1699219,146.601562 88.2089844,146.601562 C87.2597656,146.601562 86.4746094,147.375 86.4746094,148.324219 C86.4746094,149.285156 87.2597656,150.046875 88.2089844,150.046875 Z M86.7675781,165 L89.6621094,165 L89.6621094,152.191406 L86.7675781,152.191406 L86.7675781,165 Z M98.5604697,165.257812 C102.392501,165.257812 104.724532,162.75 104.724532,158.589844 C104.724532,154.453125 102.380782,151.945312 98.5604697,151.945312 C94.751876,151.945312 92.3964072,154.464844 92.3964072,158.589844 C92.3964072,162.75 94.7167197,165.257812 98.5604697,165.257812 Z M98.5604697,162.878906 C96.533126,162.878906 95.3729697,161.308594 95.3729697,158.601562 C95.3729697,155.894531 96.533126,154.324219 98.5604697,154.324219 C100.576095,154.324219 101.736251,155.894531 101.736251,158.601562 C101.736251,161.308594 100.587813,162.878906 98.5604697,162.878906 Z M107.423674,165 L107.423674,152.191406 L110.224455,152.191406 L110.224455,154.242188 L110.423674,154.242188 C111.033049,152.8125 112.322111,151.945312 114.232268,151.945312 C117.091643,151.945312 118.650236,153.667969 118.650236,156.714844 L118.650236,165 L115.743986,165 L115.743986,157.394531 C115.743986,155.402344 114.923674,154.40625 113.154143,154.40625 C111.419768,154.40625 110.329924,155.613281 110.329924,157.535156 L110.329924,165 L107.423674,165 Z" fill="#007AFF" fill-rule="nonzero"></path>
    </g>
</svg>