<?xml version="1.0" encoding="UTF-8"?>
<svg width="190px" height="190px" viewBox="0 0 190 190" version="1.1" xmlns="http://www.w3.org/2000/svg" xmlns:xlink="http://www.w3.org/1999/xlink">
    <!-- Generator: Sketch 59.1 (86144) - https://sketch.com -->
    <title>Motion</title>
    <desc>Created with Sketch.</desc>
    <g id="Motion" stroke="none" stroke-width="1" fill="none" fill-rule="evenodd">
        <path d="M98.1241656,118.166889 C101.161549,118.166889 103.851802,116.73498 109.536048,116.73498 C115.263685,116.73498 116.825768,118.166889 121.078104,118.166889 C127.5,118.166889 130.884513,115.476636 130.884513,111.007343 C130.884513,103.370494 122.596796,98.2503338 109.492657,98.2503338 C103.070761,98.2503338 100.206943,98.8578104 96.5620828,99.7690254 L91.8758344,89.0947931 C87.2763685,78.8544726 79.8564753,72.1722296 69.3558077,72.1722296 L64.2356475,72.1722296 C62.5433912,72.1722296 61.4152203,71.4345794 61.4152203,69.7857143 C61.4152203,67.0954606 65.0166889,66.4445928 68.965287,66.4445928 C81.5407137,66.4445928 90.8472572,73.2795303 96.5909764,87.0333885 L99.7730307,94.7356475 C102.68024,94.1281709 105.847797,93.8244326 109.058745,93.8244326 C111.618825,93.8244326 113.961949,93.9979973 116.435247,94.3451268 L117.077692,93.8749469 C119.570035,92.0670547 122.426702,90.2004005 126.458611,88.4439252 C131.318425,91.7416555 136.872497,93.8678238 142.643525,93.8678238 L143.354178,93.8646507 C154.832561,93.7601963 160,91.0378505 160,79.9392523 C160,66.271028 150.106809,56.0307076 136.959279,56.0740988 L125.330441,40.5834446 C118.778371,32.0787717 111.011348,28 103.287717,28 C96.9526035,28 87.5367156,31.6448598 87.5367156,36.76502 C87.5367156,40.1774796 94.3298237,44.9317876 99.7128536,48.2660674 L124.983311,63.7109479 C123.030708,65.576769 121.29506,66.5747664 119.125501,66.5747664 C115.784379,66.5747664 112.269693,64.5353805 107.019359,61.4979973 L105.241807,60.4639731 C92.7229244,53.1399691 82.7060459,46.5280374 69.4425901,46.5280374 C54.9933244,46.5280374 44.0153538,54.8157543 38.1575434,70.9572764 C33.5146862,70.9572764 30,73.9946595 30,78.4639519 C30,83.4973298 33.9919893,86.6648865 39.459279,86.6648865 C45.7943925,95.5166889 56.1648865,99.0747664 68.4445928,99.0747664 C69.0954606,99.0747664 69.7463284,99.0313752 70.3971963,99.0313752 L87.9706275,113.610814 C92.3097463,117.559413 94.8264352,118.166889 98.1241656,118.166889 Z M141.645527,77.8564753 C139.692924,77.8564753 138.130841,76.2076101 138.130841,74.2983979 C138.130841,72.3457944 139.736315,70.6101469 141.688919,70.6101469 C143.684913,70.6101469 145.246996,72.1722296 145.246996,74.1248331 C145.246996,76.0774366 143.641522,77.8564753 141.645527,77.8564753 Z M66.7523364,121.594793 C57.5534045,121.594793 51.6522029,117.732977 51.6522029,111.918558 C51.6522029,108.013351 54.6461949,105.40988 59.506008,105.40988 C63.3244326,105.40988 66.5353805,106.060748 68.7049399,106.060748 C69.6161549,106.060748 70.3538051,105.973965 70.9612817,105.930574 L84.4125501,117.125501 C80.246996,119.989319 75.1268358,121.594793 66.7523364,121.594793 Z" fill="#007AFF" fill-rule="nonzero"></path>
        <path d="M74.4609375,165.398438 L74.4609375,148.488281 L70.921875,148.488281 L65.8359375,161.039062 L65.625,161.039062 L60.5390625,148.488281 L57,148.488281 L57,165.398438 L59.8125,165.398438 L59.8125,153.410156 L59.9765625,153.410156 L64.6523438,164.871094 L66.8085938,164.871094 L71.484375,153.410156 L71.6484375,153.410156 L71.6484375,165.398438 L74.4609375,165.398438 Z M83.6288291,165.65625 C87.4608603,165.65625 89.7928916,163.148438 89.7928916,158.988281 C89.7928916,154.851562 87.4491416,152.34375 83.6288291,152.34375 C79.8202353,152.34375 77.4647666,154.863281 77.4647666,158.988281 C77.4647666,163.148438 79.7850791,165.65625 83.6288291,165.65625 Z M83.6288291,163.277344 C81.6014853,163.277344 80.4413291,161.707031 80.4413291,159 C80.4413291,156.292969 81.6014853,154.722656 83.6288291,154.722656 C85.6444541,154.722656 86.8046103,156.292969 86.8046103,159 C86.8046103,161.707031 85.6561728,163.277344 83.6288291,163.277344 Z M93.4178144,149.449219 L93.4178144,152.671875 L91.3904707,152.671875 L91.3904707,154.933594 L93.4178144,154.933594 L93.4178144,162 C93.4178144,164.472656 94.5896894,165.457031 97.5310957,165.457031 C98.0935957,165.457031 98.6326582,165.410156 99.0545332,165.328125 L99.0545332,163.101562 L98.6742832,163.137375 C98.4948457,163.151719 98.3162519,163.160156 98.0701582,163.160156 C96.8514082,163.160156 96.3123457,162.585938 96.3123457,161.308594 L96.3123457,154.933594 L99.0545332,154.933594 L99.0545332,152.671875 L96.3123457,152.671875 L96.3123457,149.449219 L93.4178144,149.449219 Z M103.2068,150.445312 C104.167737,150.445312 104.952893,149.683594 104.952893,148.722656 C104.952893,147.773438 104.167737,147 103.2068,147 C102.257581,147 101.472425,147.773438 101.472425,148.722656 C101.472425,149.683594 102.257581,150.445312 103.2068,150.445312 Z M101.765393,165.398438 L104.659925,165.398438 L104.659925,152.589844 L101.765393,152.589844 L101.765393,165.398438 Z M113.558285,165.65625 C117.390316,165.65625 119.722348,163.148438 119.722348,158.988281 C119.722348,154.851562 117.378598,152.34375 113.558285,152.34375 C109.749691,152.34375 107.394223,154.863281 107.394223,158.988281 C107.394223,163.148438 109.714535,165.65625 113.558285,165.65625 Z M113.558285,163.277344 C111.530941,163.277344 110.370785,161.707031 110.370785,159 C110.370785,156.292969 111.530941,154.722656 113.558285,154.722656 C115.57391,154.722656 116.734066,156.292969 116.734066,159 C116.734066,161.707031 115.585629,163.277344 113.558285,163.277344 Z M122.421489,165.398438 L122.421489,152.589844 L125.22227,152.589844 L125.22227,154.640625 L125.421489,154.640625 C126.030864,153.210938 127.319927,152.34375 129.230083,152.34375 C132.089458,152.34375 133.648052,154.066406 133.648052,157.113281 L133.648052,165.398438 L130.741802,165.398438 L130.741802,157.792969 C130.741802,155.800781 129.921489,154.804688 128.151958,154.804688 C126.417583,154.804688 125.327739,156.011719 125.327739,157.933594 L125.327739,165.398438 L122.421489,165.398438 Z" fill="#007AFF" fill-rule="nonzero"></path>
    </g>
</svg>