<?xml version="1.0" encoding="UTF-8"?>
<svg width="210px" height="190px" viewBox="0 0 210 190" version="1.1" xmlns="http://www.w3.org/2000/svg" xmlns:xlink="http://www.w3.org/1999/xlink">
    <!-- Generator: Sketch 59.1 (86144) - https://sketch.com -->
    <title>Motion</title>
    <desc>Created with Sketch.</desc>
    <g id="Motion" stroke="none" stroke-width="1" fill="none" fill-rule="evenodd">
        <path d="M108.124166,118.166889 C111.161549,118.166889 113.851802,116.73498 119.536048,116.73498 C125.263685,116.73498 126.825768,118.166889 131.078104,118.166889 C137.5,118.166889 140.884513,115.476636 140.884513,111.007343 C140.884513,103.370494 132.596796,98.2503338 119.492657,98.2503338 C113.070761,98.2503338 110.206943,98.8578104 106.562083,99.7690254 L101.875834,89.0947931 C97.2763685,78.8544726 89.8564753,72.1722296 79.3558077,72.1722296 L74.2356475,72.1722296 C72.5433912,72.1722296 71.4152203,71.4345794 71.4152203,69.7857143 C71.4152203,67.0954606 75.0166889,66.4445928 78.965287,66.4445928 C91.5407137,66.4445928 100.847257,73.2795303 106.590976,87.0333885 L109.773031,94.7356475 C112.68024,94.1281709 115.847797,93.8244326 119.058745,93.8244326 C121.618825,93.8244326 123.961949,93.9979973 126.435247,94.3451268 L127.077692,93.8749469 C129.570035,92.0670547 132.426702,90.2004005 136.458611,88.4439252 C141.318425,91.7416555 146.872497,93.8678238 152.643525,93.8678238 L153.354178,93.8646507 C164.832561,93.7601963 170,91.0378505 170,79.9392523 C170,66.271028 160.106809,56.0307076 146.959279,56.0740988 L135.330441,40.5834446 C128.778371,32.0787717 121.011348,28 113.287717,28 C106.952603,28 97.5367156,31.6448598 97.5367156,36.76502 C97.5367156,40.1774796 104.329824,44.9317876 109.712854,48.2660674 L134.983311,63.7109479 C133.030708,65.576769 131.29506,66.5747664 129.125501,66.5747664 C125.784379,66.5747664 122.269693,64.5353805 117.019359,61.4979973 L115.241807,60.4639731 C102.722924,53.1399691 92.7060459,46.5280374 79.4425901,46.5280374 C64.9933244,46.5280374 54.0153538,54.8157543 48.1575434,70.9572764 C43.5146862,70.9572764 40,73.9946595 40,78.4639519 C40,83.4973298 43.9919893,86.6648865 49.459279,86.6648865 C55.7943925,95.5166889 66.1648865,99.0747664 78.4445928,99.0747664 C79.0954606,99.0747664 79.7463284,99.0313752 80.3971963,99.0313752 L97.9706275,113.610814 C102.309746,117.559413 104.826435,118.166889 108.124166,118.166889 Z M151.645527,77.8564753 C149.692924,77.8564753 148.130841,76.2076101 148.130841,74.2983979 C148.130841,72.3457944 149.736315,70.6101469 151.688919,70.6101469 C153.684913,70.6101469 155.246996,72.1722296 155.246996,74.1248331 C155.246996,76.0774366 153.641522,77.8564753 151.645527,77.8564753 Z M76.7523364,121.594793 C67.5534045,121.594793 61.6522029,117.732977 61.6522029,111.918558 C61.6522029,108.013351 64.6461949,105.40988 69.506008,105.40988 C73.3244326,105.40988 76.5353805,106.060748 78.7049399,106.060748 C79.6161549,106.060748 80.3538051,105.973965 80.9612817,105.930574 L94.4125501,117.125501 C90.246996,119.989319 85.1268358,121.594793 76.7523364,121.594793 Z" fill="#007AFF" fill-rule="nonzero"></path>
        <path d="M79.8505859,171 L79.8505859,147.043945 L74.9033203,147.043945 L67.5654297,165.322266 L67.4326172,165.322266 L60.0947266,147.043945 L55.1308594,147.043945 L55.1308594,171 L58.9990234,171 L58.9990234,154 L59.1152344,154 L66.0380859,171 L68.9599609,171 L75.8828125,154 L75.9990234,154 L75.9990234,171 L79.8505859,171 Z M91.4550781,171.348633 C96.6181641,171.348633 99.9716797,167.912109 99.9716797,162.201172 C99.9716797,156.506836 96.5849609,153.037109 91.4550781,153.037109 C86.3251953,153.037109 82.9384766,156.523438 82.9384766,162.201172 C82.9384766,167.912109 86.2919922,171.348633 91.4550781,171.348633 Z M91.4550781,168.078125 C88.8320312,168.078125 87.1386719,165.953125 87.1386719,162.201172 C87.1386719,158.46582 88.8486328,156.324219 91.4550781,156.324219 C94.078125,156.324219 95.7714844,158.46582 95.7714844,162.201172 C95.7714844,165.953125 94.078125,168.078125 91.4550781,168.078125 Z M103.773438,149.285156 L103.773438,153.402344 L101.25,153.402344 L101.25,156.589844 L103.773438,156.589844 L103.773438,166.318359 C103.773438,169.738281 105.267578,171.083008 109.069336,171.083008 C109.949219,171.083008 110.762695,171.016602 111.210938,170.916992 L111.210938,167.762695 C110.945312,167.8125 110.414062,167.845703 110.032227,167.845703 C108.571289,167.845703 107.907227,167.181641 107.907227,165.737305 L107.907227,156.589844 L111.227539,156.589844 L111.227539,153.402344 L107.907227,153.402344 L107.907227,149.285156 L103.773438,149.285156 Z M116.191406,150.746094 C117.453125,150.746094 118.449219,149.733398 118.449219,148.504883 C118.449219,147.259766 117.453125,146.263672 116.191406,146.263672 C114.929688,146.263672 113.916992,147.259766 113.916992,148.504883 C113.916992,149.733398 114.929688,150.746094 116.191406,150.746094 Z M114.132812,171 L118.266602,171 L118.266602,153.402344 L114.132812,153.402344 L114.132812,171 Z M129.522461,171.348633 C134.685547,171.348633 138.039062,167.912109 138.039062,162.201172 C138.039062,156.506836 134.652344,153.037109 129.522461,153.037109 C124.392578,153.037109 121.005859,156.523438 121.005859,162.201172 C121.005859,167.912109 124.359375,171.348633 129.522461,171.348633 Z M129.522461,168.078125 C126.899414,168.078125 125.206055,165.953125 125.206055,162.201172 C125.206055,158.46582 126.916016,156.324219 129.522461,156.324219 C132.145508,156.324219 133.838867,158.46582 133.838867,162.201172 C133.838867,165.953125 132.145508,168.078125 129.522461,168.078125 Z M140.695312,171 L140.695312,153.402344 L144.663086,153.402344 L144.663086,156.423828 L144.746094,156.423828 C145.692383,154.332031 147.568359,153.070312 150.274414,153.070312 C154.15918,153.070312 156.367188,155.560547 156.367188,159.62793 L156.367188,171 L152.233398,171 L152.233398,160.458008 C152.233398,157.967773 151.071289,156.573242 148.713867,156.573242 C146.339844,156.573242 144.829102,158.283203 144.829102,160.806641 L144.829102,171 L140.695312,171 Z" fill="#007AFF" fill-rule="nonzero"></path>
    </g>
</svg>