<?xml version="1.0" encoding="UTF-8"?>
<svg width="150px" height="150px" viewBox="0 0 150 150" version="1.1" xmlns="http://www.w3.org/2000/svg" xmlns:xlink="http://www.w3.org/1999/xlink">
    <!-- Generator: Sketch 59.1 (86144) - https://sketch.com -->
    <title>Motion</title>
    <desc>Created with Sketch.</desc>
    <g id="Motion" stroke="none" stroke-width="1" fill="none" fill-rule="evenodd">
        <path d="M78.1241656,118.166889 C81.1615487,118.166889 83.8518024,116.73498 89.5360481,116.73498 C95.2636849,116.73498 96.8257677,118.166889 101.078104,118.166889 C107.5,118.166889 110.884513,115.476636 110.884513,111.007343 C110.884513,103.370494 102.596796,98.2503338 89.4926569,98.2503338 C83.070761,98.2503338 80.2069426,98.8578104 76.5620828,99.7690254 L71.8758344,89.0947931 C67.2763685,78.8544726 59.8564753,72.1722296 49.3558077,72.1722296 L44.2356475,72.1722296 C42.5433912,72.1722296 41.4152203,71.4345794 41.4152203,69.7857143 C41.4152203,67.0954606 45.0166889,66.4445928 48.965287,66.4445928 C61.5407137,66.4445928 70.8472572,73.2795303 76.5909764,87.0333885 L79.7730307,94.7356475 C82.6802403,94.1281709 85.8477971,93.8244326 89.058745,93.8244326 C91.6188251,93.8244326 93.9619493,93.9979973 96.435247,94.3451268 L97.0776921,93.8749469 C99.5700347,92.0670547 102.426702,90.2004005 106.458611,88.4439252 C111.318425,91.7416555 116.872497,93.8678238 122.643525,93.8678238 L123.354178,93.8646507 C134.832561,93.7601963 140,91.0378505 140,79.9392523 C140,66.271028 130.106809,56.0307076 116.959279,56.0740988 L105.330441,40.5834446 C98.7783712,32.0787717 91.0113485,28 83.287717,28 C76.9526035,28 67.5367156,31.6448598 67.5367156,36.76502 C67.5367156,40.1774796 74.3298237,44.9317876 79.7128536,48.2660674 L104.983311,63.7109479 C103.030708,65.576769 101.29506,66.5747664 99.1255007,66.5747664 C95.7843792,66.5747664 92.2696929,64.5353805 87.0193591,61.4979973 L85.2418066,60.4639731 C72.7229244,53.1399691 62.7060459,46.5280374 49.4425901,46.5280374 C34.9933244,46.5280374 24.0153538,54.8157543 18.1575434,70.9572764 C13.5146862,70.9572764 10,73.9946595 10,78.4639519 C10,83.4973298 13.9919893,86.6648865 19.459279,86.6648865 C25.7943925,95.5166889 36.1648865,99.0747664 48.4445928,99.0747664 C49.0954606,99.0747664 49.7463284,99.0313752 50.3971963,99.0313752 L67.9706275,113.610814 C72.3097463,117.559413 74.8264352,118.166889 78.1241656,118.166889 Z M121.645527,77.8564753 C119.692924,77.8564753 118.130841,76.2076101 118.130841,74.2983979 C118.130841,72.3457944 119.736315,70.6101469 121.688919,70.6101469 C123.684913,70.6101469 125.246996,72.1722296 125.246996,74.1248331 C125.246996,76.0774366 123.641522,77.8564753 121.645527,77.8564753 Z M46.7523364,121.594793 C37.5534045,121.594793 31.6522029,117.732977 31.6522029,111.918558 C31.6522029,108.013351 34.6461949,105.40988 39.506008,105.40988 C43.3244326,105.40988 46.5353805,106.060748 48.7049399,106.060748 C49.6161549,106.060748 50.3538051,105.973965 50.9612817,105.930574 L64.4125501,117.125501 C60.246996,119.989319 55.1268358,121.594793 46.7523364,121.594793 Z" fill="#007AFF" fill-rule="nonzero"></path>
    </g>
</svg>