<?xml version="1.0" encoding="UTF-8"?>
<svg width="210px" height="210px" viewBox="0 0 210 210" version="1.1" xmlns="http://www.w3.org/2000/svg" xmlns:xlink="http://www.w3.org/1999/xlink">
    <!-- Generator: Sketch 59.1 (86144) - https://sketch.com -->
    <title>Motion</title>
    <desc>Created with Sketch.</desc>
    <g id="Motion" stroke="none" stroke-width="1" fill="none" fill-rule="evenodd">
        <path d="M108.124166,118.166889 C111.161549,118.166889 113.851802,116.73498 119.536048,116.73498 C125.263685,116.73498 126.825768,118.166889 131.078104,118.166889 C137.5,118.166889 140.884513,115.476636 140.884513,111.007343 C140.884513,103.370494 132.596796,98.2503338 119.492657,98.2503338 C113.070761,98.2503338 110.206943,98.8578104 106.562083,99.7690254 L101.875834,89.0947931 C97.2763685,78.8544726 89.8564753,72.1722296 79.3558077,72.1722296 L74.2356475,72.1722296 C72.5433912,72.1722296 71.4152203,71.4345794 71.4152203,69.7857143 C71.4152203,67.0954606 75.0166889,66.4445928 78.965287,66.4445928 C91.5407137,66.4445928 100.847257,73.2795303 106.590976,87.0333885 L109.773031,94.7356475 C112.68024,94.1281709 115.847797,93.8244326 119.058745,93.8244326 C121.618825,93.8244326 123.961949,93.9979973 126.435247,94.3451268 L127.077692,93.8749469 C129.570035,92.0670547 132.426702,90.2004005 136.458611,88.4439252 C141.318425,91.7416555 146.872497,93.8678238 152.643525,93.8678238 L153.354178,93.8646507 C164.832561,93.7601963 170,91.0378505 170,79.9392523 C170,66.271028 160.106809,56.0307076 146.959279,56.0740988 L135.330441,40.5834446 C128.778371,32.0787717 121.011348,28 113.287717,28 C106.952603,28 97.5367156,31.6448598 97.5367156,36.76502 C97.5367156,40.1774796 104.329824,44.9317876 109.712854,48.2660674 L134.983311,63.7109479 C133.030708,65.576769 131.29506,66.5747664 129.125501,66.5747664 C125.784379,66.5747664 122.269693,64.5353805 117.019359,61.4979973 L115.241807,60.4639731 C102.722924,53.1399691 92.7060459,46.5280374 79.4425901,46.5280374 C64.9933244,46.5280374 54.0153538,54.8157543 48.1575434,70.9572764 C43.5146862,70.9572764 40,73.9946595 40,78.4639519 C40,83.4973298 43.9919893,86.6648865 49.459279,86.6648865 C55.7943925,95.5166889 66.1648865,99.0747664 78.4445928,99.0747664 C79.0954606,99.0747664 79.7463284,99.0313752 80.3971963,99.0313752 L97.9706275,113.610814 C102.309746,117.559413 104.826435,118.166889 108.124166,118.166889 Z M151.645527,77.8564753 C149.692924,77.8564753 148.130841,76.2076101 148.130841,74.2983979 C148.130841,72.3457944 149.736315,70.6101469 151.688919,70.6101469 C153.684913,70.6101469 155.246996,72.1722296 155.246996,74.1248331 C155.246996,76.0774366 153.641522,77.8564753 151.645527,77.8564753 Z M76.7523364,121.594793 C67.5534045,121.594793 61.6522029,117.732977 61.6522029,111.918558 C61.6522029,108.013351 64.6461949,105.40988 69.506008,105.40988 C73.3244326,105.40988 76.5353805,106.060748 78.7049399,106.060748 C79.6161549,106.060748 80.3538051,105.973965 80.9612817,105.930574 L94.4125501,117.125501 C90.246996,119.989319 85.1268358,121.594793 76.7523364,121.594793 Z" fill="#007AFF" fill-rule="nonzero"></path>
        <path d="M80.859375,178 L80.859375,155.453125 L76.203125,155.453125 L69.296875,172.65625 L69.171875,172.65625 L62.265625,155.453125 L57.59375,155.453125 L57.59375,178 L61.234375,178 L61.234375,162 L61.34375,162 L67.859375,178 L70.609375,178 L77.125,162 L77.234375,162 L77.234375,178 L80.859375,178 Z M91.78125,178.328125 C96.640625,178.328125 99.796875,175.09375 99.796875,169.71875 C99.796875,164.359375 96.609375,161.09375 91.78125,161.09375 C86.953125,161.09375 83.765625,164.375 83.765625,169.71875 C83.765625,175.09375 86.921875,178.328125 91.78125,178.328125 Z M91.78125,175.25 C89.3125,175.25 87.71875,173.25 87.71875,169.71875 C87.71875,166.203125 89.328125,164.1875 91.78125,164.1875 C94.25,164.1875 95.84375,166.203125 95.84375,169.71875 C95.84375,173.25 94.25,175.25 91.78125,175.25 Z M103.375,157.5625 L103.375,161.4375 L101,161.4375 L101,164.4375 L103.375,164.4375 L103.375,173.59375 C103.375,176.8125 104.78125,178.078125 108.359375,178.078125 C109.1875,178.078125 109.953125,178.015625 110.375,177.921875 L110.375,174.953125 C110.125,175 109.625,175.03125 109.265625,175.03125 C107.890625,175.03125 107.265625,174.40625 107.265625,173.046875 L107.265625,164.4375 L110.390625,164.4375 L110.390625,161.4375 L107.265625,161.4375 L107.265625,157.5625 L103.375,157.5625 Z M115.0625,158.9375 C116.25,158.9375 117.1875,157.984375 117.1875,156.828125 C117.1875,155.65625 116.25,154.71875 115.0625,154.71875 C113.875,154.71875 112.921875,155.65625 112.921875,156.828125 C112.921875,157.984375 113.875,158.9375 115.0625,158.9375 Z M113.125,178 L117.015625,178 L117.015625,161.4375 L113.125,161.4375 L113.125,178 Z M127.609375,178.328125 C132.46875,178.328125 135.625,175.09375 135.625,169.71875 C135.625,164.359375 132.4375,161.09375 127.609375,161.09375 C122.78125,161.09375 119.59375,164.375 119.59375,169.71875 C119.59375,175.09375 122.75,178.328125 127.609375,178.328125 Z M127.609375,175.25 C125.140625,175.25 123.546875,173.25 123.546875,169.71875 C123.546875,166.203125 125.15625,164.1875 127.609375,164.1875 C130.078125,164.1875 131.671875,166.203125 131.671875,169.71875 C131.671875,173.25 130.078125,175.25 127.609375,175.25 Z M138.125,178 L138.125,161.4375 L141.859375,161.4375 L141.859375,164.28125 L141.9375,164.28125 C142.828125,162.3125 144.59375,161.125 147.140625,161.125 C150.796875,161.125 152.875,163.46875 152.875,167.296875 L152.875,178 L148.984375,178 L148.984375,168.078125 C148.984375,165.734375 147.890625,164.421875 145.671875,164.421875 C143.4375,164.421875 142.015625,166.03125 142.015625,168.40625 L142.015625,178 L138.125,178 Z" fill="#007AFF" fill-rule="nonzero"></path>
    </g>
</svg>