<?xml version="1.0" encoding="UTF-8"?>
<svg width="160px" height="190px" viewBox="0 0 160 190" version="1.1" xmlns="http://www.w3.org/2000/svg" xmlns:xlink="http://www.w3.org/1999/xlink">
    <!-- Generator: Sketch 59.1 (86144) - https://sketch.com -->
    <title>Motion</title>
    <desc>Created with Sketch.</desc>
    <g id="Motion" stroke="none" stroke-width="1" fill="none" fill-rule="evenodd">
        <path d="M83.1241656,118.166889 C86.1615487,118.166889 88.8518024,116.73498 94.5360481,116.73498 C100.263685,116.73498 101.825768,118.166889 106.078104,118.166889 C112.5,118.166889 115.884513,115.476636 115.884513,111.007343 C115.884513,103.370494 107.596796,98.2503338 94.4926569,98.2503338 C88.070761,98.2503338 85.2069426,98.8578104 81.5620828,99.7690254 L76.8758344,89.0947931 C72.2763685,78.8544726 64.8564753,72.1722296 54.3558077,72.1722296 L49.2356475,72.1722296 C47.5433912,72.1722296 46.4152203,71.4345794 46.4152203,69.7857143 C46.4152203,67.0954606 50.0166889,66.4445928 53.965287,66.4445928 C66.5407137,66.4445928 75.8472572,73.2795303 81.5909764,87.0333885 L84.7730307,94.7356475 C87.6802403,94.1281709 90.8477971,93.8244326 94.058745,93.8244326 C96.6188251,93.8244326 98.9619493,93.9979973 101.435247,94.3451268 L102.077692,93.8749469 C104.570035,92.0670547 107.426702,90.2004005 111.458611,88.4439252 C116.318425,91.7416555 121.872497,93.8678238 127.643525,93.8678238 L128.354178,93.8646507 C139.832561,93.7601963 145,91.0378505 145,79.9392523 C145,66.271028 135.106809,56.0307076 121.959279,56.0740988 L110.330441,40.5834446 C103.778371,32.0787717 96.0113485,28 88.287717,28 C81.9526035,28 72.5367156,31.6448598 72.5367156,36.76502 C72.5367156,40.1774796 79.3298237,44.9317876 84.7128536,48.2660674 L109.983311,63.7109479 C108.030708,65.576769 106.29506,66.5747664 104.125501,66.5747664 C100.784379,66.5747664 97.2696929,64.5353805 92.0193591,61.4979973 L90.2418066,60.4639731 C77.7229244,53.1399691 67.7060459,46.5280374 54.4425901,46.5280374 C39.9933244,46.5280374 29.0153538,54.8157543 23.1575434,70.9572764 C18.5146862,70.9572764 15,73.9946595 15,78.4639519 C15,83.4973298 18.9919893,86.6648865 24.459279,86.6648865 C30.7943925,95.5166889 41.1648865,99.0747664 53.4445928,99.0747664 C54.0954606,99.0747664 54.7463284,99.0313752 55.3971963,99.0313752 L72.9706275,113.610814 C77.3097463,117.559413 79.8264352,118.166889 83.1241656,118.166889 Z M126.645527,77.8564753 C124.692924,77.8564753 123.130841,76.2076101 123.130841,74.2983979 C123.130841,72.3457944 124.736315,70.6101469 126.688919,70.6101469 C128.684913,70.6101469 130.246996,72.1722296 130.246996,74.1248331 C130.246996,76.0774366 128.641522,77.8564753 126.645527,77.8564753 Z M51.7523364,121.594793 C42.5534045,121.594793 36.6522029,117.732977 36.6522029,111.918558 C36.6522029,108.013351 39.6461949,105.40988 44.506008,105.40988 C48.3244326,105.40988 51.5353805,106.060748 53.7049399,106.060748 C54.6161549,106.060748 55.3538051,105.973965 55.9612817,105.930574 L69.4125501,117.125501 C65.246996,119.989319 60.1268358,121.594793 51.7523364,121.594793 Z" fill="#007AFF" fill-rule="nonzero"></path>
        <path d="M62.8859351,165 L62.8859351,150.908203 L59.9367164,150.908203 L55.6984351,161.367188 L55.5226539,161.367188 L51.2843726,150.908203 L48.3351539,150.908203 L48.3351539,165 L50.6789039,165 L50.6789039,155.009766 L50.8156226,155.009766 L54.712107,164.560547 L56.508982,164.560547 L60.4054664,155.009766 L60.5421851,155.009766 L60.5421851,165 L62.8859351,165 Z M70.5258448,165.214844 C73.7192041,165.214844 75.6625635,163.125 75.6625635,159.658203 C75.6625635,156.210938 73.7094385,154.121094 70.5258448,154.121094 C67.3520166,154.121094 65.389126,156.220703 65.389126,159.658203 C65.389126,163.125 67.3227198,165.214844 70.5258448,165.214844 Z M70.5258448,163.232422 C68.8363916,163.232422 67.8695948,161.923828 67.8695948,159.667969 C67.8695948,157.412109 68.8363916,156.103516 70.5258448,156.103516 C72.2055323,156.103516 73.1723291,157.412109 73.1723291,159.667969 C73.1723291,161.923828 72.2152979,163.232422 70.5258448,163.232422 Z M78.6833325,151.708984 L78.6833325,154.394531 L76.9938794,154.394531 L76.9938794,156.279297 L78.6833325,156.279297 L78.6833325,162.167969 C78.6833325,164.228516 79.659895,165.048828 82.1110669,165.048828 C82.5798169,165.048828 83.0290357,165.009766 83.3805982,164.941406 L83.3805982,163.085938 L83.0637232,163.115781 C82.9141919,163.127734 82.7653638,163.134766 82.5602857,163.134766 C81.5446607,163.134766 81.0954419,162.65625 81.0954419,161.591797 L81.0954419,156.279297 L83.3805982,156.279297 L83.3805982,154.394531 L81.0954419,154.394531 L81.0954419,151.708984 L78.6833325,151.708984 Z M86.8408203,152.539062 C87.6416016,152.539062 88.2958984,151.904297 88.2958984,151.103516 C88.2958984,150.3125 87.6416016,149.667969 86.8408203,149.667969 C86.0498047,149.667969 85.3955078,150.3125 85.3955078,151.103516 C85.3955078,151.904297 86.0498047,152.539062 86.8408203,152.539062 Z M85.6396484,165 L88.0517578,165 L88.0517578,154.326172 L85.6396484,154.326172 L85.6396484,165 Z M95.4670581,165.214844 C98.6604175,165.214844 100.603777,163.125 100.603777,159.658203 C100.603777,156.210938 98.6506518,154.121094 95.4670581,154.121094 C92.29323,154.121094 90.3303393,156.220703 90.3303393,159.658203 C90.3303393,163.125 92.2639331,165.214844 95.4670581,165.214844 Z M95.4670581,163.232422 C93.777605,163.232422 92.8108081,161.923828 92.8108081,159.667969 C92.8108081,157.412109 93.777605,156.103516 95.4670581,156.103516 C97.1467456,156.103516 98.1135425,157.412109 98.1135425,159.667969 C98.1135425,161.923828 97.1565112,163.232422 95.4670581,163.232422 Z M102.853061,165 L102.853061,154.326172 L105.187046,154.326172 L105.187046,156.035156 L105.353061,156.035156 C105.860874,154.84375 106.935093,154.121094 108.52689,154.121094 C110.909702,154.121094 112.20853,155.556641 112.20853,158.095703 L112.20853,165 L109.786655,165 L109.786655,158.662109 C109.786655,157.001953 109.103061,156.171875 107.628452,156.171875 C106.18314,156.171875 105.274936,157.177734 105.274936,158.779297 L105.274936,165 L102.853061,165 Z" fill="#007AFF" fill-rule="nonzero"></path>
    </g>
</svg>