<?xml version="1.0" encoding="UTF-8"?>
<svg width="200px" height="200px" viewBox="0 0 200 200" version="1.1" xmlns="http://www.w3.org/2000/svg" xmlns:xlink="http://www.w3.org/1999/xlink">
    <title>notifications</title>
    <defs>
        <path d="M142.505593,199.776349 C162.751678,199.776349 177.181208,197.540464 187.583893,187.255391 C197.87472,176.858525 200,162.660653 200,142.314097 L200,57.4622515 C200,37.1156955 197.87472,22.8060298 187.583893,12.5209575 C177.069351,2.23588527 162.751678,0 142.505593,0 L56.8232662,0 C37.4720358,0 22.9306488,2.23588527 12.5279642,12.6327518 C2.23713647,22.917824 0,37.2274898 0,56.7914859 L0,142.314097 C0,162.660653 2.12527964,176.970319 12.5279642,187.255391 C22.9306488,197.540464 37.2483221,199.776349 57.606264,199.776349 L142.505593,199.776349 Z" id="path-1"></path>
    </defs>
    <g id="notifications" stroke="none" stroke-width="1" fill="none" fill-rule="evenodd">
        <path d="M146.364176,74.5767904 C157.430573,74.5767904 166.652571,65.4162725 166.652571,54.2883952 C166.652571,43.1605178 157.492053,34 146.364176,34 C135.174818,34 126.014301,43.1605178 126.014301,54.2883952 C126.014301,65.4162725 135.174818,74.5767904 146.364176,74.5767904 Z M123.309181,156.283691 C134.437059,156.283691 142.367977,155.054091 148.024135,149.336453 C153.741774,143.680294 154.909894,135.810856 154.909894,124.682978 L154.909894,80.9092289 C153.126974,81.4010688 151.159615,81.5855087 149.130775,81.4010688 C148.515975,81.5240287 147.962655,81.5855087 147.286376,81.6469887 L147.286376,126.281458 C147.286376,133.597576 146.179736,139.991495 142.429457,143.741774 C138.679178,147.553533 132.162299,148.660173 124.907661,148.660173 L74.0022329,148.660173 C66.7475946,148.660173 60.2307162,147.492053 56.480437,143.741774 C52.7301579,139.991495 51.6235182,133.597576 51.6235182,126.281458 L51.6235182,76.05231 C51.6235182,68.4902718 52.7301579,61.9733934 56.4189571,58.2231143 C60.1692362,54.4113552 66.8090746,53.3047154 74.3711128,53.3047154 L118.944102,53.3047154 C119.005582,52.6899156 119.128542,52.0751157 119.251502,51.4603159 C119.067062,49.4314763 119.190022,47.5255968 119.681862,45.7426772 L75.2318326,45.7426772 C64.5957951,45.7426772 56.603397,46.9722769 50.8857584,52.6899156 C45.2295997,58.3460742 44,66.2155124 44,76.9745098 L44,124.682978 C44,135.810856 45.1681197,143.680294 50.8857584,149.336453 C56.603397,155.054091 64.4728351,156.283691 75.6621925,156.283691 L123.309181,156.283691 Z" id="Icon" fill="#FFFFFF" fill-rule="nonzero"></path>
        <g id="GitHub-Preview-Mask">
            <mask id="mask-2" fill="white">
                <use xlink:href="#path-1"></use>
            </mask>
            <use id="Mask" fill="#FFFFFF" fill-rule="nonzero" xlink:href="#path-1"></use>
        </g>
        <g id="Icon">
            <rect id="Rectangle" fill="#FFFFFF" x="0" y="0" width="200" height="200"></rect>
            <rect id="Background" fill="#FF3B30" x="0" y="0" width="200" height="200"></rect>
            <path d="M146.364176,74.5767904 C157.430573,74.5767904 166.652571,65.4162725 166.652571,54.2883952 C166.652571,43.1605178 157.492053,34 146.364176,34 C135.174818,34 126.014301,43.1605178 126.014301,54.2883952 C126.014301,65.4162725 135.174818,74.5767904 146.364176,74.5767904 Z M123.309181,156.283691 C134.437059,156.283691 142.367977,155.054091 148.024135,149.336453 C153.741774,143.680294 154.909894,135.810856 154.909894,124.682978 L154.909894,80.9092289 C153.126974,81.4010688 151.159615,81.5855087 149.130775,81.4010688 C148.515975,81.5240287 147.962655,81.5855087 147.286376,81.6469887 L147.286376,126.281458 C147.286376,133.597576 146.179736,139.991495 142.429457,143.741774 C138.679178,147.553533 132.162299,148.660173 124.907661,148.660173 L74.0022329,148.660173 C66.7475946,148.660173 60.2307162,147.492053 56.480437,143.741774 C52.7301579,139.991495 51.6235182,133.597576 51.6235182,126.281458 L51.6235182,76.05231 C51.6235182,68.4902718 52.7301579,61.9733934 56.4189571,58.2231143 C60.1692362,54.4113552 66.8090746,53.3047154 74.3711128,53.3047154 L118.944102,53.3047154 C119.005582,52.6899156 119.128542,52.0751157 119.251502,51.4603159 C119.067062,49.4314763 119.190022,47.5255968 119.681862,45.7426772 L75.2318326,45.7426772 C64.5957951,45.7426772 56.603397,46.9722769 50.8857584,52.6899156 C45.2295997,58.3460742 44,66.2155124 44,76.9745098 L44,124.682978 C44,135.810856 45.1681197,143.680294 50.8857584,149.336453 C56.603397,155.054091 64.4728351,156.283691 75.6621925,156.283691 L123.309181,156.283691 Z" fill="#FFFFFF" fill-rule="nonzero"></path>
        </g>
    </g>
</svg>