<?xml version="1.0" encoding="UTF-8"?>
<svg width="160px" height="190px" viewBox="0 0 160 190" version="1.1" xmlns="http://www.w3.org/2000/svg" xmlns:xlink="http://www.w3.org/1999/xlink">
    <!-- Generator: Sketch 59.1 (86144) - https://sketch.com -->
    <title>Notifications</title>
    <desc>Created with Sketch.</desc>
    <g id="Notifications" stroke="none" stroke-width="1" fill="none" fill-rule="evenodd">
        <path d="M41.3730469,107.251953 L118.765625,107.251953 C123.355469,107.251953 126.138672,104.859375 126.138672,101.34375 C126.138672,96.4609375 121.158203,92.0664062 116.958984,87.7207031 C113.736328,84.3515625 112.857422,77.4179688 112.466797,71.8027344 L112.440696,70.6847266 C111.922578,52.538457 106.884766,40.0195312 94.15625,35.4257812 C92.3007812,29.078125 87.2714844,24 80.0449219,24 C72.8671875,24 67.7890625,29.078125 65.9824219,35.4257812 C52.9941406,40.1132812 48.0136719,53.0527344 47.671875,71.8027344 L47.5775585,73.0546093 C47.1400812,78.4135571 46.1665396,84.598085 43.1796875,87.7207031 L42.0596866,88.8557614 C38.1112543,92.8343647 34,96.8855299 34,101.34375 C34,104.859375 36.734375,107.251953 41.3730469,107.251953 Z M80.0449219,126.783203 C71.7929688,126.783203 65.7382812,120.728516 65.1035156,113.892578 L95.0351562,113.892578 C94.4003906,120.728516 88.3457031,126.783203 80.0449219,126.783203 Z" fill="#007AFF" fill-rule="nonzero"></path>
        <path d="M50.3078101,165.351562 C53.5597632,165.351562 55.9425757,163.427734 56.274607,160.576172 L53.7941382,160.576172 C53.4523414,162.158203 52.0949195,163.164062 50.3078101,163.164062 C47.9054664,163.164062 46.4113257,161.162109 46.4113257,157.949219 C46.4113257,154.746094 47.9054664,152.744141 50.2980445,152.744141 C52.0753882,152.744141 53.4328101,153.847656 53.7843726,155.546875 L56.2648414,155.546875 C55.9718726,152.626953 53.5011695,150.556641 50.2980445,150.556641 C46.3039039,150.556641 43.8332007,153.378906 43.8332007,157.958984 C43.8332007,162.519531 46.3136695,165.351562 50.3078101,165.351562 Z M61.561001,165.175781 C62.9574854,165.175781 64.1293604,164.570312 64.7250635,163.535156 L64.8910791,163.535156 L64.8910791,165 L67.2250635,165 L67.2250635,157.705078 C67.2250635,155.449219 65.6820948,154.121094 62.9379541,154.121094 C60.3988916,154.121094 58.6313135,155.3125 58.436001,157.177734 L60.7211573,157.177734 C60.9457666,156.445312 61.7074854,156.044922 62.8207666,156.044922 C64.1293604,156.044922 64.8324854,156.640625 64.8324854,157.705078 L64.8324854,158.623047 L62.0785791,158.789062 C59.4809229,158.935547 58.0258448,160.058594 58.0258448,161.972656 C58.0258448,163.925781 59.5004541,165.175781 61.561001,165.175781 Z M62.2738916,163.310547 C61.1996729,163.310547 60.4281885,162.773438 60.4281885,161.855469 C60.4281885,160.966797 61.0629541,160.46875 62.420376,160.380859 L64.8324854,160.214844 L64.8324854,161.083984 C64.8324854,162.353516 63.7387354,163.310547 62.2738916,163.310547 Z M69.9430982,165 L72.3649732,165 L72.3649732,158.505859 C72.3649732,157.177734 73.253645,156.171875 74.4548169,156.171875 C75.6462232,156.171875 76.3884107,156.894531 76.3884107,158.076172 L76.3884107,165 L78.7419263,165 L78.7419263,158.330078 C78.7419263,157.109375 79.5720044,156.171875 80.83177,156.171875 C82.1305982,156.171875 82.784895,156.865234 82.784895,158.251953 L82.784895,165 L85.1970044,165 L85.1970044,157.65625 C85.1970044,155.439453 83.9079419,154.121094 81.76927,154.121094 C80.284895,154.121094 79.0544263,154.882812 78.5270825,156.044922 L78.3610669,156.044922 C77.9118482,154.863281 76.8864575,154.121094 75.4118482,154.121094 C73.9958325,154.121094 72.9020825,154.84375 72.4430982,156.044922 L72.2770825,156.044922 L72.2770825,154.326172 L69.9430982,154.326172 L69.9430982,165 Z M94.8388672,162.080078 C94.4873047,162.880859 93.6572266,163.330078 92.4560547,163.330078 C90.8642578,163.330078 89.8388672,162.197266 89.7802734,160.390625 L89.7802734,160.263672 L97.2412109,160.263672 L97.2412109,159.492188 C97.2412109,156.142578 95.4150391,154.121094 92.3681641,154.121094 C89.2724609,154.121094 87.3486328,156.279297 87.3486328,159.707031 C87.3486328,163.125 89.2431641,165.214844 92.3876953,165.214844 C94.9072266,165.214844 96.6943359,164.003906 97.1337891,162.080078 L94.8388672,162.080078 Z M92.3583984,156.005859 C93.8134766,156.005859 94.7705078,157.03125 94.8193359,158.652344 L89.7900391,158.652344 C89.8974609,157.050781 90.9130859,156.005859 92.3583984,156.005859 Z M99.48073,165 L101.902605,165 L101.902605,158.798828 C101.902605,157.294922 102.996355,156.318359 104.568621,156.318359 C104.978777,156.318359 105.623308,156.386719 105.808855,156.455078 L105.808855,154.248047 C105.584246,154.189453 105.154558,154.150391 104.802996,154.150391 C103.426042,154.150391 102.273699,154.931641 101.98073,155.986328 L101.814714,155.986328 L101.814714,154.326172 L99.48073,154.326172 L99.48073,165 Z M110.411655,165.175781 C111.80814,165.175781 112.980015,164.570312 113.575718,163.535156 L113.741733,163.535156 L113.741733,165 L116.075718,165 L116.075718,157.705078 C116.075718,155.449219 114.532749,154.121094 111.788608,154.121094 C109.249546,154.121094 107.481968,155.3125 107.286655,157.177734 L109.571811,157.177734 C109.796421,156.445312 110.55814,156.044922 111.671421,156.044922 C112.980015,156.044922 113.68314,156.640625 113.68314,157.705078 L113.68314,158.623047 L110.929233,158.789062 C108.331577,158.935547 106.876499,160.058594 106.876499,161.972656 C106.876499,163.925781 108.351108,165.175781 110.411655,165.175781 Z M111.124546,163.310547 C110.050327,163.310547 109.278843,162.773438 109.278843,161.855469 C109.278843,160.966797 109.913608,160.46875 111.27103,160.380859 L113.68314,160.214844 L113.68314,161.083984 C113.68314,162.353516 112.58939,163.310547 111.124546,163.310547 Z" id="Camera" fill="#007AFF" fill-rule="nonzero"></path>
    </g>
</svg>