<?xml version="1.0" encoding="UTF-8"?>
<svg width="210px" height="190px" viewBox="0 0 210 190" version="1.1" xmlns="http://www.w3.org/2000/svg" xmlns:xlink="http://www.w3.org/1999/xlink">
    <!-- Generator: Sketch 59.1 (86144) - https://sketch.com -->
    <title>Notifications</title>
    <desc>Created with Sketch.</desc>
    <g id="Notifications" stroke="none" stroke-width="1" fill="none" fill-rule="evenodd">
        <path d="M66.3730469,107.251953 L143.765625,107.251953 C148.355469,107.251953 151.138672,104.859375 151.138672,101.34375 C151.138672,96.4609375 146.158203,92.0664062 141.958984,87.7207031 C138.736328,84.3515625 137.857422,77.4179688 137.466797,71.8027344 L137.440696,70.6847266 C136.922578,52.538457 131.884766,40.0195312 119.15625,35.4257812 C117.300781,29.078125 112.271484,24 105.044922,24 C97.8671875,24 92.7890625,29.078125 90.9824219,35.4257812 C77.9941406,40.1132812 73.0136719,53.0527344 72.671875,71.8027344 L72.5775585,73.0546093 C72.1400812,78.4135571 71.1665396,84.598085 68.1796875,87.7207031 L67.0596866,88.8557614 C63.1112543,92.8343647 59,96.8855299 59,101.34375 C59,104.859375 61.734375,107.251953 66.3730469,107.251953 Z M105.044922,126.783203 C96.7929688,126.783203 90.7382812,120.728516 90.1035156,113.892578 L120.035156,113.892578 C119.400391,120.728516 113.345703,126.783203 105.044922,126.783203 Z" fill="#007AFF" fill-rule="nonzero"></path>
        <path d="M20.859375,178 L20.859375,162.1875 L21,162.1875 L32.203125,178 L35.671875,178 L35.671875,155.453125 L31.796875,155.453125 L31.796875,171.25 L31.65625,171.25 L20.46875,155.453125 L16.96875,155.453125 L16.96875,178 L20.859375,178 Z M46.59375,178.328125 C51.453125,178.328125 54.609375,175.09375 54.609375,169.71875 C54.609375,164.359375 51.421875,161.09375 46.59375,161.09375 C41.765625,161.09375 38.578125,164.375 38.578125,169.71875 C38.578125,175.09375 41.734375,178.328125 46.59375,178.328125 Z M46.59375,175.25 C44.125,175.25 42.53125,173.25 42.53125,169.71875 C42.53125,166.203125 44.140625,164.1875 46.59375,164.1875 C49.0625,164.1875 50.65625,166.203125 50.65625,169.71875 C50.65625,173.25 49.0625,175.25 46.59375,175.25 Z M58.1875,157.5625 L58.1875,161.4375 L55.8125,161.4375 L55.8125,164.4375 L58.1875,164.4375 L58.1875,173.59375 C58.1875,176.8125 59.59375,178.078125 63.171875,178.078125 C64,178.078125 64.765625,178.015625 65.1875,177.921875 L65.1875,174.953125 C64.9375,175 64.4375,175.03125 64.078125,175.03125 C62.703125,175.03125 62.078125,174.40625 62.078125,173.046875 L62.078125,164.4375 L65.203125,164.4375 L65.203125,161.4375 L62.078125,161.4375 L62.078125,157.5625 L58.1875,157.5625 Z M69.875,158.9375 C71.0625,158.9375 72,157.984375 72,156.828125 C72,155.65625 71.0625,154.71875 69.875,154.71875 C68.6875,154.71875 67.734375,155.65625 67.734375,156.828125 C67.734375,157.984375 68.6875,158.9375 69.875,158.9375 Z M67.9375,178 L71.828125,178 L71.828125,161.4375 L67.9375,161.4375 L67.9375,178 Z M76.171875,178 L80.0625,178 L80.0625,164.4375 L83.3125,164.4375 L83.3125,161.484375 L80,161.484375 L80,160.125 C80,158.78125 80.671875,158.078125 82.15625,158.078125 C82.609375,158.078125 83.0625,158.125 83.390625,158.171875 L83.390625,155.453125 C82.90625,155.359375 82.0625,155.28125 81.296875,155.28125 C77.703125,155.28125 76.171875,156.796875 76.171875,160.015625 L76.171875,161.484375 L73.90625,161.484375 L73.90625,164.4375 L76.171875,164.4375 L76.171875,178 Z M87.90625,158.9375 C89.09375,158.9375 90.03125,157.984375 90.03125,156.828125 C90.03125,155.65625 89.09375,154.71875 87.90625,154.71875 C86.71875,154.71875 85.765625,155.65625 85.765625,156.828125 C85.765625,157.984375 86.71875,158.9375 87.90625,158.9375 Z M85.96875,178 L89.859375,178 L89.859375,161.4375 L85.96875,161.4375 L85.96875,178 Z M107.71875,167.34375 C107.453125,163.859375 104.75,161.09375 100.375,161.09375 C95.5625,161.09375 92.4375,164.421875 92.4375,169.71875 C92.4375,175.09375 95.5625,178.328125 100.40625,178.328125 C104.5625,178.328125 107.421875,175.890625 107.734375,172.1875 L104.0625,172.1875 C103.703125,174.0625 102.421875,175.1875 100.453125,175.1875 C97.984375,175.1875 96.390625,173.1875 96.390625,169.71875 C96.390625,166.3125 97.96875,164.25 100.421875,164.25 C102.5,164.25 103.734375,165.578125 104.046875,167.34375 L107.71875,167.34375 Z M114.921875,178.265625 C117.046875,178.265625 119.125,177.15625 120.078125,175.359375 L120.15625,175.359375 L120.15625,178 L123.90625,178 L123.90625,166.59375 C123.90625,163.265625 121.234375,161.09375 117.125,161.09375 C112.90625,161.09375 110.265625,163.3125 110.09375,166.40625 L113.703125,166.40625 C113.953125,165.03125 115.125,164.140625 116.96875,164.140625 C118.890625,164.140625 120.0625,165.140625 120.0625,166.875 L120.0625,168.0625 L115.6875,168.3125 C111.65625,168.5625 109.390625,170.328125 109.390625,173.265625 C109.390625,176.25 111.71875,178.265625 114.921875,178.265625 Z M116.09375,175.328125 C114.40625,175.328125 113.28125,174.46875 113.28125,173.109375 C113.28125,171.796875 114.359375,170.953125 116.234375,170.828125 L120.0625,170.59375 L120.0625,171.859375 C120.0625,173.859375 118.296875,175.328125 116.09375,175.328125 Z M128.109375,157.5625 L128.109375,161.4375 L125.734375,161.4375 L125.734375,164.4375 L128.109375,164.4375 L128.109375,173.59375 C128.109375,176.8125 129.515625,178.078125 133.09375,178.078125 C133.921875,178.078125 134.6875,178.015625 135.109375,177.921875 L135.109375,174.953125 C134.859375,175 134.359375,175.03125 134,175.03125 C132.625,175.03125 132,174.40625 132,173.046875 L132,164.4375 L135.125,164.4375 L135.125,161.4375 L132,161.4375 L132,157.5625 L128.109375,157.5625 Z M139.796875,158.9375 C140.984375,158.9375 141.921875,157.984375 141.921875,156.828125 C141.921875,155.65625 140.984375,154.71875 139.796875,154.71875 C138.609375,154.71875 137.65625,155.65625 137.65625,156.828125 C137.65625,157.984375 138.609375,158.9375 139.796875,158.9375 Z M137.859375,178 L141.75,178 L141.75,161.4375 L137.859375,161.4375 L137.859375,178 Z M152.34375,178.328125 C157.203125,178.328125 160.359375,175.09375 160.359375,169.71875 C160.359375,164.359375 157.171875,161.09375 152.34375,161.09375 C147.515625,161.09375 144.328125,164.375 144.328125,169.71875 C144.328125,175.09375 147.484375,178.328125 152.34375,178.328125 Z M152.34375,175.25 C149.875,175.25 148.28125,173.25 148.28125,169.71875 C148.28125,166.203125 149.890625,164.1875 152.34375,164.1875 C154.8125,164.1875 156.40625,166.203125 156.40625,169.71875 C156.40625,173.25 154.8125,175.25 152.34375,175.25 Z M162.859375,178 L166.75,178 L166.75,168.40625 C166.75,166.03125 168.171875,164.421875 170.40625,164.421875 C172.625,164.421875 173.71875,165.734375 173.71875,168.078125 L173.71875,178 L177.609375,178 L177.609375,167.296875 C177.609375,163.46875 175.53125,161.125 171.875,161.125 C169.328125,161.125 167.5625,162.3125 166.671875,164.28125 L166.59375,164.28125 L166.59375,161.4375 L162.859375,161.4375 L162.859375,178 Z M180.421875,166.1875 C180.421875,163.15625 183.0625,161.09375 187.0625,161.09375 C191.09375,161.09375 193.65625,163.265625 193.75,166.40625 L190.125,166.40625 C189.96875,164.90625 188.859375,163.953125 187.0625,163.953125 C185.34375,163.953125 184.203125,164.765625 184.203125,165.984375 C184.203125,166.9375 184.890625,167.59375 186.625,167.984375 L189.375,168.59375 C192.8125,169.359375 194.140625,170.6875 194.140625,173.09375 C194.140625,176.21875 191.265625,178.328125 187.203125,178.328125 C182.875,178.328125 180.3125,176.265625 180,173.0625 L183.828125,173.0625 C184.125,174.671875 185.234375,175.484375 187.203125,175.484375 C189.09375,175.484375 190.265625,174.703125 190.265625,173.46875 C190.265625,172.46875 189.671875,171.90625 187.9375,171.515625 L185.1875,170.90625 C182.015625,170.203125 180.421875,168.640625 180.421875,166.1875 Z" fill="#007AFF" fill-rule="nonzero"></path>
    </g>
</svg>