<?xml version="1.0" encoding="UTF-8"?>
<svg width="160px" height="190px" viewBox="0 0 160 190" version="1.1" xmlns="http://www.w3.org/2000/svg" xmlns:xlink="http://www.w3.org/1999/xlink">
    <!-- Generator: Sketch 59.1 (86144) - https://sketch.com -->
    <title>Notifications</title>
    <desc>Created with Sketch.</desc>
    <g id="Notifications" stroke="none" stroke-width="1" fill="none" fill-rule="evenodd">
        <path d="M41.3730469,107.251953 L118.765625,107.251953 C123.355469,107.251953 126.138672,104.859375 126.138672,101.34375 C126.138672,96.4609375 121.158203,92.0664062 116.958984,87.7207031 C113.736328,84.3515625 112.857422,77.4179688 112.466797,71.8027344 L112.440696,70.6847266 C111.922578,52.538457 106.884766,40.0195312 94.15625,35.4257812 C92.3007812,29.078125 87.2714844,24 80.0449219,24 C72.8671875,24 67.7890625,29.078125 65.9824219,35.4257812 C52.9941406,40.1132812 48.0136719,53.0527344 47.671875,71.8027344 L47.5775585,73.0546093 C47.1400812,78.4135571 46.1665396,84.598085 43.1796875,87.7207031 L42.0596866,88.8557614 C38.1112543,92.8343647 34,96.8855299 34,101.34375 C34,104.859375 36.734375,107.251953 41.3730469,107.251953 Z M80.0449219,126.783203 C71.7929688,126.783203 65.7382812,120.728516 65.1035156,113.892578 L95.0351562,113.892578 C94.4003906,120.728516 88.3457031,126.783203 80.0449219,126.783203 Z" fill="#007AFF" fill-rule="nonzero"></path>
        <path d="M34.703125,168.117188 L34.703125,159.929688 L34.828125,159.929688 L40.6171875,168.117188 L42.1953125,168.117188 L42.1953125,156.84375 L40.4921875,156.84375 L40.4921875,165.046875 L40.3671875,165.046875 L34.578125,156.84375 L33,156.84375 L33,168.117188 L34.703125,168.117188 Z M48.2681777,168.28125 C50.7525527,168.28125 52.2759902,166.617188 52.2759902,163.875 C52.2759902,161.132812 50.7447402,159.46875 48.2681777,159.46875 C45.7838027,159.46875 44.2525527,161.140625 44.2525527,163.875 C44.2525527,166.617188 45.7759902,168.28125 48.2681777,168.28125 Z M48.2681777,166.851562 C46.8072402,166.851562 45.9869277,165.765625 45.9869277,163.875 C45.9869277,161.984375 46.8072402,160.890625 48.2681777,160.890625 C49.7213027,160.890625 50.5494277,161.984375 50.5494277,163.875 C50.5494277,165.757812 49.7213027,166.851562 48.2681777,166.851562 Z M54.7316679,157.492188 L54.7316679,159.65625 L53.3801054,159.65625 L53.3801054,161 L54.7316679,161 L54.7316679,165.882812 C54.7316679,167.515625 55.4738554,168.171875 57.3410429,168.171875 C57.6691679,168.171875 57.9816679,168.132812 58.2551054,168.085938 L58.2551054,166.75 L57.943582,166.77832 C57.8449492,166.785156 57.7433867,166.789062 57.6144804,166.789062 C56.7785429,166.789062 56.4113554,166.390625 56.4113554,165.476562 L56.4113554,161 L58.2551054,161 L58.2551054,159.65625 L56.4113554,159.65625 L56.4113554,157.492188 L54.7316679,157.492188 Z M60.9451582,158.117188 C61.5310957,158.117188 62.0076582,157.640625 62.0076582,157.0625 C62.0076582,156.476562 61.5310957,156 60.9451582,156 C60.3592207,156 59.8826582,156.476562 59.8826582,157.0625 C59.8826582,157.640625 60.3592207,158.117188 60.9451582,158.117188 Z M60.1092207,168.117188 L61.7810957,168.117188 L61.7810957,159.632812 L60.1092207,159.632812 L60.1092207,168.117188 Z M64.6977109,168.117188 L66.3773984,168.117188 L66.3773984,161 L68.2523984,161 L68.2523984,159.65625 L66.3539609,159.65625 L66.3539609,158.820312 C66.3539609,157.960938 66.7367734,157.53125 67.6742734,157.53125 C67.9398984,157.53125 68.1664609,157.546875 68.3227109,157.570312 L68.3227109,156.304688 C68.0336484,156.257812 67.7055234,156.226562 67.3227109,156.226562 C65.5570859,156.226562 64.6977109,157.054688 64.6977109,158.742188 L64.6977109,159.65625 L63.2992734,159.65625 L63.2992734,161 L64.6977109,161 L64.6977109,168.117188 Z M70.8643261,158.117188 C71.4502636,158.117188 71.9268261,157.640625 71.9268261,157.0625 C71.9268261,156.476562 71.4502636,156 70.8643261,156 C70.2783886,156 69.8018261,156.476562 69.8018261,157.0625 C69.8018261,157.640625 70.2783886,158.117188 70.8643261,158.117188 Z M70.0283886,168.117188 L71.7002636,168.117188 L71.7002636,159.632812 L70.0283886,159.632812 L70.0283886,168.117188 Z M81.2184413,162.359375 C80.9996913,160.710938 79.7106288,159.46875 77.5778163,159.46875 C75.1012538,159.46875 73.5934413,161.148438 73.5934413,163.84375 C73.5934413,166.59375 75.1090663,168.28125 77.5856288,168.28125 C79.6871913,168.28125 80.9996913,167.101562 81.2184413,165.429688 L79.5856288,165.429688 C79.3668788,166.351562 78.6403163,166.851562 77.5778163,166.851562 C76.1793788,166.851562 75.3121913,165.71875 75.3121913,163.84375 C75.3121913,162.007812 76.1715663,160.898438 77.5778163,160.898438 C78.7028163,160.898438 79.3903163,161.53125 79.5856288,162.359375 L81.2184413,162.359375 Z M85.330369,168.257812 C86.4475565,168.257812 87.377244,167.773438 87.8850565,166.914062 L88.017869,166.914062 L88.017869,168.117188 L89.6350565,168.117188 L89.6350565,162.3125 C89.6350565,160.53125 88.4319315,159.46875 86.299119,159.46875 C84.3694315,159.46875 82.9944315,160.398438 82.8225565,161.828125 L84.4475565,161.828125 C84.6350565,161.210938 85.283494,160.859375 86.220994,160.859375 C87.3694315,160.859375 87.9631815,161.382812 87.9631815,162.3125 L87.9631815,163.054688 L85.658494,163.195312 C83.6350565,163.320312 82.4944315,164.203125 82.4944315,165.726562 C82.4944315,167.273438 83.689744,168.257812 85.330369,168.257812 Z M85.7600565,166.90625 C84.845994,166.90625 84.1819315,166.445312 84.1819315,165.65625 C84.1819315,164.882812 84.7131815,164.46875 85.8850565,164.390625 L87.9631815,164.25 L87.9631815,164.984375 C87.9631815,166.078125 87.0256815,166.90625 85.7600565,166.90625 Z M92.4657343,157.492188 L92.4657343,159.65625 L91.1141718,159.65625 L91.1141718,161 L92.4657343,161 L92.4657343,165.882812 C92.4657343,167.515625 93.2079218,168.171875 95.0751093,168.171875 C95.4032343,168.171875 95.7157343,168.132812 95.9891718,168.085938 L95.9891718,166.75 L95.6776483,166.77832 C95.5790155,166.785156 95.477453,166.789062 95.3485468,166.789062 C94.5126093,166.789062 94.1454218,166.390625 94.1454218,165.476562 L94.1454218,161 L95.9891718,161 L95.9891718,159.65625 L94.1454218,159.65625 L94.1454218,157.492188 L92.4657343,157.492188 Z M98.6792245,158.117188 C99.265162,158.117188 99.7417245,157.640625 99.7417245,157.0625 C99.7417245,156.476562 99.265162,156 98.6792245,156 C98.093287,156 97.6167245,156.476562 97.6167245,157.0625 C97.6167245,157.640625 98.093287,158.117188 98.6792245,158.117188 Z M97.843287,168.117188 L99.515162,168.117188 L99.515162,159.632812 L97.843287,159.632812 L97.843287,168.117188 Z M105.423965,168.28125 C107.90834,168.28125 109.431777,166.617188 109.431777,163.875 C109.431777,161.132812 107.900527,159.46875 105.423965,159.46875 C102.93959,159.46875 101.40834,161.140625 101.40834,163.875 C101.40834,166.617188 102.931777,168.28125 105.423965,168.28125 Z M105.423965,166.851562 C103.963027,166.851562 103.142715,165.765625 103.142715,163.875 C103.142715,161.984375 103.963027,160.890625 105.423965,160.890625 C106.87709,160.890625 107.705215,161.984375 107.705215,163.875 C107.705215,165.757812 106.87709,166.851562 105.423965,166.851562 Z M111.293705,168.117188 L112.973392,168.117188 L112.973392,163.140625 C112.973392,161.773438 113.762455,160.929688 115.004642,160.929688 C116.24683,160.929688 116.84058,161.617188 116.84058,163.023438 L116.84058,168.117188 L118.520267,168.117188 L118.520267,162.625 C118.520267,160.601562 117.473392,159.46875 115.574955,159.46875 C114.293705,159.46875 113.449955,160.039062 113.035892,160.976562 L112.910892,160.976562 L112.910892,159.632812 L111.293705,159.632812 L111.293705,168.117188 Z M120.530633,162.007812 C120.530633,160.53125 121.913445,159.46875 123.83532,159.46875 C125.749383,159.46875 126.999383,160.359375 127.163445,161.828125 L125.55407,161.828125 C125.39782,161.195312 124.788445,160.78125 123.83532,160.78125 C122.89782,160.78125 122.186883,161.242188 122.186883,161.929688 C122.186883,162.453125 122.61657,162.78125 123.538445,163 L124.952508,163.328125 C126.569695,163.703125 127.327508,164.398438 127.327508,165.632812 C127.327508,167.210938 125.83532,168.28125 123.80407,168.28125 C121.780633,168.28125 120.46032,167.367188 120.311883,165.890625 L121.99157,165.890625 C122.202508,166.554688 122.827508,166.96875 123.843133,166.96875 C124.890008,166.96875 125.632195,166.484375 125.632195,165.789062 C125.632195,165.257812 125.233758,164.914062 124.382195,164.710938 L122.89782,164.359375 C121.280633,163.984375 120.530633,163.265625 120.530633,162.007812 Z" fill="#007AFF" fill-rule="nonzero"></path>
    </g>
</svg>