<?xml version="1.0" encoding="UTF-8"?>
<svg width="190px" height="190px" viewBox="0 0 190 190" version="1.1" xmlns="http://www.w3.org/2000/svg" xmlns:xlink="http://www.w3.org/1999/xlink">
    <!-- Generator: Sketch 59.1 (86144) - https://sketch.com -->
    <title>Notifications</title>
    <desc>Created with Sketch.</desc>
    <g id="Notifications" stroke="none" stroke-width="1" fill="none" fill-rule="evenodd">
        <path d="M56.3730469,107.251953 L133.765625,107.251953 C138.355469,107.251953 141.138672,104.859375 141.138672,101.34375 C141.138672,96.4609375 136.158203,92.0664062 131.958984,87.7207031 C128.736328,84.3515625 127.857422,77.4179688 127.466797,71.8027344 L127.440696,70.6847266 C126.922578,52.538457 121.884766,40.0195312 109.15625,35.4257812 C107.300781,29.078125 102.271484,24 95.0449219,24 C87.8671875,24 82.7890625,29.078125 80.9824219,35.4257812 C67.9941406,40.1132812 63.0136719,53.0527344 62.671875,71.8027344 L62.5775585,73.0546093 C62.1400812,78.4135571 61.1665396,84.598085 58.1796875,87.7207031 L57.0596866,88.8557614 C53.1112543,92.8343647 49,96.8855299 49,101.34375 C49,104.859375 51.734375,107.251953 56.3730469,107.251953 Z M95.0449219,126.783203 C86.7929688,126.783203 80.7382812,120.728516 80.1035156,113.892578 L110.035156,113.892578 C109.400391,120.728516 103.345703,126.783203 95.0449219,126.783203 Z" fill="#007AFF" fill-rule="nonzero"></path>
        <path d="M25.9179688,165.398438 L25.9179688,153.75 L26.1171875,153.75 L34.4140625,165.398438 L37.0273438,165.398438 L37.0273438,148.488281 L34.1210938,148.488281 L34.1210938,160.136719 L33.921875,160.136719 L25.625,148.488281 L23,148.488281 L23,165.398438 L25.9179688,165.398438 Z M46.2069541,165.65625 C50.0389853,165.65625 52.3710166,163.148438 52.3710166,158.988281 C52.3710166,154.851562 50.0272666,152.34375 46.2069541,152.34375 C42.3983603,152.34375 40.0428916,154.863281 40.0428916,158.988281 C40.0428916,163.148438 42.3632041,165.65625 46.2069541,165.65625 Z M46.2069541,163.277344 C44.1796103,163.277344 43.0194541,161.707031 43.0194541,159 C43.0194541,156.292969 44.1796103,154.722656 46.2069541,154.722656 C48.2225791,154.722656 49.3827353,156.292969 49.3827353,159 C49.3827353,161.707031 48.2342978,163.277344 46.2069541,163.277344 Z M55.9959394,149.449219 L55.9959394,152.671875 L53.9685957,152.671875 L53.9685957,154.933594 L55.9959394,154.933594 L55.9959394,162 C55.9959394,164.472656 57.1678144,165.457031 60.1092207,165.457031 C60.6717207,165.457031 61.2107832,165.410156 61.6326582,165.328125 L61.6326582,163.101562 L61.2524082,163.137375 C61.0729707,163.151719 60.8943769,163.160156 60.6482832,163.160156 C59.4295332,163.160156 58.8904707,162.585938 58.8904707,161.308594 L58.8904707,154.933594 L61.6326582,154.933594 L61.6326582,152.671875 L58.8904707,152.671875 L58.8904707,149.449219 L55.9959394,149.449219 Z M65.7849247,150.445312 C66.7458622,150.445312 67.5310185,149.683594 67.5310185,148.722656 C67.5310185,147.773438 66.7458622,147 65.7849247,147 C64.835706,147 64.0505497,147.773438 64.0505497,148.722656 C64.0505497,149.683594 64.835706,150.445312 65.7849247,150.445312 Z M64.3435185,165.398438 L67.2380497,165.398438 L67.2380497,152.589844 L64.3435185,152.589844 L64.3435185,165.398438 Z M71.5426601,165.398438 L74.4371913,165.398438 L74.4371913,154.933594 L77.1910976,154.933594 L77.1910976,152.671875 L74.4020351,152.671875 L74.4020351,151.488281 C74.4020351,150.269531 74.9410976,149.660156 76.3121913,149.660156 C76.7223476,149.660156 77.0739101,149.695312 77.3082851,149.730469 L77.3082851,147.632812 C76.8395351,147.550781 76.3121913,147.515625 75.6910976,147.515625 C72.8434413,147.515625 71.5426601,148.769531 71.5426601,151.324219 L71.5426601,152.671875 L69.4450038,152.671875 L69.4450038,154.933594 L71.5426601,154.933594 L71.5426601,165.398438 Z M81.2378954,150.445312 C82.1988329,150.445312 82.9839892,149.683594 82.9839892,148.722656 C82.9839892,147.773438 82.1988329,147 81.2378954,147 C80.2886767,147 79.5035204,147.773438 79.5035204,148.722656 C79.5035204,149.683594 80.2886767,150.445312 81.2378954,150.445312 Z M79.7964892,165.398438 L82.6910204,165.398438 L82.6910204,152.589844 L79.7964892,152.589844 L79.7964892,165.398438 Z M97.1323495,156.867188 C96.827662,154.21875 94.8354745,152.34375 91.5425057,152.34375 C87.687037,152.34375 85.4253182,154.816406 85.4253182,158.964844 C85.4253182,163.160156 87.6987557,165.65625 91.5542245,165.65625 C94.8003182,165.65625 96.8159432,163.851562 97.1323495,161.203125 L94.3667245,161.203125 C94.062037,162.550781 93.0542245,163.265625 91.5425057,163.265625 C89.562037,163.265625 88.3667245,161.683594 88.3667245,158.964844 C88.3667245,156.292969 89.5503182,154.722656 91.5425057,154.722656 C93.1362557,154.722656 94.0971932,155.625 94.3667245,156.867188 L97.1323495,156.867188 Z M103.206491,165.609375 C104.882272,165.609375 106.288522,164.882812 107.003366,163.640625 L107.202585,163.640625 L107.202585,165.398438 L110.003366,165.398438 L110.003366,156.644531 C110.003366,153.9375 108.151804,152.34375 104.858835,152.34375 C101.81196,152.34375 99.6908661,153.773438 99.4564911,156.011719 L102.198679,156.011719 C102.46821,155.132812 103.382272,154.652344 104.71821,154.652344 C106.288522,154.652344 107.132272,155.367188 107.132272,156.644531 L107.132272,157.746094 L103.827585,157.945312 C100.710397,158.121094 98.9643036,159.46875 98.9643036,161.765625 C98.9643036,164.109375 100.733835,165.609375 103.206491,165.609375 Z M104.06196,163.371094 C102.772897,163.371094 101.847116,162.726562 101.847116,161.625 C101.847116,160.558594 102.608835,159.960938 104.237741,159.855469 L107.132272,159.65625 L107.132272,160.699219 C107.132272,162.222656 105.819772,163.371094 104.06196,163.371094 Z M114.190789,149.449219 L114.190789,152.671875 L112.163445,152.671875 L112.163445,154.933594 L114.190789,154.933594 L114.190789,162 C114.190789,164.472656 115.362664,165.457031 118.30407,165.457031 C118.86657,165.457031 119.405633,165.410156 119.827508,165.328125 L119.827508,163.101562 L119.447258,163.137375 C119.26782,163.151719 119.089226,163.160156 118.843133,163.160156 C117.624383,163.160156 117.08532,162.585938 117.08532,161.308594 L117.08532,154.933594 L119.827508,154.933594 L119.827508,152.671875 L117.08532,152.671875 L117.08532,149.449219 L114.190789,149.449219 Z M123.979774,150.445312 C124.940712,150.445312 125.725868,149.683594 125.725868,148.722656 C125.725868,147.773438 124.940712,147 123.979774,147 C123.030555,147 122.245399,147.773438 122.245399,148.722656 C122.245399,149.683594 123.030555,150.445312 123.979774,150.445312 Z M122.538368,165.398438 L125.432899,165.398438 L125.432899,152.589844 L122.538368,152.589844 L122.538368,165.398438 Z M134.33126,165.65625 C138.163291,165.65625 140.495322,163.148438 140.495322,158.988281 C140.495322,154.851562 138.151572,152.34375 134.33126,152.34375 C130.522666,152.34375 128.167197,154.863281 128.167197,158.988281 C128.167197,163.148438 130.48751,165.65625 134.33126,165.65625 Z M134.33126,163.277344 C132.303916,163.277344 131.14376,161.707031 131.14376,159 C131.14376,156.292969 132.303916,154.722656 134.33126,154.722656 C136.346885,154.722656 137.507041,156.292969 137.507041,159 C137.507041,161.707031 136.358603,163.277344 134.33126,163.277344 Z M143.194464,165.398438 L146.100714,165.398438 L146.100714,157.933594 C146.100714,156.011719 147.190557,154.804688 148.924932,154.804688 C150.694464,154.804688 151.514776,155.800781 151.514776,157.792969 L151.514776,165.398438 L154.421026,165.398438 L154.421026,157.113281 C154.421026,154.066406 152.862432,152.34375 150.003057,152.34375 C148.092901,152.34375 146.803839,153.210938 146.194464,154.640625 L145.995245,154.640625 L145.995245,152.589844 L143.194464,152.589844 L143.194464,165.398438 Z M157.342824,156.246094 C157.342824,153.949219 159.452199,152.34375 162.475636,152.34375 C165.522511,152.34375 167.432668,153.679688 167.643605,155.988281 L164.913136,155.988281 C164.702199,155.085938 163.84673,154.5 162.487355,154.5 C161.163136,154.5 160.167043,155.144531 160.167043,156.09375 C160.167043,156.820312 160.776418,157.277344 162.06548,157.582031 L164.327199,158.085938 C166.776418,158.648438 167.913136,159.691406 167.913136,161.578125 C167.913136,164.027344 165.651418,165.65625 162.452199,165.65625 C159.25298,165.65625 157.237355,164.273438 157.014699,161.964844 L159.885793,161.964844 C160.167043,162.914062 161.069386,163.5 162.522511,163.5 C163.987355,163.5 165.006886,162.832031 165.006886,161.859375 C165.006886,161.132812 164.456105,160.664062 163.237355,160.382812 L160.963918,159.855469 C158.50298,159.292969 157.342824,158.167969 157.342824,156.246094 Z" fill="#007AFF" fill-rule="nonzero"></path>
    </g>
</svg>