<?xml version="1.0" encoding="UTF-8"?>
<svg width="150px" height="190px" viewBox="0 0 150 190" version="1.1" xmlns="http://www.w3.org/2000/svg" xmlns:xlink="http://www.w3.org/1999/xlink">
    <!-- Generator: Sketch 59.1 (86144) - https://sketch.com -->
    <title>Notifications</title>
    <desc>Created with Sketch.</desc>
    <g id="Notifications" stroke="none" stroke-width="1" fill="none" fill-rule="evenodd">
        <path d="M36.3730469,107.251953 L113.765625,107.251953 C118.355469,107.251953 121.138672,104.859375 121.138672,101.34375 C121.138672,96.4609375 116.158203,92.0664062 111.958984,87.7207031 C108.736328,84.3515625 107.857422,77.4179688 107.466797,71.8027344 L107.440696,70.6847266 C106.922578,52.538457 101.884766,40.0195312 89.15625,35.4257812 C87.3007812,29.078125 82.2714844,24 75.0449219,24 C67.8671875,24 62.7890625,29.078125 60.9824219,35.4257812 C47.9941406,40.1132812 43.0136719,53.0527344 42.671875,71.8027344 L42.5775585,73.0546093 C42.1400812,78.4135571 41.1665396,84.598085 38.1796875,87.7207031 L37.0596866,88.8557614 C33.1112543,92.8343647 29,96.8855299 29,101.34375 C29,104.859375 31.734375,107.251953 36.3730469,107.251953 Z M75.0449219,126.783203 C66.7929688,126.783203 60.7382812,120.728516 60.1035156,113.892578 L90.0351562,113.892578 C89.4003906,120.728516 83.3457031,126.783203 75.0449219,126.783203 Z" fill="#007AFF" fill-rule="nonzero"></path>
        <path d="M11.7862671,168 L11.7862671,157.322266 L11.9688843,157.322266 L19.574353,168 L21.9698608,168 L21.9698608,152.499023 L19.3057983,152.499023 L19.3057983,163.176758 L19.1231812,163.176758 L11.5177124,152.499023 L9.11146241,152.499023 L9.11146241,168 L11.7862671,168 Z M30.3845036,168.236328 C33.897199,168.236328 36.0348943,165.9375 36.0348943,162.124023 C36.0348943,158.332031 33.8864568,156.033203 30.3845036,156.033203 C26.8932927,156.033203 24.734113,158.342773 24.734113,162.124023 C24.734113,165.9375 26.8610661,168.236328 30.3845036,168.236328 Z M30.3845036,166.055664 C28.5261052,166.055664 27.4626286,164.616211 27.4626286,162.134766 C27.4626286,159.65332 28.5261052,158.213867 30.3845036,158.213867 C32.2321599,158.213867 33.2956365,159.65332 33.2956365,162.134766 C33.2956365,164.616211 32.2429021,166.055664 30.3845036,166.055664 Z M39.3577402,153.379883 L39.3577402,156.333984 L37.4993418,156.333984 L37.4993418,158.407227 L39.3577402,158.407227 L39.3577402,164.884766 C39.3577402,167.151367 40.431959,168.053711 43.128248,168.053711 C43.643873,168.053711 44.1380136,168.010742 44.5247324,167.935547 L44.5247324,165.894531 L44.1761699,165.927359 C44.0116855,165.940508 43.8479746,165.948242 43.6223886,165.948242 C42.5052011,165.948242 42.0110605,165.421875 42.0110605,164.250977 L42.0110605,158.407227 L44.5247324,158.407227 L44.5247324,156.333984 L42.0110605,156.333984 L42.0110605,153.379883 L39.3577402,153.379883 Z M48.3309768,154.292969 C49.2118361,154.292969 49.9315627,153.594727 49.9315627,152.713867 C49.9315627,151.84375 49.2118361,151.134766 48.3309768,151.134766 C47.4608596,151.134766 46.741133,151.84375 46.741133,152.713867 C46.741133,153.594727 47.4608596,154.292969 48.3309768,154.292969 Z M47.0096877,168 L49.663008,168 L49.663008,156.258789 L47.0096877,156.258789 L47.0096877,168 Z M53.6089008,168 L56.2622211,168 L56.2622211,158.407227 L58.7866352,158.407227 L58.7866352,156.333984 L56.2299946,156.333984 L56.2299946,155.249023 C56.2299946,154.131836 56.7241352,153.573242 57.9809711,153.573242 C58.3569477,153.573242 58.6792133,153.605469 58.8940571,153.637695 L58.8940571,151.714844 C58.4643696,151.639648 57.9809711,151.607422 57.4116352,151.607422 C54.8012836,151.607422 53.6089008,152.756836 53.6089008,155.098633 L53.6089008,156.333984 L51.6860492,156.333984 L51.6860492,158.407227 L53.6089008,158.407227 L53.6089008,168 Z M62.4961999,154.292969 C63.3770592,154.292969 64.0967858,153.594727 64.0967858,152.713867 C64.0967858,151.84375 63.3770592,151.134766 62.4961999,151.134766 C61.6260827,151.134766 60.9063561,151.84375 60.9063561,152.713867 C60.9063561,153.594727 61.6260827,154.292969 62.4961999,154.292969 Z M61.1749108,168 L63.8282311,168 L63.8282311,156.258789 L61.1749108,156.258789 L61.1749108,168 Z M77.0661161,160.179688 C76.7868192,157.751953 74.9606473,156.033203 71.9420927,156.033203 C68.407913,156.033203 66.3346708,158.299805 66.3346708,162.102539 C66.3346708,165.948242 68.4186552,168.236328 71.9528348,168.236328 C74.9284208,168.236328 76.776077,166.582031 77.0661161,164.154297 L74.5309598,164.154297 C74.251663,165.389648 73.3278348,166.044922 71.9420927,166.044922 C70.126663,166.044922 69.0309598,164.594727 69.0309598,162.102539 C69.0309598,159.65332 70.1159208,158.213867 71.9420927,158.213867 C73.4030302,158.213867 74.2838895,159.041016 74.5309598,160.179688 L77.0661161,160.179688 Z M82.6340792,168.193359 C84.170212,168.193359 85.4592745,167.527344 86.114548,166.388672 L86.2971652,166.388672 L86.2971652,168 L88.864548,168 L88.864548,159.975586 C88.864548,157.494141 87.1672823,156.033203 84.1487277,156.033203 C81.3557589,156.033203 79.411423,157.34375 79.1965792,159.395508 L81.7102511,159.395508 C81.9573214,158.589844 82.795212,158.149414 84.0198214,158.149414 C85.4592745,158.149414 86.232712,158.804688 86.232712,159.975586 L86.232712,160.985352 L83.2034152,161.167969 C80.3459933,161.329102 78.7454073,162.564453 78.7454073,164.669922 C78.7454073,166.818359 80.3674777,168.193359 82.6340792,168.193359 Z M83.4182589,166.141602 C82.2366183,166.141602 81.3879855,165.550781 81.3879855,164.541016 C81.3879855,163.563477 82.0862277,163.015625 83.5793917,162.918945 L86.232712,162.736328 L86.232712,163.692383 C86.232712,165.088867 85.029587,166.141602 83.4182589,166.141602 Z M92.7030189,153.379883 L92.7030189,156.333984 L90.8446205,156.333984 L90.8446205,158.407227 L92.7030189,158.407227 L92.7030189,164.884766 C92.7030189,167.151367 93.7772376,168.053711 96.4735267,168.053711 C96.9891517,168.053711 97.4832923,168.010742 97.8700111,167.935547 L97.8700111,165.894531 L97.5214486,165.927359 C97.3569642,165.940508 97.1932533,165.948242 96.9676673,165.948242 C95.8504798,165.948242 95.3563392,165.421875 95.3563392,164.250977 L95.3563392,158.407227 L97.8700111,158.407227 L97.8700111,156.333984 L95.3563392,156.333984 L95.3563392,153.379883 L92.7030189,153.379883 Z M101.676255,154.292969 C102.557115,154.292969 103.276841,153.594727 103.276841,152.713867 C103.276841,151.84375 102.557115,151.134766 101.676255,151.134766 C100.806138,151.134766 100.086412,151.84375 100.086412,152.713867 C100.086412,153.594727 100.806138,154.292969 101.676255,154.292969 Z M100.354966,168 L103.008287,168 L103.008287,156.258789 L100.354966,156.258789 L100.354966,168 Z M111.165117,168.236328 C114.677812,168.236328 116.815508,165.9375 116.815508,162.124023 C116.815508,158.332031 114.66707,156.033203 111.165117,156.033203 C107.673906,156.033203 105.514726,158.342773 105.514726,162.124023 C105.514726,165.9375 107.641679,168.236328 111.165117,168.236328 Z M111.165117,166.055664 C109.306719,166.055664 108.243242,164.616211 108.243242,162.134766 C108.243242,159.65332 109.306719,158.213867 111.165117,158.213867 C113.012773,158.213867 114.07625,159.65332 114.07625,162.134766 C114.07625,164.616211 113.023515,166.055664 111.165117,166.055664 Z M119.289721,168 L121.953783,168 L121.953783,161.157227 C121.953783,159.395508 122.952807,158.289062 124.54265,158.289062 C126.164721,158.289062 126.916674,159.202148 126.916674,161.02832 L126.916674,168 L129.580736,168 L129.580736,160.405273 C129.580736,157.612305 128.152025,156.033203 125.530932,156.033203 C123.779955,156.033203 122.598314,156.828125 122.039721,158.138672 L121.857104,158.138672 L121.857104,156.258789 L119.289721,156.258789 L119.289721,168 Z M132.259051,159.610352 C132.259051,157.504883 134.192645,156.033203 136.964129,156.033203 C139.757098,156.033203 141.508074,157.257812 141.701434,159.374023 L139.198504,159.374023 C139.005145,158.546875 138.220965,158.009766 136.974871,158.009766 C135.761004,158.009766 134.847918,158.600586 134.847918,159.470703 C134.847918,160.136719 135.406512,160.555664 136.588153,160.834961 L138.661395,161.296875 C140.906512,161.8125 141.948504,162.768555 141.948504,164.498047 C141.948504,166.743164 139.875262,168.236328 136.942645,168.236328 C134.010028,168.236328 132.162371,166.96875 131.95827,164.852539 L134.590106,164.852539 C134.847918,165.722656 135.675067,166.259766 137.007098,166.259766 C138.349871,166.259766 139.284442,165.647461 139.284442,164.755859 C139.284442,164.089844 138.779559,163.660156 137.662371,163.402344 L135.578387,162.918945 C133.322528,162.40332 132.259051,161.37207 132.259051,159.610352 Z" fill="#007AFF" fill-rule="nonzero"></path>
    </g>
</svg>