<?xml version="1.0" encoding="UTF-8"?>
<svg width="150px" height="150px" viewBox="0 0 150 150" version="1.1" xmlns="http://www.w3.org/2000/svg" xmlns:xlink="http://www.w3.org/1999/xlink">
    <!-- Generator: Sketch 59.1 (86144) - https://sketch.com -->
    <title>Notifications</title>
    <desc>Created with Sketch.</desc>
    <g id="Notifications" stroke="none" stroke-width="1" fill="none" fill-rule="evenodd">
        <path d="M36.3730469,107.251953 L113.765625,107.251953 C118.355469,107.251953 121.138672,104.859375 121.138672,101.34375 C121.138672,96.4609375 116.158203,92.0664062 111.958984,87.7207031 C108.736328,84.3515625 107.857422,77.4179688 107.466797,71.8027344 L107.440696,70.6847266 C106.922578,52.538457 101.884766,40.0195312 89.15625,35.4257812 C87.3007812,29.078125 82.2714844,24 75.0449219,24 C67.8671875,24 62.7890625,29.078125 60.9824219,35.4257812 C47.9941406,40.1132812 43.0136719,53.0527344 42.671875,71.8027344 L42.5775585,73.0546093 C42.1400812,78.4135571 41.1665396,84.598085 38.1796875,87.7207031 L37.0596866,88.8557614 C33.1112543,92.8343647 29,96.8855299 29,101.34375 C29,104.859375 31.734375,107.251953 36.3730469,107.251953 Z M75.0449219,126.783203 C66.7929688,126.783203 60.7382812,120.728516 60.1035156,113.892578 L90.0351562,113.892578 C89.4003906,120.728516 83.3457031,126.783203 75.0449219,126.783203 Z" fill="#007AFF" fill-rule="nonzero"></path>
    </g>
</svg>