<?xml version="1.0" encoding="UTF-8"?>
<svg width="210px" height="190px" viewBox="0 0 210 190" version="1.1" xmlns="http://www.w3.org/2000/svg" xmlns:xlink="http://www.w3.org/1999/xlink">
    <!-- Generator: Sketch 59.1 (86144) - https://sketch.com -->
    <title>Notifications</title>
    <desc>Created with Sketch.</desc>
    <g id="Notifications" stroke="none" stroke-width="1" fill="none" fill-rule="evenodd">
        <path d="M66.3730469,107.251953 L143.765625,107.251953 C148.355469,107.251953 151.138672,104.859375 151.138672,101.34375 C151.138672,96.4609375 146.158203,92.0664062 141.958984,87.7207031 C138.736328,84.3515625 137.857422,77.4179688 137.466797,71.8027344 L137.440696,70.6847266 C136.922578,52.538457 131.884766,40.0195312 119.15625,35.4257812 C117.300781,29.078125 112.271484,24 105.044922,24 C97.8671875,24 92.7890625,29.078125 90.9824219,35.4257812 C77.9941406,40.1132812 73.0136719,53.0527344 72.671875,71.8027344 L72.5775585,73.0546093 C72.1400812,78.4135571 71.1665396,84.598085 68.1796875,87.7207031 L67.0596866,88.8557614 C63.1112543,92.8343647 59,96.8855299 59,101.34375 C59,104.859375 61.734375,107.251953 66.3730469,107.251953 Z M105.044922,126.783203 C96.7929688,126.783203 90.7382812,120.728516 90.1035156,113.892578 L120.035156,113.892578 C119.400391,120.728516 113.345703,126.783203 105.044922,126.783203 Z" fill="#007AFF" fill-rule="nonzero"></path>
        <path d="M16.1005859,171 L16.1005859,154.199219 L16.25,154.199219 L28.1533203,171 L31.8388672,171 L31.8388672,147.043945 L27.7216797,147.043945 L27.7216797,163.828125 L27.5722656,163.828125 L15.6855469,147.043945 L11.9667969,147.043945 L11.9667969,171 L16.1005859,171 Z M43.4433594,171.348633 C48.6064453,171.348633 51.9599609,167.912109 51.9599609,162.201172 C51.9599609,156.506836 48.5732422,153.037109 43.4433594,153.037109 C38.3134766,153.037109 34.9267578,156.523438 34.9267578,162.201172 C34.9267578,167.912109 38.2802734,171.348633 43.4433594,171.348633 Z M43.4433594,168.078125 C40.8203125,168.078125 39.1269531,165.953125 39.1269531,162.201172 C39.1269531,158.46582 40.8369141,156.324219 43.4433594,156.324219 C46.0664062,156.324219 47.7597656,158.46582 47.7597656,162.201172 C47.7597656,165.953125 46.0664062,168.078125 43.4433594,168.078125 Z M55.7617188,149.285156 L55.7617188,153.402344 L53.2382812,153.402344 L53.2382812,156.589844 L55.7617188,156.589844 L55.7617188,166.318359 C55.7617188,169.738281 57.2558594,171.083008 61.0576172,171.083008 C61.9375,171.083008 62.7509766,171.016602 63.1992188,170.916992 L63.1992188,167.762695 C62.9335938,167.8125 62.4023438,167.845703 62.0205078,167.845703 C60.5595703,167.845703 59.8955078,167.181641 59.8955078,165.737305 L59.8955078,156.589844 L63.2158203,156.589844 L63.2158203,153.402344 L59.8955078,153.402344 L59.8955078,149.285156 L55.7617188,149.285156 Z M68.1796875,150.746094 C69.4414062,150.746094 70.4375,149.733398 70.4375,148.504883 C70.4375,147.259766 69.4414062,146.263672 68.1796875,146.263672 C66.9179688,146.263672 65.9052734,147.259766 65.9052734,148.504883 C65.9052734,149.733398 66.9179688,150.746094 68.1796875,150.746094 Z M66.1210938,171 L70.2548828,171 L70.2548828,153.402344 L66.1210938,153.402344 L66.1210938,171 Z M74.8701172,171 L79.0039062,171 L79.0039062,156.589844 L82.4570312,156.589844 L82.4570312,153.452148 L78.9375,153.452148 L78.9375,152.007812 C78.9375,150.580078 79.6513672,149.833008 81.2285156,149.833008 C81.7099609,149.833008 82.1914062,149.882812 82.5400391,149.932617 L82.5400391,147.043945 C82.0253906,146.944336 81.1289062,146.861328 80.3154297,146.861328 C76.4970703,146.861328 74.8701172,148.47168 74.8701172,151.891602 L74.8701172,153.452148 L72.4628906,153.452148 L72.4628906,156.589844 L74.8701172,156.589844 L74.8701172,171 Z M87.3378906,150.746094 C88.5996094,150.746094 89.5957031,149.733398 89.5957031,148.504883 C89.5957031,147.259766 88.5996094,146.263672 87.3378906,146.263672 C86.0761719,146.263672 85.0634766,147.259766 85.0634766,148.504883 C85.0634766,149.733398 86.0761719,150.746094 87.3378906,150.746094 Z M85.2792969,171 L89.4130859,171 L89.4130859,153.402344 L85.2792969,153.402344 L85.2792969,171 Z M108.388672,159.677734 C108.106445,155.975586 105.234375,153.037109 100.585938,153.037109 C95.4726562,153.037109 92.1523438,156.573242 92.1523438,162.201172 C92.1523438,167.912109 95.4726562,171.348633 100.619141,171.348633 C105.035156,171.348633 108.073242,168.758789 108.405273,164.824219 L104.503906,164.824219 C104.12207,166.816406 102.760742,168.011719 100.668945,168.011719 C98.0458984,168.011719 96.3525391,165.886719 96.3525391,162.201172 C96.3525391,158.582031 98.0292969,156.390625 100.635742,156.390625 C102.84375,156.390625 104.155273,157.801758 104.487305,159.677734 L108.388672,159.677734 Z M116.041992,171.282227 C118.299805,171.282227 120.507812,170.103516 121.520508,168.194336 L121.603516,168.194336 L121.603516,171 L125.587891,171 L125.587891,158.880859 C125.587891,155.344727 122.749023,153.037109 118.382812,153.037109 C113.900391,153.037109 111.094727,155.394531 110.912109,158.681641 L114.74707,158.681641 C115.012695,157.220703 116.257812,156.274414 118.216797,156.274414 C120.258789,156.274414 121.503906,157.336914 121.503906,159.179688 L121.503906,160.441406 L116.855469,160.707031 C112.572266,160.972656 110.165039,162.848633 110.165039,165.969727 C110.165039,169.140625 112.638672,171.282227 116.041992,171.282227 Z M117.287109,168.161133 C115.494141,168.161133 114.298828,167.248047 114.298828,165.803711 C114.298828,164.40918 115.444336,163.512695 117.436523,163.379883 L121.503906,163.130859 L121.503906,164.475586 C121.503906,166.600586 119.62793,168.161133 117.287109,168.161133 Z M130.053711,149.285156 L130.053711,153.402344 L127.530273,153.402344 L127.530273,156.589844 L130.053711,156.589844 L130.053711,166.318359 C130.053711,169.738281 131.547852,171.083008 135.349609,171.083008 C136.229492,171.083008 137.042969,171.016602 137.491211,170.916992 L137.491211,167.762695 C137.225586,167.8125 136.694336,167.845703 136.3125,167.845703 C134.851562,167.845703 134.1875,167.181641 134.1875,165.737305 L134.1875,156.589844 L137.507812,156.589844 L137.507812,153.402344 L134.1875,153.402344 L134.1875,149.285156 L130.053711,149.285156 Z M142.47168,150.746094 C143.733398,150.746094 144.729492,149.733398 144.729492,148.504883 C144.729492,147.259766 143.733398,146.263672 142.47168,146.263672 C141.209961,146.263672 140.197266,147.259766 140.197266,148.504883 C140.197266,149.733398 141.209961,150.746094 142.47168,150.746094 Z M140.413086,171 L144.546875,171 L144.546875,153.402344 L140.413086,153.402344 L140.413086,171 Z M155.802734,171.348633 C160.96582,171.348633 164.319336,167.912109 164.319336,162.201172 C164.319336,156.506836 160.932617,153.037109 155.802734,153.037109 C150.672852,153.037109 147.286133,156.523438 147.286133,162.201172 C147.286133,167.912109 150.639648,171.348633 155.802734,171.348633 Z M155.802734,168.078125 C153.179688,168.078125 151.486328,165.953125 151.486328,162.201172 C151.486328,158.46582 153.196289,156.324219 155.802734,156.324219 C158.425781,156.324219 160.119141,158.46582 160.119141,162.201172 C160.119141,165.953125 158.425781,168.078125 155.802734,168.078125 Z M166.975586,171 L171.109375,171 L171.109375,160.806641 C171.109375,158.283203 172.620117,156.573242 174.994141,156.573242 C177.351562,156.573242 178.513672,157.967773 178.513672,160.458008 L178.513672,171 L182.647461,171 L182.647461,159.62793 C182.647461,155.560547 180.439453,153.070312 176.554688,153.070312 C173.848633,153.070312 171.972656,154.332031 171.026367,156.423828 L170.943359,156.423828 L170.943359,153.402344 L166.975586,153.402344 L166.975586,171 Z M185.635742,158.449219 C185.635742,155.228516 188.441406,153.037109 192.691406,153.037109 C196.974609,153.037109 199.697266,155.344727 199.796875,158.681641 L195.945312,158.681641 C195.779297,157.087891 194.600586,156.075195 192.691406,156.075195 C190.865234,156.075195 189.65332,156.938477 189.65332,158.233398 C189.65332,159.246094 190.383789,159.943359 192.226562,160.358398 L195.148438,161.005859 C198.800781,161.819336 200.211914,163.230469 200.211914,165.787109 C200.211914,169.107422 197.157227,171.348633 192.84082,171.348633 C188.242188,171.348633 185.519531,169.157227 185.1875,165.753906 L189.254883,165.753906 C189.570312,167.463867 190.749023,168.327148 192.84082,168.327148 C194.849609,168.327148 196.094727,167.49707 196.094727,166.185547 C196.094727,165.123047 195.463867,164.525391 193.621094,164.110352 L190.699219,163.462891 C187.329102,162.71582 185.635742,161.055664 185.635742,158.449219 Z" fill="#007AFF" fill-rule="nonzero"></path>
    </g>
</svg>