<?xml version="1.0" encoding="UTF-8"?>
<svg width="190px" height="190px" viewBox="0 0 190 190" version="1.1" xmlns="http://www.w3.org/2000/svg" xmlns:xlink="http://www.w3.org/1999/xlink">
    <!-- Generator: Sketch 59.1 (86144) - https://sketch.com -->
    <title>Notifications</title>
    <desc>Created with Sketch.</desc>
    <g id="Notifications" stroke="none" stroke-width="1" fill="none" fill-rule="evenodd">
        <path d="M56.3730469,107.251953 L133.765625,107.251953 C138.355469,107.251953 141.138672,104.859375 141.138672,101.34375 C141.138672,96.4609375 136.158203,92.0664062 131.958984,87.7207031 C128.736328,84.3515625 127.857422,77.4179688 127.466797,71.8027344 L127.440696,70.6847266 C126.922578,52.538457 121.884766,40.0195312 109.15625,35.4257812 C107.300781,29.078125 102.271484,24 95.0449219,24 C87.8671875,24 82.7890625,29.078125 80.9824219,35.4257812 C67.9941406,40.1132812 63.0136719,53.0527344 62.671875,71.8027344 L62.5775585,73.0546093 C62.1400812,78.4135571 61.1665396,84.598085 58.1796875,87.7207031 L57.0596866,88.8557614 C53.1112543,92.8343647 49,96.8855299 49,101.34375 C49,104.859375 51.734375,107.251953 56.3730469,107.251953 Z M95.0449219,126.783203 C86.7929688,126.783203 80.7382812,120.728516 80.1035156,113.892578 L110.035156,113.892578 C109.400391,120.728516 103.345703,126.783203 95.0449219,126.783203 Z" fill="#007AFF" fill-rule="nonzero"></path>
        <path d="M26.6357422,165 L26.6357422,152.152344 L26.75,152.152344 L35.8525391,165 L38.6708984,165 L38.6708984,146.680664 L35.5224609,146.680664 L35.5224609,159.515625 L35.4082031,159.515625 L26.3183594,146.680664 L23.4746094,146.680664 L23.4746094,165 L26.6357422,165 Z M47.5449219,165.266602 C51.4931641,165.266602 54.0576172,162.638672 54.0576172,158.271484 C54.0576172,153.916992 51.4677734,151.263672 47.5449219,151.263672 C43.6220703,151.263672 41.0322266,153.929688 41.0322266,158.271484 C41.0322266,162.638672 43.5966797,165.266602 47.5449219,165.266602 Z M47.5449219,162.765625 C45.5390625,162.765625 44.2441406,161.140625 44.2441406,158.271484 C44.2441406,155.415039 45.5517578,153.777344 47.5449219,153.777344 C49.5507812,153.777344 50.8457031,155.415039 50.8457031,158.271484 C50.8457031,161.140625 49.5507812,162.765625 47.5449219,162.765625 Z M56.9648438,148.394531 L56.9648438,151.542969 L55.0351562,151.542969 L55.0351562,153.980469 L56.9648438,153.980469 L56.9648438,161.419922 C56.9648438,164.035156 58.1074219,165.063477 61.0146484,165.063477 C61.6875,165.063477 62.3095703,165.012695 62.6523438,164.936523 L62.6523438,162.524414 C62.4492188,162.5625 62.0429688,162.587891 61.7509766,162.587891 C60.6337891,162.587891 60.1259766,162.080078 60.1259766,160.975586 L60.1259766,153.980469 L62.6650391,153.980469 L62.6650391,151.542969 L60.1259766,151.542969 L60.1259766,148.394531 L56.9648438,148.394531 Z M66.4609375,149.511719 C67.4257812,149.511719 68.1875,148.737305 68.1875,147.797852 C68.1875,146.845703 67.4257812,146.083984 66.4609375,146.083984 C65.4960938,146.083984 64.7216797,146.845703 64.7216797,147.797852 C64.7216797,148.737305 65.4960938,149.511719 66.4609375,149.511719 Z M64.8867188,165 L68.0478516,165 L68.0478516,151.542969 L64.8867188,151.542969 L64.8867188,165 Z M71.5771484,165 L74.7382812,165 L74.7382812,153.980469 L77.3789062,153.980469 L77.3789062,151.581055 L74.6875,151.581055 L74.6875,150.476562 C74.6875,149.384766 75.2333984,148.813477 76.4394531,148.813477 C76.8076172,148.813477 77.1757812,148.851562 77.4423828,148.889648 L77.4423828,146.680664 C77.0488281,146.604492 76.3632812,146.541016 75.7412109,146.541016 C72.8212891,146.541016 71.5771484,147.772461 71.5771484,150.387695 L71.5771484,151.581055 L69.7363281,151.581055 L69.7363281,153.980469 L71.5771484,153.980469 L71.5771484,165 Z M81.1113281,149.511719 C82.0761719,149.511719 82.8378906,148.737305 82.8378906,147.797852 C82.8378906,146.845703 82.0761719,146.083984 81.1113281,146.083984 C80.1464844,146.083984 79.3720703,146.845703 79.3720703,147.797852 C79.3720703,148.737305 80.1464844,149.511719 81.1113281,149.511719 Z M79.5371094,165 L82.6982422,165 L82.6982422,151.542969 L79.5371094,151.542969 L79.5371094,165 Z M97.2089844,156.341797 C96.9931641,153.510742 94.796875,151.263672 91.2421875,151.263672 C87.3320312,151.263672 84.7929688,153.967773 84.7929688,158.271484 C84.7929688,162.638672 87.3320312,165.266602 91.2675781,165.266602 C94.6445312,165.266602 96.9677734,163.286133 97.2216797,160.277344 L94.2382812,160.277344 C93.9462891,161.800781 92.9052734,162.714844 91.3056641,162.714844 C89.2998047,162.714844 88.0048828,161.089844 88.0048828,158.271484 C88.0048828,155.503906 89.2871094,153.828125 91.2802734,153.828125 C92.96875,153.828125 93.9716797,154.907227 94.2255859,156.341797 L97.2089844,156.341797 Z M103.061523,165.21582 C104.788086,165.21582 106.476562,164.314453 107.250977,162.854492 L107.314453,162.854492 L107.314453,165 L110.361328,165 L110.361328,155.732422 C110.361328,153.02832 108.19043,151.263672 104.851562,151.263672 C101.423828,151.263672 99.2783203,153.066406 99.1386719,155.580078 L102.071289,155.580078 C102.274414,154.462891 103.226562,153.739258 104.724609,153.739258 C106.286133,153.739258 107.238281,154.551758 107.238281,155.960938 L107.238281,156.925781 L103.683594,157.128906 C100.408203,157.332031 98.5673828,158.766602 98.5673828,161.15332 C98.5673828,163.578125 100.458984,165.21582 103.061523,165.21582 Z M104.013672,162.829102 C102.642578,162.829102 101.728516,162.130859 101.728516,161.026367 C101.728516,159.959961 102.604492,159.274414 104.12793,159.172852 L107.238281,158.982422 L107.238281,160.010742 C107.238281,161.635742 105.803711,162.829102 104.013672,162.829102 Z M113.776367,148.394531 L113.776367,151.542969 L111.84668,151.542969 L111.84668,153.980469 L113.776367,153.980469 L113.776367,161.419922 C113.776367,164.035156 114.918945,165.063477 117.826172,165.063477 C118.499023,165.063477 119.121094,165.012695 119.463867,164.936523 L119.463867,162.524414 C119.260742,162.5625 118.854492,162.587891 118.5625,162.587891 C117.445312,162.587891 116.9375,162.080078 116.9375,160.975586 L116.9375,153.980469 L119.476562,153.980469 L119.476562,151.542969 L116.9375,151.542969 L116.9375,148.394531 L113.776367,148.394531 Z M123.272461,149.511719 C124.237305,149.511719 124.999023,148.737305 124.999023,147.797852 C124.999023,146.845703 124.237305,146.083984 123.272461,146.083984 C122.307617,146.083984 121.533203,146.845703 121.533203,147.797852 C121.533203,148.737305 122.307617,149.511719 123.272461,149.511719 Z M121.698242,165 L124.859375,165 L124.859375,151.542969 L121.698242,151.542969 L121.698242,165 Z M133.466797,165.266602 C137.415039,165.266602 139.979492,162.638672 139.979492,158.271484 C139.979492,153.916992 137.389648,151.263672 133.466797,151.263672 C129.543945,151.263672 126.954102,153.929688 126.954102,158.271484 C126.954102,162.638672 129.518555,165.266602 133.466797,165.266602 Z M133.466797,162.765625 C131.460938,162.765625 130.166016,161.140625 130.166016,158.271484 C130.166016,155.415039 131.473633,153.777344 133.466797,153.777344 C135.472656,153.777344 136.767578,155.415039 136.767578,158.271484 C136.767578,161.140625 135.472656,162.765625 133.466797,162.765625 Z M142.010742,165 L145.171875,165 L145.171875,157.205078 C145.171875,155.275391 146.327148,153.967773 148.142578,153.967773 C149.945312,153.967773 150.833984,155.03418 150.833984,156.938477 L150.833984,165 L153.995117,165 L153.995117,156.303711 C153.995117,153.193359 152.306641,151.289062 149.335938,151.289062 C147.266602,151.289062 145.832031,152.253906 145.108398,153.853516 L145.044922,153.853516 L145.044922,151.542969 L142.010742,151.542969 L142.010742,165 Z M156.280273,155.402344 C156.280273,152.939453 158.425781,151.263672 161.675781,151.263672 C164.951172,151.263672 167.033203,153.02832 167.109375,155.580078 L164.164062,155.580078 C164.037109,154.361328 163.135742,153.586914 161.675781,153.586914 C160.279297,153.586914 159.352539,154.24707 159.352539,155.237305 C159.352539,156.011719 159.911133,156.544922 161.320312,156.862305 L163.554688,157.357422 C166.347656,157.979492 167.426758,159.058594 167.426758,161.013672 C167.426758,163.552734 165.09082,165.266602 161.790039,165.266602 C158.273438,165.266602 156.191406,163.59082 155.9375,160.988281 L159.047852,160.988281 C159.289062,162.295898 160.19043,162.956055 161.790039,162.956055 C163.326172,162.956055 164.27832,162.321289 164.27832,161.318359 C164.27832,160.505859 163.795898,160.048828 162.386719,159.731445 L160.152344,159.236328 C157.575195,158.665039 156.280273,157.395508 156.280273,155.402344 Z" fill="#007AFF" fill-rule="nonzero"></path>
    </g>
</svg>