<?xml version="1.0" encoding="UTF-8"?>
<svg width="220px" height="210px" viewBox="0 0 220 210" version="1.1" xmlns="http://www.w3.org/2000/svg" xmlns:xlink="http://www.w3.org/1999/xlink">
    <!-- Generator: Sketch 59.1 (86144) - https://sketch.com -->
    <title>Notifications</title>
    <desc>Created with Sketch.</desc>
    <g id="Notifications" stroke="none" stroke-width="1" fill="none" fill-rule="evenodd">
        <path d="M71.3730469,107.251953 L148.765625,107.251953 C153.355469,107.251953 156.138672,104.859375 156.138672,101.34375 C156.138672,96.4609375 151.158203,92.0664062 146.958984,87.7207031 C143.736328,84.3515625 142.857422,77.4179688 142.466797,71.8027344 L142.440696,70.6847266 C141.922578,52.538457 136.884766,40.0195312 124.15625,35.4257812 C122.300781,29.078125 117.271484,24 110.044922,24 C102.867188,24 97.7890625,29.078125 95.9824219,35.4257812 C82.9941406,40.1132812 78.0136719,53.0527344 77.671875,71.8027344 L77.5775585,73.0546093 C77.1400812,78.4135571 76.1665396,84.598085 73.1796875,87.7207031 L72.0596866,88.8557614 C68.1112543,92.8343647 64,96.8855299 64,101.34375 C64,104.859375 66.734375,107.251953 71.3730469,107.251953 Z M110.044922,126.783203 C101.792969,126.783203 95.7382812,120.728516 95.1035156,113.892578 L125.035156,113.892578 C124.400391,120.728516 118.345703,126.783203 110.044922,126.783203 Z" fill="#007AFF" fill-rule="nonzero"></path>
        <path d="M24.890625,178.28125 L24.890625,162.46875 L25.03125,162.46875 L36.234375,178.28125 L39.703125,178.28125 L39.703125,155.734375 L35.828125,155.734375 L35.828125,171.53125 L35.6875,171.53125 L24.5,155.734375 L21,155.734375 L21,178.28125 L24.890625,178.28125 Z M50.625,178.609375 C55.484375,178.609375 58.640625,175.375 58.640625,170 C58.640625,164.640625 55.453125,161.375 50.625,161.375 C45.796875,161.375 42.609375,164.65625 42.609375,170 C42.609375,175.375 45.765625,178.609375 50.625,178.609375 Z M50.625,175.53125 C48.15625,175.53125 46.5625,173.53125 46.5625,170 C46.5625,166.484375 48.171875,164.46875 50.625,164.46875 C53.09375,164.46875 54.6875,166.484375 54.6875,170 C54.6875,173.53125 53.09375,175.53125 50.625,175.53125 Z M62.21875,157.84375 L62.21875,161.71875 L59.84375,161.71875 L59.84375,164.71875 L62.21875,164.71875 L62.21875,173.875 C62.21875,177.09375 63.625,178.359375 67.203125,178.359375 C68.03125,178.359375 68.796875,178.296875 69.21875,178.203125 L69.21875,175.234375 C68.96875,175.28125 68.46875,175.3125 68.109375,175.3125 C66.734375,175.3125 66.109375,174.6875 66.109375,173.328125 L66.109375,164.71875 L69.234375,164.71875 L69.234375,161.71875 L66.109375,161.71875 L66.109375,157.84375 L62.21875,157.84375 Z M73.90625,159.21875 C75.09375,159.21875 76.03125,158.265625 76.03125,157.109375 C76.03125,155.9375 75.09375,155 73.90625,155 C72.71875,155 71.765625,155.9375 71.765625,157.109375 C71.765625,158.265625 72.71875,159.21875 73.90625,159.21875 Z M71.96875,178.28125 L75.859375,178.28125 L75.859375,161.71875 L71.96875,161.71875 L71.96875,178.28125 Z M80.203125,178.28125 L84.09375,178.28125 L84.09375,164.71875 L87.34375,164.71875 L87.34375,161.765625 L84.03125,161.765625 L84.03125,160.40625 C84.03125,159.0625 84.703125,158.359375 86.1875,158.359375 C86.640625,158.359375 87.09375,158.40625 87.421875,158.453125 L87.421875,155.734375 C86.9375,155.640625 86.09375,155.5625 85.328125,155.5625 C81.734375,155.5625 80.203125,157.078125 80.203125,160.296875 L80.203125,161.765625 L77.9375,161.765625 L77.9375,164.71875 L80.203125,164.71875 L80.203125,178.28125 Z M91.9375,159.21875 C93.125,159.21875 94.0625,158.265625 94.0625,157.109375 C94.0625,155.9375 93.125,155 91.9375,155 C90.75,155 89.796875,155.9375 89.796875,157.109375 C89.796875,158.265625 90.75,159.21875 91.9375,159.21875 Z M90,178.28125 L93.890625,178.28125 L93.890625,161.71875 L90,161.71875 L90,178.28125 Z M111.75,167.625 C111.484375,164.140625 108.78125,161.375 104.40625,161.375 C99.59375,161.375 96.46875,164.703125 96.46875,170 C96.46875,175.375 99.59375,178.609375 104.4375,178.609375 C108.59375,178.609375 111.453125,176.171875 111.765625,172.46875 L108.09375,172.46875 C107.734375,174.34375 106.453125,175.46875 104.484375,175.46875 C102.015625,175.46875 100.421875,173.46875 100.421875,170 C100.421875,166.59375 102,164.53125 104.453125,164.53125 C106.53125,164.53125 107.765625,165.859375 108.078125,167.625 L111.75,167.625 Z M118.953125,178.546875 C121.078125,178.546875 123.15625,177.4375 124.109375,175.640625 L124.1875,175.640625 L124.1875,178.28125 L127.9375,178.28125 L127.9375,166.875 C127.9375,163.546875 125.265625,161.375 121.15625,161.375 C116.9375,161.375 114.296875,163.59375 114.125,166.6875 L117.734375,166.6875 C117.984375,165.3125 119.15625,164.421875 121,164.421875 C122.921875,164.421875 124.09375,165.421875 124.09375,167.15625 L124.09375,168.34375 L119.71875,168.59375 C115.6875,168.84375 113.421875,170.609375 113.421875,173.546875 C113.421875,176.53125 115.75,178.546875 118.953125,178.546875 Z M120.125,175.609375 C118.4375,175.609375 117.3125,174.75 117.3125,173.390625 C117.3125,172.078125 118.390625,171.234375 120.265625,171.109375 L124.09375,170.875 L124.09375,172.140625 C124.09375,174.140625 122.328125,175.609375 120.125,175.609375 Z M132.140625,157.84375 L132.140625,161.71875 L129.765625,161.71875 L129.765625,164.71875 L132.140625,164.71875 L132.140625,173.875 C132.140625,177.09375 133.546875,178.359375 137.125,178.359375 C137.953125,178.359375 138.71875,178.296875 139.140625,178.203125 L139.140625,175.234375 C138.890625,175.28125 138.390625,175.3125 138.03125,175.3125 C136.65625,175.3125 136.03125,174.6875 136.03125,173.328125 L136.03125,164.71875 L139.15625,164.71875 L139.15625,161.71875 L136.03125,161.71875 L136.03125,157.84375 L132.140625,157.84375 Z M143.828125,159.21875 C145.015625,159.21875 145.953125,158.265625 145.953125,157.109375 C145.953125,155.9375 145.015625,155 143.828125,155 C142.640625,155 141.6875,155.9375 141.6875,157.109375 C141.6875,158.265625 142.640625,159.21875 143.828125,159.21875 Z M141.890625,178.28125 L145.78125,178.28125 L145.78125,161.71875 L141.890625,161.71875 L141.890625,178.28125 Z M156.375,178.609375 C161.234375,178.609375 164.390625,175.375 164.390625,170 C164.390625,164.640625 161.203125,161.375 156.375,161.375 C151.546875,161.375 148.359375,164.65625 148.359375,170 C148.359375,175.375 151.515625,178.609375 156.375,178.609375 Z M156.375,175.53125 C153.90625,175.53125 152.3125,173.53125 152.3125,170 C152.3125,166.484375 153.921875,164.46875 156.375,164.46875 C158.84375,164.46875 160.4375,166.484375 160.4375,170 C160.4375,173.53125 158.84375,175.53125 156.375,175.53125 Z M166.890625,178.28125 L170.78125,178.28125 L170.78125,168.6875 C170.78125,166.3125 172.203125,164.703125 174.4375,164.703125 C176.65625,164.703125 177.75,166.015625 177.75,168.359375 L177.75,178.28125 L181.640625,178.28125 L181.640625,167.578125 C181.640625,163.75 179.5625,161.40625 175.90625,161.40625 C173.359375,161.40625 171.59375,162.59375 170.703125,164.5625 L170.625,164.5625 L170.625,161.71875 L166.890625,161.71875 L166.890625,178.28125 Z M184.453125,166.46875 C184.453125,163.4375 187.09375,161.375 191.09375,161.375 C195.125,161.375 197.6875,163.546875 197.78125,166.6875 L194.15625,166.6875 C194,165.1875 192.890625,164.234375 191.09375,164.234375 C189.375,164.234375 188.234375,165.046875 188.234375,166.265625 C188.234375,167.21875 188.921875,167.875 190.65625,168.265625 L193.40625,168.875 C196.84375,169.640625 198.171875,170.96875 198.171875,173.375 C198.171875,176.5 195.296875,178.609375 191.234375,178.609375 C186.90625,178.609375 184.34375,176.546875 184.03125,173.34375 L187.859375,173.34375 C188.15625,174.953125 189.265625,175.765625 191.234375,175.765625 C193.125,175.765625 194.296875,174.984375 194.296875,173.75 C194.296875,172.75 193.703125,172.1875 191.96875,171.796875 L189.21875,171.1875 C186.046875,170.484375 184.453125,168.921875 184.453125,166.46875 Z" fill="#007AFF" fill-rule="nonzero"></path>
    </g>
</svg>