<?xml version="1.0" encoding="UTF-8"?>
<svg width="160px" height="190px" viewBox="0 0 160 190" version="1.1" xmlns="http://www.w3.org/2000/svg" xmlns:xlink="http://www.w3.org/1999/xlink">
    <!-- Generator: Sketch 59.1 (86144) - https://sketch.com -->
    <title>Notifications</title>
    <desc>Created with Sketch.</desc>
    <g id="Notifications" stroke="none" stroke-width="1" fill="none" fill-rule="evenodd">
        <path d="M41.3730469,107.251953 L118.765625,107.251953 C123.355469,107.251953 126.138672,104.859375 126.138672,101.34375 C126.138672,96.4609375 121.158203,92.0664062 116.958984,87.7207031 C113.736328,84.3515625 112.857422,77.4179688 112.466797,71.8027344 L112.440696,70.6847266 C111.922578,52.538457 106.884766,40.0195312 94.15625,35.4257812 C92.3007812,29.078125 87.2714844,24 80.0449219,24 C72.8671875,24 67.7890625,29.078125 65.9824219,35.4257812 C52.9941406,40.1132812 48.0136719,53.0527344 47.671875,71.8027344 L47.5775585,73.0546093 C47.1400812,78.4135571 46.1665396,84.598085 43.1796875,87.7207031 L42.0596866,88.8557614 C38.1112543,92.8343647 34,96.8855299 34,101.34375 C34,104.859375 36.734375,107.251953 41.3730469,107.251953 Z M80.0449219,126.783203 C71.7929688,126.783203 65.7382812,120.728516 65.1035156,113.892578 L95.0351562,113.892578 C94.4003906,120.728516 88.3457031,126.783203 80.0449219,126.783203 Z" fill="#007AFF" fill-rule="nonzero"></path>
        <path d="M11.0395641,165 L11.0395641,153.351562 L11.2387829,153.351562 L19.5356579,165 L22.1489391,165 L22.1489391,148.089844 L19.2426891,148.089844 L19.2426891,159.738281 L19.0434704,159.738281 L10.7465954,148.089844 L8.12159535,148.089844 L8.12159535,165 L11.0395641,165 Z M31.3285494,165.257812 C35.1605807,165.257812 37.4926119,162.75 37.4926119,158.589844 C37.4926119,154.453125 35.1488619,151.945312 31.3285494,151.945312 C27.5199557,151.945312 25.1644869,154.464844 25.1644869,158.589844 C25.1644869,162.75 27.4847994,165.257812 31.3285494,165.257812 Z M31.3285494,162.878906 C29.3012057,162.878906 28.1410494,161.308594 28.1410494,158.601562 C28.1410494,155.894531 29.3012057,154.324219 31.3285494,154.324219 C33.3441744,154.324219 34.5043307,155.894531 34.5043307,158.601562 C34.5043307,161.308594 33.3558932,162.878906 31.3285494,162.878906 Z M41.1175348,149.050781 L41.1175348,152.273438 L39.090191,152.273438 L39.090191,154.535156 L41.1175348,154.535156 L41.1175348,161.601562 C41.1175348,164.074219 42.2894098,165.058594 45.230816,165.058594 C45.793316,165.058594 46.3323785,165.011719 46.7542535,164.929688 L46.7542535,162.703125 L46.3740035,162.738937 C46.194566,162.753281 46.0159723,162.761719 45.7698785,162.761719 C44.5511285,162.761719 44.012066,162.1875 44.012066,160.910156 L44.012066,154.535156 L46.7542535,154.535156 L46.7542535,152.273438 L44.012066,152.273438 L44.012066,149.050781 L41.1175348,149.050781 Z M50.9065201,150.046875 C51.8674576,150.046875 52.6526138,149.285156 52.6526138,148.324219 C52.6526138,147.375 51.8674576,146.601562 50.9065201,146.601562 C49.9573013,146.601562 49.1721451,147.375 49.1721451,148.324219 C49.1721451,149.285156 49.9573013,150.046875 50.9065201,150.046875 Z M49.4651138,165 L52.3596451,165 L52.3596451,152.191406 L49.4651138,152.191406 L49.4651138,165 Z M56.6642554,165 L59.5587867,165 L59.5587867,154.535156 L62.3126929,154.535156 L62.3126929,152.273438 L59.5236304,152.273438 L59.5236304,151.089844 C59.5236304,149.871094 60.0626929,149.261719 61.4337867,149.261719 C61.8439429,149.261719 62.1955054,149.296875 62.4298804,149.332031 L62.4298804,147.234375 C61.9611304,147.152344 61.4337867,147.117188 60.8126929,147.117188 C57.9650367,147.117188 56.6642554,148.371094 56.6642554,150.925781 L56.6642554,152.273438 L54.5665992,152.273438 L54.5665992,154.535156 L56.6642554,154.535156 L56.6642554,165 Z M66.3594908,150.046875 C67.3204283,150.046875 68.1055845,149.285156 68.1055845,148.324219 C68.1055845,147.375 67.3204283,146.601562 66.3594908,146.601562 C65.410272,146.601562 64.6251158,147.375 64.6251158,148.324219 C64.6251158,149.285156 65.410272,150.046875 66.3594908,150.046875 Z M64.9180845,165 L67.8126158,165 L67.8126158,152.191406 L64.9180845,152.191406 L64.9180845,165 Z M82.2539448,156.46875 C81.9492573,153.820312 79.9570698,151.945312 76.6641011,151.945312 C72.8086323,151.945312 70.5469136,154.417969 70.5469136,158.566406 C70.5469136,162.761719 72.8203511,165.257812 76.6758198,165.257812 C79.9219136,165.257812 81.9375386,163.453125 82.2539448,160.804688 L79.4883198,160.804688 C79.1836323,162.152344 78.1758198,162.867188 76.6641011,162.867188 C74.6836323,162.867188 73.4883198,161.285156 73.4883198,158.566406 C73.4883198,155.894531 74.6719136,154.324219 76.6641011,154.324219 C78.2578511,154.324219 79.2187886,155.226562 79.4883198,156.46875 L82.2539448,156.46875 Z M88.3280864,165.210938 C90.0038677,165.210938 91.4101177,164.484375 92.1249614,163.242188 L92.3241802,163.242188 L92.3241802,165 L95.1249614,165 L95.1249614,156.246094 C95.1249614,153.539062 93.2733989,151.945312 89.9804302,151.945312 C86.9335552,151.945312 84.8124614,153.375 84.5780864,155.613281 L87.3202739,155.613281 C87.5898052,154.734375 88.5038677,154.253906 89.8398052,154.253906 C91.4101177,154.253906 92.2538677,154.96875 92.2538677,156.246094 L92.2538677,157.347656 L88.9491802,157.546875 C85.8319927,157.722656 84.0858989,159.070312 84.0858989,161.367188 C84.0858989,163.710938 85.8554302,165.210938 88.3280864,165.210938 Z M89.1835552,162.972656 C87.8944927,162.972656 86.9687114,162.328125 86.9687114,161.226562 C86.9687114,160.160156 87.7304302,159.5625 89.3593364,159.457031 L92.2538677,159.257812 L92.2538677,160.300781 C92.2538677,161.824219 90.9413677,162.972656 89.1835552,162.972656 Z M99.3123842,149.050781 L99.3123842,152.273438 L97.2850405,152.273438 L97.2850405,154.535156 L99.3123842,154.535156 L99.3123842,161.601562 C99.3123842,164.074219 100.484259,165.058594 103.425665,165.058594 C103.988165,165.058594 104.527228,165.011719 104.949103,164.929688 L104.949103,162.703125 L104.568853,162.738937 C104.389415,162.753281 104.210822,162.761719 103.964728,162.761719 C102.745978,162.761719 102.206915,162.1875 102.206915,160.910156 L102.206915,154.535156 L104.949103,154.535156 L104.949103,152.273438 L102.206915,152.273438 L102.206915,149.050781 L99.3123842,149.050781 Z M109.10137,150.046875 C110.062307,150.046875 110.847463,149.285156 110.847463,148.324219 C110.847463,147.375 110.062307,146.601562 109.10137,146.601562 C108.152151,146.601562 107.366995,147.375 107.366995,148.324219 C107.366995,149.285156 108.152151,150.046875 109.10137,150.046875 Z M107.659963,165 L110.554495,165 L110.554495,152.191406 L107.659963,152.191406 L107.659963,165 Z M119.452855,165.257812 C123.284886,165.257812 125.616917,162.75 125.616917,158.589844 C125.616917,154.453125 123.273167,151.945312 119.452855,151.945312 C115.644261,151.945312 113.288792,154.464844 113.288792,158.589844 C113.288792,162.75 115.609105,165.257812 119.452855,165.257812 Z M119.452855,162.878906 C117.425511,162.878906 116.265355,161.308594 116.265355,158.601562 C116.265355,155.894531 117.425511,154.324219 119.452855,154.324219 C121.46848,154.324219 122.628636,155.894531 122.628636,158.601562 C122.628636,161.308594 121.480199,162.878906 119.452855,162.878906 Z M128.316059,165 L131.222309,165 L131.222309,157.535156 C131.222309,155.613281 132.312153,154.40625 134.046528,154.40625 C135.816059,154.40625 136.636371,155.402344 136.636371,157.394531 L136.636371,165 L139.542621,165 L139.542621,156.714844 C139.542621,153.667969 137.984028,151.945312 135.124653,151.945312 C133.214496,151.945312 131.925434,152.8125 131.316059,154.242188 L131.11684,154.242188 L131.11684,152.191406 L128.316059,152.191406 L128.316059,165 Z M142.464419,155.847656 C142.464419,153.550781 144.573794,151.945312 147.597232,151.945312 C150.644107,151.945312 152.554263,153.28125 152.765201,155.589844 L150.034732,155.589844 C149.823794,154.6875 148.968326,154.101562 147.608951,154.101562 C146.284732,154.101562 145.288638,154.746094 145.288638,155.695312 C145.288638,156.421875 145.898013,156.878906 147.187076,157.183594 L149.448794,157.6875 C151.898013,158.25 153.034732,159.292969 153.034732,161.179688 C153.034732,163.628906 150.773013,165.257812 147.573794,165.257812 C144.374576,165.257812 142.358951,163.875 142.136294,161.566406 L145.007388,161.566406 C145.288638,162.515625 146.190982,163.101562 147.644107,163.101562 C149.108951,163.101562 150.128482,162.433594 150.128482,161.460938 C150.128482,160.734375 149.577701,160.265625 148.358951,159.984375 L146.085513,159.457031 C143.624576,158.894531 142.464419,157.769531 142.464419,155.847656 Z" fill="#007AFF" fill-rule="nonzero"></path>
    </g>
</svg>