<?xml version="1.0" encoding="UTF-8"?>
<svg width="210px" height="190px" viewBox="0 0 210 190" version="1.1" xmlns="http://www.w3.org/2000/svg" xmlns:xlink="http://www.w3.org/1999/xlink">
    <!-- Generator: Sketch 59.1 (86144) - https://sketch.com -->
    <title>Photos</title>
    <desc>Created with Sketch.</desc>
    <g id="Photos" stroke="none" stroke-width="1" fill="none" fill-rule="evenodd">
        <path d="M62.3320312,119.892578 L146.804688,119.892578 C157.058594,119.892578 162.136719,114.814453 162.136719,104.755859 L162.136719,45.1367188 C162.136719,35.078125 157.058594,30 146.804688,30 L62.3320312,30 C52.1269531,30 47,35.0292969 47,45.1367188 L47,104.755859 C47,114.863281 52.1269531,119.892578 62.3320312,119.892578 Z M83.6210938,76.1425781 C76.9804688,76.1425781 71.5605469,70.7226562 71.5605469,64.0820312 C71.5605469,57.4902344 76.9804688,52.0214844 83.6210938,52.0214844 C90.2128906,52.0214844 95.6328125,57.4902344 95.6328125,64.0820312 C95.6328125,70.7226562 90.2128906,76.1425781 83.6210938,76.1425781 Z M62.4296875,112.03125 C57.6933594,112.03125 54.8613281,109.199219 54.8613281,104.414062 L54.8613281,101.435547 L69.8515625,88.3496094 C72,86.4453125 74.34375,85.46875 76.4921875,85.46875 C78.8847656,85.46875 81.375,86.4453125 83.5234375,88.4472656 L92.8496094,96.8457031 L116.189453,76.1425781 C118.582031,73.9941406 121.267578,73.0175781 124.050781,73.0175781 C126.736328,73.0175781 129.519531,74.0429688 131.814453,76.1914062 L154.275391,96.9921875 L154.275391,104.511719 C154.275391,109.199219 151.394531,112.03125 146.755859,112.03125 L62.4296875,112.03125 Z" fill="#007AFF" fill-rule="nonzero"></path>
        <path d="M7.19384766,147.043945 L7.19384766,171 L11.4770508,171 L11.4770508,163.081055 L16.324707,163.081055 C21.1723633,163.081055 24.5756836,159.84375 24.5756836,155.0625 C24.5756836,150.28125 21.2719727,147.043945 16.5073242,147.043945 L7.19384766,147.043945 Z M11.4770508,150.546875 L15.378418,150.546875 C18.449707,150.546875 20.2260742,152.19043 20.2260742,155.0625 C20.2260742,157.967773 18.4331055,159.62793 15.3618164,159.62793 L11.4770508,159.62793 L11.4770508,150.546875 Z M27.3979492,171 L31.5317383,171 L31.5317383,160.889648 C31.5317383,158.299805 33.0424805,156.573242 35.5327148,156.573242 C37.9233398,156.573242 39.1518555,158.050781 39.1518555,160.507812 L39.1518555,171 L43.2856445,171 L43.2856445,159.661133 C43.2856445,155.626953 41.0112305,153.070312 37.1264648,153.070312 C34.4536133,153.070312 32.5112305,154.282227 31.5649414,156.423828 L31.4819336,156.423828 L31.4819336,147.043945 L27.3979492,147.043945 L27.3979492,171 Z M54.3754883,171.348633 C59.5385742,171.348633 62.8920898,167.912109 62.8920898,162.201172 C62.8920898,156.506836 59.5053711,153.037109 54.3754883,153.037109 C49.2456055,153.037109 45.8588867,156.523438 45.8588867,162.201172 C45.8588867,167.912109 49.2124023,171.348633 54.3754883,171.348633 Z M54.3754883,168.078125 C51.7524414,168.078125 50.059082,165.953125 50.059082,162.201172 C50.059082,158.46582 51.769043,156.324219 54.3754883,156.324219 C56.9985352,156.324219 58.6918945,158.46582 58.6918945,162.201172 C58.6918945,165.953125 56.9985352,168.078125 54.3754883,168.078125 Z M66.6938477,149.285156 L66.6938477,153.402344 L64.1704102,153.402344 L64.1704102,156.589844 L66.6938477,156.589844 L66.6938477,166.318359 C66.6938477,169.738281 68.1879883,171.083008 71.9897461,171.083008 C72.8696289,171.083008 73.6831055,171.016602 74.1313477,170.916992 L74.1313477,167.762695 C73.8657227,167.8125 73.3344727,167.845703 72.9526367,167.845703 C71.4916992,167.845703 70.8276367,167.181641 70.8276367,165.737305 L70.8276367,156.589844 L74.1479492,156.589844 L74.1479492,153.402344 L70.8276367,153.402344 L70.8276367,149.285156 L66.6938477,149.285156 Z M84.7397461,171.348633 C89.902832,171.348633 93.2563477,167.912109 93.2563477,162.201172 C93.2563477,156.506836 89.8696289,153.037109 84.7397461,153.037109 C79.6098633,153.037109 76.2231445,156.523438 76.2231445,162.201172 C76.2231445,167.912109 79.5766602,171.348633 84.7397461,171.348633 Z M84.7397461,168.078125 C82.1166992,168.078125 80.4233398,165.953125 80.4233398,162.201172 C80.4233398,158.46582 82.1333008,156.324219 84.7397461,156.324219 C87.362793,156.324219 89.0561523,158.46582 89.0561523,162.201172 C89.0561523,165.953125 87.362793,168.078125 84.7397461,168.078125 Z M118.291504,167.380859 L107.41748,167.380859 L107.41748,147.043945 L103.134277,147.043945 L103.134277,171 L118.291504,171 L118.291504,167.380859 Z M123.105957,150.746094 C124.367676,150.746094 125.36377,149.733398 125.36377,148.504883 C125.36377,147.259766 124.367676,146.263672 123.105957,146.263672 C121.844238,146.263672 120.831543,147.259766 120.831543,148.504883 C120.831543,149.733398 121.844238,150.746094 123.105957,150.746094 Z M121.047363,171 L125.181152,171 L125.181152,153.402344 L121.047363,153.402344 L121.047363,171 Z M138.495605,171.282227 C142.944824,171.282227 145.750488,167.829102 145.750488,162.201172 C145.750488,156.573242 142.928223,153.103516 138.495605,153.103516 C136.005371,153.103516 133.996582,154.365234 133.000488,156.423828 L132.900879,156.423828 L132.900879,147.043945 L128.76709,147.043945 L128.76709,171 L132.817871,171 L132.817871,167.995117 L132.900879,167.995117 C133.930176,170.037109 135.905762,171.282227 138.495605,171.282227 Z M137.217285,156.506836 C139.856934,156.506836 141.51709,158.714844 141.51709,162.201172 C141.51709,165.704102 139.873535,167.895508 137.217285,167.895508 C134.660645,167.895508 132.884277,165.654297 132.884277,162.201172 C132.884277,158.78125 134.660645,156.506836 137.217285,156.506836 Z M148.42334,171 L152.557129,171 L152.557129,160.756836 C152.557129,158.283203 153.968262,156.772461 156.309082,156.772461 C157.006348,156.772461 157.637207,156.87207 157.98584,157.004883 L157.98584,153.269531 L157.691368,153.207578 C157.415966,153.154337 157.070382,153.103516 156.690918,153.103516 C154.615723,153.103516 153.071777,154.332031 152.474121,156.473633 L152.391113,156.473633 L152.391113,153.402344 L148.42334,153.402344 L148.42334,171 Z M165.290527,171.282227 C167.54834,171.282227 169.756348,170.103516 170.769043,168.194336 L170.852051,168.194336 L170.852051,171 L174.836426,171 L174.836426,158.880859 C174.836426,155.344727 171.997559,153.037109 167.631348,153.037109 C163.148926,153.037109 160.343262,155.394531 160.160645,158.681641 L163.995605,158.681641 C164.26123,157.220703 165.506348,156.274414 167.465332,156.274414 C169.507324,156.274414 170.752441,157.336914 170.752441,159.179688 L170.752441,160.441406 L166.104004,160.707031 C161.820801,160.972656 159.413574,162.848633 159.413574,165.969727 C159.413574,169.140625 161.887207,171.282227 165.290527,171.282227 Z M166.535645,168.161133 C164.742676,168.161133 163.547363,167.248047 163.547363,165.803711 C163.547363,164.40918 164.692871,163.512695 166.685059,163.379883 L170.752441,163.130859 L170.752441,164.475586 C170.752441,166.600586 168.876465,168.161133 166.535645,168.161133 Z M178.156738,171 L182.290527,171 L182.290527,160.756836 C182.290527,158.283203 183.70166,156.772461 186.04248,156.772461 C186.739746,156.772461 187.370605,156.87207 187.719238,157.004883 L187.719238,153.269531 L187.424766,153.207578 C187.149364,153.154337 186.803781,153.103516 186.424316,153.103516 C184.349121,153.103516 182.805176,154.332031 182.20752,156.473633 L182.124512,156.473633 L182.124512,153.402344 L178.156738,153.402344 L178.156738,171 Z M191.819824,177.541016 L191.167483,177.531168 C190.766663,177.521417 190.318766,177.503662 190.192871,177.474609 L190.192871,174.204102 C190.408691,174.253906 191.13916,174.270508 191.388184,174.270508 C193.098145,174.270508 193.978027,173.623047 194.42627,171.996094 C194.42627,171.946289 194.691895,171.066406 194.675293,171.016602 L188.416504,153.402344 L192.932129,153.402344 L197.065918,167.480469 L197.148926,167.480469 L201.299316,153.402344 L205.648926,153.402344 L199.273926,171.697266 C197.779785,176.063477 195.837402,177.541016 191.819824,177.541016 Z" id="PhotoLibrary" fill="#007AFF" fill-rule="nonzero"></path>
    </g>
</svg>