<?xml version="1.0" encoding="UTF-8"?>
<svg width="150px" height="150px" viewBox="0 0 150 150" version="1.1" xmlns="http://www.w3.org/2000/svg" xmlns:xlink="http://www.w3.org/1999/xlink">
    <!-- Generator: Sketch 59.1 (86144) - https://sketch.com -->
    <title>Photos</title>
    <desc>Created with Sketch.</desc>
    <g id="Photos" stroke="none" stroke-width="1" fill="none" fill-rule="evenodd">
        <path d="M32.3320312,119.892578 L116.804688,119.892578 C127.058594,119.892578 132.136719,114.814453 132.136719,104.755859 L132.136719,45.1367188 C132.136719,35.078125 127.058594,30 116.804688,30 L32.3320312,30 C22.1269531,30 17,35.0292969 17,45.1367188 L17,104.755859 C17,114.863281 22.1269531,119.892578 32.3320312,119.892578 Z M53.6210938,76.1425781 C46.9804688,76.1425781 41.5605469,70.7226562 41.5605469,64.0820312 C41.5605469,57.4902344 46.9804688,52.0214844 53.6210938,52.0214844 C60.2128906,52.0214844 65.6328125,57.4902344 65.6328125,64.0820312 C65.6328125,70.7226562 60.2128906,76.1425781 53.6210938,76.1425781 Z M32.4296875,112.03125 C27.6933594,112.03125 24.8613281,109.199219 24.8613281,104.414062 L24.8613281,101.435547 L39.8515625,88.3496094 C42,86.4453125 44.34375,85.46875 46.4921875,85.46875 C48.8847656,85.46875 51.375,86.4453125 53.5234375,88.4472656 L62.8496094,96.8457031 L86.1894531,76.1425781 C88.5820312,73.9941406 91.2675781,73.0175781 94.0507812,73.0175781 C96.7363281,73.0175781 99.5195312,74.0429688 101.814453,76.1914062 L124.275391,96.9921875 L124.275391,104.511719 C124.275391,109.199219 121.394531,112.03125 116.755859,112.03125 L32.4296875,112.03125 Z" fill="#007AFF" fill-rule="nonzero"></path>
    </g>
</svg>