<?xml version="1.0" encoding="UTF-8"?>
<svg width="210px" height="190px" viewBox="0 0 210 190" version="1.1" xmlns="http://www.w3.org/2000/svg" xmlns:xlink="http://www.w3.org/1999/xlink">
    <!-- Generator: Sketch 59.1 (86144) - https://sketch.com -->
    <title>Photos</title>
    <desc>Created with Sketch.</desc>
    <g id="Photos" stroke="none" stroke-width="1" fill="none" fill-rule="evenodd">
        <path d="M62.3320312,119.892578 L146.804688,119.892578 C157.058594,119.892578 162.136719,114.814453 162.136719,104.755859 L162.136719,45.1367188 C162.136719,35.078125 157.058594,30 146.804688,30 L62.3320312,30 C52.1269531,30 47,35.0292969 47,45.1367188 L47,104.755859 C47,114.863281 52.1269531,119.892578 62.3320312,119.892578 Z M83.6210938,76.1425781 C76.9804688,76.1425781 71.5605469,70.7226562 71.5605469,64.0820312 C71.5605469,57.4902344 76.9804688,52.0214844 83.6210938,52.0214844 C90.2128906,52.0214844 95.6328125,57.4902344 95.6328125,64.0820312 C95.6328125,70.7226562 90.2128906,76.1425781 83.6210938,76.1425781 Z M62.4296875,112.03125 C57.6933594,112.03125 54.8613281,109.199219 54.8613281,104.414062 L54.8613281,101.435547 L69.8515625,88.3496094 C72,86.4453125 74.34375,85.46875 76.4921875,85.46875 C78.8847656,85.46875 81.375,86.4453125 83.5234375,88.4472656 L92.8496094,96.8457031 L116.189453,76.1425781 C118.582031,73.9941406 121.267578,73.0175781 124.050781,73.0175781 C126.736328,73.0175781 129.519531,74.0429688 131.814453,76.1914062 L154.275391,96.9921875 L154.275391,104.511719 C154.275391,109.199219 151.394531,112.03125 146.755859,112.03125 L62.4296875,112.03125 Z" fill="#007AFF" fill-rule="nonzero"></path>
        <path d="M12.4765625,155.453125 L12.4765625,178 L16.5078125,178 L16.5078125,170.546875 L21.0703125,170.546875 C25.6328125,170.546875 28.8359375,167.5 28.8359375,163 C28.8359375,158.5 25.7265625,155.453125 21.2421875,155.453125 L12.4765625,155.453125 Z M16.5078125,158.75 L20.1796875,158.75 C23.0703125,158.75 24.7421875,160.296875 24.7421875,163 C24.7421875,165.734375 23.0546875,167.296875 20.1640625,167.296875 L16.5078125,167.296875 L16.5078125,158.75 Z M31.4921875,178 L35.3828125,178 L35.3828125,168.484375 C35.3828125,166.046875 36.8046875,164.421875 39.1484375,164.421875 C41.3984375,164.421875 42.5546875,165.8125 42.5546875,168.125 L42.5546875,178 L46.4453125,178 L46.4453125,167.328125 C46.4453125,163.53125 44.3046875,161.125 40.6484375,161.125 C38.1328125,161.125 36.3046875,162.265625 35.4140625,164.28125 L35.3359375,164.28125 L35.3359375,155.453125 L31.4921875,155.453125 L31.4921875,178 Z M56.8828125,178.328125 C61.7421875,178.328125 64.8984375,175.09375 64.8984375,169.71875 C64.8984375,164.359375 61.7109375,161.09375 56.8828125,161.09375 C52.0546875,161.09375 48.8671875,164.375 48.8671875,169.71875 C48.8671875,175.09375 52.0234375,178.328125 56.8828125,178.328125 Z M56.8828125,175.25 C54.4140625,175.25 52.8203125,173.25 52.8203125,169.71875 C52.8203125,166.203125 54.4296875,164.1875 56.8828125,164.1875 C59.3515625,164.1875 60.9453125,166.203125 60.9453125,169.71875 C60.9453125,173.25 59.3515625,175.25 56.8828125,175.25 Z M68.4765625,157.5625 L68.4765625,161.4375 L66.1015625,161.4375 L66.1015625,164.4375 L68.4765625,164.4375 L68.4765625,173.59375 C68.4765625,176.8125 69.8828125,178.078125 73.4609375,178.078125 C74.2890625,178.078125 75.0546875,178.015625 75.4765625,177.921875 L75.4765625,174.953125 C75.2265625,175 74.7265625,175.03125 74.3671875,175.03125 C72.9921875,175.03125 72.3671875,174.40625 72.3671875,173.046875 L72.3671875,164.4375 L75.4921875,164.4375 L75.4921875,161.4375 L72.3671875,161.4375 L72.3671875,157.5625 L68.4765625,157.5625 Z M85.4609375,178.328125 C90.3203125,178.328125 93.4765625,175.09375 93.4765625,169.71875 C93.4765625,164.359375 90.2890625,161.09375 85.4609375,161.09375 C80.6328125,161.09375 77.4453125,164.375 77.4453125,169.71875 C77.4453125,175.09375 80.6015625,178.328125 85.4609375,178.328125 Z M85.4609375,175.25 C82.9921875,175.25 81.3984375,173.25 81.3984375,169.71875 C81.3984375,166.203125 83.0078125,164.1875 85.4609375,164.1875 C87.9296875,164.1875 89.5234375,166.203125 89.5234375,169.71875 C89.5234375,173.25 87.9296875,175.25 85.4609375,175.25 Z M117.039062,174.59375 L106.804688,174.59375 L106.804688,155.453125 L102.773438,155.453125 L102.773438,178 L117.039062,178 L117.039062,174.59375 Z M121.570312,158.9375 C122.757812,158.9375 123.695312,157.984375 123.695312,156.828125 C123.695312,155.65625 122.757812,154.71875 121.570312,154.71875 C120.382812,154.71875 119.429688,155.65625 119.429688,156.828125 C119.429688,157.984375 120.382812,158.9375 121.570312,158.9375 Z M119.632812,178 L123.523438,178 L123.523438,161.4375 L119.632812,161.4375 L119.632812,178 Z M136.054688,178.265625 C140.242188,178.265625 142.882812,175.015625 142.882812,169.71875 C142.882812,164.421875 140.226562,161.15625 136.054688,161.15625 C133.710938,161.15625 131.820312,162.34375 130.882812,164.28125 L130.789062,164.28125 L130.789062,155.453125 L126.898438,155.453125 L126.898438,178 L130.710938,178 L130.710938,175.171875 L130.789062,175.171875 C131.757812,177.09375 133.617188,178.265625 136.054688,178.265625 Z M134.851562,164.359375 C137.335938,164.359375 138.898438,166.4375 138.898438,169.71875 C138.898438,173.015625 137.351562,175.078125 134.851562,175.078125 C132.445312,175.078125 130.773438,172.96875 130.773438,169.71875 C130.773438,166.5 132.445312,164.359375 134.851562,164.359375 Z M145.398438,178 L149.289062,178 L149.289062,168.359375 C149.289062,166.03125 150.617188,164.609375 152.820312,164.609375 C153.476562,164.609375 154.070312,164.703125 154.398438,164.828125 L154.398438,161.3125 L154.121287,161.254191 C153.862085,161.204082 153.53683,161.15625 153.179688,161.15625 C151.226562,161.15625 149.773438,162.3125 149.210938,164.328125 L149.132812,164.328125 L149.132812,161.4375 L145.398438,161.4375 L145.398438,178 Z M161.273438,178.265625 C163.398438,178.265625 165.476562,177.15625 166.429688,175.359375 L166.507812,175.359375 L166.507812,178 L170.257812,178 L170.257812,166.59375 C170.257812,163.265625 167.585938,161.09375 163.476562,161.09375 C159.257812,161.09375 156.617188,163.3125 156.445312,166.40625 L160.054688,166.40625 C160.304688,165.03125 161.476562,164.140625 163.320312,164.140625 C165.242188,164.140625 166.414062,165.140625 166.414062,166.875 L166.414062,168.0625 L162.039062,168.3125 C158.007812,168.5625 155.742188,170.328125 155.742188,173.265625 C155.742188,176.25 158.070312,178.265625 161.273438,178.265625 Z M162.445312,175.328125 C160.757812,175.328125 159.632812,174.46875 159.632812,173.109375 C159.632812,171.796875 160.710938,170.953125 162.585938,170.828125 L166.414062,170.59375 L166.414062,171.859375 C166.414062,173.859375 164.648438,175.328125 162.445312,175.328125 Z M173.382812,178 L177.273438,178 L177.273438,168.359375 C177.273438,166.03125 178.601562,164.609375 180.804688,164.609375 C181.460938,164.609375 182.054688,164.703125 182.382812,164.828125 L182.382812,161.3125 L182.105662,161.254191 C181.84646,161.204082 181.521205,161.15625 181.164062,161.15625 C179.210938,161.15625 177.757812,162.3125 177.195312,164.328125 L177.117188,164.328125 L177.117188,161.4375 L173.382812,161.4375 L173.382812,178 Z M186.242188,184.15625 L185.554265,184.145098 C185.197508,184.135589 184.821733,184.119318 184.710938,184.09375 L184.710938,181.015625 C184.914062,181.0625 185.601562,181.078125 185.835938,181.078125 C187.445312,181.078125 188.273438,180.46875 188.695312,178.9375 C188.695312,178.890625 188.945312,178.0625 188.929688,178.015625 L183.039062,161.4375 L187.289062,161.4375 L191.179688,174.6875 L191.257812,174.6875 L195.164062,161.4375 L199.257812,161.4375 L193.257812,178.65625 C191.851562,182.765625 190.023438,184.15625 186.242188,184.15625 Z" id="PhotoLibrary" fill="#007AFF" fill-rule="nonzero"></path>
    </g>
</svg>