<?xml version="1.0" encoding="UTF-8"?>
<svg width="160px" height="190px" viewBox="0 0 160 190" version="1.1" xmlns="http://www.w3.org/2000/svg" xmlns:xlink="http://www.w3.org/1999/xlink">
    <!-- Generator: Sketch 59.1 (86144) - https://sketch.com -->
    <title>Photos</title>
    <desc>Created with Sketch.</desc>
    <g id="Photos" stroke="none" stroke-width="1" fill="none" fill-rule="evenodd">
        <path d="M37.3320312,119.892578 L121.804688,119.892578 C132.058594,119.892578 137.136719,114.814453 137.136719,104.755859 L137.136719,45.1367188 C137.136719,35.078125 132.058594,30 121.804688,30 L37.3320312,30 C27.1269531,30 22,35.0292969 22,45.1367188 L22,104.755859 C22,114.863281 27.1269531,119.892578 37.3320312,119.892578 Z M58.6210938,76.1425781 C51.9804688,76.1425781 46.5605469,70.7226562 46.5605469,64.0820312 C46.5605469,57.4902344 51.9804688,52.0214844 58.6210938,52.0214844 C65.2128906,52.0214844 70.6328125,57.4902344 70.6328125,64.0820312 C70.6328125,70.7226562 65.2128906,76.1425781 58.6210938,76.1425781 Z M37.4296875,112.03125 C32.6933594,112.03125 29.8613281,109.199219 29.8613281,104.414062 L29.8613281,101.435547 L44.8515625,88.3496094 C47,86.4453125 49.34375,85.46875 51.4921875,85.46875 C53.8847656,85.46875 56.375,86.4453125 58.5234375,88.4472656 L67.8496094,96.8457031 L91.1894531,76.1425781 C93.5820312,73.9941406 96.2675781,73.0175781 99.0507812,73.0175781 C101.736328,73.0175781 104.519531,74.0429688 106.814453,76.1914062 L129.275391,96.9921875 L129.275391,104.511719 C129.275391,109.199219 126.394531,112.03125 121.755859,112.03125 L37.4296875,112.03125 Z" fill="#007AFF" fill-rule="nonzero"></path>
        <path d="M3.97315785,148.089844 L3.97315785,165 L6.99659535,165 L6.99659535,159.410156 L10.6645641,159.410156 C14.0864391,159.410156 16.4770641,157.125 16.4770641,153.785156 C16.4770641,150.386719 14.1684704,148.089844 10.7934704,148.089844 L3.97315785,148.089844 Z M6.99659535,150.5625 L9.99659535,150.5625 C12.1762829,150.5625 13.4067516,151.6875 13.4067516,153.785156 C13.4067516,155.824219 12.1411266,156.972656 9.9848766,156.972656 L6.99659535,156.972656 L6.99659535,150.5625 Z M19.3871432,165 L22.2933932,165 L22.2933932,157.558594 C22.2933932,155.683594 23.3597994,154.429688 25.2699557,154.429688 C26.9574557,154.429688 27.8480807,155.4375 27.8480807,157.417969 L27.8480807,165 L30.7543307,165 L30.7543307,156.738281 C30.7543307,153.691406 29.0902682,151.957031 26.3480807,151.957031 C24.4379244,151.957031 23.0668307,152.824219 22.4574557,154.265625 L22.2465182,154.265625 L22.2465182,147.234375 L19.3871432,147.234375 L19.3871432,165 Z M39.5003473,165.257812 C43.3323785,165.257812 45.6644098,162.75 45.6644098,158.589844 C45.6644098,154.453125 43.3206598,151.945312 39.5003473,151.945312 C35.6917535,151.945312 33.3362848,154.464844 33.3362848,158.589844 C33.3362848,162.75 35.6565973,165.257812 39.5003473,165.257812 Z M39.5003473,162.878906 C37.4730035,162.878906 36.3128473,161.308594 36.3128473,158.601562 C36.3128473,155.894531 37.4730035,154.324219 39.5003473,154.324219 C41.5159723,154.324219 42.6761285,155.894531 42.6761285,158.601562 C42.6761285,161.308594 41.527691,162.878906 39.5003473,162.878906 Z M49.2893326,149.050781 L49.2893326,152.273438 L47.2619888,152.273438 L47.2619888,154.535156 L49.2893326,154.535156 L49.2893326,161.601562 C49.2893326,164.074219 50.4612076,165.058594 53.4026138,165.058594 C53.9651138,165.058594 54.5041763,165.011719 54.9260513,164.929688 L54.9260513,162.703125 L54.5458013,162.738937 C54.3663638,162.753281 54.1877701,162.761719 53.9416763,162.761719 C52.7229263,162.761719 52.1838638,162.1875 52.1838638,160.910156 L52.1838638,154.535156 L54.9260513,154.535156 L54.9260513,152.273438 L52.1838638,152.273438 L52.1838638,149.050781 L49.2893326,149.050781 Z M63.0158179,165.257812 C66.8478492,165.257812 69.1798804,162.75 69.1798804,158.589844 C69.1798804,154.453125 66.8361304,151.945312 63.0158179,151.945312 C59.2072242,151.945312 56.8517554,154.464844 56.8517554,158.589844 C56.8517554,162.75 59.1720679,165.257812 63.0158179,165.257812 Z M63.0158179,162.878906 C60.9884742,162.878906 59.8283179,161.308594 59.8283179,158.601562 C59.8283179,155.894531 60.9884742,154.324219 63.0158179,154.324219 C65.0314429,154.324219 66.1915992,155.894531 66.1915992,158.601562 C66.1915992,161.308594 65.0431617,162.878906 63.0158179,162.878906 Z M89.1328511,162.410156 L81.3750386,162.410156 L81.3750386,148.089844 L78.3516011,148.089844 L78.3516011,165 L89.1328511,165 L89.1328511,162.410156 Z M93.3319927,150.046875 C94.2929302,150.046875 95.0780864,149.285156 95.0780864,148.324219 C95.0780864,147.375 94.2929302,146.601562 93.3319927,146.601562 C92.3827739,146.601562 91.5976177,147.375 91.5976177,148.324219 C91.5976177,149.285156 92.3827739,150.046875 93.3319927,150.046875 Z M91.8905864,165 L94.7851177,165 L94.7851177,152.191406 L91.8905864,152.191406 L91.8905864,165 Z M105.277228,165.210938 C108.511603,165.210938 110.538947,162.667969 110.538947,158.601562 C110.538947,154.511719 108.523322,151.980469 105.277228,151.980469 C103.519415,151.980469 102.042853,152.835938 101.374884,154.230469 L101.175665,154.230469 L101.175665,147.234375 L98.2694155,147.234375 L98.2694155,165 L101.070197,165 L101.070197,162.972656 L101.269415,162.972656 C101.995978,164.378906 103.484259,165.210938 105.277228,165.210938 Z M104.363165,154.40625 C106.343634,154.40625 107.550665,155.988281 107.550665,158.601562 C107.550665,161.214844 106.355353,162.796875 104.363165,162.796875 C102.370978,162.796875 101.12879,161.191406 101.12879,158.601562 C101.12879,156.011719 102.382697,154.40625 104.363165,154.40625 Z M113.22637,165 L116.13262,165 L116.13262,157.558594 C116.13262,155.753906 117.44512,154.582031 119.331838,154.582031 C119.824026,154.582031 120.597463,154.664062 120.82012,154.746094 L120.82012,152.097656 C120.550588,152.027344 120.034963,151.980469 119.613088,151.980469 C117.960745,151.980469 116.577932,152.917969 116.22637,154.183594 L116.027151,154.183594 L116.027151,152.191406 L113.22637,152.191406 L113.22637,165 Z M126.34348,165.210938 C128.019261,165.210938 129.425511,164.484375 130.140355,163.242188 L130.339574,163.242188 L130.339574,165 L133.140355,165 L133.140355,156.246094 C133.140355,153.539062 131.288792,151.945312 127.995824,151.945312 C124.948949,151.945312 122.827855,153.375 122.59348,155.613281 L125.335667,155.613281 C125.605199,154.734375 126.519261,154.253906 127.855199,154.253906 C129.425511,154.253906 130.269261,154.96875 130.269261,156.246094 L130.269261,157.347656 L126.964574,157.546875 C123.847386,157.722656 122.101292,159.070312 122.101292,161.367188 C122.101292,163.710938 123.870824,165.210938 126.34348,165.210938 Z M127.198949,162.972656 C125.909886,162.972656 124.984105,162.328125 124.984105,161.226562 C124.984105,160.160156 125.745824,159.5625 127.37473,159.457031 L130.269261,159.257812 L130.269261,160.300781 C130.269261,161.824219 128.956761,162.972656 127.198949,162.972656 Z M136.401996,165 L139.308246,165 L139.308246,157.558594 C139.308246,155.753906 140.620746,154.582031 142.507465,154.582031 C142.999653,154.582031 143.77309,154.664062 143.995746,154.746094 L143.995746,152.097656 C143.726215,152.027344 143.21059,151.980469 142.788715,151.980469 C141.136371,151.980469 139.753559,152.917969 139.401996,154.183594 L139.202778,154.183594 L139.202778,152.191406 L136.401996,152.191406 L136.401996,165 Z M147.667544,169.640625 L147.333343,169.636285 C147.034732,169.630208 146.644107,169.617188 146.519107,169.59375 L146.519107,167.285156 C146.683169,167.308594 147.116763,167.320312 147.315982,167.320312 C148.546451,167.320312 149.237857,166.851562 149.612857,165.644531 L149.765201,165.046875 L145.183169,152.191406 L148.370669,152.191406 L151.370669,162.246094 L151.569888,162.246094 L154.558169,152.191406 L157.628482,152.191406 L152.999576,165.445312 C151.909732,168.597656 150.538638,169.640625 147.667544,169.640625 Z" id="PhotoLibrary" fill="#007AFF" fill-rule="nonzero"></path>
    </g>
</svg>