<?xml version="1.0" encoding="UTF-8"?>
<svg width="190px" height="190px" viewBox="0 0 190 190" version="1.1" xmlns="http://www.w3.org/2000/svg" xmlns:xlink="http://www.w3.org/1999/xlink">
    <!-- Generator: Sketch 59.1 (86144) - https://sketch.com -->
    <title>Photos</title>
    <desc>Created with Sketch.</desc>
    <g id="Photos" stroke="none" stroke-width="1" fill="none" fill-rule="evenodd">
        <path d="M52.3320312,119.892578 L136.804688,119.892578 C147.058594,119.892578 152.136719,114.814453 152.136719,104.755859 L152.136719,45.1367188 C152.136719,35.078125 147.058594,30 136.804688,30 L52.3320312,30 C42.1269531,30 37,35.0292969 37,45.1367188 L37,104.755859 C37,114.863281 42.1269531,119.892578 52.3320312,119.892578 Z M73.6210938,76.1425781 C66.9804688,76.1425781 61.5605469,70.7226562 61.5605469,64.0820312 C61.5605469,57.4902344 66.9804688,52.0214844 73.6210938,52.0214844 C80.2128906,52.0214844 85.6328125,57.4902344 85.6328125,64.0820312 C85.6328125,70.7226562 80.2128906,76.1425781 73.6210938,76.1425781 Z M52.4296875,112.03125 C47.6933594,112.03125 44.8613281,109.199219 44.8613281,104.414062 L44.8613281,101.435547 L59.8515625,88.3496094 C62,86.4453125 64.34375,85.46875 66.4921875,85.46875 C68.8847656,85.46875 71.375,86.4453125 73.5234375,88.4472656 L82.8496094,96.8457031 L106.189453,76.1425781 C108.582031,73.9941406 111.267578,73.0175781 114.050781,73.0175781 C116.736328,73.0175781 119.519531,74.0429688 121.814453,76.1914062 L144.275391,96.9921875 L144.275391,104.511719 C144.275391,109.199219 141.394531,112.03125 136.755859,112.03125 L52.4296875,112.03125 Z" fill="#007AFF" fill-rule="nonzero"></path>
        <path d="M19.824707,146.680664 L19.824707,165 L23.1000977,165 L23.1000977,158.944336 L26.8071289,158.944336 C30.5141602,158.944336 33.1166992,156.46875 33.1166992,152.8125 C33.1166992,149.15625 30.590332,146.680664 26.9467773,146.680664 L19.824707,146.680664 Z M23.1000977,149.359375 L26.0834961,149.359375 C28.4321289,149.359375 29.7905273,150.616211 29.7905273,152.8125 C29.7905273,155.03418 28.4194336,156.303711 26.0708008,156.303711 L23.1000977,156.303711 L23.1000977,149.359375 Z M35.2749023,165 L38.4360352,165 L38.4360352,157.268555 C38.4360352,155.288086 39.5913086,153.967773 41.4956055,153.967773 C43.3237305,153.967773 44.2631836,155.097656 44.2631836,156.976562 L44.2631836,165 L47.4243164,165 L47.4243164,156.329102 C47.4243164,153.244141 45.6850586,151.289062 42.7143555,151.289062 C40.6704102,151.289062 39.1850586,152.21582 38.4614258,153.853516 L38.3979492,153.853516 L38.3979492,146.680664 L35.2749023,146.680664 L35.2749023,165 Z M55.9047852,165.266602 C59.8530273,165.266602 62.4174805,162.638672 62.4174805,158.271484 C62.4174805,153.916992 59.8276367,151.263672 55.9047852,151.263672 C51.9819336,151.263672 49.3920898,153.929688 49.3920898,158.271484 C49.3920898,162.638672 51.956543,165.266602 55.9047852,165.266602 Z M55.9047852,162.765625 C53.8989258,162.765625 52.6040039,161.140625 52.6040039,158.271484 C52.6040039,155.415039 53.9116211,153.777344 55.9047852,153.777344 C57.9106445,153.777344 59.2055664,155.415039 59.2055664,158.271484 C59.2055664,161.140625 57.9106445,162.765625 55.9047852,162.765625 Z M65.324707,148.394531 L65.324707,151.542969 L63.3950195,151.542969 L63.3950195,153.980469 L65.324707,153.980469 L65.324707,161.419922 C65.324707,164.035156 66.4672852,165.063477 69.3745117,165.063477 C70.0473633,165.063477 70.6694336,165.012695 71.012207,164.936523 L71.012207,162.524414 C70.809082,162.5625 70.402832,162.587891 70.1108398,162.587891 C68.9936523,162.587891 68.4858398,162.080078 68.4858398,160.975586 L68.4858398,153.980469 L71.0249023,153.980469 L71.0249023,151.542969 L68.4858398,151.542969 L68.4858398,148.394531 L65.324707,148.394531 Z M79.1245117,165.266602 C83.0727539,165.266602 85.637207,162.638672 85.637207,158.271484 C85.637207,153.916992 83.0473633,151.263672 79.1245117,151.263672 C75.2016602,151.263672 72.6118164,153.929688 72.6118164,158.271484 C72.6118164,162.638672 75.1762695,165.266602 79.1245117,165.266602 Z M79.1245117,162.765625 C77.1186523,162.765625 75.8237305,161.140625 75.8237305,158.271484 C75.8237305,155.415039 77.1313477,153.777344 79.1245117,153.777344 C81.1303711,153.777344 82.425293,155.415039 82.425293,158.271484 C82.425293,161.140625 81.1303711,162.765625 79.1245117,162.765625 Z M104.781738,162.232422 L96.4663086,162.232422 L96.4663086,146.680664 L93.190918,146.680664 L93.190918,165 L104.781738,165 L104.781738,162.232422 Z M108.463379,149.511719 C109.428223,149.511719 110.189941,148.737305 110.189941,147.797852 C110.189941,146.845703 109.428223,146.083984 108.463379,146.083984 C107.498535,146.083984 106.724121,146.845703 106.724121,147.797852 C106.724121,148.737305 107.498535,149.511719 108.463379,149.511719 Z M106.88916,165 L110.050293,165 L110.050293,151.542969 L106.88916,151.542969 L106.88916,165 Z M120.231934,165.21582 C123.634277,165.21582 125.779785,162.575195 125.779785,158.271484 C125.779785,153.967773 123.621582,151.314453 120.231934,151.314453 C118.327637,151.314453 116.791504,152.279297 116.029785,153.853516 L115.953613,153.853516 L115.953613,146.680664 L112.79248,146.680664 L112.79248,165 L115.890137,165 L115.890137,162.702148 L115.953613,162.702148 C116.740723,164.263672 118.251465,165.21582 120.231934,165.21582 Z M119.254395,153.916992 C121.272949,153.916992 122.54248,155.605469 122.54248,158.271484 C122.54248,160.950195 121.285645,162.625977 119.254395,162.625977 C117.299316,162.625977 115.940918,160.912109 115.940918,158.271484 C115.940918,155.65625 117.299316,153.916992 119.254395,153.916992 Z M127.82373,165 L130.984863,165 L130.984863,157.166992 C130.984863,155.275391 132.063965,154.120117 133.854004,154.120117 C134.387207,154.120117 134.869629,154.196289 135.13623,154.297852 L135.13623,151.441406 L134.868218,151.385923 C134.665093,151.348307 134.416829,151.314453 134.145996,151.314453 C132.559082,151.314453 131.378418,152.253906 130.921387,153.891602 L130.85791,153.891602 L130.85791,151.542969 L127.82373,151.542969 L127.82373,165 Z M140.722168,165.21582 C142.44873,165.21582 144.137207,164.314453 144.911621,162.854492 L144.975098,162.854492 L144.975098,165 L148.021973,165 L148.021973,155.732422 C148.021973,153.02832 145.851074,151.263672 142.512207,151.263672 C139.084473,151.263672 136.938965,153.066406 136.799316,155.580078 L139.731934,155.580078 C139.935059,154.462891 140.887207,153.739258 142.385254,153.739258 C143.946777,153.739258 144.898926,154.551758 144.898926,155.960938 L144.898926,156.925781 L141.344238,157.128906 C138.068848,157.332031 136.228027,158.766602 136.228027,161.15332 C136.228027,163.578125 138.119629,165.21582 140.722168,165.21582 Z M141.674316,162.829102 C140.303223,162.829102 139.38916,162.130859 139.38916,161.026367 C139.38916,159.959961 140.265137,159.274414 141.788574,159.172852 L144.898926,158.982422 L144.898926,160.010742 C144.898926,161.635742 143.464355,162.829102 141.674316,162.829102 Z M150.561035,165 L153.722168,165 L153.722168,157.166992 C153.722168,155.275391 154.80127,154.120117 156.591309,154.120117 C157.124512,154.120117 157.606934,154.196289 157.873535,154.297852 L157.873535,151.441406 L157.605523,151.385923 C157.402398,151.348307 157.154134,151.314453 156.883301,151.314453 C155.296387,151.314453 154.115723,152.253906 153.658691,153.891602 L153.595215,153.891602 L153.595215,151.542969 L150.561035,151.542969 L150.561035,165 Z M161.009277,170.001953 L160.536605,169.995047 C160.223691,169.987734 159.86416,169.974023 159.765137,169.951172 L159.765137,167.450195 C159.906599,167.48284 160.337203,167.496831 160.577267,167.500162 L160.679199,167.500977 C161.986816,167.500977 162.659668,167.005859 163.002441,165.761719 L163.027937,165.656221 C163.082061,165.455934 163.202745,165.042318 163.192871,165.012695 L158.406738,151.542969 L161.859863,151.542969 L165.020996,162.308594 L165.084473,162.308594 L168.258301,151.542969 L171.584473,151.542969 L166.709473,165.533203 C165.566895,168.87207 164.081543,170.001953 161.009277,170.001953 Z" id="PhotoLibrary" fill="#007AFF" fill-rule="nonzero"></path>
    </g>
</svg>