<?xml version="1.0" encoding="UTF-8"?>
<svg width="160px" height="190px" viewBox="0 0 160 190" version="1.1" xmlns="http://www.w3.org/2000/svg" xmlns:xlink="http://www.w3.org/1999/xlink">
    <!-- Generator: Sketch 59.1 (86144) - https://sketch.com -->
    <title>Photos</title>
    <desc>Created with Sketch.</desc>
    <g id="Photos" stroke="none" stroke-width="1" fill="none" fill-rule="evenodd">
        <path d="M37.3320312,119.892578 L121.804688,119.892578 C132.058594,119.892578 137.136719,114.814453 137.136719,104.755859 L137.136719,45.1367188 C137.136719,35.078125 132.058594,30 121.804688,30 L37.3320312,30 C27.1269531,30 22,35.0292969 22,45.1367188 L22,104.755859 C22,114.863281 27.1269531,119.892578 37.3320312,119.892578 Z M58.6210938,76.1425781 C51.9804688,76.1425781 46.5605469,70.7226562 46.5605469,64.0820312 C46.5605469,57.4902344 51.9804688,52.0214844 58.6210938,52.0214844 C65.2128906,52.0214844 70.6328125,57.4902344 70.6328125,64.0820312 C70.6328125,70.7226562 65.2128906,76.1425781 58.6210938,76.1425781 Z M37.4296875,112.03125 C32.6933594,112.03125 29.8613281,109.199219 29.8613281,104.414062 L29.8613281,101.435547 L44.8515625,88.3496094 C47,86.4453125 49.34375,85.46875 51.4921875,85.46875 C53.8847656,85.46875 56.375,86.4453125 58.5234375,88.4472656 L67.8496094,96.8457031 L91.1894531,76.1425781 C93.5820312,73.9941406 96.2675781,73.0175781 99.0507812,73.0175781 C101.736328,73.0175781 104.519531,74.0429688 106.814453,76.1914062 L129.275391,96.9921875 L129.275391,104.511719 C129.275391,109.199219 126.394531,112.03125 121.755859,112.03125 L37.4296875,112.03125 Z" fill="#007AFF" fill-rule="nonzero"></path>
        <path d="M43.9325489,165.351562 C47.184502,165.351562 49.5673145,163.427734 49.8993458,160.576172 L47.418877,160.576172 C47.0770802,162.158203 45.7196583,163.164062 43.9325489,163.164062 C41.5302052,163.164062 40.0360645,161.162109 40.0360645,157.949219 C40.0360645,154.746094 41.5302052,152.744141 43.9227833,152.744141 C45.700127,152.744141 47.0575489,153.847656 47.4091114,155.546875 L49.8895802,155.546875 C49.5966114,152.626953 47.1259083,150.556641 43.9227833,150.556641 C39.9286427,150.556641 37.4579395,153.378906 37.4579395,157.958984 C37.4579395,162.519531 39.9384083,165.351562 43.9325489,165.351562 Z M56.8556617,165.214844 C60.0490211,165.214844 61.9923804,163.125 61.9923804,159.658203 C61.9923804,156.210938 60.0392554,154.121094 56.8556617,154.121094 C53.6818336,154.121094 51.7189429,156.220703 51.7189429,159.658203 C51.7189429,163.125 53.6525367,165.214844 56.8556617,165.214844 Z M56.8556617,163.232422 C55.1662086,163.232422 54.1994117,161.923828 54.1994117,159.667969 C54.1994117,157.412109 55.1662086,156.103516 56.8556617,156.103516 C58.5353492,156.103516 59.5021461,157.412109 59.5021461,159.667969 C59.5021461,161.923828 58.5451148,163.232422 56.8556617,163.232422 Z M64.2416651,165 L66.6635401,165 L66.6635401,158.779297 C66.6635401,157.177734 67.5717432,156.171875 69.0170557,156.171875 C70.4916651,156.171875 71.1752588,157.001953 71.1752588,158.662109 L71.1752588,165 L73.5971338,165 L73.5971338,158.095703 C73.5971338,155.556641 72.2983057,154.121094 69.9154932,154.121094 C68.3236963,154.121094 67.2494776,154.84375 66.7416651,156.035156 L66.5756495,156.035156 L66.5756495,154.326172 L64.2416651,154.326172 L64.2416651,165 Z M77.0475904,151.708984 L77.0475904,154.394531 L75.3581372,154.394531 L75.3581372,156.279297 L77.0475904,156.279297 L77.0475904,162.167969 C77.0475904,164.228516 78.0241529,165.048828 80.4753247,165.048828 C80.9440747,165.048828 81.3932935,165.009766 81.744856,164.941406 L81.744856,163.085938 L81.427981,163.115781 C81.2784497,163.127734 81.1296216,163.134766 80.9245435,163.134766 C79.9089185,163.134766 79.4596997,162.65625 79.4596997,161.591797 L79.4596997,156.279297 L81.744856,156.279297 L81.744856,154.394531 L79.4596997,154.394531 L79.4596997,151.708984 L77.0475904,151.708984 Z M86.9140625,165.175781 C88.3105469,165.175781 89.4824219,164.570312 90.078125,163.535156 L90.2441406,163.535156 L90.2441406,165 L92.578125,165 L92.578125,157.705078 C92.578125,155.449219 91.0351563,154.121094 88.2910156,154.121094 C85.7519531,154.121094 83.984375,155.3125 83.7890625,157.177734 L86.0742188,157.177734 C86.2988281,156.445312 87.0605469,156.044922 88.1738281,156.044922 C89.4824219,156.044922 90.1855469,156.640625 90.1855469,157.705078 L90.1855469,158.623047 L87.4316406,158.789062 C84.8339844,158.935547 83.3789063,160.058594 83.3789063,161.972656 C83.3789063,163.925781 84.8535156,165.175781 86.9140625,165.175781 Z M87.6269531,163.310547 C86.5527344,163.310547 85.78125,162.773438 85.78125,161.855469 C85.78125,160.966797 86.4160156,160.46875 87.7734375,160.380859 L90.1855469,160.214844 L90.1855469,161.083984 C90.1855469,162.353516 89.0917969,163.310547 87.6269531,163.310547 Z M104.524675,157.890625 C104.270769,155.683594 102.610613,154.121094 99.8664722,154.121094 C96.6535815,154.121094 94.7688159,156.181641 94.7688159,159.638672 C94.7688159,163.134766 96.6633472,165.214844 99.8762378,165.214844 C102.581316,165.214844 104.261003,163.710938 104.524675,161.503906 L102.219988,161.503906 C101.966082,162.626953 101.126238,163.222656 99.8664722,163.222656 C98.2160815,163.222656 97.2199878,161.904297 97.2199878,159.638672 C97.2199878,157.412109 98.2063159,156.103516 99.8664722,156.103516 C101.194597,156.103516 101.995378,156.855469 102.219988,157.890625 L104.524675,157.890625 Z M107.55521,151.708984 L107.55521,154.394531 L105.865757,154.394531 L105.865757,156.279297 L107.55521,156.279297 L107.55521,162.167969 C107.55521,164.228516 108.531772,165.048828 110.982944,165.048828 C111.451694,165.048828 111.900913,165.009766 112.252476,164.941406 L112.252476,163.085938 L111.935601,163.115781 C111.786069,163.127734 111.637241,163.134766 111.432163,163.134766 C110.416538,163.134766 109.967319,162.65625 109.967319,161.591797 L109.967319,156.279297 L112.252476,156.279297 L112.252476,154.394531 L109.967319,154.394531 L109.967319,151.708984 L107.55521,151.708984 Z M114.10137,157.373047 C114.10137,155.458984 115.859182,154.121094 118.378713,154.121094 C120.917776,154.121094 122.509573,155.234375 122.685354,157.158203 L120.409963,157.158203 C120.234182,156.40625 119.521291,155.917969 118.388479,155.917969 C117.284963,155.917969 116.454885,156.455078 116.454885,157.246094 C116.454885,157.851562 116.962698,158.232422 118.036916,158.486328 L119.921682,158.90625 C121.962698,159.375 122.909963,160.244141 122.909963,161.816406 C122.909963,163.857422 121.025198,165.214844 118.359182,165.214844 C115.693166,165.214844 114.013479,164.0625 113.827932,162.138672 L116.22051,162.138672 C116.454885,162.929688 117.206838,163.417969 118.417776,163.417969 C119.638479,163.417969 120.488088,162.861328 120.488088,162.050781 C120.488088,161.445312 120.029104,161.054688 119.013479,160.820312 L117.118948,160.380859 C115.068166,159.912109 114.10137,158.974609 114.10137,157.373047 Z" id="Contacts" fill="#007AFF" fill-rule="nonzero"></path>
    </g>
</svg>