<?xml version="1.0" encoding="UTF-8"?>
<svg width="160px" height="190px" viewBox="0 0 160 190" version="1.1" xmlns="http://www.w3.org/2000/svg" xmlns:xlink="http://www.w3.org/1999/xlink">
    <!-- Generator: Sketch 59.1 (86144) - https://sketch.com -->
    <title>Photos</title>
    <desc>Created with Sketch.</desc>
    <g id="Photos" stroke="none" stroke-width="1" fill="none" fill-rule="evenodd">
        <path d="M37.3320312,119.892578 L121.804688,119.892578 C132.058594,119.892578 137.136719,114.814453 137.136719,104.755859 L137.136719,45.1367188 C137.136719,35.078125 132.058594,30 121.804688,30 L37.3320312,30 C27.1269531,30 22,35.0292969 22,45.1367188 L22,104.755859 C22,114.863281 27.1269531,119.892578 37.3320312,119.892578 Z M58.6210938,76.1425781 C51.9804688,76.1425781 46.5605469,70.7226562 46.5605469,64.0820312 C46.5605469,57.4902344 51.9804688,52.0214844 58.6210938,52.0214844 C65.2128906,52.0214844 70.6328125,57.4902344 70.6328125,64.0820312 C70.6328125,70.7226562 65.2128906,76.1425781 58.6210938,76.1425781 Z M37.4296875,112.03125 C32.6933594,112.03125 29.8613281,109.199219 29.8613281,104.414062 L29.8613281,101.435547 L44.8515625,88.3496094 C47,86.4453125 49.34375,85.46875 51.4921875,85.46875 C53.8847656,85.46875 56.375,86.4453125 58.5234375,88.4472656 L67.8496094,96.8457031 L91.1894531,76.1425781 C93.5820312,73.9941406 96.2675781,73.0175781 99.0507812,73.0175781 C101.736328,73.0175781 104.519531,74.0429688 106.814453,76.1914062 L129.275391,96.9921875 L129.275391,104.511719 C129.275391,109.199219 126.394531,112.03125 121.755859,112.03125 L37.4296875,112.03125 Z" fill="#007AFF" fill-rule="nonzero"></path>
        <path d="M30,156.84375 L30,168.117188 L31.75,168.117188 L31.75,164.265625 L34.359375,164.265625 C36.5703125,164.265625 38.1328125,162.75 38.1328125,160.578125 C38.1328125,158.359375 36.6171875,156.84375 34.4140625,156.84375 L30,156.84375 Z M31.75,158.320312 L33.953125,158.320312 C35.4921875,158.320312 36.34375,159.117188 36.34375,160.578125 C36.34375,161.992188 35.4609375,162.796875 33.953125,162.796875 L31.75,162.796875 L31.75,158.320312 Z M40.1119277,168.117188 L41.7916152,168.117188 L41.7916152,163.148438 C41.7916152,161.820312 42.5572402,160.9375 43.9322402,160.9375 C45.1197402,160.9375 45.7525527,161.632812 45.7525527,163.03125 L45.7525527,168.117188 L47.4322402,168.117188 L47.4322402,162.632812 C47.4322402,160.625 46.3150527,159.476562 44.5025527,159.476562 C43.2213027,159.476562 42.3228652,160.039062 41.9088027,160.984375 L41.7759902,160.984375 L41.7759902,156.304688 L40.1119277,156.304688 L40.1119277,168.117188 Z M53.2316679,168.28125 C55.7160429,168.28125 57.2394804,166.617188 57.2394804,163.875 C57.2394804,161.132812 55.7082304,159.46875 53.2316679,159.46875 C50.7472929,159.46875 49.2160429,161.140625 49.2160429,163.875 C49.2160429,166.617188 50.7394804,168.28125 53.2316679,168.28125 Z M53.2316679,166.851562 C51.7707304,166.851562 50.9504179,165.765625 50.9504179,163.875 C50.9504179,161.984375 51.7707304,160.890625 53.2316679,160.890625 C54.6847929,160.890625 55.5129179,161.984375 55.5129179,163.875 C55.5129179,165.757812 54.6847929,166.851562 53.2316679,166.851562 Z M59.6951582,157.492188 L59.6951582,159.65625 L58.3435957,159.65625 L58.3435957,161 L59.6951582,161 L59.6951582,165.882812 C59.6951582,167.515625 60.4373457,168.171875 62.3045332,168.171875 C62.6326582,168.171875 62.9451582,168.132812 63.2185957,168.085938 L63.2185957,166.75 L62.9070722,166.77832 C62.8084394,166.785156 62.7068769,166.789062 62.5779707,166.789062 C61.7420332,166.789062 61.3748457,166.390625 61.3748457,165.476562 L61.3748457,161 L63.2185957,161 L63.2185957,159.65625 L61.3748457,159.65625 L61.3748457,157.492188 L59.6951582,157.492188 Z M68.5414609,168.28125 C71.0258359,168.28125 72.5492734,166.617188 72.5492734,163.875 C72.5492734,161.132812 71.0180234,159.46875 68.5414609,159.46875 C66.0570859,159.46875 64.5258359,161.140625 64.5258359,163.875 C64.5258359,166.617188 66.0492734,168.28125 68.5414609,168.28125 Z M68.5414609,166.851562 C67.0805234,166.851562 66.2602109,165.765625 66.2602109,163.875 C66.2602109,161.984375 67.0805234,160.890625 68.5414609,160.890625 C69.9945859,160.890625 70.8227109,161.984375 70.8227109,163.875 C70.8227109,165.757812 69.9945859,166.851562 68.5414609,166.851562 Z M85.8590663,166.59375 L80.5778163,166.59375 L80.5778163,156.84375 L78.8278163,156.84375 L78.8278163,168.117188 L85.8590663,168.117188 L85.8590663,166.59375 Z M88.5881815,158.117188 C89.174119,158.117188 89.6506815,157.640625 89.6506815,157.0625 C89.6506815,156.476562 89.174119,156 88.5881815,156 C88.002244,156 87.5256815,156.476562 87.5256815,157.0625 C87.5256815,157.640625 88.002244,158.117188 88.5881815,158.117188 Z M87.752244,168.117188 L89.424119,168.117188 L89.424119,159.632812 L87.752244,159.632812 L87.752244,168.117188 Z M96.2469843,168.257812 C98.3954218,168.257812 99.7626093,166.546875 99.7626093,163.875 C99.7626093,161.179688 98.4032343,159.484375 96.2469843,159.484375 C95.0829218,159.484375 94.0829218,160.054688 93.6297968,160.976562 L93.4969843,160.976562 L93.4969843,156.304688 L91.8172968,156.304688 L91.8172968,168.117188 L93.4344843,168.117188 L93.4344843,166.773438 L93.5594843,166.773438 C94.0672968,167.710938 95.0594843,168.257812 96.2469843,168.257812 Z M95.7626093,160.921875 C97.1844843,160.921875 98.0360468,162.039062 98.0360468,163.875 C98.0360468,165.710938 97.1844843,166.820312 95.7626093,166.820312 C94.3485468,166.820312 93.4735468,165.695312 93.4657343,163.875 C93.4735468,162.054688 94.3563593,160.921875 95.7626093,160.921875 Z M101.624537,168.117188 L103.304224,168.117188 L103.304224,163.046875 C103.304224,161.851562 104.202662,161.03125 105.476099,161.03125 C105.772974,161.03125 106.272974,161.085938 106.413599,161.125 L106.413599,159.546875 C106.233912,159.507812 105.913599,159.484375 105.663599,159.484375 C104.554224,159.484375 103.608912,160.085938 103.366724,160.921875 L103.241724,160.921875 L103.241724,159.632812 L101.624537,159.632812 L101.624537,168.117188 Z M110.173965,168.257812 C111.291152,168.257812 112.22084,167.773438 112.728652,166.914062 L112.861465,166.914062 L112.861465,168.117188 L114.478652,168.117188 L114.478652,162.3125 C114.478652,160.53125 113.275527,159.46875 111.142715,159.46875 C109.213027,159.46875 107.838027,160.398438 107.666152,161.828125 L109.291152,161.828125 C109.478652,161.210938 110.12709,160.859375 111.06459,160.859375 C112.213027,160.859375 112.806777,161.382812 112.806777,162.3125 L112.806777,163.054688 L110.50209,163.195312 C108.478652,163.320312 107.338027,164.203125 107.338027,165.726562 C107.338027,167.273438 108.53334,168.257812 110.173965,168.257812 Z M110.603652,166.90625 C109.68959,166.90625 109.025527,166.445312 109.025527,165.65625 C109.025527,164.882812 109.556777,164.46875 110.728652,164.390625 L112.806777,164.25 L112.806777,164.984375 C112.806777,166.078125 111.869277,166.90625 110.603652,166.90625 Z M116.71558,168.117188 L118.395267,168.117188 L118.395267,163.046875 C118.395267,161.851562 119.293705,161.03125 120.567142,161.03125 C120.864017,161.03125 121.364017,161.085938 121.504642,161.125 L121.504642,159.546875 C121.324955,159.507812 121.004642,159.484375 120.754642,159.484375 C119.645267,159.484375 118.699955,160.085938 118.457767,160.921875 L118.332767,160.921875 L118.332767,159.632812 L116.71558,159.632812 L116.71558,168.117188 Z M123.850945,171.195312 L123.642901,171.190394 C123.471605,171.184028 123.259799,171.171875 123.155633,171.15625 L123.155633,169.78125 C123.288445,169.804688 123.546258,169.8125 123.702508,169.8125 C124.499383,169.8125 124.952508,169.476562 125.24157,168.578125 L125.36657,168.140625 L122.288445,159.632812 L124.11657,159.632812 L126.249383,166.429688 L126.382195,166.429688 L128.507195,159.632812 L130.288445,159.632812 L127.11657,168.507812 C126.390008,170.546875 125.58532,171.195312 123.850945,171.195312 Z" id="PhotoLibrary" fill="#007AFF" fill-rule="nonzero"></path>
    </g>
</svg>