<?xml version="1.0" encoding="UTF-8"?>
<svg width="220px" height="210px" viewBox="0 0 220 210" version="1.1" xmlns="http://www.w3.org/2000/svg" xmlns:xlink="http://www.w3.org/1999/xlink">
    <!-- Generator: Sketch 59.1 (86144) - https://sketch.com -->
    <title>Photos</title>
    <desc>Created with Sketch.</desc>
    <g id="Photos" stroke="none" stroke-width="1" fill="none" fill-rule="evenodd">
        <path d="M67.3320312,119.892578 L151.804688,119.892578 C162.058594,119.892578 167.136719,114.814453 167.136719,104.755859 L167.136719,45.1367188 C167.136719,35.078125 162.058594,30 151.804688,30 L67.3320312,30 C57.1269531,30 52,35.0292969 52,45.1367188 L52,104.755859 C52,114.863281 57.1269531,119.892578 67.3320312,119.892578 Z M88.6210938,76.1425781 C81.9804688,76.1425781 76.5605469,70.7226562 76.5605469,64.0820312 C76.5605469,57.4902344 81.9804688,52.0214844 88.6210938,52.0214844 C95.2128906,52.0214844 100.632812,57.4902344 100.632812,64.0820312 C100.632812,70.7226562 95.2128906,76.1425781 88.6210938,76.1425781 Z M67.4296875,112.03125 C62.6933594,112.03125 59.8613281,109.199219 59.8613281,104.414062 L59.8613281,101.435547 L74.8515625,88.3496094 C77,86.4453125 79.34375,85.46875 81.4921875,85.46875 C83.8847656,85.46875 86.375,86.4453125 88.5234375,88.4472656 L97.8496094,96.8457031 L121.189453,76.1425781 C123.582031,73.9941406 126.267578,73.0175781 129.050781,73.0175781 C131.736328,73.0175781 134.519531,74.0429688 136.814453,76.1914062 L159.275391,96.9921875 L159.275391,104.511719 C159.275391,109.199219 156.394531,112.03125 151.755859,112.03125 L67.4296875,112.03125 Z" fill="#007AFF" fill-rule="nonzero"></path>
        <path d="M17,155.734375 L17,178.28125 L21.03125,178.28125 L21.03125,170.828125 L25.59375,170.828125 C30.15625,170.828125 33.359375,167.78125 33.359375,163.28125 C33.359375,158.78125 30.25,155.734375 25.765625,155.734375 L17,155.734375 Z M21.03125,159.03125 L24.703125,159.03125 C27.59375,159.03125 29.265625,160.578125 29.265625,163.28125 C29.265625,166.015625 27.578125,167.578125 24.6875,167.578125 L21.03125,167.578125 L21.03125,159.03125 Z M36.015625,178.28125 L39.90625,178.28125 L39.90625,168.765625 C39.90625,166.328125 41.328125,164.703125 43.671875,164.703125 C45.921875,164.703125 47.078125,166.09375 47.078125,168.40625 L47.078125,178.28125 L50.96875,178.28125 L50.96875,167.609375 C50.96875,163.8125 48.828125,161.40625 45.171875,161.40625 C42.65625,161.40625 40.828125,162.546875 39.9375,164.5625 L39.859375,164.5625 L39.859375,155.734375 L36.015625,155.734375 L36.015625,178.28125 Z M61.40625,178.609375 C66.265625,178.609375 69.421875,175.375 69.421875,170 C69.421875,164.640625 66.234375,161.375 61.40625,161.375 C56.578125,161.375 53.390625,164.65625 53.390625,170 C53.390625,175.375 56.546875,178.609375 61.40625,178.609375 Z M61.40625,175.53125 C58.9375,175.53125 57.34375,173.53125 57.34375,170 C57.34375,166.484375 58.953125,164.46875 61.40625,164.46875 C63.875,164.46875 65.46875,166.484375 65.46875,170 C65.46875,173.53125 63.875,175.53125 61.40625,175.53125 Z M73,157.84375 L73,161.71875 L70.625,161.71875 L70.625,164.71875 L73,164.71875 L73,173.875 C73,177.09375 74.40625,178.359375 77.984375,178.359375 C78.8125,178.359375 79.578125,178.296875 80,178.203125 L80,175.234375 C79.75,175.28125 79.25,175.3125 78.890625,175.3125 C77.515625,175.3125 76.890625,174.6875 76.890625,173.328125 L76.890625,164.71875 L80.015625,164.71875 L80.015625,161.71875 L76.890625,161.71875 L76.890625,157.84375 L73,157.84375 Z M89.984375,178.609375 C94.84375,178.609375 98,175.375 98,170 C98,164.640625 94.8125,161.375 89.984375,161.375 C85.15625,161.375 81.96875,164.65625 81.96875,170 C81.96875,175.375 85.125,178.609375 89.984375,178.609375 Z M89.984375,175.53125 C87.515625,175.53125 85.921875,173.53125 85.921875,170 C85.921875,166.484375 87.53125,164.46875 89.984375,164.46875 C92.453125,164.46875 94.046875,166.484375 94.046875,170 C94.046875,173.53125 92.453125,175.53125 89.984375,175.53125 Z M121.5625,174.875 L111.328125,174.875 L111.328125,155.734375 L107.296875,155.734375 L107.296875,178.28125 L121.5625,178.28125 L121.5625,174.875 Z M126.09375,159.21875 C127.28125,159.21875 128.21875,158.265625 128.21875,157.109375 C128.21875,155.9375 127.28125,155 126.09375,155 C124.90625,155 123.953125,155.9375 123.953125,157.109375 C123.953125,158.265625 124.90625,159.21875 126.09375,159.21875 Z M124.15625,178.28125 L128.046875,178.28125 L128.046875,161.71875 L124.15625,161.71875 L124.15625,178.28125 Z M140.578125,178.546875 C144.765625,178.546875 147.40625,175.296875 147.40625,170 C147.40625,164.703125 144.75,161.4375 140.578125,161.4375 C138.234375,161.4375 136.34375,162.625 135.40625,164.5625 L135.3125,164.5625 L135.3125,155.734375 L131.421875,155.734375 L131.421875,178.28125 L135.234375,178.28125 L135.234375,175.453125 L135.3125,175.453125 C136.28125,177.375 138.140625,178.546875 140.578125,178.546875 Z M139.375,164.640625 C141.859375,164.640625 143.421875,166.71875 143.421875,170 C143.421875,173.296875 141.875,175.359375 139.375,175.359375 C136.96875,175.359375 135.296875,173.25 135.296875,170 C135.296875,166.78125 136.96875,164.640625 139.375,164.640625 Z M149.921875,178.28125 L153.8125,178.28125 L153.8125,168.640625 C153.8125,166.3125 155.140625,164.890625 157.34375,164.890625 C158,164.890625 158.59375,164.984375 158.921875,165.109375 L158.921875,161.59375 L158.644725,161.535441 C158.385523,161.485332 158.060268,161.4375 157.703125,161.4375 C155.75,161.4375 154.296875,162.59375 153.734375,164.609375 L153.65625,164.609375 L153.65625,161.71875 L149.921875,161.71875 L149.921875,178.28125 Z M165.796875,178.546875 C167.921875,178.546875 170,177.4375 170.953125,175.640625 L171.03125,175.640625 L171.03125,178.28125 L174.78125,178.28125 L174.78125,166.875 C174.78125,163.546875 172.109375,161.375 168,161.375 C163.78125,161.375 161.140625,163.59375 160.96875,166.6875 L164.578125,166.6875 C164.828125,165.3125 166,164.421875 167.84375,164.421875 C169.765625,164.421875 170.9375,165.421875 170.9375,167.15625 L170.9375,168.34375 L166.5625,168.59375 C162.53125,168.84375 160.265625,170.609375 160.265625,173.546875 C160.265625,176.53125 162.59375,178.546875 165.796875,178.546875 Z M166.96875,175.609375 C165.28125,175.609375 164.15625,174.75 164.15625,173.390625 C164.15625,172.078125 165.234375,171.234375 167.109375,171.109375 L170.9375,170.875 L170.9375,172.140625 C170.9375,174.140625 169.171875,175.609375 166.96875,175.609375 Z M177.90625,178.28125 L181.796875,178.28125 L181.796875,168.640625 C181.796875,166.3125 183.125,164.890625 185.328125,164.890625 C185.984375,164.890625 186.578125,164.984375 186.90625,165.109375 L186.90625,161.59375 L186.6291,161.535441 C186.369898,161.485332 186.044643,161.4375 185.6875,161.4375 C183.734375,161.4375 182.28125,162.59375 181.71875,164.609375 L181.640625,164.609375 L181.640625,161.71875 L177.90625,161.71875 L177.90625,178.28125 Z M190.765625,184.4375 L190.077702,184.426348 C189.720945,184.416839 189.34517,184.400568 189.234375,184.375 L189.234375,181.296875 C189.4375,181.34375 190.125,181.359375 190.359375,181.359375 C191.96875,181.359375 192.796875,180.75 193.21875,179.21875 C193.21875,179.171875 193.46875,178.34375 193.453125,178.296875 L187.5625,161.71875 L191.8125,161.71875 L195.703125,174.96875 L195.78125,174.96875 L199.6875,161.71875 L203.78125,161.71875 L197.78125,178.9375 C196.375,183.046875 194.546875,184.4375 190.765625,184.4375 Z" id="PhotoLibrary" fill="#007AFF" fill-rule="nonzero"></path>
    </g>
</svg>