<?xml version="1.0" encoding="UTF-8"?>
<svg width="190px" height="190px" viewBox="0 0 190 190" version="1.1" xmlns="http://www.w3.org/2000/svg" xmlns:xlink="http://www.w3.org/1999/xlink">
    <!-- Generator: Sketch 59.1 (86144) - https://sketch.com -->
    <title>Photos</title>
    <desc>Created with Sketch.</desc>
    <g id="Photos" stroke="none" stroke-width="1" fill="none" fill-rule="evenodd">
        <path d="M52.3320312,119.892578 L136.804688,119.892578 C147.058594,119.892578 152.136719,114.814453 152.136719,104.755859 L152.136719,45.1367188 C152.136719,35.078125 147.058594,30 136.804688,30 L52.3320312,30 C42.1269531,30 37,35.0292969 37,45.1367188 L37,104.755859 C37,114.863281 42.1269531,119.892578 52.3320312,119.892578 Z M73.6210938,76.1425781 C66.9804688,76.1425781 61.5605469,70.7226562 61.5605469,64.0820312 C61.5605469,57.4902344 66.9804688,52.0214844 73.6210938,52.0214844 C80.2128906,52.0214844 85.6328125,57.4902344 85.6328125,64.0820312 C85.6328125,70.7226562 80.2128906,76.1425781 73.6210938,76.1425781 Z M52.4296875,112.03125 C47.6933594,112.03125 44.8613281,109.199219 44.8613281,104.414062 L44.8613281,101.435547 L59.8515625,88.3496094 C62,86.4453125 64.34375,85.46875 66.4921875,85.46875 C68.8847656,85.46875 71.375,86.4453125 73.5234375,88.4472656 L82.8496094,96.8457031 L106.189453,76.1425781 C108.582031,73.9941406 111.267578,73.0175781 114.050781,73.0175781 C116.736328,73.0175781 119.519531,74.0429688 121.814453,76.1914062 L144.275391,96.9921875 L144.275391,104.511719 C144.275391,109.199219 141.394531,112.03125 136.755859,112.03125 L52.4296875,112.03125 Z" fill="#007AFF" fill-rule="nonzero"></path>
        <path d="M18,148.488281 L18,165.398438 L21.0234375,165.398438 L21.0234375,159.808594 L24.6914062,159.808594 C28.1132812,159.808594 30.5039062,157.523438 30.5039062,154.183594 C30.5039062,150.785156 28.1953125,148.488281 24.8203125,148.488281 L18,148.488281 Z M21.0234375,150.960938 L24.0234375,150.960938 C26.203125,150.960938 27.4335938,152.085938 27.4335938,154.183594 C27.4335938,156.222656 26.1679688,157.371094 24.0117188,157.371094 L21.0234375,157.371094 L21.0234375,150.960938 Z M33.4139853,165.398438 L36.3202353,165.398438 L36.3202353,157.957031 C36.3202353,156.082031 37.3866416,154.828125 39.2967978,154.828125 C40.9842978,154.828125 41.8749228,155.835938 41.8749228,157.816406 L41.8749228,165.398438 L44.7811728,165.398438 L44.7811728,157.136719 C44.7811728,154.089844 43.1171103,152.355469 40.3749228,152.355469 C38.4647666,152.355469 37.0936728,153.222656 36.4842978,154.664062 L36.2733603,154.664062 L36.2733603,147.632812 L33.4139853,147.632812 L33.4139853,165.398438 Z M53.5271894,165.65625 C57.3592207,165.65625 59.6912519,163.148438 59.6912519,158.988281 C59.6912519,154.851562 57.3475019,152.34375 53.5271894,152.34375 C49.7185957,152.34375 47.3631269,154.863281 47.3631269,158.988281 C47.3631269,163.148438 49.6834394,165.65625 53.5271894,165.65625 Z M53.5271894,163.277344 C51.4998457,163.277344 50.3396894,161.707031 50.3396894,159 C50.3396894,156.292969 51.4998457,154.722656 53.5271894,154.722656 C55.5428144,154.722656 56.7029707,156.292969 56.7029707,159 C56.7029707,161.707031 55.5545332,163.277344 53.5271894,163.277344 Z M63.3161747,149.449219 L63.3161747,152.671875 L61.288831,152.671875 L61.288831,154.933594 L63.3161747,154.933594 L63.3161747,162 C63.3161747,164.472656 64.4880497,165.457031 67.429456,165.457031 C67.991956,165.457031 68.5310185,165.410156 68.9528935,165.328125 L68.9528935,163.101562 L68.5726435,163.137375 C68.393206,163.151719 68.2146122,163.160156 67.9685185,163.160156 C66.7497685,163.160156 66.210706,162.585938 66.210706,161.308594 L66.210706,154.933594 L68.9528935,154.933594 L68.9528935,152.671875 L66.210706,152.671875 L66.210706,149.449219 L63.3161747,149.449219 Z M77.0426601,165.65625 C80.8746913,165.65625 83.2067226,163.148438 83.2067226,158.988281 C83.2067226,154.851562 80.8629726,152.34375 77.0426601,152.34375 C73.2340663,152.34375 70.8785976,154.863281 70.8785976,158.988281 C70.8785976,163.148438 73.1989101,165.65625 77.0426601,165.65625 Z M77.0426601,163.277344 C75.0153163,163.277344 73.8551601,161.707031 73.8551601,159 C73.8551601,156.292969 75.0153163,154.722656 77.0426601,154.722656 C79.0582851,154.722656 80.2184413,156.292969 80.2184413,159 C80.2184413,161.707031 79.0700038,163.277344 77.0426601,163.277344 Z M103.159693,162.808594 L95.4018807,162.808594 L95.4018807,148.488281 L92.3784432,148.488281 L92.3784432,165.398438 L103.159693,165.398438 L103.159693,162.808594 Z M107.358835,150.445312 C108.319772,150.445312 109.104929,149.683594 109.104929,148.722656 C109.104929,147.773438 108.319772,147 107.358835,147 C106.409616,147 105.62446,147.773438 105.62446,148.722656 C105.62446,149.683594 106.409616,150.445312 107.358835,150.445312 Z M105.917429,165.398438 L108.81196,165.398438 L108.81196,152.589844 L105.917429,152.589844 L105.917429,165.398438 Z M119.30407,165.609375 C122.538445,165.609375 124.565789,163.066406 124.565789,159 C124.565789,154.910156 122.550164,152.378906 119.30407,152.378906 C117.546258,152.378906 116.069695,153.234375 115.401726,154.628906 L115.202508,154.628906 L115.202508,147.632812 L112.296258,147.632812 L112.296258,165.398438 L115.097039,165.398438 L115.097039,163.371094 L115.296258,163.371094 C116.02282,164.777344 117.511101,165.609375 119.30407,165.609375 Z M118.390008,154.804688 C120.370476,154.804688 121.577508,156.386719 121.577508,159 C121.577508,161.613281 120.382195,163.195312 118.390008,163.195312 C116.39782,163.195312 115.155633,161.589844 115.155633,159 C115.155633,156.410156 116.409539,154.804688 118.390008,154.804688 Z M127.253212,165.398438 L130.159462,165.398438 L130.159462,157.957031 C130.159462,156.152344 131.471962,154.980469 133.35868,154.980469 C133.850868,154.980469 134.624305,155.0625 134.846962,155.144531 L134.846962,152.496094 C134.57743,152.425781 134.061805,152.378906 133.63993,152.378906 C131.987587,152.378906 130.604774,153.316406 130.253212,154.582031 L130.053993,154.582031 L130.053993,152.589844 L127.253212,152.589844 L127.253212,165.398438 Z M140.370322,165.609375 C142.046103,165.609375 143.452353,164.882812 144.167197,163.640625 L144.366416,163.640625 L144.366416,165.398438 L147.167197,165.398438 L147.167197,156.644531 C147.167197,153.9375 145.315635,152.34375 142.022666,152.34375 C138.975791,152.34375 136.854697,153.773438 136.620322,156.011719 L139.36251,156.011719 C139.632041,155.132812 140.546103,154.652344 141.882041,154.652344 C143.452353,154.652344 144.296103,155.367188 144.296103,156.644531 L144.296103,157.746094 L140.991416,157.945312 C137.874228,158.121094 136.128135,159.46875 136.128135,161.765625 C136.128135,164.109375 137.897666,165.609375 140.370322,165.609375 Z M141.225791,163.371094 C139.936728,163.371094 139.010947,162.726562 139.010947,161.625 C139.010947,160.558594 139.772666,159.960938 141.401572,159.855469 L144.296103,159.65625 L144.296103,160.699219 C144.296103,162.222656 142.983603,163.371094 141.225791,163.371094 Z M150.428839,165.398438 L153.335089,165.398438 L153.335089,157.957031 C153.335089,156.152344 154.647589,154.980469 156.534307,154.980469 C157.026495,154.980469 157.799932,155.0625 158.022589,155.144531 L158.022589,152.496094 C157.753057,152.425781 157.237432,152.378906 156.815557,152.378906 C155.163214,152.378906 153.780401,153.316406 153.428839,154.582031 L153.22962,154.582031 L153.22962,152.589844 L150.428839,152.589844 L150.428839,165.398438 Z M161.694386,170.039062 L161.360185,170.034722 C161.061574,170.028646 160.670949,170.015625 160.545949,169.992188 L160.545949,167.683594 C160.710011,167.707031 161.143605,167.71875 161.342824,167.71875 C162.573293,167.71875 163.264699,167.25 163.639699,166.042969 L163.792043,165.445312 L159.210011,152.589844 L162.397511,152.589844 L165.397511,162.644531 L165.59673,162.644531 L168.585011,152.589844 L171.655324,152.589844 L167.026418,165.84375 C165.936574,168.996094 164.56548,170.039062 161.694386,170.039062 Z" id="PhotoLibrary" fill="#007AFF" fill-rule="nonzero"></path>
    </g>
</svg>