<?xml version="1.0" encoding="UTF-8"?>
<svg width="160px" height="190px" viewBox="0 0 160 190" version="1.1" xmlns="http://www.w3.org/2000/svg" xmlns:xlink="http://www.w3.org/1999/xlink">
    <!-- Generator: Sketch 59.1 (86144) - https://sketch.com -->
    <title>Photos</title>
    <desc>Created with Sketch.</desc>
    <g id="Photos" stroke="none" stroke-width="1" fill="none" fill-rule="evenodd">
        <path d="M37.3320312,119.892578 L121.804688,119.892578 C132.058594,119.892578 137.136719,114.814453 137.136719,104.755859 L137.136719,45.1367188 C137.136719,35.078125 132.058594,30 121.804688,30 L37.3320312,30 C27.1269531,30 22,35.0292969 22,45.1367188 L22,104.755859 C22,114.863281 27.1269531,119.892578 37.3320312,119.892578 Z M58.6210938,76.1425781 C51.9804688,76.1425781 46.5605469,70.7226562 46.5605469,64.0820312 C46.5605469,57.4902344 51.9804688,52.0214844 58.6210938,52.0214844 C65.2128906,52.0214844 70.6328125,57.4902344 70.6328125,64.0820312 C70.6328125,70.7226562 65.2128906,76.1425781 58.6210938,76.1425781 Z M37.4296875,112.03125 C32.6933594,112.03125 29.8613281,109.199219 29.8613281,104.414062 L29.8613281,101.435547 L44.8515625,88.3496094 C47,86.4453125 49.34375,85.46875 51.4921875,85.46875 C53.8847656,85.46875 56.375,86.4453125 58.5234375,88.4472656 L67.8496094,96.8457031 L91.1894531,76.1425781 C93.5820312,73.9941406 96.2675781,73.0175781 99.0507812,73.0175781 C101.736328,73.0175781 104.519531,74.0429688 106.814453,76.1914062 L129.275391,96.9921875 L129.275391,104.511719 C129.275391,109.199219 126.394531,112.03125 121.755859,112.03125 L37.4296875,112.03125 Z" fill="#007AFF" fill-rule="nonzero"></path>
        <path d="M36.7190587,165.421875 C40.6214024,165.421875 43.4807774,163.113281 43.8792149,159.691406 L40.9026524,159.691406 C40.4924962,161.589844 38.8635899,162.796875 36.7190587,162.796875 C33.8362462,162.796875 32.0432774,160.394531 32.0432774,156.539062 C32.0432774,152.695312 33.8362462,150.292969 36.7073399,150.292969 C38.8401524,150.292969 40.4690587,151.617188 40.8909337,153.65625 L43.8674962,153.65625 C43.5159337,150.152344 40.5510899,147.667969 36.7073399,147.667969 C31.9143712,147.667969 28.9495274,151.054688 28.9495274,156.550781 C28.9495274,162.023438 31.9260899,165.421875 36.7190587,165.421875 Z M52.226794,165.257812 C56.0588253,165.257812 58.3908565,162.75 58.3908565,158.589844 C58.3908565,154.453125 56.0471065,151.945312 52.226794,151.945312 C48.4182003,151.945312 46.0627315,154.464844 46.0627315,158.589844 C46.0627315,162.75 48.383044,165.257812 52.226794,165.257812 Z M52.226794,162.878906 C50.1994503,162.878906 49.039294,161.308594 49.039294,158.601562 C49.039294,155.894531 50.1994503,154.324219 52.226794,154.324219 C54.242419,154.324219 55.4025753,155.894531 55.4025753,158.601562 C55.4025753,161.308594 54.2541378,162.878906 52.226794,162.878906 Z M61.0899981,165 L63.9962481,165 L63.9962481,157.535156 C63.9962481,155.613281 65.0860918,154.40625 66.8204668,154.40625 C68.5899981,154.40625 69.4103106,155.402344 69.4103106,157.394531 L69.4103106,165 L72.3165606,165 L72.3165606,156.714844 C72.3165606,153.667969 70.7579668,151.945312 67.8985918,151.945312 C65.9884356,151.945312 64.6993731,152.8125 64.0899981,154.242188 L63.8907793,154.242188 L63.8907793,152.191406 L61.0899981,152.191406 L61.0899981,165 Z M76.4571084,149.050781 L76.4571084,152.273438 L74.4297647,152.273438 L74.4297647,154.535156 L76.4571084,154.535156 L76.4571084,161.601562 C76.4571084,164.074219 77.6289834,165.058594 80.5703897,165.058594 C81.1328897,165.058594 81.6719522,165.011719 82.0938272,164.929688 L82.0938272,162.703125 L81.7135772,162.738937 C81.5341397,162.753281 81.3555459,162.761719 81.1094522,162.761719 C79.8907022,162.761719 79.3516397,162.1875 79.3516397,160.910156 L79.3516397,154.535156 L82.0938272,154.535156 L82.0938272,152.273438 L79.3516397,152.273438 L79.3516397,149.050781 L76.4571084,149.050781 Z M88.296875,165.210938 C89.9726562,165.210938 91.3789062,164.484375 92.09375,163.242188 L92.2929688,163.242188 L92.2929688,165 L95.09375,165 L95.09375,156.246094 C95.09375,153.539062 93.2421875,151.945312 89.9492188,151.945312 C86.9023438,151.945312 84.78125,153.375 84.546875,155.613281 L87.2890625,155.613281 C87.5585938,154.734375 88.4726562,154.253906 89.8085938,154.253906 C91.3789062,154.253906 92.2226562,154.96875 92.2226562,156.246094 L92.2226562,157.347656 L88.9179688,157.546875 C85.8007812,157.722656 84.0546875,159.070312 84.0546875,161.367188 C84.0546875,163.710938 85.8242188,165.210938 88.296875,165.210938 Z M89.1523438,162.972656 C87.8632812,162.972656 86.9375,162.328125 86.9375,161.226562 C86.9375,160.160156 87.6992188,159.5625 89.328125,159.457031 L92.2226562,159.257812 L92.2226562,160.300781 C92.2226562,161.824219 90.9101562,162.972656 89.1523438,162.972656 Z M109.42961,156.46875 C109.124923,153.820312 107.132735,151.945312 103.839767,151.945312 C99.9842978,151.945312 97.7225791,154.417969 97.7225791,158.566406 C97.7225791,162.761719 99.9960166,165.257812 103.851485,165.257812 C107.097579,165.257812 109.113204,163.453125 109.42961,160.804688 L106.663985,160.804688 C106.359298,162.152344 105.351485,162.867188 103.839767,162.867188 C101.859298,162.867188 100.663985,161.285156 100.663985,158.566406 C100.663985,155.894531 101.847579,154.324219 103.839767,154.324219 C105.433517,154.324219 106.394454,155.226562 106.663985,156.46875 L109.42961,156.46875 Z M113.066252,149.050781 L113.066252,152.273438 L111.038908,152.273438 L111.038908,154.535156 L113.066252,154.535156 L113.066252,161.601562 C113.066252,164.074219 114.238127,165.058594 117.179533,165.058594 C117.742033,165.058594 118.281096,165.011719 118.702971,164.929688 L118.702971,162.703125 L118.322721,162.738937 C118.143283,162.753281 117.964689,162.761719 117.718596,162.761719 C116.499846,162.761719 115.960783,162.1875 115.960783,160.910156 L115.960783,154.535156 L118.702971,154.535156 L118.702971,152.273438 L115.960783,152.273438 L115.960783,149.050781 L113.066252,149.050781 Z M120.921643,155.847656 C120.921643,153.550781 123.031018,151.945312 126.054456,151.945312 C129.101331,151.945312 131.011487,153.28125 131.222425,155.589844 L128.491956,155.589844 C128.281018,154.6875 127.42555,154.101562 126.066175,154.101562 C124.741956,154.101562 123.745862,154.746094 123.745862,155.695312 C123.745862,156.421875 124.355237,156.878906 125.6443,157.183594 L127.906018,157.6875 C130.355237,158.25 131.491956,159.292969 131.491956,161.179688 C131.491956,163.628906 129.230237,165.257812 126.031018,165.257812 C122.8318,165.257812 120.816175,163.875 120.593518,161.566406 L123.464612,161.566406 C123.745862,162.515625 124.648206,163.101562 126.101331,163.101562 C127.566175,163.101562 128.585706,162.433594 128.585706,161.460938 C128.585706,160.734375 128.034925,160.265625 126.816175,159.984375 L124.542737,159.457031 C122.0818,158.894531 120.921643,157.769531 120.921643,155.847656 Z" id="Contacts" fill="#007AFF" fill-rule="nonzero"></path>
    </g>
</svg>