<?xml version="1.0" encoding="UTF-8"?>
<svg width="150px" height="190px" viewBox="0 0 150 190" version="1.1" xmlns="http://www.w3.org/2000/svg" xmlns:xlink="http://www.w3.org/1999/xlink">
    <!-- Generator: Sketch 59.1 (86144) - https://sketch.com -->
    <title>Photos</title>
    <desc>Created with Sketch.</desc>
    <g id="Photos" stroke="none" stroke-width="1" fill="none" fill-rule="evenodd">
        <path d="M32.3320312,119.892578 L116.804688,119.892578 C127.058594,119.892578 132.136719,114.814453 132.136719,104.755859 L132.136719,45.1367188 C132.136719,35.078125 127.058594,30 116.804688,30 L32.3320312,30 C22.1269531,30 17,35.0292969 17,45.1367188 L17,104.755859 C17,114.863281 22.1269531,119.892578 32.3320312,119.892578 Z M53.6210938,76.1425781 C46.9804688,76.1425781 41.5605469,70.7226562 41.5605469,64.0820312 C41.5605469,57.4902344 46.9804688,52.0214844 53.6210938,52.0214844 C60.2128906,52.0214844 65.6328125,57.4902344 65.6328125,64.0820312 C65.6328125,70.7226562 60.2128906,76.1425781 53.6210938,76.1425781 Z M32.4296875,112.03125 C27.6933594,112.03125 24.8613281,109.199219 24.8613281,104.414062 L24.8613281,101.435547 L39.8515625,88.3496094 C42,86.4453125 44.34375,85.46875 46.4921875,85.46875 C48.8847656,85.46875 51.375,86.4453125 53.5234375,88.4472656 L62.8496094,96.8457031 L86.1894531,76.1425781 C88.5820312,73.9941406 91.2675781,73.0175781 94.0507812,73.0175781 C96.7363281,73.0175781 99.5195312,74.0429688 101.814453,76.1914062 L124.275391,96.9921875 L124.275391,104.511719 C124.275391,109.199219 121.394531,112.03125 116.755859,112.03125 L32.4296875,112.03125 Z" fill="#007AFF" fill-rule="nonzero"></path>
        <path d="M5.30872803,152.499023 L5.30872803,168 L8.08021241,168 L8.08021241,162.875977 L11.4425171,162.875977 C14.5792358,162.875977 16.7706421,160.78125 16.7706421,157.719727 C16.7706421,154.604492 14.6544312,152.499023 11.5606812,152.499023 L5.30872803,152.499023 Z M8.08021241,154.765625 L10.8302124,154.765625 C12.8282593,154.765625 13.956189,155.796875 13.956189,157.719727 C13.956189,159.588867 12.7960327,160.641602 10.8194702,160.641602 L8.08021241,160.641602 L8.08021241,154.765625 Z M19.4382146,168 L22.1022771,168 L22.1022771,161.178711 C22.1022771,159.459961 23.0798161,158.310547 24.8307927,158.310547 C26.3776677,158.310547 27.194074,159.234375 27.194074,161.049805 L27.194074,168 L29.8581365,168 L29.8581365,160.426758 C29.8581365,157.633789 28.3327458,156.043945 25.819074,156.043945 C24.0680974,156.043945 22.8112615,156.838867 22.2526677,158.160156 L22.0593083,158.160156 L22.0593083,151.714844 L19.4382146,151.714844 L19.4382146,168 Z M37.8753183,168.236328 C41.3880136,168.236328 43.525709,165.9375 43.525709,162.124023 C43.525709,158.332031 41.3772715,156.033203 37.8753183,156.033203 C34.3841074,156.033203 32.2249277,158.342773 32.2249277,162.124023 C32.2249277,165.9375 34.3518808,168.236328 37.8753183,168.236328 Z M37.8753183,166.055664 C36.0169199,166.055664 34.9534433,164.616211 34.9534433,162.134766 C34.9534433,159.65332 36.0169199,158.213867 37.8753183,158.213867 C39.7229746,158.213867 40.7864511,159.65332 40.7864511,162.134766 C40.7864511,164.616211 39.7337168,166.055664 37.8753183,166.055664 Z M46.8485549,153.379883 L46.8485549,156.333984 L44.9901564,156.333984 L44.9901564,158.407227 L46.8485549,158.407227 L46.8485549,164.884766 C46.8485549,167.151367 47.9227736,168.053711 50.6190627,168.053711 C51.1346877,168.053711 51.6288283,168.010742 52.0155471,167.935547 L52.0155471,165.894531 L51.6669846,165.927359 C51.5025002,165.940508 51.3387893,165.948242 51.1132033,165.948242 C49.9960158,165.948242 49.5018752,165.421875 49.5018752,164.250977 L49.5018752,158.407227 L52.0155471,158.407227 L52.0155471,156.333984 L49.5018752,156.333984 L49.5018752,153.379883 L46.8485549,153.379883 Z M59.4311664,168.236328 C62.9438617,168.236328 65.0815571,165.9375 65.0815571,162.124023 C65.0815571,158.332031 62.9331196,156.033203 59.4311664,156.033203 C55.9399555,156.033203 53.7807758,158.342773 53.7807758,162.124023 C53.7807758,165.9375 55.9077289,168.236328 59.4311664,168.236328 Z M59.4311664,166.055664 C57.572768,166.055664 56.5092914,164.616211 56.5092914,162.134766 C56.5092914,159.65332 57.572768,158.213867 59.4311664,158.213867 C61.2788227,158.213867 62.3422992,159.65332 62.3422992,162.134766 C62.3422992,164.616211 61.2895649,166.055664 59.4311664,166.055664 Z M83.3717802,165.625977 L76.260452,165.625977 L76.260452,152.499023 L73.4889677,152.499023 L73.4889677,168 L83.3717802,168 L83.3717802,165.625977 Z M87.2209933,154.292969 C88.1018527,154.292969 88.8215792,153.594727 88.8215792,152.713867 C88.8215792,151.84375 88.1018527,151.134766 87.2209933,151.134766 C86.3508761,151.134766 85.6311495,151.84375 85.6311495,152.713867 C85.6311495,153.594727 86.3508761,154.292969 87.2209933,154.292969 Z M85.8997042,168 L88.5530245,168 L88.5530245,156.258789 L85.8997042,156.258789 L85.8997042,168 Z M98.1707923,168.193359 C101.135636,168.193359 102.994035,165.862305 102.994035,162.134766 C102.994035,158.385742 101.146378,156.06543 98.1707923,156.06543 C96.5594642,156.06543 95.2059486,156.849609 94.5936439,158.12793 L94.4110267,158.12793 L94.4110267,151.714844 L91.7469642,151.714844 L91.7469642,168 L94.314347,168 L94.314347,166.141602 L94.4969642,166.141602 C95.1629798,167.430664 96.5272376,168.193359 98.1707923,168.193359 Z M97.3329017,158.289062 C99.1483314,158.289062 100.254777,159.739258 100.254777,162.134766 C100.254777,164.530273 99.1590736,165.980469 97.3329017,165.980469 C95.5067298,165.980469 94.368058,164.508789 94.368058,162.134766 C94.368058,159.760742 95.517472,158.289062 97.3329017,158.289062 Z M105.457505,168 L108.121568,168 L108.121568,161.178711 C108.121568,159.524414 109.324693,158.450195 111.054185,158.450195 C111.505357,158.450195 112.214341,158.525391 112.418443,158.600586 L112.418443,156.172852 C112.171373,156.108398 111.698716,156.06543 111.311998,156.06543 C109.797349,156.06543 108.529771,156.924805 108.207505,158.084961 L108.024888,158.084961 L108.024888,156.258789 L105.457505,156.258789 L105.457505,168 Z M117.481523,168.193359 C119.017656,168.193359 120.306719,167.527344 120.961992,166.388672 L121.144609,166.388672 L121.144609,168 L123.711992,168 L123.711992,159.975586 C123.711992,157.494141 122.014726,156.033203 118.996172,156.033203 C116.203203,156.033203 114.258867,157.34375 114.044023,159.395508 L116.557695,159.395508 C116.804765,158.589844 117.642656,158.149414 118.867265,158.149414 C120.306719,158.149414 121.080156,158.804688 121.080156,159.975586 L121.080156,160.985352 L118.050859,161.167969 C115.193437,161.329102 113.592851,162.564453 113.592851,164.669922 C113.592851,166.818359 115.214922,168.193359 117.481523,168.193359 Z M118.265703,166.141602 C117.084062,166.141602 116.235429,165.550781 116.235429,164.541016 C116.235429,163.563477 116.933672,163.015625 118.426836,162.918945 L121.080156,162.736328 L121.080156,163.692383 C121.080156,165.088867 119.877031,166.141602 118.265703,166.141602 Z M126.70183,168 L129.365893,168 L129.365893,161.178711 C129.365893,159.524414 130.569018,158.450195 132.29851,158.450195 C132.749682,158.450195 133.458666,158.525391 133.662768,158.600586 L133.662768,156.172852 C133.415697,156.108398 132.943041,156.06543 132.556322,156.06543 C131.041674,156.06543 129.774096,156.924805 129.45183,158.084961 L129.269213,158.084961 L129.269213,156.258789 L126.70183,156.258789 L126.70183,168 Z M137.028582,172.253906 L136.506243,172.244507 C136.284686,172.237793 136.061785,172.227051 135.975848,172.210938 L135.975848,170.094727 C136.126239,170.116211 136.523699,170.126953 136.706317,170.126953 C137.834246,170.126953 138.468035,169.697266 138.811785,168.59082 L138.951434,168.042969 L134.751239,156.258789 L137.673114,156.258789 L140.423114,165.475586 L140.605731,165.475586 L143.344989,156.258789 L146.159442,156.258789 L141.916278,168.408203 C140.917254,171.297852 139.660418,172.253906 137.028582,172.253906 Z" id="PhotoLibrary" fill="#007AFF" fill-rule="nonzero"></path>
    </g>
</svg>