<?xml version="1.0" encoding="UTF-8"?>
<svg width="200px" height="200px" viewBox="0 0 200 200" version="1.1" xmlns="http://www.w3.org/2000/svg" xmlns:xlink="http://www.w3.org/1999/xlink">
    <title>privacy</title>
    <defs>
        <path d="M142.505593,199.776349 C162.751678,199.776349 177.181208,197.540464 187.583893,187.255391 C197.87472,176.858525 200,162.660653 200,142.314097 L200,57.4622515 C200,37.1156955 197.87472,22.8060298 187.583893,12.5209575 C177.069351,2.23588527 162.751678,1.42108547e-14 142.505593,1.42108547e-14 L56.8232662,1.42108547e-14 C37.4720358,1.42108547e-14 22.9306488,2.23588527 12.5279642,12.6327518 C2.23713647,22.917824 0,37.2274898 0,56.7914859 L0,142.314097 C0,162.660653 2.12527964,176.970319 12.5279642,187.255391 C22.9306488,197.540464 37.2483221,199.776349 57.606264,199.776349 L142.505593,199.776349 Z" id="path-1"></path>
    </defs>
    <g id="privacy" stroke="none" stroke-width="1" fill="none" fill-rule="evenodd">
        <mask id="mask-2" fill="white">
            <use xlink:href="#path-1"></use>
        </mask>
        <use id="Mask" fill="#FFFFFF" fill-rule="nonzero" xlink:href="#path-1"></use>
        <g id="Group" mask="url(#mask-2)">
            <g id="Icon">
                <rect id="Rectangle" fill="#FFFFFF" x="0" y="0" width="200" height="200"></rect>
                <rect id="Background" fill="#007AFF" x="0" y="0" width="200" height="200"></rect>
                <path d="M94.3330078,166.991211 C110.036133,166.991211 121.682617,161.887695 130.973633,152.073242 C143.928711,138.333008 148.181641,117.526367 150.667969,109.413086 C151.197493,107.62366 151.869695,105.696651 152.563702,103.752934 L152.911963,102.780242 C154.598598,98.0775784 156.294922,93.3949855 156.294922,90.4384766 C156.294922,87.6904297 152.56543,85.2041016 150.144531,85.2041016 C144.583008,85.2041016 142.489258,87.6904297 139.152344,94.7568359 C138.161323,96.9040468 137.098237,99.581458 136.004956,102.322712 L135.719094,103.038963 C135.623597,103.277992 135.527899,103.517197 135.432028,103.756271 L134.999532,104.830189 L134.999532,104.830189 L134.710177,105.542089 C132.296044,111.454718 129.816644,116.806641 127.702148,116.806641 C125.673828,116.806641 124.954102,113.208008 124.954102,106.40332 L124.954102,43.9833984 C124.954102,40.5810547 122.860352,37.4404297 118.476562,37.4404297 C114.158203,37.4404297 111.999023,40.5810547 111.999023,43.9833984 L111.999023,95.1494141 C109.905273,94.5605469 107.549805,94.0371094 104.932617,93.7099609 L104.932617,35.4775391 C104.932617,32.0751953 102.773438,29 98.4550781,29 C94.0712891,29 91.9775391,32.0751953 91.9775391,35.4775391 L91.9775391,93.2519531 C89.6220703,93.3828125 87.2666016,93.6445312 84.9765625,94.0371094 L84.9765625,40.515625 C84.9765625,37.0478516 82.7519531,33.9072266 78.4990234,33.9072266 C74.1806641,33.9072266 72.0214844,37.0478516 72.0214844,40.515625 L72.0214844,97.6357422 C69.4697266,98.6826172 67.1142578,99.8603516 64.9550781,101.234375 L64.9550781,60.6025391 C64.9550781,57.2001953 62.9267578,54.0595703 58.6083984,54.0595703 C54.1591797,54.0595703 52,57.2001953 52,60.6025391 L52,120.863281 C52,152.727539 69.6660156,166.991211 94.3330078,166.991211 Z" fill="#FFFFFF" fill-rule="nonzero"></path>
            </g>
        </g>
    </g>
</svg>