<?xml version="1.0" encoding="UTF-8"?>
<svg width="200px" height="200px" viewBox="0 0 200 200" version="1.1" xmlns="http://www.w3.org/2000/svg" xmlns:xlink="http://www.w3.org/1999/xlink">
    <title>privacy</title>
    <defs>
        <path d="M71.7887856,-1.0155026e-14 L128.211214,-4.35432025e-15 C153.173739,2.52998546e-15 162.225754,2.59911711 171.35168,7.47971571 C180.477606,12.3603143 187.639686,19.5223944 192.520284,28.6483203 C197.400883,37.7742462 200,46.8262609 200,71.7887856 L200,128.211214 C200,153.173739 197.400883,162.225754 192.520284,171.35168 C187.639686,180.477606 180.477606,187.639686 171.35168,192.520284 C162.225754,197.400883 153.173739,200 128.211214,200 L71.7887856,200 C46.8262609,200 37.7742462,197.400883 28.6483203,192.520284 C19.5223944,187.639686 12.3603143,180.477606 7.47971571,171.35168 C2.59911711,162.225754 5.33863302e-15,153.173739 -9.18824169e-15,128.211214 L-5.32110454e-15,71.7887856 C3.09171497e-15,46.8262609 2.59911711,37.7742462 7.47971571,28.6483203 C12.3603143,19.5223944 19.5223944,12.3603143 28.6483203,7.47971571 C37.7742462,2.59911711 46.8262609,5.90036254e-15 71.7887856,-1.0155026e-14 Z" id="path-1"></path>
    </defs>
    <g id="privacy" stroke="none" stroke-width="1" fill="none" fill-rule="evenodd">
        <mask id="mask-2" fill="white">
            <use xlink:href="#path-1"></use>
        </mask>
        <g id="Mask"></g>
        <g id="Group" mask="url(#mask-2)">
            <g id="Icon">
                <rect id="Rectangle" fill="#FFFFFF" x="0" y="0" width="200" height="200"></rect>
                <rect id="Background" fill="#007AFF" x="0" y="0" width="200" height="200"></rect>
                <path d="M94.3330078,166.991211 C110.036133,166.991211 121.682617,161.887695 130.973633,152.073242 C143.928711,138.333008 148.181641,117.526367 150.667969,109.413086 C151.197493,107.62366 151.869695,105.696651 152.563702,103.752934 L152.911963,102.780242 C154.598598,98.0775784 156.294922,93.3949855 156.294922,90.4384766 C156.294922,87.6904297 152.56543,85.2041016 150.144531,85.2041016 C144.583008,85.2041016 142.489258,87.6904297 139.152344,94.7568359 C138.161323,96.9040468 137.098237,99.581458 136.004956,102.322712 L135.719094,103.038963 C135.623597,103.277992 135.527899,103.517197 135.432028,103.756271 L134.999532,104.830189 L134.999532,104.830189 L134.710177,105.542089 C132.296044,111.454718 129.816644,116.806641 127.702148,116.806641 C125.673828,116.806641 124.954102,113.208008 124.954102,106.40332 L124.954102,43.9833984 C124.954102,40.5810547 122.860352,37.4404297 118.476562,37.4404297 C114.158203,37.4404297 111.999023,40.5810547 111.999023,43.9833984 L111.999023,95.1494141 C109.905273,94.5605469 107.549805,94.0371094 104.932617,93.7099609 L104.932617,35.4775391 C104.932617,32.0751953 102.773438,29 98.4550781,29 C94.0712891,29 91.9775391,32.0751953 91.9775391,35.4775391 L91.9775391,93.2519531 C89.6220703,93.3828125 87.2666016,93.6445312 84.9765625,94.0371094 L84.9765625,40.515625 C84.9765625,37.0478516 82.7519531,33.9072266 78.4990234,33.9072266 C74.1806641,33.9072266 72.0214844,37.0478516 72.0214844,40.515625 L72.0214844,97.6357422 C69.4697266,98.6826172 67.1142578,99.8603516 64.9550781,101.234375 L64.9550781,60.6025391 C64.9550781,57.2001953 62.9267578,54.0595703 58.6083984,54.0595703 C54.1591797,54.0595703 52,57.2001953 52,60.6025391 L52,120.863281 C52,152.727539 69.6660156,166.991211 94.3330078,166.991211 Z" fill="#FFFFFF" fill-rule="nonzero"></path>
            </g>
        </g>
    </g>
</svg>