<?xml version="1.0" encoding="UTF-8"?>
<svg width="160px" height="190px" viewBox="0 0 160 190" version="1.1" xmlns="http://www.w3.org/2000/svg" xmlns:xlink="http://www.w3.org/1999/xlink">
    <!-- Generator: Sketch 59.1 (86144) - https://sketch.com -->
    <title>Reminders</title>
    <desc>Created with Sketch.</desc>
    <g id="Reminders" stroke="none" stroke-width="1" fill="none" fill-rule="evenodd">
        <path d="M37.3320312,116.349609 L121.804688,116.349609 C132.058594,116.349609 137.136719,111.271484 137.136719,101.212891 L137.136719,74.2597656 C137.136719,69.8652344 136.453125,67.8144531 134.353516,64.9824219 L117.507812,42.1796875 C112.270027,35.0197793 109.349468,33.0618071 100.974007,33.0014532 L58.5722656,33 C49.8808594,33 47,34.9042969 41.6777344,42.1796875 L24.7832031,64.9824219 C22.7324219,67.8144531 22,69.8652344 22,74.2597656 L22,101.212891 C22,111.320312 27.1269531,116.349609 37.3320312,116.349609 Z M79.5683594,88.078125 C72.3551136,88.078125 67.6992914,81.9213647 67.5598618,75.9978151 L67.5566406,75.578125 C67.5566406,73.3808594 66.2382812,71.3300781 63.5039062,71.3300781 L32.4003906,71.3300781 C30.7890625,71.3300781 30.4472656,69.9628906 31.2285156,68.8886719 L49.2949219,44.0839844 C51.5410156,40.9589844 54.421875,39.8359375 57.9863281,39.8359375 L101.150391,39.8359375 C104.714844,39.8359375 107.595703,40.9589844 109.841797,44.0839844 L127.908203,68.8886719 C128.640625,69.9628906 128.347656,71.3300781 126.736328,71.3300781 L95.6328125,71.3300781 C92.9812973,71.3300781 91.7071927,73.2584528 91.632409,75.3788301 L91.6289062,75.7246094 C91.6289062,81.7304688 86.9414062,88.078125 79.5683594,88.078125 Z M100.125,47.0136719 L59.0605469,47.0136719 C57.7421875,47.0136719 56.7167969,48.0390625 56.7167969,49.3574219 C56.7167969,50.6757812 57.7421875,51.7011719 59.0605469,51.7011719 L100.125,51.7011719 C101.443359,51.7011719 102.419922,50.6757812 102.419922,49.3574219 C102.419922,48.0390625 101.443359,47.0136719 100.125,47.0136719 Z M106.570312,58.0488281 C107.9375,58.0488281 109.011719,59.2695312 109.011719,60.5878906 C109.011719,61.90625 107.9375,63.0292969 106.570312,63.0292969 L52.5664062,63.0292969 C51.1992188,63.0292969 50.1738281,61.90625 50.1738281,60.5878906 C50.1738281,59.2695312 51.1992188,58.0488281 52.5664062,58.0488281 L106.570312,58.0488281 Z" fill="#007AFF" fill-rule="nonzero"></path>
        <path d="M36.7757379,162.410156 L29.0179254,162.410156 L29.0179254,148.089844 L25.9944879,148.089844 L25.9944879,165 L36.7757379,165 L36.7757379,162.410156 Z M44.4436295,165.257812 C48.2756607,165.257812 50.607692,162.75 50.607692,158.589844 C50.607692,154.453125 48.263942,151.945312 44.4436295,151.945312 C40.6350357,151.945312 38.279567,154.464844 38.279567,158.589844 C38.279567,162.75 40.5998795,165.257812 44.4436295,165.257812 Z M44.4436295,162.878906 C42.4162857,162.878906 41.2561295,161.308594 41.2561295,158.601562 C41.2561295,155.894531 42.4162857,154.324219 44.4436295,154.324219 C46.4592545,154.324219 47.6194107,155.894531 47.6194107,158.601562 C47.6194107,161.308594 46.4709732,162.878906 44.4436295,162.878906 Z M64.3810523,156.46875 C64.0763648,153.820312 62.0841773,151.945312 58.7912085,151.945312 C54.9357398,151.945312 52.674021,154.417969 52.674021,158.566406 C52.674021,162.761719 54.9474585,165.257812 58.8029273,165.257812 C62.049021,165.257812 64.064646,163.453125 64.3810523,160.804688 L61.6154273,160.804688 C61.3107398,162.152344 60.3029273,162.867188 58.7912085,162.867188 C56.8107398,162.867188 55.6154273,161.285156 55.6154273,158.566406 C55.6154273,155.894531 56.799021,154.324219 58.7912085,154.324219 C60.3849585,154.324219 61.345896,155.226562 61.6154273,156.46875 L64.3810523,156.46875 Z M70.4551939,165.210938 C72.1309751,165.210938 73.5372251,164.484375 74.2520689,163.242188 L74.4512876,163.242188 L74.4512876,165 L77.2520689,165 L77.2520689,156.246094 C77.2520689,153.539062 75.4005064,151.945312 72.1075376,151.945312 C69.0606626,151.945312 66.9395689,153.375 66.7051939,155.613281 L69.4473814,155.613281 C69.7169126,154.734375 70.6309751,154.253906 71.9669126,154.253906 C73.5372251,154.253906 74.3809751,154.96875 74.3809751,156.246094 L74.3809751,157.347656 L71.0762876,157.546875 C67.9591001,157.722656 66.2130064,159.070312 66.2130064,161.367188 C66.2130064,163.710938 67.9825376,165.210938 70.4551939,165.210938 Z M71.3106626,162.972656 C70.0216001,162.972656 69.0958189,162.328125 69.0958189,161.226562 C69.0958189,160.160156 69.8575376,159.5625 71.4864439,159.457031 L74.3809751,159.257812 L74.3809751,160.300781 C74.3809751,161.824219 73.0684751,162.972656 71.3106626,162.972656 Z M81.4394917,149.050781 L81.4394917,152.273438 L79.412148,152.273438 L79.412148,154.535156 L81.4394917,154.535156 L81.4394917,161.601562 C81.4394917,164.074219 82.6113667,165.058594 85.552773,165.058594 C86.115273,165.058594 86.6543355,165.011719 87.0762105,164.929688 L87.0762105,162.703125 L86.6959605,162.738937 C86.516523,162.753281 86.3379292,162.761719 86.0918355,162.761719 C84.8730855,162.761719 84.334023,162.1875 84.334023,160.910156 L84.334023,154.535156 L87.0762105,154.535156 L87.0762105,152.273438 L84.334023,152.273438 L84.334023,149.050781 L81.4394917,149.050781 Z M91.228477,150.046875 C92.1894145,150.046875 92.9745708,149.285156 92.9745708,148.324219 C92.9745708,147.375 92.1894145,146.601562 91.228477,146.601562 C90.2792583,146.601562 89.494102,147.375 89.494102,148.324219 C89.494102,149.285156 90.2792583,150.046875 91.228477,150.046875 Z M89.7870708,165 L92.681602,165 L92.681602,152.191406 L89.7870708,152.191406 L89.7870708,165 Z M101.579962,165.257812 C105.411994,165.257812 107.744025,162.75 107.744025,158.589844 C107.744025,154.453125 105.400275,151.945312 101.579962,151.945312 C97.7713686,151.945312 95.4158999,154.464844 95.4158999,158.589844 C95.4158999,162.75 97.7362124,165.257812 101.579962,165.257812 Z M101.579962,162.878906 C99.5526186,162.878906 98.3924624,161.308594 98.3924624,158.601562 C98.3924624,155.894531 99.5526186,154.324219 101.579962,154.324219 C103.595587,154.324219 104.755744,155.894531 104.755744,158.601562 C104.755744,161.308594 103.607306,162.878906 101.579962,162.878906 Z M110.443166,165 L113.349416,165 L113.349416,157.535156 C113.349416,155.613281 114.43926,154.40625 116.173635,154.40625 C117.943166,154.40625 118.763479,155.402344 118.763479,157.394531 L118.763479,165 L121.669729,165 L121.669729,156.714844 C121.669729,153.667969 120.111135,151.945312 117.25176,151.945312 C115.341604,151.945312 114.052541,152.8125 113.443166,154.242188 L113.243948,154.242188 L113.243948,152.191406 L110.443166,152.191406 L110.443166,165 Z M124.591527,155.847656 C124.591527,153.550781 126.700902,151.945312 129.724339,151.945312 C132.771214,151.945312 134.681371,153.28125 134.892308,155.589844 L132.161839,155.589844 C131.950902,154.6875 131.095433,154.101562 129.736058,154.101562 C128.411839,154.101562 127.415746,154.746094 127.415746,155.695312 C127.415746,156.421875 128.025121,156.878906 129.314183,157.183594 L131.575902,157.6875 C134.025121,158.25 135.161839,159.292969 135.161839,161.179688 C135.161839,163.628906 132.900121,165.257812 129.700902,165.257812 C126.501683,165.257812 124.486058,163.875 124.263402,161.566406 L127.134496,161.566406 C127.415746,162.515625 128.318089,163.101562 129.771214,163.101562 C131.236058,163.101562 132.255589,162.433594 132.255589,161.460938 C132.255589,160.734375 131.704808,160.265625 130.486058,159.984375 L128.212621,159.457031 C125.751683,158.894531 124.591527,157.769531 124.591527,155.847656 Z" id="Locations" fill="#007AFF" fill-rule="nonzero"></path>
    </g>
</svg>