<?xml version="1.0" encoding="UTF-8"?>
<svg width="150px" height="190px" viewBox="0 0 150 190" version="1.1" xmlns="http://www.w3.org/2000/svg" xmlns:xlink="http://www.w3.org/1999/xlink">
    <!-- Generator: Sketch 59.1 (86144) - https://sketch.com -->
    <title>Reminders</title>
    <desc>Created with Sketch.</desc>
    <g id="Reminders" stroke="none" stroke-width="1" fill="none" fill-rule="evenodd">
        <path d="M32.3320312,116.349609 L116.804688,116.349609 C127.058594,116.349609 132.136719,111.271484 132.136719,101.212891 L132.136719,74.2597656 C132.136719,69.8652344 131.453125,67.8144531 129.353516,64.9824219 L112.507812,42.1796875 C107.270027,35.0197793 104.349468,33.0618071 95.9740072,33.0014532 L53.5722656,33 C44.8808594,33 42,34.9042969 36.6777344,42.1796875 L19.7832031,64.9824219 C17.7324219,67.8144531 17,69.8652344 17,74.2597656 L17,101.212891 C17,111.320312 22.1269531,116.349609 32.3320312,116.349609 Z M74.5683594,88.078125 C67.3551136,88.078125 62.6992914,81.9213647 62.5598618,75.9978151 L62.5566406,75.578125 C62.5566406,73.3808594 61.2382812,71.3300781 58.5039062,71.3300781 L27.4003906,71.3300781 C25.7890625,71.3300781 25.4472656,69.9628906 26.2285156,68.8886719 L44.2949219,44.0839844 C46.5410156,40.9589844 49.421875,39.8359375 52.9863281,39.8359375 L96.1503906,39.8359375 C99.7148438,39.8359375 102.595703,40.9589844 104.841797,44.0839844 L122.908203,68.8886719 C123.640625,69.9628906 123.347656,71.3300781 121.736328,71.3300781 L90.6328125,71.3300781 C87.9812973,71.3300781 86.7071927,73.2584528 86.632409,75.3788301 L86.6289062,75.7246094 C86.6289062,81.7304688 81.9414062,88.078125 74.5683594,88.078125 Z M95.125,47.0136719 L54.0605469,47.0136719 C52.7421875,47.0136719 51.7167969,48.0390625 51.7167969,49.3574219 C51.7167969,50.6757812 52.7421875,51.7011719 54.0605469,51.7011719 L95.125,51.7011719 C96.4433594,51.7011719 97.4199219,50.6757812 97.4199219,49.3574219 C97.4199219,48.0390625 96.4433594,47.0136719 95.125,47.0136719 Z M101.570312,58.0488281 C102.9375,58.0488281 104.011719,59.2695312 104.011719,60.5878906 C104.011719,61.90625 102.9375,63.0292969 101.570312,63.0292969 L47.5664062,63.0292969 C46.1992188,63.0292969 45.1738281,61.90625 45.1738281,60.5878906 C45.1738281,59.2695312 46.1992188,58.0488281 47.5664062,58.0488281 L101.570312,58.0488281 Z" fill="#007AFF" fill-rule="nonzero"></path>
        <path d="M23.1585215,162.166992 L26.2307871,162.166992 L29.2708261,168 L32.4397715,168 L29.0559824,161.748047 C30.9036386,161.082031 31.9778574,159.374023 31.9778574,157.322266 C31.9778574,154.357422 29.9368418,152.499023 26.681959,152.499023 L20.3870371,152.499023 L20.3870371,168 L23.1585215,168 L23.1585215,162.166992 Z M23.1585215,154.744141 L26.2952402,154.744141 C28.056959,154.744141 29.1311777,155.743164 29.1311777,157.375977 C29.1311777,159.041016 28.1214121,159.99707 26.3596933,159.99707 L23.1585215,159.99707 L23.1585215,154.744141 Z M42.1434768,164.788086 C41.756758,165.668945 40.8436721,166.163086 39.522383,166.163086 C37.7714064,166.163086 36.6434768,164.916992 36.5790236,162.929688 L36.5790236,162.790039 L44.7860549,162.790039 L44.7860549,161.941406 C44.7860549,158.256836 42.7772658,156.033203 39.4257033,156.033203 C36.0204299,156.033203 33.9042189,158.407227 33.9042189,162.177734 C33.9042189,165.9375 35.9882033,168.236328 39.4471877,168.236328 C42.2186721,168.236328 44.1844924,166.904297 44.6678908,164.788086 L42.1434768,164.788086 Z M39.4149611,158.106445 C41.0155471,158.106445 42.0682814,159.234375 42.1219924,161.017578 L36.5897658,161.017578 C36.7079299,159.255859 37.8251174,158.106445 39.4149611,158.106445 Z M47.2495258,168 L49.9135883,168 L49.9135883,160.856445 C49.9135883,159.395508 50.8911274,158.289062 52.2124164,158.289062 C53.5229633,158.289062 54.3393696,159.083984 54.3393696,160.383789 L54.3393696,168 L56.9282367,168 L56.9282367,160.663086 C56.9282367,159.320312 57.8413227,158.289062 59.2270649,158.289062 C60.6557758,158.289062 61.3755024,159.051758 61.3755024,160.577148 L61.3755024,168 L64.0288227,168 L64.0288227,159.921875 C64.0288227,157.483398 62.6108539,156.033203 60.2583149,156.033203 C58.6255024,156.033203 57.2719867,156.871094 56.6919086,158.149414 L56.5092914,158.149414 C56.0151508,156.849609 54.8872211,156.033203 53.2651508,156.033203 C51.7075336,156.033203 50.5044086,156.828125 49.9995258,158.149414 L49.8169086,158.149414 L49.8169086,156.258789 L47.2495258,156.258789 L47.2495258,168 Z M68.3292077,154.292969 C69.210067,154.292969 69.9297936,153.594727 69.9297936,152.713867 C69.9297936,151.84375 69.210067,151.134766 68.3292077,151.134766 C67.4590905,151.134766 66.7393639,151.84375 66.7393639,152.713867 C66.7393639,153.594727 67.4590905,154.292969 68.3292077,154.292969 Z M67.0079186,168 L69.6612389,168 L69.6612389,156.258789 L67.0079186,156.258789 L67.0079186,168 Z M72.7477567,168 L75.4118192,168 L75.4118192,161.157227 C75.4118192,159.395508 76.4108427,158.289062 78.0006864,158.289062 C79.6227567,158.289062 80.3747098,159.202148 80.3747098,161.02832 L80.3747098,168 L83.0387723,168 L83.0387723,160.405273 C83.0387723,157.612305 81.6100614,156.033203 78.9889677,156.033203 C77.2379911,156.033203 76.0563505,156.828125 75.4977567,158.138672 L75.3151395,158.138672 L75.3151395,156.258789 L72.7477567,156.258789 L72.7477567,168 Z M90.239548,168.193359 C91.8723605,168.193359 93.2258761,167.430664 93.8918917,166.141602 L94.0745089,166.141602 L94.0745089,168 L96.6526339,168 L96.6526339,151.714844 L93.9885714,151.714844 L93.9885714,158.12793 L93.8059542,158.12793 C93.1829073,156.838867 91.8508761,156.06543 90.239548,156.06543 C87.2747042,156.06543 85.4055636,158.407227 85.4055636,162.124023 C85.4055636,165.851562 87.263962,168.193359 90.239548,168.193359 Z M91.0666964,158.289062 C92.8928683,158.289062 94.020798,159.760742 94.020798,162.134766 C94.020798,164.519531 92.9036105,165.980469 91.0666964,165.980469 C89.2405245,165.980469 88.1340792,164.541016 88.1340792,162.134766 C88.1340792,159.739258 89.2512667,158.289062 91.0666964,158.289062 Z M107.462785,164.788086 C107.076066,165.668945 106.16298,166.163086 104.841691,166.163086 C103.090714,166.163086 101.962785,164.916992 101.898331,162.929688 L101.898331,162.790039 L110.105363,162.790039 L110.105363,161.941406 C110.105363,158.256836 108.096574,156.033203 104.745011,156.033203 C101.339738,156.033203 99.2235267,158.407227 99.2235267,162.177734 C99.2235267,165.9375 101.307511,168.236328 104.766495,168.236328 C107.53798,168.236328 109.5038,166.904297 109.987199,164.788086 L107.462785,164.788086 Z M104.734269,158.106445 C106.334855,158.106445 107.387589,159.234375 107.4413,161.017578 L101.909074,161.017578 C102.027238,159.255859 103.144425,158.106445 104.734269,158.106445 Z M112.568834,168 L115.232896,168 L115.232896,161.178711 C115.232896,159.524414 116.436021,158.450195 118.165513,158.450195 C118.616685,158.450195 119.32567,158.525391 119.529771,158.600586 L119.529771,156.172852 C119.282701,156.108398 118.810045,156.06543 118.423326,156.06543 C116.908677,156.06543 115.641099,156.924805 115.318834,158.084961 L115.136216,158.084961 L115.136216,156.258789 L112.568834,156.258789 L112.568834,168 Z M120.983476,159.610352 C120.983476,157.504883 122.91707,156.033203 125.688554,156.033203 C128.481523,156.033203 130.2325,157.257812 130.425859,159.374023 L127.922929,159.374023 C127.72957,158.546875 126.94539,158.009766 125.699297,158.009766 C124.485429,158.009766 123.572344,158.600586 123.572344,159.470703 C123.572344,160.136719 124.130937,160.555664 125.312578,160.834961 L127.38582,161.296875 C129.630937,161.8125 130.672929,162.768555 130.672929,164.498047 C130.672929,166.743164 128.599687,168.236328 125.66707,168.236328 C122.734453,168.236328 120.886797,166.96875 120.682695,164.852539 L123.314531,164.852539 C123.572344,165.722656 124.399492,166.259766 125.731523,166.259766 C127.074297,166.259766 128.008867,165.647461 128.008867,164.755859 C128.008867,164.089844 127.503984,163.660156 126.386797,163.402344 L124.302812,162.918945 C122.046953,162.40332 120.983476,161.37207 120.983476,159.610352 Z" fill="#007AFF" fill-rule="nonzero"></path>
    </g>
</svg>