<?xml version="1.0" encoding="UTF-8"?>
<svg width="160px" height="190px" viewBox="0 0 160 190" version="1.1" xmlns="http://www.w3.org/2000/svg" xmlns:xlink="http://www.w3.org/1999/xlink">
    <!-- Generator: Sketch 59.1 (86144) - https://sketch.com -->
    <title>Reminders</title>
    <desc>Created with Sketch.</desc>
    <g id="Reminders" stroke="none" stroke-width="1" fill="none" fill-rule="evenodd">
        <path d="M37.3320312,116.349609 L121.804688,116.349609 C132.058594,116.349609 137.136719,111.271484 137.136719,101.212891 L137.136719,74.2597656 C137.136719,69.8652344 136.453125,67.8144531 134.353516,64.9824219 L117.507812,42.1796875 C112.270027,35.0197793 109.349468,33.0618071 100.974007,33.0014532 L58.5722656,33 C49.8808594,33 47,34.9042969 41.6777344,42.1796875 L24.7832031,64.9824219 C22.7324219,67.8144531 22,69.8652344 22,74.2597656 L22,101.212891 C22,111.320312 27.1269531,116.349609 37.3320312,116.349609 Z M79.5683594,88.078125 C72.3551136,88.078125 67.6992914,81.9213647 67.5598618,75.9978151 L67.5566406,75.578125 C67.5566406,73.3808594 66.2382812,71.3300781 63.5039062,71.3300781 L32.4003906,71.3300781 C30.7890625,71.3300781 30.4472656,69.9628906 31.2285156,68.8886719 L49.2949219,44.0839844 C51.5410156,40.9589844 54.421875,39.8359375 57.9863281,39.8359375 L101.150391,39.8359375 C104.714844,39.8359375 107.595703,40.9589844 109.841797,44.0839844 L127.908203,68.8886719 C128.640625,69.9628906 128.347656,71.3300781 126.736328,71.3300781 L95.6328125,71.3300781 C92.9812973,71.3300781 91.7071927,73.2584528 91.632409,75.3788301 L91.6289062,75.7246094 C91.6289062,81.7304688 86.9414062,88.078125 79.5683594,88.078125 Z M100.125,47.0136719 L59.0605469,47.0136719 C57.7421875,47.0136719 56.7167969,48.0390625 56.7167969,49.3574219 C56.7167969,50.6757812 57.7421875,51.7011719 59.0605469,51.7011719 L100.125,51.7011719 C101.443359,51.7011719 102.419922,50.6757812 102.419922,49.3574219 C102.419922,48.0390625 101.443359,47.0136719 100.125,47.0136719 Z M106.570312,58.0488281 C107.9375,58.0488281 109.011719,59.2695312 109.011719,60.5878906 C109.011719,61.90625 107.9375,63.0292969 106.570312,63.0292969 L52.5664062,63.0292969 C51.1992188,63.0292969 50.1738281,61.90625 50.1738281,60.5878906 C50.1738281,59.2695312 51.1992188,58.0488281 52.5664062,58.0488281 L106.570312,58.0488281 Z" fill="#007AFF" fill-rule="nonzero"></path>
        <text font-family="SFProText-Semibold, SF Pro Text" font-size="24" font-weight="500" letter-spacing="-0.23054592" fill="#007AFF">
            <tspan x="18.3362848" y="165">Reminders</tspan>
        </text>
    </g>
</svg>