<?xml version="1.0" encoding="UTF-8"?>
<svg width="200px" height="200px" viewBox="0 0 200 200" version="1.1" xmlns="http://www.w3.org/2000/svg" xmlns:xlink="http://www.w3.org/1999/xlink">
    <title>reminders</title>
    <defs>
        <path d="M71.7887856,-1.0155026e-14 L128.211214,-4.35432025e-15 C153.173739,2.52998546e-15 162.225754,2.59911711 171.35168,7.47971571 C180.477606,12.3603143 187.639686,19.5223944 192.520284,28.6483203 C197.400883,37.7742462 200,46.8262609 200,71.7887856 L200,128.211214 C200,153.173739 197.400883,162.225754 192.520284,171.35168 C187.639686,180.477606 180.477606,187.639686 171.35168,192.520284 C162.225754,197.400883 153.173739,200 128.211214,200 L71.7887856,200 C46.8262609,200 37.7742462,197.400883 28.6483203,192.520284 C19.5223944,187.639686 12.3603143,180.477606 7.47971571,171.35168 C2.59911711,162.225754 5.33863302e-15,153.173739 -9.18824169e-15,128.211214 L-5.32110454e-15,71.7887856 C3.09171497e-15,46.8262609 2.59911711,37.7742462 7.47971571,28.6483203 C12.3603143,19.5223944 19.5223944,12.3603143 28.6483203,7.47971571 C37.7742462,2.59911711 46.8262609,5.90036254e-15 71.7887856,-1.0155026e-14 Z" id="path-1"></path>
        <ellipse id="path-3" cx="9.77690289" cy="9.83606557" rx="9.77690289" ry="9.83606557"></ellipse>
        <ellipse id="path-4" cx="9.77690289" cy="60" rx="9.77690289" ry="9.83606557"></ellipse>
        <ellipse id="path-5" cx="9.77690289" cy="110.163934" rx="9.77690289" ry="9.83606557"></ellipse>
    </defs>
    <g id="reminders" stroke="none" stroke-width="1" fill="none" fill-rule="evenodd">
        <mask id="mask-2" fill="white">
            <use xlink:href="#path-1"></use>
        </mask>
        <g id="Mask"></g>
        <g id="Group" mask="url(#mask-2)">
            <g id="Icon">
                <rect id="Rectangle" fill="#FFFFFF" x="0" y="0" width="200" height="200"></rect>
                <rect id="Background" fill="#FFFFFF" x="0" y="0" width="200" height="200"></rect>
                <g transform="translate(28.000000, 40.000000)">
                    <rect id="Path" fill="#D1D1D6" x="45.3648294" y="8.06557377" width="103.635171" height="3.3442623" rx="1.666"></rect>
                    <rect id="Path" fill="#D1D1D6" x="45.3648294" y="58.2295082" width="103.635171" height="3.3442623" rx="1.666"></rect>
                    <rect id="Path" fill="#D1D1D6" x="45.3648294" y="108.393443" width="103.635171" height="3.3442623" rx="1.666"></rect>
                    <g id="Dot">
                        <ellipse stroke="#007AFF" stroke-width="7.056" fill="#007AFF" fill-rule="evenodd" cx="9.77690289" cy="9.83606557" rx="13.3049029" ry="13.3640656"></ellipse>
                        <ellipse stroke="#FFFFFF" stroke-width="3.528" cx="9.77690289" cy="9.83606557" rx="11.5409029" ry="11.6000656"></ellipse>
                    </g>
                    <g id="Dot">
                        <ellipse stroke="#FF3B30" stroke-width="7.056" fill="#FF3B30" fill-rule="evenodd" cx="9.77690289" cy="60" rx="13.3049029" ry="13.3640656"></ellipse>
                        <ellipse stroke="#FFFFFF" stroke-width="3.528" cx="9.77690289" cy="60" rx="11.5409029" ry="11.6000656"></ellipse>
                    </g>
                    <g id="Dot">
                        <ellipse stroke="#FF9500" stroke-width="7.056" fill="#FF9500" fill-rule="evenodd" cx="9.77690289" cy="110.163934" rx="13.3049029" ry="13.3640656"></ellipse>
                        <ellipse stroke="#FFFFFF" stroke-width="3.528" cx="9.77690289" cy="110.163934" rx="11.5409029" ry="11.6000656"></ellipse>
                    </g>
                </g>
            </g>
        </g>
    </g>
</svg>