<?xml version="1.0" encoding="UTF-8"?>
<svg width="190px" height="190px" viewBox="0 0 190 190" version="1.1" xmlns="http://www.w3.org/2000/svg" xmlns:xlink="http://www.w3.org/1999/xlink">
    <!-- Generator: Sketch 59.1 (86144) - https://sketch.com -->
    <title>Reminders</title>
    <desc>Created with Sketch.</desc>
    <g id="Reminders" stroke="none" stroke-width="1" fill="none" fill-rule="evenodd">
        <path d="M52.3320312,116.349609 L136.804688,116.349609 C147.058594,116.349609 152.136719,111.271484 152.136719,101.212891 L152.136719,74.2597656 C152.136719,69.8652344 151.453125,67.8144531 149.353516,64.9824219 L132.507812,42.1796875 C127.270027,35.0197793 124.349468,33.0618071 115.974007,33.0014532 L73.5722656,33 C64.8808594,33 62,34.9042969 56.6777344,42.1796875 L39.7832031,64.9824219 C37.7324219,67.8144531 37,69.8652344 37,74.2597656 L37,101.212891 C37,111.320312 42.1269531,116.349609 52.3320312,116.349609 Z M94.5683594,88.078125 C87.3551136,88.078125 82.6992914,81.9213647 82.5598618,75.9978151 L82.5566406,75.578125 C82.5566406,73.3808594 81.2382812,71.3300781 78.5039062,71.3300781 L47.4003906,71.3300781 C45.7890625,71.3300781 45.4472656,69.9628906 46.2285156,68.8886719 L64.2949219,44.0839844 C66.5410156,40.9589844 69.421875,39.8359375 72.9863281,39.8359375 L116.150391,39.8359375 C119.714844,39.8359375 122.595703,40.9589844 124.841797,44.0839844 L142.908203,68.8886719 C143.640625,69.9628906 143.347656,71.3300781 141.736328,71.3300781 L110.632812,71.3300781 C107.981297,71.3300781 106.707193,73.2584528 106.632409,75.3788301 L106.628906,75.7246094 C106.628906,81.7304688 101.941406,88.078125 94.5683594,88.078125 Z M115.125,47.0136719 L74.0605469,47.0136719 C72.7421875,47.0136719 71.7167969,48.0390625 71.7167969,49.3574219 C71.7167969,50.6757812 72.7421875,51.7011719 74.0605469,51.7011719 L115.125,51.7011719 C116.443359,51.7011719 117.419922,50.6757812 117.419922,49.3574219 C117.419922,48.0390625 116.443359,47.0136719 115.125,47.0136719 Z M121.570312,58.0488281 C122.9375,58.0488281 124.011719,59.2695312 124.011719,60.5878906 C124.011719,61.90625 122.9375,63.0292969 121.570312,63.0292969 L67.5664062,63.0292969 C66.1992188,63.0292969 65.1738281,61.90625 65.1738281,60.5878906 C65.1738281,59.2695312 66.1992188,58.0488281 67.5664062,58.0488281 L121.570312,58.0488281 Z" fill="#007AFF" fill-rule="nonzero"></path>
        <path d="M38.1313477,158.106445 L41.6733398,158.106445 L45.2788086,165 L49.0112305,165 L45.012207,157.611328 C47.1958008,156.824219 48.465332,154.805664 48.465332,152.380859 C48.465332,148.876953 46.0913086,146.680664 42.1303711,146.680664 L34.855957,146.680664 L34.855957,165 L38.1313477,165 L38.1313477,158.106445 Z M38.1313477,149.333984 L41.762207,149.333984 C43.831543,149.333984 45.1137695,150.527344 45.1137695,152.457031 C45.1137695,154.4375 43.9077148,155.592773 41.8256836,155.592773 L38.1313477,155.592773 L38.1313477,149.333984 Z M59.7006836,160.975586 C59.3579102,162.092773 58.2407227,162.829102 56.7680664,162.829102 C54.6987305,162.829102 53.378418,161.381836 53.378418,159.223633 L53.378418,159.033203 L62.7856445,159.033203 L62.7856445,158.004883 C62.7856445,153.916992 60.3989258,151.263672 56.5776367,151.263672 C52.6928711,151.263672 50.2299805,154.069336 50.2299805,158.322266 C50.2299805,162.613281 52.6674805,165.266602 56.7045898,165.266602 C59.8911133,165.266602 62.2524414,163.514648 62.6586914,160.975586 L59.7006836,160.975586 Z M56.590332,153.713867 C58.4057617,153.713867 59.6245117,155.046875 59.6879883,156.951172 L53.4038086,156.951172 C53.5307617,155.072266 54.8129883,153.713867 56.590332,153.713867 Z M64.8168945,165 L67.9780273,165 L67.9780273,156.760742 C67.9780273,155.135742 69.0444336,153.955078 70.5678711,153.955078 C72.0405273,153.955078 72.9545898,154.881836 72.9545898,156.379883 L72.9545898,165 L76.0268555,165 L76.0268555,156.68457 C76.0268555,155.072266 77.0678711,153.955078 78.5913086,153.955078 C80.1401367,153.955078 81.003418,154.894531 81.003418,156.544922 L81.003418,165 L84.1645508,165 L84.1645508,155.770508 C84.1645508,153.079102 82.425293,151.289062 79.7719727,151.289062 C77.8295898,151.289062 76.2299805,152.330078 75.5825195,153.993164 L75.5063477,153.993164 C75.0112305,152.266602 73.652832,151.289062 71.7485352,151.289062 C69.9204102,151.289062 68.4985352,152.317383 67.9145508,153.878906 L67.8510742,153.878906 L67.8510742,151.542969 L64.8168945,151.542969 L64.8168945,165 Z M88.3413086,149.511719 C89.3061523,149.511719 90.0678711,148.737305 90.0678711,147.797852 C90.0678711,146.845703 89.3061523,146.083984 88.3413086,146.083984 C87.3764648,146.083984 86.6020508,146.845703 86.6020508,147.797852 C86.6020508,148.737305 87.3764648,149.511719 88.3413086,149.511719 Z M86.7670898,165 L89.9282227,165 L89.9282227,151.542969 L86.7670898,151.542969 L86.7670898,165 Z M92.581543,165 L95.7426758,165 L95.7426758,157.205078 C95.7426758,155.275391 96.8979492,153.967773 98.7133789,153.967773 C100.516113,153.967773 101.404785,155.03418 101.404785,156.938477 L101.404785,165 L104.565918,165 L104.565918,156.303711 C104.565918,153.193359 102.877441,151.289062 99.9067383,151.289062 C97.8374023,151.289062 96.402832,152.253906 95.6791992,153.853516 L95.6157227,153.853516 L95.6157227,151.542969 L92.581543,151.542969 L92.581543,165 Z M112.119629,165.21582 C114.087402,165.21582 115.63623,164.212891 116.372559,162.702148 L116.42334,162.702148 L116.42334,165 L119.520996,165 L119.520996,146.680664 L116.359863,146.680664 L116.359863,153.802734 L116.283691,153.802734 C115.572754,152.317383 114.049316,151.314453 112.119629,151.314453 C108.72998,151.314453 106.533691,154.005859 106.533691,158.258789 C106.533691,162.537109 108.72998,165.21582 112.119629,165.21582 Z M113.071777,153.916992 C115.064941,153.916992 116.372559,155.630859 116.372559,158.271484 C116.372559,160.9375 115.064941,162.625977 113.071777,162.625977 C111.027832,162.625977 109.770996,160.950195 109.770996,158.271484 C109.770996,155.605469 111.040527,153.916992 113.071777,153.916992 Z M131.086426,160.975586 C130.743652,162.092773 129.626465,162.829102 128.153809,162.829102 C126.084473,162.829102 124.76416,161.381836 124.76416,159.223633 L124.76416,159.033203 L134.171387,159.033203 L134.171387,158.004883 C134.171387,153.916992 131.784668,151.263672 127.963379,151.263672 C124.078613,151.263672 121.615723,154.069336 121.615723,158.322266 C121.615723,162.613281 124.053223,165.266602 128.090332,165.266602 C131.276855,165.266602 133.638184,163.514648 134.044434,160.975586 L131.086426,160.975586 Z M127.976074,153.713867 C129.791504,153.713867 131.010254,155.046875 131.07373,156.951172 L124.789551,156.951172 C124.916504,155.072266 126.19873,153.713867 127.976074,153.713867 Z M136.202637,165 L139.36377,165 L139.36377,157.166992 C139.36377,155.275391 140.442871,154.120117 142.23291,154.120117 C142.766113,154.120117 143.248535,154.196289 143.515137,154.297852 L143.515137,151.441406 L143.247125,151.385923 C143.044,151.348307 142.795736,151.314453 142.524902,151.314453 C140.937988,151.314453 139.757324,152.253906 139.300293,153.891602 L139.236816,153.891602 L139.236816,151.542969 L136.202637,151.542969 L136.202637,165 Z M144.898926,155.402344 C144.898926,152.939453 147.044434,151.263672 150.294434,151.263672 C153.569824,151.263672 155.651855,153.02832 155.728027,155.580078 L152.782715,155.580078 C152.655762,154.361328 151.754395,153.586914 150.294434,153.586914 C148.897949,153.586914 147.971191,154.24707 147.971191,155.237305 C147.971191,156.011719 148.529785,156.544922 149.938965,156.862305 L152.17334,157.357422 C154.966309,157.979492 156.04541,159.058594 156.04541,161.013672 C156.04541,163.552734 153.709473,165.266602 150.408691,165.266602 C146.89209,165.266602 144.810059,163.59082 144.556152,160.988281 L147.666504,160.988281 C147.907715,162.295898 148.809082,162.956055 150.408691,162.956055 C151.944824,162.956055 152.896973,162.321289 152.896973,161.318359 C152.896973,160.505859 152.414551,160.048828 151.005371,159.731445 L148.770996,159.236328 C146.193848,158.665039 144.898926,157.395508 144.898926,155.402344 Z" fill="#007AFF" fill-rule="nonzero"></path>
    </g>
</svg>