<?xml version="1.0" encoding="UTF-8"?>
<svg width="160px" height="190px" viewBox="0 0 160 190" version="1.1" xmlns="http://www.w3.org/2000/svg" xmlns:xlink="http://www.w3.org/1999/xlink">
    <!-- Generator: Sketch 59.1 (86144) - https://sketch.com -->
    <title>Reminders</title>
    <desc>Created with Sketch.</desc>
    <g id="Reminders" stroke="none" stroke-width="1" fill="none" fill-rule="evenodd">
        <path d="M37.3320312,116.349609 L121.804688,116.349609 C132.058594,116.349609 137.136719,111.271484 137.136719,101.212891 L137.136719,74.2597656 C137.136719,69.8652344 136.453125,67.8144531 134.353516,64.9824219 L117.507812,42.1796875 C112.270027,35.0197793 109.349468,33.0618071 100.974007,33.0014532 L58.5722656,33 C49.8808594,33 47,34.9042969 41.6777344,42.1796875 L24.7832031,64.9824219 C22.7324219,67.8144531 22,69.8652344 22,74.2597656 L22,101.212891 C22,111.320312 27.1269531,116.349609 37.3320312,116.349609 Z M79.5683594,88.078125 C72.3551136,88.078125 67.6992914,81.9213647 67.5598618,75.9978151 L67.5566406,75.578125 C67.5566406,73.3808594 66.2382812,71.3300781 63.5039062,71.3300781 L32.4003906,71.3300781 C30.7890625,71.3300781 30.4472656,69.9628906 31.2285156,68.8886719 L49.2949219,44.0839844 C51.5410156,40.9589844 54.421875,39.8359375 57.9863281,39.8359375 L101.150391,39.8359375 C104.714844,39.8359375 107.595703,40.9589844 109.841797,44.0839844 L127.908203,68.8886719 C128.640625,69.9628906 128.347656,71.3300781 126.736328,71.3300781 L95.6328125,71.3300781 C92.9812973,71.3300781 91.7071927,73.2584528 91.632409,75.3788301 L91.6289062,75.7246094 C91.6289062,81.7304688 86.9414062,88.078125 79.5683594,88.078125 Z M100.125,47.0136719 L59.0605469,47.0136719 C57.7421875,47.0136719 56.7167969,48.0390625 56.7167969,49.3574219 C56.7167969,50.6757812 57.7421875,51.7011719 59.0605469,51.7011719 L100.125,51.7011719 C101.443359,51.7011719 102.419922,50.6757812 102.419922,49.3574219 C102.419922,48.0390625 101.443359,47.0136719 100.125,47.0136719 Z M106.570312,58.0488281 C107.9375,58.0488281 109.011719,59.2695312 109.011719,60.5878906 C109.011719,61.90625 107.9375,63.0292969 106.570312,63.0292969 L52.5664062,63.0292969 C51.1992188,63.0292969 50.1738281,61.90625 50.1738281,60.5878906 C50.1738281,59.2695312 51.1992188,58.0488281 52.5664062,58.0488281 L106.570312,58.0488281 Z" fill="#007AFF" fill-rule="nonzero"></path>
        <path d="M42.75,163.78125 L45.21875,163.78125 L47.515625,168.117188 L49.5390625,168.117188 L47.0078125,163.507812 C48.3828125,163.046875 49.1953125,161.8125 49.1953125,160.289062 C49.1953125,158.1875 47.734375,156.84375 45.4609375,156.84375 L41,156.84375 L41,168.117188 L42.75,168.117188 L42.75,163.78125 Z M42.75,158.3125 L45.21875,158.3125 C46.5703125,158.3125 47.3984375,159.070312 47.3984375,160.328125 C47.3984375,161.617188 46.6171875,162.34375 45.265625,162.34375 L42.75,162.34375 L42.75,158.3125 Z M56.6666152,165.84375 C56.3541152,166.53125 55.6588027,166.90625 54.6431777,166.90625 C53.2994277,166.90625 52.4322402,165.9375 52.3775527,164.398438 L52.3775527,164.320312 L58.3853652,164.320312 L58.3853652,163.742188 C58.3853652,161.085938 56.9556777,159.46875 54.5884902,159.46875 C52.1900527,159.46875 50.6666152,161.195312 50.6666152,163.890625 C50.6666152,166.601562 52.1588027,168.28125 54.5963027,168.28125 C56.5416152,168.28125 57.9166152,167.34375 58.2838027,165.84375 L56.6666152,165.84375 Z M54.5806777,160.835938 C55.8228652,160.835938 56.6353652,161.734375 56.6744277,163.109375 L52.3775527,163.109375 C52.4713027,161.742188 53.3384902,160.835938 54.5806777,160.835938 Z M60.2472929,168.117188 L61.9269804,168.117188 L61.9269804,162.90625 C61.9269804,161.796875 62.7004179,160.929688 63.7238554,160.929688 C64.7238554,160.929688 65.3644804,161.53125 65.3644804,162.5 L65.3644804,168.117188 L67.0129179,168.117188 L67.0129179,162.75 C67.0129179,161.726562 67.7238554,160.929688 68.8097929,160.929688 C69.9113554,160.929688 70.4582304,161.5 70.4582304,162.671875 L70.4582304,168.117188 L72.1379179,168.117188 L72.1379179,162.265625 C72.1379179,160.5 71.1379179,159.46875 69.4191679,159.46875 C68.2394804,159.46875 67.2629179,160.070312 66.8332304,160.984375 L66.7004179,160.984375 C66.3254179,160.070312 65.5207304,159.46875 64.3566679,159.46875 C63.2238554,159.46875 62.3644804,160.03125 61.9894804,160.984375 L61.8644804,160.984375 L61.8644804,159.632812 L60.2472929,159.632812 L60.2472929,168.117188 Z M75.2107832,158.117188 C75.7967207,158.117188 76.2732832,157.640625 76.2732832,157.0625 C76.2732832,156.476562 75.7967207,156 75.2107832,156 C74.6248457,156 74.1482832,156.476562 74.1482832,157.0625 C74.1482832,157.640625 74.6248457,158.117188 75.2107832,158.117188 Z M74.3748457,168.117188 L76.0467207,168.117188 L76.0467207,159.632812 L74.3748457,159.632812 L74.3748457,168.117188 Z M78.3617734,168.117188 L80.0414609,168.117188 L80.0414609,163.140625 C80.0414609,161.773438 80.8305234,160.929688 82.0727109,160.929688 C83.3148984,160.929688 83.9086484,161.617188 83.9086484,163.023438 L83.9086484,168.117188 L85.5883359,168.117188 L85.5883359,162.625 C85.5883359,160.601562 84.5414609,159.46875 82.6430234,159.46875 C81.3617734,159.46875 80.5180234,160.039062 80.1039609,160.976562 L79.9789609,160.976562 L79.9789609,159.632812 L78.3617734,159.632812 L78.3617734,168.117188 Z M90.9033886,168.257812 C92.0752636,168.257812 93.0674511,167.703125 93.5752636,166.773438 L93.7080761,166.773438 L93.7080761,168.117188 L95.3174511,168.117188 L95.3174511,156.304688 L93.6377636,156.304688 L93.6377636,160.976562 L93.5127636,160.976562 C93.0518261,160.046875 92.0674511,159.484375 90.9033886,159.484375 C88.7549511,159.484375 87.3721386,161.195312 87.3721386,163.867188 C87.3721386,166.554688 88.7393261,168.257812 90.9033886,168.257812 Z M91.3799511,160.921875 C92.7862011,160.921875 93.6690136,162.0625 93.6690136,163.875 C93.6690136,165.703125 92.7940136,166.820312 91.3799511,166.820312 C89.9580761,166.820312 89.1065136,165.71875 89.1065136,163.875 C89.1065136,162.039062 89.9658886,160.921875 91.3799511,160.921875 Z M103.257504,165.84375 C102.945004,166.53125 102.249691,166.90625 101.234066,166.90625 C99.8903163,166.90625 99.0231288,165.9375 98.9684413,164.398438 L98.9684413,164.320312 L104.976254,164.320312 L104.976254,163.742188 C104.976254,161.085938 103.546566,159.46875 101.179379,159.46875 C98.7809413,159.46875 97.2575038,161.195312 97.2575038,163.890625 C97.2575038,166.601562 98.7496913,168.28125 101.187191,168.28125 C103.132504,168.28125 104.507504,167.34375 104.874691,165.84375 L103.257504,165.84375 Z M101.171566,160.835938 C102.413754,160.835938 103.226254,161.734375 103.265316,163.109375 L98.9684413,163.109375 C99.0621913,161.742188 99.9293788,160.835938 101.171566,160.835938 Z M106.838182,168.117188 L108.517869,168.117188 L108.517869,163.046875 C108.517869,161.851562 109.416307,161.03125 110.689744,161.03125 C110.986619,161.03125 111.486619,161.085938 111.627244,161.125 L111.627244,159.546875 C111.447557,159.507812 111.127244,159.484375 110.877244,159.484375 C109.767869,159.484375 108.822557,160.085938 108.580369,160.921875 L108.455369,160.921875 L108.455369,159.632812 L106.838182,159.632812 L106.838182,168.117188 Z M112.723547,162.007812 C112.723547,160.53125 114.106359,159.46875 116.028234,159.46875 C117.942297,159.46875 119.192297,160.359375 119.356359,161.828125 L117.746984,161.828125 C117.590734,161.195312 116.981359,160.78125 116.028234,160.78125 C115.090734,160.78125 114.379797,161.242188 114.379797,161.929688 C114.379797,162.453125 114.809484,162.78125 115.731359,163 L117.145422,163.328125 C118.762609,163.703125 119.520422,164.398438 119.520422,165.632812 C119.520422,167.210938 118.028234,168.28125 115.996984,168.28125 C113.973547,168.28125 112.653234,167.367188 112.504797,165.890625 L114.184484,165.890625 C114.395422,166.554688 115.020422,166.96875 116.036047,166.96875 C117.082922,166.96875 117.825109,166.484375 117.825109,165.789062 C117.825109,165.257812 117.426672,164.914062 116.575109,164.710938 L115.090734,164.359375 C113.473547,163.984375 112.723547,163.265625 112.723547,162.007812 Z" fill="#007AFF" fill-rule="nonzero"></path>
    </g>
</svg>