<?xml version="1.0" encoding="UTF-8"?>
<svg width="210px" height="190px" viewBox="0 0 210 190" version="1.1" xmlns="http://www.w3.org/2000/svg" xmlns:xlink="http://www.w3.org/1999/xlink">
    <!-- Generator: Sketch 59.1 (86144) - https://sketch.com -->
    <title>Reminders</title>
    <desc>Created with Sketch.</desc>
    <g id="Reminders" stroke="none" stroke-width="1" fill="none" fill-rule="evenodd">
        <path d="M62.3320312,116.349609 L146.804688,116.349609 C157.058594,116.349609 162.136719,111.271484 162.136719,101.212891 L162.136719,74.2597656 C162.136719,69.8652344 161.453125,67.8144531 159.353516,64.9824219 L142.507812,42.1796875 C137.270027,35.0197793 134.349468,33.0618071 125.974007,33.0014532 L83.5722656,33 C74.8808594,33 72,34.9042969 66.6777344,42.1796875 L49.7832031,64.9824219 C47.7324219,67.8144531 47,69.8652344 47,74.2597656 L47,101.212891 C47,111.320312 52.1269531,116.349609 62.3320312,116.349609 Z M104.568359,88.078125 C97.3551136,88.078125 92.6992914,81.9213647 92.5598618,75.9978151 L92.5566406,75.578125 C92.5566406,73.3808594 91.2382812,71.3300781 88.5039062,71.3300781 L57.4003906,71.3300781 C55.7890625,71.3300781 55.4472656,69.9628906 56.2285156,68.8886719 L74.2949219,44.0839844 C76.5410156,40.9589844 79.421875,39.8359375 82.9863281,39.8359375 L126.150391,39.8359375 C129.714844,39.8359375 132.595703,40.9589844 134.841797,44.0839844 L152.908203,68.8886719 C153.640625,69.9628906 153.347656,71.3300781 151.736328,71.3300781 L120.632812,71.3300781 C117.981297,71.3300781 116.707193,73.2584528 116.632409,75.3788301 L116.628906,75.7246094 C116.628906,81.7304688 111.941406,88.078125 104.568359,88.078125 Z M125.125,47.0136719 L84.0605469,47.0136719 C82.7421875,47.0136719 81.7167969,48.0390625 81.7167969,49.3574219 C81.7167969,50.6757812 82.7421875,51.7011719 84.0605469,51.7011719 L125.125,51.7011719 C126.443359,51.7011719 127.419922,50.6757812 127.419922,49.3574219 C127.419922,48.0390625 126.443359,47.0136719 125.125,47.0136719 Z M131.570312,58.0488281 C132.9375,58.0488281 134.011719,59.2695312 134.011719,60.5878906 C134.011719,61.90625 132.9375,63.0292969 131.570312,63.0292969 L77.5664062,63.0292969 C76.1992188,63.0292969 75.1738281,61.90625 75.1738281,60.5878906 C75.1738281,59.2695312 76.1992188,58.0488281 77.5664062,58.0488281 L131.570312,58.0488281 Z" fill="#007AFF" fill-rule="nonzero"></path>
        <path d="M35.0078125,169.515625 L39.3671875,169.515625 L43.8046875,178 L48.3984375,178 L43.4765625,168.90625 C46.1640625,167.9375 47.7265625,165.453125 47.7265625,162.46875 C47.7265625,158.15625 44.8046875,155.453125 39.9296875,155.453125 L30.9765625,155.453125 L30.9765625,178 L35.0078125,178 L35.0078125,169.515625 Z M35.0078125,158.71875 L39.4765625,158.71875 C42.0234375,158.71875 43.6015625,160.1875 43.6015625,162.5625 C43.6015625,165 42.1171875,166.421875 39.5546875,166.421875 L35.0078125,166.421875 L35.0078125,158.71875 Z M61.5546875,173.046875 C61.1328125,174.421875 59.7578125,175.328125 57.9453125,175.328125 C55.3984375,175.328125 53.7734375,173.546875 53.7734375,170.890625 L53.7734375,170.65625 L65.3515625,170.65625 L65.3515625,169.390625 C65.3515625,164.359375 62.4140625,161.09375 57.7109375,161.09375 C52.9296875,161.09375 49.8984375,164.546875 49.8984375,169.78125 C49.8984375,175.0625 52.8984375,178.328125 57.8671875,178.328125 C61.7890625,178.328125 64.6953125,176.171875 65.1953125,173.046875 L61.5546875,173.046875 Z M57.7265625,164.109375 C59.9609375,164.109375 61.4609375,165.75 61.5390625,168.09375 L53.8046875,168.09375 C53.9609375,165.78125 55.5390625,164.109375 57.7265625,164.109375 Z M67.8515625,178 L71.7421875,178 L71.7421875,167.859375 C71.7421875,165.859375 73.0546875,164.40625 74.9296875,164.40625 C76.7421875,164.40625 77.8671875,165.546875 77.8671875,167.390625 L77.8671875,178 L81.6484375,178 L81.6484375,167.765625 C81.6484375,165.78125 82.9296875,164.40625 84.8046875,164.40625 C86.7109375,164.40625 87.7734375,165.5625 87.7734375,167.59375 L87.7734375,178 L91.6640625,178 L91.6640625,166.640625 C91.6640625,163.328125 89.5234375,161.125 86.2578125,161.125 C83.8671875,161.125 81.8984375,162.40625 81.1015625,164.453125 L81.0078125,164.453125 C80.3984375,162.328125 78.7265625,161.125 76.3828125,161.125 C74.1328125,161.125 72.3828125,162.390625 71.6640625,164.3125 L71.5859375,164.3125 L71.5859375,161.4375 L67.8515625,161.4375 L67.8515625,178 Z M96.8046875,158.9375 C97.9921875,158.9375 98.9296875,157.984375 98.9296875,156.828125 C98.9296875,155.65625 97.9921875,154.71875 96.8046875,154.71875 C95.6171875,154.71875 94.6640625,155.65625 94.6640625,156.828125 C94.6640625,157.984375 95.6171875,158.9375 96.8046875,158.9375 Z M94.8671875,178 L98.7578125,178 L98.7578125,161.4375 L94.8671875,161.4375 L94.8671875,178 Z M102.023438,178 L105.914062,178 L105.914062,168.40625 C105.914062,166.03125 107.335938,164.421875 109.570312,164.421875 C111.789062,164.421875 112.882812,165.734375 112.882812,168.078125 L112.882812,178 L116.773438,178 L116.773438,167.296875 C116.773438,163.46875 114.695312,161.125 111.039062,161.125 C108.492188,161.125 106.726562,162.3125 105.835938,164.28125 L105.757812,164.28125 L105.757812,161.4375 L102.023438,161.4375 L102.023438,178 Z M126.070312,178.265625 C128.492188,178.265625 130.398438,177.03125 131.304688,175.171875 L131.367188,175.171875 L131.367188,178 L135.179688,178 L135.179688,155.453125 L131.289062,155.453125 L131.289062,164.21875 L131.195312,164.21875 C130.320312,162.390625 128.445312,161.15625 126.070312,161.15625 C121.898438,161.15625 119.195312,164.46875 119.195312,169.703125 C119.195312,174.96875 121.898438,178.265625 126.070312,178.265625 Z M127.242188,164.359375 C129.695312,164.359375 131.304688,166.46875 131.304688,169.71875 C131.304688,173 129.695312,175.078125 127.242188,175.078125 C124.726562,175.078125 123.179688,173.015625 123.179688,169.71875 C123.179688,166.4375 124.742188,164.359375 127.242188,164.359375 Z M149.414062,173.046875 C148.992188,174.421875 147.617188,175.328125 145.804688,175.328125 C143.257812,175.328125 141.632812,173.546875 141.632812,170.890625 L141.632812,170.65625 L153.210938,170.65625 L153.210938,169.390625 C153.210938,164.359375 150.273438,161.09375 145.570312,161.09375 C140.789062,161.09375 137.757812,164.546875 137.757812,169.78125 C137.757812,175.0625 140.757812,178.328125 145.726562,178.328125 C149.648438,178.328125 152.554688,176.171875 153.054688,173.046875 L149.414062,173.046875 Z M145.585938,164.109375 C147.820312,164.109375 149.320312,165.75 149.398438,168.09375 L141.664062,168.09375 C141.820312,165.78125 143.398438,164.109375 145.585938,164.109375 Z M155.710938,178 L159.601562,178 L159.601562,168.359375 C159.601562,166.03125 160.929688,164.609375 163.132812,164.609375 C163.789062,164.609375 164.382812,164.703125 164.710938,164.828125 L164.710938,161.3125 L164.433787,161.254191 C164.174585,161.204082 163.84933,161.15625 163.492188,161.15625 C161.539062,161.15625 160.085938,162.3125 159.523438,164.328125 L159.445312,164.328125 L159.445312,161.4375 L155.710938,161.4375 L155.710938,178 Z M166.414062,166.1875 C166.414062,163.15625 169.054688,161.09375 173.054688,161.09375 C177.085938,161.09375 179.648438,163.265625 179.742188,166.40625 L176.117188,166.40625 C175.960938,164.90625 174.851562,163.953125 173.054688,163.953125 C171.335938,163.953125 170.195312,164.765625 170.195312,165.984375 C170.195312,166.9375 170.882812,167.59375 172.617188,167.984375 L175.367188,168.59375 C178.804688,169.359375 180.132812,170.6875 180.132812,173.09375 C180.132812,176.21875 177.257812,178.328125 173.195312,178.328125 C168.867188,178.328125 166.304688,176.265625 165.992188,173.0625 L169.820312,173.0625 C170.117188,174.671875 171.226562,175.484375 173.195312,175.484375 C175.085938,175.484375 176.257812,174.703125 176.257812,173.46875 C176.257812,172.46875 175.664062,171.90625 173.929688,171.515625 L171.179688,170.90625 C168.007812,170.203125 166.414062,168.640625 166.414062,166.1875 Z" fill="#007AFF" fill-rule="nonzero"></path>
    </g>
</svg>