<?xml version="1.0" encoding="UTF-8"?>
<svg width="190px" height="190px" viewBox="0 0 190 190" version="1.1" xmlns="http://www.w3.org/2000/svg" xmlns:xlink="http://www.w3.org/1999/xlink">
    <!-- Generator: Sketch 59.1 (86144) - https://sketch.com -->
    <title>Reminders</title>
    <desc>Created with Sketch.</desc>
    <g id="Reminders" stroke="none" stroke-width="1" fill="none" fill-rule="evenodd">
        <path d="M52.3320312,116.349609 L136.804688,116.349609 C147.058594,116.349609 152.136719,111.271484 152.136719,101.212891 L152.136719,74.2597656 C152.136719,69.8652344 151.453125,67.8144531 149.353516,64.9824219 L132.507812,42.1796875 C127.270027,35.0197793 124.349468,33.0618071 115.974007,33.0014532 L73.5722656,33 C64.8808594,33 62,34.9042969 56.6777344,42.1796875 L39.7832031,64.9824219 C37.7324219,67.8144531 37,69.8652344 37,74.2597656 L37,101.212891 C37,111.320312 42.1269531,116.349609 52.3320312,116.349609 Z M94.5683594,88.078125 C87.3551136,88.078125 82.6992914,81.9213647 82.5598618,75.9978151 L82.5566406,75.578125 C82.5566406,73.3808594 81.2382812,71.3300781 78.5039062,71.3300781 L47.4003906,71.3300781 C45.7890625,71.3300781 45.4472656,69.9628906 46.2285156,68.8886719 L64.2949219,44.0839844 C66.5410156,40.9589844 69.421875,39.8359375 72.9863281,39.8359375 L116.150391,39.8359375 C119.714844,39.8359375 122.595703,40.9589844 124.841797,44.0839844 L142.908203,68.8886719 C143.640625,69.9628906 143.347656,71.3300781 141.736328,71.3300781 L110.632812,71.3300781 C107.981297,71.3300781 106.707193,73.2584528 106.632409,75.3788301 L106.628906,75.7246094 C106.628906,81.7304688 101.941406,88.078125 94.5683594,88.078125 Z M115.125,47.0136719 L74.0605469,47.0136719 C72.7421875,47.0136719 71.7167969,48.0390625 71.7167969,49.3574219 C71.7167969,50.6757812 72.7421875,51.7011719 74.0605469,51.7011719 L115.125,51.7011719 C116.443359,51.7011719 117.419922,50.6757812 117.419922,49.3574219 C117.419922,48.0390625 116.443359,47.0136719 115.125,47.0136719 Z M121.570312,58.0488281 C122.9375,58.0488281 124.011719,59.2695312 124.011719,60.5878906 C124.011719,61.90625 122.9375,63.0292969 121.570312,63.0292969 L67.5664062,63.0292969 C66.1992188,63.0292969 65.1738281,61.90625 65.1738281,60.5878906 C65.1738281,59.2695312 66.1992188,58.0488281 67.5664062,58.0488281 L121.570312,58.0488281 Z" fill="#007AFF" fill-rule="nonzero"></path>
        <path d="M38.0234375,159.035156 L41.375,159.035156 L44.6914062,165.398438 L48.1484375,165.398438 L44.4570312,158.578125 C46.4726562,157.851562 47.6445312,155.988281 47.6445312,153.75 C47.6445312,150.515625 45.4179688,148.488281 41.8671875,148.488281 L35,148.488281 L35,165.398438 L38.0234375,165.398438 L38.0234375,159.035156 Z M38.0234375,150.9375 L41.4453125,150.9375 C43.3671875,150.9375 44.5390625,152.027344 44.5390625,153.808594 C44.5390625,155.625 43.4375,156.667969 41.515625,156.667969 L38.0234375,156.667969 L38.0234375,150.9375 Z M58.7342978,161.894531 C58.3124228,162.855469 57.3163291,163.394531 55.8749228,163.394531 C53.9647666,163.394531 52.7342978,162.035156 52.6639853,159.867188 L52.6639853,159.714844 L61.6171103,159.714844 L61.6171103,158.789062 C61.6171103,154.769531 59.4257041,152.34375 55.7694541,152.34375 C52.0546103,152.34375 49.7460166,154.933594 49.7460166,159.046875 C49.7460166,163.148438 52.0194541,165.65625 55.7928916,165.65625 C58.8163291,165.65625 60.9608603,164.203125 61.4882041,161.894531 L58.7342978,161.894531 Z M55.7577353,154.605469 C57.5038291,154.605469 58.6522666,155.835938 58.7108603,157.78125 L52.6757041,157.78125 C52.8046103,155.859375 54.0233603,154.605469 55.7577353,154.605469 Z M64.3045332,165.398438 L67.2107832,165.398438 L67.2107832,157.605469 C67.2107832,156.011719 68.2771894,154.804688 69.7185957,154.804688 C71.1482832,154.804688 72.0389082,155.671875 72.0389082,157.089844 L72.0389082,165.398438 L74.8631269,165.398438 L74.8631269,157.394531 C74.8631269,155.929688 75.8592207,154.804688 77.3709394,154.804688 C78.9295332,154.804688 79.7146894,155.636719 79.7146894,157.300781 L79.7146894,165.398438 L82.6092207,165.398438 L82.6092207,156.585938 C82.6092207,153.925781 81.0623457,152.34375 78.4959394,152.34375 C76.7146894,152.34375 75.2381269,153.257812 74.6053144,154.652344 L74.4060957,154.652344 C73.8670332,153.234375 72.6365644,152.34375 70.8670332,152.34375 C69.1678144,152.34375 67.8553144,153.210938 67.3045332,154.652344 L67.1053144,154.652344 L67.1053144,152.589844 L64.3045332,152.589844 L64.3045332,165.398438 Z M87.3005497,150.445312 C88.2614872,150.445312 89.0466435,149.683594 89.0466435,148.722656 C89.0466435,147.773438 88.2614872,147 87.3005497,147 C86.351331,147 85.5661747,147.773438 85.5661747,148.722656 C85.5661747,149.683594 86.351331,150.445312 87.3005497,150.445312 Z M85.8591435,165.398438 L88.7536747,165.398438 L88.7536747,152.589844 L85.8591435,152.589844 L85.8591435,165.398438 Z M92.1207851,165.398438 L95.0270351,165.398438 L95.0270351,157.933594 C95.0270351,156.011719 96.1168788,154.804688 97.8512538,154.804688 C99.6207851,154.804688 100.441098,155.800781 100.441098,157.792969 L100.441098,165.398438 L103.347348,165.398438 L103.347348,157.113281 C103.347348,154.066406 101.788754,152.34375 98.9293788,152.34375 C97.0192226,152.34375 95.7301601,153.210938 95.1207851,154.640625 L94.9215663,154.640625 L94.9215663,152.589844 L92.1207851,152.589844 L92.1207851,165.398438 Z M111.202739,165.609375 C112.983989,165.609375 114.460552,164.777344 115.187114,163.371094 L115.386333,163.371094 L115.386333,165.398438 L118.198833,165.398438 L118.198833,147.632812 L115.292583,147.632812 L115.292583,154.628906 L115.093364,154.628906 C114.413677,153.222656 112.960552,152.378906 111.202739,152.378906 C107.968364,152.378906 105.929302,154.933594 105.929302,158.988281 C105.929302,163.054688 107.956645,165.609375 111.202739,165.609375 Z M112.105083,154.804688 C114.09727,154.804688 115.327739,156.410156 115.327739,159 C115.327739,161.601562 114.108989,163.195312 112.105083,163.195312 C110.112895,163.195312 108.905864,161.625 108.905864,159 C108.905864,156.386719 110.124614,154.804688 112.105083,154.804688 Z M129.991724,161.894531 C129.569849,162.855469 128.573756,163.394531 127.132349,163.394531 C125.222193,163.394531 123.991724,162.035156 123.921412,159.867188 L123.921412,159.714844 L132.874537,159.714844 L132.874537,158.789062 C132.874537,154.769531 130.683131,152.34375 127.026881,152.34375 C123.312037,152.34375 121.003443,154.933594 121.003443,159.046875 C121.003443,163.148438 123.276881,165.65625 127.050318,165.65625 C130.073756,165.65625 132.218287,164.203125 132.745631,161.894531 L129.991724,161.894531 Z M127.015162,154.605469 C128.761256,154.605469 129.909693,155.835938 129.968287,157.78125 L123.933131,157.78125 C124.062037,155.859375 125.280787,154.605469 127.015162,154.605469 Z M135.56196,165.398438 L138.46821,165.398438 L138.46821,157.957031 C138.46821,156.152344 139.78071,154.980469 141.667429,154.980469 C142.159616,154.980469 142.933054,155.0625 143.15571,155.144531 L143.15571,152.496094 C142.886179,152.425781 142.370554,152.378906 141.948679,152.378906 C140.296335,152.378906 138.913522,153.316406 138.56196,154.582031 L138.362741,154.582031 L138.362741,152.589844 L135.56196,152.589844 L135.56196,165.398438 Z M144.74157,156.246094 C144.74157,153.949219 146.850945,152.34375 149.874383,152.34375 C152.921258,152.34375 154.831414,153.679688 155.042351,155.988281 L152.311883,155.988281 C152.100945,155.085938 151.245476,154.5 149.886101,154.5 C148.561883,154.5 147.565789,155.144531 147.565789,156.09375 C147.565789,156.820312 148.175164,157.277344 149.464226,157.582031 L151.725945,158.085938 C154.175164,158.648438 155.311883,159.691406 155.311883,161.578125 C155.311883,164.027344 153.050164,165.65625 149.850945,165.65625 C146.651726,165.65625 144.636101,164.273438 144.413445,161.964844 L147.284539,161.964844 C147.565789,162.914062 148.468133,163.5 149.921258,163.5 C151.386101,163.5 152.405633,162.832031 152.405633,161.859375 C152.405633,161.132812 151.854851,160.664062 150.636101,160.382812 L148.362664,159.855469 C145.901726,159.292969 144.74157,158.167969 144.74157,156.246094 Z" fill="#007AFF" fill-rule="nonzero"></path>
    </g>
</svg>