<?xml version="1.0" encoding="UTF-8"?>
<svg width="220px" height="210px" viewBox="0 0 220 210" version="1.1" xmlns="http://www.w3.org/2000/svg" xmlns:xlink="http://www.w3.org/1999/xlink">
    <!-- Generator: Sketch 59.1 (86144) - https://sketch.com -->
    <title>Reminders</title>
    <desc>Created with Sketch.</desc>
    <g id="Reminders" stroke="none" stroke-width="1" fill="none" fill-rule="evenodd">
        <path d="M67.3320312,116.349609 L151.804688,116.349609 C162.058594,116.349609 167.136719,111.271484 167.136719,101.212891 L167.136719,74.2597656 C167.136719,69.8652344 166.453125,67.8144531 164.353516,64.9824219 L147.507812,42.1796875 C142.270027,35.0197793 139.349468,33.0618071 130.974007,33.0014532 L88.5722656,33 C79.8808594,33 77,34.9042969 71.6777344,42.1796875 L54.7832031,64.9824219 C52.7324219,67.8144531 52,69.8652344 52,74.2597656 L52,101.212891 C52,111.320312 57.1269531,116.349609 67.3320312,116.349609 Z M109.568359,88.078125 C102.355114,88.078125 97.6992914,81.9213647 97.5598618,75.9978151 L97.5566406,75.578125 C97.5566406,73.3808594 96.2382812,71.3300781 93.5039062,71.3300781 L62.4003906,71.3300781 C60.7890625,71.3300781 60.4472656,69.9628906 61.2285156,68.8886719 L79.2949219,44.0839844 C81.5410156,40.9589844 84.421875,39.8359375 87.9863281,39.8359375 L131.150391,39.8359375 C134.714844,39.8359375 137.595703,40.9589844 139.841797,44.0839844 L157.908203,68.8886719 C158.640625,69.9628906 158.347656,71.3300781 156.736328,71.3300781 L125.632812,71.3300781 C122.981297,71.3300781 121.707193,73.2584528 121.632409,75.3788301 L121.628906,75.7246094 C121.628906,81.7304688 116.941406,88.078125 109.568359,88.078125 Z M130.125,47.0136719 L89.0605469,47.0136719 C87.7421875,47.0136719 86.7167969,48.0390625 86.7167969,49.3574219 C86.7167969,50.6757812 87.7421875,51.7011719 89.0605469,51.7011719 L130.125,51.7011719 C131.443359,51.7011719 132.419922,50.6757812 132.419922,49.3574219 C132.419922,48.0390625 131.443359,47.0136719 130.125,47.0136719 Z M136.570312,58.0488281 C137.9375,58.0488281 139.011719,59.2695312 139.011719,60.5878906 C139.011719,61.90625 137.9375,63.0292969 136.570312,63.0292969 L82.5664062,63.0292969 C81.1992188,63.0292969 80.1738281,61.90625 80.1738281,60.5878906 C80.1738281,59.2695312 81.1992188,58.0488281 82.5664062,58.0488281 L136.570312,58.0488281 Z" fill="#007AFF" fill-rule="nonzero"></path>
        <path d="M39.03125,169.796875 L43.390625,169.796875 L47.828125,178.28125 L52.421875,178.28125 L47.5,169.1875 C50.1875,168.21875 51.75,165.734375 51.75,162.75 C51.75,158.4375 48.828125,155.734375 43.953125,155.734375 L35,155.734375 L35,178.28125 L39.03125,178.28125 L39.03125,169.796875 Z M39.03125,159 L43.5,159 C46.046875,159 47.625,160.46875 47.625,162.84375 C47.625,165.28125 46.140625,166.703125 43.578125,166.703125 L39.03125,166.703125 L39.03125,159 Z M65.578125,173.328125 C65.15625,174.703125 63.78125,175.609375 61.96875,175.609375 C59.421875,175.609375 57.796875,173.828125 57.796875,171.171875 L57.796875,170.9375 L69.375,170.9375 L69.375,169.671875 C69.375,164.640625 66.4375,161.375 61.734375,161.375 C56.953125,161.375 53.921875,164.828125 53.921875,170.0625 C53.921875,175.34375 56.921875,178.609375 61.890625,178.609375 C65.8125,178.609375 68.71875,176.453125 69.21875,173.328125 L65.578125,173.328125 Z M61.75,164.390625 C63.984375,164.390625 65.484375,166.03125 65.5625,168.375 L57.828125,168.375 C57.984375,166.0625 59.5625,164.390625 61.75,164.390625 Z M71.875,178.28125 L75.765625,178.28125 L75.765625,168.140625 C75.765625,166.140625 77.078125,164.6875 78.953125,164.6875 C80.765625,164.6875 81.890625,165.828125 81.890625,167.671875 L81.890625,178.28125 L85.671875,178.28125 L85.671875,168.046875 C85.671875,166.0625 86.953125,164.6875 88.828125,164.6875 C90.734375,164.6875 91.796875,165.84375 91.796875,167.875 L91.796875,178.28125 L95.6875,178.28125 L95.6875,166.921875 C95.6875,163.609375 93.546875,161.40625 90.28125,161.40625 C87.890625,161.40625 85.921875,162.6875 85.125,164.734375 L85.03125,164.734375 C84.421875,162.609375 82.75,161.40625 80.40625,161.40625 C78.15625,161.40625 76.40625,162.671875 75.6875,164.59375 L75.609375,164.59375 L75.609375,161.71875 L71.875,161.71875 L71.875,178.28125 Z M100.828125,159.21875 C102.015625,159.21875 102.953125,158.265625 102.953125,157.109375 C102.953125,155.9375 102.015625,155 100.828125,155 C99.640625,155 98.6875,155.9375 98.6875,157.109375 C98.6875,158.265625 99.640625,159.21875 100.828125,159.21875 Z M98.890625,178.28125 L102.78125,178.28125 L102.78125,161.71875 L98.890625,161.71875 L98.890625,178.28125 Z M106.046875,178.28125 L109.9375,178.28125 L109.9375,168.6875 C109.9375,166.3125 111.359375,164.703125 113.59375,164.703125 C115.8125,164.703125 116.90625,166.015625 116.90625,168.359375 L116.90625,178.28125 L120.796875,178.28125 L120.796875,167.578125 C120.796875,163.75 118.71875,161.40625 115.0625,161.40625 C112.515625,161.40625 110.75,162.59375 109.859375,164.5625 L109.78125,164.5625 L109.78125,161.71875 L106.046875,161.71875 L106.046875,178.28125 Z M130.09375,178.546875 C132.515625,178.546875 134.421875,177.3125 135.328125,175.453125 L135.390625,175.453125 L135.390625,178.28125 L139.203125,178.28125 L139.203125,155.734375 L135.3125,155.734375 L135.3125,164.5 L135.21875,164.5 C134.34375,162.671875 132.46875,161.4375 130.09375,161.4375 C125.921875,161.4375 123.21875,164.75 123.21875,169.984375 C123.21875,175.25 125.921875,178.546875 130.09375,178.546875 Z M131.265625,164.640625 C133.71875,164.640625 135.328125,166.75 135.328125,170 C135.328125,173.28125 133.71875,175.359375 131.265625,175.359375 C128.75,175.359375 127.203125,173.296875 127.203125,170 C127.203125,166.71875 128.765625,164.640625 131.265625,164.640625 Z M153.4375,173.328125 C153.015625,174.703125 151.640625,175.609375 149.828125,175.609375 C147.28125,175.609375 145.65625,173.828125 145.65625,171.171875 L145.65625,170.9375 L157.234375,170.9375 L157.234375,169.671875 C157.234375,164.640625 154.296875,161.375 149.59375,161.375 C144.8125,161.375 141.78125,164.828125 141.78125,170.0625 C141.78125,175.34375 144.78125,178.609375 149.75,178.609375 C153.671875,178.609375 156.578125,176.453125 157.078125,173.328125 L153.4375,173.328125 Z M149.609375,164.390625 C151.84375,164.390625 153.34375,166.03125 153.421875,168.375 L145.6875,168.375 C145.84375,166.0625 147.421875,164.390625 149.609375,164.390625 Z M159.734375,178.28125 L163.625,178.28125 L163.625,168.640625 C163.625,166.3125 164.953125,164.890625 167.15625,164.890625 C167.8125,164.890625 168.40625,164.984375 168.734375,165.109375 L168.734375,161.59375 L168.457225,161.535441 C168.198023,161.485332 167.872768,161.4375 167.515625,161.4375 C165.5625,161.4375 164.109375,162.59375 163.546875,164.609375 L163.46875,164.609375 L163.46875,161.71875 L159.734375,161.71875 L159.734375,178.28125 Z M170.4375,166.46875 C170.4375,163.4375 173.078125,161.375 177.078125,161.375 C181.109375,161.375 183.671875,163.546875 183.765625,166.6875 L180.140625,166.6875 C179.984375,165.1875 178.875,164.234375 177.078125,164.234375 C175.359375,164.234375 174.21875,165.046875 174.21875,166.265625 C174.21875,167.21875 174.90625,167.875 176.640625,168.265625 L179.390625,168.875 C182.828125,169.640625 184.15625,170.96875 184.15625,173.375 C184.15625,176.5 181.28125,178.609375 177.21875,178.609375 C172.890625,178.609375 170.328125,176.546875 170.015625,173.34375 L173.84375,173.34375 C174.140625,174.953125 175.25,175.765625 177.21875,175.765625 C179.109375,175.765625 180.28125,174.984375 180.28125,173.75 C180.28125,172.75 179.6875,172.1875 177.953125,171.796875 L175.203125,171.1875 C172.03125,170.484375 170.4375,168.921875 170.4375,166.46875 Z" fill="#007AFF" fill-rule="nonzero"></path>
    </g>
</svg>