<?xml version="1.0" encoding="UTF-8"?>
<svg width="150px" height="150px" viewBox="0 0 150 150" version="1.1" xmlns="http://www.w3.org/2000/svg" xmlns:xlink="http://www.w3.org/1999/xlink">
    <!-- Generator: Sketch 59.1 (86144) - https://sketch.com -->
    <title>Reminders</title>
    <desc>Created with Sketch.</desc>
    <g id="Reminders" stroke="none" stroke-width="1" fill="none" fill-rule="evenodd">
        <path d="M32.3320312,116.349609 L116.804688,116.349609 C127.058594,116.349609 132.136719,111.271484 132.136719,101.212891 L132.136719,74.2597656 C132.136719,69.8652344 131.453125,67.8144531 129.353516,64.9824219 L112.507812,42.1796875 C107.270027,35.0197793 104.349468,33.0618071 95.9740072,33.0014532 L53.5722656,33 C44.8808594,33 42,34.9042969 36.6777344,42.1796875 L19.7832031,64.9824219 C17.7324219,67.8144531 17,69.8652344 17,74.2597656 L17,101.212891 C17,111.320312 22.1269531,116.349609 32.3320312,116.349609 Z M74.5683594,88.078125 C67.3551136,88.078125 62.6992914,81.9213647 62.5598618,75.9978151 L62.5566406,75.578125 C62.5566406,73.3808594 61.2382812,71.3300781 58.5039062,71.3300781 L27.4003906,71.3300781 C25.7890625,71.3300781 25.4472656,69.9628906 26.2285156,68.8886719 L44.2949219,44.0839844 C46.5410156,40.9589844 49.421875,39.8359375 52.9863281,39.8359375 L96.1503906,39.8359375 C99.7148438,39.8359375 102.595703,40.9589844 104.841797,44.0839844 L122.908203,68.8886719 C123.640625,69.9628906 123.347656,71.3300781 121.736328,71.3300781 L90.6328125,71.3300781 C87.9812973,71.3300781 86.7071927,73.2584528 86.632409,75.3788301 L86.6289062,75.7246094 C86.6289062,81.7304688 81.9414062,88.078125 74.5683594,88.078125 Z M95.125,47.0136719 L54.0605469,47.0136719 C52.7421875,47.0136719 51.7167969,48.0390625 51.7167969,49.3574219 C51.7167969,50.6757812 52.7421875,51.7011719 54.0605469,51.7011719 L95.125,51.7011719 C96.4433594,51.7011719 97.4199219,50.6757812 97.4199219,49.3574219 C97.4199219,48.0390625 96.4433594,47.0136719 95.125,47.0136719 Z M101.570312,58.0488281 C102.9375,58.0488281 104.011719,59.2695312 104.011719,60.5878906 C104.011719,61.90625 102.9375,63.0292969 101.570312,63.0292969 L47.5664062,63.0292969 C46.1992188,63.0292969 45.1738281,61.90625 45.1738281,60.5878906 C45.1738281,59.2695312 46.1992188,58.0488281 47.5664062,58.0488281 L101.570312,58.0488281 Z" fill="#007AFF" fill-rule="nonzero"></path>
    </g>
</svg>