<?xml version="1.0" encoding="UTF-8"?>
<svg width="210px" height="190px" viewBox="0 0 210 190" version="1.1" xmlns="http://www.w3.org/2000/svg" xmlns:xlink="http://www.w3.org/1999/xlink">
    <!-- Generator: Sketch 59.1 (86144) - https://sketch.com -->
    <title>Reminders</title>
    <desc>Created with Sketch.</desc>
    <g id="Reminders" stroke="none" stroke-width="1" fill="none" fill-rule="evenodd">
        <path d="M62.3320312,116.349609 L146.804688,116.349609 C157.058594,116.349609 162.136719,111.271484 162.136719,101.212891 L162.136719,74.2597656 C162.136719,69.8652344 161.453125,67.8144531 159.353516,64.9824219 L142.507812,42.1796875 C137.270027,35.0197793 134.349468,33.0618071 125.974007,33.0014532 L83.5722656,33 C74.8808594,33 72,34.9042969 66.6777344,42.1796875 L49.7832031,64.9824219 C47.7324219,67.8144531 47,69.8652344 47,74.2597656 L47,101.212891 C47,111.320312 52.1269531,116.349609 62.3320312,116.349609 Z M104.568359,88.078125 C97.3551136,88.078125 92.6992914,81.9213647 92.5598618,75.9978151 L92.5566406,75.578125 C92.5566406,73.3808594 91.2382812,71.3300781 88.5039062,71.3300781 L57.4003906,71.3300781 C55.7890625,71.3300781 55.4472656,69.9628906 56.2285156,68.8886719 L74.2949219,44.0839844 C76.5410156,40.9589844 79.421875,39.8359375 82.9863281,39.8359375 L126.150391,39.8359375 C129.714844,39.8359375 132.595703,40.9589844 134.841797,44.0839844 L152.908203,68.8886719 C153.640625,69.9628906 153.347656,71.3300781 151.736328,71.3300781 L120.632812,71.3300781 C117.981297,71.3300781 116.707193,73.2584528 116.632409,75.3788301 L116.628906,75.7246094 C116.628906,81.7304688 111.941406,88.078125 104.568359,88.078125 Z M125.125,47.0136719 L84.0605469,47.0136719 C82.7421875,47.0136719 81.7167969,48.0390625 81.7167969,49.3574219 C81.7167969,50.6757812 82.7421875,51.7011719 84.0605469,51.7011719 L125.125,51.7011719 C126.443359,51.7011719 127.419922,50.6757812 127.419922,49.3574219 C127.419922,48.0390625 126.443359,47.0136719 125.125,47.0136719 Z M131.570312,58.0488281 C132.9375,58.0488281 134.011719,59.2695312 134.011719,60.5878906 C134.011719,61.90625 132.9375,63.0292969 131.570312,63.0292969 L77.5664062,63.0292969 C76.1992188,63.0292969 75.1738281,61.90625 75.1738281,60.5878906 C75.1738281,59.2695312 76.1992188,58.0488281 77.5664062,58.0488281 L131.570312,58.0488281 Z" fill="#007AFF" fill-rule="nonzero"></path>
        <path d="M31.1333008,161.985352 L35.7651367,161.985352 L40.4799805,171 L45.3608398,171 L40.1313477,161.337891 C42.9868164,160.308594 44.6469727,157.668945 44.6469727,154.498047 C44.6469727,149.916016 41.5424805,147.043945 36.362793,147.043945 L26.8500977,147.043945 L26.8500977,171 L31.1333008,171 L31.1333008,161.985352 Z M31.1333008,150.513672 L35.8813477,150.513672 C38.5874023,150.513672 40.2641602,152.074219 40.2641602,154.597656 C40.2641602,157.1875 38.6870117,158.698242 35.9643555,158.698242 L31.1333008,158.698242 L31.1333008,150.513672 Z M59.3393555,165.737305 C58.8911133,167.198242 57.4301758,168.161133 55.5043945,168.161133 C52.7983398,168.161133 51.0717773,166.268555 51.0717773,163.446289 L51.0717773,163.197266 L63.3735352,163.197266 L63.3735352,161.852539 C63.3735352,156.506836 60.2524414,153.037109 55.2553711,153.037109 C50.175293,153.037109 46.9545898,156.706055 46.9545898,162.267578 C46.9545898,167.878906 50.1420898,171.348633 55.4213867,171.348633 C59.5883789,171.348633 62.6762695,169.057617 63.2075195,165.737305 L59.3393555,165.737305 Z M55.2719727,156.241211 C57.6459961,156.241211 59.2397461,157.984375 59.3227539,160.474609 L51.1049805,160.474609 C51.2709961,158.017578 52.9477539,156.241211 55.2719727,156.241211 Z M66.0297852,171 L70.1635742,171 L70.1635742,160.225586 C70.1635742,158.100586 71.5581055,156.556641 73.550293,156.556641 C75.4760742,156.556641 76.6713867,157.768555 76.6713867,159.727539 L76.6713867,171 L80.6889648,171 L80.6889648,160.125977 C80.6889648,158.017578 82.050293,156.556641 84.0424805,156.556641 C86.0678711,156.556641 87.1967773,157.785156 87.1967773,159.943359 L87.1967773,171 L91.3305664,171 L91.3305664,158.930664 C91.3305664,155.411133 89.0561523,153.070312 85.5864258,153.070312 C83.0463867,153.070312 80.9545898,154.431641 80.1079102,156.606445 L80.0083008,156.606445 C79.3608398,154.348633 77.5844727,153.070312 75.0942383,153.070312 C72.7036133,153.070312 70.8442383,154.415039 70.0805664,156.457031 L69.9975586,156.457031 L69.9975586,153.402344 L66.0297852,153.402344 L66.0297852,171 Z M96.7924805,150.746094 C98.0541992,150.746094 99.050293,149.733398 99.050293,148.504883 C99.050293,147.259766 98.0541992,146.263672 96.7924805,146.263672 C95.5307617,146.263672 94.5180664,147.259766 94.5180664,148.504883 C94.5180664,149.733398 95.5307617,150.746094 96.7924805,150.746094 Z M94.7338867,171 L98.8676758,171 L98.8676758,153.402344 L94.7338867,153.402344 L94.7338867,171 Z M102.337402,171 L106.471191,171 L106.471191,160.806641 C106.471191,158.283203 107.981934,156.573242 110.355957,156.573242 C112.713379,156.573242 113.875488,157.967773 113.875488,160.458008 L113.875488,171 L118.009277,171 L118.009277,159.62793 C118.009277,155.560547 115.80127,153.070312 111.916504,153.070312 C109.210449,153.070312 107.334473,154.332031 106.388184,156.423828 L106.305176,156.423828 L106.305176,153.402344 L102.337402,153.402344 L102.337402,171 Z M127.887207,171.282227 C130.460449,171.282227 132.48584,169.970703 133.44873,167.995117 L133.515137,167.995117 L133.515137,171 L137.565918,171 L137.565918,147.043945 L133.432129,147.043945 L133.432129,156.357422 L133.33252,156.357422 C132.402832,154.415039 130.410645,153.103516 127.887207,153.103516 C123.45459,153.103516 120.58252,156.623047 120.58252,162.18457 C120.58252,167.779297 123.45459,171.282227 127.887207,171.282227 Z M129.132324,156.506836 C131.73877,156.506836 133.44873,158.748047 133.44873,162.201172 C133.44873,165.6875 131.73877,167.895508 129.132324,167.895508 C126.459473,167.895508 124.815918,165.704102 124.815918,162.201172 C124.815918,158.714844 126.476074,156.506836 129.132324,156.506836 Z M152.689941,165.737305 C152.241699,167.198242 150.780762,168.161133 148.85498,168.161133 C146.148926,168.161133 144.422363,166.268555 144.422363,163.446289 L144.422363,163.197266 L156.724121,163.197266 L156.724121,161.852539 C156.724121,156.506836 153.603027,153.037109 148.605957,153.037109 C143.525879,153.037109 140.305176,156.706055 140.305176,162.267578 C140.305176,167.878906 143.492676,171.348633 148.771973,171.348633 C152.938965,171.348633 156.026855,169.057617 156.558105,165.737305 L152.689941,165.737305 Z M148.622559,156.241211 C150.996582,156.241211 152.590332,157.984375 152.67334,160.474609 L144.455566,160.474609 C144.621582,158.017578 146.29834,156.241211 148.622559,156.241211 Z M159.380371,171 L163.51416,171 L163.51416,160.756836 C163.51416,158.283203 164.925293,156.772461 167.266113,156.772461 C167.963379,156.772461 168.594238,156.87207 168.942871,157.004883 L168.942871,153.269531 L168.648399,153.207578 C168.372997,153.154337 168.027414,153.103516 167.647949,153.103516 C165.572754,153.103516 164.028809,154.332031 163.431152,156.473633 L163.348145,156.473633 L163.348145,153.402344 L159.380371,153.402344 L159.380371,171 Z M170.752441,158.449219 C170.752441,155.228516 173.558105,153.037109 177.808105,153.037109 C182.091309,153.037109 184.813965,155.344727 184.913574,158.681641 L181.062012,158.681641 C180.895996,157.087891 179.717285,156.075195 177.808105,156.075195 C175.981934,156.075195 174.77002,156.938477 174.77002,158.233398 C174.77002,159.246094 175.500488,159.943359 177.343262,160.358398 L180.265137,161.005859 C183.91748,161.819336 185.328613,163.230469 185.328613,165.787109 C185.328613,169.107422 182.273926,171.348633 177.95752,171.348633 C173.358887,171.348633 170.63623,169.157227 170.304199,165.753906 L174.371582,165.753906 C174.687012,167.463867 175.865723,168.327148 177.95752,168.327148 C179.966309,168.327148 181.211426,167.49707 181.211426,166.185547 C181.211426,165.123047 180.580566,164.525391 178.737793,164.110352 L175.815918,163.462891 C172.445801,162.71582 170.752441,161.055664 170.752441,158.449219 Z" fill="#007AFF" fill-rule="nonzero"></path>
    </g>
</svg>