<?xml version="1.0" encoding="UTF-8"?>
<svg width="160px" height="190px" viewBox="0 0 160 190" version="1.1" xmlns="http://www.w3.org/2000/svg" xmlns:xlink="http://www.w3.org/1999/xlink">
    <!-- Generator: Sketch 59.1 (86144) - https://sketch.com -->
    <title>Reminders</title>
    <desc>Created with Sketch.</desc>
    <g id="Reminders" stroke="none" stroke-width="1" fill="none" fill-rule="evenodd">
        <path d="M37.3320312,116.349609 L121.804688,116.349609 C132.058594,116.349609 137.136719,111.271484 137.136719,101.212891 L137.136719,74.2597656 C137.136719,69.8652344 136.453125,67.8144531 134.353516,64.9824219 L117.507812,42.1796875 C112.270027,35.0197793 109.349468,33.0618071 100.974007,33.0014532 L58.5722656,33 C49.8808594,33 47,34.9042969 41.6777344,42.1796875 L24.7832031,64.9824219 C22.7324219,67.8144531 22,69.8652344 22,74.2597656 L22,101.212891 C22,111.320312 27.1269531,116.349609 37.3320312,116.349609 Z M79.5683594,88.078125 C72.3551136,88.078125 67.6992914,81.9213647 67.5598618,75.9978151 L67.5566406,75.578125 C67.5566406,73.3808594 66.2382812,71.3300781 63.5039062,71.3300781 L32.4003906,71.3300781 C30.7890625,71.3300781 30.4472656,69.9628906 31.2285156,68.8886719 L49.2949219,44.0839844 C51.5410156,40.9589844 54.421875,39.8359375 57.9863281,39.8359375 L101.150391,39.8359375 C104.714844,39.8359375 107.595703,40.9589844 109.841797,44.0839844 L127.908203,68.8886719 C128.640625,69.9628906 128.347656,71.3300781 126.736328,71.3300781 L95.6328125,71.3300781 C92.9812973,71.3300781 91.7071927,73.2584528 91.632409,75.3788301 L91.6289062,75.7246094 C91.6289062,81.7304688 86.9414062,88.078125 79.5683594,88.078125 Z M100.125,47.0136719 L59.0605469,47.0136719 C57.7421875,47.0136719 56.7167969,48.0390625 56.7167969,49.3574219 C56.7167969,50.6757812 57.7421875,51.7011719 59.0605469,51.7011719 L100.125,51.7011719 C101.443359,51.7011719 102.419922,50.6757812 102.419922,49.3574219 C102.419922,48.0390625 101.443359,47.0136719 100.125,47.0136719 Z M106.570312,58.0488281 C107.9375,58.0488281 109.011719,59.2695312 109.011719,60.5878906 C109.011719,61.90625 107.9375,63.0292969 106.570312,63.0292969 L52.5664062,63.0292969 C51.1992188,63.0292969 50.1738281,61.90625 50.1738281,60.5878906 C50.1738281,59.2695312 51.1992188,58.0488281 52.5664062,58.0488281 L106.570312,58.0488281 Z" fill="#007AFF" fill-rule="nonzero"></path>
        <path d="M43.9797816,162.841797 L37.5149378,162.841797 L37.5149378,150.908203 L34.9954066,150.908203 L34.9954066,165 L43.9797816,165 L43.9797816,162.841797 Z M50.3696912,165.214844 C53.5630506,165.214844 55.50641,163.125 55.50641,159.658203 C55.50641,156.210938 53.553285,154.121094 50.3696912,154.121094 C47.1958631,154.121094 45.2329725,156.220703 45.2329725,159.658203 C45.2329725,163.125 47.1665662,165.214844 50.3696912,165.214844 Z M50.3696912,163.232422 C48.6802381,163.232422 47.7134412,161.923828 47.7134412,159.667969 C47.7134412,157.412109 48.6802381,156.103516 50.3696912,156.103516 C52.0493787,156.103516 53.0161756,157.412109 53.0161756,159.667969 C53.0161756,161.923828 52.0591444,163.232422 50.3696912,163.232422 Z M66.9842103,157.890625 C66.730304,155.683594 65.0701478,154.121094 62.3260071,154.121094 C59.1131165,154.121094 57.2283509,156.181641 57.2283509,159.638672 C57.2283509,163.134766 59.1228821,165.214844 62.3357728,165.214844 C65.0408509,165.214844 66.7205384,163.710938 66.9842103,161.503906 L64.6795228,161.503906 C64.4256165,162.626953 63.5857728,163.222656 62.3260071,163.222656 C60.6756165,163.222656 59.6795228,161.904297 59.6795228,159.638672 C59.6795228,157.412109 60.6658509,156.103516 62.3260071,156.103516 C63.6541321,156.103516 64.4549134,156.855469 64.6795228,157.890625 L66.9842103,157.890625 Z M72.0459949,165.175781 C73.4424793,165.175781 74.6143543,164.570312 75.2100574,163.535156 L75.376073,163.535156 L75.376073,165 L77.7100574,165 L77.7100574,157.705078 C77.7100574,155.449219 76.1670887,154.121094 73.422948,154.121094 C70.8838855,154.121094 69.1163074,155.3125 68.9209949,157.177734 L71.2061512,157.177734 C71.4307605,156.445312 72.1924793,156.044922 73.3057605,156.044922 C74.6143543,156.044922 75.3174793,156.640625 75.3174793,157.705078 L75.3174793,158.623047 L72.563573,158.789062 C69.9659168,158.935547 68.5108387,160.058594 68.5108387,161.972656 C68.5108387,163.925781 69.985448,165.175781 72.0459949,165.175781 Z M72.7588855,163.310547 C71.6846668,163.310547 70.9131824,162.773438 70.9131824,161.855469 C70.9131824,160.966797 71.547948,160.46875 72.9053699,160.380859 L75.3174793,160.214844 L75.3174793,161.083984 C75.3174793,162.353516 74.2237293,163.310547 72.7588855,163.310547 Z M81.1995764,151.708984 L81.1995764,154.394531 L79.5101233,154.394531 L79.5101233,156.279297 L81.1995764,156.279297 L81.1995764,162.167969 C81.1995764,164.228516 82.1761389,165.048828 84.6273108,165.048828 C85.0960608,165.048828 85.5452796,165.009766 85.8968421,164.941406 L85.8968421,163.085938 L85.5799671,163.115781 C85.4304358,163.127734 85.2816077,163.134766 85.0765296,163.134766 C84.0609046,163.134766 83.6116858,162.65625 83.6116858,161.591797 L83.6116858,156.279297 L85.8968421,156.279297 L85.8968421,154.394531 L83.6116858,154.394531 L83.6116858,151.708984 L81.1995764,151.708984 Z M89.3570642,152.539062 C90.1578455,152.539062 90.8121423,151.904297 90.8121423,151.103516 C90.8121423,150.3125 90.1578455,149.667969 89.3570642,149.667969 C88.5660486,149.667969 87.9117517,150.3125 87.9117517,151.103516 C87.9117517,151.904297 88.5660486,152.539062 89.3570642,152.539062 Z M88.1558923,165 L90.5680017,165 L90.5680017,154.326172 L88.1558923,154.326172 L88.1558923,165 Z M97.983302,165.214844 C101.176661,165.214844 103.120021,163.125 103.120021,159.658203 C103.120021,156.210938 101.166896,154.121094 97.983302,154.121094 C94.8094739,154.121094 92.8465832,156.220703 92.8465832,159.658203 C92.8465832,163.125 94.780177,165.214844 97.983302,165.214844 Z M97.983302,163.232422 C96.2938489,163.232422 95.327052,161.923828 95.327052,159.667969 C95.327052,157.412109 96.2938489,156.103516 97.983302,156.103516 C99.6629895,156.103516 100.629786,157.412109 100.629786,159.667969 C100.629786,161.923828 99.6727551,163.232422 97.983302,163.232422 Z M105.369305,165 L107.79118,165 L107.79118,158.779297 C107.79118,157.177734 108.699384,156.171875 110.144696,156.171875 C111.619305,156.171875 112.302899,157.001953 112.302899,158.662109 L112.302899,165 L114.724774,165 L114.724774,158.095703 C114.724774,155.556641 113.425946,154.121094 111.043134,154.121094 C109.451337,154.121094 108.377118,154.84375 107.869305,156.035156 L107.70329,156.035156 L107.70329,154.326172 L105.369305,154.326172 L105.369305,165 Z M117.159606,157.373047 C117.159606,155.458984 118.917418,154.121094 121.436949,154.121094 C123.976012,154.121094 125.567809,155.234375 125.74359,157.158203 L123.468199,157.158203 C123.292418,156.40625 122.579528,155.917969 121.446715,155.917969 C120.343199,155.917969 119.513121,156.455078 119.513121,157.246094 C119.513121,157.851562 120.020934,158.232422 121.095153,158.486328 L122.979918,158.90625 C125.020934,159.375 125.968199,160.244141 125.968199,161.816406 C125.968199,163.857422 124.083434,165.214844 121.417418,165.214844 C118.751403,165.214844 117.071715,164.0625 116.886168,162.138672 L119.278746,162.138672 C119.513121,162.929688 120.265074,163.417969 121.476012,163.417969 C122.696715,163.417969 123.546324,162.861328 123.546324,162.050781 C123.546324,161.445312 123.08734,161.054688 122.071715,160.820312 L120.177184,160.380859 C118.126403,159.912109 117.159606,158.974609 117.159606,157.373047 Z" id="Locations" fill="#007AFF" fill-rule="nonzero"></path>
    </g>
</svg>