<?xml version="1.0" encoding="UTF-8"?>
<svg width="200px" height="200px" viewBox="0 0 200 200" version="1.1" xmlns="http://www.w3.org/2000/svg" xmlns:xlink="http://www.w3.org/1999/xlink">
    <title>siri</title>
    <defs>
        <path d="M71.7887856,-1.0155026e-14 L128.211214,-4.35432025e-15 C153.173739,2.52998546e-15 162.225754,2.59911711 171.35168,7.47971571 C180.477606,12.3603143 187.639686,19.5223944 192.520284,28.6483203 C197.400883,37.7742462 200,46.8262609 200,71.7887856 L200,128.211214 C200,153.173739 197.400883,162.225754 192.520284,171.35168 C187.639686,180.477606 180.477606,187.639686 171.35168,192.520284 C162.225754,197.400883 153.173739,200 128.211214,200 L71.7887856,200 C46.8262609,200 37.7742462,197.400883 28.6483203,192.520284 C19.5223944,187.639686 12.3603143,180.477606 7.47971571,171.35168 C2.59911711,162.225754 5.33863302e-15,153.173739 -9.18824169e-15,128.211214 L-5.32110454e-15,71.7887856 C3.09171497e-15,46.8262609 2.59911711,37.7742462 7.47971571,28.6483203 C12.3603143,19.5223944 19.5223944,12.3603143 28.6483203,7.47971571 C37.7742462,2.59911711 46.8262609,5.90036254e-15 71.7887856,-1.0155026e-14 Z" id="path-1"></path>
        <radialGradient cx="33.7279641%" cy="16.4203212%" fx="33.7279641%" fy="16.4203212%" r="37.6431576%" id="radialGradient-3">
            <stop stop-color="#7D7194" offset="0%"></stop>
            <stop stop-color="#7D7194" stop-opacity="0" offset="100%"></stop>
        </radialGradient>
        <radialGradient cx="97.3375225%" cy="33.8759591%" fx="97.3375225%" fy="33.8759591%" r="50.008295%" id="radialGradient-4">
            <stop stop-color="#4A8F9F" offset="0%"></stop>
            <stop stop-color="#4A8F9F" stop-opacity="0" offset="100%"></stop>
        </radialGradient>
        <radialGradient cx="66.5682359%" cy="97.3377712%" fx="66.5682359%" fy="97.3377712%" r="31.9048157%" id="radialGradient-5">
            <stop stop-color="#5C4763" offset="0%"></stop>
            <stop stop-color="#5C4763" stop-opacity="0" offset="100%"></stop>
        </radialGradient>
        <radialGradient cx="-4.43784713%" cy="68.047665%" fx="-4.43784713%" fy="68.047665%" r="57.3513882%" id="radialGradient-6">
            <stop stop-color="#3D3041" offset="0%"></stop>
            <stop stop-color="#3D3041" stop-opacity="0" offset="100%"></stop>
        </radialGradient>
        <linearGradient x1="31.9506777%" y1="21.8884436%" x2="65.5119264%" y2="12.6389823%" id="linearGradient-7">
            <stop stop-color="#E375A0" offset="0%"></stop>
            <stop stop-color="#E375A0" stop-opacity="0" offset="100%"></stop>
        </linearGradient>
        <radialGradient cx="24.1690547%" cy="14.9616459%" fx="24.1690547%" fy="14.9616459%" r="62.8047915%" gradientTransform="translate(0.241691,0.149616),scale(0.768667,1.000000),rotate(69.333938),translate(-0.241691,-0.149616)" id="radialGradient-8">
            <stop stop-color="#B850C1" offset="0%"></stop>
            <stop stop-color="#DCADE0" stop-opacity="0" offset="100%"></stop>
        </radialGradient>
        <linearGradient x1="53.1925815%" y1="20.4032118%" x2="52.7441079%" y2="31.9528989%" id="linearGradient-9">
            <stop stop-color="#B850C1" offset="0%"></stop>
            <stop stop-color="#DCADE0" stop-opacity="0" offset="100%"></stop>
        </linearGradient>
        <linearGradient x1="21.9061262%" y1="74.2409182%" x2="56.9090007%" y2="58.2570163%" id="linearGradient-10">
            <stop stop-color="#7EA1E4" offset="0%"></stop>
            <stop stop-color="#70CBFF" stop-opacity="0" offset="100%"></stop>
        </linearGradient>
        <linearGradient x1="88.9763862%" y1="45.0840221%" x2="50.0094633%" y2="64.9327532%" id="linearGradient-11">
            <stop stop-color="#5BAEEC" offset="0%"></stop>
            <stop stop-color="#5BAEEC" stop-opacity="0" offset="100%"></stop>
        </linearGradient>
        <linearGradient x1="15.538195%" y1="46.8529597%" x2="80.2745745%" y2="58.253995%" id="linearGradient-12">
            <stop stop-color="#85FAFE" stop-opacity="0" offset="0%"></stop>
            <stop stop-color="#85FAFE" offset="100%"></stop>
        </linearGradient>
        <radialGradient cx="26.5602664%" cy="15.6421584%" fx="26.5602664%" fy="15.6421584%" r="59.9405926%" gradientTransform="translate(0.265603,0.156422),scale(0.756441,1.000000),rotate(84.377111),translate(-0.265603,-0.156422)" id="radialGradient-13">
            <stop stop-color="#65ECE8" offset="0%"></stop>
            <stop stop-color="#8BECE9" stop-opacity="0" offset="100%"></stop>
        </radialGradient>
        <linearGradient x1="81.3188995%" y1="69.3255243%" x2="94.6633905%" y2="50.0069439%" id="linearGradient-14">
            <stop stop-color="#7BE7F6" stop-opacity="0" offset="0%"></stop>
            <stop stop-color="#7BE7F6" offset="75%"></stop>
        </linearGradient>
        <radialGradient cx="21.1641103%" cy="90.5736155%" fx="21.1641103%" fy="90.5736155%" r="110.267189%" gradientTransform="translate(0.211641,0.905736),scale(1.000000,0.515282),rotate(-68.207939),translate(-0.211641,-0.905736)" id="radialGradient-15">
            <stop stop-color="#E375A0" stop-opacity="0" offset="0%"></stop>
            <stop stop-color="#FF91C6" offset="100%"></stop>
        </radialGradient>
        <linearGradient x1="39.4179201%" y1="11.8935121%" x2="41.508014%" y2="39.4720548%" id="linearGradient-16">
            <stop stop-color="#FFFFFF" offset="0%"></stop>
            <stop stop-color="#FFFFFF" stop-opacity="0" offset="100%"></stop>
        </linearGradient>
        <filter x="-83.4%" y="-65.4%" width="266.8%" height="230.8%" filterUnits="objectBoundingBox" id="filter-17">
            <feGaussianBlur stdDeviation="10.08" in="SourceGraphic"></feGaussianBlur>
        </filter>
    </defs>
    <g id="siri" stroke="none" stroke-width="1" fill="none" fill-rule="evenodd">
        <mask id="mask-2" fill="white">
            <use xlink:href="#path-1"></use>
        </mask>
        <g id="Mask"></g>
        <g id="Group" mask="url(#mask-2)">
            <g id="Icon">
                <rect id="Rectangle" fill="#FFFFFF" x="0" y="0" width="200" height="200"></rect>
                <rect id="Background" fill="#7E87B7" x="0" y="0" width="200" height="200"></rect>
                <g transform="translate(28.000000, 28.000000)" fill-rule="nonzero" id="Path">
                    <path d="M144,72 C144,111.76446 111.764524,144 71.999778,144 C32.235471,144 0,111.76446 0,72 C0,32.2355404 32.235471,0 71.999778,0 C111.764524,0 144,32.2355404 144,72 Z" fill="#081939"></path>
                    <path d="M144,72 C144,111.76446 111.764524,144 71.999778,144 C32.235471,144 0,111.76446 0,72 C0,32.2355404 32.235471,0 71.999778,0 C111.764524,0 144,32.2355404 144,72 Z" fill-opacity="0.9" fill="url(#radialGradient-3)"></path>
                    <path d="M144,72 C144,111.76446 111.764524,144 71.999778,144 C32.235471,144 0,111.76446 0,72 C0,32.2355404 32.235471,0 71.999778,0 C111.764524,0 144,32.2355404 144,72 Z" fill-opacity="0.85" fill="url(#radialGradient-4)"></path>
                    <path d="M144,72 C144,111.76446 111.764524,144 71.999778,144 C32.235471,144 0,111.76446 0,72 C0,32.2355404 32.235471,0 71.999778,0 C111.764524,0 144,32.2355404 144,72 Z" fill-opacity="0.8" fill="url(#radialGradient-5)"></path>
                    <path d="M144,72 C144,111.76446 111.764524,144 71.999778,144 C32.235471,144 0,111.76446 0,72 C0,32.2355404 32.235471,0 71.999778,0 C111.764524,0 144,32.2355404 144,72 Z" fill-opacity="0.88" fill="url(#radialGradient-6)"></path>
                    <path d="M46.1937622,32.4459901 C40.6562967,14.978627 66.219008,14.5579836 75.1638349,35.0029615 C79.6867386,45.3407185 78.8192572,60.0378068 77.8471366,74.7689212 C63.94658,58.4345546 49.0973185,41.6044311 46.1937622,32.4459901 Z" fill="url(#linearGradient-7)"></path>
                    <path d="M81.8344044,121.914488 C127.439923,113.866396 146.669033,74.4184156 129.411971,49.3155547 C121.363529,37.6076427 108.758889,39.7812897 81.8344044,41.3936887 C54.9099194,43.0060877 28.1499301,47.5279028 28.1499301,82.7189593 C28.1499301,117.910016 60.8791132,125.612358 81.8344044,121.914488 Z" fill="url(#radialGradient-8)"></path>
                    <path d="M81.8344044,121.914488 C127.439923,113.866396 146.669033,74.4184156 129.411971,49.3155547 C121.363529,37.6076427 108.758889,39.7812897 81.8344044,41.3936887 C54.9099194,43.0060877 28.1499301,47.5279028 28.1499301,82.7189593 C28.1499301,117.910016 60.8791132,125.612358 81.8344044,121.914488 Z" fill="url(#linearGradient-9)"></path>
                    <path d="M41.3562089,80.5884852 C41.3562089,57.050094 48.6301006,35.0939174 52.2906451,24.6990843 C53.7965723,20.4219645 59.4328231,19.2042319 63.1906894,21.7422511 C69.5890505,25.6004838 82.4794359,34.9734722 95.4916565,43.9591849 C109.012804,53.2966106 128.511195,63.6196961 119.56271,94.2314955 C112.782379,117.425235 79.6995441,116.375548 79.6995441,116.375548 C79.6995441,116.375548 41.3576724,115.737466 41.3562089,80.5884852 Z" fill="url(#linearGradient-10)"></path>
                    <path d="M115.347504,115.301712 C134.092565,98.9000254 140.600688,64.6145028 128.032635,43.3134204 C115.464217,22.012338 97.5584647,17.0520616 82.6598106,17.7504385 C67.7615223,18.4488155 37.500289,27.7644352 36.2219705,61.2060369 C34.9438349,94.6478581 52.3363791,108.832359 70.5278769,124.814391 C77.5570005,130.989949 96.6020765,131.7034 115.347504,115.301712 Z" fill="url(#linearGradient-11)"></path>
                    <path d="M50.2212758,105.146562 C51.2932794,105.780253 52.2503993,106.396748 52.966044,107.037756 C62.2968653,115.393546 76.6009782,114.506672 91.7484249,110.545373 C107.725668,106.367112 133.64108,98.8374613 137.848602,78.8970578 C140.232255,67.6007521 131.582321,52.4265664 119.980535,40.1145993 C109.411604,28.899188 96.5179261,20.0589827 84.8378437,18.6884984 C81.9112374,18.3451273 78.3399655,18.3126744 74.5078272,18.8113949 C52.3202807,23.3889324 40.3431107,35.7941237 38.5137531,61.039565 C36.6843955,86.2847502 38.7493744,91.1581686 50.2212758,105.146562 Z" fill-opacity="0.78" fill="url(#linearGradient-12)"></path>
                    <path d="M22.9642868,78.5311855 C19.4885073,54.3836171 29.729178,28.3509284 53.1493456,28.3509284 C71.6390287,28.3509284 82.0875875,42.4861832 96.2921833,51.7712892 C113.736206,63.1736979 127.108444,71.0373901 127.108444,82.5876112 C127.108444,103.542578 95.865943,114.67168 66.0664396,102.742782 C44.323427,94.0386808 26.4401028,102.67912 22.9642868,78.5311855 Z" fill-opacity="0.8" fill="url(#radialGradient-13)"></path>
                    <path d="M22.9642868,78.5311855 C19.4885073,54.3836171 29.729178,28.3509284 53.1493456,28.3509284 C71.6390287,28.3509284 82.0875875,42.4861832 96.2921833,51.7712892 C113.736206,63.1736979 127.108444,71.0373901 127.108444,82.5876112 C127.108444,103.542578 95.865943,114.67168 66.0664396,102.742782 C44.323427,94.0386808 26.4401028,102.67912 22.9642868,78.5311855 Z" fill="url(#linearGradient-14)"></path>
                    <path d="M79.6384436,114.03177 C87.3071106,135.121378 106.692813,128.514091 103.708765,111.90093 C102.289183,103.998455 90.4587278,89.587479 77.8475025,74.7678236 C76.8973341,89.1707505 75.8472829,103.60624 79.6384436,114.03177 Z" fill="url(#radialGradient-15)"></path>
                    <path d="M79.6384436,114.03177 C87.3071106,135.121378 106.692813,128.514091 103.708765,111.90093 C102.289183,103.998455 90.4587278,89.587479 77.8475025,74.7678236 C76.8973341,89.1707505 75.8472829,103.60624 79.6384436,114.03177 Z" fill="url(#linearGradient-16)"></path>
                    <path d="M90.1283459,70.63676 C90.1283459,80.6495859 82.0114862,88.7664617 71.9986804,88.7664617 C61.9862404,88.7664617 53.8693808,80.6495859 53.8693808,70.63676 C53.8693808,66.7870522 55.0694393,63.2172366 57.1157587,60.2814777 C59.1854939,57.3120585 60.5904405,56.9264292 58.2247153,54.1867778 C55.1513946,50.6275725 52.4497993,46.2136897 67.5109003,43.8347884 C81.5600008,41.6146755 88.6264433,40.782682 84.8378437,53.7469993 C83.9729234,56.7069058 84.9289457,57.5615834 86.7290336,60.0656131 C88.8682843,63.041618 90.1283459,66.6919254 90.1283459,70.63676 Z" fill="#FFFFFF" filter="url(#filter-17)"></path>
                </g>
            </g>
        </g>
    </g>
</svg>