<?xml version="1.0" encoding="UTF-8"?>
<svg width="220px" height="210px" viewBox="0 0 220 210" version="1.1" xmlns="http://www.w3.org/2000/svg" xmlns:xlink="http://www.w3.org/1999/xlink">
    <!-- Generator: Sketch 59.1 (86144) - https://sketch.com -->
    <title>Speech</title>
    <desc>Created with Sketch.</desc>
    <g id="Speech" stroke="none" stroke-width="1" fill="none" fill-rule="evenodd">
        <path d="M125.369155,31.6083408 L152.273452,58.5126377 C160.867202,49.9677158 161.208999,39.1278721 152.957046,30.9247471 C144.753921,22.8192783 133.962905,23.0145908 125.369155,31.6083408 Z M120.486343,36.5399815 C115.310562,41.6181065 113.162124,47.4286533 113.894546,53.0438877 L68.5332178,101.920841 C66.677749,103.922794 66.3847803,106.705997 68.6797022,109.000919 L62.4297022,117.05756 C61.8437647,117.83881 61.7949365,118.961856 62.6738428,119.840763 L64.0898584,121.305606 C64.9199365,122.135685 66.0429834,122.184513 66.9218897,121.500919 L74.9785303,115.202091 C77.1164104,117.434988 79.8552081,117.21799 81.8006945,115.495574 L107.302749,91.9110752 L107.302749,119.791935 C107.302749,122.282169 109.255874,124.235294 111.746108,124.235294 C114.236343,124.235294 116.189468,122.282169 116.189468,119.791935 L116.189468,90.9345127 L115.847671,83.9520908 L130.740249,70.1337315 C136.355483,70.8661533 142.263687,68.5712315 147.341812,63.4442783 L120.486343,36.5399815 Z M73.5625147,105.924747 L116.580093,60.3192783 C117.410171,61.6864658 118.435562,63.0048252 119.656265,64.2743565 C120.876968,65.4950596 122.146499,66.5692783 123.464858,67.4481846 L78.0547022,110.416935 L73.5625147,105.924747 Z" fill="#007AFF" fill-rule="nonzero"></path>
        <path d="M57,171.625 C57.1875,175.75 60.640625,178.296875 65.859375,178.296875 C71.28125,178.296875 74.671875,175.578125 74.671875,171.265625 C74.671875,167.921875 72.6875,166.015625 67.9375,165.03125 L65.5,164.53125 C62.6875,163.9375 61.5625,162.953125 61.5625,161.421875 C61.5625,159.53125 63.34375,158.34375 65.84375,158.34375 C68.421875,158.34375 70.203125,159.625 70.390625,161.75 L74.25,161.75 C74.15625,157.71875 70.859375,155 65.875,155 C60.984375,155 57.5,157.6875 57.5,161.65625 C57.5,164.953125 59.609375,167.078125 64.125,168 L66.546875,168.5 C69.484375,169.109375 70.609375,170.109375 70.609375,171.734375 C70.609375,173.609375 68.71875,174.953125 66,174.953125 C63.1875,174.953125 61.15625,173.703125 60.859375,171.625 L57,171.625 Z M86.390625,161.078125 C83.984375,161.078125 82.109375,162.296875 81.171875,164.21875 L81.09375,164.21875 L81.09375,161.359375 L77.296875,161.359375 L77.296875,183.375 L81.1875,183.375 L81.1875,175.171875 L81.265625,175.171875 C82.171875,177.03125 84.046875,178.1875 86.453125,178.1875 C90.609375,178.1875 93.265625,174.921875 93.265625,169.640625 C93.265625,164.34375 90.59375,161.078125 86.390625,161.078125 Z M85.203125,175 C82.78125,175 81.171875,172.890625 81.15625,169.640625 C81.171875,166.421875 82.78125,164.28125 85.203125,164.28125 C87.71875,164.28125 89.28125,166.375 89.28125,169.640625 C89.28125,172.921875 87.71875,175 85.203125,175 Z M106.734375,172.96875 C106.3125,174.34375 104.9375,175.25 103.125,175.25 C100.578125,175.25 98.953125,173.46875 98.953125,170.8125 L98.953125,170.578125 L110.53125,170.578125 L110.53125,169.3125 C110.53125,164.28125 107.59375,161.015625 102.890625,161.015625 C98.109375,161.015625 95.078125,164.46875 95.078125,169.703125 C95.078125,174.984375 98.078125,178.25 103.046875,178.25 C106.96875,178.25 109.875,176.09375 110.375,172.96875 L106.734375,172.96875 Z M102.90625,164.03125 C105.140625,164.03125 106.640625,165.671875 106.71875,168.015625 L98.984375,168.015625 C99.140625,165.703125 100.71875,164.03125 102.90625,164.03125 Z M124,172.96875 C123.578125,174.34375 122.203125,175.25 120.390625,175.25 C117.84375,175.25 116.21875,173.46875 116.21875,170.8125 L116.21875,170.578125 L127.796875,170.578125 L127.796875,169.3125 C127.796875,164.28125 124.859375,161.015625 120.15625,161.015625 C115.375,161.015625 112.34375,164.46875 112.34375,169.703125 C112.34375,174.984375 115.34375,178.25 120.3125,178.25 C124.234375,178.25 127.140625,176.09375 127.640625,172.96875 L124,172.96875 Z M120.171875,164.03125 C122.40625,164.03125 123.90625,165.671875 123.984375,168.015625 L116.25,168.015625 C116.40625,165.703125 117.984375,164.03125 120.171875,164.03125 Z M144.890625,167.265625 C144.625,163.78125 141.921875,161.015625 137.546875,161.015625 C132.734375,161.015625 129.609375,164.34375 129.609375,169.640625 C129.609375,175.015625 132.734375,178.25 137.578125,178.25 C141.734375,178.25 144.59375,175.8125 144.90625,172.109375 L141.234375,172.109375 C140.875,173.984375 139.59375,175.109375 137.625,175.109375 C135.15625,175.109375 133.5625,173.109375 133.5625,169.640625 C133.5625,166.234375 135.140625,164.171875 137.59375,164.171875 C139.671875,164.171875 140.90625,165.5 141.21875,167.265625 L144.890625,167.265625 Z M147.328125,177.921875 L151.21875,177.921875 L151.21875,168.40625 C151.21875,165.96875 152.640625,164.34375 154.984375,164.34375 C157.234375,164.34375 158.390625,165.734375 158.390625,168.046875 L158.390625,177.921875 L162.28125,177.921875 L162.28125,167.25 C162.28125,163.453125 160.140625,161.046875 156.484375,161.046875 C153.96875,161.046875 152.140625,162.1875 151.25,164.203125 L151.171875,164.203125 L151.171875,155.375 L147.328125,155.375 L147.328125,177.921875 Z" id="Speechs" fill="#007AFF" fill-rule="nonzero"></path>
    </g>
</svg>