<?xml version="1.0" encoding="UTF-8"?>
<svg width="160px" height="190px" viewBox="0 0 160 190" version="1.1" xmlns="http://www.w3.org/2000/svg" xmlns:xlink="http://www.w3.org/1999/xlink">
    <!-- Generator: Sketch 59.1 (86144) - https://sketch.com -->
    <title>Speech</title>
    <desc>Created with Sketch.</desc>
    <g id="Speech" stroke="none" stroke-width="1" fill="none" fill-rule="evenodd">
        <path d="M95.3691553,31.6083408 L122.273452,58.5126377 C130.867202,49.9677158 131.208999,39.1278721 122.957046,30.9247471 C114.753921,22.8192783 103.962905,23.0145908 95.3691553,31.6083408 Z M90.4863428,36.5399815 C85.3105615,41.6181065 83.162124,47.4286533 83.8945459,53.0438877 L38.5332178,101.920841 C36.677749,103.922794 36.3847803,106.705997 38.6797022,109.000919 L32.4297022,117.05756 C31.8437647,117.83881 31.7949365,118.961856 32.6738428,119.840763 L34.0898584,121.305606 C34.9199365,122.135685 36.0429834,122.184513 36.9218897,121.500919 L44.9785303,115.202091 C47.1164104,117.434988 49.8552081,117.21799 51.8006945,115.495574 L77.302749,91.9110752 L77.302749,119.791935 C77.302749,122.282169 79.255874,124.235294 81.7461084,124.235294 C84.2363428,124.235294 86.1894678,122.282169 86.1894678,119.791935 L86.1894678,90.9345127 L85.8476709,83.9520908 L100.740249,70.1337315 C106.355483,70.8661533 112.263687,68.5712315 117.341812,63.4442783 L90.4863428,36.5399815 Z M43.5625147,105.924747 L86.5800928,60.3192783 C87.4101709,61.6864658 88.4355615,63.0048252 89.6562647,64.2743565 C90.8769678,65.4950596 92.146499,66.5692783 93.4648584,67.4481846 L48.0547022,110.416935 L43.5625147,105.924747 Z" fill="#007AFF" fill-rule="nonzero"></path>
        <path d="M52,164.804688 C52.125,166.804688 53.8046875,168.085938 56.3046875,168.085938 C58.9765625,168.085938 60.6484375,166.742188 60.6484375,164.609375 C60.6484375,162.982143 59.7621771,162.05956 57.6253972,161.498383 L56.140625,161.132812 C54.671875,160.773438 54.078125,160.304688 54.078125,159.484375 C54.078125,158.429688 55,157.75 56.3828125,157.75 C57.6953125,157.75 58.6015625,158.40625 58.765625,159.476562 L60.46875,159.476562 C60.3671875,157.59375 58.6953125,156.265625 56.40625,156.265625 C53.9453125,156.265625 52.3046875,157.59375 52.3046875,159.578125 C52.3046875,161.21875 53.234375,162.1875 55.2734375,162.679688 L56.7265625,163.03125 C58.21875,163.390625 58.875,163.9375 58.875,164.820312 C58.875,165.851562 57.84375,166.59375 56.4375,166.59375 C54.9296875,166.59375 53.8828125,165.898438 53.734375,164.804688 L52,164.804688 Z M67.0103652,159.179688 C65.8541152,159.179688 64.8541152,159.765625 64.3384902,160.734375 L64.2134902,160.734375 L64.2134902,159.328125 L62.5963027,159.328125 L62.5963027,170.640625 L64.2759902,170.640625 L64.2759902,166.53125 L64.4088027,166.53125 C64.8541152,167.429688 65.8150527,167.953125 67.0259902,167.953125 C69.1744277,167.953125 70.5416152,166.25 70.5416152,163.570312 C70.5416152,160.875 69.1744277,159.179688 67.0103652,159.179688 Z M66.5338027,166.515625 C65.1275527,166.515625 64.2447402,165.382812 64.2447402,163.570312 C64.2447402,161.75 65.1275527,160.617188 66.5416152,160.617188 C67.9634902,160.617188 68.8150527,161.726562 68.8150527,163.570312 C68.8150527,165.414062 67.9634902,166.515625 66.5338027,166.515625 Z M77.9816679,165.539062 C77.6691679,166.226562 76.9738554,166.601562 75.9582304,166.601562 C74.6144804,166.601562 73.7472929,165.632812 73.6926054,164.09375 L73.6926054,164.015625 L79.7004179,164.015625 L79.7004179,163.4375 C79.7004179,160.78125 78.2707304,159.164062 75.9035429,159.164062 C73.5051054,159.164062 71.9816679,160.890625 71.9816679,163.585938 C71.9816679,166.296875 73.4738554,167.976562 75.9113554,167.976562 C77.8566679,167.976562 79.2316679,167.039062 79.5988554,165.539062 L77.9816679,165.539062 Z M75.8957304,160.53125 C77.1379179,160.53125 77.9504179,161.429688 77.9894804,162.804688 L73.6926054,162.804688 C73.7863554,161.4375 74.6535429,160.53125 75.8957304,160.53125 Z M87.1404707,165.539062 C86.8279707,166.226562 86.1326582,166.601562 85.1170332,166.601562 C83.7732832,166.601562 82.9060957,165.632812 82.8514082,164.09375 L82.8514082,164.015625 L88.8592207,164.015625 L88.8592207,163.4375 C88.8592207,160.78125 87.4295332,159.164062 85.0623457,159.164062 C82.6639082,159.164062 81.1404707,160.890625 81.1404707,163.585938 C81.1404707,166.296875 82.6326582,167.976562 85.0701582,167.976562 C87.0154707,167.976562 88.3904707,167.039062 88.7576582,165.539062 L87.1404707,165.539062 Z M85.0545332,160.53125 C86.2967207,160.53125 87.1092207,161.429688 87.1482832,162.804688 L82.8514082,162.804688 C82.9451582,161.4375 83.8123457,160.53125 85.0545332,160.53125 Z M97.9242734,162.054688 C97.7055234,160.40625 96.4164609,159.164062 94.2836484,159.164062 C91.8070859,159.164062 90.2992734,160.84375 90.2992734,163.539062 C90.2992734,166.289062 91.8148984,167.976562 94.2914609,167.976562 C96.3930234,167.976562 97.7055234,166.796875 97.9242734,165.125 L96.2914609,165.125 C96.0727109,166.046875 95.3461484,166.546875 94.2836484,166.546875 C92.8852109,166.546875 92.0180234,165.414062 92.0180234,163.539062 C92.0180234,161.703125 92.8773984,160.59375 94.2836484,160.59375 C95.4086484,160.59375 96.0961484,161.226562 96.2914609,162.054688 L97.9242734,162.054688 Z M99.7627636,167.8125 L99.7627636,156 L101.426826,156 L101.426826,160.679688 L101.559639,160.679688 C101.973701,159.734375 102.872139,159.171875 104.153389,159.171875 C105.965889,159.171875 107.083076,160.320312 107.083076,162.328125 L107.083076,167.8125 L105.403389,167.8125 L105.403389,162.726562 C105.403389,161.328125 104.770576,160.632812 103.583076,160.632812 C102.208076,160.632812 101.442451,161.515625 101.442451,162.84375 L101.442451,167.8125 L99.7627636,167.8125 Z" fill="#007AFF" fill-rule="nonzero"></path>
    </g>
</svg>