<?xml version="1.0" encoding="UTF-8"?>
<svg width="190px" height="190px" viewBox="0 0 190 190" version="1.1" xmlns="http://www.w3.org/2000/svg" xmlns:xlink="http://www.w3.org/1999/xlink">
    <!-- Generator: Sketch 59.1 (86144) - https://sketch.com -->
    <title>Speech</title>
    <desc>Created with Sketch.</desc>
    <g id="Speech" stroke="none" stroke-width="1" fill="none" fill-rule="evenodd">
        <path d="M110.369155,31.6083408 L137.273452,58.5126377 C145.867202,49.9677158 146.208999,39.1278721 137.957046,30.9247471 C129.753921,22.8192783 118.962905,23.0145908 110.369155,31.6083408 Z M105.486343,36.5399815 C100.310562,41.6181065 98.162124,47.4286533 98.8945459,53.0438877 L53.5332178,101.920841 C51.677749,103.922794 51.3847803,106.705997 53.6797022,109.000919 L47.4297022,117.05756 C46.8437647,117.83881 46.7949365,118.961856 47.6738428,119.840763 L49.0898584,121.305606 C49.9199365,122.135685 51.0429834,122.184513 51.9218897,121.500919 L59.9785303,115.202091 C62.1164104,117.434988 64.8552081,117.21799 66.8006945,115.495574 L92.302749,91.9110752 L92.302749,119.791935 C92.302749,122.282169 94.255874,124.235294 96.7461084,124.235294 C99.2363428,124.235294 101.189468,122.282169 101.189468,119.791935 L101.189468,90.9345127 L100.847671,83.9520908 L115.740249,70.1337315 C121.355483,70.8661533 127.263687,68.5712315 132.341812,63.4442783 L105.486343,36.5399815 Z M58.5625147,105.924747 L101.580093,60.3192783 C102.410171,61.6864658 103.435562,63.0048252 104.656265,64.2743565 C105.876968,65.4950596 107.146499,66.5692783 108.464858,67.4481846 L63.0547022,110.416935 L58.5625147,105.924747 Z" fill="#007AFF" fill-rule="nonzero"></path>
        <path d="M53,160.183594 C53.1523438,163.242188 55.71875,165.1875 59.5976562,165.1875 C63.6992188,165.1875 66.2421875,163.148438 66.2421875,159.867188 C66.2421875,157.300781 64.8007812,155.871094 61.3671875,155.085938 L59.421875,154.640625 C57.3242188,154.148438 56.46875,153.480469 56.46875,152.320312 C56.46875,150.855469 57.7578125,149.894531 59.703125,149.894531 C61.5546875,149.894531 62.8671875,150.84375 63.078125,152.355469 L65.9726562,152.355469 C65.8320312,149.460938 63.265625,147.433594 59.7148438,147.433594 C55.9296875,147.433594 53.421875,149.472656 53.421875,152.519531 C53.421875,155.027344 54.8632812,156.539062 57.9335938,157.242188 L60.125,157.746094 C62.2929688,158.25 63.21875,159 63.21875,160.230469 C63.21875,161.671875 61.7773438,162.714844 59.7851562,162.714844 C57.640625,162.714844 56.140625,161.730469 55.953125,160.183594 L53,160.183594 Z M76.0897666,151.746094 C74.3319541,151.746094 72.8436728,152.625 72.1053916,154.078125 L71.9061728,154.078125 L71.9061728,151.957031 L69.1053916,151.957031 L69.1053916,169.019531 L72.0116416,169.019531 L72.0116416,162.820312 L72.2108603,162.820312 C72.8671103,164.179688 74.2850791,164.976562 76.1249228,164.976562 C79.3592978,164.976562 81.3749228,162.433594 81.3749228,158.367188 C81.3749228,154.265625 79.3358603,151.746094 76.0897666,151.746094 Z M75.1757041,162.5625 C73.1952353,162.5625 71.9647666,160.957031 71.9530478,158.367188 C71.9647666,155.777344 73.2069541,154.171875 75.1874228,154.171875 C77.1796103,154.171875 78.3866416,155.742188 78.3866416,158.367188 C78.3866416,160.992188 77.1913291,162.5625 75.1757041,162.5625 Z M92.4178144,161.261719 C91.9959394,162.222656 90.9998457,162.761719 89.5584394,162.761719 C87.6482832,162.761719 86.4178144,161.402344 86.3475019,159.234375 L86.3475019,159.082031 L95.3006269,159.082031 L95.3006269,158.15625 C95.3006269,154.136719 93.1092207,151.710938 89.4529707,151.710938 C85.7381269,151.710938 83.4295332,154.300781 83.4295332,158.414062 C83.4295332,162.515625 85.7029707,165.023438 89.4764082,165.023438 C92.4998457,165.023438 94.6443769,163.570312 95.1717207,161.261719 L92.4178144,161.261719 Z M89.4412519,153.972656 C91.1873457,153.972656 92.3357832,155.203125 92.3943769,157.148438 L86.3592207,157.148438 C86.4881269,155.226562 87.7068769,153.972656 89.4412519,153.972656 Z M106.343518,161.261719 C105.921643,162.222656 104.92555,162.761719 103.484143,162.761719 C101.573987,162.761719 100.343518,161.402344 100.273206,159.234375 L100.273206,159.082031 L109.226331,159.082031 L109.226331,158.15625 C109.226331,154.136719 107.034925,151.710938 103.378675,151.710938 C99.663831,151.710938 97.3552372,154.300781 97.3552372,158.414062 C97.3552372,162.515625 99.6286747,165.023438 103.402112,165.023438 C106.42555,165.023438 108.570081,163.570312 109.097425,161.261719 L106.343518,161.261719 Z M103.366956,153.972656 C105.11305,153.972656 106.261487,155.203125 106.320081,157.148438 L100.284925,157.148438 C100.413831,155.226562 101.632581,153.972656 103.366956,153.972656 Z M122.987973,156.234375 C122.683285,153.585938 120.691098,151.710938 117.398129,151.710938 C113.54266,151.710938 111.280941,154.183594 111.280941,158.332031 C111.280941,162.527344 113.554379,165.023438 117.409848,165.023438 C120.655941,165.023438 122.671566,163.21875 122.987973,160.570312 L120.222348,160.570312 C119.91766,161.917969 118.909848,162.632812 117.398129,162.632812 C115.41766,162.632812 114.222348,161.050781 114.222348,158.332031 C114.222348,155.660156 115.405941,154.089844 117.398129,154.089844 C118.991879,154.089844 119.952816,154.992188 120.222348,156.234375 L122.987973,156.234375 Z M125.651958,164.765625 L125.651958,147 L128.511333,147 L128.511333,154.03125 L128.72227,154.03125 C129.331645,152.589844 130.702739,151.722656 132.612895,151.722656 C135.355083,151.722656 137.019145,153.457031 137.019145,156.503906 L137.019145,164.765625 L134.112895,164.765625 L134.112895,157.183594 C134.112895,155.203125 133.22227,154.195312 131.53477,154.195312 C129.624614,154.195312 128.558208,155.449219 128.558208,157.324219 L128.558208,164.765625 L125.651958,164.765625 Z" fill="#007AFF" fill-rule="nonzero"></path>
    </g>
</svg>