<?xml version="1.0" encoding="UTF-8"?>
<svg width="150px" height="190px" viewBox="0 0 150 190" version="1.1" xmlns="http://www.w3.org/2000/svg" xmlns:xlink="http://www.w3.org/1999/xlink">
    <!-- Generator: Sketch 59.1 (86144) - https://sketch.com -->
    <title>Speech</title>
    <desc>Created with Sketch.</desc>
    <g id="Speech" stroke="none" stroke-width="1" fill="none" fill-rule="evenodd">
        <path d="M90.3691553,31.6083408 L117.273452,58.5126377 C125.867202,49.9677158 126.208999,39.1278721 117.957046,30.9247471 C109.753921,22.8192783 98.9629053,23.0145908 90.3691553,31.6083408 Z M85.4863428,36.5399815 C80.3105615,41.6181065 78.162124,47.4286533 78.8945459,53.0438877 L33.5332178,101.920841 C31.677749,103.922794 31.3847803,106.705997 33.6797022,109.000919 L27.4297022,117.05756 C26.8437647,117.83881 26.7949365,118.961856 27.6738428,119.840763 L29.0898584,121.305606 C29.9199365,122.135685 31.0429834,122.184513 31.9218897,121.500919 L39.9785303,115.202091 C42.1164104,117.434988 44.8552081,117.21799 46.8006945,115.495574 L72.302749,91.9110752 L72.302749,119.791935 C72.302749,122.282169 74.255874,124.235294 76.7461084,124.235294 C79.2363428,124.235294 81.1894678,122.282169 81.1894678,119.791935 L81.1894678,90.9345127 L80.8476709,83.9520908 L95.740249,70.1337315 C101.355483,70.8661533 107.263687,68.5712315 112.341812,63.4442783 L85.4863428,36.5399815 Z M38.5625147,105.924747 L81.5800928,60.3192783 C82.4101709,61.6864658 83.4355615,63.0048252 84.6562647,64.2743565 C85.8769678,65.4950596 87.146499,66.5692783 88.4648584,67.4481846 L43.0547022,110.416935 L38.5625147,105.924747 Z" fill="#007AFF" fill-rule="nonzero"></path>
        <path d="M36.4357591,163.799805 C36.5754075,166.603516 38.9279466,168.386719 42.4836107,168.386719 C46.2433763,168.386719 48.574431,166.517578 48.574431,163.509766 C48.574431,161.157227 47.2531419,159.84668 44.105681,159.126953 L42.3224778,158.71875 C40.3996263,158.267578 39.6154466,157.655273 39.6154466,156.591797 C39.6154466,155.249023 40.7970872,154.368164 42.5802903,154.368164 C44.277556,154.368164 45.480681,155.238281 45.6740403,156.624023 L48.3273607,156.624023 C48.1984544,153.970703 45.8459153,152.112305 42.5910325,152.112305 C39.121306,152.112305 36.8224778,153.981445 36.8224778,156.774414 C36.8224778,159.073242 38.1437669,160.458984 40.95822,161.103516 L42.9670091,161.56543 C44.9543138,162.027344 45.8029466,162.714844 45.8029466,163.842773 C45.8029466,165.164062 44.4816575,166.120117 42.6554857,166.120117 C40.6896653,166.120117 39.3146653,165.217773 39.1427903,163.799805 L36.4357591,163.799805 Z M57.6013785,156.06543 C55.9900503,156.06543 54.6257925,156.871094 53.9490347,158.203125 L53.7664175,158.203125 L53.7664175,156.258789 L51.1990347,156.258789 L51.1990347,171.899414 L53.8630972,171.899414 L53.8630972,166.216797 L54.0457144,166.216797 C54.6472769,167.462891 55.9470816,168.193359 57.633605,168.193359 C60.5984488,168.193359 62.446105,165.862305 62.446105,162.134766 C62.446105,158.375 60.5769644,156.06543 57.6013785,156.06543 Z M56.7634878,165.980469 C54.9480581,165.980469 53.8201285,164.508789 53.8093863,162.134766 C53.8201285,159.760742 54.9588003,158.289062 56.77423,158.289062 C58.6004019,158.289062 59.7068472,159.728516 59.7068472,162.134766 C59.7068472,164.541016 58.6111441,165.980469 56.7634878,165.980469 Z M72.5687556,164.788086 C72.1820369,165.668945 71.2689509,166.163086 69.9476619,166.163086 C68.1966853,166.163086 67.0687556,164.916992 67.0043025,162.929688 L67.0043025,162.790039 L75.2113338,162.790039 L75.2113338,161.941406 C75.2113338,158.256836 73.2025447,156.033203 69.8509822,156.033203 C66.4457088,156.033203 64.3294978,158.407227 64.3294978,162.177734 C64.3294978,165.9375 66.4134822,168.236328 69.8724666,168.236328 C72.6439509,168.236328 74.6097713,166.904297 75.0931697,164.788086 L72.5687556,164.788086 Z M69.84024,158.106445 C71.4408259,158.106445 72.4935603,159.234375 72.5472713,161.017578 L67.0150447,161.017578 C67.1332088,159.255859 68.2503963,158.106445 69.84024,158.106445 Z M85.3339844,164.788086 C84.9472656,165.668945 84.0341797,166.163086 82.7128906,166.163086 C80.9619141,166.163086 79.8339844,164.916992 79.7695312,162.929688 L79.7695312,162.790039 L87.9765625,162.790039 L87.9765625,161.941406 C87.9765625,158.256836 85.9677734,156.033203 82.6162109,156.033203 C79.2109375,156.033203 77.0947266,158.407227 77.0947266,162.177734 C77.0947266,165.9375 79.1787109,168.236328 82.6376953,168.236328 C85.4091797,168.236328 87.375,166.904297 87.8583984,164.788086 L85.3339844,164.788086 Z M82.6054688,158.106445 C84.2060547,158.106445 85.2587891,159.234375 85.3125,161.017578 L79.7802734,161.017578 C79.8984375,159.255859 81.015625,158.106445 82.6054688,158.106445 Z M100.591401,160.179688 C100.312104,157.751953 98.4859319,156.033203 95.4673772,156.033203 C91.9331975,156.033203 89.8599553,158.299805 89.8599553,162.102539 C89.8599553,165.948242 91.9439397,168.236328 95.4781194,168.236328 C98.4537053,168.236328 100.301362,166.582031 100.591401,164.154297 L98.0562444,164.154297 C97.7769475,165.389648 96.8531194,166.044922 95.4673772,166.044922 C93.6519475,166.044922 92.5562444,164.594727 92.5562444,162.102539 C92.5562444,159.65332 93.6412053,158.213867 95.4673772,158.213867 C96.9283147,158.213867 97.8091741,159.041016 98.0562444,160.179688 L100.591401,160.179688 Z M103.033387,168 L103.033387,151.714844 L105.654481,151.714844 L105.654481,158.160156 L105.84784,158.160156 C106.406434,156.838867 107.66327,156.043945 109.414247,156.043945 C111.927918,156.043945 113.453309,157.633789 113.453309,160.426758 L113.453309,168 L110.789247,168 L110.789247,161.049805 C110.789247,159.234375 109.97284,158.310547 108.425965,158.310547 C106.674989,158.310547 105.69745,159.459961 105.69745,161.178711 L105.69745,168 L103.033387,168 Z" fill="#007AFF" fill-rule="nonzero"></path>
    </g>
</svg>