<?xml version="1.0" encoding="UTF-8"?>
<svg width="160px" height="190px" viewBox="0 0 160 190" version="1.1" xmlns="http://www.w3.org/2000/svg" xmlns:xlink="http://www.w3.org/1999/xlink">
    <!-- Generator: Sketch 59.1 (86144) - https://sketch.com -->
    <title>Speech</title>
    <desc>Created with Sketch.</desc>
    <g id="Speech" stroke="none" stroke-width="1" fill="none" fill-rule="evenodd">
        <path d="M95.3691553,31.6083408 L122.273452,58.5126377 C130.867202,49.9677158 131.208999,39.1278721 122.957046,30.9247471 C114.753921,22.8192783 103.962905,23.0145908 95.3691553,31.6083408 Z M90.4863428,36.5399815 C85.3105615,41.6181065 83.162124,47.4286533 83.8945459,53.0438877 L38.5332178,101.920841 C36.677749,103.922794 36.3847803,106.705997 38.6797022,109.000919 L32.4297022,117.05756 C31.8437647,117.83881 31.7949365,118.961856 32.6738428,119.840763 L34.0898584,121.305606 C34.9199365,122.135685 36.0429834,122.184513 36.9218897,121.500919 L44.9785303,115.202091 C47.1164104,117.434988 49.8552081,117.21799 51.8006945,115.495574 L77.302749,91.9110752 L77.302749,119.791935 C77.302749,122.282169 79.255874,124.235294 81.7461084,124.235294 C84.2363428,124.235294 86.1894678,122.282169 86.1894678,119.791935 L86.1894678,90.9345127 L85.8476709,83.9520908 L100.740249,70.1337315 C106.355483,70.8661533 112.263687,68.5712315 117.341812,63.4442783 L90.4863428,36.5399815 Z M43.5625147,105.924747 L86.5800928,60.3192783 C87.4101709,61.6864658 88.4355615,63.0048252 89.6562647,64.2743565 C90.8769678,65.4950596 92.146499,66.5692783 93.4648584,67.4481846 L48.0547022,110.416935 L43.5625147,105.924747 Z" fill="#007AFF" fill-rule="nonzero"></path>
        <path d="M37.929919,160.417969 C38.0822628,163.476562 40.648669,165.421875 44.5275753,165.421875 C48.6291378,165.421875 51.1721065,163.382812 51.1721065,160.101562 C51.1721065,157.535156 49.7307003,156.105469 46.2971065,155.320312 L44.351794,154.875 C42.2541378,154.382812 41.398669,153.714844 41.398669,152.554688 C41.398669,151.089844 42.6877315,150.128906 44.633044,150.128906 C46.4846065,150.128906 47.7971065,151.078125 48.008044,152.589844 L50.9025753,152.589844 C50.7619503,149.695312 48.195544,147.667969 44.6447628,147.667969 C40.8596065,147.667969 38.351794,149.707031 38.351794,152.753906 C38.351794,155.261719 39.7932003,156.773438 42.8635128,157.476562 L45.054919,157.980469 C47.2228878,158.484375 48.148669,159.234375 48.148669,160.464844 C48.148669,161.90625 46.7072628,162.949219 44.7150753,162.949219 C42.570544,162.949219 41.070544,161.964844 40.883044,160.417969 L37.929919,160.417969 Z M61.0196856,151.980469 C59.2618731,151.980469 57.7735918,152.859375 57.0353106,154.3125 L56.8360918,154.3125 L56.8360918,152.191406 L54.0353106,152.191406 L54.0353106,169.253906 L56.9415606,169.253906 L56.9415606,163.054688 L57.1407793,163.054688 C57.7970293,164.414062 59.2149981,165.210938 61.0548418,165.210938 C64.2892168,165.210938 66.3048418,162.667969 66.3048418,158.601562 C66.3048418,154.5 64.2657793,151.980469 61.0196856,151.980469 Z M60.1056231,162.796875 C58.1251543,162.796875 56.8946856,161.191406 56.8829668,158.601562 C56.8946856,156.011719 58.1368731,154.40625 60.1173418,154.40625 C62.1095293,154.40625 63.3165606,155.976562 63.3165606,158.601562 C63.3165606,161.226562 62.1212481,162.796875 60.1056231,162.796875 Z M77.3477334,161.496094 C76.9258584,162.457031 75.9297647,162.996094 74.4883584,162.996094 C72.5782022,162.996094 71.3477334,161.636719 71.2774209,159.46875 L71.2774209,159.316406 L80.2305459,159.316406 L80.2305459,158.390625 C80.2305459,154.371094 78.0391397,151.945312 74.3828897,151.945312 C70.6680459,151.945312 68.3594522,154.535156 68.3594522,158.648438 C68.3594522,162.75 70.6328897,165.257812 74.4063272,165.257812 C77.4297647,165.257812 79.5742959,163.804688 80.1016397,161.496094 L77.3477334,161.496094 Z M74.3711709,154.207031 C76.1172647,154.207031 77.2657022,155.4375 77.3242959,157.382812 L71.2891397,157.382812 C71.4180459,155.460938 72.6367959,154.207031 74.3711709,154.207031 Z M91.2734375,161.496094 C90.8515625,162.457031 89.8554688,162.996094 88.4140625,162.996094 C86.5039062,162.996094 85.2734375,161.636719 85.203125,159.46875 L85.203125,159.316406 L94.15625,159.316406 L94.15625,158.390625 C94.15625,154.371094 91.9648438,151.945312 88.3085938,151.945312 C84.59375,151.945312 82.2851562,154.535156 82.2851562,158.648438 C82.2851562,162.75 84.5585938,165.257812 88.3320312,165.257812 C91.3554688,165.257812 93.5,163.804688 94.0273438,161.496094 L91.2734375,161.496094 Z M88.296875,154.207031 C90.0429688,154.207031 91.1914062,155.4375 91.25,157.382812 L85.2148438,157.382812 C85.34375,155.460938 86.5625,154.207031 88.296875,154.207031 Z M107.917892,156.46875 C107.613204,153.820312 105.621017,151.945312 102.328048,151.945312 C98.4725791,151.945312 96.2108603,154.417969 96.2108603,158.566406 C96.2108603,162.761719 98.4842978,165.257812 102.339767,165.257812 C105.58586,165.257812 107.601485,163.453125 107.917892,160.804688 L105.152267,160.804688 C104.847579,162.152344 103.839767,162.867188 102.328048,162.867188 C100.347579,162.867188 99.1522666,161.285156 99.1522666,158.566406 C99.1522666,155.894531 100.33586,154.324219 102.328048,154.324219 C103.921798,154.324219 104.882735,155.226562 105.152267,156.46875 L107.917892,156.46875 Z M110.581877,165 L110.581877,147.234375 L113.441252,147.234375 L113.441252,154.265625 L113.652189,154.265625 C114.261564,152.824219 115.632658,151.957031 117.542814,151.957031 C120.285002,151.957031 121.949064,153.691406 121.949064,156.738281 L121.949064,165 L119.042814,165 L119.042814,157.417969 C119.042814,155.4375 118.152189,154.429688 116.464689,154.429688 C114.554533,154.429688 113.488127,155.683594 113.488127,157.558594 L113.488127,165 L110.581877,165 Z" fill="#007AFF" fill-rule="nonzero"></path>
    </g>
</svg>