<?xml version="1.0" encoding="UTF-8"?>
<svg width="190px" height="190px" viewBox="0 0 190 190" version="1.1" xmlns="http://www.w3.org/2000/svg" xmlns:xlink="http://www.w3.org/1999/xlink">
    <!-- Generator: Sketch 59.1 (86144) - https://sketch.com -->
    <title>Speech</title>
    <desc>Created with Sketch.</desc>
    <g id="Speech" stroke="none" stroke-width="1" fill="none" fill-rule="evenodd">
        <path d="M110.369155,31.6083408 L137.273452,58.5126377 C145.867202,49.9677158 146.208999,39.1278721 137.957046,30.9247471 C129.753921,22.8192783 118.962905,23.0145908 110.369155,31.6083408 Z M105.486343,36.5399815 C100.310562,41.6181065 98.162124,47.4286533 98.8945459,53.0438877 L53.5332178,101.920841 C51.677749,103.922794 51.3847803,106.705997 53.6797022,109.000919 L47.4297022,117.05756 C46.8437647,117.83881 46.7949365,118.961856 47.6738428,119.840763 L49.0898584,121.305606 C49.9199365,122.135685 51.0429834,122.184513 51.9218897,121.500919 L59.9785303,115.202091 C62.1164104,117.434988 64.8552081,117.21799 66.8006945,115.495574 L92.302749,91.9110752 L92.302749,119.791935 C92.302749,122.282169 94.255874,124.235294 96.7461084,124.235294 C99.2363428,124.235294 101.189468,122.282169 101.189468,119.791935 L101.189468,90.9345127 L100.847671,83.9520908 L115.740249,70.1337315 C121.355483,70.8661533 127.263687,68.5712315 132.341812,63.4442783 L105.486343,36.5399815 Z M58.5625147,105.924747 L101.580093,60.3192783 C102.410171,61.6864658 103.435562,63.0048252 104.656265,64.2743565 C105.876968,65.4950596 107.146499,66.5692783 108.464858,67.4481846 L63.0547022,110.416935 L58.5625147,105.924747 Z" fill="#007AFF" fill-rule="nonzero"></path>
        <path d="M52.0390625,159.883789 C52.1914062,163.235352 54.9970703,165.304688 59.2373047,165.304688 C63.6425781,165.304688 66.3974609,163.095703 66.3974609,159.591797 C66.3974609,156.875 64.7851562,155.326172 60.9257812,154.526367 L58.9453125,154.120117 C56.6601562,153.637695 55.7460938,152.837891 55.7460938,151.59375 C55.7460938,150.057617 57.1933594,149.092773 59.2246094,149.092773 C61.3193359,149.092773 62.7666016,150.133789 62.9189453,151.860352 L66.0546875,151.860352 C65.9785156,148.584961 63.2998047,146.375977 59.25,146.375977 C55.2763672,146.375977 52.4453125,148.55957 52.4453125,151.78418 C52.4453125,154.462891 54.1591797,156.189453 57.828125,156.938477 L59.7958984,157.344727 C62.1826172,157.839844 63.0966797,158.652344 63.0966797,159.972656 C63.0966797,161.496094 61.5605469,162.587891 59.3515625,162.587891 C57.0664062,162.587891 55.4160156,161.572266 55.1748047,159.883789 L52.0390625,159.883789 Z M75.9189453,151.314453 C73.9638672,151.314453 72.4404297,152.304688 71.6787109,153.866211 L71.6152344,153.866211 L71.6152344,151.542969 L68.5302734,151.542969 L68.5302734,169.430664 L71.6914062,169.430664 L71.6914062,162.765625 L71.7548828,162.765625 C72.4912109,164.276367 74.0146484,165.21582 75.9697266,165.21582 C79.3466797,165.21582 81.5048828,162.5625 81.5048828,158.271484 C81.5048828,153.967773 79.3339844,151.314453 75.9189453,151.314453 Z M74.9541016,162.625977 C72.9863281,162.625977 71.6787109,160.912109 71.6660156,158.271484 C71.6787109,155.65625 72.9863281,153.916992 74.9541016,153.916992 C76.9980469,153.916992 78.2675781,155.618164 78.2675781,158.271484 C78.2675781,160.9375 76.9980469,162.625977 74.9541016,162.625977 Z M92.4482422,160.975586 C92.1054688,162.092773 90.9882812,162.829102 89.515625,162.829102 C87.4462891,162.829102 86.1259766,161.381836 86.1259766,159.223633 L86.1259766,159.033203 L95.5332031,159.033203 L95.5332031,158.004883 C95.5332031,153.916992 93.1464844,151.263672 89.3251953,151.263672 C85.4404297,151.263672 82.9775391,154.069336 82.9775391,158.322266 C82.9775391,162.613281 85.4150391,165.266602 89.4521484,165.266602 C92.6386719,165.266602 95,163.514648 95.40625,160.975586 L92.4482422,160.975586 Z M89.3378906,153.713867 C91.1533203,153.713867 92.3720703,155.046875 92.4355469,156.951172 L86.1513672,156.951172 C86.2783203,155.072266 87.5605469,153.713867 89.3378906,153.713867 Z M106.476562,160.975586 C106.133789,162.092773 105.016602,162.829102 103.543945,162.829102 C101.474609,162.829102 100.154297,161.381836 100.154297,159.223633 L100.154297,159.033203 L109.561523,159.033203 L109.561523,158.004883 C109.561523,153.916992 107.174805,151.263672 103.353516,151.263672 C99.46875,151.263672 97.0058594,154.069336 97.0058594,158.322266 C97.0058594,162.613281 99.4433594,165.266602 103.480469,165.266602 C106.666992,165.266602 109.02832,163.514648 109.43457,160.975586 L106.476562,160.975586 Z M103.366211,153.713867 C105.181641,153.713867 106.400391,155.046875 106.463867,156.951172 L100.179688,156.951172 C100.306641,155.072266 101.588867,153.713867 103.366211,153.713867 Z M123.450195,156.341797 C123.234375,153.510742 121.038086,151.263672 117.483398,151.263672 C113.573242,151.263672 111.03418,153.967773 111.03418,158.271484 C111.03418,162.638672 113.573242,165.266602 117.508789,165.266602 C120.885742,165.266602 123.208984,163.286133 123.462891,160.277344 L120.479492,160.277344 C120.1875,161.800781 119.146484,162.714844 117.546875,162.714844 C115.541016,162.714844 114.246094,161.089844 114.246094,158.271484 C114.246094,155.503906 115.52832,153.828125 117.521484,153.828125 C119.209961,153.828125 120.212891,154.907227 120.466797,156.341797 L123.450195,156.341797 Z M125.430664,165 L125.430664,146.680664 L128.553711,146.680664 L128.553711,153.853516 L128.617188,153.853516 C129.34082,152.21582 130.826172,151.289062 132.870117,151.289062 C135.84082,151.289062 137.580078,153.244141 137.580078,156.329102 L137.580078,165 L134.418945,165 L134.418945,156.976562 C134.418945,155.097656 133.479492,153.967773 131.651367,153.967773 C129.74707,153.967773 128.591797,155.288086 128.591797,157.268555 L128.591797,165 L125.430664,165 Z" fill="#007AFF" fill-rule="nonzero"></path>
    </g>
</svg>