<?xml version="1.0" encoding="UTF-8"?>
<svg width="210px" height="210px" viewBox="0 0 210 210" version="1.1" xmlns="http://www.w3.org/2000/svg" xmlns:xlink="http://www.w3.org/1999/xlink">
    <!-- Generator: Sketch 59.1 (86144) - https://sketch.com -->
    <title>Speech</title>
    <desc>Created with Sketch.</desc>
    <g id="Speech" stroke="none" stroke-width="1" fill="none" fill-rule="evenodd">
        <path d="M120.369155,31.6083408 L147.273452,58.5126377 C155.867202,49.9677158 156.208999,39.1278721 147.957046,30.9247471 C139.753921,22.8192783 128.962905,23.0145908 120.369155,31.6083408 Z M115.486343,36.5399815 C110.310562,41.6181065 108.162124,47.4286533 108.894546,53.0438877 L63.5332178,101.920841 C61.677749,103.922794 61.3847803,106.705997 63.6797022,109.000919 L57.4297022,117.05756 C56.8437647,117.83881 56.7949365,118.961856 57.6738428,119.840763 L59.0898584,121.305606 C59.9199365,122.135685 61.0429834,122.184513 61.9218897,121.500919 L69.9785303,115.202091 C72.1164104,117.434988 74.8552081,117.21799 76.8006945,115.495574 L102.302749,91.9110752 L102.302749,119.791935 C102.302749,122.282169 104.255874,124.235294 106.746108,124.235294 C109.236343,124.235294 111.189468,122.282169 111.189468,119.791935 L111.189468,90.9345127 L110.847671,83.9520908 L125.740249,70.1337315 C131.355483,70.8661533 137.263687,68.5712315 142.341812,63.4442783 L115.486343,36.5399815 Z M68.5625147,105.924747 L111.580093,60.3192783 C112.410171,61.6864658 113.435562,63.0048252 114.656265,64.2743565 C115.876968,65.4950596 117.146499,66.5692783 118.464858,67.4481846 L73.0547022,110.416935 L68.5625147,105.924747 Z" fill="#007AFF" fill-rule="nonzero"></path>
        <path d="M52,171.625 C52.1875,175.75 55.640625,178.296875 60.859375,178.296875 C66.28125,178.296875 69.671875,175.578125 69.671875,171.265625 C69.671875,167.921875 67.6875,166.015625 62.9375,165.03125 L60.5,164.53125 C57.6875,163.9375 56.5625,162.953125 56.5625,161.421875 C56.5625,159.53125 58.34375,158.34375 60.84375,158.34375 C63.421875,158.34375 65.203125,159.625 65.390625,161.75 L69.25,161.75 C69.15625,157.71875 65.859375,155 60.875,155 C55.984375,155 52.5,157.6875 52.5,161.65625 C52.5,164.953125 54.609375,167.078125 59.125,168 L61.546875,168.5 C64.484375,169.109375 65.609375,170.109375 65.609375,171.734375 C65.609375,173.609375 63.71875,174.953125 61,174.953125 C58.1875,174.953125 56.15625,173.703125 55.859375,171.625 L52,171.625 Z M81.390625,161.078125 C78.984375,161.078125 77.109375,162.296875 76.171875,164.21875 L76.09375,164.21875 L76.09375,161.359375 L72.296875,161.359375 L72.296875,183.375 L76.1875,183.375 L76.1875,175.171875 L76.265625,175.171875 C77.171875,177.03125 79.046875,178.1875 81.453125,178.1875 C85.609375,178.1875 88.265625,174.921875 88.265625,169.640625 C88.265625,164.34375 85.59375,161.078125 81.390625,161.078125 Z M80.203125,175 C77.78125,175 76.171875,172.890625 76.15625,169.640625 C76.171875,166.421875 77.78125,164.28125 80.203125,164.28125 C82.71875,164.28125 84.28125,166.375 84.28125,169.640625 C84.28125,172.921875 82.71875,175 80.203125,175 Z M101.734375,172.96875 C101.3125,174.34375 99.9375,175.25 98.125,175.25 C95.578125,175.25 93.953125,173.46875 93.953125,170.8125 L93.953125,170.578125 L105.53125,170.578125 L105.53125,169.3125 C105.53125,164.28125 102.59375,161.015625 97.890625,161.015625 C93.109375,161.015625 90.078125,164.46875 90.078125,169.703125 C90.078125,174.984375 93.078125,178.25 98.046875,178.25 C101.96875,178.25 104.875,176.09375 105.375,172.96875 L101.734375,172.96875 Z M97.90625,164.03125 C100.140625,164.03125 101.640625,165.671875 101.71875,168.015625 L93.984375,168.015625 C94.140625,165.703125 95.71875,164.03125 97.90625,164.03125 Z M119,172.96875 C118.578125,174.34375 117.203125,175.25 115.390625,175.25 C112.84375,175.25 111.21875,173.46875 111.21875,170.8125 L111.21875,170.578125 L122.796875,170.578125 L122.796875,169.3125 C122.796875,164.28125 119.859375,161.015625 115.15625,161.015625 C110.375,161.015625 107.34375,164.46875 107.34375,169.703125 C107.34375,174.984375 110.34375,178.25 115.3125,178.25 C119.234375,178.25 122.140625,176.09375 122.640625,172.96875 L119,172.96875 Z M115.171875,164.03125 C117.40625,164.03125 118.90625,165.671875 118.984375,168.015625 L111.25,168.015625 C111.40625,165.703125 112.984375,164.03125 115.171875,164.03125 Z M139.890625,167.265625 C139.625,163.78125 136.921875,161.015625 132.546875,161.015625 C127.734375,161.015625 124.609375,164.34375 124.609375,169.640625 C124.609375,175.015625 127.734375,178.25 132.578125,178.25 C136.734375,178.25 139.59375,175.8125 139.90625,172.109375 L136.234375,172.109375 C135.875,173.984375 134.59375,175.109375 132.625,175.109375 C130.15625,175.109375 128.5625,173.109375 128.5625,169.640625 C128.5625,166.234375 130.140625,164.171875 132.59375,164.171875 C134.671875,164.171875 135.90625,165.5 136.21875,167.265625 L139.890625,167.265625 Z M142.328125,177.921875 L146.21875,177.921875 L146.21875,168.40625 C146.21875,165.96875 147.640625,164.34375 149.984375,164.34375 C152.234375,164.34375 153.390625,165.734375 153.390625,168.046875 L153.390625,177.921875 L157.28125,177.921875 L157.28125,167.25 C157.28125,163.453125 155.140625,161.046875 151.484375,161.046875 C148.96875,161.046875 147.140625,162.1875 146.25,164.203125 L146.171875,164.203125 L146.171875,155.375 L142.328125,155.375 L142.328125,177.921875 Z" id="Speechs" fill="#007AFF" fill-rule="nonzero"></path>
    </g>
</svg>