<?xml version="1.0" encoding="UTF-8"?>
<svg width="210px" height="190px" viewBox="0 0 210 190" version="1.1" xmlns="http://www.w3.org/2000/svg" xmlns:xlink="http://www.w3.org/1999/xlink">
    <!-- Generator: Sketch 59.1 (86144) - https://sketch.com -->
    <title>Speech</title>
    <desc>Created with Sketch.</desc>
    <g id="Speech" stroke="none" stroke-width="1" fill="none" fill-rule="evenodd">
        <path d="M120.369155,31.6083408 L147.273452,58.5126377 C155.867202,49.9677158 156.208999,39.1278721 147.957046,30.9247471 C139.753921,22.8192783 128.962905,23.0145908 120.369155,31.6083408 Z M115.486343,36.5399815 C110.310562,41.6181065 108.162124,47.4286533 108.894546,53.0438877 L63.5332178,101.920841 C61.677749,103.922794 61.3847803,106.705997 63.6797022,109.000919 L57.4297022,117.05756 C56.8437647,117.83881 56.7949365,118.961856 57.6738428,119.840763 L59.0898584,121.305606 C59.9199365,122.135685 61.0429834,122.184513 61.9218897,121.500919 L69.9785303,115.202091 C72.1164104,117.434988 74.8552081,117.21799 76.8006945,115.495574 L102.302749,91.9110752 L102.302749,119.791935 C102.302749,122.282169 104.255874,124.235294 106.746108,124.235294 C109.236343,124.235294 111.189468,122.282169 111.189468,119.791935 L111.189468,90.9345127 L110.847671,83.9520908 L125.740249,70.1337315 C131.355483,70.8661533 137.263687,68.5712315 142.341812,63.4442783 L115.486343,36.5399815 Z M68.5625147,105.924747 L111.580093,60.3192783 C112.410171,61.6864658 113.435562,63.0048252 114.656265,64.2743565 C115.876968,65.4950596 117.146499,66.5692783 118.464858,67.4481846 L73.0547022,110.416935 L68.5625147,105.924747 Z" fill="#007AFF" fill-rule="nonzero"></path>
        <path d="M49.3203125,164.30957 C49.5195312,168.692383 53.1884766,171.398438 58.7333984,171.398438 C64.4941406,171.398438 68.0966797,168.509766 68.0966797,163.927734 C68.0966797,160.375 65.9882812,158.349609 60.9414062,157.303711 L58.3515625,156.772461 C55.3632812,156.141602 54.1679688,155.095703 54.1679688,153.46875 C54.1679688,151.459961 56.0605469,150.198242 58.7167969,150.198242 C61.4560547,150.198242 63.3486328,151.55957 63.5478516,153.817383 L67.6484375,153.817383 C67.5488281,149.53418 64.0458984,146.645508 58.75,146.645508 C53.5537109,146.645508 49.8515625,149.500977 49.8515625,153.717773 C49.8515625,157.220703 52.0927734,159.478516 56.890625,160.458008 L59.4638672,160.989258 C62.5849609,161.636719 63.7802734,162.699219 63.7802734,164.425781 C63.7802734,166.417969 61.7714844,167.845703 58.8828125,167.845703 C55.8945312,167.845703 53.7363281,166.517578 53.4208984,164.30957 L49.3203125,164.30957 Z M80.5478516,153.103516 C77.9912109,153.103516 75.9990234,154.398438 75.0029297,156.44043 L74.9199219,156.44043 L74.9199219,153.402344 L70.8857422,153.402344 L70.8857422,176.793945 L75.0195312,176.793945 L75.0195312,168.078125 L75.1025391,168.078125 C76.0654297,170.053711 78.0576172,171.282227 80.6142578,171.282227 C85.0302734,171.282227 87.8525391,167.8125 87.8525391,162.201172 C87.8525391,156.573242 85.0136719,153.103516 80.5478516,153.103516 Z M79.2861328,167.895508 C76.7128906,167.895508 75.0029297,165.654297 74.9863281,162.201172 C75.0029297,158.78125 76.7128906,156.506836 79.2861328,156.506836 C81.9589844,156.506836 83.6191406,158.731445 83.6191406,162.201172 C83.6191406,165.6875 81.9589844,167.895508 79.2861328,167.895508 Z M102.163086,165.737305 C101.714844,167.198242 100.253906,168.161133 98.328125,168.161133 C95.6220703,168.161133 93.8955078,166.268555 93.8955078,163.446289 L93.8955078,163.197266 L106.197266,163.197266 L106.197266,161.852539 C106.197266,156.506836 103.076172,153.037109 98.0791016,153.037109 C92.9990234,153.037109 89.7783203,156.706055 89.7783203,162.267578 C89.7783203,167.878906 92.9658203,171.348633 98.2451172,171.348633 C102.412109,171.348633 105.5,169.057617 106.03125,165.737305 L102.163086,165.737305 Z M98.0957031,156.241211 C100.469727,156.241211 102.063477,157.984375 102.146484,160.474609 L93.9287109,160.474609 C94.0947266,158.017578 95.7714844,156.241211 98.0957031,156.241211 Z M120.507812,165.737305 C120.05957,167.198242 118.598633,168.161133 116.672852,168.161133 C113.966797,168.161133 112.240234,166.268555 112.240234,163.446289 L112.240234,163.197266 L124.541992,163.197266 L124.541992,161.852539 C124.541992,156.506836 121.420898,153.037109 116.423828,153.037109 C111.34375,153.037109 108.123047,156.706055 108.123047,162.267578 C108.123047,167.878906 111.310547,171.348633 116.589844,171.348633 C120.756836,171.348633 123.844727,169.057617 124.375977,165.737305 L120.507812,165.737305 Z M116.44043,156.241211 C118.814453,156.241211 120.408203,157.984375 120.491211,160.474609 L112.273438,160.474609 C112.439453,158.017578 114.116211,156.241211 116.44043,156.241211 Z M142.704102,159.677734 C142.421875,155.975586 139.549805,153.037109 134.901367,153.037109 C129.788086,153.037109 126.467773,156.573242 126.467773,162.201172 C126.467773,167.912109 129.788086,171.348633 134.93457,171.348633 C139.350586,171.348633 142.388672,168.758789 142.720703,164.824219 L138.819336,164.824219 C138.4375,166.816406 137.076172,168.011719 134.984375,168.011719 C132.361328,168.011719 130.667969,165.886719 130.667969,162.201172 C130.667969,158.582031 132.344727,156.390625 134.951172,156.390625 C137.15918,156.390625 138.470703,157.801758 138.802734,159.677734 L142.704102,159.677734 Z M145.293945,171 L145.293945,147.043945 L149.37793,147.043945 L149.37793,156.423828 L149.460938,156.423828 C150.407227,154.282227 152.349609,153.070312 155.022461,153.070312 C158.907227,153.070312 161.181641,155.626953 161.181641,159.661133 L161.181641,171 L157.047852,171 L157.047852,160.507812 C157.047852,158.050781 155.819336,156.573242 153.428711,156.573242 C150.938477,156.573242 149.427734,158.299805 149.427734,160.889648 L149.427734,171 L145.293945,171 Z" fill="#007AFF" fill-rule="nonzero"></path>
    </g>
</svg>