<?xml version="1.0" encoding="UTF-8"?>
<svg width="210px" height="210px" viewBox="0 0 210 210" version="1.1" xmlns="http://www.w3.org/2000/svg" xmlns:xlink="http://www.w3.org/1999/xlink">
    <!-- Generator: Sketch 59.1 (86144) - https://sketch.com -->
    <title>Speech</title>
    <desc>Created with Sketch.</desc>
    <g id="Speech" stroke="none" stroke-width="1" fill="none" fill-rule="evenodd">
        <path d="M120.369155,31.6083408 L147.273452,58.5126377 C155.867202,49.9677158 156.208999,39.1278721 147.957046,30.9247471 C139.753921,22.8192783 128.962905,23.0145908 120.369155,31.6083408 Z M115.486343,36.5399815 C110.310562,41.6181065 108.162124,47.4286533 108.894546,53.0438877 L63.5332178,101.920841 C61.677749,103.922794 61.3847803,106.705997 63.6797022,109.000919 L57.4297022,117.05756 C56.8437647,117.83881 56.7949365,118.961856 57.6738428,119.840763 L59.0898584,121.305606 C59.9199365,122.135685 61.0429834,122.184513 61.9218897,121.500919 L69.9785303,115.202091 C72.1164104,117.434988 74.8552081,117.21799 76.8006945,115.495574 L102.302749,91.9110752 L102.302749,119.791935 C102.302749,122.282169 104.255874,124.235294 106.746108,124.235294 C109.236343,124.235294 111.189468,122.282169 111.189468,119.791935 L111.189468,90.9345127 L110.847671,83.9520908 L125.740249,70.1337315 C131.355483,70.8661533 137.263687,68.5712315 142.341812,63.4442783 L115.486343,36.5399815 Z M68.5625147,105.924747 L111.580093,60.3192783 C112.410171,61.6864658 113.435562,63.0048252 114.656265,64.2743565 C115.876968,65.4950596 117.146499,66.5692783 118.464858,67.4481846 L73.0547022,110.416935 L68.5625147,105.924747 Z" fill="#007AFF" fill-rule="nonzero"></path>
        <path d="M44.1796875,171.703125 C44.3671875,175.828125 47.8203125,178.375 53.0390625,178.375 C58.4609375,178.375 61.8515625,175.65625 61.8515625,171.34375 C61.8515625,168 59.8671875,166.09375 55.1171875,165.109375 L52.6796875,164.609375 C49.8671875,164.015625 48.7421875,163.03125 48.7421875,161.5 C48.7421875,159.609375 50.5234375,158.421875 53.0234375,158.421875 C55.6015625,158.421875 57.3828125,159.703125 57.5703125,161.828125 L61.4296875,161.828125 C61.3359375,157.796875 58.0390625,155.078125 53.0546875,155.078125 C48.1640625,155.078125 44.6796875,157.765625 44.6796875,161.734375 C44.6796875,165.03125 46.7890625,167.15625 51.3046875,168.078125 L53.7265625,168.578125 C56.6640625,169.1875 57.7890625,170.1875 57.7890625,171.8125 C57.7890625,173.6875 55.8984375,175.03125 53.1796875,175.03125 C50.3671875,175.03125 48.3359375,173.78125 48.0390625,171.703125 L44.1796875,171.703125 Z M73.5703125,161.15625 C71.1640625,161.15625 69.2890625,162.375 68.3515625,164.296875 L68.2734375,164.296875 L68.2734375,161.4375 L64.4765625,161.4375 L64.4765625,183.453125 L68.3671875,183.453125 L68.3671875,175.25 L68.4453125,175.25 C69.3515625,177.109375 71.2265625,178.265625 73.6328125,178.265625 C77.7890625,178.265625 80.4453125,175 80.4453125,169.71875 C80.4453125,164.421875 77.7734375,161.15625 73.5703125,161.15625 Z M72.3828125,175.078125 C69.9609375,175.078125 68.3515625,172.96875 68.3359375,169.71875 C68.3515625,166.5 69.9609375,164.359375 72.3828125,164.359375 C74.8984375,164.359375 76.4609375,166.453125 76.4609375,169.71875 C76.4609375,173 74.8984375,175.078125 72.3828125,175.078125 Z M93.9140625,173.046875 C93.4921875,174.421875 92.1171875,175.328125 90.3046875,175.328125 C87.7578125,175.328125 86.1328125,173.546875 86.1328125,170.890625 L86.1328125,170.65625 L97.7109375,170.65625 L97.7109375,169.390625 C97.7109375,164.359375 94.7734375,161.09375 90.0703125,161.09375 C85.2890625,161.09375 82.2578125,164.546875 82.2578125,169.78125 C82.2578125,175.0625 85.2578125,178.328125 90.2265625,178.328125 C94.1484375,178.328125 97.0546875,176.171875 97.5546875,173.046875 L93.9140625,173.046875 Z M90.0859375,164.109375 C92.3203125,164.109375 93.8203125,165.75 93.8984375,168.09375 L86.1640625,168.09375 C86.3203125,165.78125 87.8984375,164.109375 90.0859375,164.109375 Z M111.179688,173.046875 C110.757812,174.421875 109.382812,175.328125 107.570312,175.328125 C105.023438,175.328125 103.398438,173.546875 103.398438,170.890625 L103.398438,170.65625 L114.976562,170.65625 L114.976562,169.390625 C114.976562,164.359375 112.039062,161.09375 107.335938,161.09375 C102.554688,161.09375 99.5234375,164.546875 99.5234375,169.78125 C99.5234375,175.0625 102.523438,178.328125 107.492188,178.328125 C111.414062,178.328125 114.320312,176.171875 114.820312,173.046875 L111.179688,173.046875 Z M107.351562,164.109375 C109.585938,164.109375 111.085938,165.75 111.164062,168.09375 L103.429688,168.09375 C103.585938,165.78125 105.164062,164.109375 107.351562,164.109375 Z M132.070312,167.34375 C131.804688,163.859375 129.101562,161.09375 124.726562,161.09375 C119.914062,161.09375 116.789062,164.421875 116.789062,169.71875 C116.789062,175.09375 119.914062,178.328125 124.757812,178.328125 C128.914062,178.328125 131.773438,175.890625 132.085938,172.1875 L128.414062,172.1875 C128.054688,174.0625 126.773438,175.1875 124.804688,175.1875 C122.335938,175.1875 120.742188,173.1875 120.742188,169.71875 C120.742188,166.3125 122.320312,164.25 124.773438,164.25 C126.851562,164.25 128.085938,165.578125 128.398438,167.34375 L132.070312,167.34375 Z M134.507812,178 L138.398438,178 L138.398438,168.484375 C138.398438,166.046875 139.820312,164.421875 142.164062,164.421875 C144.414062,164.421875 145.570312,165.8125 145.570312,168.125 L145.570312,178 L149.460938,178 L149.460938,167.328125 C149.460938,163.53125 147.320312,161.125 143.664062,161.125 C141.148438,161.125 139.320312,162.265625 138.429688,164.28125 L138.351562,164.28125 L138.351562,155.453125 L134.507812,155.453125 L134.507812,178 Z M152.273438,166.1875 C152.273438,163.15625 154.914062,161.09375 158.914062,161.09375 C162.945312,161.09375 165.507812,163.265625 165.601562,166.40625 L161.976562,166.40625 C161.820312,164.90625 160.710938,163.953125 158.914062,163.953125 C157.195312,163.953125 156.054688,164.765625 156.054688,165.984375 C156.054688,166.9375 156.742188,167.59375 158.476562,167.984375 L161.226562,168.59375 C164.664062,169.359375 165.992188,170.6875 165.992188,173.09375 C165.992188,176.21875 163.117188,178.328125 159.054688,178.328125 C154.726562,178.328125 152.164062,176.265625 151.851562,173.0625 L155.679688,173.0625 C155.976562,174.671875 157.085938,175.484375 159.054688,175.484375 C160.945312,175.484375 162.117188,174.703125 162.117188,173.46875 C162.117188,172.46875 161.523438,171.90625 159.789062,171.515625 L157.039062,170.90625 C153.867188,170.203125 152.273438,168.640625 152.273438,166.1875 Z" id="Speechs" fill="#007AFF" fill-rule="nonzero"></path>
    </g>
</svg>