<?xml version="1.0" encoding="UTF-8"?>
<svg width="160px" height="190px" viewBox="0 0 160 190" version="1.1" xmlns="http://www.w3.org/2000/svg" xmlns:xlink="http://www.w3.org/1999/xlink">
    <!-- Generator: Sketch 59.1 (86144) - https://sketch.com -->
    <title>Speech</title>
    <desc>Created with Sketch.</desc>
    <g id="Speech" stroke="none" stroke-width="1" fill="none" fill-rule="evenodd">
        <path d="M95.3691553,31.6083408 L122.273452,58.5126377 C130.867202,49.9677158 131.208999,39.1278721 122.957046,30.9247471 C114.753921,22.8192783 103.962905,23.0145908 95.3691553,31.6083408 Z M90.4863428,36.5399815 C85.3105615,41.6181065 83.162124,47.4286533 83.8945459,53.0438877 L38.5332178,101.920841 C36.677749,103.922794 36.3847803,106.705997 38.6797022,109.000919 L32.4297022,117.05756 C31.8437647,117.83881 31.7949365,118.961856 32.6738428,119.840763 L34.0898584,121.305606 C34.9199365,122.135685 36.0429834,122.184513 36.9218897,121.500919 L44.9785303,115.202091 C47.1164104,117.434988 49.8552081,117.21799 51.8006945,115.495574 L77.302749,91.9110752 L77.302749,119.791935 C77.302749,122.282169 79.255874,124.235294 81.7461084,124.235294 C84.2363428,124.235294 86.1894678,122.282169 86.1894678,119.791935 L86.1894678,90.9345127 L85.8476709,83.9520908 L100.740249,70.1337315 C106.355483,70.8661533 112.263687,68.5712315 117.341812,63.4442783 L90.4863428,36.5399815 Z M43.5625147,105.924747 L86.5800928,60.3192783 C87.4101709,61.6864658 88.4355615,63.0048252 89.6562647,64.2743565 C90.8769678,65.4950596 92.146499,66.5692783 93.4648584,67.4481846 L48.0547022,110.416935 L43.5625147,105.924747 Z" fill="#007AFF" fill-rule="nonzero"></path>
        <path d="M44.9415992,161.181641 C45.0685523,163.730469 47.2072242,165.351562 50.4396461,165.351562 C53.8576148,165.351562 55.9767554,163.652344 55.9767554,160.917969 C55.9767554,158.779297 54.7755836,157.587891 51.9142554,156.933594 L50.2931617,156.5625 C48.5451148,156.152344 47.8322242,155.595703 47.8322242,154.628906 C47.8322242,153.408203 48.9064429,152.607422 50.5275367,152.607422 C52.0705054,152.607422 53.1642554,153.398438 53.3400367,154.658203 L55.7521461,154.658203 C55.6349586,152.246094 53.4962867,150.556641 50.5373023,150.556641 C47.3830054,150.556641 45.2931617,152.255859 45.2931617,154.794922 C45.2931617,156.884766 46.4943336,158.144531 49.0529273,158.730469 L50.8790992,159.150391 C52.6857398,159.570312 53.4572242,160.195312 53.4572242,161.220703 C53.4572242,162.421875 52.2560523,163.291016 50.5958961,163.291016 C48.8087867,163.291016 47.5587867,162.470703 47.4025367,161.181641 L44.9415992,161.181641 Z M64.1830713,154.150391 C62.7182276,154.150391 61.4779932,154.882812 60.8627588,156.09375 L60.6967432,156.09375 L60.6967432,154.326172 L58.3627588,154.326172 L58.3627588,168.544922 L60.7846338,168.544922 L60.7846338,163.378906 L60.9506495,163.378906 C61.4975245,164.511719 62.6791651,165.175781 64.2123682,165.175781 C66.9076807,165.175781 68.5873682,163.056641 68.5873682,159.667969 C68.5873682,156.25 66.8881495,154.150391 64.1830713,154.150391 Z M63.4213526,163.164062 C61.770962,163.164062 60.7455713,161.826172 60.7358057,159.667969 C60.7455713,157.509766 61.7807276,156.171875 63.4311182,156.171875 C65.0912745,156.171875 66.0971338,157.480469 66.0971338,159.667969 C66.0971338,161.855469 65.1010401,163.164062 63.4213526,163.164062 Z M77.7897779,162.080078 C77.4382154,162.880859 76.6081372,163.330078 75.4069654,163.330078 C73.8151685,163.330078 72.7897779,162.197266 72.7311841,160.390625 L72.7311841,160.263672 L80.1921216,160.263672 L80.1921216,159.492188 C80.1921216,156.142578 78.3659497,154.121094 75.3190747,154.121094 C72.2233716,154.121094 70.2995435,156.279297 70.2995435,159.707031 C70.2995435,163.125 72.1940747,165.214844 75.338606,165.214844 C77.8581372,165.214844 79.6452466,164.003906 80.0846997,162.080078 L77.7897779,162.080078 Z M75.3093091,156.005859 C76.7643872,156.005859 77.7214185,157.03125 77.7702466,158.652344 L72.7409497,158.652344 C72.8483716,157.050781 73.8639966,156.005859 75.3093091,156.005859 Z M89.3945313,162.080078 C89.0429688,162.880859 88.2128906,163.330078 87.0117188,163.330078 C85.4199219,163.330078 84.3945313,162.197266 84.3359375,160.390625 L84.3359375,160.263672 L91.796875,160.263672 L91.796875,159.492188 C91.796875,156.142578 89.9707031,154.121094 86.9238281,154.121094 C83.828125,154.121094 81.9042969,156.279297 81.9042969,159.707031 C81.9042969,163.125 83.7988281,165.214844 86.9433594,165.214844 C89.4628906,165.214844 91.25,164.003906 91.6894531,162.080078 L89.3945313,162.080078 Z M86.9140625,156.005859 C88.3691406,156.005859 89.3261719,157.03125 89.375,158.652344 L84.3457031,158.652344 C84.453125,157.050781 85.46875,156.005859 86.9140625,156.005859 Z M103.26491,157.890625 C103.011003,155.683594 101.350847,154.121094 98.6067065,154.121094 C95.3938159,154.121094 93.5090503,156.181641 93.5090503,159.638672 C93.5090503,163.134766 95.4035815,165.214844 98.6164722,165.214844 C101.32155,165.214844 103.001238,163.710938 103.26491,161.503906 L100.960222,161.503906 C100.706316,162.626953 99.8664722,163.222656 98.6067065,163.222656 C96.9563159,163.222656 95.9602222,161.904297 95.9602222,159.638672 C95.9602222,157.412109 96.9465503,156.103516 98.6067065,156.103516 C99.9348315,156.103516 100.735613,156.855469 100.960222,157.890625 L103.26491,157.890625 Z M105.484897,165 L105.484897,150.195312 L107.86771,150.195312 L107.86771,156.054688 L108.043491,156.054688 C108.551304,154.853516 109.693882,154.130859 111.285679,154.130859 C113.570835,154.130859 114.957554,155.576172 114.957554,158.115234 L114.957554,165 L112.535679,165 L112.535679,158.681641 C112.535679,157.03125 111.793491,156.191406 110.387241,156.191406 C108.795444,156.191406 107.906772,157.236328 107.906772,158.798828 L107.906772,165 L105.484897,165 Z" fill="#007AFF" fill-rule="nonzero"></path>
    </g>
</svg>