<?xml version="1.0" encoding="UTF-8"?>
<svg width="200px" height="200px" viewBox="0 0 200 200" version="1.1" xmlns="http://www.w3.org/2000/svg" xmlns:xlink="http://www.w3.org/1999/xlink">
    <title>tracking</title>
    <defs>
        <path d="M71.7887856,-1.0155026e-14 L128.211214,-4.35432025e-15 C153.173739,2.52998546e-15 162.225754,2.59911711 171.35168,7.47971571 C180.477606,12.3603143 187.639686,19.5223944 192.520284,28.6483203 C197.400883,37.7742462 200,46.8262609 200,71.7887856 L200,128.211214 C200,153.173739 197.400883,162.225754 192.520284,171.35168 C187.639686,180.477606 180.477606,187.639686 171.35168,192.520284 C162.225754,197.400883 153.173739,200 128.211214,200 L71.7887856,200 C46.8262609,200 37.7742462,197.400883 28.6483203,192.520284 C19.5223944,187.639686 12.3603143,180.477606 7.47971571,171.35168 C2.59911711,162.225754 5.33863302e-15,153.173739 -9.18824169e-15,128.211214 L-5.32110454e-15,71.7887856 C3.09171497e-15,46.8262609 2.59911711,37.7742462 7.47971571,28.6483203 C12.3603143,19.5223944 19.5223944,12.3603143 28.6483203,7.47971571 C37.7742462,2.59911711 46.8262609,5.90036254e-15 71.7887856,-1.0155026e-14 Z" id="path-1"></path>
    </defs>
    <g id="tracking" stroke="none" stroke-width="1" fill="none" fill-rule="evenodd">
        <mask id="mask-2" fill="white">
            <use xlink:href="#path-1"></use>
        </mask>
        <path stroke="#979797" d="M128.211214,0.5 C153.032141,0.5 162.039835,3.06670034 171.11588,7.9206223 C180.153383,12.7539317 187.246068,19.8466169 192.079378,28.8841197 C196.9333,37.9601647 199.5,46.9678595 199.5,71.7887856 L199.5,71.7887856 L199.5,128.211214 C199.5,153.032141 196.9333,162.039835 192.079378,171.11588 C187.246068,180.153383 180.153383,187.246068 171.11588,192.079378 C162.039835,196.9333 153.032141,199.5 128.211214,199.5 L128.211214,199.5 L71.7887856,199.5 C46.9678595,199.5 37.9601647,196.9333 28.8841197,192.079378 C19.8466169,187.246068 12.7539317,180.153383 7.9206223,171.11588 C7.29596774,169.947878 6.7091922,168.781008 6.16089145,167.581421 L5.91056367,167.025319 C2.40301741,159.110804 0.54424392,149.574911 0.500779417,128.955326 L0.500779417,128.955326 L0.5,71.7887856 C0.5,46.9678595 3.06670034,37.9601647 7.9206223,28.8841197 C12.7539317,19.8466169 19.8466169,12.7539317 28.8841197,7.9206223 C30.0521222,7.29596774 31.2189915,6.7091922 32.4185786,6.16089145 L32.9746807,5.91056367 C40.8891963,2.40301741 50.4250886,0.54424392 71.0446738,0.500779417 L71.0446738,0.500779417 Z"></path>
        <g id="Group" mask="url(#mask-2)">
            <g id="Icon">
                <rect id="Rectangle" fill="#FFFFFF" x="0" y="0" width="200" height="200"></rect>
                <rect id="Background" fill="#FF9500" x="0" y="0" width="200" height="200"></rect>
                <g transform="translate(46.000000, 32.000000)">
                    <path d="M24.5,48.5 C25.9542591,60.8420569 35.7875924,68.0087235 54,70 C72.2124076,71.9912765 82.3790743,78.4912765 84.5,89.5" id="Path" stroke="#FFFFFF" stroke-width="12" stroke-linecap="square"></path>
                    <path d="M10.2555408,1.39933216e-15 L37.7444592,4.14336123e-16 C41.3105342,-2.4074122e-16 42.6036791,0.371302445 43.9073828,1.06853082 C45.2110865,1.76575919 46.2342408,2.78891348 46.9314692,4.09261719 C47.6286976,5.39632089 48,6.68946584 48,10.2555408 L48,37.7444592 C48,41.3105342 47.6286976,42.6036791 46.9314692,43.9073828 C46.2342408,45.2110865 45.2110865,46.2342408 43.9073828,46.9314692 C42.6036791,47.6286976 41.3105342,48 37.7444592,48 L10.2555408,48 C6.68946584,48 5.39632089,47.6286976 4.09261719,46.9314692 C2.78891348,46.2342408 1.76575919,45.2110865 1.06853082,43.9073828 C0.371302445,42.6036791 -8.93299353e-16,41.3105342 1.5374442e-15,37.7444592 L2.76224082e-16,10.2555408 C-1.60494146e-16,6.68946584 0.371302445,5.39632089 1.06853082,4.09261719 C1.76575919,2.78891348 2.78891348,1.76575919 4.09261719,1.06853082 C5.39632089,0.371302445 6.68946584,-8.1305228e-16 10.2555408,1.39933216e-15 Z" id="Rectangle" fill="#FFFFFF"></path>
                    <path d="M70.2555408,89 L97.7444592,89 C101.310534,89 102.603679,89.3713024 103.907383,90.0685308 C105.211087,90.7657592 106.234241,91.7889135 106.931469,93.0926172 C107.628698,94.3963209 108,95.6894658 108,99.2555408 L108,126.744459 C108,130.310534 107.628698,131.603679 106.931469,132.907383 C106.234241,134.211087 105.211087,135.234241 103.907383,135.931469 C102.603679,136.628698 101.310534,137 97.7444592,137 L70.2555408,137 C66.6894658,137 65.3963209,136.628698 64.0926172,135.931469 C62.7889135,135.234241 61.7657592,134.211087 61.0685308,132.907383 C60.3713024,131.603679 60,130.310534 60,126.744459 L60,99.2555408 C60,95.6894658 60.3713024,94.3963209 61.0685308,93.0926172 C61.7657592,91.7889135 62.7889135,90.7657592 64.0926172,90.0685308 C65.3963209,89.3713024 66.6894658,89 70.2555408,89 Z" id="Rectangle" fill="#FFFFFF"></path>
                </g>
            </g>
        </g>
    </g>
</svg>