<?xml version="1.0" encoding="UTF-8"?>
<svg width="200px" height="200px" viewBox="0 0 200 200" version="1.1" xmlns="http://www.w3.org/2000/svg" xmlns:xlink="http://www.w3.org/1999/xlink">
    <title>tracking</title>
    <defs>
        <path d="M142.505593,199.776349 C162.751678,199.776349 177.181208,197.540464 187.583893,187.255391 C197.87472,176.858525 200,162.660653 200,142.314097 L200,57.4622515 C200,37.1156955 197.87472,22.8060298 187.583893,12.5209575 C177.069351,2.23588527 162.751678,1.42108547e-14 142.505593,1.42108547e-14 L56.8232662,1.42108547e-14 C37.4720358,1.42108547e-14 22.9306488,2.23588527 12.5279642,12.6327518 C2.23713647,22.917824 0,37.2274898 0,56.7914859 L0,142.314097 C0,162.660653 2.12527964,176.970319 12.5279642,187.255391 C22.9306488,197.540464 37.2483221,199.776349 57.606264,199.776349 L142.505593,199.776349 Z" id="path-1"></path>
    </defs>
    <g id="tracking" stroke="none" stroke-width="1" fill="none" fill-rule="evenodd">
        <mask id="mask-2" fill="white">
            <use xlink:href="#path-1"></use>
        </mask>
        <use id="Mask" fill="#FFFFFF" fill-rule="nonzero" xlink:href="#path-1"></use>
        <g id="Group" mask="url(#mask-2)">
            <g id="Icon">
                <rect id="Rectangle" fill="#FFFFFF" x="0" y="0" width="200" height="200"></rect>
                <rect id="Background" fill="#FF9500" x="0" y="0" width="200" height="200"></rect>
                <g transform="translate(46.000000, 32.000000)">
                    <path d="M24.5,48.5 C25.9542591,60.8420569 35.7875924,68.0087235 54,70 C72.2124076,71.9912765 82.3790743,78.4912765 84.5,89.5" id="Path" stroke="#FFFFFF" stroke-width="12" stroke-linecap="square"></path>
                    <path d="M10.2555408,1.39933216e-15 L37.7444592,4.14336123e-16 C41.3105342,-2.4074122e-16 42.6036791,0.371302445 43.9073828,1.06853082 C45.2110865,1.76575919 46.2342408,2.78891348 46.9314692,4.09261719 C47.6286976,5.39632089 48,6.68946584 48,10.2555408 L48,37.7444592 C48,41.3105342 47.6286976,42.6036791 46.9314692,43.9073828 C46.2342408,45.2110865 45.2110865,46.2342408 43.9073828,46.9314692 C42.6036791,47.6286976 41.3105342,48 37.7444592,48 L10.2555408,48 C6.68946584,48 5.39632089,47.6286976 4.09261719,46.9314692 C2.78891348,46.2342408 1.76575919,45.2110865 1.06853082,43.9073828 C0.371302445,42.6036791 -8.93299353e-16,41.3105342 1.5374442e-15,37.7444592 L2.76224082e-16,10.2555408 C-1.60494146e-16,6.68946584 0.371302445,5.39632089 1.06853082,4.09261719 C1.76575919,2.78891348 2.78891348,1.76575919 4.09261719,1.06853082 C5.39632089,0.371302445 6.68946584,-8.1305228e-16 10.2555408,1.39933216e-15 Z" id="Rectangle" fill="#FFFFFF"></path>
                    <path d="M70.2555408,89 L97.7444592,89 C101.310534,89 102.603679,89.3713024 103.907383,90.0685308 C105.211087,90.7657592 106.234241,91.7889135 106.931469,93.0926172 C107.628698,94.3963209 108,95.6894658 108,99.2555408 L108,126.744459 C108,130.310534 107.628698,131.603679 106.931469,132.907383 C106.234241,134.211087 105.211087,135.234241 103.907383,135.931469 C102.603679,136.628698 101.310534,137 97.7444592,137 L70.2555408,137 C66.6894658,137 65.3963209,136.628698 64.0926172,135.931469 C62.7889135,135.234241 61.7657592,134.211087 61.0685308,132.907383 C60.3713024,131.603679 60,130.310534 60,126.744459 L60,99.2555408 C60,95.6894658 60.3713024,94.3963209 61.0685308,93.0926172 C61.7657592,91.7889135 62.7889135,90.7657592 64.0926172,90.0685308 C65.3963209,89.3713024 66.6894658,89 70.2555408,89 Z" id="Rectangle" fill="#FFFFFF"></path>
                </g>
            </g>
        </g>
    </g>
</svg>