<?xml version="1.0" encoding="UTF-8"?>
<svg width="270px" height="140px" viewBox="0 0 270 140" version="1.1" xmlns="http://www.w3.org/2000/svg" xmlns:xlink="http://www.w3.org/1999/xlink">
    <title>Views/Alerts/Light/Text Field</title>
    <defs>
        <filter color-interpolation-filters="auto" id="filter-1">
            <feColorMatrix in="SourceGraphic" type="matrix" values="0 0 0 0 0.039216 0 0 0 0 0.478431 0 0 0 0 1.000000 0 0 0 1.000000 0"></feColorMatrix>
        </filter>
        <filter color-interpolation-filters="auto" id="filter-2">
            <feColorMatrix in="SourceGraphic" type="matrix" values="0 0 0 0 0.039216 0 0 0 0 0.478431 0 0 0 0 1.000000 0 0 0 1.000000 0"></feColorMatrix>
        </filter>
    </defs>
    <g id="Page-1" stroke="none" stroke-width="1" fill="none" fill-rule="evenodd">
        <g id="Views/Alerts/Light/Text-Field">
            <g id="Background" fill="#F2F2F2" fill-opacity="0.8">
                <path d="M17.9471964,1.08858006e-15 L252.052804,7.25088215e-16 C258.293435,-4.21297134e-16 260.556438,0.649779278 262.83792,1.86992893 C265.119401,3.09007857 266.909921,4.88059859 268.130071,7.16208008 C269.350221,9.44356156 270,11.7065652 270,17.9471964 L270,122.052804 C270,128.293435 269.350221,130.556438 268.130071,132.83792 C266.909921,135.119401 265.119401,136.909921 262.83792,138.130071 C260.556438,139.350221 258.293435,140 252.052804,140 L17.9471964,140 C11.7065652,140 9.44356156,139.350221 7.16208008,138.130071 C4.88059859,136.909921 3.09007857,135.119401 1.86992893,132.83792 C0.649779278,130.556438 1.86155501e-15,128.293435 -3.20389456e-15,122.052804 L4.83392144e-16,17.9471964 C-2.80864756e-16,11.7065652 0.649779278,9.44356156 1.86992893,7.16208008 C3.09007857,4.88059859 4.88059859,3.09007857 7.16208008,1.86992893 C9.44356156,0.649779278 11.7065652,-6.32496366e-16 17.9471964,1.08858006e-15 Z" id="Platter"></path>
            </g>
            <g id="Bottom-Actions" transform="translate(0.000000, 96.000000)">
                <g id="Right-Action" transform="translate(135.000000, 0.000000)">
                    <rect id="Top-Border" fill-opacity="0.36" fill="#3C3C43" x="0" y="0" width="135" height="1"></rect>
                    <g filter="url(#filter-1)" id="Label">
                        <g transform="translate(12.202049, 15.967773)">
                            <path d="M5.66943359,13.3310547 C9.1640625,13.3310547 11.3305664,10.8989258 11.3305664,7.0390625 C11.3305664,3.17089844 9.15576172,0.755371094 5.66943359,0.755371094 C2.19140625,0.755371094 0,3.17089844 0,7.0390625 C0,10.8989258 2.15820312,13.3310547 5.66943359,13.3310547 Z M5.66943359,11.4799805 C3.51123047,11.4799805 2.19140625,9.73681641 2.19140625,7.0390625 C2.19140625,4.32470703 3.54443359,2.60644531 5.66943359,2.60644531 C7.79443359,2.60644531 9.14746094,4.32470703 9.14746094,7.0390625 C9.14746094,9.73681641 7.80273438,11.4799805 5.66943359,11.4799805 Z M15.2140703,16.0454102 L15.2140703,11.6542969 L15.3551836,11.6542969 C15.8200273,12.6171875 16.8244219,13.1816406 18.1276445,13.1816406 C20.4186602,13.1816406 21.8463945,11.3803711 21.8463945,8.5 C21.8463945,5.59472656 20.4020586,3.81005859 18.1027422,3.81005859 C16.857625,3.81005859 15.8034258,4.43261719 15.2804766,5.46191406 L15.1393633,5.46191406 L15.1393633,3.95947266 L13.1554766,3.95947266 L13.1554766,16.0454102 L15.2140703,16.0454102 Z M17.4552812,11.4716797 C16.0524492,11.4716797 15.1808672,10.3344727 15.1725664,8.5 C15.1808672,6.66552734 16.06075,5.52832031 17.463582,5.52832031 C18.8747148,5.52832031 19.7296953,6.640625 19.7296953,8.5 C19.7296953,10.359375 18.8830156,11.4716797 17.4552812,11.4716797 Z M27.34025,13.2148438 C29.4818516,13.2148438 31.0008945,12.1855469 31.3744297,10.550293 L29.4237461,10.550293 C29.124918,11.230957 28.4193516,11.612793 27.3983555,11.612793 C26.0453281,11.612793 25.1737461,10.6499023 25.1239414,9.11425781 L25.1239414,9.00634766 L31.4657383,9.00634766 L31.4657383,8.35058594 C31.4657383,5.50341797 29.9134922,3.78515625 27.3236484,3.78515625 C24.6923008,3.78515625 23.0570469,5.61962891 23.0570469,8.53320312 C23.0570469,11.4384766 24.6673984,13.2148438 27.34025,13.2148438 Z M29.4071445,7.63671875 L25.1322422,7.63671875 C25.2235508,6.27539062 26.086832,5.38720703 27.3153477,5.38720703 C28.5521641,5.38720703 29.3656406,6.25878906 29.4071445,7.63671875 Z M35.1832266,13.0322266 L35.1832266,7.74462891 C35.1832266,6.38330078 35.9551992,5.52832031 37.1837148,5.52832031 C38.4371328,5.52832031 39.0181875,6.23388672 39.0181875,7.64501953 L39.0181875,13.0322266 L41.0767813,13.0322266 L41.0767813,7.16357422 C41.0767813,5.00537109 39.9727773,3.78515625 37.9473867,3.78515625 C36.5943594,3.78515625 35.6812734,4.39941406 35.2496328,5.41210938 L35.1085195,5.41210938 L35.1085195,3.95947266 L33.1246328,3.95947266 L33.1246328,13.0322266 L35.1832266,13.0322266 Z M51.5747461,13.3310547 C54.4800195,13.3310547 56.2812891,11.8867188 56.2812891,9.5625 C56.2812891,7.74462891 55.260293,6.73193359 52.8281641,6.17578125 L51.4502344,5.86035156 C49.9643945,5.51171875 49.3584375,5.03857422 49.3584375,4.21679688 C49.3584375,3.17919922 50.2715234,2.49853516 51.6494531,2.49853516 C52.9609766,2.49853516 53.8906641,3.17089844 54.0400781,4.24169922 L56.0903711,4.24169922 C55.9907617,2.19140625 54.1728906,0.755371094 51.6577539,0.755371094 C48.9766016,0.755371094 47.2002344,2.19970703 47.2002344,4.35791016 C47.2002344,6.13427734 48.2212305,7.20507812 50.3960352,7.703125 L51.9482813,8.06005859 C53.4839258,8.41699219 54.1396875,8.94824219 54.1396875,9.81982422 C54.1396875,10.8408203 53.1186914,11.5795898 51.7075586,11.5795898 C50.1885156,11.5795898 49.1260156,10.8823242 48.9932031,9.78662109 L46.9014063,9.78662109 C47.0093164,11.953125 48.8271875,13.3310547 51.5747461,13.3310547 Z M61.8996562,13.2148438 C64.0412578,13.2148438 65.5603008,12.1855469 65.9338359,10.550293 L63.9831523,10.550293 C63.6843242,11.230957 62.9787578,11.612793 61.9577617,11.612793 C60.6047344,11.612793 59.7331523,10.6499023 59.6833477,9.11425781 L59.6833477,9.00634766 L66.0251445,9.00634766 L66.0251445,8.35058594 C66.0251445,5.50341797 64.4728984,3.78515625 61.8830547,3.78515625 C59.251707,3.78515625 57.6164531,5.61962891 57.6164531,8.53320312 C57.6164531,11.4384766 59.2268047,13.2148438 61.8996562,13.2148438 Z M63.9665508,7.63671875 L59.6916484,7.63671875 C59.782957,6.27539062 60.6462383,5.38720703 61.8747539,5.38720703 C63.1115703,5.38720703 63.9250469,6.25878906 63.9665508,7.63671875 Z M71.253375,13.0737305 C71.6518125,13.0737305 72.0336484,13.0405273 72.3324766,12.9824219 L72.3324766,11.4052734 C72.0834531,11.4301758 71.9257383,11.4467773 71.6352109,11.4467773 C70.7719297,11.4467773 70.3900938,11.0400391 70.3900938,10.1352539 L70.3900938,5.61962891 L72.3324766,5.61962891 L72.3324766,4.01757812 L70.3900938,4.01757812 L70.3900938,1.73486328 L68.3398008,1.73486328 L68.3398008,4.01757812 L66.9037656,4.01757812 L66.9037656,5.61962891 L68.3398008,5.61962891 L68.3398008,10.625 C68.3398008,12.3764648 69.1698789,13.0737305 71.253375,13.0737305 Z M77.6022109,13.0737305 C78.0006484,13.0737305 78.3824844,13.0405273 78.6813125,12.9824219 L78.6813125,11.4052734 C78.4322891,11.4301758 78.2745742,11.4467773 77.9840469,11.4467773 C77.1207656,11.4467773 76.7389297,11.0400391 76.7389297,10.1352539 L76.7389297,5.61962891 L78.6813125,5.61962891 L78.6813125,4.01757812 L76.7389297,4.01757812 L76.7389297,1.73486328 L74.6886367,1.73486328 L74.6886367,4.01757812 L73.2526016,4.01757812 L73.2526016,5.61962891 L74.6886367,5.61962891 L74.6886367,10.625 C74.6886367,12.3764648 75.5187148,13.0737305 77.6022109,13.0737305 Z M81.3778047,2.44042969 C82.0584688,2.44042969 82.6146211,1.90087891 82.6146211,1.22021484 C82.6146211,0.547851562 82.0584688,0 81.3778047,0 C80.7054414,0 80.1492891,0.547851562 80.1492891,1.22021484 C80.1492891,1.90087891 80.7054414,2.44042969 81.3778047,2.44042969 Z M82.4071016,13.0322266 L82.4071016,3.95947266 L80.3568086,3.95947266 L80.3568086,13.0322266 L82.4071016,13.0322266 Z M86.6060352,13.0322266 L86.6060352,7.74462891 C86.6060352,6.38330078 87.3780078,5.52832031 88.6065234,5.52832031 C89.8599414,5.52832031 90.4409961,6.23388672 90.4409961,7.64501953 L90.4409961,13.0322266 L92.4995898,13.0322266 L92.4995898,7.16357422 C92.4995898,5.00537109 91.3955859,3.78515625 89.3701953,3.78515625 C88.017168,3.78515625 87.104082,4.39941406 86.6724414,5.41210938 L86.5313281,5.41210938 L86.5313281,3.95947266 L84.5474414,3.95947266 L84.5474414,13.0322266 L86.6060352,13.0322266 Z M98.4333867,16.4853516 C101.081336,16.4853516 102.758094,15.1655273 102.758094,13.0820312 L102.758094,3.95947266 L100.774207,3.95947266 L100.774207,5.41210938 L100.633094,5.41210938 C100.135047,4.42431641 99.0559453,3.81005859 97.8191289,3.81005859 C95.5032109,3.81005859 94.0671758,5.61962891 94.0671758,8.40039062 C94.0671758,11.1230469 95.4949102,12.8994141 97.7859258,12.8994141 C99.0476445,12.8994141 100.035438,12.3681641 100.558387,11.3886719 L100.6995,11.3886719 L100.6995,13.1152344 C100.6995,14.269043 99.8777227,14.949707 98.4665898,14.949707 C97.3376836,14.949707 96.6072148,14.5429688 96.4744023,13.9038086 L94.4075078,13.9038086 C94.5735234,15.4643555 96.1008672,16.4853516 98.4333867,16.4853516 Z M98.4333867,11.2641602 C96.9973516,11.2641602 96.183875,10.1518555 96.183875,8.39208984 C96.183875,6.640625 96.9973516,5.52832031 98.4333867,5.52832031 C99.8611211,5.52832031 100.732703,6.640625 100.732703,8.40039062 C100.732703,10.1518555 99.8694219,11.2641602 98.4333867,11.2641602 Z M108.285152,13.2148438 C110.551266,13.2148438 112.153316,12.0610352 112.153316,10.3261719 C112.153316,8.98974609 111.348141,8.25097656 109.613277,7.85253906 L108.011227,7.49560547 C107.098141,7.27978516 106.6665,6.95605469 106.6665,6.44140625 C106.6665,5.76904297 107.372066,5.3125 108.310055,5.3125 C109.272945,5.3125 109.878902,5.72753906 110.028316,6.36669922 L111.962398,6.36669922 C111.812984,4.73144531 110.459957,3.78515625 108.301754,3.78515625 C106.160152,3.78515625 104.666012,4.92236328 104.666012,6.54931641 C104.666012,7.91064453 105.487789,8.70751953 107.230953,9.10595703 L108.841305,9.47949219 C109.704586,9.67871094 110.094723,10.0107422 110.094723,10.5253906 C110.094723,11.2143555 109.372555,11.6875 108.334957,11.6875 C107.30566,11.6875 106.6665,11.2724609 106.467281,10.6000977 L104.43359,10.6000977 C104.591305,12.2353516 106.019039,13.2148438 108.285152,13.2148438 Z" id="OpenSettings" fill="#000000" fill-rule="nonzero"></path>
                        </g>
                    </g>
                </g>
                <g id="Left-Action">
                    <rect id="Top-Border" fill-opacity="0.36" fill="#3C3C43" x="0" y="0" width="135" height="1"></rect>
                    <g filter="url(#filter-2)" id="Label">
                        <g transform="translate(41.500000, 12.000000)">
                            <path d="M6.58606055,17.2822266 C9.13440039,17.2822266 11.0269785,15.862793 11.425416,13.6630859 L9.90637305,13.6630859 C9.52453711,15.0493164 8.25451758,15.9042969 6.58606055,15.9042969 C4.27844336,15.9042969 2.83410742,14.0200195 2.83410742,11.0151367 C2.83410742,8.01025391 4.27844336,6.11767578 6.57775977,6.11767578 C8.22961523,6.11767578 9.50793555,7.08886719 9.90637305,8.6328125 L11.425416,8.6328125 C11.0684824,6.32519531 9.10119727,4.73974609 6.57775977,4.73974609 C3.32385352,4.73974609 1.29846289,7.14697266 1.29846289,11.0151367 C1.29846289,14.875 3.3321543,17.2822266 6.58606055,17.2822266 Z M15.8318691,17.1577148 C17.0271816,17.1577148 18.0066738,16.6347656 18.5877285,15.6801758 L18.720541,15.6801758 L18.720541,17 L20.0818691,17 L20.0818691,10.8740234 C20.0818691,9.01464844 18.8616543,7.89404297 16.6785488,7.89404297 C14.7693691,7.89404297 13.3582363,8.84033203 13.1673184,10.2763672 L14.6116543,10.2763672 C14.810873,9.57080078 15.5579434,9.1640625 16.6287441,9.1640625 C17.9651699,9.1640625 18.6541348,9.77001953 18.6541348,10.8740234 L18.6541348,11.6875 L16.0725918,11.8452148 C13.9890957,11.9697266 12.8103848,12.8911133 12.8103848,14.4931641 C12.8103848,16.128418 14.0970059,17.1577148 15.8318691,17.1577148 Z M16.0974941,15.9042969 C15.0598965,15.9042969 14.2879238,15.3730469 14.2879238,14.4599609 C14.2879238,13.5634766 14.8855801,13.090332 16.2469082,12.9990234 L18.6541348,12.8413086 L18.6541348,13.6630859 C18.6541348,14.9414062 17.5667324,15.9042969 16.0974941,15.9042969 Z M23.741252,17 L23.741252,11.7041016 C23.741252,10.1352539 24.6626387,9.18066406 26.090373,9.18066406 C27.5181074,9.18066406 28.1987715,9.94433594 28.1987715,11.5546875 L28.1987715,17 L29.6265059,17 L29.6265059,11.2060547 C29.6265059,9.08105469 28.5059004,7.89404297 26.4971113,7.89404297 C25.1274824,7.89404297 24.2559004,8.47509766 23.8076582,9.46289062 L23.6748457,9.46289062 L23.6748457,8.05175781 L22.3135176,8.05175781 L22.3135176,17 L23.741252,17 Z M35.4855957,17.1577148 C37.635498,17.1577148 38.9719238,15.9458008 39.229248,14.3022461 L37.7849121,14.3022461 C37.5192871,15.3149414 36.6809082,15.8710938 35.4772949,15.8710938 C33.8835449,15.8710938 32.854248,14.5595703 32.854248,12.4926758 C32.854248,10.4672852 33.8669434,9.18066406 35.4772949,9.18066406 C36.763916,9.18066406 37.5524902,9.90283203 37.7849121,10.7910156 L39.229248,10.7910156 C38.9802246,9.19726562 37.6520996,7.89404297 35.4772949,7.89404297 C32.970459,7.89404297 31.376709,9.70361328 31.376709,12.4926758 C31.376709,15.3398438 32.9787598,17.1577148 35.4855957,17.1577148 Z M44.515584,17.1577148 C46.4745684,17.1577148 47.8690996,16.2114258 48.2841387,14.684082 L46.8564043,14.684082 C46.4828691,15.4726562 45.7025957,15.8959961 44.5487871,15.8959961 C43.0297441,15.8959961 42.0419512,14.7753906 41.9672441,13.0073242 L41.9672441,12.940918 L48.4003496,12.940918 L48.4003496,12.3930664 C48.4003496,9.61230469 46.9311113,7.89404297 44.515584,7.89404297 C42.0585527,7.89404297 40.4814043,9.72021484 40.4814043,12.5341797 C40.4814043,15.3647461 42.0336504,17.1577148 44.515584,17.1577148 Z M46.8979082,11.7871094 L41.9672441,11.7871094 C42.0751543,10.2016602 43.071248,9.15576172 44.4989824,9.15576172 C45.918416,9.15576172 46.8647051,10.2016602 46.8979082,11.7871094 Z M51.7443027,17 L51.7443027,4.49902344 L50.3165684,4.49902344 L50.3165684,17 L51.7443027,17 Z" id="Cancel" fill="#000000" fill-rule="nonzero"></path>
                        </g>
                    </g>
                </g>
                <rect id="Separator" fill-opacity="0.36" fill="#3C3C43" x="134.5" y="0.5" width="1" height="43.5"></rect>
                <rect id="Top-Border" fill-opacity="0.36" fill="#3C3C43" x="0" y="0" width="270" height="1"></rect>
            </g>
            <path d="M41.0045918,56 L41.0045918,52.730957 L43.308791,52.730957 C45.0290059,52.730957 46.2541035,51.5185547 46.2541035,49.8046875 C46.2541035,48.059082 45.0543965,46.840332 43.3214863,46.840332 L39.8620137,46.840332 L39.8620137,56 L41.0045918,56 Z M43.0231465,51.715332 L41.0045918,51.715332 L41.0045918,47.855957 L43.0231465,47.855957 C44.3498066,47.855957 45.0797871,48.5478516 45.0797871,49.8046875 C45.0797871,51.0170898 44.324416,51.715332 43.0231465,51.715332 Z M49.0579395,56 L49.0579395,46.4404297 L47.9661426,46.4404297 L47.9661426,56 L49.0579395,56 Z M53.8422441,56.1206055 C55.340291,56.1206055 56.4066973,55.3969727 56.7240801,54.2290039 L55.6322832,54.2290039 C55.3466387,54.8320312 54.749959,55.1557617 53.8676348,55.1557617 C52.7060137,55.1557617 51.9506426,54.2988281 51.8935137,52.9467773 L51.8935137,52.8959961 L56.8129473,52.8959961 L56.8129473,52.4770508 C56.8129473,50.3505859 55.6894121,49.0366211 53.8422441,49.0366211 C51.9633379,49.0366211 50.7572832,50.4331055 50.7572832,52.5849609 C50.7572832,54.7495117 51.9442949,56.1206055 53.8422441,56.1206055 Z M55.6640215,52.0136719 L51.8935137,52.0136719 C51.9760332,50.8012695 52.737752,50.0014648 53.8295488,50.0014648 C54.914998,50.0014648 55.6386309,50.8012695 55.6640215,52.0136719 Z M60.3531113,56.1206055 C61.2671738,56.1206055 62.0161973,55.7207031 62.4605332,54.9907227 L62.5620957,54.9907227 L62.5620957,56 L63.6031113,56 L63.6031113,51.3154297 C63.6031113,49.8935547 62.6700059,49.0366211 61.0005723,49.0366211 C59.5406113,49.0366211 58.4615098,49.7602539 58.3155137,50.8583984 L59.4200059,50.8583984 C59.5723496,50.3188477 60.1436387,50.0078125 60.9624863,50.0078125 C61.984459,50.0078125 62.5113145,50.4711914 62.5113145,51.3154297 L62.5113145,51.9375 L60.5371934,52.0581055 C58.9439316,52.1533203 58.0425645,52.8579102 58.0425645,54.0830078 C58.0425645,55.3334961 59.0264512,56.1206055 60.3531113,56.1206055 Z M60.5562363,55.1621094 C59.7627793,55.1621094 59.1724473,54.7558594 59.1724473,54.0576172 C59.1724473,53.3720703 59.6294785,53.0102539 60.6704941,52.9404297 L62.5113145,52.8198242 L62.5113145,53.4482422 C62.5113145,54.4257812 61.6797715,55.1621094 60.5562363,55.1621094 Z M67.8922988,56.1206055 C69.4474746,56.1206055 70.6344863,55.2763672 70.6344863,54.0512695 C70.6344863,53.0673828 70.012416,52.5087891 68.7238418,52.1977539 L67.6701309,51.9438477 C66.8639785,51.7470703 66.4831191,51.4550781 66.4831191,50.9853516 C66.4831191,50.3759766 67.1178848,49.9633789 67.9303848,49.9633789 C68.7555801,49.9633789 69.2887832,50.3251953 69.4347793,50.8710938 L70.5138809,50.8710938 C70.3678848,49.7475586 69.3713027,49.0366211 67.9367324,49.0366211 C66.4831191,49.0366211 65.3849746,49.8935547 65.3849746,51.0297852 C65.3849746,52.0200195 65.968959,52.5722656 67.2511855,52.8833008 L68.425502,53.1689453 C69.1554824,53.3466797 69.5109512,53.6640625 69.5109512,54.1337891 C69.5109512,54.762207 68.8507949,55.2001953 67.9303848,55.2001953 C67.0544082,55.2001953 66.5085098,54.8320312 66.3244277,54.2543945 L65.2008926,54.2543945 C65.321498,55.390625 66.3688613,56.1206055 67.8922988,56.1206055 Z M75.012541,56.1206055 C76.5105879,56.1206055 77.5769941,55.3969727 77.894377,54.2290039 L76.8025801,54.2290039 C76.5169355,54.8320312 75.9202559,55.1557617 75.0379316,55.1557617 C73.8763105,55.1557617 73.1209395,54.2988281 73.0638105,52.9467773 L73.0638105,52.8959961 L77.9832441,52.8959961 L77.9832441,52.4770508 C77.9832441,50.3505859 76.859709,49.0366211 75.012541,49.0366211 C73.1336348,49.0366211 71.9275801,50.4331055 71.9275801,52.5849609 C71.9275801,54.7495117 73.1145918,56.1206055 75.012541,56.1206055 Z M76.8343184,52.0136719 L73.0638105,52.0136719 C73.1463301,50.8012695 73.9080488,50.0014648 74.9998457,50.0014648 C76.0852949,50.0014648 76.8089277,50.8012695 76.8343184,52.0136719 Z M80.3110059,58.3295898 L81.3075879,54.7177734 L80.0951855,54.7177734 L79.4921582,58.3295898 L80.3110059,58.3295898 Z M89.809791,58.6279297 C91.676002,58.6279297 92.856666,57.6503906 92.856666,56.1206055 L92.856666,49.1572266 L91.8156504,49.1572266 L91.8156504,50.2426758 L91.7140879,50.2426758 C91.3205332,49.5063477 90.4762949,49.0366211 89.5177988,49.0366211 C87.759498,49.0366211 86.6486582,50.4267578 86.6486582,52.4770508 C86.6486582,54.5273438 87.7468027,55.8984375 89.5177988,55.8984375 C90.457252,55.8984375 91.231666,55.4731445 91.6633066,54.7177734 L91.7648691,54.7177734 L91.7648691,56.0634766 C91.7648691,57.0727539 91.0348887,57.6757812 89.809791,57.6757812 C88.8259043,57.6757812 88.2165293,57.3139648 88.0959238,56.7553711 L86.9406504,56.7553711 C87.1056895,57.8852539 88.1594004,58.6279297 89.809791,58.6279297 Z M89.7590098,54.9335938 C88.4894785,54.9335938 87.778541,53.96875 87.778541,52.4770508 C87.778541,50.9853516 88.4894785,50.0205078 89.7590098,50.0205078 C91.0221934,50.0205078 91.7902598,50.9853516 91.7902598,52.4770508 C91.7902598,53.96875 91.028541,54.9335938 89.7590098,54.9335938 Z M97.6473184,56.1206055 C99.5960488,56.1206055 100.802104,54.7749023 100.802104,52.5786133 C100.802104,50.3759766 99.5960488,49.0366211 97.6473184,49.0366211 C95.6985879,49.0366211 94.4925332,50.3759766 94.4925332,52.5786133 C94.4925332,54.7749023 95.6985879,56.1206055 97.6473184,56.1206055 Z M97.6473184,55.1367188 C96.3523965,55.1367188 95.622416,54.1972656 95.622416,52.5786133 C95.622416,50.9536133 96.3523965,50.0205078 97.6473184,50.0205078 C98.9422402,50.0205078 99.6722207,50.9536133 99.6722207,52.5786133 C99.6722207,54.1972656 98.9422402,55.1367188 97.6473184,55.1367188 Z M108.460068,56.0507812 C108.675889,56.0507812 108.885361,56.0253906 109.101182,55.9873047 L109.101182,55.0668945 C108.898057,55.0859375 108.790146,55.0922852 108.593369,55.0922852 C107.882432,55.0922852 107.577744,54.7495117 107.577744,53.9433594 L107.577744,50.0712891 L109.101182,50.0712891 L109.101182,49.1572266 L107.577744,49.1572266 L107.577744,47.3862305 L106.485947,47.3862305 L106.485947,49.1572266 L105.381455,49.1572266 L105.381455,50.0712891 L106.485947,50.0712891 L106.485947,54.2226562 C106.485947,55.5302734 107.050889,56.0507812 108.460068,56.0507812 Z M113.390369,56.1206055 C115.3391,56.1206055 116.545154,54.7749023 116.545154,52.5786133 C116.545154,50.3759766 115.3391,49.0366211 113.390369,49.0366211 C111.441639,49.0366211 110.235584,50.3759766 110.235584,52.5786133 C110.235584,54.7749023 111.441639,56.1206055 113.390369,56.1206055 Z M113.390369,55.1367188 C112.095447,55.1367188 111.365467,54.1972656 111.365467,52.5786133 C111.365467,50.9536133 112.095447,50.0205078 113.390369,50.0205078 C114.685291,50.0205078 115.415271,50.9536133 115.415271,52.5786133 C115.415271,54.1972656 114.685291,55.1367188 113.390369,55.1367188 Z M124.875971,56.2158203 C126.970697,56.2158203 128.297357,55.1430664 128.297357,53.4609375 C128.297357,52.1152344 127.535639,51.3789062 125.637689,50.902832 L124.679193,50.6489258 C123.41601,50.3251953 122.914545,49.9125977 122.914545,49.1953125 C122.914545,48.2685547 123.720697,47.6591797 124.939447,47.6591797 C126.082025,47.6591797 126.856439,48.2177734 127.015131,49.1572266 L128.164057,49.1572266 C128.068842,47.6782227 126.748529,46.6245117 124.977533,46.6245117 C123.041498,46.6245117 121.740229,47.6782227 121.740229,49.2333984 C121.740229,50.534668 122.457514,51.2836914 124.114252,51.7026367 L125.288568,52.0073242 C126.551752,52.324707 127.123041,52.8198242 127.123041,53.6005859 C127.123041,54.5083008 126.215326,55.1748047 124.983881,55.1748047 C123.682611,55.1748047 122.768549,54.5654297 122.6289,53.6069336 L121.473627,53.6069336 C121.594232,55.1875 122.933588,56.2158203 124.875971,56.2158203 Z M132.719846,56.1206055 C134.217893,56.1206055 135.284299,55.3969727 135.601682,54.2290039 L134.509885,54.2290039 C134.22424,54.8320312 133.627561,55.1557617 132.745236,55.1557617 C131.583615,55.1557617 130.828244,54.2988281 130.771115,52.9467773 L130.771115,52.8959961 L135.690549,52.8959961 L135.690549,52.4770508 C135.690549,50.3505859 134.567014,49.0366211 132.719846,49.0366211 C130.840939,49.0366211 129.634885,50.4331055 129.634885,52.5849609 C129.634885,54.7495117 130.821896,56.1206055 132.719846,56.1206055 Z M134.541623,52.0136719 L130.771115,52.0136719 C130.853635,50.8012695 131.615354,50.0014648 132.70715,50.0014648 C133.7926,50.0014648 134.516232,50.8012695 134.541623,52.0136719 Z M139.757568,56.0507812 C139.973389,56.0507812 140.182861,56.0253906 140.398682,55.9873047 L140.398682,55.0668945 C140.195557,55.0859375 140.087646,55.0922852 139.890869,55.0922852 C139.179932,55.0922852 138.875244,54.7495117 138.875244,53.9433594 L138.875244,50.0712891 L140.398682,50.0712891 L140.398682,49.1572266 L138.875244,49.1572266 L138.875244,47.3862305 L137.783447,47.3862305 L137.783447,49.1572266 L136.678955,49.1572266 L136.678955,50.0712891 L137.783447,50.0712891 L137.783447,54.2226562 C137.783447,55.5302734 138.348389,56.0507812 139.757568,56.0507812 Z M144.402225,56.0507812 C144.618045,56.0507812 144.827518,56.0253906 145.043338,55.9873047 L145.043338,55.0668945 C144.840213,55.0859375 144.732303,55.0922852 144.535525,55.0922852 C143.824588,55.0922852 143.5199,54.7495117 143.5199,53.9433594 L143.5199,50.0712891 L145.043338,50.0712891 L145.043338,49.1572266 L143.5199,49.1572266 L143.5199,47.3862305 L142.428104,47.3862305 L142.428104,49.1572266 L141.323611,49.1572266 L141.323611,50.0712891 L142.428104,50.0712891 L142.428104,54.2226562 C142.428104,55.5302734 142.993045,56.0507812 144.402225,56.0507812 Z M147.187018,47.8369141 C147.605963,47.8369141 147.948736,47.4941406 147.948736,47.0751953 C147.948736,46.65625 147.605963,46.3134766 147.187018,46.3134766 C146.768072,46.3134766 146.425299,46.65625 146.425299,47.0751953 C146.425299,47.4941406 146.768072,47.8369141 147.187018,47.8369141 Z M147.732916,56 L147.732916,49.1572266 L146.641119,49.1572266 L146.641119,56 L147.732916,56 Z M150.828744,56 L150.828744,51.9501953 C150.828744,50.7504883 151.533334,50.0205078 152.625131,50.0205078 C153.716928,50.0205078 154.237436,50.6044922 154.237436,51.8359375 L154.237436,56 L155.329232,56 L155.329232,51.5693359 C155.329232,49.9443359 154.472299,49.0366211 152.936166,49.0366211 C151.888803,49.0366211 151.222299,49.480957 150.879525,50.2363281 L150.777963,50.2363281 L150.777963,49.1572266 L149.736947,49.1572266 L149.736947,56 L150.828744,56 Z M160.062756,58.6279297 C161.928967,58.6279297 163.109631,57.6503906 163.109631,56.1206055 L163.109631,49.1572266 L162.068615,49.1572266 L162.068615,50.2426758 L161.967053,50.2426758 C161.573498,49.5063477 160.72926,49.0366211 159.770764,49.0366211 C158.012463,49.0366211 156.901623,50.4267578 156.901623,52.4770508 C156.901623,54.5273438 157.999768,55.8984375 159.770764,55.8984375 C160.710217,55.8984375 161.484631,55.4731445 161.916271,54.7177734 L162.017834,54.7177734 L162.017834,56.0634766 C162.017834,57.0727539 161.287854,57.6757812 160.062756,57.6757812 C159.078869,57.6757812 158.469494,57.3139648 158.348889,56.7553711 L157.193615,56.7553711 C157.358654,57.8852539 158.412365,58.6279297 160.062756,58.6279297 Z M160.011975,54.9335938 C158.742443,54.9335938 158.031506,53.96875 158.031506,52.4770508 C158.031506,50.9853516 158.742443,50.0205078 160.011975,50.0205078 C161.275158,50.0205078 162.043225,50.9853516 162.043225,52.4770508 C162.043225,53.96875 161.281506,54.9335938 160.011975,54.9335938 Z M167.436904,56.1206055 C168.99208,56.1206055 170.179092,55.2763672 170.179092,54.0512695 C170.179092,53.0673828 169.557021,52.5087891 168.268447,52.1977539 L167.214736,51.9438477 C166.408584,51.7470703 166.027725,51.4550781 166.027725,50.9853516 C166.027725,50.3759766 166.66249,49.9633789 167.47499,49.9633789 C168.300186,49.9633789 168.833389,50.3251953 168.979385,50.8710938 L170.058486,50.8710938 C169.91249,49.7475586 168.915908,49.0366211 167.481338,49.0366211 C166.027725,49.0366211 164.92958,49.8935547 164.92958,51.0297852 C164.92958,52.0200195 165.513564,52.5722656 166.795791,52.8833008 L167.970107,53.1689453 C168.700088,53.3466797 169.055557,53.6640625 169.055557,54.1337891 C169.055557,54.762207 168.3954,55.2001953 167.47499,55.2001953 C166.599014,55.2001953 166.053115,54.8320312 165.869033,54.2543945 L164.745498,54.2543945 C164.866104,55.390625 165.913467,56.1206055 167.436904,56.1206055 Z M177.310201,56.1206055 C178.224264,56.1206055 178.973287,55.7207031 179.417623,54.9907227 L179.519186,54.9907227 L179.519186,56 L180.560201,56 L180.560201,51.3154297 C180.560201,49.8935547 179.627096,49.0366211 177.957662,49.0366211 C176.497701,49.0366211 175.4186,49.7602539 175.272604,50.8583984 L176.377096,50.8583984 C176.529439,50.3188477 177.100729,50.0078125 177.919576,50.0078125 C178.941549,50.0078125 179.468404,50.4711914 179.468404,51.3154297 L179.468404,51.9375 L177.494283,52.0581055 C175.901021,52.1533203 174.999654,52.8579102 174.999654,54.0830078 C174.999654,55.3334961 175.983541,56.1206055 177.310201,56.1206055 Z M177.513326,55.1621094 C176.719869,55.1621094 176.129537,54.7558594 176.129537,54.0576172 C176.129537,53.3720703 176.586568,53.0102539 177.627584,52.9404297 L179.468404,52.8198242 L179.468404,53.4482422 C179.468404,54.4257812 178.636861,55.1621094 177.513326,55.1621094 Z M183.592553,56 L183.592553,51.9501953 C183.592553,50.7504883 184.297143,50.0205078 185.388939,50.0205078 C186.480736,50.0205078 187.001244,50.6044922 187.001244,51.8359375 L187.001244,56 L188.093041,56 L188.093041,51.5693359 C188.093041,49.9443359 187.236107,49.0366211 185.699975,49.0366211 C184.652611,49.0366211 183.986107,49.480957 183.643334,50.2363281 L183.541771,50.2363281 L183.541771,49.1572266 L182.500756,49.1572266 L182.500756,56 L183.592553,56 Z M192.54092,56.1206055 C193.486721,56.1206055 194.299221,55.6699219 194.730861,54.9082031 L194.832424,54.9082031 L194.832424,56 L195.873439,56 L195.873439,46.4404297 L194.781643,46.4404297 L194.781643,50.2363281 L194.686428,50.2363281 C194.299221,49.4873047 193.493068,49.0366211 192.54092,49.0366211 C190.801662,49.0366211 189.665432,50.4331055 189.665432,52.5786133 C189.665432,54.7304688 190.788967,56.1206055 192.54092,56.1206055 Z M192.794826,55.1367188 C191.544338,55.1367188 190.795314,54.1782227 190.795314,52.5786133 C190.795314,50.9853516 191.550686,50.0205078 192.794826,50.0205078 C194.032619,50.0205078 194.807033,51.0107422 194.807033,52.5786133 C194.807033,54.1591797 194.038967,55.1367188 192.794826,55.1367188 Z M203.410799,56.1206055 C204.324861,56.1206055 205.073885,55.7207031 205.518221,54.9907227 L205.619783,54.9907227 L205.619783,56 L206.660799,56 L206.660799,51.3154297 C206.660799,49.8935547 205.727693,49.0366211 204.05826,49.0366211 C202.598299,49.0366211 201.519197,49.7602539 201.373201,50.8583984 L202.477693,50.8583984 C202.630037,50.3188477 203.201326,50.0078125 204.020174,50.0078125 C205.042146,50.0078125 205.569002,50.4711914 205.569002,51.3154297 L205.569002,51.9375 L203.594881,52.0581055 C202.001619,52.1533203 201.100252,52.8579102 201.100252,54.0830078 C201.100252,55.3334961 202.084139,56.1206055 203.410799,56.1206055 Z M203.613924,55.1621094 C202.820467,55.1621094 202.230135,54.7558594 202.230135,54.0576172 C202.230135,53.3720703 202.687166,53.0102539 203.728182,52.9404297 L205.569002,52.8198242 L205.569002,53.4482422 C205.569002,54.4257812 204.737459,55.1621094 203.613924,55.1621094 Z M209.756627,56 L209.756627,46.4404297 L208.66483,46.4404297 L208.66483,56 L209.756627,56 Z M212.954018,56 L212.954018,46.4404297 L211.862221,46.4404297 L211.862221,56 L212.954018,56 Z M217.808146,56.1206055 C219.756877,56.1206055 220.962932,54.7749023 220.962932,52.5786133 C220.962932,50.3759766 219.756877,49.0366211 217.808146,49.0366211 C215.859416,49.0366211 214.653361,50.3759766 214.653361,52.5786133 C214.653361,54.7749023 215.859416,56.1206055 217.808146,56.1206055 Z M217.808146,55.1367188 C216.513225,55.1367188 215.783244,54.1972656 215.783244,52.5786133 C215.783244,50.9536133 216.513225,50.0205078 217.808146,50.0205078 C219.103068,50.0205078 219.833049,50.9536133 219.833049,52.5786133 C219.833049,54.1972656 219.103068,55.1367188 217.808146,55.1367188 Z M224.769697,56 L226.293135,50.7060547 L226.394697,50.7060547 L227.924482,56 L229.035322,56 L230.952314,49.1572266 L229.85417,49.1572266 L228.508467,54.6289062 L228.406904,54.6289062 L226.877119,49.1572266 L225.829756,49.1572266 L224.299971,54.6289062 L224.198408,54.6289062 L222.852705,49.1572266 L221.748213,49.1572266 L223.665205,56 L224.769697,56 Z M102.176803,74.2851562 L102.176803,70.9716797 L102.278365,70.9716797 C102.652877,71.6953125 103.439986,72.1206055 104.417525,72.1206055 C106.156783,72.1206055 107.293014,70.7177734 107.293014,68.5786133 C107.293014,66.4267578 106.163131,65.0366211 104.417525,65.0366211 C103.48442,65.0366211 102.665572,65.5126953 102.227584,66.2998047 L102.126021,66.2998047 L102.126021,65.1572266 L101.085006,65.1572266 L101.085006,74.2851562 L102.176803,74.2851562 Z M104.157271,71.1367188 C102.925826,71.1367188 102.145064,70.1464844 102.145064,68.5786133 C102.145064,67.0043945 102.925826,66.0205078 104.163619,66.0205078 C105.414107,66.0205078 106.163131,66.9790039 106.163131,68.5786133 C106.163131,70.1782227 105.414107,71.1367188 104.157271,71.1367188 Z M111.671068,72.1206055 C113.169115,72.1206055 114.235521,71.3969727 114.552904,70.2290039 L113.461107,70.2290039 C113.175463,70.8320312 112.578783,71.1557617 111.696459,71.1557617 C110.534838,71.1557617 109.779467,70.2988281 109.722338,68.9467773 L109.722338,68.8959961 L114.641771,68.8959961 L114.641771,68.4770508 C114.641771,66.3505859 113.518236,65.0366211 111.671068,65.0366211 C109.792162,65.0366211 108.586107,66.4331055 108.586107,68.5849609 C108.586107,70.7495117 109.773119,72.1206055 111.671068,72.1206055 Z M113.492846,68.0136719 L109.722338,68.0136719 C109.804857,66.8012695 110.566576,66.0014648 111.658373,66.0014648 C112.743822,66.0014648 113.467455,66.8012695 113.492846,68.0136719 Z M117.369436,72 L117.369436,67.7597656 C117.369436,66.7949219 118.124807,66.0966797 119.165822,66.0966797 C119.381643,66.0966797 119.775197,66.1347656 119.864064,66.1601562 L119.864064,65.0683594 C119.724416,65.0493164 119.4959,65.0366211 119.318166,65.0366211 C118.410451,65.0366211 117.623342,65.5063477 117.420217,66.1728516 L117.318654,66.1728516 L117.318654,65.1572266 L116.277639,65.1572266 L116.277639,72 L117.369436,72 Z M122.369561,72 L122.369561,67.7597656 C122.369561,66.7949219 123.061455,66.0205078 123.956475,66.0205078 C124.819756,66.0205078 125.384697,66.5410156 125.384697,67.3535156 L125.384697,72 L126.476494,72 L126.476494,67.6010742 C126.476494,66.7314453 127.11126,66.0205078 128.063408,66.0205078 C129.028252,66.0205078 129.504326,66.515625 129.504326,67.5249023 L129.504326,72 L130.596123,72 L130.596123,67.2709961 C130.596123,65.8364258 129.815361,65.0366211 128.418877,65.0366211 C127.473076,65.0366211 126.692314,65.5126953 126.32415,66.2363281 L126.222588,66.2363281 C125.905205,65.5253906 125.257744,65.0366211 124.330986,65.0366211 C123.416924,65.0366211 122.731377,65.4746094 122.420342,66.2363281 L122.318779,66.2363281 L122.318779,65.1572266 L121.277764,65.1572266 L121.277764,72 L122.369561,72 Z M133.082576,63.8369141 C133.501521,63.8369141 133.844295,63.4941406 133.844295,63.0751953 C133.844295,62.65625 133.501521,62.3134766 133.082576,62.3134766 C132.663631,62.3134766 132.320857,62.65625 132.320857,63.0751953 C132.320857,63.4941406 132.663631,63.8369141 133.082576,63.8369141 Z M133.628475,72 L133.628475,65.1572266 L132.536678,65.1572266 L132.536678,72 L133.628475,72 Z M137.981139,72.1206055 C139.536314,72.1206055 140.723326,71.2763672 140.723326,70.0512695 C140.723326,69.0673828 140.101256,68.5087891 138.812682,68.1977539 L137.758971,67.9438477 C136.952818,67.7470703 136.571959,67.4550781 136.571959,66.9853516 C136.571959,66.3759766 137.206725,65.9633789 138.019225,65.9633789 C138.84442,65.9633789 139.377623,66.3251953 139.523619,66.8710938 L140.602721,66.8710938 C140.456725,65.7475586 139.460143,65.0366211 138.025572,65.0366211 C136.571959,65.0366211 135.473814,65.8935547 135.473814,67.0297852 C135.473814,68.0200195 136.057799,68.5722656 137.340025,68.8833008 L138.514342,69.1689453 C139.244322,69.3466797 139.599791,69.6640625 139.599791,70.1337891 C139.599791,70.762207 138.939635,71.2001953 138.019225,71.2001953 C137.143248,71.2001953 136.59735,70.8320312 136.413268,70.2543945 L135.289732,70.2543945 C135.410338,71.390625 136.457701,72.1206055 137.981139,72.1206055 Z M144.580873,72.1206055 C146.136049,72.1206055 147.323061,71.2763672 147.323061,70.0512695 C147.323061,69.0673828 146.70099,68.5087891 145.412416,68.1977539 L144.358705,67.9438477 C143.552553,67.7470703 143.171693,67.4550781 143.171693,66.9853516 C143.171693,66.3759766 143.806459,65.9633789 144.618959,65.9633789 C145.444154,65.9633789 145.977357,66.3251953 146.123354,66.8710938 L147.202455,66.8710938 C147.056459,65.7475586 146.059877,65.0366211 144.625307,65.0366211 C143.171693,65.0366211 142.073549,65.8935547 142.073549,67.0297852 C142.073549,68.0200195 142.657533,68.5722656 143.93976,68.8833008 L145.114076,69.1689453 C145.844057,69.3466797 146.199525,69.6640625 146.199525,70.1337891 C146.199525,70.762207 145.539369,71.2001953 144.618959,71.2001953 C143.742982,71.2001953 143.197084,70.8320312 143.013002,70.2543945 L141.889467,70.2543945 C142.010072,71.390625 143.057436,72.1206055 144.580873,72.1206055 Z M149.530217,63.8369141 C149.949162,63.8369141 150.291936,63.4941406 150.291936,63.0751953 C150.291936,62.65625 149.949162,62.3134766 149.530217,62.3134766 C149.111271,62.3134766 148.768498,62.65625 148.768498,63.0751953 C148.768498,63.4941406 149.111271,63.8369141 149.530217,63.8369141 Z M150.076115,72 L150.076115,65.1572266 L148.984318,65.1572266 L148.984318,72 L150.076115,72 Z M154.892158,72.1206055 C156.840889,72.1206055 158.046943,70.7749023 158.046943,68.5786133 C158.046943,66.3759766 156.840889,65.0366211 154.892158,65.0366211 C152.943428,65.0366211 151.737373,66.3759766 151.737373,68.5786133 C151.737373,70.7749023 152.943428,72.1206055 154.892158,72.1206055 Z M154.892158,71.1367188 C153.597236,71.1367188 152.867256,70.1972656 152.867256,68.5786133 C152.867256,66.9536133 153.597236,66.0205078 154.892158,66.0205078 C156.18708,66.0205078 156.917061,66.9536133 156.917061,68.5786133 C156.917061,70.1972656 156.18708,71.1367188 154.892158,71.1367188 Z M160.774607,72 L160.774607,67.9501953 C160.774607,66.7504883 161.479197,66.0205078 162.570994,66.0205078 C163.662791,66.0205078 164.183299,66.6044922 164.183299,67.8359375 L164.183299,72 L165.275096,72 L165.275096,67.5693359 C165.275096,65.9443359 164.418162,65.0366211 162.882029,65.0366211 C161.834666,65.0366211 161.168162,65.480957 160.825389,66.2363281 L160.723826,66.2363281 L160.723826,65.1572266 L159.682811,65.1572266 L159.682811,72 L160.774607,72 Z M168.091627,72.0634766 C168.548658,72.0634766 168.916822,71.6889648 168.916822,71.2382812 C168.916822,70.78125 168.548658,70.4130859 168.091627,70.4130859 C167.640943,70.4130859 167.266432,70.78125 167.266432,71.2382812 C167.266432,71.6889648 167.640943,72.0634766 168.091627,72.0634766 Z" id="Please,gotoSettingsandallowpermission." fill="#000000" fill-rule="nonzero"></path>
            <path d="M65.3754707,36 L65.3754707,32.0405273 L67.9736152,32.0405273 C70.3974434,32.0405273 72.0908027,30.421875 72.0908027,28.0561523 C72.0908027,25.6489258 70.4555488,24.0219727 68.0649238,24.0219727 L63.2338691,24.0219727 L63.2338691,36 L65.3754707,36 Z M67.4921699,30.3139648 L65.3754707,30.3139648 L65.3754707,25.7734375 L67.5004707,25.7734375 C69.044416,25.7734375 69.915998,26.5703125 69.915998,28.0561523 C69.915998,29.5004883 69.0195137,30.3139648 67.4921699,30.3139648 Z M77.4103418,36.1826172 C79.5519434,36.1826172 81.0709863,35.1533203 81.4445215,33.5180664 L79.4938379,33.5180664 C79.1950098,34.1987305 78.4894434,34.5805664 77.4684473,34.5805664 C76.1154199,34.5805664 75.2438379,33.6176758 75.1940332,32.0820312 L75.1940332,31.9741211 L81.5358301,31.9741211 L81.5358301,31.3183594 C81.5358301,28.4711914 79.983584,26.7529297 77.3937402,26.7529297 C74.7623926,26.7529297 73.1271387,28.5874023 73.1271387,31.5009766 C73.1271387,34.40625 74.7374902,36.1826172 77.4103418,36.1826172 Z M79.4772363,30.6044922 L75.202334,30.6044922 C75.2936426,29.2431641 76.1569238,28.3549805 77.3854395,28.3549805 C78.6222559,28.3549805 79.4357324,29.2265625 79.4772363,30.6044922 Z M85.2533184,36 L85.2533184,30.7290039 C85.2533184,29.4506836 86.1830059,28.6206055 87.5194316,28.6206055 C87.8680645,28.6206055 88.415916,28.6787109 88.5736309,28.7368164 L88.5736309,26.8608398 C88.3827129,26.8110352 88.0174785,26.777832 87.7186504,26.777832 C86.5482402,26.777832 85.568748,27.4418945 85.3197246,28.3383789 L85.1786113,28.3383789 L85.1786113,26.9272461 L83.1947246,26.9272461 L83.1947246,36 L85.2533184,36 Z M92.0254941,36 L92.0254941,30.4799805 C92.0254941,29.3510742 92.7808652,28.4960938 93.8018613,28.4960938 C94.8145566,28.4960938 95.445416,29.1103516 95.445416,30.1147461 L95.445416,36 L97.4459043,36 L97.4459043,30.3305664 C97.4459043,29.2929688 98.1514707,28.4960938 99.2222715,28.4960938 C100.326275,28.4960938 100.882428,29.0854492 100.882428,30.2641602 L100.882428,36 L102.932721,36 L102.932721,29.7578125 C102.932721,27.8735352 101.837018,26.7529297 100.019146,26.7529297 C98.7574277,26.7529297 97.7115293,27.4003906 97.2632871,28.3881836 L97.1221738,28.3881836 C96.7403379,27.3837891 95.8687559,26.7529297 94.6153379,26.7529297 C93.4117246,26.7529297 92.4820371,27.3671875 92.0919004,28.3881836 L91.9507871,28.3881836 L91.9507871,26.9272461 L89.9669004,26.9272461 L89.9669004,36 L92.0254941,36 Z M106.011049,25.4082031 C106.691713,25.4082031 107.247865,24.8686523 107.247865,24.1879883 C107.247865,23.515625 106.691713,22.9677734 106.011049,22.9677734 C105.338686,22.9677734 104.782533,23.515625 104.782533,24.1879883 C104.782533,24.8686523 105.338686,25.4082031 106.011049,25.4082031 Z M107.040346,36 L107.040346,26.9272461 L104.990053,26.9272461 L104.990053,36 L107.040346,36 Z M112.592307,36.1826172 C114.85842,36.1826172 116.460471,35.0288086 116.460471,33.2939453 C116.460471,31.9575195 115.655295,31.21875 113.920432,30.8203125 L112.318381,30.4633789 C111.405295,30.2475586 110.973654,29.9238281 110.973654,29.4091797 C110.973654,28.7368164 111.679221,28.2802734 112.617209,28.2802734 C113.5801,28.2802734 114.186057,28.6953125 114.335471,29.3344727 L116.269553,29.3344727 C116.120139,27.6992188 114.767111,26.7529297 112.608908,26.7529297 C110.467307,26.7529297 108.973166,27.8901367 108.973166,29.5170898 C108.973166,30.878418 109.794943,31.675293 111.538107,32.0737305 L113.148459,32.4472656 C114.01174,32.6464844 114.401877,32.9785156 114.401877,33.4931641 C114.401877,34.1821289 113.679709,34.6552734 112.642111,34.6552734 C111.612814,34.6552734 110.973654,34.2402344 110.774436,33.5678711 L108.740744,33.5678711 C108.898459,35.203125 110.326193,36.1826172 112.592307,36.1826172 Z M121.381572,36.1826172 C123.647686,36.1826172 125.249736,35.0288086 125.249736,33.2939453 C125.249736,31.9575195 124.444561,31.21875 122.709697,30.8203125 L121.107646,30.4633789 C120.194561,30.2475586 119.76292,29.9238281 119.76292,29.4091797 C119.76292,28.7368164 120.468486,28.2802734 121.406475,28.2802734 C122.369365,28.2802734 122.975322,28.6953125 123.124736,29.3344727 L125.058818,29.3344727 C124.909404,27.6992188 123.556377,26.7529297 121.398174,26.7529297 C119.256572,26.7529297 117.762432,27.8901367 117.762432,29.5170898 C117.762432,30.878418 118.584209,31.675293 120.327373,32.0737305 L121.937725,32.4472656 C122.801006,32.6464844 123.191143,32.9785156 123.191143,33.4931641 C123.191143,34.1821289 122.468975,34.6552734 121.431377,34.6552734 C120.40208,34.6552734 119.76292,34.2402344 119.563701,33.5678711 L117.53001,33.5678711 C117.687725,35.203125 119.115459,36.1826172 121.381572,36.1826172 Z M127.971131,25.4082031 C128.651795,25.4082031 129.207947,24.8686523 129.207947,24.1879883 C129.207947,23.515625 128.651795,22.9677734 127.971131,22.9677734 C127.298768,22.9677734 126.742615,23.515625 126.742615,24.1879883 C126.742615,24.8686523 127.298768,25.4082031 127.971131,25.4082031 Z M129.000428,36 L129.000428,26.9272461 L126.950135,26.9272461 L126.950135,36 L129.000428,36 Z M135.058736,36.1826172 C137.773092,36.1826172 139.424947,34.40625 139.424947,31.4594727 C139.424947,28.5292969 137.764791,26.7529297 135.058736,26.7529297 C132.360982,26.7529297 130.692525,28.5375977 130.692525,31.4594727 C130.692525,34.40625 132.33608,36.1826172 135.058736,36.1826172 Z M135.058736,34.4975586 C133.622701,34.4975586 132.800924,33.3852539 132.800924,31.4677734 C132.800924,29.550293 133.622701,28.4379883 135.058736,28.4379883 C136.486471,28.4379883 137.308248,29.550293 137.308248,31.4677734 C137.308248,33.3852539 136.494771,34.4975586 135.058736,34.4975586 Z M143.150736,36 L143.150736,30.7124023 C143.150736,29.3510742 143.922709,28.4960938 145.151225,28.4960938 C146.404643,28.4960938 146.985697,29.2016602 146.985697,30.612793 L146.985697,36 L149.044291,36 L149.044291,30.1313477 C149.044291,27.9731445 147.940287,26.7529297 145.914896,26.7529297 C144.561869,26.7529297 143.648783,27.3671875 143.217143,28.3798828 L143.076029,28.3798828 L143.076029,26.9272461 L141.092143,26.9272461 L141.092143,36 L143.150736,36 Z M158.488057,36.1494141 C159.749775,36.1494141 160.795674,35.5600586 161.310322,34.5639648 L161.451436,34.5639648 L161.451436,36 L163.443623,36 L163.443623,23.4160156 L161.385029,23.4160156 L161.385029,28.371582 L161.243916,28.371582 C160.762471,27.3754883 159.733174,26.777832 158.488057,26.777832 C156.197041,26.777832 154.752705,28.5874023 154.752705,31.4594727 C154.752705,34.3398438 156.18874,36.1494141 158.488057,36.1494141 Z M159.127217,34.4394531 C157.716084,34.4394531 156.861104,33.3271484 156.861104,31.4677734 C156.861104,29.6166992 157.724385,28.4960938 159.127217,28.4960938 C160.53835,28.4960938 161.409932,29.6333008 161.409932,31.4677734 C161.409932,33.3105469 160.54665,34.4394531 159.127217,34.4394531 Z M169.468729,36.1826172 C171.61033,36.1826172 173.129373,35.1533203 173.502908,33.5180664 L171.552225,33.5180664 C171.253396,34.1987305 170.54783,34.5805664 169.526834,34.5805664 C168.173807,34.5805664 167.302225,33.6176758 167.25242,32.0820312 L167.25242,31.9741211 L173.594217,31.9741211 L173.594217,31.3183594 C173.594217,28.4711914 172.041971,26.7529297 169.452127,26.7529297 C166.820779,26.7529297 165.185525,28.5874023 165.185525,31.5009766 C165.185525,34.40625 166.795877,36.1826172 169.468729,36.1826172 Z M171.535623,30.6044922 L167.260721,30.6044922 C167.352029,29.2431641 168.215311,28.3549805 169.443826,28.3549805 C170.680643,28.3549805 171.494119,29.2265625 171.535623,30.6044922 Z M177.311705,36 L177.311705,30.7124023 C177.311705,29.3510742 178.083678,28.4960938 179.312193,28.4960938 C180.565611,28.4960938 181.146666,29.2016602 181.146666,30.612793 L181.146666,36 L183.20526,36 L183.20526,30.1313477 C183.20526,27.9731445 182.101256,26.7529297 180.075865,26.7529297 C178.722838,26.7529297 177.809752,27.3671875 177.378111,28.3798828 L177.236998,28.3798828 L177.236998,26.9272461 L175.253111,26.9272461 L175.253111,36 L177.311705,36 Z M186.283588,25.4082031 C186.964252,25.4082031 187.520404,24.8686523 187.520404,24.1879883 C187.520404,23.515625 186.964252,22.9677734 186.283588,22.9677734 C185.611225,22.9677734 185.055072,23.515625 185.055072,24.1879883 C185.055072,24.8686523 185.611225,25.4082031 186.283588,25.4082031 Z M187.312885,36 L187.312885,26.9272461 L185.262592,26.9272461 L185.262592,36 L187.312885,36 Z M193.288186,36.1826172 C195.429787,36.1826172 196.94883,35.1533203 197.322365,33.5180664 L195.371682,33.5180664 C195.072854,34.1987305 194.367287,34.5805664 193.346291,34.5805664 C191.993264,34.5805664 191.121682,33.6176758 191.071877,32.0820312 L191.071877,31.9741211 L197.413674,31.9741211 L197.413674,31.3183594 C197.413674,28.4711914 195.861428,26.7529297 193.271584,26.7529297 C190.640236,26.7529297 189.004982,28.5874023 189.004982,31.5009766 C189.004982,34.40625 190.615334,36.1826172 193.288186,36.1826172 Z M195.35508,30.6044922 L191.080178,30.6044922 C191.171486,29.2431641 192.034768,28.3549805 193.263283,28.3549805 C194.5001,28.3549805 195.313576,29.2265625 195.35508,30.6044922 Z M202.359678,36.1494141 C203.621396,36.1494141 204.667295,35.5600586 205.181943,34.5639648 L205.323057,34.5639648 L205.323057,36 L207.315244,36 L207.315244,23.4160156 L205.25665,23.4160156 L205.25665,28.371582 L205.115537,28.371582 C204.634092,27.3754883 203.604795,26.777832 202.359678,26.777832 C200.068662,26.777832 198.624326,28.5874023 198.624326,31.4594727 C198.624326,34.3398438 200.060361,36.1494141 202.359678,36.1494141 Z M202.998838,34.4394531 C201.587705,34.4394531 200.732725,33.3271484 200.732725,31.4677734 C200.732725,29.6166992 201.596006,28.4960938 202.998838,28.4960938 C204.409971,28.4960938 205.281553,29.6333008 205.281553,31.4677734 C205.281553,33.3105469 204.418271,34.4394531 202.998838,34.4394531 Z" id="Permissiondenied" fill="#000000" fill-rule="nonzero"></path>
        </g>
    </g>
</svg>