<?xml version="1.0" encoding="UTF-8"?>
<svg width="270px" height="140px" viewBox="0 0 270 140" version="1.1" xmlns="http://www.w3.org/2000/svg" xmlns:xlink="http://www.w3.org/1999/xlink">
    <title>fdfs</title>
    <defs>
        <filter color-interpolation-filters="auto" id="filter-1">
            <feColorMatrix in="SourceGraphic" type="matrix" values="0 0 0 0 0.039216 0 0 0 0 0.478431 0 0 0 0 1.000000 0 0 0 1.000000 0"></feColorMatrix>
        </filter>
        <filter color-interpolation-filters="auto" id="filter-2">
            <feColorMatrix in="SourceGraphic" type="matrix" values="0 0 0 0 0.039216 0 0 0 0 0.478431 0 0 0 0 1.000000 0 0 0 1.000000 0"></feColorMatrix>
        </filter>
    </defs>
    <g id="Page-1" stroke="none" stroke-width="1" fill="none" fill-rule="evenodd">
        <g id="fdfs">
            <path d="M17.9471964,1.08858006e-15 L252.052804,7.25088215e-16 C258.293435,-4.21297134e-16 260.556438,0.649779278 262.83792,1.86992893 C265.119401,3.09007857 266.909921,4.88059859 268.130071,7.16208008 C269.350221,9.44356156 270,11.7065652 270,17.9471964 L270,122.052804 C270,128.293435 269.350221,130.556438 268.130071,132.83792 C266.909921,135.119401 265.119401,136.909921 262.83792,138.130071 C260.556438,139.350221 258.293435,140 252.052804,140 L17.9471964,140 C11.7065652,140 9.44356156,139.350221 7.16208008,138.130071 C4.88059859,136.909921 3.09007857,135.119401 1.86992893,132.83792 C0.649779278,130.556438 1.86155501e-15,128.293435 -3.20389456e-15,122.052804 L4.83392144e-16,17.9471964 C-2.80864756e-16,11.7065652 0.649779278,9.44356156 1.86992893,7.16208008 C3.09007857,4.88059859 4.88059859,3.09007857 7.16208008,1.86992893 C9.44356156,0.649779278 11.7065652,-6.32496366e-16 17.9471964,1.08858006e-15 Z" id="Platter" fill-opacity="0.8" fill="#F2F2F2"></path>
            <g id="Bottom-Actions" transform="translate(0.000000, 96.000000)">
                <g id="Right-Action" transform="translate(135.000000, 0.000000)">
                    <rect id="Top-Border" fill-opacity="0.36" fill="#3C3C43" x="0" y="0" width="135" height="1"></rect>
                    <g filter="url(#filter-1)" id="Label">
                        <g transform="translate(12.202049, 15.967773)"></g>
                    </g>
                </g>
                <g id="Left-Action">
                    <path d="M152.871482,29.2988281 C156.366111,29.2988281 158.532615,26.8666992 158.532615,23.0068359 C158.532615,19.1386719 156.357811,16.7231445 152.871482,16.7231445 C149.393455,16.7231445 147.202049,19.1386719 147.202049,23.0068359 C147.202049,26.8666992 149.360252,29.2988281 152.871482,29.2988281 Z M152.871482,27.4477539 C150.713279,27.4477539 149.393455,25.7045898 149.393455,23.0068359 C149.393455,20.2924805 150.746482,18.5742188 152.871482,18.5742188 C154.996482,18.5742188 156.34951,20.2924805 156.34951,23.0068359 C156.34951,25.7045898 155.004783,27.4477539 152.871482,27.4477539 Z M162.416119,32.0131836 L162.416119,27.6220703 L162.557232,27.6220703 C163.022076,28.5849609 164.026471,29.1494141 165.329693,29.1494141 C167.620709,29.1494141 169.048443,27.3481445 169.048443,24.4677734 C169.048443,21.5625 167.604107,19.777832 165.304791,19.777832 C164.059674,19.777832 163.005475,20.4003906 162.482525,21.4296875 L162.341412,21.4296875 L162.341412,19.9272461 L160.357525,19.9272461 L160.357525,32.0131836 L162.416119,32.0131836 Z M164.65733,27.4394531 C163.254498,27.4394531 162.382916,26.3022461 162.374615,24.4677734 C162.382916,22.6333008 163.262799,21.4960938 164.665631,21.4960938 C166.076764,21.4960938 166.931744,22.6083984 166.931744,24.4677734 C166.931744,26.3271484 166.085064,27.4394531 164.65733,27.4394531 Z M174.542299,29.1826172 C176.6839,29.1826172 178.202943,28.1533203 178.576479,26.5180664 L176.625795,26.5180664 C176.326967,27.1987305 175.6214,27.5805664 174.600404,27.5805664 C173.247377,27.5805664 172.375795,26.6176758 172.32599,25.0820312 L172.32599,24.9741211 L178.667787,24.9741211 L178.667787,24.3183594 C178.667787,21.4711914 177.115541,19.7529297 174.525697,19.7529297 C171.89435,19.7529297 170.259096,21.5874023 170.259096,24.5009766 C170.259096,27.40625 171.869447,29.1826172 174.542299,29.1826172 Z M176.609193,23.6044922 L172.334291,23.6044922 C172.4256,22.2431641 173.288881,21.3549805 174.517396,21.3549805 C175.754213,21.3549805 176.567689,22.2265625 176.609193,23.6044922 Z M182.385275,29 L182.385275,23.7124023 C182.385275,22.3510742 183.157248,21.4960938 184.385764,21.4960938 C185.639182,21.4960938 186.220236,22.2016602 186.220236,23.612793 L186.220236,29 L188.27883,29 L188.27883,23.1313477 C188.27883,20.9731445 187.174826,19.7529297 185.149436,19.7529297 C183.796408,19.7529297 182.883322,20.3671875 182.451682,21.3798828 L182.310568,21.3798828 L182.310568,19.9272461 L180.326682,19.9272461 L180.326682,29 L182.385275,29 Z M198.776795,29.2988281 C201.682068,29.2988281 203.483338,27.8544922 203.483338,25.5302734 C203.483338,23.7124023 202.462342,22.699707 200.030213,22.1435547 L198.652283,21.828125 C197.166443,21.4794922 196.560486,21.0063477 196.560486,20.1845703 C196.560486,19.1469727 197.473572,18.4663086 198.851502,18.4663086 C200.163025,18.4663086 201.092713,19.1386719 201.242127,20.2094727 L203.29242,20.2094727 C203.192811,18.1591797 201.374939,16.7231445 198.859803,16.7231445 C196.17865,16.7231445 194.402283,18.1674805 194.402283,20.3256836 C194.402283,22.1020508 195.423279,23.1728516 197.598084,23.6708984 L199.15033,24.027832 C200.685975,24.3847656 201.341736,24.9160156 201.341736,25.7875977 C201.341736,26.8085938 200.32074,27.5473633 198.909607,27.5473633 C197.390564,27.5473633 196.328064,26.8500977 196.195252,25.7543945 L194.103455,25.7543945 C194.211365,27.9208984 196.029236,29.2988281 198.776795,29.2988281 Z M209.101705,29.1826172 C211.243307,29.1826172 212.76235,28.1533203 213.135885,26.5180664 L211.185201,26.5180664 C210.886373,27.1987305 210.180807,27.5805664 209.159811,27.5805664 C207.806783,27.5805664 206.935201,26.6176758 206.885396,25.0820312 L206.885396,24.9741211 L213.227193,24.9741211 L213.227193,24.3183594 C213.227193,21.4711914 211.674947,19.7529297 209.085104,19.7529297 C206.453756,19.7529297 204.818502,21.5874023 204.818502,24.5009766 C204.818502,27.40625 206.428854,29.1826172 209.101705,29.1826172 Z M211.1686,23.6044922 L206.893697,23.6044922 C206.985006,22.2431641 207.848287,21.3549805 209.076803,21.3549805 C210.313619,21.3549805 211.127096,22.2265625 211.1686,23.6044922 Z M218.455424,29.0415039 C218.853861,29.0415039 219.235697,29.0083008 219.534525,28.9501953 L219.534525,27.3730469 C219.285502,27.3979492 219.127787,27.4145508 218.83726,27.4145508 C217.973979,27.4145508 217.592143,27.0078125 217.592143,26.1030273 L217.592143,21.5874023 L219.534525,21.5874023 L219.534525,19.9853516 L217.592143,19.9853516 L217.592143,17.7026367 L215.54185,17.7026367 L215.54185,19.9853516 L214.105814,19.9853516 L214.105814,21.5874023 L215.54185,21.5874023 L215.54185,26.5927734 C215.54185,28.3442383 216.371928,29.0415039 218.455424,29.0415039 Z M224.80426,29.0415039 C225.202697,29.0415039 225.584533,29.0083008 225.883361,28.9501953 L225.883361,27.3730469 C225.634338,27.3979492 225.476623,27.4145508 225.186096,27.4145508 C224.322814,27.4145508 223.940979,27.0078125 223.940979,26.1030273 L223.940979,21.5874023 L225.883361,21.5874023 L225.883361,19.9853516 L223.940979,19.9853516 L223.940979,17.7026367 L221.890686,17.7026367 L221.890686,19.9853516 L220.45465,19.9853516 L220.45465,21.5874023 L221.890686,21.5874023 L221.890686,26.5927734 C221.890686,28.3442383 222.720764,29.0415039 224.80426,29.0415039 Z M228.579854,18.4082031 C229.260518,18.4082031 229.81667,17.8686523 229.81667,17.1879883 C229.81667,16.515625 229.260518,15.9677734 228.579854,15.9677734 C227.90749,15.9677734 227.351338,16.515625 227.351338,17.1879883 C227.351338,17.8686523 227.90749,18.4082031 228.579854,18.4082031 Z M229.60915,29 L229.60915,19.9272461 L227.558857,19.9272461 L227.558857,29 L229.60915,29 Z M233.808084,29 L233.808084,23.7124023 C233.808084,22.3510742 234.580057,21.4960938 235.808572,21.4960938 C237.06199,21.4960938 237.643045,22.2016602 237.643045,23.612793 L237.643045,29 L239.701639,29 L239.701639,23.1313477 C239.701639,20.9731445 238.597635,19.7529297 236.572244,19.7529297 C235.219217,19.7529297 234.306131,20.3671875 233.87449,21.3798828 L233.733377,21.3798828 L233.733377,19.9272461 L231.74949,19.9272461 L231.74949,29 L233.808084,29 Z M245.635436,32.453125 C248.283385,32.453125 249.960143,31.1333008 249.960143,29.0498047 L249.960143,19.9272461 L247.976256,19.9272461 L247.976256,21.3798828 L247.835143,21.3798828 C247.337096,20.3920898 246.257994,19.777832 245.021178,19.777832 C242.70526,19.777832 241.269225,21.5874023 241.269225,24.3681641 C241.269225,27.0908203 242.696959,28.8671875 244.987975,28.8671875 C246.249693,28.8671875 247.237486,28.3359375 247.760436,27.3564453 L247.901549,27.3564453 L247.901549,29.0830078 C247.901549,30.2368164 247.079771,30.9174805 245.668639,30.9174805 C244.539732,30.9174805 243.809264,30.5107422 243.676451,29.871582 L241.609557,29.871582 C241.775572,31.4321289 243.302916,32.453125 245.635436,32.453125 Z M245.635436,27.2319336 C244.1994,27.2319336 243.385924,26.1196289 243.385924,24.3598633 C243.385924,22.6083984 244.1994,21.4960938 245.635436,21.4960938 C247.06317,21.4960938 247.934752,22.6083984 247.934752,24.3681641 C247.934752,26.1196289 247.071471,27.2319336 245.635436,27.2319336 Z M255.487201,29.1826172 C257.753314,29.1826172 259.355365,28.0288086 259.355365,26.2939453 C259.355365,24.9575195 258.550189,24.21875 256.815326,23.8203125 L255.213275,23.4633789 C254.300189,23.2475586 253.868549,22.9238281 253.868549,22.4091797 C253.868549,21.7368164 254.574115,21.2802734 255.512104,21.2802734 C256.474994,21.2802734 257.080951,21.6953125 257.230365,22.3344727 L259.164447,22.3344727 C259.015033,20.6992188 257.662006,19.7529297 255.503803,19.7529297 C253.362201,19.7529297 251.868061,20.8901367 251.868061,22.5170898 C251.868061,23.878418 252.689838,24.675293 254.433002,25.0737305 L256.043354,25.4472656 C256.906635,25.6464844 257.296771,25.9785156 257.296771,26.4931641 C257.296771,27.1821289 256.574604,27.6552734 255.537006,27.6552734 C254.507709,27.6552734 253.868549,27.2402344 253.66933,26.5678711 L251.635639,26.5678711 C251.793354,28.203125 253.221088,29.1826172 255.487201,29.1826172 Z" id="OpenSettings" fill="#0E7CFE" fill-rule="nonzero"></path>
                    <rect id="Top-Border" fill-opacity="0.36" fill="#3C3C43" x="0" y="0" width="135" height="1"></rect>
                    <g filter="url(#filter-2)" id="Label">
                        <g transform="translate(42.798463, 16.499023)"></g>
                    </g>
                </g>
                <rect id="Separator" fill-opacity="0.36" fill="#3C3C43" x="134.5" y="0.5" width="1" height="43.5"></rect>
                <rect id="Top-Border" fill-opacity="0.36" fill="#3C3C43" x="0" y="0" width="270" height="1"></rect>
                <path d="M48.0860605,29.2822266 C50.6344004,29.2822266 52.5269785,27.862793 52.925416,25.6630859 L51.406373,25.6630859 C51.0245371,27.0493164 49.7545176,27.9042969 48.0860605,27.9042969 C45.7784434,27.9042969 44.3341074,26.0200195 44.3341074,23.0151367 C44.3341074,20.0102539 45.7784434,18.1176758 48.0777598,18.1176758 C49.7296152,18.1176758 51.0079355,19.0888672 51.406373,20.6328125 L52.925416,20.6328125 C52.5684824,18.3251953 50.6011973,16.7397461 48.0777598,16.7397461 C44.8238535,16.7397461 42.7984629,19.1469727 42.7984629,23.0151367 C42.7984629,26.875 44.8321543,29.2822266 48.0860605,29.2822266 Z M57.3318691,29.1577148 C58.5271816,29.1577148 59.5066738,28.6347656 60.0877285,27.6801758 L60.220541,27.6801758 L60.220541,29 L61.5818691,29 L61.5818691,22.8740234 C61.5818691,21.0146484 60.3616543,19.894043 58.1785488,19.894043 C56.2693691,19.894043 54.8582363,20.840332 54.6673184,22.2763672 L56.1116543,22.2763672 C56.310873,21.5708008 57.0579434,21.1640625 58.1287441,21.1640625 C59.4651699,21.1640625 60.1541348,21.7700195 60.1541348,22.8740234 L60.1541348,23.6875 L57.5725918,23.8452148 C55.4890957,23.9697266 54.3103848,24.8911133 54.3103848,26.4931641 C54.3103848,28.128418 55.5970059,29.1577148 57.3318691,29.1577148 Z M57.5974941,27.9042969 C56.5598965,27.9042969 55.7879238,27.3730469 55.7879238,26.4599609 C55.7879238,25.5634766 56.3855801,25.090332 57.7469082,24.9990234 L60.1541348,24.8413086 L60.1541348,25.6630859 C60.1541348,26.9414062 59.0667324,27.9042969 57.5974941,27.9042969 Z M65.241252,29 L65.241252,23.7041016 C65.241252,22.1352539 66.1626387,21.1806641 67.590373,21.1806641 C69.0181074,21.1806641 69.6987715,21.9443359 69.6987715,23.5546875 L69.6987715,29 L71.1265059,29 L71.1265059,23.2060547 C71.1265059,21.0810547 70.0059004,19.894043 67.9971113,19.894043 C66.6274824,19.894043 65.7559004,20.4750977 65.3076582,21.4628906 L65.1748457,21.4628906 L65.1748457,20.0517578 L63.8135176,20.0517578 L63.8135176,29 L65.241252,29 Z M76.9855957,29.1577148 C79.135498,29.1577148 80.4719238,27.9458008 80.729248,26.3022461 L79.2849121,26.3022461 C79.0192871,27.3149414 78.1809082,27.8710938 76.9772949,27.8710938 C75.3835449,27.8710938 74.354248,26.5595703 74.354248,24.4926758 C74.354248,22.4672852 75.3669434,21.1806641 76.9772949,21.1806641 C78.263916,21.1806641 79.0524902,21.902832 79.2849121,22.7910156 L80.729248,22.7910156 C80.4802246,21.1972656 79.1520996,19.894043 76.9772949,19.894043 C74.470459,19.894043 72.876709,21.7036133 72.876709,24.4926758 C72.876709,27.3398438 74.4787598,29.1577148 76.9855957,29.1577148 Z M86.015584,29.1577148 C87.9745684,29.1577148 89.3690996,28.2114258 89.7841387,26.684082 L88.3564043,26.684082 C87.9828691,27.4726562 87.2025957,27.8959961 86.0487871,27.8959961 C84.5297441,27.8959961 83.5419512,26.7753906 83.4672441,25.0073242 L83.4672441,24.940918 L89.9003496,24.940918 L89.9003496,24.3930664 C89.9003496,21.6123047 88.4311113,19.894043 86.015584,19.894043 C83.5585527,19.894043 81.9814043,21.7202148 81.9814043,24.5341797 C81.9814043,27.3647461 83.5336504,29.1577148 86.015584,29.1577148 Z M88.3979082,23.7871094 L83.4672441,23.7871094 C83.5751543,22.2016602 84.571248,21.1557617 85.9989824,21.1557617 C87.418416,21.1557617 88.3647051,22.2016602 88.3979082,23.7871094 Z M93.2443027,29 L93.2443027,16.4990234 L91.8165684,16.4990234 L91.8165684,29 L93.2443027,29 Z" id="Cancel" fill="#0E7CFE" fill-rule="nonzero"></path>
            </g>
            <path d="M41.0045918,56 L41.0045918,52.730957 L43.308791,52.730957 C45.0290059,52.730957 46.2541035,51.5185547 46.2541035,49.8046875 C46.2541035,48.059082 45.0543965,46.840332 43.3214863,46.840332 L39.8620137,46.840332 L39.8620137,56 L41.0045918,56 Z M43.0231465,51.715332 L41.0045918,51.715332 L41.0045918,47.855957 L43.0231465,47.855957 C44.3498066,47.855957 45.0797871,48.5478516 45.0797871,49.8046875 C45.0797871,51.0170898 44.324416,51.715332 43.0231465,51.715332 Z M49.0579395,56 L49.0579395,46.4404297 L47.9661426,46.4404297 L47.9661426,56 L49.0579395,56 Z M53.8422441,56.1206055 C55.340291,56.1206055 56.4066973,55.3969727 56.7240801,54.2290039 L55.6322832,54.2290039 C55.3466387,54.8320312 54.749959,55.1557617 53.8676348,55.1557617 C52.7060137,55.1557617 51.9506426,54.2988281 51.8935137,52.9467773 L51.8935137,52.8959961 L56.8129473,52.8959961 L56.8129473,52.4770508 C56.8129473,50.3505859 55.6894121,49.0366211 53.8422441,49.0366211 C51.9633379,49.0366211 50.7572832,50.4331055 50.7572832,52.5849609 C50.7572832,54.7495117 51.9442949,56.1206055 53.8422441,56.1206055 Z M55.6640215,52.0136719 L51.8935137,52.0136719 C51.9760332,50.8012695 52.737752,50.0014648 53.8295488,50.0014648 C54.914998,50.0014648 55.6386309,50.8012695 55.6640215,52.0136719 Z M60.3531113,56.1206055 C61.2671738,56.1206055 62.0161973,55.7207031 62.4605332,54.9907227 L62.5620957,54.9907227 L62.5620957,56 L63.6031113,56 L63.6031113,51.3154297 C63.6031113,49.8935547 62.6700059,49.0366211 61.0005723,49.0366211 C59.5406113,49.0366211 58.4615098,49.7602539 58.3155137,50.8583984 L59.4200059,50.8583984 C59.5723496,50.3188477 60.1436387,50.0078125 60.9624863,50.0078125 C61.984459,50.0078125 62.5113145,50.4711914 62.5113145,51.3154297 L62.5113145,51.9375 L60.5371934,52.0581055 C58.9439316,52.1533203 58.0425645,52.8579102 58.0425645,54.0830078 C58.0425645,55.3334961 59.0264512,56.1206055 60.3531113,56.1206055 Z M60.5562363,55.1621094 C59.7627793,55.1621094 59.1724473,54.7558594 59.1724473,54.0576172 C59.1724473,53.3720703 59.6294785,53.0102539 60.6704941,52.9404297 L62.5113145,52.8198242 L62.5113145,53.4482422 C62.5113145,54.4257812 61.6797715,55.1621094 60.5562363,55.1621094 Z M67.8922988,56.1206055 C69.4474746,56.1206055 70.6344863,55.2763672 70.6344863,54.0512695 C70.6344863,53.0673828 70.012416,52.5087891 68.7238418,52.1977539 L67.6701309,51.9438477 C66.8639785,51.7470703 66.4831191,51.4550781 66.4831191,50.9853516 C66.4831191,50.3759766 67.1178848,49.9633789 67.9303848,49.9633789 C68.7555801,49.9633789 69.2887832,50.3251953 69.4347793,50.8710938 L70.5138809,50.8710938 C70.3678848,49.7475586 69.3713027,49.0366211 67.9367324,49.0366211 C66.4831191,49.0366211 65.3849746,49.8935547 65.3849746,51.0297852 C65.3849746,52.0200195 65.968959,52.5722656 67.2511855,52.8833008 L68.425502,53.1689453 C69.1554824,53.3466797 69.5109512,53.6640625 69.5109512,54.1337891 C69.5109512,54.762207 68.8507949,55.2001953 67.9303848,55.2001953 C67.0544082,55.2001953 66.5085098,54.8320312 66.3244277,54.2543945 L65.2008926,54.2543945 C65.321498,55.390625 66.3688613,56.1206055 67.8922988,56.1206055 Z M75.012541,56.1206055 C76.5105879,56.1206055 77.5769941,55.3969727 77.894377,54.2290039 L76.8025801,54.2290039 C76.5169355,54.8320312 75.9202559,55.1557617 75.0379316,55.1557617 C73.8763105,55.1557617 73.1209395,54.2988281 73.0638105,52.9467773 L73.0638105,52.8959961 L77.9832441,52.8959961 L77.9832441,52.4770508 C77.9832441,50.3505859 76.859709,49.0366211 75.012541,49.0366211 C73.1336348,49.0366211 71.9275801,50.4331055 71.9275801,52.5849609 C71.9275801,54.7495117 73.1145918,56.1206055 75.012541,56.1206055 Z M76.8343184,52.0136719 L73.0638105,52.0136719 C73.1463301,50.8012695 73.9080488,50.0014648 74.9998457,50.0014648 C76.0852949,50.0014648 76.8089277,50.8012695 76.8343184,52.0136719 Z M80.3110059,58.3295898 L81.3075879,54.7177734 L80.0951855,54.7177734 L79.4921582,58.3295898 L80.3110059,58.3295898 Z M89.809791,58.6279297 C91.676002,58.6279297 92.856666,57.6503906 92.856666,56.1206055 L92.856666,49.1572266 L91.8156504,49.1572266 L91.8156504,50.2426758 L91.7140879,50.2426758 C91.3205332,49.5063477 90.4762949,49.0366211 89.5177988,49.0366211 C87.759498,49.0366211 86.6486582,50.4267578 86.6486582,52.4770508 C86.6486582,54.5273438 87.7468027,55.8984375 89.5177988,55.8984375 C90.457252,55.8984375 91.231666,55.4731445 91.6633066,54.7177734 L91.7648691,54.7177734 L91.7648691,56.0634766 C91.7648691,57.0727539 91.0348887,57.6757812 89.809791,57.6757812 C88.8259043,57.6757812 88.2165293,57.3139648 88.0959238,56.7553711 L86.9406504,56.7553711 C87.1056895,57.8852539 88.1594004,58.6279297 89.809791,58.6279297 Z M89.7590098,54.9335938 C88.4894785,54.9335938 87.778541,53.96875 87.778541,52.4770508 C87.778541,50.9853516 88.4894785,50.0205078 89.7590098,50.0205078 C91.0221934,50.0205078 91.7902598,50.9853516 91.7902598,52.4770508 C91.7902598,53.96875 91.028541,54.9335938 89.7590098,54.9335938 Z M97.6473184,56.1206055 C99.5960488,56.1206055 100.802104,54.7749023 100.802104,52.5786133 C100.802104,50.3759766 99.5960488,49.0366211 97.6473184,49.0366211 C95.6985879,49.0366211 94.4925332,50.3759766 94.4925332,52.5786133 C94.4925332,54.7749023 95.6985879,56.1206055 97.6473184,56.1206055 Z M97.6473184,55.1367188 C96.3523965,55.1367188 95.622416,54.1972656 95.622416,52.5786133 C95.622416,50.9536133 96.3523965,50.0205078 97.6473184,50.0205078 C98.9422402,50.0205078 99.6722207,50.9536133 99.6722207,52.5786133 C99.6722207,54.1972656 98.9422402,55.1367188 97.6473184,55.1367188 Z M108.460068,56.0507812 C108.675889,56.0507812 108.885361,56.0253906 109.101182,55.9873047 L109.101182,55.0668945 C108.898057,55.0859375 108.790146,55.0922852 108.593369,55.0922852 C107.882432,55.0922852 107.577744,54.7495117 107.577744,53.9433594 L107.577744,50.0712891 L109.101182,50.0712891 L109.101182,49.1572266 L107.577744,49.1572266 L107.577744,47.3862305 L106.485947,47.3862305 L106.485947,49.1572266 L105.381455,49.1572266 L105.381455,50.0712891 L106.485947,50.0712891 L106.485947,54.2226562 C106.485947,55.5302734 107.050889,56.0507812 108.460068,56.0507812 Z M113.390369,56.1206055 C115.3391,56.1206055 116.545154,54.7749023 116.545154,52.5786133 C116.545154,50.3759766 115.3391,49.0366211 113.390369,49.0366211 C111.441639,49.0366211 110.235584,50.3759766 110.235584,52.5786133 C110.235584,54.7749023 111.441639,56.1206055 113.390369,56.1206055 Z M113.390369,55.1367188 C112.095447,55.1367188 111.365467,54.1972656 111.365467,52.5786133 C111.365467,50.9536133 112.095447,50.0205078 113.390369,50.0205078 C114.685291,50.0205078 115.415271,50.9536133 115.415271,52.5786133 C115.415271,54.1972656 114.685291,55.1367188 113.390369,55.1367188 Z M124.875971,56.2158203 C126.970697,56.2158203 128.297357,55.1430664 128.297357,53.4609375 C128.297357,52.1152344 127.535639,51.3789062 125.637689,50.902832 L124.679193,50.6489258 C123.41601,50.3251953 122.914545,49.9125977 122.914545,49.1953125 C122.914545,48.2685547 123.720697,47.6591797 124.939447,47.6591797 C126.082025,47.6591797 126.856439,48.2177734 127.015131,49.1572266 L128.164057,49.1572266 C128.068842,47.6782227 126.748529,46.6245117 124.977533,46.6245117 C123.041498,46.6245117 121.740229,47.6782227 121.740229,49.2333984 C121.740229,50.534668 122.457514,51.2836914 124.114252,51.7026367 L125.288568,52.0073242 C126.551752,52.324707 127.123041,52.8198242 127.123041,53.6005859 C127.123041,54.5083008 126.215326,55.1748047 124.983881,55.1748047 C123.682611,55.1748047 122.768549,54.5654297 122.6289,53.6069336 L121.473627,53.6069336 C121.594232,55.1875 122.933588,56.2158203 124.875971,56.2158203 Z M132.719846,56.1206055 C134.217893,56.1206055 135.284299,55.3969727 135.601682,54.2290039 L134.509885,54.2290039 C134.22424,54.8320312 133.627561,55.1557617 132.745236,55.1557617 C131.583615,55.1557617 130.828244,54.2988281 130.771115,52.9467773 L130.771115,52.8959961 L135.690549,52.8959961 L135.690549,52.4770508 C135.690549,50.3505859 134.567014,49.0366211 132.719846,49.0366211 C130.840939,49.0366211 129.634885,50.4331055 129.634885,52.5849609 C129.634885,54.7495117 130.821896,56.1206055 132.719846,56.1206055 Z M134.541623,52.0136719 L130.771115,52.0136719 C130.853635,50.8012695 131.615354,50.0014648 132.70715,50.0014648 C133.7926,50.0014648 134.516232,50.8012695 134.541623,52.0136719 Z M139.757568,56.0507812 C139.973389,56.0507812 140.182861,56.0253906 140.398682,55.9873047 L140.398682,55.0668945 C140.195557,55.0859375 140.087646,55.0922852 139.890869,55.0922852 C139.179932,55.0922852 138.875244,54.7495117 138.875244,53.9433594 L138.875244,50.0712891 L140.398682,50.0712891 L140.398682,49.1572266 L138.875244,49.1572266 L138.875244,47.3862305 L137.783447,47.3862305 L137.783447,49.1572266 L136.678955,49.1572266 L136.678955,50.0712891 L137.783447,50.0712891 L137.783447,54.2226562 C137.783447,55.5302734 138.348389,56.0507812 139.757568,56.0507812 Z M144.402225,56.0507812 C144.618045,56.0507812 144.827518,56.0253906 145.043338,55.9873047 L145.043338,55.0668945 C144.840213,55.0859375 144.732303,55.0922852 144.535525,55.0922852 C143.824588,55.0922852 143.5199,54.7495117 143.5199,53.9433594 L143.5199,50.0712891 L145.043338,50.0712891 L145.043338,49.1572266 L143.5199,49.1572266 L143.5199,47.3862305 L142.428104,47.3862305 L142.428104,49.1572266 L141.323611,49.1572266 L141.323611,50.0712891 L142.428104,50.0712891 L142.428104,54.2226562 C142.428104,55.5302734 142.993045,56.0507812 144.402225,56.0507812 Z M147.187018,47.8369141 C147.605963,47.8369141 147.948736,47.4941406 147.948736,47.0751953 C147.948736,46.65625 147.605963,46.3134766 147.187018,46.3134766 C146.768072,46.3134766 146.425299,46.65625 146.425299,47.0751953 C146.425299,47.4941406 146.768072,47.8369141 147.187018,47.8369141 Z M147.732916,56 L147.732916,49.1572266 L146.641119,49.1572266 L146.641119,56 L147.732916,56 Z M150.828744,56 L150.828744,51.9501953 C150.828744,50.7504883 151.533334,50.0205078 152.625131,50.0205078 C153.716928,50.0205078 154.237436,50.6044922 154.237436,51.8359375 L154.237436,56 L155.329232,56 L155.329232,51.5693359 C155.329232,49.9443359 154.472299,49.0366211 152.936166,49.0366211 C151.888803,49.0366211 151.222299,49.480957 150.879525,50.2363281 L150.777963,50.2363281 L150.777963,49.1572266 L149.736947,49.1572266 L149.736947,56 L150.828744,56 Z M160.062756,58.6279297 C161.928967,58.6279297 163.109631,57.6503906 163.109631,56.1206055 L163.109631,49.1572266 L162.068615,49.1572266 L162.068615,50.2426758 L161.967053,50.2426758 C161.573498,49.5063477 160.72926,49.0366211 159.770764,49.0366211 C158.012463,49.0366211 156.901623,50.4267578 156.901623,52.4770508 C156.901623,54.5273438 157.999768,55.8984375 159.770764,55.8984375 C160.710217,55.8984375 161.484631,55.4731445 161.916271,54.7177734 L162.017834,54.7177734 L162.017834,56.0634766 C162.017834,57.0727539 161.287854,57.6757812 160.062756,57.6757812 C159.078869,57.6757812 158.469494,57.3139648 158.348889,56.7553711 L157.193615,56.7553711 C157.358654,57.8852539 158.412365,58.6279297 160.062756,58.6279297 Z M160.011975,54.9335938 C158.742443,54.9335938 158.031506,53.96875 158.031506,52.4770508 C158.031506,50.9853516 158.742443,50.0205078 160.011975,50.0205078 C161.275158,50.0205078 162.043225,50.9853516 162.043225,52.4770508 C162.043225,53.96875 161.281506,54.9335938 160.011975,54.9335938 Z M167.436904,56.1206055 C168.99208,56.1206055 170.179092,55.2763672 170.179092,54.0512695 C170.179092,53.0673828 169.557021,52.5087891 168.268447,52.1977539 L167.214736,51.9438477 C166.408584,51.7470703 166.027725,51.4550781 166.027725,50.9853516 C166.027725,50.3759766 166.66249,49.9633789 167.47499,49.9633789 C168.300186,49.9633789 168.833389,50.3251953 168.979385,50.8710938 L170.058486,50.8710938 C169.91249,49.7475586 168.915908,49.0366211 167.481338,49.0366211 C166.027725,49.0366211 164.92958,49.8935547 164.92958,51.0297852 C164.92958,52.0200195 165.513564,52.5722656 166.795791,52.8833008 L167.970107,53.1689453 C168.700088,53.3466797 169.055557,53.6640625 169.055557,54.1337891 C169.055557,54.762207 168.3954,55.2001953 167.47499,55.2001953 C166.599014,55.2001953 166.053115,54.8320312 165.869033,54.2543945 L164.745498,54.2543945 C164.866104,55.390625 165.913467,56.1206055 167.436904,56.1206055 Z M177.310201,56.1206055 C178.224264,56.1206055 178.973287,55.7207031 179.417623,54.9907227 L179.519186,54.9907227 L179.519186,56 L180.560201,56 L180.560201,51.3154297 C180.560201,49.8935547 179.627096,49.0366211 177.957662,49.0366211 C176.497701,49.0366211 175.4186,49.7602539 175.272604,50.8583984 L176.377096,50.8583984 C176.529439,50.3188477 177.100729,50.0078125 177.919576,50.0078125 C178.941549,50.0078125 179.468404,50.4711914 179.468404,51.3154297 L179.468404,51.9375 L177.494283,52.0581055 C175.901021,52.1533203 174.999654,52.8579102 174.999654,54.0830078 C174.999654,55.3334961 175.983541,56.1206055 177.310201,56.1206055 Z M177.513326,55.1621094 C176.719869,55.1621094 176.129537,54.7558594 176.129537,54.0576172 C176.129537,53.3720703 176.586568,53.0102539 177.627584,52.9404297 L179.468404,52.8198242 L179.468404,53.4482422 C179.468404,54.4257812 178.636861,55.1621094 177.513326,55.1621094 Z M183.592553,56 L183.592553,51.9501953 C183.592553,50.7504883 184.297143,50.0205078 185.388939,50.0205078 C186.480736,50.0205078 187.001244,50.6044922 187.001244,51.8359375 L187.001244,56 L188.093041,56 L188.093041,51.5693359 C188.093041,49.9443359 187.236107,49.0366211 185.699975,49.0366211 C184.652611,49.0366211 183.986107,49.480957 183.643334,50.2363281 L183.541771,50.2363281 L183.541771,49.1572266 L182.500756,49.1572266 L182.500756,56 L183.592553,56 Z M192.54092,56.1206055 C193.486721,56.1206055 194.299221,55.6699219 194.730861,54.9082031 L194.832424,54.9082031 L194.832424,56 L195.873439,56 L195.873439,46.4404297 L194.781643,46.4404297 L194.781643,50.2363281 L194.686428,50.2363281 C194.299221,49.4873047 193.493068,49.0366211 192.54092,49.0366211 C190.801662,49.0366211 189.665432,50.4331055 189.665432,52.5786133 C189.665432,54.7304688 190.788967,56.1206055 192.54092,56.1206055 Z M192.794826,55.1367188 C191.544338,55.1367188 190.795314,54.1782227 190.795314,52.5786133 C190.795314,50.9853516 191.550686,50.0205078 192.794826,50.0205078 C194.032619,50.0205078 194.807033,51.0107422 194.807033,52.5786133 C194.807033,54.1591797 194.038967,55.1367188 192.794826,55.1367188 Z M203.410799,56.1206055 C204.324861,56.1206055 205.073885,55.7207031 205.518221,54.9907227 L205.619783,54.9907227 L205.619783,56 L206.660799,56 L206.660799,51.3154297 C206.660799,49.8935547 205.727693,49.0366211 204.05826,49.0366211 C202.598299,49.0366211 201.519197,49.7602539 201.373201,50.8583984 L202.477693,50.8583984 C202.630037,50.3188477 203.201326,50.0078125 204.020174,50.0078125 C205.042146,50.0078125 205.569002,50.4711914 205.569002,51.3154297 L205.569002,51.9375 L203.594881,52.0581055 C202.001619,52.1533203 201.100252,52.8579102 201.100252,54.0830078 C201.100252,55.3334961 202.084139,56.1206055 203.410799,56.1206055 Z M203.613924,55.1621094 C202.820467,55.1621094 202.230135,54.7558594 202.230135,54.0576172 C202.230135,53.3720703 202.687166,53.0102539 203.728182,52.9404297 L205.569002,52.8198242 L205.569002,53.4482422 C205.569002,54.4257812 204.737459,55.1621094 203.613924,55.1621094 Z M209.756627,56 L209.756627,46.4404297 L208.66483,46.4404297 L208.66483,56 L209.756627,56 Z M212.954018,56 L212.954018,46.4404297 L211.862221,46.4404297 L211.862221,56 L212.954018,56 Z M217.808146,56.1206055 C219.756877,56.1206055 220.962932,54.7749023 220.962932,52.5786133 C220.962932,50.3759766 219.756877,49.0366211 217.808146,49.0366211 C215.859416,49.0366211 214.653361,50.3759766 214.653361,52.5786133 C214.653361,54.7749023 215.859416,56.1206055 217.808146,56.1206055 Z M217.808146,55.1367188 C216.513225,55.1367188 215.783244,54.1972656 215.783244,52.5786133 C215.783244,50.9536133 216.513225,50.0205078 217.808146,50.0205078 C219.103068,50.0205078 219.833049,50.9536133 219.833049,52.5786133 C219.833049,54.1972656 219.103068,55.1367188 217.808146,55.1367188 Z M224.769697,56 L226.293135,50.7060547 L226.394697,50.7060547 L227.924482,56 L229.035322,56 L230.952314,49.1572266 L229.85417,49.1572266 L228.508467,54.6289062 L228.406904,54.6289062 L226.877119,49.1572266 L225.829756,49.1572266 L224.299971,54.6289062 L224.198408,54.6289062 L222.852705,49.1572266 L221.748213,49.1572266 L223.665205,56 L224.769697,56 Z M102.176803,74.2851562 L102.176803,70.9716797 L102.278365,70.9716797 C102.652877,71.6953125 103.439986,72.1206055 104.417525,72.1206055 C106.156783,72.1206055 107.293014,70.7177734 107.293014,68.5786133 C107.293014,66.4267578 106.163131,65.0366211 104.417525,65.0366211 C103.48442,65.0366211 102.665572,65.5126953 102.227584,66.2998047 L102.126021,66.2998047 L102.126021,65.1572266 L101.085006,65.1572266 L101.085006,74.2851562 L102.176803,74.2851562 Z M104.157271,71.1367188 C102.925826,71.1367188 102.145064,70.1464844 102.145064,68.5786133 C102.145064,67.0043945 102.925826,66.0205078 104.163619,66.0205078 C105.414107,66.0205078 106.163131,66.9790039 106.163131,68.5786133 C106.163131,70.1782227 105.414107,71.1367188 104.157271,71.1367188 Z M111.671068,72.1206055 C113.169115,72.1206055 114.235521,71.3969727 114.552904,70.2290039 L113.461107,70.2290039 C113.175463,70.8320312 112.578783,71.1557617 111.696459,71.1557617 C110.534838,71.1557617 109.779467,70.2988281 109.722338,68.9467773 L109.722338,68.8959961 L114.641771,68.8959961 L114.641771,68.4770508 C114.641771,66.3505859 113.518236,65.0366211 111.671068,65.0366211 C109.792162,65.0366211 108.586107,66.4331055 108.586107,68.5849609 C108.586107,70.7495117 109.773119,72.1206055 111.671068,72.1206055 Z M113.492846,68.0136719 L109.722338,68.0136719 C109.804857,66.8012695 110.566576,66.0014648 111.658373,66.0014648 C112.743822,66.0014648 113.467455,66.8012695 113.492846,68.0136719 Z M117.369436,72 L117.369436,67.7597656 C117.369436,66.7949219 118.124807,66.0966797 119.165822,66.0966797 C119.381643,66.0966797 119.775197,66.1347656 119.864064,66.1601562 L119.864064,65.0683594 C119.724416,65.0493164 119.4959,65.0366211 119.318166,65.0366211 C118.410451,65.0366211 117.623342,65.5063477 117.420217,66.1728516 L117.318654,66.1728516 L117.318654,65.1572266 L116.277639,65.1572266 L116.277639,72 L117.369436,72 Z M122.369561,72 L122.369561,67.7597656 C122.369561,66.7949219 123.061455,66.0205078 123.956475,66.0205078 C124.819756,66.0205078 125.384697,66.5410156 125.384697,67.3535156 L125.384697,72 L126.476494,72 L126.476494,67.6010742 C126.476494,66.7314453 127.11126,66.0205078 128.063408,66.0205078 C129.028252,66.0205078 129.504326,66.515625 129.504326,67.5249023 L129.504326,72 L130.596123,72 L130.596123,67.2709961 C130.596123,65.8364258 129.815361,65.0366211 128.418877,65.0366211 C127.473076,65.0366211 126.692314,65.5126953 126.32415,66.2363281 L126.222588,66.2363281 C125.905205,65.5253906 125.257744,65.0366211 124.330986,65.0366211 C123.416924,65.0366211 122.731377,65.4746094 122.420342,66.2363281 L122.318779,66.2363281 L122.318779,65.1572266 L121.277764,65.1572266 L121.277764,72 L122.369561,72 Z M133.082576,63.8369141 C133.501521,63.8369141 133.844295,63.4941406 133.844295,63.0751953 C133.844295,62.65625 133.501521,62.3134766 133.082576,62.3134766 C132.663631,62.3134766 132.320857,62.65625 132.320857,63.0751953 C132.320857,63.4941406 132.663631,63.8369141 133.082576,63.8369141 Z M133.628475,72 L133.628475,65.1572266 L132.536678,65.1572266 L132.536678,72 L133.628475,72 Z M137.981139,72.1206055 C139.536314,72.1206055 140.723326,71.2763672 140.723326,70.0512695 C140.723326,69.0673828 140.101256,68.5087891 138.812682,68.1977539 L137.758971,67.9438477 C136.952818,67.7470703 136.571959,67.4550781 136.571959,66.9853516 C136.571959,66.3759766 137.206725,65.9633789 138.019225,65.9633789 C138.84442,65.9633789 139.377623,66.3251953 139.523619,66.8710938 L140.602721,66.8710938 C140.456725,65.7475586 139.460143,65.0366211 138.025572,65.0366211 C136.571959,65.0366211 135.473814,65.8935547 135.473814,67.0297852 C135.473814,68.0200195 136.057799,68.5722656 137.340025,68.8833008 L138.514342,69.1689453 C139.244322,69.3466797 139.599791,69.6640625 139.599791,70.1337891 C139.599791,70.762207 138.939635,71.2001953 138.019225,71.2001953 C137.143248,71.2001953 136.59735,70.8320312 136.413268,70.2543945 L135.289732,70.2543945 C135.410338,71.390625 136.457701,72.1206055 137.981139,72.1206055 Z M144.580873,72.1206055 C146.136049,72.1206055 147.323061,71.2763672 147.323061,70.0512695 C147.323061,69.0673828 146.70099,68.5087891 145.412416,68.1977539 L144.358705,67.9438477 C143.552553,67.7470703 143.171693,67.4550781 143.171693,66.9853516 C143.171693,66.3759766 143.806459,65.9633789 144.618959,65.9633789 C145.444154,65.9633789 145.977357,66.3251953 146.123354,66.8710938 L147.202455,66.8710938 C147.056459,65.7475586 146.059877,65.0366211 144.625307,65.0366211 C143.171693,65.0366211 142.073549,65.8935547 142.073549,67.0297852 C142.073549,68.0200195 142.657533,68.5722656 143.93976,68.8833008 L145.114076,69.1689453 C145.844057,69.3466797 146.199525,69.6640625 146.199525,70.1337891 C146.199525,70.762207 145.539369,71.2001953 144.618959,71.2001953 C143.742982,71.2001953 143.197084,70.8320312 143.013002,70.2543945 L141.889467,70.2543945 C142.010072,71.390625 143.057436,72.1206055 144.580873,72.1206055 Z M149.530217,63.8369141 C149.949162,63.8369141 150.291936,63.4941406 150.291936,63.0751953 C150.291936,62.65625 149.949162,62.3134766 149.530217,62.3134766 C149.111271,62.3134766 148.768498,62.65625 148.768498,63.0751953 C148.768498,63.4941406 149.111271,63.8369141 149.530217,63.8369141 Z M150.076115,72 L150.076115,65.1572266 L148.984318,65.1572266 L148.984318,72 L150.076115,72 Z M154.892158,72.1206055 C156.840889,72.1206055 158.046943,70.7749023 158.046943,68.5786133 C158.046943,66.3759766 156.840889,65.0366211 154.892158,65.0366211 C152.943428,65.0366211 151.737373,66.3759766 151.737373,68.5786133 C151.737373,70.7749023 152.943428,72.1206055 154.892158,72.1206055 Z M154.892158,71.1367188 C153.597236,71.1367188 152.867256,70.1972656 152.867256,68.5786133 C152.867256,66.9536133 153.597236,66.0205078 154.892158,66.0205078 C156.18708,66.0205078 156.917061,66.9536133 156.917061,68.5786133 C156.917061,70.1972656 156.18708,71.1367188 154.892158,71.1367188 Z M160.774607,72 L160.774607,67.9501953 C160.774607,66.7504883 161.479197,66.0205078 162.570994,66.0205078 C163.662791,66.0205078 164.183299,66.6044922 164.183299,67.8359375 L164.183299,72 L165.275096,72 L165.275096,67.5693359 C165.275096,65.9443359 164.418162,65.0366211 162.882029,65.0366211 C161.834666,65.0366211 161.168162,65.480957 160.825389,66.2363281 L160.723826,66.2363281 L160.723826,65.1572266 L159.682811,65.1572266 L159.682811,72 L160.774607,72 Z M168.091627,72.0634766 C168.548658,72.0634766 168.916822,71.6889648 168.916822,71.2382812 C168.916822,70.78125 168.548658,70.4130859 168.091627,70.4130859 C167.640943,70.4130859 167.266432,70.78125 167.266432,71.2382812 C167.266432,71.6889648 167.640943,72.0634766 168.091627,72.0634766 Z" id="Please,gotoSettingsandallowpermission." fill="#000000" fill-rule="nonzero"></path>
            <path d="M65.3754707,36 L65.3754707,32.0405273 L67.9736152,32.0405273 C70.3974434,32.0405273 72.0908027,30.421875 72.0908027,28.0561523 C72.0908027,25.6489258 70.4555488,24.0219727 68.0649238,24.0219727 L63.2338691,24.0219727 L63.2338691,36 L65.3754707,36 Z M67.4921699,30.3139648 L65.3754707,30.3139648 L65.3754707,25.7734375 L67.5004707,25.7734375 C69.044416,25.7734375 69.915998,26.5703125 69.915998,28.0561523 C69.915998,29.5004883 69.0195137,30.3139648 67.4921699,30.3139648 Z M77.4103418,36.1826172 C79.5519434,36.1826172 81.0709863,35.1533203 81.4445215,33.5180664 L79.4938379,33.5180664 C79.1950098,34.1987305 78.4894434,34.5805664 77.4684473,34.5805664 C76.1154199,34.5805664 75.2438379,33.6176758 75.1940332,32.0820312 L75.1940332,31.9741211 L81.5358301,31.9741211 L81.5358301,31.3183594 C81.5358301,28.4711914 79.983584,26.7529297 77.3937402,26.7529297 C74.7623926,26.7529297 73.1271387,28.5874023 73.1271387,31.5009766 C73.1271387,34.40625 74.7374902,36.1826172 77.4103418,36.1826172 Z M79.4772363,30.6044922 L75.202334,30.6044922 C75.2936426,29.2431641 76.1569238,28.3549805 77.3854395,28.3549805 C78.6222559,28.3549805 79.4357324,29.2265625 79.4772363,30.6044922 Z M85.2533184,36 L85.2533184,30.7290039 C85.2533184,29.4506836 86.1830059,28.6206055 87.5194316,28.6206055 C87.8680645,28.6206055 88.415916,28.6787109 88.5736309,28.7368164 L88.5736309,26.8608398 C88.3827129,26.8110352 88.0174785,26.777832 87.7186504,26.777832 C86.5482402,26.777832 85.568748,27.4418945 85.3197246,28.3383789 L85.1786113,28.3383789 L85.1786113,26.9272461 L83.1947246,26.9272461 L83.1947246,36 L85.2533184,36 Z M92.0254941,36 L92.0254941,30.4799805 C92.0254941,29.3510742 92.7808652,28.4960938 93.8018613,28.4960938 C94.8145566,28.4960938 95.445416,29.1103516 95.445416,30.1147461 L95.445416,36 L97.4459043,36 L97.4459043,30.3305664 C97.4459043,29.2929688 98.1514707,28.4960938 99.2222715,28.4960938 C100.326275,28.4960938 100.882428,29.0854492 100.882428,30.2641602 L100.882428,36 L102.932721,36 L102.932721,29.7578125 C102.932721,27.8735352 101.837018,26.7529297 100.019146,26.7529297 C98.7574277,26.7529297 97.7115293,27.4003906 97.2632871,28.3881836 L97.1221738,28.3881836 C96.7403379,27.3837891 95.8687559,26.7529297 94.6153379,26.7529297 C93.4117246,26.7529297 92.4820371,27.3671875 92.0919004,28.3881836 L91.9507871,28.3881836 L91.9507871,26.9272461 L89.9669004,26.9272461 L89.9669004,36 L92.0254941,36 Z M106.011049,25.4082031 C106.691713,25.4082031 107.247865,24.8686523 107.247865,24.1879883 C107.247865,23.515625 106.691713,22.9677734 106.011049,22.9677734 C105.338686,22.9677734 104.782533,23.515625 104.782533,24.1879883 C104.782533,24.8686523 105.338686,25.4082031 106.011049,25.4082031 Z M107.040346,36 L107.040346,26.9272461 L104.990053,26.9272461 L104.990053,36 L107.040346,36 Z M112.592307,36.1826172 C114.85842,36.1826172 116.460471,35.0288086 116.460471,33.2939453 C116.460471,31.9575195 115.655295,31.21875 113.920432,30.8203125 L112.318381,30.4633789 C111.405295,30.2475586 110.973654,29.9238281 110.973654,29.4091797 C110.973654,28.7368164 111.679221,28.2802734 112.617209,28.2802734 C113.5801,28.2802734 114.186057,28.6953125 114.335471,29.3344727 L116.269553,29.3344727 C116.120139,27.6992188 114.767111,26.7529297 112.608908,26.7529297 C110.467307,26.7529297 108.973166,27.8901367 108.973166,29.5170898 C108.973166,30.878418 109.794943,31.675293 111.538107,32.0737305 L113.148459,32.4472656 C114.01174,32.6464844 114.401877,32.9785156 114.401877,33.4931641 C114.401877,34.1821289 113.679709,34.6552734 112.642111,34.6552734 C111.612814,34.6552734 110.973654,34.2402344 110.774436,33.5678711 L108.740744,33.5678711 C108.898459,35.203125 110.326193,36.1826172 112.592307,36.1826172 Z M121.381572,36.1826172 C123.647686,36.1826172 125.249736,35.0288086 125.249736,33.2939453 C125.249736,31.9575195 124.444561,31.21875 122.709697,30.8203125 L121.107646,30.4633789 C120.194561,30.2475586 119.76292,29.9238281 119.76292,29.4091797 C119.76292,28.7368164 120.468486,28.2802734 121.406475,28.2802734 C122.369365,28.2802734 122.975322,28.6953125 123.124736,29.3344727 L125.058818,29.3344727 C124.909404,27.6992188 123.556377,26.7529297 121.398174,26.7529297 C119.256572,26.7529297 117.762432,27.8901367 117.762432,29.5170898 C117.762432,30.878418 118.584209,31.675293 120.327373,32.0737305 L121.937725,32.4472656 C122.801006,32.6464844 123.191143,32.9785156 123.191143,33.4931641 C123.191143,34.1821289 122.468975,34.6552734 121.431377,34.6552734 C120.40208,34.6552734 119.76292,34.2402344 119.563701,33.5678711 L117.53001,33.5678711 C117.687725,35.203125 119.115459,36.1826172 121.381572,36.1826172 Z M127.971131,25.4082031 C128.651795,25.4082031 129.207947,24.8686523 129.207947,24.1879883 C129.207947,23.515625 128.651795,22.9677734 127.971131,22.9677734 C127.298768,22.9677734 126.742615,23.515625 126.742615,24.1879883 C126.742615,24.8686523 127.298768,25.4082031 127.971131,25.4082031 Z M129.000428,36 L129.000428,26.9272461 L126.950135,26.9272461 L126.950135,36 L129.000428,36 Z M135.058736,36.1826172 C137.773092,36.1826172 139.424947,34.40625 139.424947,31.4594727 C139.424947,28.5292969 137.764791,26.7529297 135.058736,26.7529297 C132.360982,26.7529297 130.692525,28.5375977 130.692525,31.4594727 C130.692525,34.40625 132.33608,36.1826172 135.058736,36.1826172 Z M135.058736,34.4975586 C133.622701,34.4975586 132.800924,33.3852539 132.800924,31.4677734 C132.800924,29.550293 133.622701,28.4379883 135.058736,28.4379883 C136.486471,28.4379883 137.308248,29.550293 137.308248,31.4677734 C137.308248,33.3852539 136.494771,34.4975586 135.058736,34.4975586 Z M143.150736,36 L143.150736,30.7124023 C143.150736,29.3510742 143.922709,28.4960938 145.151225,28.4960938 C146.404643,28.4960938 146.985697,29.2016602 146.985697,30.612793 L146.985697,36 L149.044291,36 L149.044291,30.1313477 C149.044291,27.9731445 147.940287,26.7529297 145.914896,26.7529297 C144.561869,26.7529297 143.648783,27.3671875 143.217143,28.3798828 L143.076029,28.3798828 L143.076029,26.9272461 L141.092143,26.9272461 L141.092143,36 L143.150736,36 Z M158.488057,36.1494141 C159.749775,36.1494141 160.795674,35.5600586 161.310322,34.5639648 L161.451436,34.5639648 L161.451436,36 L163.443623,36 L163.443623,23.4160156 L161.385029,23.4160156 L161.385029,28.371582 L161.243916,28.371582 C160.762471,27.3754883 159.733174,26.777832 158.488057,26.777832 C156.197041,26.777832 154.752705,28.5874023 154.752705,31.4594727 C154.752705,34.3398438 156.18874,36.1494141 158.488057,36.1494141 Z M159.127217,34.4394531 C157.716084,34.4394531 156.861104,33.3271484 156.861104,31.4677734 C156.861104,29.6166992 157.724385,28.4960938 159.127217,28.4960938 C160.53835,28.4960938 161.409932,29.6333008 161.409932,31.4677734 C161.409932,33.3105469 160.54665,34.4394531 159.127217,34.4394531 Z M169.468729,36.1826172 C171.61033,36.1826172 173.129373,35.1533203 173.502908,33.5180664 L171.552225,33.5180664 C171.253396,34.1987305 170.54783,34.5805664 169.526834,34.5805664 C168.173807,34.5805664 167.302225,33.6176758 167.25242,32.0820312 L167.25242,31.9741211 L173.594217,31.9741211 L173.594217,31.3183594 C173.594217,28.4711914 172.041971,26.7529297 169.452127,26.7529297 C166.820779,26.7529297 165.185525,28.5874023 165.185525,31.5009766 C165.185525,34.40625 166.795877,36.1826172 169.468729,36.1826172 Z M171.535623,30.6044922 L167.260721,30.6044922 C167.352029,29.2431641 168.215311,28.3549805 169.443826,28.3549805 C170.680643,28.3549805 171.494119,29.2265625 171.535623,30.6044922 Z M177.311705,36 L177.311705,30.7124023 C177.311705,29.3510742 178.083678,28.4960938 179.312193,28.4960938 C180.565611,28.4960938 181.146666,29.2016602 181.146666,30.612793 L181.146666,36 L183.20526,36 L183.20526,30.1313477 C183.20526,27.9731445 182.101256,26.7529297 180.075865,26.7529297 C178.722838,26.7529297 177.809752,27.3671875 177.378111,28.3798828 L177.236998,28.3798828 L177.236998,26.9272461 L175.253111,26.9272461 L175.253111,36 L177.311705,36 Z M186.283588,25.4082031 C186.964252,25.4082031 187.520404,24.8686523 187.520404,24.1879883 C187.520404,23.515625 186.964252,22.9677734 186.283588,22.9677734 C185.611225,22.9677734 185.055072,23.515625 185.055072,24.1879883 C185.055072,24.8686523 185.611225,25.4082031 186.283588,25.4082031 Z M187.312885,36 L187.312885,26.9272461 L185.262592,26.9272461 L185.262592,36 L187.312885,36 Z M193.288186,36.1826172 C195.429787,36.1826172 196.94883,35.1533203 197.322365,33.5180664 L195.371682,33.5180664 C195.072854,34.1987305 194.367287,34.5805664 193.346291,34.5805664 C191.993264,34.5805664 191.121682,33.6176758 191.071877,32.0820312 L191.071877,31.9741211 L197.413674,31.9741211 L197.413674,31.3183594 C197.413674,28.4711914 195.861428,26.7529297 193.271584,26.7529297 C190.640236,26.7529297 189.004982,28.5874023 189.004982,31.5009766 C189.004982,34.40625 190.615334,36.1826172 193.288186,36.1826172 Z M195.35508,30.6044922 L191.080178,30.6044922 C191.171486,29.2431641 192.034768,28.3549805 193.263283,28.3549805 C194.5001,28.3549805 195.313576,29.2265625 195.35508,30.6044922 Z M202.359678,36.1494141 C203.621396,36.1494141 204.667295,35.5600586 205.181943,34.5639648 L205.323057,34.5639648 L205.323057,36 L207.315244,36 L207.315244,23.4160156 L205.25665,23.4160156 L205.25665,28.371582 L205.115537,28.371582 C204.634092,27.3754883 203.604795,26.777832 202.359678,26.777832 C200.068662,26.777832 198.624326,28.5874023 198.624326,31.4594727 C198.624326,34.3398438 200.060361,36.1494141 202.359678,36.1494141 Z M202.998838,34.4394531 C201.587705,34.4394531 200.732725,33.3271484 200.732725,31.4677734 C200.732725,29.6166992 201.596006,28.4960938 202.998838,28.4960938 C204.409971,28.4960938 205.281553,29.6333008 205.281553,31.4677734 C205.281553,33.3105469 204.418271,34.4394531 202.998838,34.4394531 Z" id="Permissiondenied" fill="#000000" fill-rule="nonzero"></path>
        </g>
    </g>
</svg>